<?xml version="1.0" encoding="UTF-8"?>
<svg xmlns="http://www.w3.org/2000/svg" xmlns:xlink="http://www.w3.org/1999/xlink" width="24px" height="24px" viewBox="0 0 24 24" version="1.1">
<g id="surface1">
<path style=" stroke:none;fill-rule:nonzero;fill:rgb(32.941176%,36.862745%,45.098039%);fill-opacity:1;" d="M 21.363281 3.492188 C 21.042969 1.542969 16.484375 0 10.910156 0 C 5.332031 0 0.773438 1.542969 0.457031 3.492188 L 0.4375 3.492188 L 0.4375 19.636719 L 0.457031 19.636719 C 0.773438 21.582031 5.332031 23.125 10.910156 23.125 C 16.484375 23.125 21.042969 21.582031 21.363281 19.636719 L 21.382812 19.636719 L 21.382812 3.492188 Z M 21.363281 3.492188 "/>
<path style=" stroke:none;fill-rule:nonzero;fill:rgb(21.960784%,27.058824%,30.980392%);fill-opacity:1;" d="M 10.910156 17.890625 C 5.125 17.890625 0.4375 16.230469 0.4375 14.183594 L 0.4375 19.636719 L 0.457031 19.636719 C 0.773438 21.582031 5.332031 23.125 10.910156 23.125 C 16.484375 23.125 21.042969 21.582031 21.363281 19.636719 L 21.382812 19.636719 L 21.382812 14.183594 C 21.382812 16.230469 16.695312 17.890625 10.910156 17.890625 Z M 10.910156 17.890625 "/>
<path style=" stroke:none;fill-rule:nonzero;fill:rgb(21.960784%,27.058824%,30.980392%);fill-opacity:1;" d="M 0.4375 13.964844 L 0.4375 14.183594 C 0.4375 14.109375 0.445312 14.035156 0.457031 13.964844 Z M 0.4375 13.964844 "/>
<path style=" stroke:none;fill-rule:nonzero;fill:rgb(21.960784%,27.058824%,30.980392%);fill-opacity:1;" d="M 21.363281 13.964844 C 21.375 14.035156 21.382812 14.109375 21.382812 14.183594 L 21.382812 13.964844 Z M 21.363281 13.964844 "/>
<path style=" stroke:none;fill-rule:nonzero;fill:rgb(33.333333%,37.647059%,50.196078%);fill-opacity:1;" d="M 10.910156 12.65625 C 5.125 12.65625 0.4375 10.992188 0.4375 8.945312 L 0.4375 14.398438 L 0.457031 14.398438 C 0.773438 16.347656 5.332031 17.890625 10.910156 17.890625 C 16.484375 17.890625 21.042969 16.347656 21.363281 14.398438 L 21.382812 14.398438 L 21.382812 8.945312 C 21.382812 10.992188 16.695312 12.65625 10.910156 12.65625 Z M 10.910156 12.65625 "/>
<path style=" stroke:none;fill-rule:nonzero;fill:rgb(33.333333%,37.647059%,50.196078%);fill-opacity:1;" d="M 0.4375 8.726562 L 0.4375 8.945312 C 0.4375 8.871094 0.445312 8.800781 0.457031 8.726562 Z M 0.4375 8.726562 "/>
<path style=" stroke:none;fill-rule:nonzero;fill:rgb(33.333333%,37.647059%,50.196078%);fill-opacity:1;" d="M 21.363281 8.726562 C 21.375 8.800781 21.382812 8.871094 21.382812 8.945312 L 21.382812 8.726562 Z M 21.363281 8.726562 "/>
<path style=" stroke:none;fill-rule:nonzero;fill:rgb(56.862745%,72.941176%,88.235294%);fill-opacity:1;" d="M 21.382812 3.710938 C 21.382812 1.660156 16.695312 0 10.910156 0 C 5.125 0 0.4375 1.660156 0.4375 3.710938 C 0.4375 5.757812 5.125 7.417969 10.910156 7.417969 C 16.695312 7.417969 21.382812 5.757812 21.382812 3.710938 Z M 21.382812 3.710938 "/>
<path style=" stroke:none;fill-rule:nonzero;fill:rgb(52.54902%,59.215686%,79.607843%);fill-opacity:1;" d="M 10.910156 7.417969 C 5.125 7.417969 0.4375 5.757812 0.4375 3.710938 L 0.4375 9.164062 L 0.457031 9.164062 C 0.773438 11.109375 5.332031 12.65625 10.910156 12.65625 C 16.484375 12.65625 21.042969 11.109375 21.363281 9.164062 L 21.382812 9.164062 L 21.382812 3.710938 C 21.382812 5.757812 16.695312 7.417969 10.910156 7.417969 Z M 10.910156 7.417969 "/>
<path style=" stroke:none;fill-rule:nonzero;fill:rgb(52.54902%,59.215686%,79.607843%);fill-opacity:1;" d="M 0.4375 3.492188 L 0.4375 3.710938 C 0.4375 3.636719 0.445312 3.5625 0.457031 3.492188 Z M 0.4375 3.492188 "/>
<path style=" stroke:none;fill-rule:nonzero;fill:rgb(52.54902%,59.215686%,79.607843%);fill-opacity:1;" d="M 21.363281 3.492188 C 21.375 3.5625 21.382812 3.636719 21.382812 3.710938 L 21.382812 3.492188 Z M 21.363281 3.492188 "/>
<path style=" stroke:none;fill-rule:nonzero;fill:rgb(56.862745%,72.941176%,88.235294%);fill-opacity:1;" d="M 19.199219 18.328125 L 18.328125 18.328125 C 16.742188 17.691406 15.710938 16.207031 15.710938 14.558594 L 15.710938 13.089844 L 21.816406 13.089844 L 21.816406 14.558594 C 21.816406 16.207031 20.785156 17.691406 19.199219 18.328125 Z M 19.199219 18.328125 "/>
<path style=" stroke:none;fill-rule:nonzero;fill:rgb(56.862745%,72.941176%,88.235294%);fill-opacity:1;" d="M 18.328125 18.328125 L 19.199219 18.328125 C 20.785156 18.960938 21.816406 20.449219 21.816406 22.097656 L 21.816406 23.5625 L 15.710938 23.5625 L 15.710938 22.097656 C 15.710938 20.449219 16.742188 18.960938 18.328125 18.328125 Z M 18.328125 18.328125 "/>
<path style=" stroke:none;fill-rule:nonzero;fill:rgb(81.568627%,90.980392%,97.647059%);fill-opacity:1;" d="M 14.398438 13.527344 L 23.125 13.527344 C 23.367188 13.527344 23.5625 13.332031 23.5625 13.089844 C 23.5625 12.851562 23.367188 12.65625 23.125 12.65625 L 14.398438 12.65625 C 14.160156 12.65625 13.964844 12.851562 13.964844 13.089844 C 13.964844 13.332031 14.160156 13.527344 14.398438 13.527344 Z M 14.398438 13.527344 "/>
<path style=" stroke:none;fill-rule:nonzero;fill:rgb(81.568627%,90.980392%,97.647059%);fill-opacity:1;" d="M 23.125 23.125 L 15.273438 23.125 C 15.269531 23.125 15.269531 23.125 15.269531 23.125 L 14.398438 23.125 C 14.160156 23.125 13.964844 23.324219 13.964844 23.5625 C 13.964844 23.804688 14.160156 24 14.398438 24 L 15.710938 24 C 15.710938 24 15.710938 24 15.714844 24 L 23.125 24 C 23.367188 24 23.5625 23.804688 23.5625 23.5625 C 23.5625 23.320312 23.367188 23.125 23.125 23.125 Z M 23.125 23.125 "/>
</g>
</svg>
