<?xml version="1.0" encoding="UTF-8"?>
<svg xmlns="http://www.w3.org/2000/svg" xmlns:xlink="http://www.w3.org/1999/xlink" width="24px" height="24px" viewBox="0 0 24 24" version="1.1">
<g id="surface1">
<path style=" stroke:none;fill-rule:nonzero;fill:rgb(34.117647%,34.117647%,36.078431%);fill-opacity:1;" d="M 18.546875 4.363281 L 15.273438 4.363281 L 15.273438 1.089844 C 15.273438 0.488281 14.785156 0 14.183594 0 L 5.453125 0 C 4.851562 0 4.363281 0.488281 4.363281 1.089844 L 4.363281 4.363281 L 1.089844 4.363281 C 0.488281 4.363281 0 4.851562 0 5.453125 C 0 6.058594 0.488281 6.546875 1.089844 6.546875 L 2.183594 6.546875 L 2.183594 20 C 2.183594 20.601562 2.671875 21.089844 3.273438 21.089844 L 9.816406 21.089844 L 9.816406 6.546875 L 18.546875 6.546875 C 19.148438 6.546875 19.636719 6.058594 19.636719 5.453125 C 19.636719 4.851562 19.148438 4.363281 18.546875 4.363281 Z M 13.089844 4.363281 L 6.546875 4.363281 L 6.546875 2.183594 L 13.089844 2.183594 Z M 13.089844 4.363281 "/>
<path style=" stroke:none;fill-rule:nonzero;fill:rgb(66.27451%,65.882353%,68.235294%);fill-opacity:1;" d="M 18.546875 4.363281 L 15.273438 4.363281 L 15.273438 1.089844 C 15.273438 0.488281 14.785156 0 14.183594 0 L 5.453125 0 C 4.851562 0 4.363281 0.488281 4.363281 1.089844 L 4.363281 4.363281 L 1.089844 4.363281 C 0.488281 4.363281 0 4.851562 0 5.453125 C 0 6.058594 0.488281 6.546875 1.089844 6.546875 L 2.183594 6.546875 L 2.183594 20 C 2.183594 20.601562 2.671875 21.089844 3.273438 21.089844 L 9.816406 21.089844 L 9.816406 12.433594 C 10 12.132812 10.203125 11.84375 10.425781 11.566406 C 10.429688 11.566406 10.429688 11.5625 10.433594 11.558594 C 10.46875 11.515625 10.503906 11.472656 10.539062 11.433594 C 10.542969 11.425781 10.546875 11.421875 10.554688 11.414062 C 10.585938 11.375 10.621094 11.335938 10.652344 11.296875 C 10.660156 11.292969 10.667969 11.285156 10.671875 11.277344 C 10.707031 11.242188 10.738281 11.203125 10.773438 11.167969 C 10.78125 11.160156 10.789062 11.152344 10.792969 11.144531 C 10.828125 11.109375 10.863281 11.074219 10.898438 11.039062 C 10.902344 11.035156 10.90625 11.03125 10.910156 11.023438 C 10.910156 11.023438 10.914062 11.019531 10.917969 11.019531 C 11.023438 10.910156 11.128906 10.804688 11.242188 10.703125 C 11.253906 10.691406 11.269531 10.679688 11.28125 10.667969 C 11.332031 10.625 11.378906 10.582031 11.429688 10.542969 C 11.4375 10.535156 11.449219 10.523438 11.457031 10.515625 C 11.507812 10.476562 11.558594 10.433594 11.609375 10.394531 C 11.617188 10.386719 11.625 10.378906 11.636719 10.371094 C 11.648438 10.363281 11.660156 10.355469 11.671875 10.34375 C 11.707031 10.316406 11.746094 10.285156 11.78125 10.257812 C 11.796875 10.246094 11.8125 10.234375 11.828125 10.226562 C 11.882812 10.183594 11.9375 10.144531 11.996094 10.105469 C 11.996094 10.101562 12 10.101562 12 10.101562 C 12.003906 10.097656 12.007812 10.097656 12.011719 10.09375 C 12.09375 10.035156 12.175781 9.980469 12.261719 9.925781 C 12.347656 9.871094 12.433594 9.820312 12.519531 9.769531 C 12.523438 9.765625 12.53125 9.761719 12.535156 9.757812 C 12.617188 9.710938 12.699219 9.664062 12.785156 9.621094 C 12.796875 9.613281 12.808594 9.605469 12.820312 9.601562 C 12.902344 9.558594 12.980469 9.519531 13.0625 9.480469 C 13.070312 9.476562 13.082031 9.46875 13.089844 9.464844 C 13.097656 9.460938 13.105469 9.457031 13.113281 9.453125 C 13.183594 9.421875 13.253906 9.390625 13.324219 9.359375 C 13.34375 9.351562 13.363281 9.34375 13.382812 9.332031 C 13.453125 9.304688 13.523438 9.277344 13.589844 9.25 C 13.601562 9.242188 13.617188 9.238281 13.628906 9.234375 C 13.699219 9.207031 13.769531 9.179688 13.839844 9.15625 C 13.859375 9.148438 13.878906 9.140625 13.898438 9.136719 C 13.972656 9.109375 14.050781 9.085938 14.125 9.0625 C 14.144531 9.058594 14.164062 9.050781 14.179688 9.046875 C 14.257812 9.023438 14.335938 9 14.414062 8.980469 C 14.421875 8.980469 14.425781 8.976562 14.429688 8.976562 C 14.511719 8.953125 14.589844 8.933594 14.671875 8.917969 C 14.6875 8.914062 14.707031 8.910156 14.722656 8.90625 C 14.804688 8.886719 14.886719 8.871094 14.964844 8.855469 C 14.984375 8.851562 15 8.851562 15.015625 8.847656 C 15.101562 8.832031 15.1875 8.816406 15.273438 8.804688 C 15.628906 8.753906 15.992188 8.726562 16.363281 8.726562 C 16.734375 8.726562 17.097656 8.753906 17.453125 8.804688 L 17.453125 6.546875 L 18.546875 6.546875 C 19.148438 6.546875 19.636719 6.058594 19.636719 5.453125 C 19.636719 4.851562 19.148438 4.363281 18.546875 4.363281 Z M 6.546875 4.363281 L 6.546875 2.183594 L 13.089844 2.183594 L 13.089844 4.363281 Z M 6.546875 4.363281 "/>
<path style=" stroke:none;fill-rule:nonzero;fill:rgb(84.705882%,7.843137%,22.745098%);fill-opacity:1;" d="M 17.453125 8.804688 C 17.097656 8.753906 16.734375 8.726562 16.363281 8.726562 C 15.992188 8.726562 15.628906 8.753906 15.273438 8.804688 C 15.1875 8.816406 15.101562 8.832031 15.015625 8.847656 C 15 8.851562 14.980469 8.851562 14.964844 8.855469 C 14.882812 8.871094 14.804688 8.886719 14.722656 8.90625 C 14.707031 8.910156 14.6875 8.914062 14.671875 8.917969 C 14.589844 8.9375 14.511719 8.953125 14.429688 8.976562 C 14.425781 8.976562 14.417969 8.980469 14.414062 8.980469 C 14.335938 9 14.257812 9.023438 14.179688 9.046875 C 14.164062 9.050781 14.144531 9.058594 14.125 9.0625 C 14.050781 9.085938 13.972656 9.109375 13.898438 9.136719 C 13.878906 9.144531 13.859375 9.148438 13.839844 9.15625 C 13.769531 9.179688 13.699219 9.207031 13.628906 9.234375 C 13.617188 9.238281 13.601562 9.242188 13.589844 9.25 C 13.519531 9.277344 13.453125 9.304688 13.382812 9.332031 C 13.363281 9.34375 13.34375 9.351562 13.324219 9.359375 C 13.253906 9.390625 13.183594 9.421875 13.113281 9.453125 C 13.105469 9.457031 13.097656 9.460938 13.089844 9.464844 C 13.082031 9.46875 13.070312 9.476562 13.0625 9.480469 C 12.980469 9.519531 12.898438 9.558594 12.820312 9.601562 C 12.808594 9.605469 12.796875 9.613281 12.78125 9.621094 C 12.699219 9.664062 12.617188 9.710938 12.535156 9.757812 C 12.53125 9.761719 12.523438 9.765625 12.519531 9.769531 C 12.433594 9.820312 12.347656 9.871094 12.261719 9.925781 C 12.175781 9.980469 12.09375 10.035156 12.007812 10.09375 C 12.007812 10.097656 12.003906 10.097656 12 10.101562 C 11.996094 10.101562 11.996094 10.101562 11.996094 10.105469 C 11.9375 10.144531 11.882812 10.183594 11.828125 10.226562 C 11.8125 10.234375 11.796875 10.246094 11.78125 10.257812 C 11.746094 10.285156 11.707031 10.316406 11.667969 10.34375 C 11.660156 10.355469 11.644531 10.363281 11.636719 10.371094 C 11.625 10.378906 11.617188 10.386719 11.605469 10.394531 C 11.558594 10.433594 11.507812 10.476562 11.457031 10.515625 C 11.445312 10.523438 11.4375 10.535156 11.429688 10.542969 C 11.378906 10.582031 11.328125 10.625 11.28125 10.667969 C 11.269531 10.679688 11.253906 10.691406 11.242188 10.703125 C 11.128906 10.804688 11.023438 10.910156 10.914062 11.019531 C 10.914062 11.019531 10.910156 11.023438 10.910156 11.023438 C 10.90625 11.03125 10.902344 11.035156 10.894531 11.039062 C 10.863281 11.074219 10.828125 11.109375 10.792969 11.144531 C 10.789062 11.152344 10.78125 11.160156 10.773438 11.167969 C 10.738281 11.203125 10.707031 11.242188 10.671875 11.277344 C 10.667969 11.285156 10.660156 11.292969 10.652344 11.296875 C 10.621094 11.335938 10.585938 11.375 10.554688 11.414062 C 10.546875 11.421875 10.542969 11.425781 10.539062 11.433594 C 10.503906 11.472656 10.46875 11.515625 10.433594 11.558594 C 10.429688 11.5625 10.429688 11.566406 10.425781 11.566406 C 10.203125 11.84375 10 12.132812 9.816406 12.433594 C 9.8125 12.441406 9.808594 12.445312 9.804688 12.453125 C 9.804688 12.457031 9.800781 12.460938 9.800781 12.464844 C 9.773438 12.511719 9.746094 12.558594 9.71875 12.605469 C 9.714844 12.613281 9.707031 12.621094 9.703125 12.628906 C 9.679688 12.671875 9.65625 12.714844 9.632812 12.761719 C 9.625 12.769531 9.621094 12.78125 9.617188 12.792969 C 9.59375 12.832031 9.570312 12.875 9.550781 12.917969 C 9.542969 12.929688 9.539062 12.941406 9.53125 12.953125 C 9.511719 12.996094 9.492188 13.035156 9.472656 13.078125 C 9.464844 13.089844 9.457031 13.105469 9.453125 13.117188 C 9.433594 13.15625 9.414062 13.199219 9.394531 13.238281 C 9.390625 13.253906 9.382812 13.265625 9.378906 13.28125 C 9.359375 13.320312 9.339844 13.363281 9.324219 13.40625 C 9.316406 13.417969 9.3125 13.433594 9.308594 13.445312 C 9.289062 13.488281 9.269531 13.53125 9.253906 13.574219 C 9.25 13.589844 9.246094 13.601562 9.238281 13.613281 C 9.222656 13.660156 9.203125 13.707031 9.1875 13.757812 C 9.183594 13.765625 9.179688 13.769531 9.175781 13.777344 C 9.117188 13.949219 9.058594 14.125 9.011719 14.300781 C 9.007812 14.308594 9.003906 14.320312 9 14.332031 C 8.988281 14.378906 8.976562 14.425781 8.964844 14.472656 C 8.960938 14.488281 8.957031 14.507812 8.949219 14.523438 C 8.941406 14.566406 8.929688 14.605469 8.921875 14.648438 C 8.917969 14.667969 8.914062 14.6875 8.90625 14.710938 C 8.898438 14.746094 8.890625 14.785156 8.882812 14.824219 C 8.878906 14.84375 8.875 14.867188 8.871094 14.890625 C 8.863281 14.929688 8.855469 14.964844 8.847656 15 C 8.84375 15.023438 8.839844 15.050781 8.835938 15.074219 C 8.832031 15.109375 8.824219 15.144531 8.820312 15.179688 C 8.816406 15.203125 8.8125 15.230469 8.808594 15.253906 C 8.800781 15.289062 8.796875 15.324219 8.792969 15.359375 C 8.789062 15.386719 8.785156 15.410156 8.78125 15.4375 C 8.777344 15.472656 8.773438 15.507812 8.769531 15.542969 C 8.769531 15.570312 8.765625 15.59375 8.761719 15.621094 C 8.757812 15.65625 8.757812 15.691406 8.753906 15.730469 C 8.75 15.753906 8.75 15.78125 8.746094 15.804688 C 8.746094 15.84375 8.742188 15.878906 8.738281 15.917969 C 8.738281 15.941406 8.738281 15.964844 8.734375 15.988281 C 8.734375 16.03125 8.734375 16.074219 8.730469 16.117188 C 8.730469 16.136719 8.730469 16.15625 8.730469 16.175781 C 8.726562 16.238281 8.726562 16.300781 8.726562 16.363281 C 8.726562 17.253906 8.882812 18.113281 9.164062 18.910156 C 9.296875 19.285156 9.460938 19.652344 9.648438 20 C 9.703125 20.097656 9.761719 20.195312 9.816406 20.292969 C 9.984375 20.570312 10.171875 20.835938 10.371094 21.089844 C 11.769531 22.863281 13.9375 24 16.363281 24 C 20.574219 24 24 20.574219 24 16.363281 C 24 12.523438 21.148438 9.335938 17.453125 8.804688 Z M 17.453125 8.804688 "/>
<path style=" stroke:none;fill-rule:nonzero;fill:rgb(46.666667%,45.882353%,49.803922%);fill-opacity:1;" d="M 9.648438 20 C 9.460938 19.652344 9.296875 19.285156 9.164062 18.910156 C 8.882812 18.113281 8.726562 17.253906 8.726562 16.363281 C 8.726562 16.300781 8.726562 16.238281 8.730469 16.175781 C 8.730469 16.15625 8.730469 16.136719 8.730469 16.117188 C 8.734375 16.074219 8.734375 16.03125 8.738281 15.988281 C 8.738281 15.964844 8.738281 15.941406 8.742188 15.917969 C 8.742188 15.878906 8.746094 15.84375 8.746094 15.804688 C 8.75 15.78125 8.75 15.753906 8.753906 15.730469 C 8.757812 15.691406 8.761719 15.65625 8.761719 15.621094 C 8.765625 15.59375 8.769531 15.570312 8.769531 15.542969 C 8.773438 15.507812 8.777344 15.472656 8.785156 15.4375 C 8.785156 15.410156 8.789062 15.386719 8.792969 15.359375 C 8.796875 15.324219 8.804688 15.289062 8.808594 15.253906 C 8.8125 15.230469 8.816406 15.203125 8.820312 15.179688 C 8.824219 15.144531 8.832031 15.109375 8.835938 15.074219 C 8.839844 15.050781 8.84375 15.023438 8.847656 15 C 8.855469 14.964844 8.863281 14.929688 8.871094 14.890625 C 8.875 14.867188 8.878906 14.84375 8.882812 14.824219 C 8.890625 14.785156 8.898438 14.746094 8.910156 14.710938 C 8.914062 14.6875 8.917969 14.667969 8.921875 14.648438 C 8.929688 14.605469 8.941406 14.566406 8.953125 14.523438 C 8.957031 14.507812 8.960938 14.488281 8.964844 14.472656 C 8.976562 14.425781 8.988281 14.378906 9.003906 14.332031 C 9.003906 14.320312 9.007812 14.308594 9.011719 14.300781 C 9.058594 14.125 9.117188 13.949219 9.175781 13.777344 C 9.179688 13.769531 9.183594 13.765625 9.1875 13.757812 C 9.203125 13.707031 9.222656 13.660156 9.242188 13.613281 C 9.246094 13.601562 9.25 13.589844 9.253906 13.574219 C 9.273438 13.53125 9.289062 13.488281 9.308594 13.445312 C 9.3125 13.433594 9.320312 13.417969 9.324219 13.40625 C 9.339844 13.363281 9.359375 13.320312 9.378906 13.28125 C 9.382812 13.265625 9.390625 13.253906 9.394531 13.238281 C 9.414062 13.199219 9.433594 13.15625 9.453125 13.117188 C 9.460938 13.105469 9.464844 13.089844 9.472656 13.078125 C 9.492188 13.035156 9.511719 12.996094 9.53125 12.953125 C 9.539062 12.941406 9.542969 12.929688 9.550781 12.917969 C 9.570312 12.875 9.59375 12.832031 9.617188 12.792969 C 9.621094 12.78125 9.625 12.769531 9.632812 12.761719 C 9.65625 12.714844 9.679688 12.671875 9.703125 12.628906 C 9.710938 12.621094 9.714844 12.613281 9.71875 12.605469 C 9.746094 12.558594 9.773438 12.511719 9.800781 12.464844 C 9.800781 12.460938 9.804688 12.457031 9.808594 12.453125 C 9.808594 12.445312 9.8125 12.441406 9.816406 12.433594 L 9.816406 6.546875 L 18.546875 6.546875 C 19.148438 6.546875 19.636719 6.058594 19.636719 5.453125 C 19.636719 4.851562 19.148438 4.363281 18.546875 4.363281 L 15.273438 4.363281 L 15.273438 1.089844 C 15.273438 0.488281 14.785156 0 14.179688 0 L 5.453125 0 C 4.851562 0 4.363281 0.488281 4.363281 1.089844 L 4.363281 4.363281 L 1.089844 4.363281 C 0.488281 4.363281 0 4.851562 0 5.453125 C 0 6.058594 0.488281 6.546875 1.089844 6.546875 L 2.183594 6.546875 L 2.183594 20 C 2.183594 20.601562 2.671875 21.089844 3.273438 21.089844 L 9.816406 21.089844 L 9.816406 20.292969 C 9.761719 20.195312 9.703125 20.097656 9.648438 20 Z M 6.546875 2.183594 L 13.089844 2.183594 L 13.089844 4.363281 L 6.546875 4.363281 Z M 6.546875 2.183594 "/>
<path style=" stroke:none;fill-rule:nonzero;fill:rgb(66.27451%,65.882353%,68.235294%);fill-opacity:1;" d="M 9.816406 21.089844 L 10.371094 21.089844 C 10.171875 20.835938 9.984375 20.570312 9.816406 20.292969 Z M 9.816406 21.089844 "/>
<path style=" stroke:none;fill-rule:nonzero;fill:rgb(70.588235%,0%,16.862745%);fill-opacity:1;" d="M 9.175781 13.777344 C 9.117188 13.949219 9.058594 14.125 9.011719 14.300781 C 9.058594 14.125 9.117188 13.949219 9.175781 13.777344 Z M 9.175781 13.777344 "/>
<path style=" stroke:none;fill-rule:nonzero;fill:rgb(52.941176%,52.54902%,55.294118%);fill-opacity:1;" d="M 9.800781 12.464844 C 9.773438 12.511719 9.746094 12.558594 9.71875 12.605469 C 9.714844 12.613281 9.710938 12.621094 9.703125 12.628906 C 9.679688 12.671875 9.65625 12.714844 9.632812 12.761719 C 9.628906 12.769531 9.621094 12.78125 9.617188 12.792969 C 9.59375 12.832031 9.570312 12.875 9.550781 12.917969 C 9.542969 12.929688 9.539062 12.941406 9.53125 12.953125 C 9.511719 12.996094 9.492188 13.035156 9.472656 13.078125 C 9.464844 13.089844 9.460938 13.105469 9.453125 13.117188 C 9.433594 13.15625 9.414062 13.199219 9.394531 13.238281 C 9.390625 13.253906 9.382812 13.265625 9.378906 13.28125 C 9.359375 13.320312 9.339844 13.363281 9.324219 13.40625 C 9.320312 13.417969 9.3125 13.433594 9.308594 13.445312 C 9.289062 13.488281 9.273438 13.53125 9.253906 13.574219 C 9.25 13.589844 9.246094 13.601562 9.242188 13.613281 C 9.222656 13.660156 9.203125 13.707031 9.1875 13.757812 C 9.183594 13.761719 9.179688 13.769531 9.179688 13.777344 C 9.117188 13.949219 9.0625 14.125 9.011719 14.300781 C 9.007812 14.308594 9.003906 14.320312 9.003906 14.332031 C 8.988281 14.378906 8.976562 14.425781 8.964844 14.472656 C 8.960938 14.488281 8.957031 14.507812 8.953125 14.523438 C 8.941406 14.566406 8.929688 14.605469 8.921875 14.648438 C 8.917969 14.667969 8.914062 14.6875 8.910156 14.710938 C 8.898438 14.746094 8.890625 14.785156 8.882812 14.824219 C 8.878906 14.84375 8.875 14.867188 8.871094 14.890625 C 8.863281 14.929688 8.855469 14.964844 8.847656 15 C 8.84375 15.023438 8.839844 15.050781 8.835938 15.074219 C 8.832031 15.109375 8.824219 15.144531 8.820312 15.179688 C 8.816406 15.203125 8.8125 15.230469 8.808594 15.253906 C 8.804688 15.289062 8.796875 15.324219 8.792969 15.359375 C 8.789062 15.386719 8.785156 15.410156 8.785156 15.4375 C 8.777344 15.472656 8.773438 15.507812 8.773438 15.542969 C 8.769531 15.570312 8.765625 15.59375 8.761719 15.621094 C 8.761719 15.65625 8.757812 15.691406 8.753906 15.730469 C 8.75 15.753906 8.75 15.78125 8.746094 15.804688 C 8.746094 15.84375 8.742188 15.878906 8.742188 15.917969 C 8.738281 15.941406 8.738281 15.964844 8.738281 15.988281 C 8.734375 16.03125 8.734375 16.074219 8.730469 16.117188 C 8.730469 16.136719 8.730469 16.15625 8.730469 16.175781 C 8.726562 16.238281 8.726562 16.300781 8.726562 16.363281 C 8.726562 17.253906 8.882812 18.113281 9.164062 18.910156 C 9.296875 19.285156 9.460938 19.652344 9.648438 20 C 9.703125 20.097656 9.761719 20.195312 9.816406 20.292969 L 9.816406 12.433594 C 9.816406 12.441406 9.8125 12.445312 9.808594 12.453125 C 9.804688 12.457031 9.800781 12.460938 9.800781 12.464844 Z M 9.800781 12.464844 "/>
<path style=" stroke:none;fill-rule:nonzero;fill:rgb(34.117647%,34.117647%,36.078431%);fill-opacity:1;" d="M 6.546875 4.363281 L 6.546875 2.183594 L 9.816406 2.183594 L 9.816406 0 L 5.453125 0 C 4.851562 0 4.363281 0.488281 4.363281 1.089844 L 4.363281 4.363281 L 1.089844 4.363281 C 0.488281 4.363281 0 4.851562 0 5.453125 C 0 6.058594 0.488281 6.546875 1.089844 6.546875 L 2.183594 6.546875 L 2.183594 20 C 2.183594 20.601562 2.671875 21.089844 3.273438 21.089844 L 9.816406 21.089844 L 9.816406 20.292969 C 9.761719 20.195312 9.703125 20.097656 9.648438 20 C 9.460938 19.652344 9.296875 19.285156 9.164062 18.910156 C 8.882812 18.113281 8.726562 17.253906 8.726562 16.363281 C 8.726562 16.300781 8.726562 16.238281 8.730469 16.175781 C 8.730469 16.15625 8.730469 16.136719 8.730469 16.117188 C 8.734375 16.074219 8.734375 16.03125 8.734375 15.988281 C 8.738281 15.964844 8.738281 15.941406 8.742188 15.917969 C 8.742188 15.878906 8.746094 15.84375 8.746094 15.804688 C 8.75 15.78125 8.75 15.753906 8.753906 15.730469 C 8.757812 15.691406 8.761719 15.65625 8.761719 15.621094 C 8.765625 15.59375 8.769531 15.570312 8.769531 15.542969 C 8.773438 15.507812 8.777344 15.472656 8.785156 15.4375 C 8.785156 15.410156 8.789062 15.386719 8.792969 15.359375 C 8.796875 15.324219 8.804688 15.289062 8.808594 15.253906 C 8.8125 15.230469 8.816406 15.203125 8.820312 15.179688 C 8.824219 15.144531 8.832031 15.109375 8.835938 15.074219 C 8.839844 15.050781 8.84375 15.023438 8.847656 15 C 8.855469 14.964844 8.863281 14.929688 8.871094 14.890625 C 8.875 14.867188 8.878906 14.847656 8.882812 14.824219 C 8.890625 14.785156 8.898438 14.746094 8.90625 14.710938 C 8.914062 14.6875 8.917969 14.667969 8.921875 14.648438 C 8.929688 14.605469 8.941406 14.566406 8.953125 14.523438 C 8.957031 14.507812 8.960938 14.488281 8.964844 14.472656 C 8.976562 14.425781 8.988281 14.378906 9.003906 14.332031 C 9.003906 14.320312 9.007812 14.308594 9.011719 14.300781 C 9.058594 14.125 9.117188 13.949219 9.175781 13.777344 C 9.179688 13.773438 9.183594 13.765625 9.1875 13.757812 C 9.203125 13.707031 9.222656 13.660156 9.242188 13.613281 C 9.246094 13.601562 9.25 13.589844 9.253906 13.578125 C 9.273438 13.53125 9.289062 13.488281 9.308594 13.445312 C 9.3125 13.433594 9.320312 13.417969 9.324219 13.40625 C 9.339844 13.363281 9.359375 13.320312 9.378906 13.28125 C 9.382812 13.265625 9.390625 13.253906 9.394531 13.238281 C 9.414062 13.199219 9.433594 13.15625 9.453125 13.117188 C 9.460938 13.105469 9.464844 13.089844 9.472656 13.078125 C 9.492188 13.035156 9.511719 12.996094 9.53125 12.953125 C 9.539062 12.941406 9.542969 12.929688 9.550781 12.917969 C 9.570312 12.875 9.59375 12.832031 9.617188 12.792969 C 9.621094 12.78125 9.625 12.769531 9.632812 12.761719 C 9.65625 12.714844 9.679688 12.671875 9.703125 12.628906 C 9.710938 12.621094 9.714844 12.613281 9.71875 12.605469 C 9.746094 12.558594 9.773438 12.511719 9.800781 12.464844 C 9.800781 12.460938 9.804688 12.457031 9.808594 12.453125 C 9.808594 12.445312 9.8125 12.441406 9.816406 12.433594 L 9.816406 4.363281 Z M 6.546875 4.363281 "/>
<path style=" stroke:none;fill-rule:nonzero;fill:rgb(27.45098%,0%,8.627451%);fill-opacity:1;" d="M 14.050781 14.050781 C 13.625 14.476562 13.625 15.167969 14.050781 15.59375 L 14.820312 16.363281 L 14.050781 17.136719 C 13.625 17.5625 13.625 18.25 14.050781 18.675781 C 14.261719 18.890625 14.542969 18.996094 14.820312 18.996094 C 15.101562 18.996094 15.378906 18.890625 15.59375 18.675781 L 16.363281 17.90625 L 17.136719 18.675781 C 17.230469 18.773438 17.339844 18.84375 17.453125 18.898438 C 17.597656 18.964844 17.75 18.996094 17.90625 18.996094 C 18.183594 18.996094 18.464844 18.890625 18.675781 18.675781 C 19.105469 18.25 19.105469 17.5625 18.675781 17.136719 L 17.90625 16.363281 L 18.675781 15.59375 C 19.105469 15.167969 19.105469 14.476562 18.675781 14.050781 C 18.347656 13.71875 17.855469 13.644531 17.453125 13.828125 C 17.339844 13.882812 17.230469 13.953125 17.136719 14.050781 L 16.363281 14.820312 L 15.59375 14.050781 C 15.167969 13.625 14.476562 13.625 14.050781 14.050781 Z M 14.050781 14.050781 "/>
<path style=" stroke:none;fill-rule:nonzero;fill:rgb(70.588235%,0%,16.862745%);fill-opacity:1;" d="M 16.363281 17.90625 L 15.59375 18.675781 C 15.378906 18.890625 15.101562 18.996094 14.820312 18.996094 C 14.542969 18.996094 14.261719 18.890625 14.050781 18.675781 C 13.625 18.25 13.625 17.5625 14.050781 17.136719 L 14.820312 16.363281 L 14.050781 15.59375 C 13.625 15.167969 13.625 14.476562 14.050781 14.050781 C 14.476562 13.625 15.167969 13.625 15.59375 14.050781 L 16.363281 14.820312 L 16.363281 8.726562 C 15.992188 8.726562 15.628906 8.753906 15.273438 8.804688 C 15.1875 8.816406 15.101562 8.832031 15.015625 8.847656 C 15 8.851562 14.980469 8.851562 14.964844 8.855469 C 14.882812 8.871094 14.804688 8.886719 14.722656 8.90625 C 14.707031 8.910156 14.6875 8.914062 14.671875 8.917969 C 14.589844 8.9375 14.511719 8.953125 14.429688 8.976562 C 14.425781 8.976562 14.417969 8.980469 14.414062 8.980469 C 14.335938 9 14.257812 9.023438 14.179688 9.046875 C 14.164062 9.050781 14.144531 9.058594 14.125 9.0625 C 14.050781 9.085938 13.972656 9.109375 13.898438 9.136719 C 13.878906 9.144531 13.859375 9.148438 13.839844 9.15625 C 13.769531 9.179688 13.699219 9.207031 13.628906 9.234375 C 13.617188 9.238281 13.601562 9.242188 13.589844 9.25 C 13.519531 9.277344 13.453125 9.304688 13.382812 9.332031 C 13.363281 9.34375 13.34375 9.351562 13.324219 9.359375 C 13.253906 9.390625 13.183594 9.421875 13.113281 9.453125 C 13.105469 9.457031 13.097656 9.460938 13.089844 9.464844 C 13.082031 9.46875 13.070312 9.476562 13.0625 9.480469 C 12.980469 9.519531 12.898438 9.558594 12.820312 9.601562 C 12.808594 9.605469 12.796875 9.613281 12.78125 9.621094 C 12.699219 9.664062 12.617188 9.710938 12.535156 9.757812 C 12.53125 9.761719 12.523438 9.765625 12.519531 9.769531 C 12.433594 9.820312 12.347656 9.871094 12.261719 9.925781 C 12.175781 9.980469 12.09375 10.035156 12.007812 10.09375 C 12.007812 10.097656 12.003906 10.097656 12 10.101562 C 11.996094 10.101562 11.996094 10.101562 11.996094 10.105469 C 11.9375 10.144531 11.882812 10.183594 11.828125 10.226562 C 11.8125 10.234375 11.796875 10.246094 11.78125 10.257812 C 11.746094 10.285156 11.707031 10.316406 11.667969 10.34375 C 11.660156 10.355469 11.644531 10.363281 11.636719 10.371094 C 11.625 10.378906 11.617188 10.386719 11.605469 10.394531 C 11.558594 10.433594 11.507812 10.476562 11.457031 10.515625 C 11.445312 10.523438 11.4375 10.535156 11.429688 10.542969 C 11.378906 10.582031 11.328125 10.625 11.28125 10.667969 C 11.269531 10.679688 11.253906 10.691406 11.242188 10.703125 C 11.128906 10.804688 11.023438 10.910156 10.914062 11.019531 C 10.914062 11.019531 10.910156 11.023438 10.910156 11.023438 C 10.90625 11.03125 10.902344 11.035156 10.894531 11.039062 C 10.863281 11.074219 10.828125 11.109375 10.792969 11.144531 C 10.789062 11.152344 10.78125 11.160156 10.773438 11.167969 C 10.738281 11.203125 10.707031 11.242188 10.671875 11.277344 C 10.667969 11.285156 10.660156 11.292969 10.652344 11.296875 C 10.621094 11.335938 10.585938 11.375 10.554688 11.414062 C 10.546875 11.421875 10.542969 11.425781 10.539062 11.433594 C 10.503906 11.472656 10.46875 11.515625 10.433594 11.558594 C 10.429688 11.5625 10.429688 11.566406 10.425781 11.566406 C 10.203125 11.84375 10 12.132812 9.816406 12.433594 C 9.8125 12.441406 9.808594 12.445312 9.804688 12.453125 C 9.804688 12.457031 9.800781 12.460938 9.800781 12.464844 C 9.773438 12.511719 9.746094 12.558594 9.71875 12.605469 C 9.714844 12.613281 9.707031 12.621094 9.703125 12.628906 C 9.679688 12.671875 9.65625 12.714844 9.632812 12.761719 C 9.625 12.769531 9.621094 12.78125 9.617188 12.792969 C 9.59375 12.832031 9.570312 12.875 9.550781 12.917969 C 9.542969 12.929688 9.539062 12.941406 9.53125 12.953125 C 9.511719 12.996094 9.492188 13.035156 9.472656 13.078125 C 9.464844 13.089844 9.457031 13.105469 9.453125 13.117188 C 9.433594 13.15625 9.414062 13.199219 9.394531 13.238281 C 9.390625 13.253906 9.382812 13.265625 9.378906 13.28125 C 9.359375 13.320312 9.339844 13.363281 9.324219 13.40625 C 9.316406 13.417969 9.3125 13.433594 9.308594 13.445312 C 9.289062 13.488281 9.273438 13.53125 9.253906 13.574219 C 9.25 13.589844 9.246094 13.601562 9.242188 13.613281 C 9.222656 13.660156 9.203125 13.707031 9.1875 13.757812 C 9.183594 13.765625 9.179688 13.769531 9.175781 13.777344 C 9.117188 13.949219 9.058594 14.125 9.011719 14.300781 C 9.007812 14.308594 9.003906 14.320312 9 14.332031 C 8.988281 14.378906 8.976562 14.425781 8.964844 14.472656 C 8.960938 14.488281 8.957031 14.507812 8.949219 14.523438 C 8.941406 14.566406 8.929688 14.605469 8.921875 14.648438 C 8.917969 14.667969 8.914062 14.6875 8.90625 14.710938 C 8.898438 14.746094 8.890625 14.785156 8.882812 14.824219 C 8.878906 14.84375 8.875 14.867188 8.871094 14.890625 C 8.863281 14.929688 8.855469 14.964844 8.847656 15 C 8.84375 15.023438 8.839844 15.050781 8.835938 15.074219 C 8.832031 15.109375 8.824219 15.144531 8.820312 15.179688 C 8.816406 15.203125 8.8125 15.230469 8.808594 15.253906 C 8.800781 15.289062 8.796875 15.324219 8.792969 15.359375 C 8.789062 15.386719 8.785156 15.410156 8.78125 15.4375 C 8.777344 15.472656 8.773438 15.507812 8.769531 15.542969 C 8.769531 15.570312 8.765625 15.59375 8.761719 15.621094 C 8.757812 15.65625 8.757812 15.691406 8.753906 15.730469 C 8.75 15.753906 8.75 15.78125 8.746094 15.804688 C 8.746094 15.84375 8.742188 15.878906 8.742188 15.917969 C 8.738281 15.941406 8.738281 15.964844 8.734375 15.988281 C 8.734375 16.03125 8.734375 16.074219 8.730469 16.117188 C 8.730469 16.136719 8.730469 16.15625 8.730469 16.175781 C 8.726562 16.238281 8.726562 16.300781 8.726562 16.363281 C 8.726562 17.253906 8.882812 18.113281 9.164062 18.910156 C 9.296875 19.285156 9.460938 19.652344 9.648438 20 C 9.703125 20.097656 9.761719 20.195312 9.816406 20.292969 C 9.984375 20.570312 10.171875 20.835938 10.371094 21.089844 C 11.769531 22.863281 13.9375 24 16.363281 24 Z M 16.363281 17.90625 "/>
</g>
</svg>
