<?xml version="1.0" encoding="UTF-8"?>
<svg xmlns="http://www.w3.org/2000/svg" xmlns:xlink="http://www.w3.org/1999/xlink" width="24px" height="24px" viewBox="0 0 24 24" version="1.1">
<g id="surface1">
<path style=" stroke:none;fill-rule:nonzero;fill:rgb(45.098039%,81.568627%,95.686275%);fill-opacity:1;" d="M 6.117188 13.355469 L 10.503906 17.742188 L 20.738281 7.507812 L 16.351562 3.121094 Z M 17.542969 6.320312 C 17.808594 6.585938 17.808594 7.015625 17.542969 7.28125 L 10.355469 14.46875 C 10.222656 14.601562 10.046875 14.667969 9.871094 14.667969 C 9.699219 14.667969 9.523438 14.601562 9.390625 14.46875 C 9.125 14.203125 9.125 13.773438 9.390625 13.507812 L 16.578125 6.320312 C 16.84375 6.054688 17.277344 6.054688 17.542969 6.320312 Z M 17.542969 6.320312 "/>
<path style=" stroke:none;fill-rule:nonzero;fill:rgb(23.921569%,40.784314%,53.72549%);fill-opacity:1;" d="M 9.390625 14.46875 C 9.523438 14.601562 9.699219 14.667969 9.871094 14.667969 C 10.046875 14.667969 10.222656 14.601562 10.355469 14.46875 L 17.542969 7.28125 C 17.808594 7.015625 17.808594 6.585938 17.542969 6.320312 C 17.277344 6.054688 16.84375 6.054688 16.578125 6.320312 L 9.390625 13.507812 C 9.125 13.773438 9.125 14.203125 9.390625 14.46875 Z M 9.390625 14.46875 "/>
<path style=" stroke:none;fill-rule:nonzero;fill:rgb(23.921569%,40.784314%,53.72549%);fill-opacity:1;" d="M 23.691406 4.335938 C 23.429688 3.550781 22.847656 2.691406 22.007812 1.851562 C 21.164062 1.007812 19.878906 0 18.546875 0 C 17.949219 0 17.398438 0.210938 16.949219 0.609375 C 16.925781 0.625 16.90625 0.644531 16.882812 0.667969 L 14.304688 3.246094 L 0.816406 3.246094 C 0.441406 3.246094 0.136719 3.550781 0.136719 3.929688 L 0.136719 23.320312 C 0.136719 23.695312 0.441406 24 0.816406 24 L 20.207031 24 C 20.585938 24 20.890625 23.695312 20.890625 23.320312 L 20.890625 9.417969 C 20.890625 9.375 20.882812 9.335938 20.878906 9.296875 L 23.136719 7.035156 C 23.140625 7.03125 23.144531 7.027344 23.152344 7.023438 L 23.195312 6.976562 C 23.214844 6.957031 23.234375 6.933594 23.253906 6.910156 C 23.871094 6.21875 24.023438 5.328125 23.691406 4.335938 Z M 9.261719 18.421875 L 4.460938 19.808594 L 5.550781 14.710938 Z M 10.503906 17.742188 L 6.117188 13.355469 L 16.351562 3.121094 L 20.738281 7.507812 Z M 19.527344 22.640625 L 1.496094 22.640625 L 1.496094 4.609375 L 12.941406 4.609375 L 4.660156 12.890625 C 4.566406 12.984375 4.503906 13.101562 4.476562 13.230469 L 2.890625 20.636719 C 2.839844 20.867188 2.917969 21.113281 3.09375 21.273438 C 3.21875 21.394531 3.386719 21.457031 3.558594 21.457031 C 3.59375 21.457031 16.683594 21.457031 16.683594 21.457031 C 17.058594 21.457031 17.363281 21.152344 17.363281 20.777344 C 17.363281 20.402344 17.058594 20.097656 16.683594 20.097656 L 8.367188 20.097656 L 10.601562 19.453125 C 10.710938 19.421875 10.8125 19.359375 10.894531 19.28125 L 19.527344 10.644531 Z M 22.214844 6.03125 C 22.207031 6.039062 22.199219 6.046875 22.195312 6.054688 L 22.1875 6.058594 C 22.1875 6.0625 22.183594 6.0625 22.183594 6.066406 L 21.703125 6.546875 L 17.316406 2.160156 L 17.804688 1.667969 C 17.816406 1.660156 17.824219 1.652344 17.832031 1.644531 C 18.039062 1.453125 18.265625 1.359375 18.546875 1.359375 C 19.210938 1.359375 20.121094 1.890625 21.046875 2.816406 C 21.554688 3.320312 23.132812 5.046875 22.214844 6.03125 Z M 22.214844 6.03125 "/>
</g>
</svg>
