<?xml version="1.0" encoding="UTF-8"?>
<svg xmlns="http://www.w3.org/2000/svg" xmlns:xlink="http://www.w3.org/1999/xlink" width="24px" height="24px" viewBox="0 0 24 24" version="1.1">
<g id="surface1">
<path style=" stroke:none;fill-rule:nonzero;fill:rgb(31.372549%,48.627451%,36.078431%);fill-opacity:1;" d="M 20.558594 24 L 0.925781 24 C 0.542969 24 0.230469 23.6875 0.230469 23.300781 L 0.230469 12.042969 C 0.230469 11.65625 0.542969 11.34375 0.925781 11.34375 C 1.3125 11.34375 1.625 11.65625 1.625 12.042969 L 1.625 22.605469 L 19.859375 22.605469 L 19.859375 21.066406 C 19.859375 20.679688 20.171875 20.367188 20.558594 20.367188 C 20.941406 20.367188 21.253906 20.679688 21.253906 21.066406 L 21.253906 23.300781 C 21.253906 23.6875 20.941406 24 20.558594 24 Z M 20.558594 24 "/>
<path style=" stroke:none;fill-rule:nonzero;fill:rgb(81.176471%,94.117647%,61.960784%);fill-opacity:1;" d="M 0.925781 8.300781 L 0.925781 8.078125 L 8.230469 0.699219 L 8.230469 8.300781 Z M 0.925781 8.300781 "/>
<path style=" stroke:none;fill-rule:nonzero;fill:rgb(81.176471%,94.117647%,61.960784%);fill-opacity:1;" d="M 9.195312 10.285156 L 23.074219 10.285156 L 23.074219 17.957031 L 9.195312 17.957031 Z M 9.195312 10.285156 "/>
<path style=" stroke:none;fill-rule:nonzero;fill:rgb(31.372549%,48.627451%,36.078431%);fill-opacity:1;" d="M 23.074219 9.589844 L 21.253906 9.589844 L 21.253906 0.699219 C 21.253906 0.3125 20.941406 0 20.558594 0 L 8.230469 0 C 8.222656 0 8.214844 0 8.203125 0 C 8.195312 0 8.1875 0 8.179688 0.00390625 C 8.152344 0.00390625 8.121094 0.0078125 8.09375 0.015625 C 8.089844 0.015625 8.089844 0.015625 8.089844 0.015625 C 8.0625 0.0195312 8.03125 0.0273438 8.003906 0.0390625 C 7.996094 0.0390625 7.992188 0.0429688 7.984375 0.046875 C 7.957031 0.0546875 7.929688 0.0664062 7.902344 0.0820312 C 7.902344 0.0820312 7.902344 0.0820312 7.898438 0.0820312 C 7.875 0.0976562 7.847656 0.113281 7.824219 0.132812 C 7.816406 0.136719 7.8125 0.140625 7.804688 0.144531 C 7.78125 0.164062 7.757812 0.183594 7.734375 0.207031 L 0.433594 7.585938 C 0.414062 7.605469 0.398438 7.621094 0.386719 7.640625 C 0.375 7.652344 0.367188 7.664062 0.359375 7.675781 C 0.355469 7.683594 0.347656 7.6875 0.34375 7.695312 C 0.335938 7.710938 0.324219 7.726562 0.316406 7.742188 C 0.316406 7.746094 0.3125 7.75 0.3125 7.753906 C 0.300781 7.769531 0.292969 7.785156 0.289062 7.800781 C 0.285156 7.804688 0.285156 7.808594 0.28125 7.8125 C 0.277344 7.828125 0.269531 7.847656 0.265625 7.863281 C 0.261719 7.867188 0.261719 7.871094 0.257812 7.878906 C 0.253906 7.894531 0.25 7.910156 0.25 7.921875 C 0.246094 7.929688 0.246094 7.9375 0.242188 7.945312 C 0.242188 7.957031 0.238281 7.972656 0.238281 7.988281 C 0.234375 7.996094 0.234375 8.003906 0.234375 8.011719 C 0.230469 8.027344 0.230469 8.039062 0.230469 8.054688 C 0.230469 8.0625 0.230469 8.070312 0.230469 8.078125 L 0.230469 8.300781 C 0.230469 8.6875 0.542969 9 0.925781 9 L 8.230469 9 C 8.617188 9 8.925781 8.6875 8.925781 8.300781 L 8.925781 1.394531 L 19.859375 1.394531 L 19.859375 9.589844 L 9.195312 9.589844 C 8.808594 9.589844 8.496094 9.902344 8.496094 10.285156 L 8.496094 17.957031 C 8.496094 18.34375 8.808594 18.652344 9.195312 18.652344 L 23.074219 18.652344 C 23.457031 18.652344 23.769531 18.34375 23.769531 17.957031 L 23.769531 10.285156 C 23.769531 9.902344 23.457031 9.589844 23.074219 9.589844 Z M 2.375 7.605469 L 7.53125 2.394531 L 7.53125 7.605469 Z M 22.375 17.257812 L 9.890625 17.257812 L 9.890625 10.984375 L 22.375 10.984375 Z M 22.375 17.257812 "/>
<path style=" stroke:none;fill-rule:nonzero;fill:rgb(31.372549%,48.627451%,36.078431%);fill-opacity:1;" d="M 11.984375 14.710938 L 11.230469 15.992188 C 11.195312 16.050781 11.125 16.074219 11.042969 16.074219 C 10.820312 16.074219 10.503906 15.898438 10.503906 15.679688 C 10.503906 15.632812 10.519531 15.585938 10.550781 15.535156 L 11.445312 14.15625 L 10.585938 12.78125 C 10.550781 12.726562 10.535156 12.675781 10.535156 12.621094 C 10.535156 12.40625 10.828125 12.242188 11.058594 12.242188 C 11.171875 12.242188 11.246094 12.28125 11.300781 12.375 L 11.984375 13.574219 L 12.671875 12.375 C 12.722656 12.28125 12.800781 12.242188 12.914062 12.242188 C 13.140625 12.242188 13.4375 12.40625 13.4375 12.621094 C 13.4375 12.675781 13.421875 12.726562 13.382812 12.78125 L 12.527344 14.15625 L 13.421875 15.535156 C 13.453125 15.585938 13.464844 15.632812 13.464844 15.679688 C 13.464844 15.898438 13.152344 16.074219 12.929688 16.074219 C 12.847656 16.074219 12.769531 16.050781 12.738281 15.992188 Z M 11.984375 14.710938 "/>
<path style=" stroke:none;fill-rule:nonzero;fill:rgb(31.372549%,48.627451%,36.078431%);fill-opacity:1;" d="M 14.136719 16.042969 C 13.960938 16.042969 13.785156 15.960938 13.785156 15.796875 L 13.785156 12.515625 C 13.785156 12.34375 13.988281 12.273438 14.1875 12.273438 C 14.390625 12.273438 14.589844 12.34375 14.589844 12.515625 L 14.589844 15.34375 L 15.769531 15.34375 C 15.921875 15.34375 16 15.519531 16 15.695312 C 16 15.867188 15.921875 16.042969 15.769531 16.042969 Z M 14.136719 16.042969 "/>
<path style=" stroke:none;fill-rule:nonzero;fill:rgb(31.372549%,48.627451%,36.078431%);fill-opacity:1;" d="M 17.875 15.03125 C 17.875 14.410156 16.238281 14.515625 16.238281 13.308594 C 16.238281 12.535156 16.914062 12.242188 17.558594 12.242188 C 17.832031 12.242188 18.585938 12.292969 18.585938 12.695312 C 18.585938 12.835938 18.492188 13.117188 18.265625 13.117188 C 18.078125 13.117188 17.980469 12.921875 17.558594 12.921875 C 17.191406 12.921875 17.042969 13.070312 17.042969 13.230469 C 17.042969 13.746094 18.679688 13.648438 18.679688 14.949219 C 18.679688 15.695312 18.136719 16.097656 17.386719 16.097656 C 16.710938 16.097656 16.144531 15.765625 16.144531 15.425781 C 16.144531 15.25 16.300781 14.992188 16.496094 14.992188 C 16.738281 14.992188 16.890625 15.375 17.371094 15.375 C 17.609375 15.375 17.875 15.28125 17.875 15.03125 Z M 17.875 15.03125 "/>
<path style=" stroke:none;fill-rule:nonzero;fill:rgb(31.372549%,48.627451%,36.078431%);fill-opacity:1;" d="M 20.320312 14.710938 L 19.566406 15.992188 C 19.53125 16.050781 19.457031 16.074219 19.375 16.074219 C 19.152344 16.074219 18.839844 15.898438 18.839844 15.679688 C 18.839844 15.632812 18.851562 15.585938 18.882812 15.535156 L 19.777344 14.15625 L 18.921875 12.78125 C 18.882812 12.726562 18.867188 12.675781 18.867188 12.621094 C 18.867188 12.40625 19.164062 12.242188 19.390625 12.242188 C 19.503906 12.242188 19.582031 12.28125 19.632812 12.375 L 20.320312 13.574219 L 21.003906 12.375 C 21.058594 12.28125 21.132812 12.242188 21.25 12.242188 C 21.476562 12.242188 21.769531 12.40625 21.769531 12.621094 C 21.769531 12.675781 21.753906 12.726562 21.71875 12.78125 L 20.859375 14.15625 L 21.753906 15.535156 C 21.785156 15.585938 21.800781 15.632812 21.800781 15.679688 C 21.800781 15.898438 21.484375 16.074219 21.261719 16.074219 C 21.179688 16.074219 21.105469 16.050781 21.074219 15.992188 Z M 20.320312 14.710938 "/>
</g>
</svg>
