<?xml version="1.0" encoding="UTF-8"?>
<svg xmlns="http://www.w3.org/2000/svg" xmlns:xlink="http://www.w3.org/1999/xlink" width="24px" height="24px" viewBox="0 0 24 24" version="1.1">
<g id="surface1">
<path style=" stroke:none;fill-rule:nonzero;fill:rgb(9.019608%,67.058824%,7.45098%);fill-opacity:1;" d="M 16.945312 18.132812 C 17.109375 18.296875 17.3125 18.378906 17.539062 18.378906 C 17.765625 18.378906 17.96875 18.296875 18.132812 18.132812 L 23.671875 12.59375 C 23.710938 12.554688 23.753906 12.511719 23.773438 12.472656 C 23.773438 12.472656 23.792969 12.453125 23.792969 12.429688 C 23.816406 12.390625 23.835938 12.347656 23.855469 12.328125 C 23.855469 12.308594 23.855469 12.289062 23.875 12.289062 C 23.898438 12.246094 23.898438 12.226562 23.917969 12.183594 C 23.9375 12.125 23.9375 12.082031 23.9375 12.019531 C 23.9375 11.957031 23.9375 11.917969 23.917969 11.855469 C 23.917969 11.816406 23.898438 11.773438 23.875 11.753906 C 23.875 11.734375 23.875 11.710938 23.855469 11.710938 C 23.835938 11.671875 23.816406 11.628906 23.792969 11.589844 C 23.792969 11.589844 23.792969 11.570312 23.773438 11.570312 C 23.753906 11.527344 23.710938 11.488281 23.671875 11.445312 L 18.132812 5.90625 C 17.804688 5.578125 17.273438 5.578125 16.945312 5.90625 C 16.617188 6.234375 16.617188 6.769531 16.945312 7.097656 L 21.046875 11.199219 L 6.460938 11.199219 C 5.988281 11.199219 5.621094 11.570312 5.621094 12.042969 C 5.621094 12.511719 5.988281 12.882812 6.460938 12.882812 L 21.046875 12.882812 L 16.945312 16.984375 C 16.617188 17.273438 16.617188 17.804688 16.945312 18.132812 Z M 16.945312 18.132812 "/>
<path style=" stroke:none;fill-rule:nonzero;fill:rgb(29.019608%,29.019608%,29.019608%);fill-opacity:1;" d="M 0.921875 23.898438 L 12 23.898438 C 12.472656 23.898438 12.839844 23.527344 12.839844 23.054688 L 12.839844 14.789062 C 12.839844 14.316406 12.472656 13.949219 12 13.949219 C 11.527344 13.949219 11.160156 14.316406 11.160156 14.789062 L 11.160156 22.214844 L 1.765625 22.214844 L 1.765625 1.765625 L 11.160156 1.765625 L 11.160156 9.191406 C 11.160156 9.660156 11.527344 10.03125 12 10.03125 C 12.472656 10.03125 12.839844 9.660156 12.839844 9.191406 L 12.839844 0.921875 C 12.839844 0.453125 12.472656 0.0820312 12 0.0820312 L 0.921875 0.0820312 C 0.453125 0.0820312 0.0820312 0.453125 0.0820312 0.921875 L 0.0820312 23.054688 C 0.101562 23.527344 0.472656 23.898438 0.921875 23.898438 Z M 0.921875 23.898438 "/>
</g>
</svg>
