<?xml version="1.0" encoding="UTF-8"?>
<svg xmlns="http://www.w3.org/2000/svg" xmlns:xlink="http://www.w3.org/1999/xlink" width="24px" height="24px" viewBox="0 0 24 24" version="1.1">
<g id="surface1">
<path style=" stroke:none;fill-rule:nonzero;fill:rgb(100%,100%,100%);fill-opacity:1;" d="M 4.707031 4.707031 C 0.679688 8.734375 0.679688 15.265625 4.707031 19.292969 C 8.734375 23.320312 15.265625 23.320312 19.292969 19.292969 C 23.320312 15.265625 23.320312 8.734375 19.292969 4.707031 C 15.265625 0.679688 8.734375 0.679688 4.707031 4.707031 Z M 4.707031 4.707031 "/>
<path style=" stroke:none;fill-rule:nonzero;fill:rgb(100%,33.333333%,46.27451%);fill-opacity:1;" d="M 6.695312 6.695312 C 3.769531 9.625 3.769531 14.375 6.695312 17.304688 C 9.625 20.230469 14.375 20.230469 17.304688 17.304688 C 20.230469 14.375 20.230469 9.625 17.304688 6.695312 C 14.375 3.769531 9.625 3.769531 6.695312 6.695312 Z M 6.695312 6.695312 "/>
<path style=" stroke:none;fill-rule:nonzero;fill:rgb(26.666667%,29.411765%,32.941176%);fill-opacity:1;" d="M 12 22.875 C 9.09375 22.875 6.355469 21.75 4.3125 19.6875 C 2.25 17.644531 1.125 14.90625 1.125 12 C 1.125 9.09375 2.25 6.355469 4.3125 4.3125 C 6.375 2.25 9.09375 1.125 12 1.125 C 14.90625 1.125 17.644531 2.25 19.6875 4.3125 C 21.75 6.375 22.875 9.09375 22.875 12 C 22.875 14.90625 21.75 17.644531 19.6875 19.6875 C 17.644531 21.75 14.90625 22.875 12 22.875 Z M 12 2.25 C 9.394531 2.25 6.957031 3.261719 5.101562 5.101562 C 3.242188 6.9375 2.25 9.394531 2.25 12 C 2.25 14.605469 3.261719 17.042969 5.101562 18.898438 C 6.9375 20.757812 9.394531 21.75 12 21.75 C 14.605469 21.75 17.042969 20.738281 18.898438 18.898438 C 20.757812 17.0625 21.75 14.605469 21.75 12 C 21.75 9.394531 20.738281 6.957031 18.898438 5.101562 C 17.042969 3.261719 14.605469 2.25 12 2.25 Z M 12 2.25 "/>
<path style=" stroke:none;fill-rule:nonzero;fill:rgb(100%,100%,100%);fill-opacity:1;" d="M 12.789062 12 L 14.90625 9.882812 C 15.132812 9.65625 15.132812 9.300781 14.90625 9.09375 C 14.679688 8.867188 14.324219 8.867188 14.117188 9.09375 L 12 11.210938 L 9.882812 9.074219 C 9.65625 8.851562 9.300781 8.851562 9.09375 9.074219 C 8.867188 9.300781 8.867188 9.65625 9.09375 9.863281 L 11.210938 12 L 9.074219 14.117188 C 8.851562 14.34375 8.851562 14.699219 9.074219 14.90625 C 9.1875 15.019531 9.335938 15.074219 9.46875 15.074219 C 9.601562 15.074219 9.75 15.019531 9.863281 14.90625 L 12 12.789062 L 14.117188 14.90625 C 14.230469 15.019531 14.382812 15.074219 14.511719 15.074219 C 14.644531 15.074219 14.792969 15.019531 14.90625 14.90625 C 15.132812 14.679688 15.132812 14.324219 14.90625 14.117188 Z M 12.789062 12 "/>
</g>
</svg>
