<?xml version="1.0" encoding="UTF-8"?>
<svg xmlns="http://www.w3.org/2000/svg" xmlns:xlink="http://www.w3.org/1999/xlink" width="24px" height="24px" viewBox="0 0 24 24" version="1.1">
<g id="surface1">
<path style=" stroke:none;fill-rule:nonzero;fill:rgb(36.078431%,64.313725%,85.490196%);fill-opacity:1;" d="M 21.367188 21.75 C 17.695312 24.75 6.230469 24.75 2.632812 21.75 C -1.039062 18.753906 -0.667969 5.9375 2.632812 2.566406 C 5.929688 -0.808594 18.070312 -0.808594 21.367188 2.566406 C 24.667969 5.9375 25.039062 18.753906 21.367188 21.75 Z M 21.367188 21.75 "/>
<path style=" stroke:none;fill-rule:nonzero;fill:rgb(42.745098%,68.627451%,87.843137%);fill-opacity:1;" d="M 12.074219 16.503906 C 8.777344 19.128906 5.105469 20.476562 1.65625 20.550781 C -0.890625 16.207031 -0.367188 5.636719 2.632812 2.566406 C 5.328125 -0.207031 13.796875 -0.734375 18.671875 0.992188 C 19.871094 5.9375 17.394531 12.234375 12.074219 16.503906 Z M 12.074219 16.503906 "/>
<path style=" stroke:none;fill-rule:nonzero;fill:rgb(100%,100%,100%);fill-opacity:1;" d="M 10.277344 6.238281 C 10.277344 5.261719 11.027344 4.515625 12 4.515625 C 12.972656 4.515625 13.722656 5.261719 13.722656 6.238281 C 13.722656 7.210938 12.972656 7.960938 12 7.960938 C 11.027344 7.960938 10.277344 7.210938 10.277344 6.238281 Z M 13.5 19.503906 L 10.5 19.503906 L 10.5 8.859375 L 13.5 8.859375 Z M 13.5 19.503906 "/>
</g>
</svg>
