<?xml version="1.0" encoding="UTF-8"?>
<svg xmlns="http://www.w3.org/2000/svg" xmlns:xlink="http://www.w3.org/1999/xlink" width="24px" height="24px" viewBox="0 0 24 24" version="1.1">
<g id="surface1">
<path style=" stroke:none;fill-rule:nonzero;fill:rgb(5.098039%,60.784314%,47.45098%);fill-opacity:1;" d="M 24 12 C 24 18.628906 18.628906 24 12 24 C 5.371094 24 0 18.628906 0 12 C 0 5.371094 5.371094 0 12 0 C 18.628906 0 24 5.371094 24 12 Z M 24 12 "/>
<path style=" stroke:none;fill-rule:nonzero;fill:rgb(1.960784%,41.960784%,36.078431%);fill-opacity:1;" d="M 0 12 C 0 18.613281 5.347656 23.960938 12 23.960938 C 18.613281 23.960938 23.960938 18.613281 23.960938 12 "/>
<path style=" stroke:none;fill-rule:nonzero;fill:rgb(92.156863%,100%,96.470588%);fill-opacity:1;" d="M 19.523438 10.019531 L 13.980469 10.019531 L 13.980469 4.476562 L 10.019531 4.476562 L 10.019531 10.019531 L 4.476562 10.019531 L 4.476562 13.980469 L 10.019531 13.980469 L 10.019531 19.523438 L 13.980469 19.523438 L 13.980469 13.980469 L 19.523438 13.980469 Z M 19.523438 10.019531 "/>
<path style=" stroke:none;fill-rule:nonzero;fill:rgb(83.921569%,91.764706%,87.843137%);fill-opacity:1;" d="M 13.980469 9.941406 L 9.941406 13.980469 L 10.019531 13.980469 L 10.019531 19.523438 L 13.980469 19.523438 L 13.980469 13.980469 L 19.523438 13.980469 L 19.523438 10.019531 L 13.980469 10.019531 Z M 13.980469 9.941406 "/>
</g>
</svg>
