<?xml version="1.0" encoding="UTF-8"?>
<svg xmlns="http://www.w3.org/2000/svg" xmlns:xlink="http://www.w3.org/1999/xlink" width="180px" height="397px" viewBox="0 0 180 398" version="1.1">
<g id="surface1">
<path style=" stroke:none;fill-rule:evenodd;fill:rgb(100%,100%,100%);fill-opacity:1;" d="M 136.316406 145.273438 C 136.734375 151.796875 133.378906 160.410156 130.214844 165.613281 C 123.839844 167.378906 117.457031 169.132812 109.867188 169.683594 C 108.597656 168.46875 109.058594 165.523438 107.15625 164.9375 C 104.0625 165.234375 104.453125 169.015625 103.085938 171.039062 C 100.628906 170.558594 102.152344 166.097656 101.730469 163.582031 C 113.035156 161.191406 124.535156 158.992188 133.605469 156.121094 C 123.886719 156.351562 112.496094 160.78125 101.730469 162.222656 C 101.027344 160.441406 100.917969 158.0625 101.050781 155.441406 C 101.476562 157.730469 105.851562 156.066406 107.15625 157.476562 C 109.53125 157.175781 108.542969 154.558594 109.191406 154.085938 C 118.84375 151.761719 128.777344 149.710938 136.320312 145.269531 Z M 136.316406 145.273438 "/>
<path style=" stroke:none;fill-rule:evenodd;fill:rgb(100%,0%,0%);fill-opacity:1;" d="M 130.898438 166.703125 L 135.457031 156.003906 C 135.457031 156.003906 124.558594 157.390625 116.332031 159.867188 C 108.109375 162.34375 100.578125 163.136719 100.578125 163.136719 L 101.074219 171.457031 C 101.074219 171.457031 110.1875 171.160156 115.339844 169.675781 C 120.492188 168.191406 130.894531 166.703125 130.894531 166.703125 Z M 130.898438 166.703125 "/>
<path style=" stroke:none;fill-rule:evenodd;fill:rgb(100%,0%,0%);fill-opacity:1;" d="M 132.925781 28.640625 C 133.585938 31.335938 129.136719 28.917969 129.535156 31.351562 C 129.664062 35.488281 132.960938 37.054688 135.636719 36.777344 C 137.039062 35.4375 135.171875 34.96875 133.605469 34.742188 C 137.742188 29.339844 144.507812 40.664062 141.0625 44.914062 C 127.214844 42.835938 107.214844 38.59375 87.488281 39.492188 C 71.773438 40.203125 58.496094 44.230469 46.796875 44.914062 C 45.707031 43.164062 48.027344 40.132812 48.152344 37.457031 C 54.605469 37.351562 55.636719 31.828125 57.648438 27.285156 C 57.855469 25.496094 56.234375 25.535156 54.9375 25.25 C 61.449219 18.992188 68.769531 12.417969 77.316406 8.976562 C 99.035156 0.226562 122.523438 16.863281 132.925781 28.640625 Z M 132.925781 28.640625 "/>
<path style=" stroke:none;fill-rule:evenodd;fill:rgb(0%,23.529412%,100%);fill-opacity:1;" d="M 52.898438 28.640625 C 55.828125 28.800781 51.398438 31.421875 53.574219 33.386719 C 50.78125 32.851562 52.300781 36.632812 49.507812 36.101562 C 49.335938 32.3125 52.246094 31.605469 52.898438 28.640625 Z M 52.898438 28.640625 "/>
<path style=" stroke:none;fill-rule:evenodd;fill:rgb(100%,0%,0%);fill-opacity:1;" d="M 44.082031 40.167969 C 45.992188 40.851562 43.894531 43.046875 44.082031 44.238281 C 28.375 44.128906 16.710938 48.0625 3.390625 50.339844 C 14.8125 44.808594 28.898438 41.9375 44.082031 40.167969 Z M 44.082031 40.167969 "/>
<path style=" stroke:none;fill-rule:evenodd;fill:rgb(0%,0%,0%);fill-opacity:1;" d="M 86.804688 42.203125 C 89.410156 45.25 88.46875 51.839844 88.839844 57.121094 C 86.371094 53.644531 88.171875 44.855469 86.804688 42.203125 Z M 86.804688 42.203125 "/>
<path style=" stroke:none;fill-rule:evenodd;fill:rgb(0%,0%,0%);fill-opacity:1;" d="M 92.90625 43.558594 C 95.765625 43.640625 93.582031 48.761719 94.265625 51.019531 C 92.980469 49.363281 92.8125 46.597656 92.90625 43.558594 Z M 92.90625 43.558594 "/>
<path style=" stroke:none;fill-rule:evenodd;fill:rgb(0%,0%,0%);fill-opacity:1;" d="M 99.011719 43.558594 C 102.191406 45.457031 99.34375 51.898438 99.691406 53.730469 C 98.128906 51.679688 99.453125 46.734375 99.011719 43.558594 Z M 99.011719 43.558594 "/>
<path style=" stroke:none;fill-rule:evenodd;fill:rgb(0%,0%,0%);fill-opacity:1;" d="M 107.828125 44.238281 C 108.816406 46.203125 109.585938 54.226562 110.542969 58.476562 C 108.222656 55.144531 107.6875 50.03125 107.828125 44.238281 Z M 107.828125 44.238281 "/>
<path style=" stroke:none;fill-rule:evenodd;fill:rgb(0%,0%,0%);fill-opacity:1;" d="M 116.648438 44.238281 C 118.3125 44.460938 116.96875 50.1875 118.003906 52.375 C 115.109375 52.105469 117.351562 46.691406 116.648438 44.238281 Z M 116.648438 44.238281 "/>
<path style=" stroke:none;fill-rule:evenodd;fill:rgb(0%,0%,0%);fill-opacity:1;" d="M 90.195312 44.238281 C 91.429688 47.976562 90.792969 53.585938 91.550781 57.800781 C 88.945312 54.261719 89.9375 47.253906 90.195312 44.238281 Z M 90.195312 44.238281 "/>
<path style=" stroke:none;fill-rule:evenodd;fill:rgb(0%,0%,0%);fill-opacity:1;" d="M 102.402344 45.59375 C 103.222656 44.820312 103.644531 50.195312 103.761719 52.375 C 100.953125 52.46875 103.054688 47.65625 102.402344 45.59375 Z M 102.402344 45.59375 "/>
<path style=" stroke:none;fill-rule:evenodd;fill:rgb(74.901961%,0%,0%);fill-opacity:1;" d="M 44.757812 46.269531 C 43.867188 48.09375 42.9375 49.875 42.046875 51.695312 C 30.640625 50.730469 17.074219 54.464844 4.746094 52.375 C 16.085938 48.777344 31.078125 45.273438 44.757812 46.269531 Z M 44.757812 46.269531 "/>
<path style=" stroke:none;fill-rule:evenodd;fill:rgb(0%,0%,0%);fill-opacity:1;" d="M 123.429688 46.269531 C 124.78125 45.628906 123.636719 53.277344 124.785156 55.085938 C 122.554688 53.925781 123.714844 49.378906 123.429688 46.269531 Z M 123.429688 46.269531 "/>
<path style=" stroke:none;fill-rule:evenodd;fill:rgb(0%,0%,0%);fill-opacity:1;" d="M 58.324219 46.269531 C 60.769531 51.375 55.246094 63.429688 56.289062 66.613281 C 54.027344 59.703125 58.984375 53.625 58.324219 46.269531 Z M 58.324219 46.269531 "/>
<path style=" stroke:none;fill-rule:evenodd;fill:rgb(0%,0%,0%);fill-opacity:1;" d="M 61.714844 46.949219 C 63.75 49.25 60.804688 52.339844 61.714844 55.765625 C 59.488281 53.804688 61.582031 50.285156 61.714844 46.949219 Z M 61.714844 46.949219 "/>
<path style=" stroke:none;fill-rule:evenodd;fill:rgb(0%,0%,0%);fill-opacity:1;" d="M 136.316406 48.984375 C 139.476562 53.734375 140.273438 60.851562 142.421875 66.613281 C 138.628906 62.492188 138.398438 54.8125 136.316406 48.984375 Z M 136.316406 48.984375 "/>
<path style=" stroke:none;fill-rule:evenodd;fill:rgb(0%,0%,0%);fill-opacity:1;" d="M 54.933594 49.660156 C 55.910156 55.394531 52.753906 62.851562 52.21875 69.328125 C 50.867188 63.222656 54.558594 56.300781 54.933594 49.660156 Z M 54.933594 49.660156 "/>
<path style=" stroke:none;fill-rule:evenodd;fill:rgb(0%,0%,0%);fill-opacity:1;" d="M 46.792969 59.832031 C 48.460938 62.65625 45.3125 66.46875 44.757812 69.328125 C 42.796875 77.585938 45.671875 60.75 46.792969 59.832031 Z M 46.792969 59.832031 "/>
<path style=" stroke:none;fill-rule:evenodd;fill:rgb(0%,0%,0%);fill-opacity:1;" d="M 116.648438 68.648438 C 119.40625 68.828125 116.148438 71.703125 118.683594 72.71875 C 119.988281 72.441406 119.21875 70.089844 121.394531 70.683594 C 121.480469 71.898438 120.5625 72.113281 120.714844 73.394531 C 121.933594 73.480469 122.144531 72.566406 123.429688 72.71875 C 121.398438 75.523438 125.46875 77.285156 126.140625 81.535156 C 127.574219 90.554688 120.132812 98.152344 112.578125 94.417969 C 106.996094 91.65625 107.335938 78.207031 111.898438 73.398438 C 111.984375 72.179688 111.070312 71.964844 111.222656 70.683594 C 113.09375 70.394531 111.859375 73.210938 113.257812 73.398438 C 115.164062 72.710938 113.070312 70.515625 113.257812 69.328125 C 115.046875 69.121094 115.003906 70.742188 115.289062 72.039062 C 116.769531 71.9375 116.75 70.332031 116.648438 68.648438 Z M 110.542969 86.960938 C 112.75 81.652344 122.210938 83.394531 124.105469 87.640625 C 129.914062 73.398438 105.839844 66.636719 110.542969 86.960938 Z M 110.542969 86.960938 "/>
<path style=" stroke:none;fill-rule:evenodd;fill:rgb(100%,100%,100%);fill-opacity:1;" d="M 124.109375 87.640625 C 122.210938 83.394531 112.75 81.652344 110.542969 86.960938 C 105.84375 66.636719 129.914062 73.398438 124.109375 87.640625 Z M 124.109375 87.640625 "/>
<path style=" stroke:none;fill-rule:evenodd;fill:rgb(0%,0%,0%);fill-opacity:1;" d="M 86.125 87.640625 C 86 91.617188 80.882812 90.957031 82.734375 95.097656 C 81.488281 93.269531 77.875 93.367188 78.664062 97.132812 C 76.050781 92.894531 75.261719 98.746094 73.238281 95.097656 C 70.316406 94.210938 72.398438 98.328125 69.847656 97.8125 C 69.921875 96.125 71.121094 95.710938 69.847656 94.421875 C 68.027344 93.953125 68.539062 95.820312 67.8125 96.453125 C 67.195312 94.132812 66.015625 92.378906 65.101562 90.351562 C 71.128906 96.183594 82.28125 93.28125 86.125 87.640625 Z M 86.125 87.640625 "/>
<path style=" stroke:none;fill-rule:evenodd;fill:rgb(100%,94.117647%,84.705882%);fill-opacity:1;" d="M 44.082031 90.351562 C 48.109375 93.203125 47.90625 97.800781 47.472656 103.914062 C 44.519531 101.214844 44.570312 95.511719 44.082031 90.351562 Z M 44.082031 90.351562 "/>
<path style=" stroke:none;fill-rule:evenodd;fill:rgb(0%,0%,0%);fill-opacity:1;" d="M 92.230469 98.484375 C 94.054688 100.574219 90.117188 102.671875 89.515625 104.585938 C 89.476562 109.523438 95.367188 104.40625 95.621094 108.65625 C 94.429688 107.828125 90.890625 109.398438 88.839844 107.976562 C 87.324219 104.273438 90.167969 100.699219 92.230469 98.484375 Z M 92.230469 98.484375 "/>
<path style=" stroke:none;fill-rule:evenodd;fill:rgb(0%,0%,0%);fill-opacity:1;" d="M 103.082031 99.160156 C 105.898438 97.5 107.722656 102.640625 107.152344 106.621094 C 104.023438 108.011719 103.109375 108.585938 99.011719 107.976562 C 100.136719 103.261719 103.433594 109.023438 105.792969 105.941406 C 106.242188 102.335938 104.539062 100.871094 103.082031 99.160156 Z M 103.082031 99.160156 "/>
<path style=" stroke:none;fill-rule:evenodd;fill:rgb(0%,0%,0%);fill-opacity:1;" d="M 77.316406 116.117188 C 87.917969 125.839844 111.496094 122.484375 118.683594 112.046875 C 117.945312 110.800781 114.9375 110.355469 116.648438 108.65625 C 119.300781 110.074219 121.914062 111.527344 122.074219 115.4375 C 120.691406 115.238281 120.746094 113.601562 119.363281 113.402344 C 113 123.867188 85.347656 128.507812 77.316406 116.117188 Z M 77.316406 116.117188 "/>
<path style=" stroke:none;fill-rule:evenodd;fill:rgb(0%,0%,0%);fill-opacity:1;" d="M 74.601562 119.507812 C 73.398438 117.371094 75.445312 112.683594 79.347656 113.402344 C 78.351562 116.027344 75.21875 116.511719 74.601562 119.507812 Z M 74.601562 119.507812 "/>
<path style=" stroke:none;fill-rule:evenodd;fill:rgb(100%,94.117647%,84.705882%);fill-opacity:1;" d="M 77.316406 129.679688 C 82.054688 131.792969 85.96875 133.269531 90.199219 134.425781 C 94.074219 133.953125 94.074219 135.582031 90.199219 135.105469 C 85.945312 134.160156 81.292969 133.613281 77.316406 132.390625 Z M 77.316406 129.679688 "/>
<path style=" stroke:none;fill-rule:evenodd;fill:rgb(100%,100%,100%);fill-opacity:1;" d="M 119.359375 131.714844 C 120.773438 133.917969 121.976562 136.332031 122.75 139.175781 C 118.8125 144.957031 108.035156 143.898438 100.371094 145.957031 C 99.324219 142.617188 99.414062 138.253906 101.726562 136.460938 C 108.066406 136.695312 111.671875 134.199219 117.324219 133.75 C 116.78125 136.101562 118.335938 136.355469 118.003906 138.496094 C 120.023438 136.5625 116.496094 133.050781 119.359375 131.714844 Z M 119.359375 131.714844 "/>
<path style=" stroke:none;fill-rule:evenodd;fill:rgb(100%,94.117647%,84.705882%);fill-opacity:1;" d="M 102.402344 134.425781 C 101.65625 136.617188 98.449219 136.351562 99.011719 139.851562 C 97.761719 138.390625 98.386719 135.054688 94.945312 135.785156 C 96.597656 134.496094 100.363281 135.316406 102.40625 134.425781 Z M 102.402344 134.425781 "/>
<path style=" stroke:none;fill-rule:evenodd;fill:rgb(100%,0%,0%);fill-opacity:1;" d="M 126.144531 137.140625 C 129.769531 138.941406 132.058594 142.074219 137.671875 141.886719 C 130.839844 149.070312 117.832031 150.078125 107.152344 153.414062 C 106.738281 151.574219 105.808594 150.238281 104.441406 149.347656 C 102.191406 149.808594 103.679688 154.011719 101.730469 154.769531 C 99.585938 153.75 99.648438 150.519531 99.695312 147.3125 C 109.691406 145.101562 122.679688 145.878906 126.140625 137.136719 Z M 126.144531 137.140625 "/>
<path style=" stroke:none;fill-rule:evenodd;fill:rgb(100%,0%,0%);fill-opacity:1;" d="M 68.496094 137.820312 C 71.320312 147.554688 85.984375 148.644531 97.660156 147.3125 C 98.503906 149.40625 98.714844 152.132812 99.015625 154.773438 C 86.03125 155.324219 74.886719 154.035156 65.105469 151.382812 C 64.132812 148.058594 62.6875 145.210938 61.714844 141.886719 C 64.03125 140.578125 67.195312 140.132812 68.5 137.820312 Z M 68.496094 137.820312 "/>
<path style=" stroke:none;fill-rule:evenodd;fill:rgb(100%,0%,0%);fill-opacity:1;" d="M 49.507812 151.375 C 52.132812 152.554688 53.480469 157.992188 52.898438 160.191406 L 42.046875 160.191406 C 40.917969 156.191406 48.757812 155.714844 49.507812 151.375 Z M 49.507812 151.375 "/>
<path style=" stroke:none;fill-rule:evenodd;fill:rgb(100%,0%,0%);fill-opacity:1;" d="M 150.554688 151.375 C 152.898438 152.648438 154.707031 154.457031 155.980469 156.800781 C 152.714844 157.378906 151.105469 159.613281 147.839844 160.191406 C 148.171875 156.679688 150.300781 154.96875 150.554688 151.375 Z M 150.554688 151.375 "/>
<path style=" stroke:none;fill-rule:evenodd;fill:rgb(100%,100%,100%);fill-opacity:1;" d="M 104.4375 152.054688 C 106.179688 152.121094 105.410156 154.699219 107.152344 154.765625 C 106.574219 155.773438 105.445312 156.226562 103.761719 156.125 C 103.273438 154.054688 104.453125 153.65625 104.4375 152.054688 Z M 104.4375 152.054688 "/>
<path style=" stroke:none;fill-rule:evenodd;fill:rgb(100%,100%,100%);fill-opacity:1;" d="M 66.460938 153.410156 C 74.980469 154.816406 86.804688 156.796875 99.015625 156.125 C 98.546875 158.851562 99.664062 159.996094 99.691406 162.226562 C 90.21875 163.523438 80.796875 163.257812 71.210938 162.226562 C 70.027344 158.882812 68.203125 156.191406 66.460938 153.410156 Z M 66.460938 153.410156 "/>
<path style=" stroke:none;fill-rule:evenodd;fill:rgb(0%,0%,0%);fill-opacity:1;" d="M 61.035156 166.972656 C 55.199219 161.511719 63.449219 153.039062 67.140625 158.835938 C 68.898438 161.605469 67.265625 167.828125 61.035156 166.976562 Z M 61.035156 164.941406 C 63.019531 165.546875 63.121094 165.546875 65.105469 164.941406 C 65.722656 163.441406 66.613281 160.421875 65.785156 159.515625 C 61.96875 156.71875 59.082031 161.835938 61.035156 164.941406 Z M 61.035156 164.941406 "/>
<path style=" stroke:none;fill-rule:evenodd;fill:rgb(0%,0%,0%);fill-opacity:1;" d="M 135.636719 162.90625 C 135.574219 158.320312 137.921875 156.148438 143.097656 156.800781 C 149.363281 161.792969 139.101562 169.769531 135.636719 162.90625 Z M 136.996094 162.226562 C 137.800781 163.90625 139.453125 164.742188 142.421875 164.261719 C 143.046875 161.601562 143.898438 161.742188 143.097656 158.835938 C 140.535156 156.355469 137.136719 158.570312 136.996094 162.226562 Z M 136.996094 162.226562 "/>
<path style=" stroke:none;fill-rule:evenodd;fill:rgb(83.529412%,59.215686%,34.509804%);fill-opacity:1;" d="M 143.09375 158.835938 C 143.890625 161.742188 143.042969 161.601562 142.414062 164.261719 C 139.449219 164.742188 137.792969 163.90625 136.988281 162.226562 C 137.136719 158.570312 140.535156 156.351562 143.09375 158.835938 Z M 143.09375 158.835938 "/>
<path style=" stroke:none;fill-rule:evenodd;fill:rgb(100%,100%,100%);fill-opacity:1;" d="M 164.117188 163.582031 C 158.378906 167.335938 151.769531 170.222656 144.453125 172.398438 C 144.164062 168.042969 146.210938 166.019531 146.488281 162.226562 C 153.355469 157.960938 159.710938 156.277344 164.121094 163.582031 Z M 164.117188 163.582031 "/>
<path style=" stroke:none;fill-rule:evenodd;fill:rgb(83.529412%,59.215686%,34.509804%);fill-opacity:1;" d="M 65.78125 159.515625 C 66.613281 160.421875 65.722656 163.441406 65.105469 164.9375 C 63.121094 165.546875 63.019531 165.546875 61.035156 164.9375 C 59.082031 161.832031 61.96875 156.71875 65.78125 159.511719 Z M 65.78125 159.515625 "/>
<path style=" stroke:none;fill-rule:evenodd;fill:rgb(100%,100%,100%);fill-opacity:1;" d="M 53.574219 160.871094 C 54.886719 163.855469 56.289062 166.746094 56.96875 170.363281 C 48.171875 170.15625 39.894531 170.472656 31.875 171.042969 C 33.25 166.769531 36.433594 164.296875 38.65625 160.871094 C 44.390625 160.550781 48.550781 162.328125 53.574219 160.871094 Z M 53.574219 160.871094 "/>
<path style=" stroke:none;fill-rule:evenodd;fill:rgb(100%,0%,0%);fill-opacity:1;" d="M 72.566406 164.261719 C 80.804688 163.613281 91.894531 164.777344 99.695312 163.582031 C 100.953125 165.039062 100.152344 168.550781 100.371094 171.042969 C 93.945312 170.472656 85.589844 173.960938 80.027344 172.398438 C 75.359375 171.089844 76.039062 166.761719 72.574219 164.261719 Z M 72.566406 164.261719 "/>
<path style=" stroke:none;fill-rule:evenodd;fill:rgb(100%,100%,100%);fill-opacity:1;" d="M 106.472656 166.972656 C 108.117188 167.367188 107.980469 169.535156 108.507812 171.042969 C 106.910156 171.027344 106.511719 172.210938 104.4375 171.722656 C 104.613281 169.640625 105.910156 168.667969 106.472656 166.972656 Z M 106.472656 166.972656 "/>
<path style=" stroke:none;fill-rule:evenodd;fill:rgb(100%,100%,100%);fill-opacity:1;" d="M 129.535156 167.652344 C 129.3125 170.144531 127.859375 171.40625 127.5 173.753906 C 122.957031 173.585938 113.195312 175.371094 107.152344 175.113281 C 104.75 175.007812 100.714844 175.261719 101.730469 172.398438 C 108.390625 173.476562 120.292969 168.464844 129.539062 167.652344 Z M 129.535156 167.652344 "/>
<path style=" stroke:none;fill-rule:evenodd;fill:rgb(0%,0%,0%);fill-opacity:1;" d="M 161.40625 168.332031 C 162.921875 170.207031 164.042969 172.472656 164.796875 175.113281 C 162.917969 173.597656 161.792969 171.328125 161.40625 168.328125 Z M 161.40625 168.332031 "/>
<path style=" stroke:none;fill-rule:evenodd;fill:rgb(100%,0%,0%);fill-opacity:1;" d="M 58.324219 171.722656 C 59.503906 173.707031 60.792969 175.578125 61.035156 178.503906 C 50.5 180.175781 41.085938 182.96875 29.160156 183.25 C 28.238281 179.925781 28.070312 174.890625 29.839844 172.398438 C 37.617188 171.972656 49.679688 170.019531 58.324219 171.722656 Z M 58.324219 171.722656 "/>
<path style=" stroke:none;fill-rule:evenodd;fill:rgb(100%,100%,100%);fill-opacity:1;" d="M 100.367188 173.757812 C 94.921875 176.90625 83.390625 174.351562 80.023438 174.433594 C 85.671875 173.90625 95.679688 170.738281 100.371094 173.757812 Z M 100.367188 173.757812 "/>
<path style=" stroke:none;fill-rule:evenodd;fill:rgb(100%,94.117647%,84.705882%);fill-opacity:1;" d="M 171.578125 175.113281 C 176.992188 191.441406 162.105469 204.304688 156.660156 216.476562 C 153.003906 207.53125 150.769531 193.578125 146.488281 183.25 C 154.382812 180.0625 164.929688 179.53125 171.582031 175.109375 Z M 159.371094 209.015625 C 163.914062 199.992188 171.742188 190.648438 170.898438 178.5 C 170.484375 191.652344 161.742188 200.082031 159.371094 209.011719 Z M 159.371094 209.015625 "/>
<path style=" stroke:none;fill-rule:evenodd;fill:rgb(0%,0%,0%);fill-opacity:1;" d="M 120.714844 176.46875 C 116.128906 179.394531 109.742188 177.203125 104.441406 178.503906 C 108.265625 176.226562 115.921875 177.785156 120.71875 176.46875 Z M 120.714844 176.46875 "/>
<path style=" stroke:none;fill-rule:evenodd;fill:rgb(100%,100%,100%);fill-opacity:1;" d="M 61.035156 179.859375 C 62.238281 178.050781 61.53125 183.832031 61.714844 185.285156 C 60.511719 187.089844 61.21875 181.3125 61.035156 179.859375 Z M 61.035156 179.859375 "/>
<path style=" stroke:none;fill-rule:evenodd;fill:rgb(100%,94.117647%,84.705882%);fill-opacity:1;" d="M 48.148438 215.121094 C 39.515625 207.929688 37.511719 194.113281 31.195312 184.605469 C 40.804688 184.039062 51.484375 180.933594 59 180.535156 C 61.613281 195.597656 53.136719 205.390625 48.148438 215.117188 Z M 48.148438 215.121094 "/>
<path style=" stroke:none;fill-rule:evenodd;fill:rgb(46.666667%,66.27451%,75.294118%);fill-opacity:1;" d="M 121.394531 184.605469 C 120.34375 188.234375 122.449219 197.4375 120.039062 202.917969 C 117.296875 204.273438 116.246094 205.128906 115.292969 206.984375 C 107.070312 204.855469 100.757812 209.046875 92.234375 206.984375 C 87.90625 202.015625 90.910156 193.871094 90.199219 185.285156 C 102.40625 185.171875 112.980469 185.515625 121.398438 184.605469 Z M 121.394531 184.605469 "/>
<path style=" stroke:none;fill-rule:evenodd;fill:rgb(0%,0%,0%);fill-opacity:1;" d="M 104.4375 251.742188 C 105.941406 252.964844 104.722656 262.75 105.117188 267.339844 C 103.609375 266.109375 104.832031 256.324219 104.4375 251.738281 Z M 104.4375 251.742188 "/>
<path style=" stroke:none;fill-rule:evenodd;fill:rgb(0%,37.647059%,71.372549%);fill-opacity:1;" d="M 164.796875 270.046875 C 166.054688 268.398438 165.253906 274.515625 165.476562 276.148438 C 164.21875 277.796875 165.019531 271.679688 164.796875 270.046875 Z M 164.796875 270.046875 "/>
<path style=" stroke:none;fill-rule:evenodd;fill:rgb(0%,37.647059%,71.372549%);fill-opacity:1;" d="M 103.761719 284.289062 C 105.28125 285.527344 104.417969 295.667969 103.082031 298.527344 C 101.9375 295.105469 104.628906 289.683594 103.761719 284.285156 Z M 103.761719 284.289062 "/>
<path style=" stroke:none;fill-rule:evenodd;fill:rgb(0%,0%,0%);fill-opacity:1;" d="M 98.335938 312.765625 C 98.140625 304.316406 99.933594 296.179688 101.046875 286.996094 C 101.828125 295.691406 99.859375 303.742188 98.332031 312.761719 Z M 98.335938 312.765625 "/>
<path style=" stroke:none;fill-rule:evenodd;fill:rgb(0%,0%,0%);fill-opacity:1;" d="M 111.222656 290.390625 C 113.632812 295.214844 114.0625 302.015625 114.613281 308.703125 C 112.734375 303.34375 112.070312 296.773438 111.222656 290.390625 Z M 111.222656 290.390625 "/>
<path style=" stroke:none;fill-rule:evenodd;fill:rgb(0%,37.647059%,71.372549%);fill-opacity:1;" d="M 103.761719 299.207031 C 103.03125 303.675781 101.851562 307.699219 101.046875 312.09375 C 100.445312 308.988281 101.480469 301.683594 103.761719 299.207031 Z M 103.761719 299.207031 "/>
<path style=" stroke:none;fill-rule:evenodd;fill:rgb(0%,0%,0%);fill-opacity:1;" d="M 152.589844 320.226562 C 155.585938 321.417969 155.074219 329.003906 153.265625 331.074219 C 152.628906 329.3125 153.964844 323.113281 152.589844 320.226562 Z M 152.589844 320.226562 "/>
<path style=" stroke:none;fill-rule:evenodd;fill:rgb(0%,0%,0%);fill-opacity:1;" d="M 88.160156 328.363281 C 89.332031 327.425781 89.128906 335.839844 86.125 335.144531 C 86.695312 332.777344 88.398438 331.539062 88.160156 328.363281 Z M 88.160156 328.363281 "/>
<path style=" stroke:none;fill-rule:evenodd;fill:rgb(0%,0%,0%);fill-opacity:1;" d="M 132.246094 335.144531 C 134.933594 332.179688 143.097656 334.691406 147.167969 333.113281 C 144 335.601562 136.375 333.628906 132.246094 335.144531 Z M 132.246094 335.144531 "/>
<path style=" stroke:none;fill-rule:evenodd;fill:rgb(100%,100%,100%);fill-opacity:1;" d="M 155.980469 333.789062 C 155.105469 337.886719 147.832031 335.589844 145.808594 338.535156 C 138.949219 336.355469 126.375 339.886719 120.714844 336.503906 C 134.414062 339 146.875 335.648438 155.984375 333.789062 Z M 155.980469 333.789062 "/>
<path style=" stroke:none;fill-rule:evenodd;fill:rgb(100%,100%,100%);fill-opacity:1;" d="M 54.253906 337.859375 C 54.144531 337.070312 54.402344 336.652344 54.933594 336.503906 C 63.621094 337.988281 73.480469 338.300781 82.738281 339.214844 C 85.605469 338.683594 88.667969 340.117188 84.09375 339.894531 C 79.015625 340.695312 74.015625 341.570312 69.171875 342.605469 C 66.125 339.554688 58.679688 340.894531 54.253906 339.214844 C 54.257812 338.761719 54.257812 338.3125 54.257812 337.859375 Z M 54.253906 337.859375 "/>
<path style=" stroke:none;fill-rule:evenodd;fill:rgb(100%,100%,100%);fill-opacity:1;" d="M 120.039062 339.214844 C 127.53125 340.085938 138.53125 337.449219 143.773438 340.570312 C 136.140625 340.015625 130.160156 344.5 132.246094 351.421875 C 138.261719 351.691406 143.699219 343.15625 149.199219 349.386719 C 149.671875 352.117188 145.824219 350.535156 145.128906 352.101562 C 146.15625 353.957031 149.707031 350.589844 151.234375 352.777344 C 152.199219 356.003906 149.332031 355.398438 148.519531 356.847656 C 149.175781 358.523438 151.125 355.910156 153.269531 356.847656 C 153.011719 359.136719 154.445312 359.738281 155.304688 360.914062 C 154.910156 362.558594 152.742188 362.421875 151.234375 362.949219 C 152.734375 364.933594 157.199219 360.921875 157.335938 364.984375 C 150.375 369.773438 142.371094 373.527344 141.0625 383.972656 C 127.890625 382.222656 125.589844 369.605469 117.324219 362.949219 C 118.113281 354.917969 118.945312 346.9375 120.039062 339.210938 Z M 120.039062 339.214844 "/>
<path style=" stroke:none;fill-rule:evenodd;fill:rgb(100%,100%,100%);fill-opacity:1;" d="M 54.253906 340.570312 C 57.523438 340.917969 59.515625 342.542969 63.75 341.929688 C 60.824219 343.296875 57.117188 343.886719 54.933594 345.996094 C 55.011719 347.949219 54.5625 350.4375 55.609375 351.421875 C 60.820312 352.335938 61.085938 348.308594 66.460938 349.386719 C 66.953125 353.269531 62.164062 351.875 59 352.101562 C 58.585938 354.773438 62.726562 352.898438 64.425781 353.457031 C 64.25 355.539062 62.957031 356.503906 62.390625 358.203125 C 60.765625 357.792969 59.296875 357.226562 56.964844 357.523438 C 56.761719 359.988281 60.582031 358.429688 61.714844 359.558594 C 61.273438 363.890625 57.4375 364.398438 53.574219 363.628906 C 53.726562 365.738281 56.949219 364.773438 59 364.984375 C 58.492188 368.589844 54.554688 367.113281 52.21875 367.695312 C 46.277344 369.179688 40.277344 370.515625 37.976562 375.15625 C 38.347656 361.28125 51.3125 354.125 54.253906 340.566406 Z M 54.253906 340.570312 "/>
<path style=" stroke:none;fill-rule:evenodd;fill:rgb(100%,100%,100%);fill-opacity:1;" d="M 90.195312 340.570312 C 89.578125 349.9375 90.789062 357.078125 90.875 366.339844 C 85.398438 374.199219 80.777344 382.917969 72.5625 388.039062 C 72.472656 376.828125 66.65625 371.339844 59 367.695312 C 59.421875 365.632812 60.503906 364.230469 63.066406 364.304688 C 63.082031 362.707031 61.898438 362.308594 62.390625 360.238281 C 63.375 359.238281 66.828125 359.238281 67.816406 360.238281 C 68.621094 357.394531 64.957031 359.027344 64.425781 357.523438 C 64.394531 355.460938 65.855469 354.886719 66.457031 353.457031 C 69.015625 352.933594 69.699219 354.285156 71.882812 354.132812 C 71.726562 351.808594 67.484375 353.558594 67.816406 350.742188 C 72.882812 348.121094 75.871094 352.953125 80.699219 352.777344 C 84.425781 349.269531 79.53125 343.878906 75.953125 343.285156 C 79.414062 341.09375 85.820312 341.851562 90.195312 340.578125 Z M 90.195312 340.570312 "/>
<path style=" stroke:none;fill-rule:evenodd;fill:rgb(100%,100%,100%);fill-opacity:1;" d="M 154.621094 340.570312 C 155.644531 342.492188 157.363281 343.707031 157.335938 346.675781 C 153.484375 345.101562 146.714844 346.445312 146.484375 341.25 C 148.96875 340.789062 151.417969 340.300781 154.625 340.570312 Z M 154.621094 340.570312 "/>
<path style=" stroke:none;fill-rule:evenodd;fill:rgb(100%,100%,100%);fill-opacity:1;" d="M 143.769531 341.929688 C 141.0625 345.320312 138.566406 348.929688 133.597656 350.066406 C 132.972656 343.34375 139.105469 341.277344 143.773438 341.925781 Z M 143.769531 341.929688 "/>
<path style=" stroke:none;fill-rule:evenodd;fill:rgb(100%,100%,100%);fill-opacity:1;" d="M 65.105469 343.964844 C 63.976562 347.457031 59.089844 346.476562 59.679688 350.066406 L 56.289062 350.066406 C 55.753906 344.558594 60.058594 343.886719 65.105469 343.960938 Z M 65.105469 343.964844 "/>
<path style=" stroke:none;fill-rule:evenodd;fill:rgb(100%,100%,100%);fill-opacity:1;" d="M 69.855469 343.964844 C 75.972656 343.949219 80.835938 345.1875 80.703125 351.421875 C 74.824219 351.191406 71.542969 348.378906 69.851562 343.960938 Z M 69.855469 343.964844 "/>
<path style=" stroke:none;fill-rule:evenodd;fill:rgb(100%,100%,100%);fill-opacity:1;" d="M 146.484375 345.320312 C 146.398438 346.816406 143.605469 345.609375 142.414062 345.996094 C 143.097656 343.753906 145.15625 343.683594 146.484375 345.320312 Z M 146.484375 345.320312 "/>
<path style=" stroke:none;fill-rule:evenodd;fill:rgb(100%,100%,100%);fill-opacity:1;" d="M 67.140625 345.320312 L 67.140625 348.03125 C 65.722656 348.320312 65.34375 347.566406 64.425781 347.355469 C 65.015625 346.355469 65.441406 345.203125 67.140625 345.320312 Z M 67.140625 345.320312 "/>
<path style=" stroke:none;fill-rule:evenodd;fill:rgb(100%,100%,100%);fill-opacity:1;" d="M 149.195312 347.355469 C 151.480469 345.65625 155.796875 349.4375 158.691406 347.355469 C 165.355469 356.964844 177.867188 360.730469 178.359375 376.511719 C 175.746094 369.324219 170.25 362.445312 159.371094 365.664062 C 158.691406 364.761719 158.25 363.617188 157.335938 362.949219 C 157.21875 361.480469 159.742188 362.644531 160.726562 362.273438 C 160.640625 360.773438 157.847656 361.984375 156.65625 361.59375 C 156.332031 359.433594 154.523438 358.757812 154.621094 356.167969 L 158.011719 356.167969 C 157.292969 353.726562 152.113281 355.738281 151.910156 352.777344 C 153.34375 350.890625 153.878906 352.308594 155.980469 351.421875 C 155.6875 349.90625 152.636719 351.148438 151.230469 350.746094 C 150.4375 349.734375 150.390625 347.976562 149.195312 347.359375 Z M 149.195312 347.355469 "/>
<path style=" stroke:none;fill-rule:evenodd;fill:rgb(100%,100%,100%);fill-opacity:1;" d="M 116.648438 364.980469 C 122.691406 370.238281 127.386719 376.84375 132.246094 383.289062 C 141.902344 386.5625 154.777344 386.210938 164.121094 385.324219 C 162.40625 394.039062 136.539062 391.5 130.210938 387.359375 C 127.449219 385.550781 117.4375 372.25 116.648438 369.050781 C 116.234375 367.386719 116.984375 366.039062 116.648438 364.980469 Z M 116.648438 364.980469 "/>
<path style=" stroke:none;fill-rule:evenodd;fill:rgb(100%,100%,100%);fill-opacity:1;" d="M 142.414062 383.96875 C 142.796875 373.015625 160.324219 362.035156 170.21875 367.015625 C 172.671875 368.25 177.601562 374.160156 176.324219 378.542969 C 173.976562 386.59375 152.765625 384.425781 142.417969 383.96875 Z M 142.414062 383.96875 "/>
<path style=" stroke:none;fill-rule:evenodd;fill:rgb(100%,100%,100%);fill-opacity:1;" d="M 71.210938 389.394531 C 62.144531 388.945312 37.875 388.691406 37.300781 379.222656 C 36.695312 369.246094 59.457031 365.382812 67.140625 373.796875 C 70.734375 377.738281 70.070312 382.492188 71.210938 389.398438 Z M 71.210938 389.394531 "/>
<path style=" stroke:none;fill-rule:evenodd;fill:rgb(100%,100%,100%);fill-opacity:1;" d="M 89.515625 370.40625 C 91.46875 371.300781 90.910156 374.703125 90.195312 376.507812 C 88.65625 375.789062 89.9375 372.25 89.515625 370.40625 Z M 89.515625 370.40625 "/>
<path style=" stroke:none;fill-rule:evenodd;fill:rgb(100%,100%,100%);fill-opacity:1;" d="M 88.160156 372.441406 C 90.472656 376.355469 87.542969 380.851562 85.445312 382.613281 C 82.769531 378.324219 87.195312 375.335938 88.160156 372.4375 Z M 88.160156 372.441406 "/>
<path style=" stroke:none;fill-rule:evenodd;fill:rgb(100%,100%,100%);fill-opacity:1;" d="M 83.414062 379.222656 C 85.117188 401.761719 51.96875 395.226562 37.296875 389.394531 L 37.296875 383.96875 C 45.109375 387.261719 57.53125 391.742188 71.882812 390.75 C 76.421875 387.597656 80.28125 383.769531 83.414062 379.21875 Z M 83.414062 379.222656 "/>
<path style=" stroke:none;fill-rule:evenodd;fill:rgb(100%,100%,100%);fill-opacity:1;" d="M 172.257812 383.292969 C 174.339844 382.253906 174.339844 387.71875 172.257812 386.683594 L 172.257812 383.289062 Z M 172.257812 383.292969 "/>
<path style=" stroke:none;fill-rule:evenodd;fill:rgb(100%,100%,100%);fill-opacity:1;" d="M 171.578125 383.96875 L 171.578125 387.359375 C 169.15625 387.648438 167.960938 389.167969 164.796875 388.714844 L 164.796875 384.648438 C 167.761719 385.121094 168.617188 383.496094 171.582031 383.96875 Z M 171.578125 383.96875 "/>
<path style=" stroke:none;fill-rule:evenodd;fill:rgb(0%,0%,0%);fill-opacity:1;" d="M 143.09375 51.019531 C 144.027344 54.085938 146.671875 51.800781 147.839844 55.085938 C 150.019531 72.007812 149.203125 88.261719 145.804688 103.234375 C 144.75 104.210938 144.464844 105.964844 141.734375 105.265625 C 139.566406 117.335938 130.726562 122.738281 120.710938 126.96875 C 124.867188 131.851562 127.371094 138.390625 134.277344 140.53125 C 141.214844 138.992188 144.003906 143.316406 149.875 144.597656 C 153.8125 160.46875 179.640625 164.96875 174.964844 185.285156 C 172.242188 197.128906 162.808594 208.910156 156.65625 218.511719 C 157.964844 223.175781 157.167969 227.460938 158.691406 232.074219 C 159.59375 234.804688 161.851562 236.371094 162.757812 238.855469 C 169.34375 256.894531 166.875 292.617188 163.4375 314.128906 C 165.78125 319.265625 163.449219 325.804688 162.082031 331.082031 C 160.796875 331.832031 158.875 331.945312 157.332031 332.4375 C 153.152344 351.007812 176.890625 356.007812 179.714844 369.734375 C 181.125 376.59375 176.839844 379.113281 176.324219 386.6875 C 163.160156 390.746094 141.128906 396.683594 128.851562 388.042969 C 126.332031 386.269531 123.6875 381.648438 121.390625 378.550781 C 119.253906 375.664062 115.144531 371.359375 114.609375 368.378906 C 113.664062 363.101562 119.511719 345.222656 118.679688 337.863281 C 118.847656 334.753906 115.441406 335.222656 115.289062 332.4375 C 115.09375 322.667969 112.738281 311.078125 110.539062 299.886719 C 109.484375 294.519531 108.082031 289.648438 106.472656 284.96875 C 106.824219 300.605469 99.792969 314.339844 99.6875 326.335938 C 98.421875 332.074219 96.910156 337.570312 92.230469 339.898438 C 91.378906 349.675781 91.488281 358.359375 92.230469 366.34375 C 92.398438 368.179688 93.949219 370.402344 93.585938 372.445312 C 92.316406 379.597656 78.5 396.429688 69.851562 397.535156 C 58.941406 398.929688 47.074219 392.457031 35.941406 390.078125 C 32.011719 364.789062 48.570312 356.242188 53.574219 337.863281 C 52.699219 335.121094 49.636719 334.566406 50.859375 329.726562 C 45.65625 321.941406 39.1875 314.390625 37.976562 300.566406 C 37.105469 290.652344 39.691406 278.078125 38.652344 267.339844 C 38 260.570312 34.871094 256.054688 36.617188 248.351562 C 37.398438 244.917969 39.726562 241.175781 40.6875 237.5 C 42.628906 230.054688 42.738281 222.058594 46.792969 217.160156 C 37.558594 208.308594 35.730469 192.050781 27.125 182.574219 C 26.699219 178.667969 27.105469 178.109375 27.125 173.757812 C 31.003906 170.742188 31.59375 166.414062 34.582031 162.910156 C 39.609375 157.023438 48.648438 154.597656 50.859375 145.957031 C 56.535156 141.308594 61.691406 140.171875 68.492188 137.140625 C 70.703125 134.605469 70.816406 129.972656 75.273438 129.683594 C 62.683594 125.996094 54.226562 118.175781 49.503906 106.625 C 47.625 105.34375 45.785156 104.015625 44.078125 102.558594 C 42.691406 95.359375 42.6875 86.773438 37.976562 82.890625 C 38.355469 72.222656 39.25 63.664062 41.367188 54.410156 C 27.632812 51.050781 9.394531 58.476562 -0.00390625 51.699219 C 10.46875 42.726562 27.679688 40.5 45.433594 38.8125 C 51.03125 18.191406 69.621094 10.558594 89.515625 4.230469 C 90.441406 -1.992188 97.832031 -0.183594 96.976562 4.910156 C 102.289062 6.640625 104.628906 7.117188 107.828125 8.300781 C 116.214844 11.398438 131.710938 22.9375 137.667969 30 C 140.324219 33.152344 141.847656 37.023438 143.769531 40.171875 C 143.851562 45.183594 141.835938 46.15625 143.097656 51.019531 Z M 77.316406 8.976562 C 68.769531 12.417969 61.449219 18.992188 54.933594 25.25 C 56.230469 25.535156 57.855469 25.496094 57.648438 27.285156 C 55.636719 31.828125 54.605469 37.351562 48.152344 37.457031 C 48.027344 40.132812 45.707031 43.164062 46.796875 44.914062 C 58.496094 44.230469 71.769531 40.203125 87.488281 39.492188 C 107.214844 38.59375 127.210938 42.835938 141.0625 44.914062 C 144.507812 40.664062 137.742188 29.339844 133.601562 34.742188 C 135.171875 34.96875 137.035156 35.4375 135.636719 36.777344 C 132.960938 37.054688 129.660156 35.488281 129.535156 31.351562 C 129.132812 28.921875 133.585938 31.335938 132.925781 28.640625 C 122.519531 16.863281 99.03125 0.226562 77.3125 8.976562 Z M 49.507812 36.097656 C 52.300781 36.632812 50.78125 32.851562 53.574219 33.386719 C 51.398438 31.421875 55.828125 28.800781 52.898438 28.640625 C 52.246094 31.605469 49.335938 32.3125 49.507812 36.097656 Z M 3.390625 50.339844 C 16.714844 48.0625 28.375 44.128906 44.082031 44.238281 C 43.894531 43.046875 45.992188 40.855469 44.082031 40.167969 C 28.898438 41.9375 14.8125 44.808594 3.390625 50.339844 Z M 124.785156 43.558594 C 108.234375 40.914062 97.765625 40.9375 81.382812 41.523438 C 80.46875 47.648438 83.425781 53.480469 81.382812 58.476562 C 80.394531 53.363281 80.941406 46.710938 80.027344 41.523438 L 77.3125 41.523438 C 74.601562 45.195312 76.480469 53.746094 74.601562 56.441406 C 74.15625 51.027344 75.199219 47.097656 75.277344 42.203125 C 72.75 42.160156 70.988281 42.886719 69.175781 43.558594 C 68.304688 44.878906 68.703125 52.582031 68.496094 54.410156 C 66.929688 52.132812 68.257812 46.960938 67.820312 43.558594 C 62.109375 43.503906 58.726562 45.769531 53.578125 46.273438 C 51.292969 60.941406 47.660156 75 45.4375 86.957031 C 46.613281 71.773438 50.421875 59.050781 52.898438 46.949219 L 46.117188 46.949219 C 44.644531 49.832031 39.835938 57.71875 44.082031 59.835938 C 45.199219 55.976562 46.0625 51.871094 48.148438 48.984375 C 45.902344 60.359375 37.910156 68.183594 40.011719 80.175781 C 40.621094 79.578125 41.066406 75.460938 42.046875 77.464844 C 42.511719 80.191406 41.398438 81.335938 41.367188 83.566406 C 44.167969 84.703125 46.550781 91.265625 49.507812 94.417969 C 49.148438 85.921875 50.574219 79.207031 53.574219 74.074219 C 53.71875 74.835938 54.328125 75.128906 54.933594 75.429688 C 54.617188 72.269531 56.265625 71.074219 54.933594 68.648438 C 59.457031 69.332031 56.769531 62.800781 59 61.191406 C 61.003906 61.625 61.746094 65.5625 63.75 63.902344 C 65.632812 61.492188 63.183594 54.75 65.105469 52.375 L 65.105469 61.191406 C 67.761719 61.585938 66.835938 58.402344 68.496094 57.800781 C 69.742188 58.8125 70.1875 60.628906 71.886719 61.191406 C 72.246094 54.949219 70.140625 48.644531 73.921875 44.914062 C 74.175781 51.496094 71.980469 55.632812 72.566406 62.546875 C 75.335938 61.476562 77.167969 59.460938 78.667969 57.121094 C 77.542969 55.0625 77.542969 48.328125 78.667969 46.273438 C 79.898438 50.667969 77.230469 58.949219 82.058594 62.546875 C 87.5 60.300781 82.976562 48.09375 85.449219 42.878906 C 86.292969 50.128906 85.953125 51.359375 85.449219 58.476562 C 87.570312 59.75 89.191406 61.519531 92.234375 61.867188 C 93.0625 59.652344 95.179688 54.164062 97.65625 57.800781 C 96.742188 53.957031 96.375 45.984375 97.65625 42.203125 C 98.789062 47.570312 96.507812 56.445312 99.015625 59.835938 C 100.175781 56.929688 102.457031 55.140625 105.117188 53.730469 C 103.992188 52.5625 103.992188 46.761719 105.117188 45.59375 C 105.292969 51.558594 105.925781 56.882812 109.863281 60.511719 C 115.003906 55.738281 110.609375 49.523438 111.222656 43.558594 C 112.488281 46.136719 112.082031 50.382812 113.933594 52.375 C 115.210938 48.136719 111.046875 45.800781 113.253906 42.882812 C 116.082031 46.382812 113.390625 55.402344 117.324219 57.800781 C 119.898438 53.667969 120.34375 50.125 120.714844 44.914062 C 120.871094 51.769531 123.246094 56.402344 126.140625 60.511719 C 131.003906 55.660156 125.125 49.34375 124.777344 43.558594 Z M 130.890625 45.59375 C 129.808594 45.039062 126.75 43.023438 125.464844 44.914062 C 127.5625 48.917969 128.359375 54.226562 130.890625 57.800781 C 131.175781 54.105469 127.632812 50.683594 129.535156 47.628906 C 131.414062 53.261719 130.917969 57.953125 132.246094 63.222656 C 134.234375 62.449219 134.765625 62.824219 135.636719 64.582031 C 134.1875 75.070312 143.046875 75.257812 141.0625 86.28125 C 145.910156 84.757812 139.617188 76.960938 142.417969 73.394531 C 143.335938 77.675781 143.679688 82.535156 144.453125 86.957031 C 146.1875 85.792969 146.828125 87.734375 147.84375 86.28125 C 145.332031 73.644531 142.054688 58.164062 139.027344 48.304688 C 143.496094 55.820312 144.097656 67.195312 147.167969 76.109375 C 146.992188 72.195312 149.523438 63.230469 145.808594 63.902344 C 146.425781 64.085938 147.609375 66.90625 146.488281 66.613281 C 142.992188 63.195312 146.070312 60.238281 145.808594 55.085938 C 141.875 56.832031 142.023438 50.261719 141.0625 46.949219 C 137.984375 46.636719 135.5 45.730469 132.246094 45.59375 C 132.957031 55.613281 141.234375 66.230469 137.671875 74.074219 C 138.390625 63.125 132.945312 55.648438 130.890625 45.589844 Z M 4.746094 52.375 C 17.074219 54.464844 30.640625 50.730469 42.046875 51.695312 C 42.9375 49.875 43.867188 48.09375 44.761719 46.269531 C 31.078125 45.273438 16.085938 48.777344 4.746094 52.375 Z M 116.648438 59.15625 C 115.070312 58.695312 114.832031 56.902344 113.257812 56.441406 C 112.59375 59.167969 112.011719 61.976562 108.507812 61.867188 C 106.316406 60.445312 106.441406 56.699219 103.761719 55.765625 C 101.898438 57.96875 100.761719 60.898438 97.660156 61.867188 C 96.863281 60.851562 96.816406 59.09375 95.625 58.476562 C 94.441406 60.460938 93.621094 62.800781 91.554688 63.902344 C 90.160156 62.582031 88.019531 62.011719 86.128906 61.1875 C 84.058594 61.828125 84.003906 64.488281 81.382812 64.578125 C 80.25 63.453125 78.636719 62.804688 78.667969 60.511719 C 75.539062 60.542969 76.203125 64.375 72.566406 63.902344 C 69.65625 64.097656 70.335938 60.707031 67.820312 60.511719 C 66.371094 63.53125 63.476562 67.363281 59 65.257812 C 58.527344 71.339844 55.304688 74.667969 54.933594 80.855469 C 53.648438 81.007812 53.4375 80.089844 52.21875 80.175781 C 50.453125 86.320312 51.582031 95.363281 48.828125 100.519531 C 51.464844 119.144531 71.464844 127.738281 89.519531 133.070312 C 93.621094 134.28125 102.617188 134.042969 105.796875 133.070312 C 120.972656 128.429688 140.148438 117.097656 141.738281 100.519531 C 143.539062 100.304688 141.105469 104.320312 143.773438 103.234375 C 146.445312 99.484375 146.796875 90.414062 143.09375 87.636719 C 142.6875 89.035156 142.046875 90.203125 139.703125 89.671875 C 141.449219 77.980469 133.933594 75.546875 133.601562 65.9375 C 133.222656 67.347656 132.542969 67.375 131.566406 66.613281 C 131.285156 63.503906 130.082031 61.316406 128.855469 59.15625 C 128.566406 60.453125 128.609375 62.074219 126.820312 61.867188 C 122.039062 61.898438 123.277344 55.914062 120.039062 54.410156 C 119.914062 56.992188 119.082031 58.867188 116.652344 59.152344 Z M 47.472656 103.910156 C 47.90625 97.792969 48.109375 93.199219 44.082031 90.347656 C 44.570312 95.515625 44.519531 101.21875 47.472656 103.910156 Z M 77.3125 132.394531 C 81.292969 133.613281 85.945312 134.160156 90.199219 135.105469 C 94.074219 135.582031 94.074219 133.953125 90.199219 134.425781 C 85.964844 133.269531 82.054688 131.792969 77.3125 129.679688 Z M 70.53125 141.210938 C 77.035156 145.328125 85.808594 147.183594 96.980469 146.632812 L 96.980469 137.140625 C 90.386719 134.898438 75.609375 136.257812 75.277344 131.039062 C 75.65625 131.039062 76.046875 130.488281 75.277344 130.359375 C 72.472656 132.746094 70.207031 135.675781 70.539062 141.210938 Z M 107.828125 134.425781 C 110.066406 133.277344 114.421875 134.238281 114.609375 131.035156 C 112.550781 131.933594 107.753906 133.640625 107.828125 134.425781 Z M 124.105469 138.496094 C 123.449219 135.761719 122.855469 132.96875 121.394531 131.039062 C 120.472656 132.488281 123.441406 138.699219 124.105469 138.496094 Z M 118.003906 138.496094 C 118.335938 136.355469 116.78125 136.101562 117.324219 133.75 C 111.671875 134.199219 108.066406 136.699219 101.726562 136.464844 C 99.410156 138.253906 99.324219 142.617188 100.371094 145.957031 C 108.035156 143.902344 118.8125 144.957031 122.75 139.175781 C 121.976562 136.332031 120.773438 133.917969 119.359375 131.714844 C 116.496094 133.050781 120.023438 136.566406 118.003906 138.496094 Z M 94.941406 135.785156 C 98.382812 135.054688 97.757812 138.390625 99.011719 139.851562 C 98.449219 136.351562 101.65625 136.621094 102.402344 134.429688 C 100.359375 135.316406 96.597656 134.496094 94.941406 135.785156 Z M 99.691406 147.304688 C 99.644531 150.515625 99.582031 153.742188 101.726562 154.765625 C 103.675781 154.007812 102.1875 149.804688 104.4375 149.339844 C 105.804688 150.234375 106.730469 151.566406 107.148438 153.410156 C 117.828125 150.074219 130.835938 149.066406 137.667969 141.882812 C 132.054688 142.070312 129.765625 138.9375 126.140625 137.136719 C 122.6875 145.882812 109.699219 145.105469 99.691406 147.308594 Z M 61.714844 141.886719 C 62.6875 145.210938 64.132812 148.058594 65.105469 151.382812 C 74.886719 154.03125 86.027344 155.324219 99.015625 154.773438 C 98.714844 152.132812 98.5 149.410156 97.65625 147.3125 C 85.984375 148.644531 71.316406 147.554688 68.496094 137.820312 C 67.195312 140.132812 64.03125 140.578125 61.71875 141.886719 Z M 150.550781 200.882812 C 147.855469 192.5 143.03125 183.269531 142.414062 177.148438 C 141.304688 166.175781 148.496094 158.191406 150.550781 147.3125 C 147.339844 144.648438 142.421875 143.6875 139.023438 141.210938 C 138.019531 154.902344 130.902344 166.089844 128.171875 175.792969 C 129.179688 174.992188 129.226562 173.230469 130.207031 172.402344 C 130.085938 174.542969 129.730469 176.449219 127.492188 176.472656 C 124.421875 176.976562 128.53125 174.609375 125.460938 175.117188 C 108.773438 176.113281 94.992188 177.054688 79.34375 175.792969 C 71.753906 165.75 64.84375 155.03125 60.355469 141.886719 C 56.359375 142.863281 54.28125 145.757812 51.539062 147.992188 C 51.878906 162.898438 64.992188 170.480469 63.066406 185.285156 C 60.558594 204.574219 41.863281 219.40625 41.367188 240.214844 C 45.09375 240.539062 47.34375 233.542969 50.183594 230.71875 C 50.582031 236.320312 44.265625 240.460938 40.007812 243.605469 C 36.167969 254.597656 40.671875 268.726562 40.007812 282.933594 C 39.574219 292.324219 39.246094 300.964844 40.6875 309.382812 C 42.539062 312.003906 41.421875 310.4375 41.367188 308.703125 C 41.167969 302.65625 38.871094 293.414062 41.367188 290.394531 C 41.03125 299.089844 41.992188 306.496094 43.402344 313.449219 C 42.503906 313.441406 42.78125 312.261719 42.042969 312.09375 C 43.894531 315.496094 46.835938 322.179688 50.859375 327.011719 C 65.871094 324.945312 81.3125 327.855469 97.65625 324.300781 C 97.628906 320.503906 99.003906 318.625 96.976562 319.550781 C 101.777344 307.625 101.96875 291.089844 104.4375 276.832031 C 104.988281 278.796875 103.515625 284.238281 104.4375 282.257812 C 106.527344 277.664062 102.972656 271.609375 107.148438 269.371094 C 105.894531 288.070312 114.574219 302.605469 115.289062 321.585938 C 129.785156 321.601562 147.21875 318.71875 161.402344 316.164062 C 165.03125 306.003906 164.613281 291.792969 165.472656 278.867188 C 165.488281 275.90625 164.304688 278.75 164.792969 280.222656 L 164.792969 285.648438 C 163.578125 287.09375 164.960938 294.105469 162.082031 295.820312 C 166.910156 281.050781 161.832031 260.390625 161.402344 246.996094 C 162.605469 250.410156 163.011719 257.46875 163.4375 259.199219 C 164.949219 265.335938 164.335938 258.445312 164.117188 255.808594 C 163.710938 251 161.296875 246.1875 161.402344 239.535156 C 155.980469 238.109375 148.929688 232.074219 150.550781 228.007812 C 153.078125 231.582031 155.085938 235.679688 159.367188 237.5 C 155.441406 225.851562 154.539062 213.289062 150.550781 200.890625 Z M 101.046875 312.085938 C 101.847656 307.691406 103.027344 303.671875 103.757812 299.203125 C 101.480469 301.6875 100.441406 308.992188 101.046875 312.089844 Z M 109.183594 154.089844 C 108.539062 154.5625 109.527344 157.175781 107.148438 157.480469 C 105.847656 156.070312 101.46875 157.734375 101.046875 155.445312 C 100.914062 158.066406 101.023438 160.441406 101.726562 162.226562 C 112.492188 160.785156 123.878906 156.355469 133.597656 156.125 C 124.527344 158.996094 113.03125 161.191406 101.726562 163.582031 C 102.144531 166.097656 100.621094 170.5625 103.082031 171.042969 C 104.449219 169.019531 104.054688 165.234375 107.148438 164.9375 C 109.050781 165.523438 108.59375 168.46875 109.863281 169.6875 C 117.449219 169.136719 123.832031 167.378906 130.207031 165.617188 C 133.371094 160.414062 136.730469 151.800781 136.3125 145.273438 C 128.769531 149.714844 118.832031 151.765625 109.179688 154.089844 Z M 42.046875 160.191406 L 52.894531 160.191406 C 53.480469 157.996094 52.132812 152.554688 49.503906 151.375 C 48.753906 155.71875 40.914062 156.191406 42.046875 160.191406 Z M 147.839844 160.191406 C 151.105469 159.613281 152.714844 157.378906 155.980469 156.800781 C 154.707031 154.457031 152.898438 152.648438 150.554688 151.375 C 150.300781 154.972656 148.171875 156.679688 147.839844 160.191406 Z M 103.761719 156.125 C 105.445312 156.226562 106.574219 155.773438 107.152344 154.765625 C 105.410156 154.699219 106.179688 152.121094 104.4375 152.054688 C 104.453125 153.65625 103.269531 154.054688 103.757812 156.125 Z M 71.210938 162.226562 C 80.796875 163.257812 90.222656 163.523438 99.691406 162.226562 C 99.664062 159.996094 98.546875 158.851562 99.015625 156.125 C 86.804688 156.796875 74.980469 154.820312 66.460938 153.410156 C 68.210938 156.191406 70.035156 158.882812 71.214844 162.226562 Z M 146.484375 162.226562 C 146.207031 166.019531 144.160156 168.042969 144.449219 172.398438 C 151.765625 170.222656 158.375 167.335938 164.117188 163.582031 C 159.707031 156.277344 153.351562 157.960938 146.480469 162.226562 Z M 38.652344 160.871094 C 36.429688 164.296875 33.25 166.769531 31.871094 171.042969 C 39.890625 170.472656 48.167969 170.15625 56.964844 170.363281 C 56.285156 166.746094 54.886719 163.855469 53.574219 160.871094 C 48.550781 162.328125 44.390625 160.550781 38.652344 160.871094 Z M 80.019531 172.398438 C 85.585938 173.960938 93.9375 170.472656 100.363281 171.042969 C 100.144531 168.550781 100.945312 165.039062 99.6875 163.582031 C 91.886719 164.777344 80.796875 163.613281 72.558594 164.261719 C 76.03125 166.765625 75.351562 171.089844 80.019531 172.402344 Z M 170.222656 173.078125 C 168.089844 170.6875 165.664062 168.59375 164.117188 165.617188 C 158.347656 169.570312 149.976562 170.917969 143.773438 174.433594 C 143.8125 177.785156 144.441406 180.546875 145.808594 182.570312 C 154.285156 179.519531 163.824219 177.53125 172.253906 174.433594 C 171.4375 170.71875 167.464844 166.582031 165.472656 166.296875 C 167.09375 168.527344 169.265625 170.195312 170.226562 173.078125 Z M 104.4375 171.722656 C 106.507812 172.210938 106.910156 171.027344 108.507812 171.042969 C 107.980469 169.535156 108.113281 167.367188 106.472656 166.976562 C 105.910156 168.671875 104.613281 169.640625 104.4375 171.722656 Z M 101.722656 172.398438 C 100.710938 175.261719 104.746094 175.007812 107.148438 175.113281 C 113.191406 175.371094 122.953125 173.585938 127.492188 173.753906 C 127.855469 171.40625 129.308594 170.144531 129.527344 167.652344 C 120.285156 168.464844 108.378906 173.476562 101.71875 172.398438 Z M 29.839844 172.398438 C 28.070312 174.890625 28.242188 179.925781 29.164062 183.25 C 41.089844 182.96875 50.503906 180.175781 61.039062 178.503906 C 60.796875 175.578125 59.503906 173.707031 58.324219 171.722656 C 49.679688 170.019531 37.621094 171.972656 29.839844 172.398438 Z M 80.023438 174.433594 C 83.390625 174.351562 94.917969 176.90625 100.367188 173.757812 C 95.675781 170.738281 85.667969 173.90625 80.019531 174.433594 Z M 146.484375 183.25 C 150.765625 193.578125 153.003906 207.53125 156.65625 216.476562 C 162.105469 204.308594 176.992188 191.445312 171.578125 175.113281 C 164.921875 179.535156 154.375 180.066406 146.480469 183.253906 Z M 61.714844 185.285156 C 61.53125 183.832031 62.242188 178.050781 61.039062 179.859375 C 61.222656 181.3125 60.511719 187.089844 61.714844 185.285156 Z M 59.003906 180.539062 C 51.484375 180.9375 40.808594 184.042969 31.199219 184.605469 C 37.511719 194.117188 39.519531 207.933594 48.152344 215.121094 C 53.140625 205.390625 61.613281 195.597656 59.003906 180.535156 Z M 165.476562 276.148438 C 165.257812 274.515625 166.054688 268.398438 164.796875 270.046875 C 165.023438 271.679688 164.222656 277.800781 165.476562 276.152344 Z M 103.082031 298.53125 C 104.417969 295.671875 105.28125 285.53125 103.761719 284.289062 C 104.628906 289.6875 101.9375 295.109375 103.082031 298.53125 Z M 160.730469 329.722656 C 160.21875 327.75 162.925781 318.707031 160.730469 317.515625 C 158.953125 320.890625 162.070312 325.949219 158.695312 328.363281 C 159.519531 325.347656 159.429688 321.417969 159.371094 317.515625 C 146.203125 320.167969 132.621094 322.414062 117.324219 322.941406 C 118.089844 327.753906 115.558594 331.839844 118.003906 334.46875 C 120.417969 333.203125 124.242188 333.203125 127.496094 334.46875 C 124.570312 335.421875 123.027344 333.574219 120.714844 335.144531 C 136.824219 337.503906 149.214844 334.542969 160.726562 329.71875 Z M 90.875 335.824219 C 91.425781 332.308594 93.769531 330.582031 93.585938 326.332031 C 81.289062 328.203125 64.539062 327.5625 53.574219 327.007812 C 52.933594 329.179688 53.179688 330.777344 52.898438 334.46875 C 55.867188 334.683594 60.496094 336.789062 63.070312 335.144531 C 61.199219 334.53125 58.308594 334.933594 56.964844 333.789062 C 66.453125 333.996094 66.714844 336.261719 73.242188 337.859375 C 74.199219 334.867188 69.183594 337.847656 69.171875 335.824219 C 78.820312 335.992188 81.832031 338.867188 92.910156 337.859375 C 94.398438 333.699219 95.242188 328.890625 97.65625 325.652344 C 97.808594 326.179688 97.675781 326.992188 98.335938 327.007812 C 94.328125 321.007812 94.632812 335.003906 90.875 335.824219 Z M 94.945312 336.503906 C 95.371094 334.21875 98.667969 328.328125 96.980469 328.363281 C 96.695312 331.042969 93.613281 334.460938 94.945312 336.503906 Z M 120.71875 336.503906 C 126.378906 339.886719 138.953125 336.355469 145.8125 338.535156 C 147.835938 335.589844 155.109375 337.886719 155.984375 333.789062 C 146.867188 335.648438 134.40625 339 120.714844 336.503906 Z M 54.253906 339.214844 C 58.679688 340.894531 66.125 339.554688 69.175781 342.605469 C 74.015625 341.570312 79.019531 340.695312 84.09375 339.894531 C 88.667969 340.117188 85.605469 338.683594 82.738281 339.214844 C 73.484375 338.300781 63.621094 337.988281 54.933594 336.503906 C 54.40625 336.652344 54.144531 337.070312 54.253906 337.859375 C 54.253906 338.3125 54.253906 338.761719 54.253906 339.214844 Z M 147.164062 339.894531 C 148.753906 338.09375 154.445312 340.394531 155.980469 338.539062 C 155.566406 338.5 155.175781 338.4375 155.300781 337.859375 C 155.714844 337.820312 156.105469 337.757812 155.980469 337.183594 C 152.589844 337.195312 146.722656 338.292969 147.164062 339.894531 Z M 117.328125 362.945312 C 125.589844 369.601562 127.890625 382.21875 141.0625 383.96875 C 142.371094 373.519531 150.375 369.769531 157.339844 364.980469 C 157.203125 360.917969 152.734375 364.929688 151.234375 362.945312 C 152.742188 362.417969 154.914062 362.554688 155.304688 360.910156 C 154.445312 359.734375 153.011719 359.132812 153.269531 356.84375 C 151.128906 355.90625 149.175781 358.519531 148.523438 356.84375 C 149.332031 355.394531 152.203125 356 151.234375 352.773438 C 149.707031 350.585938 146.15625 353.953125 145.132812 352.097656 C 145.828125 350.53125 149.671875 352.113281 149.199219 349.382812 C 143.699219 343.152344 138.261719 351.6875 132.246094 351.417969 C 130.160156 344.496094 136.144531 340.007812 143.777344 340.566406 C 138.535156 337.445312 127.53125 340.082031 120.039062 339.210938 C 118.949219 346.941406 118.113281 354.925781 117.328125 362.949219 Z M 37.976562 375.152344 C 40.277344 370.511719 46.277344 369.179688 52.21875 367.695312 C 54.554688 367.109375 58.496094 368.589844 59 364.980469 C 56.953125 364.769531 53.726562 365.734375 53.574219 363.625 C 57.4375 364.394531 61.277344 363.886719 61.714844 359.558594 C 60.582031 358.429688 56.761719 359.988281 56.96875 357.523438 C 59.296875 357.226562 60.769531 357.789062 62.390625 358.199219 C 62.957031 356.503906 64.25 355.539062 64.425781 353.453125 C 62.726562 352.894531 58.589844 354.773438 59 352.097656 C 62.167969 351.871094 66.953125 353.269531 66.460938 349.386719 C 61.085938 348.304688 60.820312 352.332031 55.609375 351.417969 C 54.5625 350.433594 55.015625 347.949219 54.933594 345.996094 C 57.121094 343.886719 60.824219 343.296875 63.75 341.925781 C 59.515625 342.539062 57.527344 340.914062 54.253906 340.570312 C 51.3125 354.132812 38.347656 361.289062 37.976562 375.15625 Z M 75.957031 343.285156 C 79.535156 343.878906 84.429688 349.273438 80.703125 352.777344 C 75.875 352.953125 72.886719 348.121094 67.820312 350.746094 C 67.488281 353.558594 71.730469 351.808594 71.886719 354.132812 C 69.703125 354.285156 69.019531 352.933594 66.460938 353.457031 C 65.859375 354.886719 64.398438 355.460938 64.429688 357.527344 C 64.960938 359.027344 68.625 357.398438 67.820312 360.238281 C 66.832031 359.242188 63.378906 359.242188 62.394531 360.238281 C 61.902344 362.308594 63.085938 362.710938 63.070312 364.308594 C 60.507812 364.230469 59.425781 365.632812 59.003906 367.695312 C 66.660156 371.339844 72.476562 376.828125 72.566406 388.039062 C 80.78125 382.917969 85.402344 374.203125 90.878906 366.339844 C 90.792969 357.078125 89.582031 349.9375 90.199219 340.574219 C 85.816406 341.839844 79.40625 341.082031 75.957031 343.277344 Z M 146.484375 341.25 C 146.714844 346.445312 153.480469 345.101562 157.332031 346.675781 C 157.363281 343.707031 155.640625 342.492188 154.621094 340.570312 C 151.414062 340.300781 148.964844 340.789062 146.480469 341.25 Z M 133.601562 350.066406 C 138.570312 348.933594 141.066406 345.324219 143.777344 341.929688 C 139.101562 341.277344 132.972656 343.347656 133.601562 350.066406 Z M 56.289062 350.066406 L 59.679688 350.066406 C 59.089844 346.476562 63.976562 347.457031 65.105469 343.964844 C 60.058594 343.890625 55.753906 344.558594 56.289062 350.066406 Z M 80.699219 351.421875 C 80.832031 345.1875 75.964844 343.949219 69.847656 343.964844 C 71.542969 348.378906 74.828125 351.191406 80.699219 351.421875 Z M 142.414062 345.996094 C 143.605469 345.609375 146.398438 346.816406 146.484375 345.320312 C 145.152344 343.683594 143.097656 343.753906 142.414062 345.996094 Z M 64.425781 347.355469 C 65.34375 347.566406 65.722656 348.320312 67.140625 348.03125 L 67.140625 345.320312 C 65.441406 345.203125 65.015625 346.355469 64.425781 347.355469 Z M 151.230469 350.746094 C 152.636719 351.148438 155.6875 349.90625 155.976562 351.421875 C 153.878906 352.308594 153.34375 350.890625 151.910156 352.78125 C 152.113281 355.738281 157.292969 353.726562 158.011719 356.167969 L 154.621094 356.167969 C 154.519531 358.757812 156.328125 359.433594 156.65625 361.59375 C 157.847656 361.984375 160.640625 360.777344 160.726562 362.273438 C 159.738281 362.644531 157.21875 361.480469 157.332031 362.949219 C 158.25 363.617188 158.691406 364.761719 159.367188 365.664062 C 170.25 362.445312 175.746094 369.324219 178.355469 376.511719 C 177.867188 360.730469 165.355469 356.964844 158.691406 347.355469 C 155.792969 349.4375 151.480469 345.65625 149.195312 347.355469 C 150.390625 347.964844 150.4375 349.722656 151.230469 350.738281 Z M 116.644531 369.050781 C 117.4375 372.25 127.449219 385.550781 130.210938 387.359375 C 136.539062 391.5 162.40625 394.039062 164.117188 385.324219 C 154.777344 386.210938 141.902344 386.5625 132.246094 383.289062 C 127.386719 376.84375 122.691406 370.238281 116.644531 364.980469 C 116.984375 366.039062 116.234375 367.386719 116.644531 369.050781 Z M 176.328125 378.542969 C 177.605469 374.160156 172.675781 368.25 170.222656 367.015625 C 160.328125 362.035156 142.800781 373.015625 142.417969 383.96875 C 152.761719 384.421875 173.96875 386.59375 176.324219 378.542969 Z M 67.140625 373.796875 C 59.457031 365.382812 36.695312 369.242188 37.300781 379.222656 C 37.875 388.691406 62.144531 388.945312 71.210938 389.394531 C 70.070312 382.488281 70.734375 377.734375 67.136719 373.792969 Z M 90.195312 376.507812 C 90.910156 374.707031 91.472656 371.300781 89.515625 370.40625 C 89.9375 372.25 88.65625 375.792969 90.195312 376.511719 Z M 85.449219 382.613281 C 87.546875 380.851562 90.472656 376.355469 88.160156 372.441406 C 87.199219 375.335938 82.769531 378.328125 85.449219 382.613281 Z M 71.890625 390.75 C 57.539062 391.746094 45.113281 387.265625 37.300781 383.972656 L 37.300781 389.394531 C 51.972656 395.226562 85.125 401.761719 83.417969 379.222656 C 80.277344 383.773438 76.417969 387.601562 71.886719 390.753906 Z M 172.257812 386.683594 C 174.34375 387.71875 174.34375 382.253906 172.257812 383.292969 Z M 164.796875 384.648438 L 164.796875 388.714844 C 167.960938 389.167969 169.15625 387.648438 171.578125 387.359375 L 171.578125 383.96875 C 168.617188 383.496094 167.761719 385.121094 164.796875 384.648438 Z M 164.796875 384.648438 "/>
<path style=" stroke:none;fill-rule:evenodd;fill:rgb(54.509804%,36.078431%,16.078431%);fill-opacity:1;" d="M 126.144531 60.511719 C 123.246094 56.402344 120.871094 51.765625 120.71875 44.914062 C 120.34375 50.121094 119.902344 53.667969 117.328125 57.800781 C 113.394531 55.402344 116.085938 46.382812 113.257812 42.878906 C 111.046875 45.796875 115.210938 48.136719 113.9375 52.375 C 112.085938 50.382812 112.488281 46.136719 111.222656 43.558594 C 110.613281 49.523438 115.007812 55.734375 109.867188 60.511719 C 105.929688 56.882812 105.292969 51.558594 105.121094 45.59375 C 103.996094 46.761719 103.996094 52.5625 105.121094 53.730469 C 102.460938 55.140625 100.179688 56.929688 99.015625 59.832031 C 96.511719 56.445312 98.792969 47.566406 97.660156 42.203125 C 96.375 45.984375 96.746094 53.953125 97.660156 57.800781 C 95.179688 54.164062 93.066406 59.652344 92.234375 61.867188 C 89.191406 61.519531 87.570312 59.75 85.453125 58.476562 C 85.953125 51.359375 86.296875 50.128906 85.453125 42.878906 C 82.980469 48.09375 87.5 60.300781 82.0625 62.546875 C 77.234375 58.945312 79.898438 50.667969 78.671875 46.269531 C 77.542969 48.328125 77.542969 55.0625 78.671875 57.121094 C 77.167969 59.460938 75.339844 61.476562 72.566406 62.546875 C 71.980469 55.632812 74.175781 51.496094 73.921875 44.914062 C 70.140625 48.644531 72.25 54.949219 71.890625 61.1875 C 70.1875 60.628906 69.742188 58.8125 68.5 57.796875 C 66.839844 58.398438 67.761719 61.585938 65.105469 61.1875 L 65.105469 52.375 C 63.1875 54.75 65.632812 61.488281 63.75 63.902344 C 61.75 65.5625 61.003906 61.625 59.003906 61.1875 C 56.769531 62.796875 59.457031 69.332031 54.933594 68.648438 C 56.269531 71.074219 54.621094 72.265625 54.933594 75.429688 C 54.332031 75.128906 53.722656 74.835938 53.578125 74.074219 C 50.574219 79.207031 49.152344 85.921875 49.507812 94.417969 C 46.550781 91.265625 44.171875 84.699219 41.371094 83.566406 C 41.398438 81.335938 42.515625 80.191406 42.046875 77.464844 C 41.070312 75.460938 40.621094 79.578125 40.015625 80.175781 C 37.914062 68.183594 45.902344 60.359375 48.152344 48.984375 C 46.066406 51.871094 45.199219 55.976562 44.082031 59.832031 C 39.835938 57.714844 44.644531 49.832031 46.117188 46.949219 L 52.898438 46.949219 C 50.425781 59.050781 46.613281 71.773438 45.441406 86.957031 C 47.660156 75 51.296875 60.941406 53.578125 46.269531 C 58.726562 45.769531 62.113281 43.503906 67.820312 43.558594 C 68.261719 46.960938 66.929688 52.132812 68.5 54.40625 C 68.703125 52.582031 68.308594 44.878906 69.175781 43.558594 C 70.992188 42.886719 72.753906 42.160156 75.28125 42.203125 C 75.203125 47.097656 74.160156 51.027344 74.601562 56.441406 C 76.480469 53.746094 74.601562 45.191406 77.316406 41.523438 L 80.027344 41.523438 C 80.945312 46.710938 80.394531 53.363281 81.386719 58.476562 C 83.429688 53.480469 80.46875 47.648438 81.386719 41.523438 C 97.765625 40.933594 108.234375 40.914062 124.789062 43.558594 C 125.140625 49.339844 131.023438 55.65625 126.152344 60.507812 Z M 88.839844 57.121094 C 88.46875 51.839844 89.410156 45.25 86.804688 42.203125 C 88.171875 44.855469 86.371094 53.644531 88.839844 57.121094 Z M 94.265625 51.019531 C 93.582031 48.761719 95.765625 43.640625 92.910156 43.558594 C 92.8125 46.597656 92.984375 49.363281 94.265625 51.019531 Z M 99.691406 53.730469 C 99.34375 51.898438 102.191406 45.457031 99.011719 43.558594 C 99.453125 46.734375 98.132812 51.679688 99.691406 53.730469 Z M 110.542969 58.476562 C 109.585938 54.226562 108.816406 46.203125 107.832031 44.238281 C 107.6875 50.03125 108.222656 55.144531 110.542969 58.476562 Z M 118.003906 52.375 C 116.96875 50.1875 118.3125 44.460938 116.648438 44.238281 C 117.351562 46.691406 115.109375 52.105469 118.003906 52.375 Z M 91.550781 57.800781 C 90.792969 53.585938 91.429688 47.976562 90.195312 44.238281 C 89.9375 47.253906 88.945312 54.261719 91.550781 57.800781 Z M 103.761719 52.375 C 103.644531 50.195312 103.222656 44.820312 102.402344 45.59375 C 103.054688 47.65625 100.953125 52.46875 103.761719 52.375 Z M 124.785156 55.085938 C 123.636719 53.277344 124.78125 45.628906 123.429688 46.269531 C 123.714844 49.378906 122.554688 53.925781 124.785156 55.085938 Z M 56.289062 66.613281 C 55.246094 63.429688 60.769531 51.375 58.324219 46.269531 C 58.984375 53.625 54.027344 59.703125 56.289062 66.613281 Z M 61.714844 55.765625 C 60.804688 52.339844 63.75 49.25 61.714844 46.949219 C 61.582031 50.285156 59.488281 53.804688 61.714844 55.765625 Z M 52.21875 69.328125 C 52.757812 62.851562 55.910156 55.394531 54.933594 49.664062 C 54.558594 56.300781 50.867188 63.222656 52.21875 69.328125 Z M 44.757812 69.328125 C 45.3125 66.472656 48.460938 62.65625 46.792969 59.835938 C 45.671875 60.753906 42.796875 77.589844 44.757812 69.328125 Z M 44.757812 69.328125 "/>
<path style=" stroke:none;fill-rule:evenodd;fill:rgb(54.509804%,36.078431%,16.078431%);fill-opacity:1;" d="M 137.671875 74.074219 C 141.234375 66.230469 132.960938 55.613281 132.246094 45.59375 C 135.503906 45.730469 137.988281 46.636719 141.066406 46.949219 C 142.027344 50.261719 141.875 56.835938 145.8125 55.089844 C 146.074219 60.238281 142.992188 63.199219 146.488281 66.617188 C 147.613281 66.90625 146.429688 64.089844 145.8125 63.902344 C 149.527344 63.230469 146.996094 72.195312 147.167969 76.109375 C 144.101562 67.195312 143.496094 55.820312 139.03125 48.308594 C 142.058594 58.167969 145.332031 73.648438 147.847656 86.28125 C 146.828125 87.738281 146.1875 85.796875 144.457031 86.960938 C 143.679688 82.535156 143.335938 77.679688 142.421875 73.398438 C 139.617188 76.960938 145.910156 84.761719 141.066406 86.28125 C 143.046875 75.257812 134.1875 75.074219 135.640625 64.582031 C 134.765625 62.824219 134.238281 62.449219 132.246094 63.226562 C 130.921875 57.953125 131.414062 53.261719 129.535156 47.628906 C 127.632812 50.683594 131.175781 54.105469 130.890625 57.800781 C 128.359375 54.230469 127.566406 48.921875 125.464844 44.914062 C 126.753906 43.023438 129.808594 45.042969 130.890625 45.59375 C 132.945312 55.648438 138.394531 63.125 137.675781 74.074219 Z M 142.414062 66.613281 C 140.265625 60.847656 139.46875 53.734375 136.3125 48.984375 C 138.398438 54.8125 138.628906 62.492188 142.414062 66.613281 Z M 142.414062 66.613281 "/>
<path style=" stroke:none;fill-rule:evenodd;fill:rgb(100%,94.117647%,84.705882%);fill-opacity:1;" d="M 120.039062 54.410156 C 123.277344 55.914062 122.042969 61.898438 126.820312 61.867188 C 128.609375 62.074219 128.570312 60.453125 128.855469 59.15625 C 130.082031 61.316406 131.285156 63.503906 131.566406 66.613281 C 132.542969 67.375 133.222656 67.347656 133.601562 65.9375 C 133.9375 75.546875 141.449219 77.980469 139.707031 89.671875 C 142.046875 90.203125 142.6875 89.035156 143.097656 87.636719 C 146.796875 90.414062 146.445312 99.484375 143.773438 103.234375 C 141.105469 104.320312 143.539062 100.304688 141.738281 100.519531 C 140.152344 117.097656 120.972656 128.429688 105.796875 133.070312 C 102.617188 134.042969 93.621094 134.28125 89.519531 133.070312 C 71.464844 127.738281 51.464844 119.144531 48.828125 100.519531 C 51.582031 95.363281 50.453125 86.320312 52.21875 80.175781 C 53.4375 80.089844 53.652344 81.007812 54.933594 80.855469 C 55.304688 74.667969 58.527344 71.339844 59.003906 65.257812 C 63.476562 67.363281 66.371094 63.53125 67.820312 60.511719 C 70.335938 60.707031 69.65625 64.097656 72.566406 63.902344 C 76.203125 64.375 75.539062 60.542969 78.671875 60.511719 C 78.636719 62.804688 80.25 63.453125 81.382812 64.578125 C 84.003906 64.488281 84.058594 61.828125 86.128906 61.1875 C 88.019531 62.011719 90.160156 62.582031 91.554688 63.902344 C 93.621094 62.800781 94.445312 60.460938 95.625 58.476562 C 96.816406 59.09375 96.863281 60.851562 97.660156 61.867188 C 100.761719 60.902344 101.898438 57.96875 103.761719 55.765625 C 106.441406 56.699219 106.316406 60.445312 108.511719 61.867188 C 112.011719 61.976562 112.59375 59.167969 113.257812 56.441406 C 114.832031 56.902344 115.074219 58.695312 116.648438 59.15625 C 119.070312 58.867188 119.902344 56.992188 120.03125 54.40625 Z M 115.289062 72.039062 C 115.003906 70.742188 115.046875 69.121094 113.257812 69.328125 C 113.070312 70.515625 115.164062 72.710938 113.257812 73.398438 C 111.859375 73.210938 113.09375 70.394531 111.222656 70.683594 C 111.070312 71.964844 111.984375 72.179688 111.898438 73.398438 C 107.335938 78.207031 106.996094 91.65625 112.578125 94.417969 C 120.132812 98.152344 127.574219 90.554688 126.140625 81.535156 C 125.46875 77.285156 121.398438 75.523438 123.429688 72.71875 C 122.144531 72.566406 121.933594 73.480469 120.714844 73.394531 C 120.5625 72.113281 121.480469 71.898438 121.394531 70.683594 C 119.21875 70.089844 119.988281 72.441406 118.683594 72.71875 C 116.148438 71.703125 119.40625 68.828125 116.648438 68.648438 C 116.75 70.332031 116.769531 71.9375 115.289062 72.039062 Z M 65.105469 90.351562 C 66.019531 92.378906 67.203125 94.132812 67.816406 96.453125 C 68.542969 95.820312 68.027344 93.953125 69.851562 94.421875 C 71.125 95.710938 69.925781 96.125 69.851562 97.8125 C 72.402344 98.328125 70.320312 94.210938 73.242188 95.097656 C 75.265625 98.746094 76.058594 92.894531 78.667969 97.132812 C 77.878906 93.367188 81.492188 93.269531 82.738281 95.097656 C 80.886719 90.957031 86.003906 91.621094 86.128906 87.640625 C 82.277344 93.28125 71.125 96.183594 65.101562 90.351562 Z M 88.839844 107.976562 C 90.890625 109.398438 94.429688 107.828125 95.621094 108.65625 C 95.367188 104.40625 89.476562 109.527344 89.515625 104.585938 C 90.117188 102.671875 94.054688 100.574219 92.230469 98.484375 C 90.167969 100.703125 87.324219 104.277344 88.839844 107.980469 Z M 105.796875 105.945312 C 103.433594 109.023438 100.136719 103.261719 99.015625 107.976562 C 103.109375 108.585938 104.023438 108.011719 107.152344 106.621094 C 107.722656 102.640625 105.898438 97.5 103.082031 99.164062 C 104.539062 100.871094 106.242188 102.335938 105.796875 105.945312 Z M 79.34375 113.402344 C 75.4375 112.683594 73.390625 117.371094 74.59375 119.507812 C 75.21875 116.507812 78.351562 116.027344 79.34375 113.402344 Z M 119.359375 113.402344 C 120.742188 113.601562 120.691406 115.238281 122.074219 115.4375 C 121.914062 111.527344 119.300781 110.074219 116.648438 108.65625 C 114.9375 110.355469 117.945312 110.800781 118.683594 112.046875 C 111.496094 122.484375 87.917969 125.839844 77.3125 116.117188 C 85.34375 128.507812 112.996094 123.867188 119.359375 113.402344 Z M 135.636719 114.082031 C 137.070312 112.160156 137.21875 109.109375 136.996094 109.335938 C 136.582031 109.75 136.625 111.625 135.636719 112.726562 C 132.738281 115.945312 126.398438 118.789062 126.144531 121.542969 C 129.371094 117.914062 133.210938 117.335938 135.640625 114.082031 Z M 135.636719 114.082031 "/>
<path style=" stroke:none;fill-rule:evenodd;fill:rgb(0%,0%,0%);fill-opacity:1;" d="M 126.144531 121.542969 C 126.398438 118.792969 132.738281 115.949219 135.636719 112.726562 C 136.625 111.628906 136.582031 109.753906 136.992188 109.335938 C 137.21875 109.109375 137.070312 112.160156 135.636719 114.082031 C 133.210938 117.335938 129.371094 117.914062 126.140625 121.542969 Z M 126.144531 121.542969 "/>
<path style=" stroke:none;fill-rule:evenodd;fill:rgb(100%,100%,100%);fill-opacity:1;" d="M 75.28125 130.359375 C 76.050781 130.488281 75.65625 131.039062 75.28125 131.035156 C 75.609375 136.257812 90.390625 134.898438 96.980469 137.140625 L 96.980469 146.632812 C 85.808594 147.183594 77.039062 145.328125 70.53125 141.207031 C 70.195312 135.675781 72.460938 132.746094 75.273438 130.355469 Z M 75.28125 130.359375 "/>
<path style=" stroke:none;fill-rule:evenodd;fill:rgb(100%,94.117647%,84.705882%);fill-opacity:1;" d="M 114.613281 131.035156 C 114.421875 134.238281 110.070312 133.273438 107.832031 134.425781 C 107.753906 133.640625 112.550781 131.933594 114.613281 131.035156 Z M 114.613281 131.035156 "/>
<path style=" stroke:none;fill-rule:evenodd;fill:rgb(100%,100%,100%);fill-opacity:1;" d="M 121.394531 131.035156 C 122.855469 132.96875 123.453125 135.761719 124.109375 138.496094 C 123.441406 138.699219 120.472656 132.488281 121.394531 131.035156 Z M 121.394531 131.035156 "/>
<path style=" stroke:none;fill-rule:evenodd;fill:rgb(0%,37.647059%,71.372549%);fill-opacity:1;" d="M 159.371094 237.5 C 155.089844 235.679688 153.082031 231.582031 150.554688 228.007812 C 148.933594 232.074219 155.980469 238.109375 161.40625 239.535156 C 161.300781 246.1875 163.714844 250.996094 164.117188 255.808594 C 164.339844 258.441406 164.953125 265.335938 163.441406 259.199219 C 163.011719 257.464844 162.605469 250.410156 161.40625 246.992188 C 161.832031 260.390625 166.914062 281.046875 162.082031 295.816406 C 164.960938 294.105469 163.582031 287.09375 164.796875 285.644531 L 164.796875 280.222656 C 164.304688 278.75 165.488281 275.90625 165.472656 278.863281 C 164.613281 291.792969 165.035156 306 161.40625 316.160156 C 147.222656 318.71875 129.789062 321.597656 115.289062 321.585938 C 114.578125 302.605469 105.894531 288.070312 107.152344 269.371094 C 102.976562 271.609375 106.53125 277.664062 104.4375 282.253906 C 103.515625 284.238281 104.992188 278.796875 104.4375 276.832031 C 101.96875 291.089844 101.777344 307.625 96.980469 319.550781 C 99.003906 318.625 97.628906 320.503906 97.65625 324.296875 C 81.316406 327.851562 65.875 324.945312 50.863281 327.011719 C 46.835938 322.179688 43.894531 315.496094 42.046875 312.09375 C 42.78125 312.257812 42.507812 313.441406 43.402344 313.449219 C 41.992188 306.492188 41.035156 299.089844 41.367188 290.390625 C 38.871094 293.414062 41.167969 302.652344 41.367188 308.703125 C 41.425781 310.4375 42.542969 312.003906 40.691406 309.378906 C 39.25 300.960938 39.574219 292.320312 40.011719 282.933594 C 40.671875 268.722656 36.167969 254.597656 40.011719 243.601562 C 44.265625 240.457031 50.582031 236.316406 50.183594 230.71875 C 47.347656 233.542969 45.097656 240.539062 41.367188 240.210938 C 41.863281 219.40625 60.5625 204.570312 63.070312 185.285156 C 64.996094 170.476562 51.878906 162.894531 51.539062 147.988281 C 54.28125 145.757812 56.359375 142.863281 60.355469 141.886719 C 64.847656 155.027344 71.757812 165.75 79.34375 175.792969 C 94.996094 177.054688 108.777344 176.113281 125.460938 175.113281 C 128.53125 174.609375 124.425781 176.976562 127.496094 176.46875 C 129.730469 176.445312 130.089844 174.542969 130.207031 172.402344 C 129.230469 173.230469 129.179688 174.988281 128.175781 175.792969 C 130.90625 166.089844 138.023438 154.902344 139.023438 141.207031 C 142.425781 143.6875 147.34375 144.644531 150.554688 147.3125 C 148.5 158.191406 141.308594 166.175781 142.414062 177.148438 C 143.035156 183.269531 147.859375 192.5 150.554688 200.882812 C 154.542969 213.28125 155.445312 225.839844 159.371094 237.5 Z M 143.09375 156.800781 C 137.917969 156.148438 135.570312 158.320312 135.632812 162.90625 C 139.105469 169.769531 149.367188 161.792969 143.09375 156.800781 Z M 114.613281 308.703125 C 114.0625 302.019531 113.632812 295.21875 111.222656 290.394531 C 112.070312 296.777344 112.734375 303.347656 114.613281 308.707031 Z M 101.046875 287 C 99.933594 296.183594 98.140625 304.316406 98.335938 312.769531 C 99.859375 303.742188 101.828125 295.691406 101.046875 286.996094 Z M 67.140625 158.835938 C 63.449219 153.039062 55.199219 161.511719 61.035156 166.972656 C 67.265625 167.828125 68.898438 161.601562 67.140625 158.835938 Z M 104.4375 178.503906 C 109.738281 177.203125 116.128906 179.394531 120.714844 176.46875 C 115.917969 177.785156 108.261719 176.226562 104.4375 178.503906 Z M 88.839844 183.929688 C 89.449219 193.066406 86.886719 201.222656 90.195312 207.664062 C 97.914062 209.5 116.199219 210.347656 122.070312 204.273438 C 124.980469 199.726562 122.703125 189.988281 123.425781 183.25 C 111.257812 183.269531 101.667969 184.464844 88.839844 183.929688 Z M 154.621094 222.578125 C 152.730469 210.007812 148.335938 199.933594 145.128906 188.671875 C 147.089844 201.179688 151.539062 211.195312 154.625 222.578125 Z M 105.117188 267.332031 C 104.722656 262.746094 105.941406 252.960938 104.4375 251.738281 C 104.832031 256.328125 103.609375 266.113281 105.117188 267.335938 Z M 63.75 264.621094 C 61.324219 271.730469 57.851562 281.277344 60.359375 291.066406 C 69.269531 291.515625 77.59375 290.445312 83.414062 289.710938 C 81.730469 280.730469 85.261719 272.03125 84.773438 264.621094 C 78.578125 261.230469 71.839844 265.746094 63.75 264.621094 Z M 162.761719 274.117188 C 161.371094 273.214844 162.394531 280.503906 162.082031 282.929688 C 161.546875 290.761719 158.5 299.6875 158.011719 305.308594 C 161.289062 296.601562 163.277344 286.609375 162.761719 274.113281 Z M 162.761719 274.117188 "/>
<path style=" stroke:none;fill-rule:evenodd;fill:rgb(100%,0%,0%);fill-opacity:1;" d="M 165.476562 166.296875 C 167.46875 166.582031 171.4375 170.71875 172.257812 174.433594 C 163.824219 177.53125 154.285156 179.519531 145.808594 182.570312 C 144.441406 180.546875 143.8125 177.785156 143.773438 174.433594 C 149.976562 170.917969 158.351562 169.570312 164.117188 165.617188 C 165.664062 168.59375 168.089844 170.6875 170.222656 173.078125 C 169.253906 170.195312 167.082031 168.527344 165.46875 166.296875 Z M 164.796875 175.113281 C 164.046875 172.472656 162.921875 170.207031 161.40625 168.332031 C 161.792969 171.328125 162.917969 173.601562 164.796875 175.113281 Z M 164.796875 175.113281 "/>
<path style=" stroke:none;fill-rule:evenodd;fill:rgb(0%,0%,0%);fill-opacity:1;" d="M 170.902344 178.503906 C 171.746094 190.652344 163.914062 199.996094 159.371094 209.019531 C 161.746094 200.082031 170.488281 191.652344 170.902344 178.5 Z M 170.902344 178.503906 "/>
<path style=" stroke:none;fill-rule:evenodd;fill:rgb(0%,0%,0%);fill-opacity:1;" d="M 145.128906 188.675781 C 148.335938 199.9375 152.726562 210.011719 154.621094 222.582031 C 151.535156 211.203125 147.085938 201.183594 145.125 188.679688 Z M 145.128906 188.675781 "/>
<path style=" stroke:none;fill-rule:evenodd;fill:rgb(0%,0%,0%);fill-opacity:1;" d="M 123.429688 183.25 C 122.707031 189.988281 124.988281 199.726562 122.074219 204.273438 C 116.203125 210.347656 97.917969 209.5 90.199219 207.664062 C 86.890625 201.222656 89.453125 193.066406 88.84375 183.929688 C 101.660156 184.464844 111.253906 183.269531 123.425781 183.25 Z M 90.195312 185.285156 C 90.90625 193.871094 87.902344 202.015625 92.230469 206.984375 C 100.753906 209.046875 107.066406 204.855469 115.289062 206.984375 C 116.242188 205.128906 117.292969 204.273438 120.035156 202.917969 C 122.445312 197.4375 120.339844 188.234375 121.390625 184.605469 C 112.972656 185.515625 102.398438 185.171875 90.191406 185.285156 Z M 90.195312 185.285156 "/>
<path style=" stroke:none;fill-rule:evenodd;fill:rgb(46.666667%,66.27451%,75.294118%);fill-opacity:1;" d="M 81.378906 274.792969 C 83.011719 278.824219 80.449219 283.710938 82.054688 288.355469 C 76.296875 289.78125 66.390625 290.082031 61.03125 289.710938 C 60.636719 280.050781 62.0625 272.207031 65.101562 265.980469 C 72.125 266.925781 79 262.710938 84.089844 265.980469 C 83.523438 266.765625 83.195312 267.796875 83.414062 269.367188 C 79.347656 267.015625 80.445312 279.382812 80.023438 284.964844 C 81.121094 282.21875 81.414062 278.664062 81.378906 274.792969 Z M 81.378906 274.792969 "/>
<path style=" stroke:none;fill-rule:evenodd;fill:rgb(0%,0%,0%);fill-opacity:1;" d="M 158.015625 305.3125 C 158.5 299.691406 161.546875 290.765625 162.082031 282.933594 C 162.394531 280.507812 161.375 273.21875 162.761719 274.121094 C 163.277344 286.617188 161.289062 296.609375 158.011719 305.316406 Z M 158.015625 305.3125 "/>
<path style=" stroke:none;fill-rule:evenodd;fill:rgb(46.666667%,66.27451%,75.294118%);fill-opacity:1;" d="M 120.714844 335.144531 C 123.027344 333.574219 124.570312 335.421875 127.5 334.46875 C 124.246094 333.203125 120.417969 333.203125 118.003906 334.46875 C 115.558594 331.839844 118.089844 327.757812 117.324219 322.941406 C 132.621094 322.414062 146.203125 320.167969 159.371094 317.515625 C 159.433594 321.417969 159.519531 325.347656 158.695312 328.363281 C 162.070312 325.953125 158.953125 320.890625 160.730469 317.515625 C 162.925781 318.707031 160.21875 327.75 160.730469 329.722656 C 149.21875 334.542969 136.828125 337.507812 120.71875 335.148438 Z M 147.160156 333.113281 C 143.089844 334.691406 134.929688 332.179688 132.242188 335.144531 C 136.378906 333.628906 144.003906 335.601562 147.164062 333.113281 Z M 153.265625 331.078125 C 155.074219 329.007812 155.585938 321.417969 152.589844 320.226562 C 153.964844 323.117188 152.628906 329.316406 153.265625 331.078125 Z M 153.265625 331.078125 "/>
<path style=" stroke:none;fill-rule:evenodd;fill:rgb(46.666667%,66.27451%,75.294118%);fill-opacity:1;" d="M 98.335938 327.007812 C 97.675781 326.988281 97.808594 326.175781 97.65625 325.652344 C 95.242188 328.890625 94.398438 333.695312 92.910156 337.855469 C 81.832031 338.863281 78.820312 335.992188 69.171875 335.824219 C 69.183594 337.847656 74.199219 334.867188 73.242188 337.855469 C 66.714844 336.261719 66.449219 333.992188 56.964844 333.789062 C 58.304688 334.933594 61.199219 334.527344 63.070312 335.144531 C 60.492188 336.789062 55.867188 334.683594 52.894531 334.46875 C 53.179688 330.777344 52.933594 329.179688 53.574219 327.007812 C 64.539062 327.5625 81.289062 328.199219 93.585938 326.328125 C 93.769531 330.578125 91.425781 332.304688 90.875 335.824219 C 94.632812 335.003906 94.328125 321.003906 98.335938 327.007812 Z M 86.125 335.144531 C 89.128906 335.839844 89.332031 327.425781 88.160156 328.363281 C 88.398438 331.539062 86.695312 332.78125 86.125 335.148438 Z M 86.125 335.144531 "/>
<path style=" stroke:none;fill-rule:evenodd;fill:rgb(46.666667%,66.27451%,75.294118%);fill-opacity:1;" d="M 96.976562 328.363281 C 98.667969 328.328125 95.371094 334.21875 94.941406 336.503906 C 93.613281 334.460938 96.691406 331.042969 96.976562 328.363281 Z M 96.976562 328.363281 "/>
<path style=" stroke:none;fill-rule:evenodd;fill:rgb(100%,100%,100%);fill-opacity:1;" d="M 155.980469 337.179688 C 156.105469 337.757812 155.714844 337.820312 155.300781 337.859375 C 155.175781 338.4375 155.566406 338.5 155.980469 338.535156 C 154.445312 340.394531 148.753906 338.09375 147.164062 339.894531 C 146.722656 338.292969 152.589844 337.195312 155.980469 337.179688 Z M 155.980469 337.179688 "/>
<path style=" stroke:none;fill-rule:evenodd;fill:rgb(0%,0%,0%);fill-opacity:1;" d="M 84.769531 264.621094 C 85.257812 272.03125 81.726562 280.730469 83.414062 289.710938 C 77.59375 290.445312 69.265625 291.515625 60.355469 291.066406 C 57.847656 281.277344 61.320312 271.730469 63.746094 264.621094 C 71.835938 265.746094 78.578125 261.230469 84.769531 264.621094 Z M 80.019531 284.964844 C 80.441406 279.382812 79.347656 267.015625 83.414062 269.371094 C 83.195312 267.796875 83.523438 266.765625 84.089844 265.980469 C 79 262.710938 72.125 266.925781 65.101562 265.980469 C 62.0625 272.207031 60.636719 280.050781 61.03125 289.714844 C 66.386719 290.082031 76.296875 289.78125 82.054688 288.359375 C 80.449219 283.710938 83.011719 278.824219 81.375 274.796875 C 81.410156 278.667969 81.121094 282.222656 80.019531 284.96875 Z M 80.019531 284.964844 "/>
<path style=" stroke:none;fill-rule:evenodd;fill:rgb(100%,0%,0%);fill-opacity:1;" d="M 95.519531 5.398438 C 95.519531 5.398438 97.269531 1.503906 93.941406 1.222656 C 90.613281 0.941406 90.613281 5.003906 90.613281 5.003906 C 90.613281 5.003906 91.457031 5.398438 92.8125 5.566406 C 94.164062 5.734375 95.523438 5.398438 95.523438 5.398438 Z M 95.519531 5.398438 "/>
</g>
</svg>
