<?xml version="1.0" encoding="UTF-8"?>
<svg xmlns="http://www.w3.org/2000/svg" xmlns:xlink="http://www.w3.org/1999/xlink" width="128px" height="128px" viewBox="0 0 128 128" version="1.1">
<g id="surface1">
<path style=" stroke:none;fill-rule:nonzero;fill:rgb(32.941176%,36.862745%,45.098039%);fill-opacity:1;" d="M 113.929688 18.617188 C 112.230469 8.234375 87.925781 0 58.183594 0 C 28.4375 0 4.132812 8.234375 2.433594 18.617188 L 2.328125 18.617188 L 2.328125 104.726562 L 2.433594 104.726562 C 4.132812 115.109375 28.4375 123.34375 58.183594 123.34375 C 87.925781 123.34375 112.230469 115.109375 113.929688 104.726562 L 114.035156 104.726562 L 114.035156 18.617188 Z M 113.929688 18.617188 "/>
<path style=" stroke:none;fill-rule:nonzero;fill:rgb(21.960784%,27.058824%,30.980392%);fill-opacity:1;" d="M 58.183594 95.417969 C 27.332031 95.417969 2.328125 86.5625 2.328125 75.636719 L 2.328125 104.726562 L 2.433594 104.726562 C 4.132812 115.109375 28.4375 123.34375 58.183594 123.34375 C 87.925781 123.34375 112.230469 115.109375 113.929688 104.726562 L 114.035156 104.726562 L 114.035156 75.636719 C 114.035156 86.5625 89.03125 95.417969 58.183594 95.417969 Z M 58.183594 95.417969 "/>
<path style=" stroke:none;fill-rule:nonzero;fill:rgb(21.960784%,27.058824%,30.980392%);fill-opacity:1;" d="M 2.328125 74.472656 L 2.328125 75.636719 C 2.328125 75.246094 2.371094 74.859375 2.433594 74.472656 Z M 2.328125 74.472656 "/>
<path style=" stroke:none;fill-rule:nonzero;fill:rgb(21.960784%,27.058824%,30.980392%);fill-opacity:1;" d="M 113.929688 74.472656 C 113.996094 74.859375 114.035156 75.246094 114.035156 75.636719 L 114.035156 74.472656 Z M 113.929688 74.472656 "/>
<path style=" stroke:none;fill-rule:nonzero;fill:rgb(33.333333%,37.647059%,50.196078%);fill-opacity:1;" d="M 58.183594 67.492188 C 27.332031 67.492188 2.328125 58.632812 2.328125 47.710938 L 2.328125 76.800781 L 2.433594 76.800781 C 4.132812 87.183594 28.4375 95.417969 58.183594 95.417969 C 87.925781 95.417969 112.230469 87.183594 113.929688 76.800781 L 114.035156 76.800781 L 114.035156 47.710938 C 114.035156 58.632812 89.03125 67.492188 58.183594 67.492188 Z M 58.183594 67.492188 "/>
<path style=" stroke:none;fill-rule:nonzero;fill:rgb(33.333333%,37.647059%,50.196078%);fill-opacity:1;" d="M 2.328125 46.546875 L 2.328125 47.710938 C 2.328125 47.316406 2.371094 46.933594 2.433594 46.546875 Z M 2.328125 46.546875 "/>
<path style=" stroke:none;fill-rule:nonzero;fill:rgb(33.333333%,37.647059%,50.196078%);fill-opacity:1;" d="M 113.929688 46.546875 C 113.996094 46.933594 114.035156 47.316406 114.035156 47.710938 L 114.035156 46.546875 Z M 113.929688 46.546875 "/>
<path style=" stroke:none;fill-rule:nonzero;fill:rgb(56.862745%,72.941176%,88.235294%);fill-opacity:1;" d="M 114.035156 19.78125 C 114.035156 8.855469 89.03125 0 58.183594 0 C 27.335938 0 2.328125 8.855469 2.328125 19.78125 C 2.328125 30.707031 27.335938 39.5625 58.183594 39.5625 C 89.03125 39.5625 114.035156 30.707031 114.035156 19.78125 Z M 114.035156 19.78125 "/>
<path style=" stroke:none;fill-rule:nonzero;fill:rgb(52.54902%,59.215686%,79.607843%);fill-opacity:1;" d="M 58.183594 39.5625 C 27.332031 39.5625 2.328125 30.707031 2.328125 19.78125 L 2.328125 48.871094 L 2.433594 48.871094 C 4.132812 59.253906 28.4375 67.492188 58.183594 67.492188 C 87.925781 67.492188 112.230469 59.253906 113.929688 48.871094 L 114.035156 48.871094 L 114.035156 19.78125 C 114.035156 30.707031 89.03125 39.5625 58.183594 39.5625 Z M 58.183594 39.5625 "/>
<path style=" stroke:none;fill-rule:nonzero;fill:rgb(52.54902%,59.215686%,79.607843%);fill-opacity:1;" d="M 2.328125 18.617188 L 2.328125 19.78125 C 2.328125 19.390625 2.371094 19.003906 2.433594 18.617188 Z M 2.328125 18.617188 "/>
<path style=" stroke:none;fill-rule:nonzero;fill:rgb(52.54902%,59.215686%,79.607843%);fill-opacity:1;" d="M 113.929688 18.617188 C 113.996094 19.003906 114.035156 19.390625 114.035156 19.78125 L 114.035156 18.617188 Z M 113.929688 18.617188 "/>
<path style=" stroke:none;fill-rule:nonzero;fill:rgb(56.862745%,72.941176%,88.235294%);fill-opacity:1;" d="M 102.398438 97.746094 L 97.746094 97.746094 C 89.289062 94.363281 83.78125 86.433594 83.78125 77.636719 L 83.78125 69.816406 L 116.363281 69.816406 L 116.363281 77.636719 C 116.363281 86.433594 110.855469 94.363281 102.398438 97.746094 Z M 102.398438 97.746094 "/>
<path style=" stroke:none;fill-rule:nonzero;fill:rgb(56.862745%,72.941176%,88.235294%);fill-opacity:1;" d="M 97.746094 97.746094 L 102.398438 97.746094 C 110.855469 101.128906 116.363281 109.058594 116.363281 117.851562 L 116.363281 125.671875 L 83.78125 125.671875 L 83.78125 117.851562 C 83.78125 109.058594 89.289062 101.128906 97.746094 97.746094 Z M 97.746094 97.746094 "/>
<path style=" stroke:none;fill-rule:nonzero;fill:rgb(81.568627%,90.980392%,97.647059%);fill-opacity:1;" d="M 76.800781 72.144531 L 123.34375 72.144531 C 124.632812 72.144531 125.671875 71.101562 125.671875 69.816406 C 125.671875 68.535156 124.632812 67.492188 123.34375 67.492188 L 76.800781 67.492188 C 75.511719 67.492188 74.472656 68.535156 74.472656 69.816406 C 74.472656 71.101562 75.511719 72.144531 76.800781 72.144531 Z M 76.800781 72.144531 "/>
<path style=" stroke:none;fill-rule:nonzero;fill:rgb(81.568627%,90.980392%,97.647059%);fill-opacity:1;" d="M 123.34375 123.339844 L 81.453125 123.339844 C 81.445312 123.339844 81.4375 123.34375 81.429688 123.34375 L 76.800781 123.34375 C 75.511719 123.34375 74.472656 124.386719 74.472656 125.671875 C 74.472656 126.957031 75.511719 128 76.800781 128 L 83.78125 128 C 83.789062 128 83.796875 127.996094 83.804688 127.996094 L 123.34375 127.996094 C 124.628906 127.996094 125.671875 126.953125 125.671875 125.667969 C 125.671875 124.382812 124.628906 123.339844 123.34375 123.339844 Z M 123.34375 123.339844 "/>
</g>
</svg>
