<?xml version="1.0" encoding="UTF-8"?>
<!DOCTYPE svg PUBLIC "-//W3C//DTD SVG 1.1//EN" "http://www.w3.org/Graphics/SVG/1.1/DTD/svg11.dtd">
<svg version="1.1" xmlns="http://www.w3.org/2000/svg" xmlns:xlink="http://www.w3.org/1999/xlink" x="0" y="0" width="190" height="378" viewBox="0, 0, 190, 378">
  <defs>
    <clipPath id="Clip_1">
      <path d="M0.06,0.872 L189.5,0.872 L189.5,377.94 L0.06,377.94 z"/>
    </clipPath>
    <clipPath id="Clip_2">
      <path d="M0.06,0.872 L189.5,0.872 L189.5,377.94 L0.06,377.94 z"/>
    </clipPath>
    <clipPath id="Clip_3">
      <path d="M0.06,0.872 L189.5,0.872 L189.5,377.94 L0.06,377.94 z"/>
    </clipPath>
  </defs>
  <g id="Layer_1">
    <g clip-path="url(#Clip_1)">
      <path d="M63.766,356.533 C63.766,356.533 63.766,345.471 63.766,331.402 C65.813,331.842 67.932,332.098 70.109,332.098 C73.363,332.098 76.477,331.56 79.377,330.617 L79.309,358.424 C79.309,358.424 85.558,368.217 82.151,372.43 C78.751,376.637 52.837,379.125 49.475,375.762 C46.089,372.43 45.086,364.226 63.766,356.533" fill="#1A1919"/>
      <path d="M63.766,356.533 L64.438,356.533 C64.438,356.533 64.438,345.471 64.438,331.402 L63.766,331.402 L63.625,332.06 C65.713,332.508 67.879,332.77 70.109,332.77 C73.437,332.77 76.621,332.22 79.584,331.256 L79.377,330.617 L78.704,330.615 L78.636,358.422 C78.636,358.55 78.673,358.678 78.742,358.785 L78.781,358.848 C78.982,359.171 79.923,360.716 80.804,362.699 C81.689,364.677 82.501,367.105 82.495,369.106 C82.494,370.273 82.232,371.262 81.629,372.007 C81.224,372.531 80.082,373.197 78.492,373.761 C73.706,375.496 64.969,376.661 58.336,376.656 C56.21,376.657 54.297,376.538 52.811,376.291 C52.069,376.169 51.435,376.013 50.944,375.835 C50.453,375.659 50.112,375.453 49.951,375.286 L49.947,375.282 C48.954,374.304 48.195,372.873 48.195,371.143 C48.197,369.353 49.001,367.175 51.397,364.757 C53.791,362.343 57.777,359.725 64.022,357.155 C64.273,357.051 64.438,356.805 64.438,356.533 L63.766,356.533 L63.51,355.911 C57.157,358.529 53.021,361.215 50.443,363.809 C47.868,366.398 46.849,368.932 46.85,371.143 C46.851,373.278 47.791,375.049 49.004,376.241 L49,376.237 C49.383,376.617 49.886,376.879 50.486,377.099 C52.28,377.743 55.066,377.996 58.336,378.001 C62.863,378 68.27,377.483 72.865,376.605 C75.164,376.165 77.257,375.636 78.948,375.026 C80.64,374.405 81.93,373.749 82.674,372.852 C83.53,371.792 83.841,370.465 83.84,369.106 C83.833,366.606 82.83,363.883 81.849,361.745 C80.864,359.612 79.886,358.079 79.875,358.062 L79.309,358.424 L79.981,358.425 L80.049,330.619 C80.049,330.403 79.947,330.201 79.772,330.074 C79.598,329.947 79.374,329.911 79.169,329.978 C76.332,330.901 73.289,331.425 70.109,331.425 C67.984,331.425 65.913,331.176 63.907,330.745 C63.707,330.702 63.502,330.751 63.343,330.879 C63.184,331.008 63.093,331.198 63.093,331.402 C63.093,345.471 63.093,356.533 63.093,356.533 L63.766,356.533 L63.51,355.911 L63.766,356.533" fill="#5F4E33"/>
      <path d="M103.063,356.533 C103.063,356.533 103.063,345.471 103.063,331.402 C101.012,331.842 98.897,332.098 96.714,332.098 C93.473,332.098 90.354,331.56 87.448,330.617 L87.516,358.424 C87.516,358.424 81.279,368.217 84.673,372.43 C88.086,376.637 113.997,379.125 117.372,375.762 C120.745,372.43 121.743,364.226 103.063,356.533" fill="#1A1919"/>
      <path d="M103.063,356.533 L103.735,356.533 C103.735,356.533 103.735,345.471 103.735,331.402 C103.735,331.198 103.644,331.008 103.486,330.879 C103.327,330.751 103.122,330.702 102.922,330.745 C100.912,331.176 98.844,331.425 96.714,331.425 C93.548,331.425 90.498,330.901 87.656,329.978 C87.451,329.911 87.227,329.947 87.052,330.074 C86.878,330.201 86.775,330.403 86.776,330.619 L86.844,358.425 L87.516,358.424 L86.949,358.063 C86.939,358.079 85.962,359.613 84.978,361.748 C83.998,363.886 82.996,366.61 82.99,369.111 C82.989,370.468 83.298,371.793 84.15,372.851 L84.151,372.853 C84.897,373.749 86.189,374.406 87.881,375.026 C92.946,376.847 101.705,377.996 108.502,378.001 C110.68,378 112.652,377.882 114.25,377.618 C115.05,377.485 115.756,377.317 116.358,377.099 C116.959,376.879 117.461,376.617 117.846,376.238 L117.844,376.24 C119.05,375.05 119.986,373.282 119.986,371.152 C119.988,368.94 118.969,366.406 116.393,363.815 C113.814,361.219 109.677,358.531 103.319,355.911 L103.063,356.533 L103.735,356.533 L103.063,356.533 L102.807,357.155 C109.056,359.727 113.044,362.347 115.439,364.762 C117.836,367.182 118.64,369.362 118.641,371.152 C118.642,372.878 117.886,374.307 116.899,375.283 L116.897,375.285 C116.734,375.452 116.392,375.659 115.9,375.835 C114.417,376.379 111.687,376.661 108.502,376.656 C104.075,376.657 98.722,376.145 94.22,375.284 C91.969,374.854 89.93,374.336 88.338,373.761 C86.746,373.197 85.602,372.531 85.195,372.006 L85.197,372.008 C84.597,371.264 84.335,370.276 84.334,369.111 C84.327,366.975 85.252,364.356 86.2,362.31 C86.672,361.285 87.145,360.399 87.499,359.772 C87.676,359.459 87.824,359.21 87.926,359.04 L88.044,358.848 L88.083,358.785 C88.152,358.677 88.189,358.55 88.188,358.422 L88.12,330.615 L87.448,330.617 L87.241,331.257 C90.209,332.22 93.399,332.77 96.714,332.77 C98.95,332.77 101.113,332.508 103.204,332.06 L103.063,331.402 L102.391,331.402 C102.391,345.471 102.391,356.533 102.391,356.533 C102.391,356.805 102.556,357.051 102.807,357.155 L103.063,356.533" fill="#5F4E33"/>
    </g>
    <path d="M83.537,212.627 L57.752,210.834 L57.619,358.156 C57.619,358.156 73.692,361.466 80.428,357.721 L83.538,237.697 L86.661,357.721 C96.82,361.804 109.48,358.156 109.48,358.156 L109.331,210.834 L83.537,212.627" fill="#4D4E4C"/>
    <path d="M83.537,212.627 L83.583,211.956 L57.799,210.163 C57.612,210.15 57.431,210.214 57.294,210.342 C57.157,210.47 57.08,210.646 57.08,210.833 L56.947,358.156 C56.947,358.474 57.172,358.75 57.484,358.815 C57.508,358.818 64.086,360.177 70.667,360.178 C74.395,360.171 78.123,359.76 80.755,358.308 C80.963,358.193 81.094,357.976 81.1,357.738 L84.21,237.715 L83.538,237.697 L82.866,237.715 L85.989,357.738 C85.996,358.006 86.162,358.245 86.41,358.344 C90.167,359.853 94.216,360.327 97.863,360.328 C104.379,360.326 109.63,358.811 109.666,358.802 C109.955,358.719 110.153,358.456 110.152,358.155 L110.003,210.833 C110.003,210.646 109.926,210.47 109.789,210.342 C109.652,210.214 109.471,210.15 109.284,210.163 L83.49,211.956 L83.537,212.627 L83.583,211.956 L83.537,212.627 L83.583,213.298 L109.377,211.505 L109.331,210.834 L108.658,210.835 L108.808,358.157 L109.48,358.156 L109.294,357.51 C109.294,357.51 109.222,357.531 109.072,357.571 C108.023,357.849 103.383,358.984 97.863,358.983 C94.332,358.984 90.446,358.518 86.912,357.097 L86.661,357.721 L87.333,357.703 L84.21,237.68 C84.201,237.315 83.903,237.025 83.538,237.025 C83.173,237.025 82.876,237.315 82.866,237.68 L79.756,357.703 L80.428,357.721 L80.102,357.133 C77.865,358.388 74.286,358.841 70.667,358.834 C67.467,358.834 64.23,358.5 61.8,358.165 C60.585,357.998 59.571,357.83 58.862,357.705 C58.507,357.642 58.229,357.59 58.04,357.554 C57.852,357.518 57.755,357.498 57.755,357.498 L57.619,358.156 L58.291,358.157 L58.425,210.835 L57.752,210.834 L57.706,211.505 L83.49,213.298 L83.583,213.298 L83.537,212.627" fill="#5F4E33"/>
    <path d="M109.228,217.23 C90.824,218.969 76.258,218.969 57.854,217.23 L57.812,209.736 C75.738,211.432 91.911,211.32 109.836,209.625 L109.228,217.23" fill="#1A1919"/>
    <path d="M109.228,217.23 L109.165,216.561 C99.979,217.429 91.76,217.862 83.541,217.862 C75.323,217.862 67.103,217.429 57.918,216.561 L57.854,217.23 L58.527,217.227 L58.485,209.732 L57.812,209.736 L57.749,210.406 C66.437,211.227 74.718,211.626 82.985,211.626 C91.813,211.626 100.625,211.171 109.9,210.294 L109.836,209.625 L109.166,209.571 L108.558,217.177 L109.228,217.23 L109.165,216.561 L109.228,217.23 L109.898,217.284 L110.507,209.679 C110.522,209.48 110.45,209.286 110.308,209.146 C110.166,209.006 109.972,208.937 109.773,208.956 C100.534,209.829 91.767,210.281 82.985,210.281 C74.762,210.281 66.525,209.885 57.876,209.067 C57.687,209.049 57.499,209.112 57.359,209.24 C57.219,209.368 57.139,209.55 57.14,209.74 L57.182,217.234 C57.184,217.579 57.448,217.867 57.791,217.9 C67.009,218.77 75.275,219.206 83.541,219.206 C91.807,219.206 100.073,218.77 109.291,217.9 C109.616,217.869 109.872,217.61 109.898,217.284 L109.228,217.23" fill="#5F4E33"/>
    <path d="M79.598,209.791 L88.36,209.791 L88.36,219.527 L79.598,219.527 z" fill="#1A1919"/>
    <path d="M88.36,219.527 L88.36,218.855 L79.598,218.855 L79.598,219.527 L80.27,219.527 L80.27,209.791 L79.598,209.791 L79.598,210.463 L88.36,210.463 L88.36,209.791 L87.688,209.791 L87.688,219.527 L88.36,219.527 L88.36,218.855 L88.36,219.527 L89.032,219.527 L89.032,209.791 C89.032,209.42 88.731,209.119 88.36,209.119 L79.598,209.119 C79.226,209.119 78.925,209.42 78.925,209.791 L78.925,219.527 C78.925,219.899 79.226,220.2 79.598,220.2 L88.36,220.2 C88.731,220.2 89.032,219.899 89.032,219.527 L88.36,219.527" fill="#5F4E33"/>
    <path d="M82.128,212.601 L85.83,212.601 L85.83,216.715 L82.128,216.715 z" fill="#1A1919"/>
    <path d="M85.83,216.715 L85.83,216.043 L82.128,216.043 L82.128,216.715 L82.8,216.715 L82.8,212.601 L82.128,212.601 L82.128,213.274 L85.83,213.274 L85.83,212.601 L85.157,212.601 L85.157,216.715 L85.83,216.715 L85.83,216.043 L85.83,216.715 L86.502,216.715 L86.502,212.601 C86.502,212.23 86.201,211.929 85.83,211.929 L82.128,211.929 C81.757,211.929 81.456,212.23 81.456,212.601 L81.456,216.715 C81.456,217.086 81.757,217.387 82.128,217.387 L85.83,217.387 C86.201,217.387 86.502,217.086 86.502,216.715 L85.83,216.715" fill="#5F4E33"/>
    <path d="M106.127,209.953 L109.228,209.953 L109.228,219.137 L106.127,219.137 z" fill="#161A2A"/>
    <path d="M109.228,219.137 L109.228,218.464 L106.127,218.464 L106.127,219.137 L106.8,219.137 L106.8,209.953 L106.127,209.953 L106.127,210.625 L109.228,210.625 L109.228,209.953 L108.556,209.953 L108.556,219.137 L109.228,219.137 L109.228,218.464 L109.228,219.137 L109.9,219.137 L109.9,209.953 C109.9,209.582 109.599,209.281 109.228,209.281 L106.127,209.281 C105.756,209.281 105.455,209.582 105.455,209.953 L105.455,219.137 C105.455,219.508 105.756,219.809 106.127,219.809 L109.228,219.809 C109.599,219.809 109.9,219.508 109.9,219.137 L109.228,219.137" fill="#5F4E33"/>
    <path d="M57.642,209.953 L60.743,209.953 L60.743,219.137 L57.642,219.137 z" fill="#161A2A"/>
    <path d="M60.743,219.137 L60.743,218.464 L57.642,218.464 L57.642,219.137 L58.314,219.137 L58.314,209.953 L57.642,209.953 L57.642,210.625 L60.743,210.625 L60.743,209.953 L60.07,209.953 L60.07,219.137 L60.743,219.137 L60.743,218.464 L60.743,219.137 L61.415,219.137 L61.415,209.953 C61.415,209.582 61.114,209.281 60.743,209.281 L57.642,209.281 C57.27,209.281 56.969,209.582 56.969,209.953 L56.969,219.137 C56.969,219.508 57.27,219.809 57.642,219.809 L60.743,219.809 C61.114,219.809 61.415,219.508 61.415,219.137 L60.743,219.137" fill="#5F4E33"/>
    <g clip-path="url(#Clip_2)">
      <path d="M121.25,191.051 C123.355,193.135 160.787,197.56 160.787,197.56 C162.384,201.828 170.623,202.945 170.623,202.945 C170.623,202.945 178.124,210.051 179.663,208.281 C181.007,206.721 173.198,200.49 173.198,200.49 C173.198,200.49 183.819,207.971 184.766,205.049 C185.431,203 174.409,197.195 174.409,197.195 C174.409,197.195 187.175,202.473 188.056,199.121 C188.662,196.81 175.636,193.832 175.636,193.832 C175.636,193.832 188.713,195.223 188.829,192.088 C188.921,189.694 175.092,189.667 175.092,189.667 L173.575,188.924 C173.575,188.924 181.028,184.522 179.776,182.64 C178.383,180.537 171.425,185.001 171.425,185.001 L163.153,188.103 C163.153,188.103 133.301,181.226 131.738,179.591 C130.176,177.957 130.102,170.513 123.818,150.618 L108.632,153.092 C108.632,153.092 119.144,188.969 121.25,191.051" fill="#F7CEAA"/>
      <path d="M121.25,191.051 L120.777,191.528 C121.062,191.796 121.375,191.927 121.803,192.096 C122.598,192.394 123.766,192.697 125.241,193.019 C130.393,194.138 139.243,195.436 146.826,196.46 C154.406,197.483 160.705,198.228 160.708,198.228 L160.787,197.56 L160.157,197.796 C160.623,199.035 161.544,199.997 162.609,200.751 C164.213,201.882 166.178,202.58 167.753,203.015 C169.328,203.448 170.512,203.608 170.532,203.611 L170.623,202.945 L170.16,203.433 C170.169,203.441 171.662,204.856 173.472,206.283 C174.378,206.997 175.362,207.714 176.297,208.265 C176.765,208.541 177.22,208.776 177.659,208.949 C178.099,209.119 178.52,209.234 178.95,209.236 C179.164,209.236 179.384,209.206 179.597,209.123 C179.81,209.042 180.013,208.904 180.17,208.722 L180.172,208.72 C180.396,208.464 180.494,208.125 180.49,207.827 C180.486,207.389 180.334,207.003 180.128,206.607 C179.76,205.919 179.179,205.195 178.505,204.456 C176.49,202.253 173.63,199.977 173.617,199.965 L173.198,200.49 L172.811,201.04 C172.82,201.046 174.689,202.363 176.948,203.688 C178.078,204.351 179.305,205.016 180.458,205.523 C181.618,206.027 182.681,206.39 183.616,206.398 C183.982,206.397 184.345,206.339 184.68,206.153 C185.016,205.971 185.288,205.637 185.406,205.256 C185.448,205.125 185.467,204.989 185.467,204.859 C185.455,204.315 185.197,203.901 184.876,203.483 C184.301,202.761 183.402,202.014 182.353,201.247 C179.214,198.963 174.736,196.609 174.722,196.6 L174.409,197.195 L174.152,197.817 C174.162,197.821 176.013,198.586 178.369,199.354 C180.732,200.121 183.568,200.901 185.693,200.908 C186.372,200.906 186.989,200.831 187.531,200.597 C188.069,200.375 188.551,199.915 188.706,199.292 C188.735,199.184 188.749,199.072 188.749,198.963 C188.749,198.664 188.646,198.395 188.508,198.173 C188.242,197.756 187.854,197.442 187.382,197.132 C186.554,196.597 185.438,196.104 184.205,195.64 C180.517,194.256 175.801,193.181 175.786,193.177 L175.636,193.832 L175.565,194.5 C175.579,194.502 178.483,194.811 181.601,194.812 C183.361,194.81 185.183,194.716 186.638,194.393 C187.368,194.228 188.009,194.012 188.531,193.67 C188.791,193.499 189.024,193.291 189.201,193.027 C189.378,192.766 189.49,192.445 189.5,192.113 L189.501,192.064 C189.503,191.75 189.378,191.454 189.207,191.236 C188.88,190.825 188.434,190.59 187.905,190.375 C186.979,190.011 185.748,189.763 184.386,189.571 C180.314,189.003 175.109,188.996 175.094,188.995 L175.092,189.667 L175.388,189.063 L173.87,188.32 L173.575,188.924 L173.917,189.503 C173.929,189.495 175.529,188.551 177.15,187.331 C177.962,186.719 178.779,186.041 179.419,185.352 C179.739,185.007 180.016,184.659 180.227,184.297 C180.434,183.935 180.587,183.552 180.59,183.119 C180.592,182.831 180.508,182.524 180.336,182.267 C180.127,181.949 179.818,181.716 179.49,181.585 C179.16,181.452 178.813,181.405 178.46,181.404 C177.71,181.407 176.909,181.613 176.092,181.9 C173.657,182.764 171.085,184.423 171.062,184.435 L171.425,185.001 L171.189,184.371 L162.917,187.474 L163.153,188.103 L163.304,187.448 C163.302,187.448 162.839,187.341 162.02,187.15 C159.155,186.481 151.968,184.786 145.332,183.081 C142.015,182.229 138.835,181.373 136.409,180.645 C135.197,180.282 134.173,179.949 133.425,179.67 C133.052,179.53 132.747,179.404 132.532,179.299 C132.424,179.247 132.339,179.201 132.284,179.166 L132.226,179.126 L132.217,179.119 L132.144,179.202 L132.224,179.126 L132.217,179.119 L132.144,179.202 L132.224,179.126 C131.997,178.911 131.683,178.211 131.376,177.002 C130.899,175.187 130.346,172.263 129.328,167.943 C128.309,163.62 126.821,157.893 124.459,150.416 C124.358,150.096 124.04,149.901 123.71,149.955 L108.524,152.428 C108.335,152.459 108.166,152.571 108.064,152.733 C107.961,152.896 107.933,153.096 107.987,153.281 C107.988,153.283 110.616,162.255 113.51,171.491 C114.957,176.11 116.469,180.795 117.755,184.464 C118.399,186.299 118.985,187.879 119.482,189.079 C119.731,189.68 119.957,190.185 120.162,190.587 C120.374,190.993 120.537,191.282 120.777,191.529 L121.25,191.051 L121.722,190.573 C121.699,190.559 121.533,190.324 121.36,189.975 C120.676,188.642 119.549,185.604 118.283,181.868 C116.379,176.254 114.126,169.009 112.351,163.172 C111.463,160.253 110.695,157.685 110.148,155.847 C109.602,154.01 109.278,152.906 109.277,152.903 L108.632,153.092 L108.74,153.755 L123.926,151.282 L123.818,150.618 L123.177,150.821 C126.312,160.747 127.895,167.554 128.892,172.096 C129.391,174.369 129.743,176.074 130.075,177.343 C130.417,178.61 130.697,179.453 131.252,180.055 C131.49,180.29 131.729,180.404 132.067,180.566 C132.69,180.852 133.612,181.179 134.78,181.55 C142.922,184.134 162.991,188.755 163.002,188.759 C163.13,188.788 163.266,188.779 163.389,188.733 L171.661,185.63 L171.788,185.567 C171.788,185.567 171.853,185.525 171.979,185.447 C172.419,185.175 173.57,184.486 174.859,183.873 C175.503,183.567 176.181,183.28 176.813,183.074 C177.444,182.867 178.033,182.747 178.46,182.749 C178.69,182.748 178.868,182.783 178.984,182.831 C179.101,182.881 179.159,182.93 179.215,183.011 L179.245,183.119 C179.248,183.201 179.203,183.386 179.063,183.623 C178.825,184.04 178.333,184.584 177.735,185.12 C176.836,185.929 175.703,186.744 174.801,187.347 C174.35,187.65 173.956,187.9 173.676,188.075 C173.536,188.162 173.424,188.23 173.348,188.276 L173.233,188.345 C173.02,188.47 172.893,188.704 172.903,188.95 C172.913,189.196 173.058,189.419 173.279,189.528 L174.797,190.271 C174.888,190.316 174.989,190.339 175.091,190.339 C175.092,190.339 175.3,190.34 175.673,190.345 C176.975,190.363 180.25,190.443 183.166,190.773 C184.622,190.936 185.993,191.166 186.946,191.463 C187.42,191.608 187.789,191.776 187.985,191.917 C188.084,191.986 188.136,192.045 188.152,192.07 L188.16,192.083 L188.218,192.064 L188.157,192.064 L188.16,192.083 L188.218,192.064 L188.157,192.064 L188.2,192.064 L188.157,192.062 L188.157,192.064 L188.2,192.064 L188.157,192.062 L188.084,192.278 C188,192.412 187.764,192.603 187.371,192.767 C186.785,193.018 185.893,193.204 184.879,193.314 C183.863,193.425 182.722,193.467 181.601,193.467 C180.086,193.467 178.608,193.391 177.512,193.315 C176.964,193.277 176.511,193.239 176.196,193.21 C175.881,193.182 175.708,193.163 175.707,193.163 C175.354,193.126 175.032,193.371 174.973,193.721 C174.915,194.071 175.14,194.408 175.486,194.487 C175.487,194.487 175.676,194.531 176.013,194.612 C177.192,194.897 180.156,195.646 182.796,196.562 C184.115,197.018 185.355,197.52 186.224,198.005 C186.658,198.245 186.997,198.485 187.193,198.678 C187.291,198.773 187.352,198.856 187.38,198.907 L187.403,198.959 L187.404,198.966 L187.425,198.963 L187.404,198.963 L187.404,198.966 L187.425,198.963 L187.404,198.963 L187.451,198.963 L187.406,198.951 L187.404,198.963 L187.451,198.963 L187.406,198.951 C187.349,199.135 187.273,199.232 186.995,199.365 C186.721,199.487 186.262,199.565 185.693,199.563 C183.888,199.57 181.082,198.83 178.786,198.076 C177.634,197.7 176.601,197.324 175.858,197.042 C175.486,196.901 175.187,196.783 174.981,196.701 C174.775,196.619 174.666,196.574 174.665,196.574 C174.334,196.437 173.952,196.585 173.8,196.91 C173.648,197.235 173.778,197.623 174.095,197.79 C174.096,197.79 174.253,197.873 174.535,198.026 C175.519,198.559 177.993,199.929 180.199,201.391 C181.301,202.121 182.338,202.876 183.071,203.539 C183.437,203.87 183.726,204.178 183.904,204.426 C184.088,204.673 184.13,204.854 184.123,204.859 L184.182,204.859 L184.127,204.841 L184.123,204.859 L184.182,204.859 L184.127,204.841 C184.089,204.938 184.078,204.943 184.022,204.98 C183.966,205.013 183.832,205.054 183.616,205.054 C183.058,205.062 182.072,204.77 180.999,204.292 C179.379,203.581 177.513,202.488 176.065,201.578 C175.34,201.122 174.718,200.712 174.279,200.416 C173.839,200.12 173.586,199.941 173.585,199.941 C173.288,199.731 172.878,199.796 172.66,200.087 C172.442,200.377 172.495,200.789 172.779,201.016 C172.779,201.016 172.878,201.095 173.056,201.241 C173.68,201.752 175.253,203.071 176.651,204.465 C177.349,205.162 178.004,205.879 178.466,206.504 C178.697,206.816 178.879,207.105 178.993,207.342 C179.11,207.578 179.149,207.761 179.146,207.827 L179.143,207.859 L179.192,207.876 L179.153,207.842 L179.143,207.859 L179.192,207.876 L179.153,207.842 L179.155,207.84 L179.112,207.869 L178.95,207.892 C178.782,207.894 178.494,207.834 178.15,207.697 C176.929,207.225 175.111,205.903 173.662,204.711 C172.933,204.114 172.287,203.549 171.824,203.134 C171.592,202.926 171.407,202.756 171.279,202.639 C171.152,202.521 171.085,202.457 171.085,202.457 C170.983,202.36 170.852,202.298 170.713,202.279 L170.631,202.267 C170.204,202.203 168.179,201.864 166.121,201.067 C165.092,200.67 164.057,200.158 163.215,199.529 C162.369,198.899 161.729,198.164 161.416,197.325 C161.328,197.09 161.115,196.922 160.866,196.893 C160.864,196.893 160.282,196.824 159.255,196.699 C155.662,196.262 146.645,195.139 138.304,193.899 C134.134,193.279 130.132,192.63 127.071,192.024 C125.542,191.722 124.246,191.43 123.295,191.162 C122.82,191.029 122.43,190.902 122.151,190.789 C122.012,190.733 121.901,190.681 121.826,190.639 L121.742,190.587 L121.723,190.574 L121.721,190.571 L121.688,190.607 L121.722,190.573 L121.721,190.571 L121.688,190.607 L121.722,190.573 L121.25,191.051" fill="#5F4E33"/>
    </g>
    <path d="M40.558,174.459 L47.109,162.642 L34.145,154.55 L32.232,158.347 L19.687,132.071 C19.316,131.168 20.796,129.33 21.204,128.623 C23.492,124.68 23.824,118.973 20.943,115.249 C20.027,114.065 17.565,110.701 14.146,111.189 C13.824,110.538 10.732,103.457 9.292,100.684 C8.403,98.971 8.561,99.344 7.669,97.633 C6.874,96.102 4.683,94.594 3.16,95.385 C1.633,96.176 2.236,98.703 3.032,100.237 L9.977,113.545 C10.18,113.937 10.456,114.267 10.779,114.531 L1.671,124.177 C1.671,124.177 3.773,131.569 9.508,135.691 L24.914,178.667 C24.914,178.667 27.748,184.377 34.462,181.318 C37.142,180.099 39.262,176.72 40.174,175.092 L40.558,174.459" fill="#F7CEAA"/>
    <path d="M40.558,174.459 L41.147,174.786 L47.699,162.969 C47.872,162.655 47.77,162.259 47.466,162.069 L34.502,153.978 C34.341,153.877 34.146,153.849 33.963,153.9 C33.78,153.952 33.628,154.076 33.543,154.246 L31.63,158.043 L32.232,158.347 L32.841,158.056 L20.296,131.781 L19.687,132.071 L20.311,131.815 L20.302,131.743 C20.3,131.643 20.345,131.435 20.446,131.195 C20.596,130.831 20.854,130.395 21.112,129.999 C21.371,129.598 21.621,129.246 21.788,128.96 L21.787,128.962 C23.002,126.865 23.685,124.328 23.686,121.804 C23.686,119.317 23.017,116.829 21.477,114.836 C21.053,114.29 20.258,113.216 19.149,112.268 C18.043,111.323 16.583,110.47 14.819,110.467 C14.567,110.467 14.311,110.485 14.05,110.522 L14.146,111.189 L14.75,110.891 C14.685,110.76 14.425,110.182 14.07,109.388 C12.995,106.988 10.99,102.491 9.891,100.373 C8.994,98.646 9.151,99.017 8.267,97.321 L8.268,97.322 C7.883,96.587 7.271,95.909 6.546,95.387 C5.821,94.87 4.977,94.497 4.086,94.493 C3.67,94.492 3.243,94.581 2.849,94.786 L2.85,94.786 C2.371,95.031 2.019,95.429 1.818,95.87 C1.614,96.312 1.542,96.788 1.542,97.264 C1.548,98.422 1.959,99.624 2.433,100.548 L2.434,100.549 L9.379,113.857 L9.378,113.855 C9.625,114.332 9.962,114.734 10.352,115.053 L10.779,114.531 L10.289,114.068 L1.181,123.714 C1.017,123.887 0.957,124.131 1.023,124.361 C1.032,124.392 1.569,126.28 2.842,128.702 C4.116,131.123 6.124,134.087 9.115,136.239 L9.508,135.691 L8.873,135.919 L24.279,178.894 L24.31,178.967 C24.333,179.012 24.807,179.964 25.839,180.935 C26.865,181.903 28.491,182.896 30.717,182.894 C31.905,182.894 33.25,182.612 34.742,181.932 C36.233,181.249 37.486,180.029 38.504,178.784 C39.519,177.538 40.294,176.257 40.763,175.422 L40.174,175.092 L40.751,175.441 L41.134,174.808 L41.147,174.786 L40.558,174.459 L39.981,174.109 L39.597,174.742 L39.586,174.762 C39.142,175.555 38.401,176.777 37.458,177.932 C36.519,179.089 35.371,180.168 34.183,180.704 C32.838,181.317 31.692,181.544 30.717,181.545 C28.902,181.543 27.627,180.759 26.762,179.951 C26.333,179.548 26.015,179.142 25.808,178.84 C25.705,178.69 25.63,178.566 25.581,178.482 L25.529,178.389 L25.518,178.368 L25.517,178.365 L25.271,178.489 L25.518,178.367 L25.517,178.365 L25.271,178.489 L25.518,178.367 L24.914,178.667 L25.549,178.439 L10.143,135.464 C10.097,135.334 10.014,135.224 9.902,135.144 C7.158,133.174 5.247,130.381 4.036,128.074 C3.43,126.922 2.999,125.894 2.72,125.157 C2.581,124.789 2.48,124.494 2.414,124.293 C2.381,124.192 2.357,124.115 2.342,124.064 L2.32,123.992 L1.671,124.177 L2.162,124.64 L11.27,114.994 C11.399,114.858 11.464,114.675 11.452,114.488 C11.44,114.3 11.352,114.128 11.206,114.009 C10.949,113.799 10.735,113.543 10.575,113.234 L10.575,113.233 L3.63,99.925 L3.63,99.927 C3.231,99.166 2.885,98.084 2.891,97.264 C2.89,96.927 2.946,96.642 3.042,96.437 C3.141,96.23 3.261,96.095 3.47,95.984 L3.471,95.983 C3.656,95.888 3.856,95.842 4.086,95.842 C4.573,95.837 5.2,96.077 5.76,96.483 C6.321,96.883 6.811,97.438 7.07,97.944 L7.071,97.944 C7.97,99.67 7.812,99.295 8.694,100.994 C9.399,102.352 10.533,104.816 11.524,107.01 C12.02,108.108 12.481,109.14 12.839,109.939 C13.198,110.742 13.445,111.293 13.541,111.488 C13.669,111.749 13.952,111.898 14.241,111.857 C14.438,111.829 14.63,111.816 14.819,111.816 C16.124,111.813 17.299,112.461 18.273,113.294 C19.246,114.124 19.979,115.103 20.41,115.662 C21.73,117.367 22.338,119.554 22.338,121.804 C22.339,124.083 21.71,126.41 20.62,128.284 L20.619,128.286 C20.476,128.539 20.068,129.102 19.701,129.71 C19.517,130.018 19.339,130.344 19.2,130.679 C19.063,131.016 18.956,131.36 18.953,131.743 C18.953,131.931 18.982,132.131 19.063,132.327 L19.078,132.362 L31.624,158.637 C31.735,158.87 31.967,159.018 32.225,159.021 C32.483,159.024 32.719,158.88 32.835,158.65 L34.747,154.853 L34.145,154.55 L33.788,155.122 L46.752,163.214 L47.109,162.642 L46.519,162.315 L39.968,174.132 L40.558,174.459 L39.981,174.109 L40.558,174.459" fill="#5F4E33"/>
    <g clip-path="url(#Clip_3)">
      <path d="M2.559,125.45 C3.771,126.555 5.391,126.77 6.16,125.928 C6.929,125.085 6.567,123.491 5.355,122.386 L4.68,121.769 C3.468,120.664 1.847,120.449 1.078,121.291 C0.309,122.133 0.671,123.727 1.883,124.832 L2.559,125.45" fill="#F7CEAA"/>
      <path d="M2.559,125.45 L2.104,125.948 C2.93,126.697 3.919,127.112 4.865,127.117 C5.523,127.119 6.19,126.896 6.658,126.382 C7.062,125.941 7.241,125.365 7.238,124.799 C7.231,123.769 6.708,122.713 5.809,121.887 L5.81,121.887 L5.134,121.271 C4.308,120.522 3.319,120.107 2.373,120.102 C1.715,120.1 1.048,120.323 0.58,120.836 C0.176,121.277 -0.002,121.853 0,122.419 C0.007,123.449 0.53,124.505 1.428,125.331 L2.104,125.948 L2.559,125.45 L3.014,124.951 L2.337,124.334 C1.674,123.736 1.342,122.961 1.349,122.419 C1.351,122.117 1.433,121.904 1.576,121.746 C1.741,121.566 1.996,121.454 2.373,121.451 C2.905,121.447 3.625,121.716 4.225,122.268 L4.9,122.884 C5.564,123.482 5.897,124.257 5.89,124.799 C5.888,125.101 5.805,125.315 5.662,125.473 C5.497,125.653 5.242,125.765 4.865,125.768 C4.333,125.772 3.613,125.503 3.014,124.951 L2.559,125.45" fill="#5F4E33"/>
    </g>
    <path d="M4.538,121.691 C5.855,122.893 7.584,123.164 8.379,122.292 C9.174,121.42 8.747,119.724 7.429,118.521 L6.022,117.239 C4.705,116.036 2.976,115.766 2.18,116.637 C1.385,117.509 1.812,119.205 3.13,120.408 L4.538,121.691" fill="#F7CEAA"/>
    <path d="M4.538,121.691 L4.083,122.189 C4.99,123.011 6.063,123.472 7.079,123.478 C7.739,123.481 8.409,123.261 8.878,122.747 L8.878,122.746 C9.28,122.306 9.456,121.731 9.454,121.165 C9.445,120.066 8.865,118.927 7.883,118.023 L6.477,116.74 L6.477,116.741 C5.57,115.918 4.496,115.457 3.481,115.451 C2.82,115.449 2.15,115.668 1.682,116.183 C1.279,116.623 1.104,117.198 1.106,117.764 C1.115,118.863 1.694,120.002 2.676,120.906 L4.083,122.189 L4.538,121.691 L4.992,121.192 L3.585,119.909 C2.83,119.228 2.446,118.353 2.455,117.764 C2.457,117.457 2.539,117.246 2.678,117.092 C2.84,116.916 3.093,116.803 3.481,116.8 C4.065,116.795 4.883,117.106 5.568,117.737 L6.974,119.019 C7.73,119.7 8.114,120.576 8.105,121.165 C8.103,121.473 8.02,121.683 7.881,121.837 C7.72,122.014 7.466,122.126 7.079,122.129 C6.495,122.134 5.677,121.823 4.992,121.193 L4.992,121.192 L4.538,121.691" fill="#5F4E33"/>
    <path d="M7.49,118.281 C8.948,119.611 10.945,119.817 11.928,118.739 C12.911,117.661 12.523,115.691 11.065,114.362 L9.51,112.943 C8.052,111.613 6.056,111.407 5.072,112.484 C4.089,113.562 4.477,115.531 5.935,116.861 L7.49,118.281" fill="#F7CEAA"/>
    <path d="M7.49,118.281 L7.036,118.779 C7.98,119.638 9.125,120.102 10.214,120.105 C11.037,120.107 11.854,119.823 12.427,119.194 C12.923,118.651 13.148,117.944 13.146,117.236 C13.141,116.047 12.555,114.813 11.52,113.863 L9.965,112.445 L9.965,112.444 C9.02,111.586 7.875,111.122 6.785,111.119 C5.964,111.117 5.147,111.401 4.574,112.03 C4.078,112.572 3.852,113.279 3.854,113.987 C3.859,115.176 4.445,116.41 5.48,117.359 L7.036,118.779 L7.945,117.783 L6.389,116.363 C5.599,115.647 5.198,114.714 5.203,113.987 C5.205,113.55 5.332,113.202 5.57,112.939 C5.846,112.638 6.254,112.471 6.785,112.468 C7.48,112.465 8.342,112.787 9.056,113.441 L10.611,114.86 C11.401,115.576 11.802,116.509 11.797,117.236 C11.795,117.673 11.669,118.021 11.43,118.285 C11.154,118.586 10.746,118.753 10.214,118.756 C9.52,118.759 8.658,118.437 7.945,117.783 L7.49,118.281" fill="#5F4E33"/>
    <path d="M13.03,129.215 C11.229,122.809 18.431,119.509 18.431,119.509 C9.845,114.342 12.441,112.089 12.441,112.089 C12.441,112.089 12.861,111.096 14.706,111.14" fill="#F7CEAA"/>
    <path d="M13.68,129.032 C13.495,128.377 13.416,127.766 13.416,127.194 C13.416,126.052 13.732,125.056 14.22,124.179 C14.948,122.865 16.076,121.836 17.027,121.147 C17.501,120.803 17.929,120.543 18.236,120.371 C18.389,120.285 18.511,120.221 18.594,120.18 L18.686,120.134 L18.712,120.122 C18.938,120.018 19.09,119.796 19.104,119.546 C19.118,119.297 18.992,119.06 18.778,118.931 C16.142,117.345 14.605,116.051 13.755,115.066 C12.901,114.077 12.746,113.431 12.747,113.084 C12.748,112.87 12.801,112.743 12.845,112.663 L12.897,112.587 L12.902,112.581 L12.646,112.325 L12.883,112.598 L12.902,112.581 L12.646,112.325 L12.883,112.598 C12.96,112.531 13.022,112.446 13.062,112.351 L12.84,112.257 L13.052,112.375 L13.062,112.351 L12.84,112.257 L13.052,112.375 C13.06,112.362 13.133,112.231 13.347,112.097 C13.563,111.964 13.93,111.814 14.588,111.813 L14.689,111.814 C15.062,111.823 15.371,111.528 15.38,111.156 C15.389,110.784 15.094,110.474 14.722,110.465 L14.588,110.464 C13.594,110.461 12.894,110.744 12.457,111.073 C12.018,111.4 11.853,111.747 11.82,111.826 L12.441,112.089 L11.999,111.579 C11.955,111.618 11.809,111.753 11.668,112.003 C11.527,112.252 11.397,112.623 11.398,113.084 C11.398,113.853 11.747,114.81 12.735,115.949 C13.726,117.093 15.369,118.452 18.083,120.087 L18.431,119.509 L18.15,118.896 C18.112,118.914 16.638,119.588 15.133,120.947 C14.382,121.627 13.621,122.481 13.041,123.523 C12.461,124.563 12.066,125.797 12.067,127.194 C12.067,127.892 12.165,128.629 12.381,129.397 C12.482,129.756 12.854,129.965 13.213,129.864 C13.571,129.763 13.78,129.391 13.68,129.032" fill="#5F4E33"/>
    <path d="M35.721,165.558 L19.687,132.071" fill="#F7CEAA"/>
    <path d="M36.329,165.266 L20.295,131.78 C20.134,131.444 19.732,131.302 19.396,131.463 C19.06,131.624 18.918,132.027 19.079,132.362 L35.113,165.849 C35.274,166.185 35.676,166.327 36.013,166.166 C36.348,166.005 36.49,165.602 36.329,165.266" fill="#5F4E33"/>
    <path d="M117.189,129.845 C112.952,121.105 98.729,118.063 98.729,118.063 C88.04,117.21 91.075,93.691 91.075,93.691 L78.155,93.691 C78.155,93.691 81.192,117.21 70.501,118.063 C70.501,118.063 56.278,121.105 52.042,129.845 L117.189,129.845" fill="#F7CEAA"/>
    <path d="M117.189,129.845 L117.796,129.55 C115.547,124.94 110.797,121.951 106.649,120.063 C102.493,118.179 98.899,117.411 98.87,117.404 L98.783,117.391 C97.239,117.263 96.06,116.643 95.077,115.642 C93.608,114.145 92.646,111.73 92.087,109.025 C91.524,106.322 91.351,103.347 91.351,100.751 C91.351,98.786 91.45,97.038 91.548,95.783 C91.597,95.156 91.646,94.652 91.683,94.307 C91.72,93.961 91.744,93.778 91.744,93.778 C91.768,93.586 91.709,93.391 91.581,93.246 C91.454,93.101 91.267,93.017 91.075,93.017 L78.155,93.017 C77.963,93.017 77.776,93.101 77.649,93.246 C77.521,93.391 77.462,93.587 77.486,93.778 C77.487,93.778 77.51,93.961 77.547,94.307 C77.657,95.345 77.88,97.807 77.88,100.756 C77.882,104.216 77.567,108.354 76.446,111.612 C75.888,113.242 75.131,114.643 74.153,115.643 C73.171,116.643 71.992,117.263 70.447,117.391 L70.36,117.404 C70.33,117.411 66.737,118.179 62.582,120.063 C58.433,121.951 53.683,124.94 51.435,129.55 C51.334,129.759 51.347,130.006 51.471,130.203 C51.594,130.399 51.81,130.519 52.042,130.519 L117.189,130.519 C117.421,130.519 117.637,130.399 117.76,130.203 C117.884,130.006 117.897,129.759 117.796,129.55 L117.189,129.845 L117.189,129.17 L52.042,129.17 L52.042,129.845 L52.649,130.139 C54.637,126.01 59.117,123.108 63.139,121.291 C65.146,120.381 67.03,119.736 68.407,119.321 C69.096,119.113 69.658,118.963 70.047,118.865 C70.241,118.816 70.391,118.78 70.493,118.757 C70.594,118.733 70.642,118.723 70.642,118.723 L70.501,118.063 L70.555,118.736 C72.419,118.591 73.951,117.787 75.118,116.585 C76.872,114.779 77.869,112.139 78.464,109.303 C79.054,106.464 79.228,103.412 79.228,100.756 C79.228,96.734 78.826,93.624 78.824,93.605 L78.155,93.691 L78.155,94.366 L91.075,94.366 L91.075,93.691 L90.406,93.605 C90.404,93.624 90.003,96.731 90.002,100.751 C90.005,104.293 90.308,108.537 91.508,112.048 C92.111,113.802 92.941,115.382 94.112,116.584 C95.278,117.787 96.811,118.591 98.675,118.736 L98.729,118.063 L98.588,118.723 C98.588,118.723 98.636,118.733 98.737,118.757 C99.496,118.932 103.038,119.812 106.849,121.645 C110.666,123.475 114.716,126.268 116.582,130.139 L117.189,129.845 L117.189,129.17 L117.189,129.845" fill="#5F4E33"/>
    <path d="M111.975,172.719 L132.139,169.279 L126.195,140.748 C117.242,111.492 100.718,120.018 100.718,120.018 L84.57,129.89 L68.512,120.018 C68.512,120.018 48.894,110.276 38.041,139.736 L31.56,156.66 L32.491,158.605 L48.109,170.972 L55.208,152.533" fill="#FFFFFE"/>
    <path d="M112.088,173.384 L132.253,169.944 C132.433,169.913 132.594,169.81 132.696,169.659 C132.799,169.508 132.837,169.321 132.799,169.142 L126.855,140.61 L126.84,140.551 C123.987,131.231 120.353,125.64 116.65,122.369 C112.95,119.095 109.183,118.183 106.237,118.188 C102.799,118.19 100.468,119.391 100.409,119.419 L100.367,119.443 L84.218,129.314 L84.57,129.89 L84.923,129.315 L68.865,119.444 L68.812,119.414 C68.755,119.388 65.561,117.803 60.976,117.8 C57.512,117.797 53.245,118.722 49.04,121.919 C44.833,125.114 40.705,130.551 37.408,139.503 L38.041,139.736 L37.411,139.495 L30.93,156.419 C30.863,156.592 30.871,156.784 30.951,156.951 L31.883,158.897 C31.927,158.989 31.992,159.07 32.072,159.134 L47.69,171.5 C47.858,171.633 48.08,171.679 48.287,171.622 C48.493,171.566 48.661,171.414 48.738,171.214 L55.838,152.775 C55.972,152.428 55.798,152.038 55.451,151.904 C55.103,151.77 54.713,151.943 54.579,152.291 L47.479,170.729 L48.109,170.972 L48.528,170.443 L32.91,158.077 L32.491,158.605 L33.099,158.314 L32.168,156.369 L31.56,156.66 L32.189,156.901 L38.671,139.977 L38.674,139.969 C41.909,131.189 45.902,125.996 49.855,122.993 C53.811,119.992 57.745,119.152 60.976,119.149 C63.111,119.149 64.934,119.522 66.216,119.894 C66.858,120.08 67.364,120.266 67.706,120.403 C67.877,120.472 68.007,120.528 68.093,120.567 L68.187,120.611 L68.212,120.623 L68.512,120.018 L68.159,120.593 L84.217,130.464 C84.433,130.597 84.705,130.597 84.922,130.465 L101.07,120.594 L100.718,120.018 L101.028,120.618 L101.042,120.611 C101.241,120.511 103.314,119.535 106.237,119.537 C108.915,119.541 112.299,120.331 115.757,123.38 C119.213,126.43 122.746,131.783 125.55,140.945 L126.195,140.748 L125.535,140.886 L131.479,169.417 L132.139,169.279 L132.026,168.614 L111.862,172.054 C111.495,172.116 111.248,172.465 111.31,172.832 C111.373,173.199 111.721,173.446 112.089,173.384" fill="#5F4E33"/>
    <path d="M51.289,134.343 L51.316,134.513 L51.09,134.513 L53.684,150.504 L53.475,160.781 L50.845,203.539 C50.845,203.539 49.732,209.678 56.74,209.678 C62.271,209.678 71.124,211.031 82.419,211.031 C94.033,211.031 103.808,210.256 109.833,209.625 C116.199,209.625 116.006,203.779 116.006,203.779 L113.375,161.076 L113.158,150.504 L115.751,134.513 L115.519,134.513 L115.548,134.343" fill="#FFFFFE"/>
    <path d="M50.625,134.451 L50.653,134.621 L51.316,134.513 L51.316,133.84 L51.09,133.84 C50.893,133.84 50.706,133.927 50.578,134.077 C50.45,134.227 50.395,134.426 50.426,134.62 L53.021,150.611 L53.684,150.504 L53.012,150.49 L52.803,160.767 L53.475,160.781 L52.804,160.74 L50.174,203.498 L50.845,203.539 L50.184,203.419 C50.179,203.449 50.108,203.842 50.108,204.437 C50.111,205.369 50.274,206.824 51.229,208.101 C51.705,208.736 52.383,209.311 53.293,209.713 C54.203,210.117 55.337,210.35 56.74,210.35 C62.174,210.346 71.078,211.702 82.419,211.703 C94.063,211.703 103.86,210.926 109.903,210.294 L109.833,209.625 L109.833,210.297 C111.429,210.298 112.693,209.948 113.666,209.386 C115.131,208.541 115.893,207.248 116.271,206.147 C116.653,205.041 116.678,204.105 116.679,203.834 L116.678,203.757 L116.677,203.738 L114.046,161.035 L113.375,161.076 L114.047,161.062 L113.83,150.49 L113.158,150.504 L113.821,150.611 L116.415,134.62 C116.447,134.426 116.391,134.227 116.263,134.077 C116.136,133.927 115.948,133.84 115.751,133.84 L115.519,133.84 L115.519,134.513 L116.182,134.627 L116.211,134.457 C116.274,134.091 116.028,133.743 115.663,133.68 C115.297,133.617 114.949,133.863 114.886,134.228 L114.857,134.398 C114.823,134.595 114.876,134.793 115.005,134.946 C115.133,135.098 115.32,135.185 115.519,135.185 L115.751,135.185 L115.751,134.513 L115.088,134.405 L112.494,150.396 L112.486,150.518 L112.702,161.09 L112.704,161.117 L115.335,203.821 L116.006,203.779 L115.334,203.801 L115.334,203.804 L115.335,203.834 C115.338,204.067 115.289,205.414 114.589,206.615 C114.239,207.219 113.74,207.789 112.994,208.221 C112.247,208.652 111.238,208.952 109.833,208.953 L109.762,208.956 C103.756,209.585 94.003,210.359 82.419,210.359 C71.171,210.36 62.367,209.009 56.74,209.005 C55.484,209.005 54.544,208.797 53.838,208.484 C52.782,208.012 52.22,207.317 51.877,206.568 C51.538,205.821 51.452,205.014 51.453,204.437 C51.453,204.193 51.467,203.991 51.482,203.854 L51.5,203.7 L51.506,203.664 L51.507,203.659 L51.516,203.58 L54.146,160.822 L54.147,160.795 L54.356,150.518 L54.348,150.396 L51.753,134.405 L51.09,134.513 L51.09,135.185 L51.316,135.185 C51.513,135.185 51.701,135.098 51.829,134.948 C51.956,134.798 52.012,134.598 51.98,134.404 L51.952,134.234 C51.892,133.868 51.546,133.619 51.18,133.679 C50.813,133.739 50.565,134.085 50.625,134.451" fill="#5F4E33"/>
    <path d="M94.226,152.129 L110.05,152.129 L110.05,156.704 L94.226,156.704 z" fill="#FFFFFE"/>
    <path d="M110.05,156.704 L110.05,156.03 L94.226,156.03 L94.226,156.704 L94.9,156.704 L94.9,152.129 L94.226,152.129 L94.226,152.803 L110.05,152.803 L110.05,152.129 L109.376,152.129 L109.376,156.704 L110.05,156.704 L110.05,156.03 L110.05,156.704 L110.725,156.704 L110.725,152.129 C110.725,151.756 110.423,151.454 110.05,151.454 L94.226,151.454 C93.854,151.454 93.552,151.756 93.552,152.129 L93.552,156.704 C93.552,157.077 93.854,157.378 94.226,157.378 L110.05,157.378 C110.423,157.378 110.725,157.077 110.725,156.704 L110.05,156.704" fill="#5F4E33"/>
    <path d="M45.144,62.99 L51.741,20.015 L111.69,20.015 L118.467,65.735 L113.139,80.873 C113.139,95.273 89.757,106.955 82.89,106.955 C76.023,106.955 52.641,95.273 52.641,80.873 L45.144,62.99" fill="#F7CEAA"/>
    <path d="M45.144,62.989 L45.811,63.091 L52.405,20.122 L51.739,20.02 L51.739,20.694 L111.692,20.694 L111.692,20.02 L111.025,20.118 L117.803,65.83 L118.47,65.731 L117.834,65.508 L112.507,80.647 L112.469,80.871 C112.469,84.285 111.082,87.579 108.839,90.623 C105.481,95.185 100.213,99.13 95.157,101.906 C92.63,103.295 90.157,104.394 88.012,105.142 C85.872,105.891 84.042,106.28 82.891,106.277 C81.35,106.284 78.629,105.582 75.526,104.279 C70.857,102.33 65.252,99.051 60.858,94.959 C58.66,92.914 56.765,90.667 55.428,88.296 C54.091,85.922 53.312,83.433 53.312,80.871 L53.26,80.61 L45.766,62.729 L45.144,62.989 L45.811,63.091 L45.144,62.989 L44.522,63.25 L52.016,81.132 L52.638,80.871 L51.963,80.871 C51.964,84.66 53.499,88.226 55.856,91.423 C59.396,96.221 64.797,100.24 69.975,103.088 C72.564,104.511 75.099,105.639 77.326,106.416 C79.558,107.19 81.466,107.622 82.891,107.626 C84.785,107.618 87.564,106.861 90.776,105.524 C95.582,103.514 101.291,100.179 105.842,95.947 C108.117,93.829 110.102,91.486 111.528,88.958 C112.952,86.431 113.818,83.711 113.818,80.871 L113.143,80.871 L113.779,81.095 L119.106,65.955 C119.143,65.851 119.154,65.742 119.137,65.632 L112.359,19.921 C112.31,19.59 112.026,19.345 111.692,19.345 L51.739,19.345 C51.405,19.345 51.123,19.587 51.072,19.917 L44.477,62.887 C44.458,63.01 44.474,63.135 44.522,63.25 L45.144,62.989" fill="#5F4E33"/>
    <path d="M99.714,62.989 C99.714,64.503 98.485,65.731 96.971,65.731 C95.459,65.731 94.23,64.503 94.23,62.989 C94.23,61.475 95.459,60.248 96.971,60.248 C98.485,60.248 99.714,61.475 99.714,62.989" fill="#5F4E33"/>
    <path d="M71.552,62.989 C71.552,64.503 70.324,65.731 68.812,65.731 C67.296,65.731 66.068,64.503 66.068,62.989 C66.068,61.475 67.296,60.248 68.812,60.248 C70.324,60.248 71.552,61.475 71.552,62.989" fill="#5F4E33"/>
    <path d="M81.106,57.63 L76.967,79.366 L84.263,79.366 C84.635,79.366 84.937,79.064 84.937,78.691 C84.937,78.319 84.635,78.017 84.263,78.017 L77.782,78.017 L77.782,78.691 L78.444,78.818 L82.431,57.882 C82.501,57.516 82.261,57.163 81.895,57.093 C81.529,57.023 81.176,57.264 81.106,57.63" fill="#5F4E33"/>
    <path d="M87.896,88.562 C86.624,89.732 84.856,90.464 82.892,90.464 C80.926,90.464 79.155,89.732 77.884,88.562 C77.61,88.31 77.183,88.328 76.931,88.602 C76.679,88.876 76.697,89.303 76.971,89.555 C78.493,90.956 80.589,91.813 82.892,91.813 C85.193,91.813 87.287,90.956 88.809,89.555 C89.083,89.303 89.101,88.876 88.849,88.602 C88.597,88.328 88.17,88.31 87.896,88.562" fill="#5F4E33"/>
    <path d="M51.356,65.728 C49.133,62.341 44.576,62.745 42.621,66.057 C40.119,70.295 41.719,75.778 44.011,79.579 C45.501,82.053 48.647,85.863 51.429,84.19 C52.693,83.429 53.029,81.653 53.27,80.073" fill="#F7CEAA"/>
    <path d="M51.92,65.358 C50.756,63.574 48.948,62.693 47.16,62.698 C45.166,62.697 43.188,63.768 42.04,65.715 C41.073,67.352 40.679,69.158 40.68,70.958 C40.684,74.184 41.917,77.407 43.433,79.927 C44.076,80.993 45.003,82.286 46.108,83.347 C46.662,83.876 47.261,84.349 47.907,84.698 C48.551,85.047 49.249,85.276 49.983,85.276 C50.585,85.278 51.203,85.115 51.776,84.768 L51.777,84.768 C52.591,84.276 53.065,83.486 53.366,82.672 C53.667,81.853 53.814,80.974 53.937,80.175 C53.993,79.807 53.74,79.462 53.372,79.406 C53.003,79.35 52.659,79.603 52.603,79.972 C52.485,80.752 52.343,81.551 52.1,82.205 C51.856,82.864 51.53,83.344 51.081,83.613 L51.081,83.612 C50.705,83.837 50.352,83.926 49.983,83.927 C49.536,83.928 49.052,83.785 48.549,83.512 C47.027,82.704 45.471,80.712 44.589,79.231 C43.164,76.873 42.025,73.833 42.029,70.958 C42.03,69.35 42.376,67.8 43.201,66.4 C44.116,64.854 45.646,64.049 47.16,64.047 C48.518,64.053 49.855,64.68 50.793,66.099 C50.997,66.41 51.415,66.497 51.727,66.292 C52.038,66.088 52.125,65.67 51.92,65.358" fill="#5F4E33"/>
    <g>
      <path d="M65.187,27.047 C65.187,27.047 69.386,59.498 86.946,62.935 C86.946,62.935 80.84,50.717 80.84,34.684 C80.84,34.684 88.856,57.59 107.563,65.224 C107.563,65.224 100.691,54.916 98.781,40.791 C98.781,40.791 115.581,54.916 111.38,78.587 C111.38,78.587 121.688,65.606 120.163,54.916 C120.163,54.916 122.451,63.697 119.4,72.861 C119.4,72.861 144.212,20.557 98.4,8.723 C98.4,8.723 66.713,-16.857 43.425,28.574 C38.735,37.722 37.316,62.171 53.35,75.915 C53.35,75.915 45.333,55.299 65.187,27.047" fill="#8B6B46"/>
      <path d="M65.187,27.047 L64.518,27.133 C64.523,27.163 65.575,35.313 68.851,43.941 C70.491,48.256 72.685,52.694 75.615,56.302 C78.54,59.907 82.228,62.698 86.817,63.596 C87.07,63.646 87.327,63.548 87.483,63.343 C87.639,63.137 87.665,62.864 87.55,62.633 L87.486,62.502 C86.838,61.155 81.511,49.554 81.514,34.684 L80.84,34.684 L80.203,34.906 C80.215,34.94 82.235,40.71 86.621,47.459 C91.007,54.203 97.764,61.949 107.308,65.849 C107.582,65.961 107.898,65.88 108.085,65.651 C108.272,65.423 108.288,65.096 108.124,64.85 L108.053,64.74 C107.319,63.605 101.215,53.784 99.449,40.701 L98.781,40.791 L98.347,41.307 L98.378,41.334 C98.731,41.639 101.994,44.526 105.156,49.608 C108.319,54.692 111.38,61.956 111.38,71.056 C111.38,73.405 111.176,75.878 110.716,78.469 C110.662,78.774 110.821,79.075 111.103,79.202 C111.386,79.329 111.716,79.249 111.909,79.006 C111.924,78.986 114.178,76.148 116.44,72.011 C118.699,67.872 120.985,62.44 120.991,57.153 C120.991,56.371 120.94,55.591 120.83,54.821 L120.163,54.916 L119.51,55.086 C119.51,55.086 119.52,55.126 119.542,55.216 C119.691,55.846 120.312,58.713 120.312,62.586 C120.312,65.537 119.951,69.07 118.76,72.648 C118.647,72.986 118.818,73.354 119.148,73.487 C119.479,73.62 119.857,73.472 120.009,73.15 C120.026,73.104 126.775,58.912 126.783,43.479 C126.783,36.356 125.337,28.946 121.061,22.579 C116.787,16.21 109.688,10.937 98.569,8.07 L98.4,8.723 L98.824,8.198 C98.765,8.161 89.789,0.886 77.688,0.872 C72.319,0.87 66.338,2.327 60.342,6.493 C54.345,10.658 48.338,17.51 42.825,28.266 C40.932,31.969 39.602,37.912 39.597,44.662 C39.598,55.251 42.914,67.851 52.911,76.427 C53.146,76.629 53.487,76.644 53.74,76.465 C53.993,76.286 54.091,75.959 53.979,75.671 L53.965,75.634 C53.811,75.215 52.424,71.262 52.424,64.727 C52.427,56.095 54.834,42.957 65.739,27.435 L65.187,27.047 L64.518,27.133 L65.187,27.047 L64.635,26.659 C53.573,42.396 51.073,55.844 51.076,64.727 C51.076,71.902 52.698,76.099 52.722,76.159 L53.35,75.915 L53.789,75.403 C44.191,67.182 40.946,54.991 40.946,44.662 C40.942,38.097 42.27,32.295 44.025,28.882 C49.465,18.27 55.34,11.608 61.112,7.601 C66.885,3.595 72.56,2.223 77.688,2.221 C83.462,2.22 88.546,3.977 92.183,5.741 C94.002,6.623 95.457,7.505 96.454,8.164 C96.953,8.494 97.337,8.767 97.595,8.957 C97.723,9.052 97.821,9.126 97.885,9.176 L97.976,9.247 C98.05,9.307 98.14,9.352 98.231,9.376 C109.103,12.189 115.858,17.259 119.941,23.331 C124.022,29.404 125.434,36.532 125.434,43.479 C125.435,51 123.774,58.289 122.11,63.687 C121.278,66.386 120.445,68.613 119.822,70.162 C119.511,70.936 119.252,71.542 119.071,71.952 C118.981,72.157 118.91,72.314 118.862,72.418 C118.814,72.522 118.791,72.572 118.791,72.572 L119.4,72.861 L120.04,73.074 C121.289,69.321 121.66,65.646 121.661,62.586 C121.66,57.995 120.825,54.784 120.815,54.746 C120.725,54.399 120.381,54.184 120.03,54.255 C119.679,54.325 119.444,54.657 119.495,55.011 C119.595,55.714 119.642,56.429 119.642,57.153 C119.649,62.046 117.466,67.332 115.257,71.364 C114.154,73.381 113.049,75.087 112.222,76.286 C111.808,76.886 111.464,77.359 111.224,77.68 C111.104,77.841 111.01,77.964 110.947,78.046 L110.852,78.167 L111.38,78.587 L112.044,78.705 C112.518,76.035 112.729,73.483 112.729,71.056 C112.729,61.344 109.354,53.65 105.985,48.395 C102.616,43.138 99.251,40.306 99.215,40.275 C99.001,40.095 98.7,40.065 98.456,40.2 C98.211,40.335 98.075,40.605 98.112,40.881 C100.05,55.175 106.973,65.55 107.002,65.599 L107.563,65.224 L107.818,64.6 C98.655,60.865 92.05,53.341 87.752,46.723 C85.603,43.417 84.03,40.343 82.997,38.1 C82.481,36.978 82.099,36.064 81.847,35.433 C81.721,35.117 81.628,34.872 81.566,34.707 C81.505,34.542 81.477,34.461 81.476,34.461 C81.368,34.15 81.052,33.963 80.727,34.019 C80.402,34.074 80.165,34.354 80.165,34.684 C80.17,50.888 86.319,63.182 86.343,63.236 L86.946,62.935 L87.076,62.273 C82.884,61.452 79.462,58.898 76.662,55.452 C72.463,50.289 69.738,43.15 68.091,37.312 C67.265,34.393 66.706,31.8 66.353,29.939 C66.177,29.008 66.052,28.261 65.972,27.747 C65.891,27.234 65.856,26.961 65.856,26.96 C65.82,26.684 65.619,26.459 65.349,26.392 C65.078,26.325 64.796,26.431 64.635,26.659 L65.187,27.047" fill="#5F4E33"/>
    </g>
    <path d="M114.425,65.728 C116.649,62.341 121.206,62.745 123.162,66.057 C125.663,70.295 124.061,75.778 121.772,79.579 C120.281,82.053 117.135,85.863 114.354,84.19 C113.085,83.429 112.751,81.653 112.51,80.073" fill="#F7CEAA"/>
    <path d="M114.989,66.099 C115.927,64.68 117.264,64.053 118.622,64.047 C120.136,64.049 121.666,64.854 122.581,66.401 C123.406,67.799 123.752,69.349 123.752,70.956 C123.757,73.832 122.618,76.873 121.194,79.231 C120.601,80.217 119.722,81.434 118.741,82.372 C118.251,82.842 117.737,83.241 117.234,83.512 C116.73,83.785 116.246,83.928 115.8,83.927 C115.43,83.926 115.078,83.837 114.702,83.612 C114.25,83.343 113.924,82.864 113.68,82.205 C113.437,81.552 113.295,80.752 113.177,79.971 C113.121,79.603 112.777,79.35 112.408,79.406 C112.04,79.463 111.787,79.807 111.844,80.175 C111.966,80.974 112.112,81.853 112.414,82.672 C112.715,83.487 113.19,84.276 114.007,84.769 C114.579,85.115 115.197,85.278 115.8,85.276 C116.533,85.276 117.232,85.047 117.876,84.698 C119.799,83.643 121.377,81.523 122.35,79.927 C123.864,77.406 125.097,74.183 125.101,70.956 C125.102,69.157 124.709,67.351 123.742,65.715 C122.594,63.768 120.616,62.697 118.622,62.698 C116.834,62.693 115.026,63.574 113.861,65.358 C113.657,65.67 113.744,66.088 114.055,66.292 C114.367,66.497 114.785,66.41 114.989,66.099" fill="#5F4E33"/>
    <path d="M98.781,40.791 C98.781,40.791 115.581,54.916 111.38,78.587 C111.38,78.587 121.688,65.606 120.163,54.916" fill="#8B6B46"/>
    <path d="M98.347,41.307 L98.378,41.334 C98.731,41.639 101.994,44.526 105.156,49.608 C108.319,54.692 111.38,61.956 111.38,71.056 C111.38,73.405 111.176,75.878 110.716,78.469 C110.662,78.774 110.821,79.075 111.103,79.202 C111.386,79.329 111.716,79.249 111.909,79.006 C111.924,78.986 114.178,76.148 116.44,72.011 C118.699,67.872 120.985,62.44 120.991,57.153 C120.991,56.371 120.94,55.591 120.83,54.821 C120.778,54.452 120.436,54.196 120.067,54.248 C119.699,54.301 119.442,54.642 119.495,55.011 C119.595,55.714 119.642,56.429 119.642,57.153 C119.649,62.046 117.466,67.332 115.257,71.364 C114.154,73.381 113.049,75.087 112.222,76.286 C111.808,76.886 111.464,77.359 111.224,77.68 C111.104,77.841 111.01,77.964 110.947,78.046 L110.852,78.167 L111.38,78.587 L112.044,78.705 C112.518,76.035 112.729,73.483 112.729,71.056 C112.729,61.344 109.354,53.65 105.985,48.395 C102.616,43.138 99.251,40.306 99.215,40.275 C98.93,40.035 98.504,40.072 98.265,40.357 C98.025,40.642 98.062,41.068 98.347,41.307" fill="#5F4E33"/>
    <path d="M89.319,203.906 L84.64,207.572 L79.912,203.906 L81.115,142.716 L88.115,142.716 L89.319,203.906" fill="#292D78"/>
    <path d="M89.319,203.906 L88.905,203.377 L84.225,207.043 L84.64,207.572 L85.052,207.041 L80.324,203.375 L79.912,203.906 L80.584,203.919 L81.787,142.729 L81.115,142.716 L81.115,143.388 L88.115,143.388 L88.115,142.716 L87.443,142.729 L88.647,203.919 L89.319,203.906 L88.905,203.377 L89.319,203.906 L89.992,203.893 L88.787,142.703 C88.78,142.337 88.48,142.043 88.115,142.043 L81.115,142.043 C80.75,142.043 80.45,142.337 80.443,142.703 L79.24,203.893 C79.236,204.106 79.331,204.307 79.5,204.437 L84.228,208.103 C84.471,208.293 84.811,208.292 85.054,208.101 L89.734,204.435 C89.9,204.305 89.996,204.104 89.992,203.893 L89.319,203.906" fill="#5F4E33"/>
    <path d="M88.208,142.716 L81.022,142.716 L79.439,129.971 L89.79,129.971 L88.208,142.716" fill="#292D78"/>
    <path d="M88.208,142.716 L88.208,142.041 L81.022,142.041 L81.022,142.716 L81.692,142.633 L80.109,129.888 L79.439,129.971 L79.439,130.645 L89.79,130.645 L89.79,129.971 L89.121,129.888 L87.539,142.633 L88.208,142.716 L88.208,142.041 L88.208,142.716 L88.877,142.799 L90.459,130.054 C90.483,129.862 90.423,129.668 90.296,129.524 C90.168,129.38 89.983,129.296 89.79,129.296 L79.439,129.296 C79.247,129.296 79.062,129.38 78.934,129.524 C78.806,129.669 78.746,129.862 78.77,130.054 L80.353,142.799 C80.395,143.136 80.683,143.39 81.022,143.39 L88.208,143.39 C88.548,143.39 88.835,143.136 88.877,142.799 L88.208,142.716" fill="#5F4E33"/>
    <path d="M72.065,111.768 L84.615,129.845 L76.046,138.219 L64.42,118.388 L72.065,111.768" fill="#FFFFFE"/>
    <path d="M72.065,111.768 L71.511,112.152 L84.061,130.229 L84.615,129.845 L84.144,129.362 L75.575,137.736 L76.046,138.219 L76.628,137.878 L65.002,118.047 L64.42,118.388 L64.861,118.897 L72.506,112.277 L72.065,111.768 L71.511,112.152 L72.065,111.768 L71.623,111.258 L63.978,117.878 C63.732,118.091 63.673,118.448 63.838,118.729 L75.464,138.56 C75.569,138.738 75.751,138.86 75.956,138.887 C76.161,138.915 76.369,138.846 76.517,138.701 L85.087,130.327 C85.323,130.097 85.357,129.731 85.169,129.46 L72.619,111.383 C72.51,111.227 72.338,111.122 72.149,111.098 C71.96,111.075 71.767,111.133 71.623,111.258 L72.065,111.768" fill="#5F4E33"/>
    <path d="M97.164,111.768 L84.615,129.845 L93.183,138.219 L104.81,118.388 L97.164,111.768" fill="#FFFFFE"/>
    <path d="M97.164,111.768 L96.609,111.383 L84.061,129.46 C83.873,129.731 83.908,130.096 84.144,130.327 L92.712,138.701 C92.86,138.846 93.067,138.915 93.273,138.887 C93.478,138.86 93.66,138.738 93.765,138.56 L105.392,118.729 C105.557,118.448 105.498,118.091 105.252,117.878 L97.605,111.258 C97.461,111.133 97.268,111.075 97.079,111.098 C96.891,111.122 96.718,111.227 96.609,111.383 L97.164,111.768 L96.722,112.277 L104.369,118.898 L104.81,118.388 L104.228,118.047 L92.601,137.878 L93.183,138.219 L93.655,137.736 L85.087,129.362 L84.615,129.845 L85.169,130.229 L97.718,112.152 L97.164,111.768 L96.722,112.277 L97.164,111.768" fill="#5F4E33"/>
    <path d="M172.926,188.747 L172.924,188.753 C172.893,188.868 172.469,190.24 171.332,191.54 C170.186,192.84 168.388,194.087 165.399,194.095 C164.88,194.095 164.324,194.056 163.729,193.971 C163.362,193.919 163.021,194.174 162.969,194.542 C162.916,194.909 163.172,195.25 163.539,195.302 C164.194,195.396 164.813,195.439 165.399,195.439 C168.898,195.448 171.166,193.853 172.471,192.277 C173.786,190.7 174.206,189.156 174.223,189.101 C174.321,188.742 174.11,188.373 173.751,188.275 C173.393,188.178 173.024,188.389 172.926,188.747" fill="#5F4E33"/>
    <path d="M174.938,192.048 C174.938,192.048 174.915,192.159 174.868,192.365 C174.706,193.083 174.268,194.922 173.657,196.781 C173.353,197.709 173.004,198.644 172.633,199.436 C172.266,200.228 171.861,200.88 171.516,201.22 C171.254,201.482 171.254,201.908 171.516,202.171 C171.779,202.433 172.204,202.433 172.467,202.171 C173.081,201.55 173.569,200.652 174.022,199.629 C175.361,196.57 176.247,192.348 176.254,192.327 C176.331,191.963 176.099,191.607 175.735,191.53 C175.372,191.453 175.015,191.685 174.939,192.048" fill="#5F4E33"/>
  </g>
</svg>
