<?xml version="1.0" encoding="UTF-8"?>
<svg xmlns="http://www.w3.org/2000/svg" xmlns:xlink="http://www.w3.org/1999/xlink" width="128px" height="128px"
     viewBox="0 0 128 128" version="1.1">
    <defs>
        <clipPath id="clip1">
            <path d="M 0 0.0195312 L 128 0.0195312 L 128 127.277344 L 0 127.277344 Z M 0 0.0195312 "/>
        </clipPath>
        <filter id="alpha" filterUnits="objectBoundingBox" x="0%" y="0%" width="100%" height="100%">
            <feColorMatrix type="matrix" in="SourceGraphic" values="0 0 0 0 1 0 0 0 0 1 0 0 0 0 1 0 0 0 1 0"/>
        </filter>
        <mask id="mask0">
            <g filter="url(#alpha)">
                <rect x="0" y="0" width="128" height="128"
                      style="fill:rgb(0%,0%,0%);fill-opacity:0.439216;stroke:none;"/>
            </g>
        </mask>
        <clipPath id="clip2">
            <rect x="0" y="0" width="128" height="128"/>
        </clipPath>
        <g id="surface5" clip-path="url(#clip2)">
            <path style=" stroke:none;fill-rule:nonzero;fill:rgb(100%,100%,100%);fill-opacity:1;"
                  d="M 5.210938 20.640625 L 102.261719 20.640625 L 102.261719 94.53125 L 5.210938 94.53125 Z M 5.210938 20.640625 "/>
        </g>
        <clipPath id="clip3">
            <path d="M 0 0.0195312 L 128 0.0195312 L 128 127.277344 L 0 127.277344 Z M 0 0.0195312 "/>
        </clipPath>
        <mask id="mask1">
            <g filter="url(#alpha)">
                <rect x="0" y="0" width="128" height="128"
                      style="fill:rgb(0%,0%,0%);fill-opacity:0.168627;stroke:none;"/>
            </g>
        </mask>
        <clipPath id="clip4">
            <rect x="0" y="0" width="128" height="128"/>
        </clipPath>
        <g id="surface8" clip-path="url(#clip4)">
            <path style=" stroke:none;fill-rule:nonzero;fill:rgb(100%,100%,100%);fill-opacity:1;"
                  d="M 5.210938 94.53125 L 33.429688 127.457031 L 75.734375 127.457031 L 102.261719 94.53125 Z M 5.210938 94.53125 "/>
        </g>
        <clipPath id="clip5">
            <path d="M 91 123 L 109 123 L 109 127.277344 L 91 127.277344 Z M 91 123 "/>
        </clipPath>
        <clipPath id="clip6">
            <path d="M 103 123 L 107 123 L 107 127.277344 L 103 127.277344 Z M 103 123 "/>
        </clipPath>
        <clipPath id="clip7">
            <path d="M 93 123 L 97 123 L 97 127.277344 L 93 127.277344 Z M 93 123 "/>
        </clipPath>
        <clipPath id="clip8">
            <path d="M 98 123 L 100 123 L 100 127.277344 L 98 127.277344 Z M 98 123 "/>
        </clipPath>
        <clipPath id="clip9">
            <path d="M 0 0.0195312 L 128 0.0195312 L 128 127.277344 L 0 127.277344 Z M 0 0.0195312 "/>
        </clipPath>
        <mask id="mask2">
            <g filter="url(#alpha)">
                <rect x="0" y="0" width="128" height="128"
                      style="fill:rgb(0%,0%,0%);fill-opacity:0.501961;stroke:none;"/>
            </g>
        </mask>
        <clipPath id="clip10">
            <rect x="0" y="0" width="128" height="128"/>
        </clipPath>
        <g id="surface11" clip-path="url(#clip10)">
            <path style=" stroke:none;fill-rule:nonzero;fill:rgb(76.078431%,70.980392%,73.72549%);fill-opacity:1;"
                  d="M 96.382812 99.609375 C 96.375 99.574219 96.371094 99.535156 96.367188 99.5 C 96.324219 99.539062 96.285156 99.585938 96.253906 99.636719 Z M 96.382812 99.609375 "/>
            <path style=" stroke:none;fill-rule:nonzero;fill:rgb(76.078431%,70.980392%,73.72549%);fill-opacity:1;"
                  d="M 102.972656 100.957031 L 94.859375 103.253906 C 94.417969 103.378906 93.890625 102.921875 93.699219 102.230469 L 93.5625 101.761719 C 93.492188 101.523438 93.472656 101.273438 93.5 101.023438 C 93.28125 101.300781 93.210938 101.789062 93.359375 102.296875 L 93.5 102.765625 C 93.695312 103.453125 94.214844 103.914062 94.65625 103.789062 L 102.769531 101.492188 C 103.046875 101.414062 103.230469 101.125 103.277344 100.75 C 103.199219 100.851562 103.09375 100.921875 102.972656 100.957031 Z M 102.972656 100.957031 "/>
        </g>
        <clipPath id="clip11">
            <path d="M 0 0.0195312 L 128 0.0195312 L 128 127.277344 L 0 127.277344 Z M 0 0.0195312 "/>
        </clipPath>
        <mask id="mask3">
            <g filter="url(#alpha)">
                <rect x="0" y="0" width="128" height="128"
                      style="fill:rgb(0%,0%,0%);fill-opacity:0.501961;stroke:none;"/>
            </g>
        </mask>
        <clipPath id="clip12">
            <rect x="0" y="0" width="128" height="128"/>
        </clipPath>
        <g id="surface14" clip-path="url(#clip12)">
            <path style=" stroke:none;fill-rule:nonzero;fill:rgb(100%,100%,100%);fill-opacity:1;"
                  d="M 108.652344 108.871094 C 108.824219 108.820312 108.925781 108.640625 108.878906 108.464844 L 108.5625 107.363281 C 108.515625 107.191406 108.332031 107.089844 108.160156 107.136719 C 107.984375 107.1875 107.882812 107.367188 107.933594 107.539062 L 108.246094 108.644531 C 108.296875 108.816406 108.476562 108.917969 108.652344 108.871094 Z M 108.652344 108.871094 "/>
        </g>
        <clipPath id="clip13">
            <path d="M 0 0.0195312 L 128 0.0195312 L 128 127.277344 L 0 127.277344 Z M 0 0.0195312 "/>
        </clipPath>
        <mask id="mask4">
            <g filter="url(#alpha)">
                <rect x="0" y="0" width="128" height="128"
                      style="fill:rgb(0%,0%,0%);fill-opacity:0.501961;stroke:none;"/>
            </g>
        </mask>
        <clipPath id="clip14">
            <rect x="0" y="0" width="128" height="128"/>
        </clipPath>
        <g id="surface17" clip-path="url(#clip14)">
            <path style=" stroke:none;fill-rule:nonzero;fill:rgb(100%,100%,100%);fill-opacity:1;"
                  d="M 111.355469 118.363281 C 111.441406 118.339844 111.511719 118.285156 111.554688 118.207031 C 111.59375 118.132812 111.605469 118.042969 111.582031 117.960938 L 109.160156 109.460938 C 109.113281 109.285156 108.929688 109.1875 108.757812 109.234375 C 108.582031 109.285156 108.480469 109.464844 108.53125 109.636719 L 110.949219 118.136719 C 110.972656 118.222656 111.027344 118.292969 111.105469 118.335938 C 111.183594 118.378906 111.273438 118.386719 111.355469 118.363281 Z M 111.355469 118.363281 "/>
        </g>
        <clipPath id="clip15">
            <path d="M 0 119 L 128 119 L 128 127.277344 L 0 127.277344 Z M 0 119 "/>
        </clipPath>
        <clipPath id="clip16">
            <path d="M 0 0.0195312 L 128 0.0195312 L 128 127.277344 L 0 127.277344 Z M 0 0.0195312 "/>
        </clipPath>
        <mask id="mask5">
            <g filter="url(#alpha)">
                <rect x="0" y="0" width="128" height="128"
                      style="fill:rgb(0%,0%,0%);fill-opacity:0.788235;stroke:none;"/>
            </g>
        </mask>
        <clipPath id="clip17">
            <rect x="0" y="0" width="128" height="128"/>
        </clipPath>
        <g id="surface20" clip-path="url(#clip17)">
            <path style=" stroke:none;fill-rule:nonzero;fill:rgb(80.784314%,17.647059%,16.078431%);fill-opacity:1;"
                  d="M 16.046875 124.398438 L 16.046875 125.679688 L 26.535156 125.679688 C 27.351562 125.679688 28.082031 125.167969 28.359375 124.398438 Z M 16.046875 124.398438 "/>
        </g>
    </defs>
    <g id="surface1">
        <g clip-path="url(#clip1)" clip-rule="nonzero">
            <path style=" stroke:none;fill-rule:nonzero;fill:rgb(21.176471%,66.27451%,88.235294%);fill-opacity:1;"
                  d="M 0 0.0195312 L 128 0.0195312 L 128 127.605469 L 0 127.605469 Z M 0 0.0195312 "/>
            <use xlink:href="#surface5" mask="url(#mask0)"/>
        </g>
        <path style=" stroke:none;fill-rule:nonzero;fill:rgb(100%,100%,100%);fill-opacity:1;"
              d="M 57.980469 43.414062 L 61.527344 43.414062 L 61.527344 48.445312 L 57.980469 48.445312 Z M 57.980469 43.414062 "/>
        <path style=" stroke:none;fill-rule:nonzero;fill:rgb(100%,100%,100%);fill-opacity:1;"
              d="M 52.539062 40.347656 L 56.082031 40.347656 L 56.082031 48.445312 L 52.539062 48.445312 Z M 52.539062 40.347656 "/>
        <path style=" stroke:none;fill-rule:nonzero;fill:rgb(100%,100%,100%);fill-opacity:1;"
              d="M 47.09375 36.351562 L 50.640625 36.351562 L 50.640625 48.445312 L 47.09375 48.445312 Z M 47.09375 36.351562 "/>
        <path style=" stroke:none;fill-rule:nonzero;fill:rgb(100%,100%,100%);fill-opacity:1;"
              d="M 80.5625 50.179688 C 76.253906 50.179688 72.757812 46.695312 72.757812 42.398438 C 72.753906 38.101562 76.25 34.617188 80.5625 34.617188 C 84.875 34.617188 88.371094 38.101562 88.371094 42.398438 C 88.363281 46.691406 84.875 50.175781 80.5625 50.179688 Z M 80.5625 35.375 C 76.671875 35.375 73.515625 38.519531 73.515625 42.398438 C 73.515625 46.277344 76.671875 49.425781 80.5625 49.425781 C 84.457031 49.421875 87.609375 46.277344 87.609375 42.398438 C 87.605469 38.523438 84.453125 35.378906 80.5625 35.375 Z M 80.5625 35.375 "/>
        <path style=" stroke:none;fill-rule:nonzero;fill:rgb(100%,100%,100%);fill-opacity:1;"
              d="M 85.289062 42.777344 L 80.5625 42.777344 C 80.464844 42.777344 80.367188 42.738281 80.296875 42.664062 C 80.222656 42.59375 80.183594 42.5 80.183594 42.398438 L 80.183594 36.511719 C 80.195312 36.308594 80.363281 36.152344 80.5625 36.152344 C 80.765625 36.152344 80.929688 36.308594 80.941406 36.511719 L 80.941406 42.019531 L 85.289062 42.019531 C 85.492188 42.03125 85.648438 42.195312 85.648438 42.398438 C 85.648438 42.597656 85.492188 42.765625 85.289062 42.777344 Z M 85.289062 42.777344 "/>
        <path style=" stroke:none;fill-rule:nonzero;fill:rgb(100%,100%,100%);fill-opacity:1;"
              d="M 29.464844 46.964844 L 30.386719 46.925781 L 30.324219 45.460938 L 29.367188 45.5 C 29.265625 45.167969 29.113281 44.851562 28.910156 44.570312 L 29.546875 43.90625 L 28.484375 42.890625 L 27.820312 43.578125 C 27.511719 43.410156 27.183594 43.289062 26.839844 43.222656 L 26.839844 42.304688 L 25.367188 42.304688 L 25.367188 43.265625 C 24.953125 43.367188 24.566406 43.554688 24.226562 43.804688 L 23.519531 43.15625 L 22.515625 44.230469 L 23.257812 44.921875 C 23.039062 45.328125 22.914062 45.78125 22.882812 46.238281 L 21.96875 46.359375 L 22.160156 47.816406 L 23.109375 47.691406 C 23.242188 48.015625 23.421875 48.3125 23.644531 48.582031 L 23.070312 49.292969 L 24.214844 50.214844 L 24.820312 49.46875 C 25.136719 49.613281 25.472656 49.707031 25.820312 49.742188 L 25.898438 50.65625 L 27.367188 50.53125 L 27.285156 49.574219 C 27.613281 49.460938 27.921875 49.292969 28.199219 49.082031 L 28.890625 49.6875 L 29.859375 48.585938 L 29.136719 47.953125 C 29.296875 47.644531 29.410156 47.308594 29.464844 46.964844 Z M 26.160156 47.683594 C 25.40625 47.683594 24.796875 47.074219 24.792969 46.320312 C 24.792969 45.570312 25.40625 44.960938 26.160156 44.960938 C 26.914062 44.960938 27.527344 45.570312 27.527344 46.324219 C 27.523438 46.683594 27.382812 47.03125 27.125 47.285156 C 26.867188 47.539062 26.519531 47.683594 26.15625 47.683594 Z M 26.160156 47.683594 "/>
        <path style=" stroke:none;fill-rule:nonzero;fill:rgb(100%,100%,100%);fill-opacity:1;"
              d="M 35.375 42.078125 L 36.292969 42.035156 L 36.230469 40.570312 L 35.273438 40.609375 C 35.171875 40.277344 35.015625 39.964844 34.816406 39.679688 L 35.453125 39.015625 L 34.390625 38.003906 L 33.726562 38.691406 C 33.425781 38.519531 33.097656 38.398438 32.757812 38.332031 L 32.757812 37.414062 L 31.277344 37.414062 L 31.277344 38.378906 C 30.863281 38.484375 30.476562 38.667969 30.136719 38.921875 L 29.433594 38.273438 L 28.433594 39.347656 L 29.171875 40.035156 C 28.957031 40.445312 28.828125 40.894531 28.800781 41.355469 L 27.886719 41.472656 L 28.082031 42.929688 L 29.035156 42.804688 C 29.164062 43.128906 29.34375 43.425781 29.566406 43.695312 L 28.992188 44.410156 L 30.140625 45.328125 L 30.742188 44.582031 C 31.058594 44.726562 31.398438 44.820312 31.742188 44.859375 L 31.824219 45.769531 L 33.289062 45.644531 L 33.203125 44.695312 C 33.53125 44.582031 33.839844 44.414062 34.113281 44.203125 L 34.804688 44.808594 L 35.773438 43.707031 L 35.054688 43.074219 C 35.210938 42.761719 35.320312 42.425781 35.375 42.078125 Z M 32.066406 42.792969 C 31.3125 42.792969 30.699219 42.1875 30.699219 41.433594 C 30.699219 40.683594 31.3125 40.070312 32.066406 40.070312 C 32.820312 40.070312 33.429688 40.679688 33.429688 41.433594 C 33.433594 41.792969 33.289062 42.140625 33.035156 42.398438 C 32.777344 42.65625 32.429688 42.800781 32.066406 42.800781 Z M 32.066406 42.792969 "/>
        <path style=" stroke:none;fill-rule:nonzero;fill:rgb(100%,100%,100%);fill-opacity:1;"
              d="M 27.359375 39.515625 L 28.28125 39.476562 L 28.222656 38.007812 L 27.265625 38.050781 C 27.164062 37.71875 27.007812 37.402344 26.808594 37.121094 L 27.445312 36.457031 L 26.378906 35.441406 L 25.714844 36.132812 C 25.414062 35.960938 25.082031 35.835938 24.742188 35.769531 L 24.742188 34.855469 L 23.265625 34.855469 L 23.265625 35.820312 C 22.851562 35.925781 22.464844 36.109375 22.125 36.359375 L 21.421875 35.710938 L 20.417969 36.789062 L 21.160156 37.476562 C 20.945312 37.886719 20.816406 38.335938 20.789062 38.796875 L 19.875 38.914062 L 20.058594 40.363281 L 21.011719 40.238281 C 21.140625 40.5625 21.320312 40.863281 21.546875 41.128906 L 20.96875 41.84375 L 22.117188 42.761719 L 22.71875 42.015625 C 23.035156 42.160156 23.375 42.253906 23.722656 42.292969 L 23.800781 43.203125 L 25.269531 43.078125 L 25.183594 42.125 C 25.515625 42.007812 25.820312 41.84375 26.097656 41.628906 L 26.789062 42.238281 L 27.757812 41.132812 L 27.035156 40.503906 C 27.195312 40.191406 27.304688 39.859375 27.359375 39.515625 Z M 24.054688 40.234375 C 23.300781 40.234375 22.691406 39.625 22.6875 38.871094 C 22.6875 38.121094 23.300781 37.511719 24.054688 37.511719 C 24.808594 37.511719 25.421875 38.121094 25.421875 38.875 C 25.417969 39.625 24.808594 40.234375 24.054688 40.234375 Z M 24.054688 40.234375 "/>
        <path style=" stroke:none;fill-rule:nonzero;fill:rgb(100%,100%,100%);fill-opacity:1;"
              d="M 38.402344 53.863281 L 18.164062 53.863281 C 17.953125 53.863281 17.78125 53.695312 17.78125 53.484375 L 17.78125 33.3125 C 17.78125 33.101562 17.953125 32.933594 18.164062 32.933594 L 38.402344 32.933594 C 38.613281 32.933594 38.78125 33.101562 38.78125 33.3125 L 38.78125 53.484375 C 38.78125 53.695312 38.613281 53.863281 38.402344 53.863281 Z M 18.539062 53.109375 L 38.015625 53.109375 L 38.015625 33.6875 L 18.539062 33.6875 Z M 18.539062 53.109375 "/>
        <path style=" stroke:none;fill-rule:nonzero;fill:rgb(100%,100%,100%);fill-opacity:1;"
              d="M 64.429688 53.863281 L 44.191406 53.863281 C 43.980469 53.863281 43.8125 53.695312 43.8125 53.484375 L 43.8125 33.3125 C 43.8125 33.101562 43.980469 32.933594 44.191406 32.933594 L 64.429688 32.933594 C 64.640625 32.933594 64.808594 33.101562 64.808594 33.3125 L 64.808594 53.484375 C 64.808594 53.695312 64.640625 53.863281 64.429688 53.863281 Z M 44.570312 53.109375 L 64.050781 53.109375 L 64.050781 33.6875 L 44.570312 33.6875 Z M 44.570312 53.109375 "/>
        <path style=" stroke:none;fill-rule:nonzero;fill:rgb(100%,100%,100%);fill-opacity:1;"
              d="M 90.683594 53.863281 L 70.445312 53.863281 C 70.234375 53.863281 70.066406 53.695312 70.0625 53.484375 L 70.0625 33.3125 C 70.0625 33.101562 70.234375 32.933594 70.445312 32.933594 L 90.683594 32.933594 C 90.894531 32.933594 91.0625 33.101562 91.0625 33.3125 L 91.0625 53.484375 C 91.0625 53.695312 90.894531 53.863281 90.683594 53.863281 Z M 70.832031 53.109375 L 90.304688 53.109375 L 90.304688 33.6875 L 70.832031 33.6875 Z M 70.832031 53.109375 "/>
        <path style=" stroke:none;fill-rule:nonzero;fill:rgb(100%,100%,100%);fill-opacity:1;"
              d="M 38.402344 83.011719 L 18.164062 83.011719 C 17.953125 83.011719 17.78125 82.84375 17.78125 82.632812 L 17.78125 62.460938 C 17.78125 62.25 17.953125 62.082031 18.164062 62.082031 L 38.402344 62.082031 C 38.613281 62.082031 38.78125 62.25 38.78125 62.460938 L 38.78125 82.632812 C 38.78125 82.839844 38.613281 83.011719 38.402344 83.011719 Z M 18.539062 82.253906 L 38.015625 82.253906 L 38.015625 62.839844 L 18.539062 62.839844 Z M 18.539062 82.253906 "/>
        <path style=" stroke:none;fill-rule:nonzero;fill:rgb(100%,100%,100%);fill-opacity:1;"
              d="M 64.429688 83.011719 L 44.191406 83.011719 C 43.980469 83.011719 43.8125 82.839844 43.8125 82.632812 L 43.8125 62.460938 C 43.8125 62.25 43.980469 62.082031 44.191406 62.082031 L 64.429688 62.082031 C 64.640625 62.082031 64.808594 62.25 64.808594 62.460938 L 64.808594 82.632812 C 64.808594 82.84375 64.640625 83.011719 64.429688 83.011719 Z M 44.570312 82.253906 L 64.050781 82.253906 L 64.050781 62.839844 L 44.570312 62.839844 Z M 44.570312 82.253906 "/>
        <path style=" stroke:none;fill-rule:nonzero;fill:rgb(100%,100%,100%);fill-opacity:1;"
              d="M 90.683594 83.011719 L 70.445312 83.011719 C 70.234375 83.011719 70.0625 82.84375 70.0625 82.632812 L 70.0625 62.460938 C 70.0625 62.25 70.234375 62.082031 70.445312 62.082031 L 90.683594 62.082031 C 90.894531 62.082031 91.0625 62.25 91.0625 62.460938 L 91.0625 82.632812 C 91.0625 82.839844 90.894531 83.011719 90.683594 83.011719 Z M 70.832031 82.253906 L 90.304688 82.253906 L 90.304688 62.839844 L 70.832031 62.839844 Z M 70.832031 82.253906 "/>
        <path style=" stroke:none;fill-rule:nonzero;fill:rgb(100%,100%,100%);fill-opacity:1;"
              d="M 83.753906 80.402344 L 78.402344 80.402344 C 77.6875 80.402344 77.105469 79.824219 77.105469 79.109375 L 77.105469 65.980469 C 77.105469 65.269531 77.6875 64.691406 78.402344 64.691406 L 83.753906 64.691406 C 84.472656 64.691406 85.050781 65.269531 85.050781 65.980469 L 85.050781 79.109375 C 85.050781 79.824219 84.472656 80.402344 83.753906 80.402344 Z M 78.402344 65.195312 C 77.964844 65.195312 77.613281 65.546875 77.613281 65.980469 L 77.613281 79.109375 C 77.613281 79.546875 77.964844 79.898438 78.402344 79.898438 L 83.753906 79.898438 C 84.191406 79.898438 84.546875 79.546875 84.546875 79.109375 L 84.546875 65.980469 C 84.546875 65.546875 84.191406 65.195312 83.753906 65.195312 Z M 78.402344 65.195312 "/>
        <path style=" stroke:none;fill-rule:nonzero;fill:rgb(96.470588%,96.470588%,96.470588%);fill-opacity:1;"
              d="M 77.929688 66.925781 L 84.230469 66.925781 L 84.230469 78.019531 L 77.929688 78.019531 Z M 77.929688 66.925781 "/>
        <path style=" stroke:none;fill-rule:nonzero;fill:rgb(96.470588%,96.470588%,96.470588%);fill-opacity:1;"
              d="M 81.554688 79.03125 C 81.554688 79.351562 81.292969 79.613281 80.972656 79.613281 C 80.652344 79.613281 80.394531 79.351562 80.394531 79.03125 C 80.394531 78.710938 80.652344 78.453125 80.972656 78.453125 C 81.292969 78.453125 81.554688 78.710938 81.554688 79.03125 Z M 81.554688 79.03125 "/>
        <path style=" stroke:none;fill-rule:nonzero;fill:rgb(96.470588%,96.470588%,96.470588%);fill-opacity:1;"
              d="M 81.824219 66.050781 L 80.273438 66.050781 C 80.222656 66.050781 80.179688 66.007812 80.179688 65.957031 C 80.183594 65.90625 80.222656 65.867188 80.273438 65.867188 L 81.824219 65.867188 C 81.875 65.867188 81.917969 65.90625 81.917969 65.957031 C 81.917969 66.007812 81.875 66.050781 81.824219 66.050781 Z M 81.824219 66.050781 "/>
        <path style=" stroke:none;fill-rule:nonzero;fill:rgb(100%,100%,100%);fill-opacity:1;"
              d="M 59.761719 80.160156 L 48.855469 80.160156 C 48.136719 80.160156 47.554688 79.578125 47.554688 78.863281 L 47.554688 66.230469 C 47.554688 65.515625 48.136719 64.933594 48.855469 64.933594 L 59.761719 64.933594 C 60.480469 64.933594 61.0625 65.515625 61.066406 66.230469 L 61.066406 78.863281 C 61.0625 79.578125 60.480469 80.160156 59.761719 80.160156 Z M 48.855469 65.691406 C 48.554688 65.691406 48.3125 65.933594 48.3125 66.230469 L 48.3125 78.863281 C 48.3125 79.160156 48.554688 79.402344 48.855469 79.402344 L 59.761719 79.402344 C 60.0625 79.402344 60.304688 79.160156 60.304688 78.863281 L 60.304688 66.230469 C 60.304688 65.933594 60.0625 65.691406 59.761719 65.691406 Z M 48.855469 65.691406 "/>
        <path style=" stroke:none;fill-rule:nonzero;fill:rgb(100%,100%,100%);fill-opacity:1;"
              d="M 60.6875 68.746094 L 48.28125 68.746094 C 48.082031 68.730469 47.921875 68.566406 47.921875 68.367188 C 47.921875 68.164062 48.082031 68 48.28125 67.988281 L 60.691406 67.988281 C 60.832031 67.980469 60.964844 68.050781 61.039062 68.167969 C 61.113281 68.289062 61.113281 68.441406 61.039062 68.5625 C 60.964844 68.683594 60.832031 68.753906 60.691406 68.746094 Z M 60.6875 68.746094 "/>
        <path style=" stroke:none;fill-rule:nonzero;fill:rgb(100%,100%,100%);fill-opacity:1;"
              d="M 50.808594 67.144531 C 50.65625 67.144531 50.519531 67.054688 50.460938 66.917969 L 49.445312 64.574219 C 49.386719 64.449219 49.402344 64.300781 49.484375 64.1875 C 49.566406 64.074219 49.703125 64.015625 49.839844 64.035156 C 49.976562 64.054688 50.09375 64.144531 50.144531 64.273438 L 51.15625 66.617188 C 51.199219 66.710938 51.199219 66.8125 51.160156 66.90625 C 51.125 67 51.050781 67.074219 50.960938 67.113281 C 50.910156 67.136719 50.859375 67.144531 50.808594 67.144531 Z M 50.808594 67.144531 "/>
        <path style=" stroke:none;fill-rule:nonzero;fill:rgb(100%,100%,100%);fill-opacity:1;"
              d="M 52.78125 67.144531 C 52.628906 67.144531 52.488281 67.054688 52.429688 66.917969 L 51.417969 64.574219 C 51.359375 64.449219 51.371094 64.300781 51.453125 64.1875 C 51.535156 64.074219 51.671875 64.015625 51.808594 64.035156 C 51.949219 64.054688 52.066406 64.144531 52.117188 64.273438 L 53.121094 66.621094 C 53.164062 66.714844 53.164062 66.820312 53.128906 66.910156 C 53.089844 67.003906 53.015625 67.078125 52.921875 67.117188 C 52.878906 67.136719 52.828125 67.148438 52.78125 67.144531 Z M 52.78125 67.144531 "/>
        <path style=" stroke:none;fill-rule:nonzero;fill:rgb(100%,100%,100%);fill-opacity:1;"
              d="M 54.75 67.144531 C 54.597656 67.144531 54.460938 67.054688 54.402344 66.917969 L 53.386719 64.574219 C 53.316406 64.445312 53.324219 64.292969 53.40625 64.171875 C 53.488281 64.054688 53.632812 63.992188 53.773438 64.015625 C 53.917969 64.035156 54.035156 64.136719 54.082031 64.273438 L 55.09375 66.617188 C 55.132812 66.710938 55.132812 66.8125 55.097656 66.90625 C 55.058594 67 54.988281 67.074219 54.894531 67.113281 C 54.847656 67.132812 54.800781 67.144531 54.75 67.144531 Z M 54.75 67.144531 "/>
        <path style=" stroke:none;fill-rule:nonzero;fill:rgb(100%,100%,100%);fill-opacity:1;"
              d="M 56.71875 67.144531 C 56.566406 67.144531 56.429688 67.054688 56.371094 66.917969 L 55.359375 64.574219 C 55.289062 64.445312 55.292969 64.292969 55.375 64.171875 C 55.457031 64.054688 55.601562 63.992188 55.746094 64.015625 C 55.886719 64.035156 56.007812 64.136719 56.050781 64.273438 L 57.0625 66.617188 C 57.144531 66.808594 57.058594 67.03125 56.863281 67.113281 C 56.820312 67.132812 56.769531 67.144531 56.71875 67.144531 Z M 56.71875 67.144531 "/>
        <path style=" stroke:none;fill-rule:nonzero;fill:rgb(100%,100%,100%);fill-opacity:1;"
              d="M 58.691406 67.144531 C 58.539062 67.144531 58.402344 67.054688 58.339844 66.917969 L 57.328125 64.574219 C 57.257812 64.445312 57.265625 64.292969 57.347656 64.171875 C 57.429688 64.054688 57.570312 63.992188 57.714844 64.015625 C 57.859375 64.035156 57.976562 64.136719 58.019531 64.273438 L 59.03125 66.617188 C 59.117188 66.808594 59.027344 67.03125 58.835938 67.113281 C 58.789062 67.136719 58.738281 67.144531 58.691406 67.144531 Z M 58.691406 67.144531 "/>
        <path style=" stroke:none;fill-rule:nonzero;fill:rgb(100%,100%,100%);fill-opacity:1;"
              d="M 58.167969 71.183594 L 50.792969 71.183594 C 50.652344 71.191406 50.519531 71.121094 50.445312 71 C 50.371094 70.878906 50.371094 70.730469 50.445312 70.609375 C 50.519531 70.488281 50.652344 70.417969 50.792969 70.425781 L 58.167969 70.425781 C 58.371094 70.4375 58.527344 70.605469 58.527344 70.804688 C 58.527344 71.003906 58.371094 71.171875 58.167969 71.183594 Z M 58.167969 71.183594 "/>
        <path style=" stroke:none;fill-rule:nonzero;fill:rgb(100%,100%,100%);fill-opacity:1;"
              d="M 58.167969 72.847656 L 50.792969 72.847656 C 50.652344 72.859375 50.519531 72.789062 50.445312 72.667969 C 50.371094 72.546875 50.371094 72.394531 50.445312 72.273438 C 50.519531 72.152344 50.652344 72.082031 50.792969 72.09375 L 58.167969 72.09375 C 58.371094 72.105469 58.527344 72.269531 58.527344 72.472656 C 58.527344 72.671875 58.371094 72.835938 58.167969 72.847656 Z M 58.167969 72.847656 "/>
        <path style=" stroke:none;fill-rule:nonzero;fill:rgb(100%,100%,100%);fill-opacity:1;"
              d="M 58.167969 74.515625 L 50.792969 74.515625 C 50.652344 74.523438 50.519531 74.453125 50.445312 74.335938 C 50.371094 74.214844 50.371094 74.0625 50.445312 73.941406 C 50.519531 73.820312 50.652344 73.75 50.792969 73.757812 L 58.167969 73.757812 C 58.371094 73.773438 58.527344 73.9375 58.527344 74.136719 C 58.527344 74.339844 58.371094 74.503906 58.167969 74.515625 Z M 58.167969 74.515625 "/>
        <path style=" stroke:none;fill-rule:nonzero;fill:rgb(100%,100%,100%);fill-opacity:1;"
              d="M 58.167969 76.183594 L 50.792969 76.183594 C 50.652344 76.191406 50.519531 76.121094 50.445312 76 C 50.371094 75.878906 50.371094 75.726562 50.445312 75.609375 C 50.519531 75.488281 50.652344 75.417969 50.792969 75.425781 L 58.167969 75.425781 C 58.371094 75.4375 58.527344 75.601562 58.527344 75.804688 C 58.527344 76.003906 58.371094 76.171875 58.167969 76.183594 Z M 58.167969 76.183594 "/>
        <path style=" stroke:none;fill-rule:nonzero;fill:rgb(100%,100%,100%);fill-opacity:1;"
              d="M 28.160156 80.003906 C 24.195312 80 20.980469 76.792969 20.980469 72.835938 C 20.984375 68.878906 24.203125 65.675781 28.171875 65.675781 C 32.140625 65.679688 35.355469 68.886719 35.355469 72.84375 C 35.351562 76.800781 32.132812 80.003906 28.160156 80.003906 Z M 28.160156 66.183594 C 24.472656 66.183594 21.480469 69.164062 21.480469 72.84375 C 21.480469 76.519531 24.472656 79.5 28.160156 79.5 C 31.851562 79.5 34.84375 76.519531 34.84375 72.84375 C 34.839844 69.167969 31.851562 66.1875 28.160156 66.183594 Z M 28.160156 66.183594 "/>
        <path style=" stroke:none;fill-rule:nonzero;fill:rgb(100%,100%,100%);fill-opacity:1;"
              d="M 27.625 73.59375 C 27.542969 73.589844 27.464844 73.5625 27.40625 73.507812 C 27.34375 73.449219 27.285156 73.382812 27.230469 73.316406 C 27.101562 73.167969 26.839844 72.859375 26.675781 72.835938 C 26.585938 72.828125 26.492188 72.824219 26.398438 72.824219 C 26.078125 72.824219 25.632812 72.824219 25.375 72.441406 C 25.105469 72.039062 24.765625 71.695312 24.367188 71.425781 C 23.75 71.042969 23.332031 70.40625 23.21875 69.6875 C 23.15625 69.273438 22.964844 68.886719 22.679688 68.574219 L 22.523438 68.421875 L 22.652344 68.242188 C 22.683594 68.203125 23.394531 67.261719 24.867188 66.472656 C 26.304688 65.699219 28.03125 65.679688 28.222656 65.679688 L 29.207031 65.679688 L 28.375 66.140625 C 28.417969 66.183594 28.464844 66.21875 28.515625 66.25 C 29.003906 66.558594 29.273438 67.214844 29.175781 67.570312 C 29.152344 67.671875 29.09375 67.757812 29.011719 67.816406 C 29.214844 67.96875 29.394531 68.144531 29.550781 68.339844 C 29.597656 68.398438 29.648438 68.457031 29.699219 68.511719 C 29.792969 68.617188 29.84375 68.753906 29.835938 68.894531 C 29.8125 69.308594 29.378906 69.722656 28.765625 70.273438 C 28.605469 70.410156 28.453125 70.550781 28.359375 70.652344 C 28.042969 70.996094 28.050781 71.042969 28.105469 71.355469 L 28.117188 71.425781 C 28.152344 71.644531 28.15625 71.796875 28.058594 71.914062 C 28 71.980469 27.917969 72.019531 27.832031 72.019531 C 27.683594 72.019531 27.5625 71.917969 27.425781 71.789062 C 27.214844 71.59375 27.007812 71.589844 26.691406 71.730469 C 26.554688 71.792969 26.554688 71.859375 26.554688 71.882812 C 26.550781 71.941406 26.570312 72 26.609375 72.042969 C 26.792969 72.097656 27.5 72.3125 27.792969 72.640625 C 27.980469 72.839844 28.039062 73.125 27.945312 73.378906 C 27.894531 73.511719 27.765625 73.59375 27.625 73.59375 Z M 23.1875 68.390625 C 23.464844 68.746094 23.648438 69.167969 23.71875 69.613281 C 23.808594 70.179688 24.140625 70.683594 24.628906 70.992188 C 25.085938 71.300781 25.480469 71.691406 25.789062 72.152344 C 25.867188 72.261719 25.988281 72.296875 26.171875 72.308594 C 26.09375 72.203125 26.050781 72.074219 26.039062 71.945312 C 26.019531 71.644531 26.199219 71.371094 26.480469 71.265625 C 26.90625 71.074219 27.261719 71.074219 27.574219 71.265625 C 27.535156 70.929688 27.597656 70.714844 27.980469 70.300781 C 28.09375 70.179688 28.257812 70.039062 28.421875 69.886719 C 28.734375 69.609375 29.3125 69.089844 29.324219 68.855469 C 29.265625 68.78125 29.214844 68.71875 29.160156 68.660156 C 28.847656 68.289062 28.570312 67.992188 28.089844 68.105469 C 27.957031 68.140625 27.820312 68.15625 27.683594 68.15625 C 27.320312 68.15625 26.851562 68.019531 26.679688 67.347656 C 26.652344 67.257812 26.625 67.171875 26.585938 67.085938 C 26.488281 66.832031 26.394531 66.589844 26.503906 66.394531 C 26.015625 66.507812 25.546875 66.679688 25.101562 66.910156 C 24.382812 67.292969 23.734375 67.792969 23.1875 68.390625 Z M 26.996094 66.738281 C 27.015625 66.792969 27.042969 66.855469 27.058594 66.902344 C 27.101562 67.007812 27.140625 67.113281 27.171875 67.222656 C 27.273438 67.625 27.515625 67.722656 27.976562 67.617188 C 28.050781 67.601562 28.125 67.589844 28.199219 67.582031 C 28.117188 67.519531 28.027344 67.445312 27.921875 67.363281 C 27.632812 67.125 27.265625 66.824219 26.996094 66.742188 Z M 27.179688 66.265625 C 27.535156 66.386719 27.914062 66.699219 28.25 66.972656 C 28.386719 67.085938 28.550781 67.222656 28.675781 67.304688 C 28.609375 67.046875 28.457031 66.824219 28.242188 66.671875 C 28.011719 66.527344 27.882812 66.367188 27.855469 66.191406 C 27.675781 66.207031 27.445312 66.230469 27.179688 66.269531 Z M 27.179688 66.265625 "/>
        <path style=" stroke:none;fill-rule:nonzero;fill:rgb(100%,100%,100%);fill-opacity:1;"
              d="M 29.136719 79.585938 C 28.792969 79.585938 28.371094 79.335938 28.300781 78.640625 C 28.285156 78.253906 28.328125 77.867188 28.425781 77.492188 C 28.523438 77.128906 28.566406 76.753906 28.554688 76.378906 C 28.519531 75.996094 28.292969 75.742188 28.054688 75.480469 C 27.882812 75.308594 27.742188 75.109375 27.640625 74.886719 C 27.546875 74.667969 27.535156 74.425781 27.605469 74.199219 C 27.644531 74.109375 27.640625 74.007812 27.597656 73.921875 C 27.460938 73.695312 27.289062 73.492188 27.085938 73.324219 C 26.988281 73.230469 26.886719 73.136719 26.785156 73.03125 C 26.59375 72.828125 26.605469 72.660156 26.648438 72.554688 C 26.71875 72.386719 26.90625 72.300781 27.203125 72.300781 L 27.308594 72.300781 L 27.359375 72.324219 C 27.824219 72.558594 28.316406 72.742188 28.820312 72.875 C 29.183594 72.957031 29.53125 73.105469 29.839844 73.308594 C 30.015625 73.425781 30.199219 73.53125 30.390625 73.621094 C 30.589844 73.71875 30.773438 73.789062 30.9375 73.851562 C 31.398438 74.027344 31.796875 74.179688 31.8125 74.691406 C 31.835938 75.285156 30.617188 77.023438 30.101562 77.269531 C 29.730469 77.449219 29.1875 78.296875 29.207031 78.5 C 29.441406 78.992188 29.53125 79.226562 29.429688 79.414062 C 29.382812 79.496094 29.300781 79.554688 29.203125 79.566406 C 29.183594 79.574219 29.160156 79.578125 29.136719 79.585938 Z M 27.363281 72.894531 L 27.429688 72.957031 C 27.679688 73.164062 27.886719 73.417969 28.046875 73.699219 C 28.140625 73.890625 28.160156 74.113281 28.09375 74.316406 C 28.046875 74.441406 28.050781 74.582031 28.105469 74.703125 C 28.1875 74.867188 28.296875 75.015625 28.429688 75.140625 C 28.6875 75.425781 29.011719 75.78125 29.058594 76.335938 C 29.074219 76.757812 29.027344 77.183594 28.921875 77.59375 C 28.886719 77.753906 28.855469 77.910156 28.832031 78.058594 C 29.0625 77.550781 29.574219 76.976562 29.886719 76.828125 C 30.273438 76.640625 31.324219 75.085938 31.3125 74.71875 C 31.3125 74.566406 31.230469 74.515625 30.757812 74.332031 C 30.589844 74.265625 30.394531 74.195312 30.179688 74.089844 C 29.964844 73.988281 29.761719 73.875 29.566406 73.746094 C 29.300781 73.566406 29.003906 73.441406 28.6875 73.375 C 28.234375 73.253906 27.792969 73.089844 27.363281 72.894531 Z M 27.363281 72.894531 "/>
        <path style=" stroke:none;fill-rule:nonzero;fill:rgb(100%,100%,100%);fill-opacity:1;"
              d="M 34.121094 76.75 L 34.203125 75.726562 C 34.203125 75.714844 34.273438 74.785156 33.933594 74.269531 C 33.8125 74.085938 33.53125 74.058594 33.078125 74.042969 C 32.628906 74.027344 32.148438 74.007812 31.769531 73.699219 C 31.21875 73.25 31.144531 72.664062 31.078125 72.097656 C 31.054688 71.910156 31.03125 71.714844 30.988281 71.519531 C 30.945312 71.296875 30.832031 71.089844 30.664062 70.933594 C 30.441406 70.730469 30.316406 70.445312 30.320312 70.144531 C 30.296875 67.863281 32.605469 67.351562 32.628906 67.347656 L 32.738281 67.324219 L 32.828125 67.390625 C 33.695312 67.996094 35.078125 69.828125 35.417969 72.003906 C 35.605469 73.34375 35.34375 74.707031 34.667969 75.878906 Z M 32.628906 67.863281 C 32.222656 67.980469 30.804688 68.5 30.828125 70.132812 C 30.828125 70.308594 30.90625 70.476562 31.042969 70.585938 C 31.269531 70.808594 31.425781 71.09375 31.488281 71.40625 C 31.53125 71.613281 31.5625 71.824219 31.585938 72.03125 C 31.652344 72.5625 31.703125 72.980469 32.097656 73.304688 C 32.34375 73.503906 32.734375 73.519531 33.105469 73.535156 C 33.589844 73.550781 34.089844 73.570312 34.367188 73.988281 C 34.503906 74.214844 34.597656 74.464844 34.640625 74.726562 C 34.953125 73.878906 35.046875 72.96875 34.917969 72.078125 C 34.613281 70.152344 33.40625 68.476562 32.628906 67.863281 Z M 32.628906 67.863281 "/>
        <g clip-path="url(#clip3)" clip-rule="nonzero">
            <use xlink:href="#surface8" mask="url(#mask1)"/>
        </g>
        <path style=" stroke:none;fill-rule:nonzero;fill:rgb(0%,0%,0%);fill-opacity:1;"
              d="M 82.75 56.703125 L 83.054688 56.015625 L 94.230469 60.949219 L 93.925781 61.632812 Z M 82.75 56.703125 "/>
        <path style=" stroke:none;fill-rule:nonzero;fill:rgb(97.254902%,87.843137%,69.019608%);fill-opacity:1;"
              d="M 91.296875 47.277344 L 112.933594 51.984375 C 102.992188 70.515625 104.777344 81.75 105.402344 84.332031 C 104.71875 84.105469 104.007812 83.996094 103.289062 83.996094 C 102.011719 83.996094 100.882812 84.59375 100.039062 85.492188 C 99.621094 85.414062 99.199219 85.375 98.777344 85.375 C 98.597656 85.375 98.417969 85.386719 98.238281 85.410156 C 97.335938 84.730469 96.253906 84.320312 95.125 84.226562 C 95.003906 83.921875 94.851562 83.628906 94.671875 83.351562 C 94.546875 81.925781 93.804688 80.625 92.636719 79.789062 L 92.589844 78.925781 L 79.648438 69.171875 C 84.671875 65.828125 91.296875 47.277344 91.296875 47.277344 Z M 91.296875 47.277344 "/>
        <path style=" stroke:none;fill-rule:nonzero;fill:rgb(94.509804%,74.117647%,56.078431%);fill-opacity:1;"
              d="M 103.351562 89.953125 C 103.351562 90.042969 108.238281 79.835938 108.238281 79.835938 C 108.238281 79.835938 104.128906 74.496094 115.535156 53.222656 L 91.296875 47.269531 C 91.296875 47.269531 84.671875 65.820312 79.648438 69.15625 C 78.511719 74.871094 86.742188 76.628906 91.320312 79.816406 C 91.320312 79.816406 91.003906 79.917969 91.566406 82.148438 C 92.128906 84.378906 93.75 86.316406 93.835938 86.34375 C 93.925781 86.371094 97.222656 88.410156 97.222656 88.410156 L 100.207031 91.519531 L 102.046875 90.433594 L 102.992188 89.699219 L 104.140625 85.183594 "/>
        <path style=" stroke:none;fill-rule:nonzero;fill:rgb(97.254902%,87.843137%,69.019608%);fill-opacity:1;"
              d="M 79.648438 69.164062 C 84.277344 66.089844 90.261719 50.109375 91.175781 47.605469 L 91.296875 47.582031 L 96.457031 51.390625 C 96.457031 51.390625 90.449219 57.484375 89.367188 60.289062 C 88.285156 63.09375 87.984375 64.359375 85.691406 64.140625 C 83.398438 63.921875 84.085938 65.355469 85.125 65.648438 C 85.703125 65.792969 86.296875 65.867188 86.894531 65.867188 C 86.894531 65.867188 84.957031 67.453125 84.828125 67.828125 C 84.699219 68.203125 84.664062 69.105469 84.664062 69.105469 C 84.664062 69.105469 80.894531 70.398438 81.679688 74.246094 C 79.421875 72.199219 79.359375 70.542969 79.648438 69.164062 Z M 79.648438 69.164062 "/>
        <path style=" stroke:none;fill-rule:nonzero;fill:rgb(0%,0.392157%,0%);fill-opacity:1;"
              d="M 108.089844 53.917969 L 102.363281 75.035156 L 103.585938 76.667969 L 109.707031 66.050781 L 118.667969 51.363281 L 112.933594 51.992188 C 112.933594 51.992188 104.492188 49.820312 100.242188 44.617188 C 95.992188 39.410156 89.441406 33.839844 83.792969 37.828125 C 78.148438 41.816406 80.640625 49.640625 86.847656 50.652344 C 93.058594 51.664062 108.089844 53.917969 108.089844 53.917969 Z M 108.089844 53.917969 "/>
        <path style=" stroke:none;fill-rule:nonzero;fill:rgb(99.215686%,100%,100%);fill-opacity:1;"
              d="M 91.371094 60.867188 C 91.148438 61.253906 91.449219 61.84375 92.046875 62.183594 C 92.644531 62.527344 93.308594 62.492188 93.53125 62.105469 C 93.753906 61.722656 93.449219 61.132812 92.851562 60.789062 C 92.253906 60.445312 91.59375 60.480469 91.371094 60.867188 Z M 91.371094 60.867188 "/>
        <path style=" stroke:none;fill-rule:nonzero;fill:rgb(8.627451%,8.627451%,7.45098%);fill-opacity:1;"
              d="M 91.859375 61.144531 C 91.75 61.332031 91.925781 61.644531 92.257812 61.832031 C 92.589844 62.023438 92.949219 62.023438 93.054688 61.832031 C 93.160156 61.644531 92.984375 61.332031 92.65625 61.144531 C 92.328125 60.953125 91.960938 60.953125 91.859375 61.144531 Z M 91.859375 61.144531 "/>
        <path style=" stroke:none;fill-rule:nonzero;fill:rgb(99.215686%,100%,100%);fill-opacity:1;"
              d="M 85.871094 58.144531 C 85.644531 58.53125 85.949219 59.121094 86.542969 59.460938 C 87.140625 59.804688 87.804688 59.773438 88.027344 59.386719 C 88.246094 59 87.949219 58.410156 87.351562 58.066406 C 86.753906 57.722656 86.09375 57.757812 85.871094 58.144531 Z M 85.871094 58.144531 "/>
        <path style=" stroke:none;fill-rule:nonzero;fill:rgb(3.921569%,3.921569%,3.529412%);fill-opacity:1;"
              d="M 86.429688 58.46875 C 86.335938 58.628906 86.492188 58.894531 86.777344 59.058594 C 87.0625 59.222656 87.371094 59.222656 87.46875 59.058594 C 87.570312 58.894531 87.40625 58.632812 87.121094 58.46875 C 86.835938 58.304688 86.523438 58.304688 86.429688 58.46875 Z M 86.429688 58.46875 "/>
        <path style=" stroke:none;fill-rule:nonzero;fill:rgb(0%,0.392157%,0%);fill-opacity:1;"
              d="M 91.71875 59.925781 C 91.71875 60.09375 91.855469 60.230469 92.027344 60.230469 L 95.179688 60.230469 C 95.347656 60.230469 95.484375 60.09375 95.484375 59.925781 C 95.484375 59.757812 95.347656 59.621094 95.179688 59.621094 L 92.023438 59.621094 C 91.855469 59.621094 91.71875 59.757812 91.71875 59.925781 Z M 91.71875 59.925781 "/>
        <path style=" stroke:none;fill-rule:nonzero;fill:rgb(0%,0.392157%,0%);fill-opacity:1;"
              d="M 86.03125 55.96875 C 85.980469 56.035156 85.960938 56.113281 85.972656 56.195312 C 85.980469 56.273438 86.023438 56.347656 86.089844 56.398438 L 88.589844 58.3125 C 88.722656 58.414062 88.914062 58.390625 89.019531 58.257812 C 89.066406 58.191406 89.089844 58.113281 89.078125 58.03125 C 89.066406 57.953125 89.027344 57.878906 88.960938 57.828125 L 86.464844 55.914062 C 86.328125 55.8125 86.136719 55.835938 86.03125 55.96875 Z M 86.03125 55.96875 "/>
        <path style=" stroke:none;fill-rule:nonzero;fill:rgb(0%,0%,0%);fill-opacity:1;"
              d="M 96.296875 63.183594 L 96.601562 62.5 L 106.597656 66.910156 L 106.292969 67.597656 Z M 96.296875 63.183594 "/>
        <path style=" stroke:none;fill-rule:nonzero;fill:rgb(94.509804%,74.117647%,56.078431%);fill-opacity:1;"
              d="M 106.464844 66.679688 C 106.464844 66.679688 110.039062 62.679688 111.542969 64.679688 C 113.050781 66.679688 107.886719 71.414062 105.335938 71.035156 C 102.785156 70.65625 106.035156 67.125 106.464844 66.679688 Z M 106.464844 66.679688 "/>
        <path style=" stroke:none;fill-rule:nonzero;fill:rgb(97.254902%,87.843137%,69.019608%);fill-opacity:1;"
              d="M 108.949219 66.257812 C 108.949219 66.257812 105.277344 68.648438 105.730469 69.324219 C 106.183594 70.003906 107.023438 69.464844 106.855469 69.089844 C 106.691406 68.71875 106.621094 68.550781 106.621094 68.550781 C 106.621094 68.550781 108.410156 66.328125 108.949219 66.257812 Z M 108.949219 66.257812 "/>
        <path style=" stroke:none;fill-rule:nonzero;fill:rgb(0%,0.392157%,0%);fill-opacity:1;"
              d="M 85.566406 66.886719 C 85.566406 66.886719 89.863281 66.183594 90.339844 70.117188 C 90.8125 74.054688 94.140625 72.289062 94.140625 72.289062 C 94.140625 72.289062 89.8125 75.109375 88.574219 72.683594 C 87.332031 70.257812 87.457031 69.671875 85.890625 69.191406 C 84.324219 68.714844 83.84375 67.261719 85.566406 66.886719 Z M 85.566406 66.886719 "/>
        <path style=" stroke:none;fill-rule:nonzero;fill:rgb(0%,0.392157%,0%);fill-opacity:1;"
              d="M 85.472656 66.609375 C 85.472656 66.609375 82.550781 63.390625 79.71875 66.175781 C 76.882812 68.957031 75.386719 65.511719 75.386719 65.511719 C 75.386719 65.511719 77.011719 70.40625 79.496094 69.277344 C 81.976562 68.148438 82.253906 67.613281 83.773438 68.210938 C 85.296875 68.808594 86.585938 67.96875 85.472656 66.609375 Z M 85.472656 66.609375 "/>
        <path style=" stroke:none;fill-rule:nonzero;fill:rgb(76.078431%,83.921569%,80.784314%);fill-opacity:1;"
              d="M 108.347656 82.027344 L 125.855469 107.074219 L 112.246094 123.375 L 109.253906 115.875 L 117.617188 106.996094 C 117.617188 106.996094 112.894531 100.945312 108.683594 96.042969 Z M 108.347656 82.027344 "/>
        <path style=" stroke:none;fill-rule:nonzero;fill:rgb(76.078431%,83.921569%,80.784314%);fill-opacity:1;"
              d="M 91.191406 96.503906 L 91.914062 122.476562 L 108.671875 122.710938 L 109.222656 83.59375 L 106.984375 82.808594 L 103.136719 90.242188 L 100.207031 91.628906 L 97.339844 89.3125 L 92.777344 87.933594 L 91.566406 85.421875 "/>
        <path style=" stroke:none;fill-rule:nonzero;fill:rgb(39.215686%,44.705882%,45.098039%);fill-opacity:1;"
              d="M 108.238281 79.835938 L 102.589844 85.46875 L 100.160156 91.183594 L 97.253906 86.878906 C 97.253906 86.878906 92.699219 84.921875 91.210938 79.835938 C 91.210938 79.835938 90.65625 90.164062 95.914062 94.78125 L 98.113281 90.945312 L 100.035156 92.050781 L 102.898438 90.289062 L 106.195312 93.964844 C 106.195312 93.964844 106.390625 85.277344 109.21875 83.597656 C 109.054688 82.308594 108.726562 81.042969 108.238281 79.835938 Z M 108.238281 79.835938 "/>
        <path style=" stroke:none;fill-rule:nonzero;fill:rgb(94.509804%,74.117647%,56.078431%);fill-opacity:1;"
              d="M 109.253906 115.875 L 108.039062 116.226562 L 105.132812 115.210938 L 103.5625 116.578125 L 103.5625 118.691406 L 104.664062 119.632812 L 108.589844 118.378906 L 110.621094 119.304688 Z M 109.253906 115.875 "/>
        <path style=" stroke:none;fill-rule:nonzero;fill:rgb(89.411765%,71.372549%,52.54902%);fill-opacity:1;"
              d="M 91.875 121.96875 L 108.683594 121.96875 L 108.683594 123.730469 L 91.875 123.730469 Z M 91.875 121.96875 "/>
        <path style=" stroke:none;fill-rule:nonzero;fill:rgb(94.901961%,94.901961%,91.372549%);fill-opacity:1;"
              d="M 98.617188 121.128906 L 101.796875 121.128906 L 101.796875 124.296875 L 98.617188 124.296875 Z M 98.617188 121.128906 "/>
        <g clip-path="url(#clip5)" clip-rule="nonzero">
            <path style=" stroke:none;fill-rule:nonzero;fill:rgb(50.588235%,61.568627%,50.980392%);fill-opacity:1;"
                  d="M 108.683594 127.980469 L 108.683594 123.730469 L 91.875 123.730469 L 91.953125 127.980469 Z M 108.683594 127.980469 "/>
        </g>
        <g clip-path="url(#clip6)" clip-rule="nonzero">
            <path style=" stroke:none;fill-rule:nonzero;fill:rgb(36.470588%,36.470588%,36.470588%);fill-opacity:1;"
                  d="M 106.152344 127.984375 L 106.917969 127.984375 C 104.566406 126.132812 104.195312 123.734375 104.195312 123.734375 L 103.667969 123.734375 C 103.929688 125.613281 105.042969 127.019531 106.152344 127.984375 Z M 106.152344 127.984375 "/>
        </g>
        <g clip-path="url(#clip7)" clip-rule="nonzero">
            <path style=" stroke:none;fill-rule:nonzero;fill:rgb(36.470588%,36.470588%,36.470588%);fill-opacity:1;"
                  d="M 94.097656 127.984375 C 95.042969 127.019531 95.984375 125.617188 96.207031 123.734375 L 95.757812 123.734375 C 95.464844 125.359375 94.65625 126.847656 93.453125 127.984375 Z M 94.097656 127.984375 "/>
        </g>
        <g clip-path="url(#clip8)" clip-rule="nonzero">
            <path style=" stroke:none;fill-rule:nonzero;fill:rgb(36.470588%,36.470588%,36.470588%);fill-opacity:1;"
                  d="M 99.253906 127.984375 C 99.199219 126.789062 99.273438 125.246094 99.761719 123.734375 C 99.761719 123.734375 98.78125 125.421875 99.03125 127.984375 Z M 99.253906 127.984375 "/>
        </g>
        <path style=" stroke:none;fill-rule:nonzero;fill:rgb(99.215686%,79.215686%,62.352941%);fill-opacity:1;"
              d="M 65.179688 91.796875 L 63.714844 91.382812 C 63.1875 91.125 62.785156 90.664062 62.601562 90.105469 L 61.976562 88.199219 L 64.800781 88.914062 L 65.800781 90.957031 Z M 65.179688 91.796875 "/>
        <path style=" stroke:none;fill-rule:nonzero;fill:rgb(99.215686%,79.215686%,62.352941%);fill-opacity:1;"
              d="M 67.796875 93.699219 C 67.570312 93.992188 67.332031 94.277344 67.09375 94.554688 C 66.382812 93.6875 65.746094 92.765625 65.179688 91.796875 L 66.765625 88.722656 L 69.617188 90.238281 C 69.398438 91.5 68.546875 92.726562 67.796875 93.699219 Z M 67.796875 93.699219 "/>
        <path style=" stroke:none;fill-rule:nonzero;fill:rgb(0%,0.392157%,0%);fill-opacity:1;"
              d="M 65.058594 88.152344 C 65.210938 87.953125 50.046875 71.101562 50.046875 71.101562 L 48.742188 71.644531 L 63.328125 90.203125 Z M 65.058594 88.152344 "/>
        <path style=" stroke:none;fill-rule:nonzero;fill:rgb(99.215686%,79.215686%,62.352941%);fill-opacity:1;"
              d="M 66.765625 88.71875 C 66.765625 88.71875 65.9375 87.3125 65.054688 86.097656 C 64.328125 85.089844 62.113281 86.550781 62.390625 87.238281 C 62.71875 88.066406 64.605469 87.488281 64.605469 87.488281 C 64.605469 87.488281 62.703125 90.082031 65.835938 90.8125 C 68.972656 91.542969 66.765625 88.71875 66.765625 88.71875 Z M 66.765625 88.71875 "/>
        <path style=" stroke:none;fill-rule:nonzero;fill:rgb(99.215686%,79.215686%,62.352941%);fill-opacity:1;"
              d="M 62.78125 87.910156 C 63.140625 88.773438 60.863281 89.433594 60.769531 88.722656 C 60.671875 88.011719 62.425781 87.050781 62.78125 87.910156 Z M 62.78125 87.910156 "/>
        <path style=" stroke:none;fill-rule:nonzero;fill:rgb(99.215686%,79.215686%,62.352941%);fill-opacity:1;"
              d="M 62.925781 88.980469 C 63.28125 89.839844 61.003906 90.503906 60.910156 89.792969 C 60.816406 89.078125 62.566406 88.121094 62.925781 88.980469 Z M 62.925781 88.980469 "/>
        <path style=" stroke:none;fill-rule:nonzero;fill:rgb(99.215686%,79.215686%,62.352941%);fill-opacity:1;"
              d="M 63.398438 89.824219 C 63.757812 90.683594 61.839844 91.300781 61.738281 90.589844 C 61.640625 89.875 63.042969 88.960938 63.398438 89.824219 Z M 63.398438 89.824219 "/>
        <path style=" stroke:none;fill-rule:nonzero;fill:rgb(76.078431%,83.921569%,80.784314%);fill-opacity:1;"
              d="M 91.566406 85.421875 L 78.890625 94.292969 L 69.402344 88.710938 C 69.402344 88.710938 65.589844 91.421875 65.28125 95.300781 C 65.28125 95.300781 76.792969 102.433594 78.503906 102.585938 C 80.214844 102.742188 91.566406 94.78125 91.566406 94.78125 Z M 91.566406 85.421875 "/>
        <path style=" stroke:none;fill-rule:nonzero;fill:rgb(0%,0.392157%,0%);fill-opacity:1;"
              d="M 100.972656 93.136719 L 103.144531 101.363281 L 100.3125 105.847656 L 98.195312 101.679688 L 99.339844 93.136719 Z M 100.972656 93.136719 "/>
        <path style=" stroke:none;fill-rule:nonzero;fill:rgb(75.686275%,75.686275%,75.686275%);fill-opacity:1;"
              d="M 109.222656 83.59375 C 109.222656 83.59375 105.589844 85.742188 106.199219 93.960938 C 106.199219 93.960938 106.480469 86.367188 109.222656 83.59375 Z M 109.222656 83.59375 "/>
        <path style=" stroke:none;fill-rule:nonzero;fill:rgb(75.686275%,75.686275%,75.686275%);fill-opacity:1;"
              d="M 91.566406 85.421875 C 91.566406 85.421875 91.964844 90.816406 95.917969 94.78125 C 95.917969 94.78125 91.941406 91.914062 91.566406 85.421875 Z M 91.566406 85.421875 "/>
        <path style=" stroke:none;fill-rule:nonzero;fill:rgb(0%,0.392157%,0%);fill-opacity:1;"
              d="M 102.902344 90.28125 L 104.007812 91.515625 L 100.496094 94.445312 L 96.785156 93.265625 L 98.113281 90.945312 L 100.023438 92.191406 L 103.136719 90.242188 "/>
        <path style=" stroke:none;fill-rule:nonzero;fill:rgb(0%,0%,0%);fill-opacity:1;"
              d="M 89.011719 62.105469 L 90.597656 57.660156 L 97.53125 60.789062 L 95.949219 65.0625 Z M 90.875 58.300781 L 89.605469 61.84375 L 95.683594 64.4375 L 96.941406 61.039062 Z M 90.875 58.300781 "/>
        <path style=" stroke:none;fill-rule:nonzero;fill:rgb(0%,0%,0%);fill-opacity:1;"
              d="M 81.628906 58.988281 L 83.21875 54.542969 L 90.152344 57.671875 L 88.574219 61.949219 Z M 83.492188 55.183594 L 82.222656 58.730469 L 88.300781 61.320312 L 89.558594 57.921875 Z M 83.492188 55.183594 "/>
        <path style=" stroke:none;fill-rule:nonzero;fill:rgb(63.529412%,62.352941%,69.019608%);fill-opacity:1;"
              d="M 112.089844 118.828125 C 112.191406 119.195312 111.976562 119.574219 111.613281 119.679688 L 96.550781 123.941406 C 96.183594 124.042969 95.804688 123.832031 95.699219 123.46875 L 89.910156 103.164062 C 89.808594 102.796875 90.023438 102.417969 90.390625 102.3125 L 105.449219 98.050781 C 105.816406 97.945312 106.199219 98.160156 106.300781 98.523438 Z M 112.089844 118.828125 "/>
        <path style=" stroke:none;fill-rule:nonzero;fill:rgb(76.078431%,70.980392%,73.72549%);fill-opacity:1;"
              d="M 101.917969 98.519531 L 99.492188 99.207031 C 99.371094 98.863281 99.003906 98.671875 98.652344 98.773438 L 96.660156 99.335938 C 96.308594 99.4375 96.097656 99.792969 96.175781 100.148438 L 93.804688 100.820312 C 93.363281 100.945312 93.164062 101.605469 93.359375 102.296875 L 93.5 102.769531 C 93.695312 103.457031 94.214844 103.917969 94.65625 103.792969 L 102.769531 101.496094 C 103.214844 101.371094 103.414062 100.710938 103.214844 100.015625 L 103.078125 99.546875 C 102.878906 98.851562 102.359375 98.394531 101.917969 98.519531 Z M 101.917969 98.519531 "/>
        <g clip-path="url(#clip9)" clip-rule="nonzero">
            <use xlink:href="#surface11" mask="url(#mask2)"/>
        </g>
        <path style=" stroke:none;fill-rule:nonzero;fill:rgb(100%,100%,100%);fill-opacity:1;"
              d="M 99.273438 100.101562 L 99.714844 99.976562 C 99.890625 99.929688 99.992188 99.746094 99.941406 99.574219 C 99.890625 99.402344 99.710938 99.300781 99.539062 99.351562 L 99.09375 99.476562 C 98.921875 99.523438 98.820312 99.703125 98.871094 99.878906 C 98.917969 100.050781 99.101562 100.152344 99.273438 100.101562 Z M 99.273438 100.101562 "/>
        <path style=" stroke:none;fill-rule:nonzero;fill:rgb(100%,100%,100%);fill-opacity:1;"
              d="M 100.660156 99.714844 L 101.765625 99.402344 C 101.9375 99.351562 102.039062 99.171875 101.992188 99 C 101.941406 98.828125 101.761719 98.726562 101.585938 98.773438 L 100.480469 99.085938 C 100.304688 99.136719 100.203125 99.316406 100.253906 99.492188 C 100.304688 99.664062 100.484375 99.765625 100.660156 99.714844 Z M 100.660156 99.714844 "/>
        <g clip-path="url(#clip11)" clip-rule="nonzero">
            <use xlink:href="#surface14" mask="url(#mask3)"/>
        </g>
        <path style=" stroke:none;fill-rule:nonzero;fill:rgb(100%,100%,100%);fill-opacity:1;"
              d="M 105.246094 102.378906 C 105.332031 102.355469 105.402344 102.296875 105.445312 102.222656 C 105.484375 102.148438 105.496094 102.058594 105.472656 101.976562 L 105.160156 100.871094 C 105.109375 100.699219 104.925781 100.597656 104.753906 100.648438 C 104.578125 100.695312 104.476562 100.878906 104.527344 101.050781 L 104.84375 102.15625 C 104.867188 102.238281 104.921875 102.308594 105 102.351562 C 105.074219 102.390625 105.164062 102.402344 105.246094 102.378906 Z M 105.246094 102.378906 "/>
        <path style=" stroke:none;fill-rule:nonzero;fill:rgb(100%,100%,100%);fill-opacity:1;"
              d="M 107.085938 108.835938 C 107.171875 108.8125 107.242188 108.757812 107.285156 108.679688 C 107.324219 108.605469 107.335938 108.515625 107.3125 108.433594 L 105.691406 102.75 C 105.644531 102.578125 105.460938 102.476562 105.289062 102.527344 C 105.113281 102.574219 105.015625 102.753906 105.0625 102.929688 L 106.683594 108.613281 C 106.734375 108.785156 106.914062 108.886719 107.085938 108.835938 Z M 107.085938 108.835938 "/>
        <g clip-path="url(#clip13)" clip-rule="nonzero">
            <use xlink:href="#surface17" mask="url(#mask4)"/>
        </g>
        <path style=" stroke:none;fill-rule:nonzero;fill:rgb(94.509804%,74.117647%,56.078431%);fill-opacity:1;"
              d="M 111.980469 120.738281 C 114.179688 116.964844 114.191406 113.886719 111.742188 113.484375 C 109.292969 113.082031 109.6875 114.953125 110.527344 115.339844 C 110.527344 115.339844 108.296875 115.6875 109.566406 117.441406 C 109.566406 117.441406 107.179688 118.722656 109.175781 120.476562 C 111.171875 122.226562 111.980469 120.738281 111.980469 120.738281 Z M 111.980469 120.738281 "/>
        <path style=" stroke:none;fill-rule:nonzero;fill:rgb(99.215686%,79.215686%,62.352941%);fill-opacity:1;"
              d="M 113.039062 116.242188 C 113.039062 115.609375 112.761719 114.664062 112.09375 114.410156 C 111.171875 114.066406 111.152344 115.117188 111.800781 115.496094 C 111.003906 115.660156 109.730469 116.222656 111.019531 116.894531 C 111.3125 117.042969 112.058594 117.488281 112.375 117.453125 C 113.019531 117.378906 112.75 116.695312 112.964844 116.167969 "/>
        <path style=" stroke:none;fill-rule:nonzero;fill:rgb(100%,96.862745%,92.54902%);fill-opacity:1;"
              d="M 94.726562 15.550781 C 95.128906 13.027344 96.820312 10.890625 99.1875 9.910156 C 101.554688 8.925781 104.265625 9.238281 106.347656 10.730469 C 108.636719 9.128906 111.621094 8.898438 114.128906 10.128906 C 116.640625 11.363281 118.277344 13.859375 118.398438 16.648438 C 121.8125 18.589844 123.101562 22.859375 121.332031 26.359375 C 119.566406 29.859375 115.359375 31.371094 111.757812 29.792969 C 110.597656 31.675781 108.652344 32.9375 106.460938 33.234375 C 104.269531 33.53125 102.054688 32.832031 100.4375 31.328125 C 99.523438 32.957031 98.46875 34.5 97.273438 35.933594 C 97.976562 33.953125 98.382812 31.882812 98.480469 29.789062 C 95.875 30.625 93.019531 29.957031 91.054688 28.054688 C 89.09375 26.152344 88.347656 23.320312 89.113281 20.699219 C 89.882812 18.082031 92.042969 16.097656 94.726562 15.550781 Z M 94.726562 15.550781 "/>
        <path style=" stroke:none;fill-rule:nonzero;fill:rgb(100%,81.960784%,32.54902%);fill-opacity:1;"
              d="M 102.832031 25.0625 C 102.832031 25.308594 103.035156 25.507812 103.28125 25.507812 L 107.601562 25.507812 C 107.847656 25.507812 108.046875 25.308594 108.046875 25.0625 C 108.046875 24.816406 107.847656 24.613281 107.601562 24.613281 L 103.28125 24.613281 C 103.035156 24.613281 102.832031 24.816406 102.832031 25.0625 Z M 102.832031 25.0625 "/>
        <path style=" stroke:none;fill-rule:nonzero;fill:rgb(100%,81.960784%,32.54902%);fill-opacity:1;"
              d="M 102.832031 26.21875 C 102.832031 26.339844 102.878906 26.453125 102.964844 26.535156 C 103.046875 26.621094 103.164062 26.667969 103.28125 26.667969 L 107.601562 26.667969 C 107.847656 26.664062 108.046875 26.464844 108.042969 26.21875 C 108.042969 25.972656 107.84375 25.773438 107.597656 25.773438 L 103.28125 25.773438 C 103.035156 25.773438 102.832031 25.972656 102.832031 26.21875 Z M 102.832031 26.21875 "/>
        <path style=" stroke:none;fill-rule:nonzero;fill:rgb(100%,81.960784%,32.54902%);fill-opacity:1;"
              d="M 102.832031 27.367188 C 102.832031 27.613281 103.035156 27.816406 103.28125 27.816406 L 107.601562 27.816406 C 107.847656 27.816406 108.046875 27.613281 108.046875 27.367188 C 108.050781 27.25 108 27.136719 107.917969 27.050781 C 107.832031 26.96875 107.71875 26.917969 107.601562 26.917969 L 103.28125 26.917969 C 103.164062 26.917969 103.046875 26.96875 102.964844 27.050781 C 102.878906 27.136719 102.832031 27.25 102.832031 27.367188 Z M 102.832031 27.367188 "/>
        <path style=" stroke:none;fill-rule:nonzero;fill:rgb(100%,81.960784%,32.54902%);fill-opacity:1;"
              d="M 107.074219 28.085938 L 107.074219 28.34375 C 107.074219 28.980469 106.554688 29.5 105.914062 29.5 L 104.96875 29.5 C 104.328125 29.5 103.808594 28.980469 103.808594 28.34375 L 103.808594 28.085938 Z M 107.074219 28.085938 "/>
        <path style=" stroke:none;fill-rule:nonzero;fill:rgb(100%,81.960784%,32.54902%);fill-opacity:1;"
              d="M 108.613281 24.382812 C 108.722656 24.382812 108.832031 24.339844 108.914062 24.265625 C 110.65625 22.65625 111.078125 20.078125 109.945312 18 C 108.808594 15.921875 106.40625 14.875 104.105469 15.457031 C 101.804688 16.042969 100.195312 18.109375 100.199219 20.472656 C 100.191406 21.894531 100.777344 23.253906 101.816406 24.226562 C 101.992188 24.394531 102.269531 24.386719 102.4375 24.210938 C 102.609375 24.035156 102.601562 23.753906 102.421875 23.589844 C 101.5625 22.78125 101.078125 21.652344 101.082031 20.472656 C 101.082031 18.511719 102.417969 16.800781 104.324219 16.316406 C 106.230469 15.832031 108.226562 16.699219 109.167969 18.421875 C 110.109375 20.144531 109.757812 22.285156 108.316406 23.621094 C 108.183594 23.742188 108.136719 23.933594 108.203125 24.105469 C 108.273438 24.273438 108.433594 24.382812 108.617188 24.382812 Z M 108.613281 24.382812 "/>
        <path style=" stroke:none;fill-rule:nonzero;fill:rgb(100%,81.960784%,32.54902%);fill-opacity:1;"
              d="M 97.253906 21.402344 L 99 21.402344 C 99.210938 21.402344 99.382812 21.230469 99.382812 21.015625 C 99.382812 20.804688 99.210938 20.632812 99 20.632812 L 97.253906 20.632812 C 97.109375 20.625 96.972656 20.695312 96.898438 20.816406 C 96.824219 20.9375 96.824219 21.09375 96.898438 21.214844 C 96.972656 21.335938 97.109375 21.410156 97.253906 21.398438 Z M 97.253906 21.402344 "/>
        <path style=" stroke:none;fill-rule:nonzero;fill:rgb(100%,81.960784%,32.54902%);fill-opacity:1;"
              d="M 111.800781 21.402344 L 113.597656 21.402344 C 113.808594 21.402344 113.984375 21.230469 113.984375 21.019531 C 113.984375 20.808594 113.808594 20.632812 113.597656 20.632812 L 111.800781 20.632812 C 111.585938 20.632812 111.414062 20.808594 111.414062 21.019531 C 111.414062 21.230469 111.585938 21.402344 111.800781 21.402344 Z M 111.800781 21.402344 "/>
        <path style=" stroke:none;fill-rule:nonzero;fill:rgb(100%,81.960784%,32.54902%);fill-opacity:1;"
              d="M 105.382812 14.523438 C 105.597656 14.523438 105.769531 14.347656 105.769531 14.136719 L 105.769531 12.496094 C 105.769531 12.394531 105.730469 12.296875 105.65625 12.222656 C 105.585938 12.152344 105.484375 12.113281 105.382812 12.113281 C 105.171875 12.113281 105 12.285156 105 12.496094 L 105 14.136719 C 105 14.347656 105.171875 14.519531 105.382812 14.523438 Z M 105.382812 14.523438 "/>
        <path style=" stroke:none;fill-rule:nonzero;fill:rgb(100%,81.960784%,32.54902%);fill-opacity:1;"
              d="M 100.640625 16.542969 C 100.742188 16.542969 100.84375 16.503906 100.914062 16.429688 C 101.066406 16.28125 101.066406 16.035156 100.914062 15.886719 L 99.824219 14.800781 C 99.726562 14.695312 99.582031 14.652344 99.441406 14.683594 C 99.304688 14.71875 99.195312 14.828125 99.160156 14.964844 C 99.125 15.105469 99.171875 15.25 99.277344 15.34375 L 100.371094 16.429688 C 100.441406 16.503906 100.539062 16.542969 100.640625 16.542969 Z M 100.640625 16.542969 "/>
        <path style=" stroke:none;fill-rule:nonzero;fill:rgb(100%,81.960784%,32.54902%);fill-opacity:1;"
              d="M 110.246094 17.035156 C 110.347656 17.035156 110.449219 16.996094 110.523438 16.921875 L 111.609375 15.839844 C 111.761719 15.691406 111.765625 15.445312 111.613281 15.292969 C 111.464844 15.140625 111.21875 15.136719 111.066406 15.289062 L 109.976562 16.371094 C 109.828125 16.519531 109.828125 16.765625 109.976562 16.914062 C 110.046875 16.988281 110.144531 17.03125 110.246094 17.035156 Z M 110.246094 17.035156 "/>
        <g clip-path="url(#clip15)" clip-rule="nonzero">
            <path style=" stroke:none;fill-rule:nonzero;fill:rgb(23.529412%,24.313725%,23.529412%);fill-opacity:1;"
                  d="M 0.9375 127.566406 L 8.027344 119.894531 L 128 119.894531 L 128 127.566406 Z M 0.9375 127.566406 "/>
        </g>
        <path style=" stroke:none;fill-rule:nonzero;fill:rgb(86.666667%,86.666667%,86.666667%);fill-opacity:1;"
              d="M 41.09375 125.761719 L 64.785156 125.761719 C 65.507812 125.761719 66.179688 125.394531 66.570312 124.785156 C 66.957031 124.175781 67.007812 123.410156 66.699219 122.757812 L 58.4375 105.191406 C 57.71875 103.65625 56.171875 102.679688 54.476562 102.679688 L 32.667969 102.679688 C 32.136719 102.675781 31.644531 102.945312 31.363281 103.390625 C 31.078125 103.832031 31.039062 104.390625 31.265625 104.867188 Z M 41.09375 125.761719 "/>
        <path style=" stroke:none;fill-rule:nonzero;fill:rgb(85.490196%,85.490196%,87.843137%);fill-opacity:1;"
              d="M 64.695312 125.820312 L 81.589844 125.820312 C 82.277344 125.820312 82.832031 125.265625 82.832031 124.582031 C 82.832031 123.894531 82.277344 123.339844 81.589844 123.339844 L 64.695312 123.339844 C 64.007812 123.339844 63.453125 123.894531 63.453125 124.582031 C 63.453125 125.265625 64.007812 125.820312 64.695312 125.820312 Z M 64.695312 125.820312 "/>
        <path style=" stroke:none;fill-rule:nonzero;fill:rgb(100%,100%,100%);fill-opacity:1;"
              d="M 73.179688 124.890625 L 70.765625 124.890625 L 70.765625 124.167969 L 73.179688 124.167969 Z M 73.179688 124.890625 "/>
        <path style=" stroke:none;fill-rule:nonzero;fill:rgb(100%,100%,100%);fill-opacity:1;"
              d="M 75.652344 124.890625 L 73.902344 124.890625 L 73.902344 124.167969 L 75.652344 124.167969 Z M 75.652344 124.890625 "/>
        <path style=" stroke:none;fill-rule:nonzero;fill:rgb(63.529412%,62.352941%,69.019608%);fill-opacity:1;"
              d="M 41.449219 125.761719 L 65.195312 125.761719 C 65.59375 125.761719 65.964844 125.558594 66.179688 125.222656 C 66.394531 124.886719 66.417969 124.46875 66.25 124.105469 L 57.351562 105.191406 C 56.632812 103.65625 55.085938 102.679688 53.390625 102.679688 L 31.582031 102.679688 C 31.054688 102.679688 30.5625 102.945312 30.28125 103.390625 C 29.996094 103.835938 29.960938 104.390625 30.183594 104.867188 L 39.398438 124.460938 C 39.769531 125.253906 40.570312 125.761719 41.449219 125.761719 Z M 41.449219 125.761719 "/>
        <path style=" stroke:none;fill-rule:nonzero;fill:rgb(100%,100%,100%);fill-opacity:1;"
              d="M 46.640625 115.574219 C 47.203125 116.886719 48.253906 117.695312 48.992188 117.382812 C 49.726562 117.070312 49.863281 115.753906 49.300781 114.441406 C 48.738281 113.128906 47.6875 112.316406 46.949219 112.628906 C 46.210938 112.941406 46.074219 114.257812 46.640625 115.574219 Z M 46.640625 115.574219 "/>
        <path style=" stroke:none;fill-rule:nonzero;fill:rgb(94.509804%,27.843137%,27.843137%);fill-opacity:1;"
              d="M 13.027344 121.820312 L 13.027344 125.683594 L 26.535156 125.683594 C 27.605469 125.683594 28.472656 124.816406 28.472656 123.75 C 28.472656 122.683594 27.605469 121.820312 26.535156 121.820312 Z M 13.027344 121.820312 "/>
        <g clip-path="url(#clip16)" clip-rule="nonzero">
            <use xlink:href="#surface20" mask="url(#mask5)"/>
        </g>
        <path style=" stroke:none;fill-rule:nonzero;fill:rgb(62.352941%,16.078431%,23.137255%);fill-opacity:1;"
              d="M 10.136719 121.820312 L 10.136719 125.683594 L 18.992188 125.683594 C 20.0625 125.683594 20.929688 124.816406 20.929688 123.75 C 20.929688 122.683594 20.0625 121.820312 18.992188 121.820312 Z M 10.136719 121.820312 "/>
        <path style=" stroke:none;fill-rule:nonzero;fill:rgb(100%,100%,100%);fill-opacity:1;"
              d="M 10.136719 122.480469 L 10.136719 124.949219 L 18.472656 124.949219 C 18.941406 124.988281 19.390625 124.761719 19.636719 124.363281 C 19.882812 123.964844 19.882812 123.464844 19.636719 123.066406 C 19.390625 122.667969 18.941406 122.4375 18.472656 122.476562 Z M 10.136719 122.480469 "/>
        <path style=" stroke:none;fill-rule:nonzero;fill:rgb(98.431373%,68.627451%,23.921569%);fill-opacity:1;"
              d="M 12.765625 114.15625 L 12.765625 118.015625 L 26.273438 118.015625 C 27.34375 118.015625 28.210938 117.152344 28.210938 116.085938 C 28.210938 115.019531 27.34375 114.15625 26.273438 114.15625 Z M 12.765625 114.15625 "/>
        <path style=" stroke:none;fill-rule:nonzero;fill:rgb(100%,84.313725%,18.039216%);fill-opacity:1;"
              d="M 15.828125 115.441406 L 15.828125 114.164062 L 26.3125 114.164062 C 27.132812 114.164062 27.863281 114.675781 28.136719 115.441406 Z M 15.828125 115.441406 "/>
        <path style=" stroke:none;fill-rule:nonzero;fill:rgb(95.294118%,50.588235%,32.941176%);fill-opacity:1;"
              d="M 10.136719 114.15625 L 10.136719 118.015625 L 18.992188 118.015625 C 20.0625 118.015625 20.929688 117.152344 20.929688 116.085938 C 20.929688 115.019531 20.0625 114.15625 18.992188 114.15625 Z M 10.136719 114.15625 "/>
        <path style=" stroke:none;fill-rule:nonzero;fill:rgb(100%,100%,100%);fill-opacity:1;"
              d="M 10.136719 114.816406 L 10.136719 117.289062 L 18.472656 117.289062 C 18.941406 117.328125 19.390625 117.101562 19.636719 116.703125 C 19.882812 116.304688 19.882812 115.800781 19.636719 115.402344 C 19.390625 115.003906 18.941406 114.777344 18.472656 114.816406 Z M 10.136719 114.816406 "/>
        <path style=" stroke:none;fill-rule:nonzero;fill:rgb(63.529412%,80%,23.137255%);fill-opacity:1;"
              d="M 12.066406 118.035156 L 12.066406 121.898438 L 25.578125 121.898438 C 26.257812 121.894531 26.886719 121.539062 27.234375 120.960938 C 27.585938 120.378906 27.605469 119.65625 27.285156 119.058594 C 27.195312 118.890625 27.078125 118.738281 26.945312 118.601562 C 26.582031 118.242188 26.089844 118.039062 25.578125 118.039062 Z M 12.066406 118.035156 "/>
        <path style=" stroke:none;fill-rule:nonzero;fill:rgb(43.921569%,60.784314%,17.254902%);fill-opacity:1;"
              d="M 12.425781 118.035156 L 12.425781 119.058594 L 27.285156 119.058594 C 27.195312 118.890625 27.078125 118.734375 26.945312 118.597656 C 26.582031 118.238281 26.089844 118.035156 25.578125 118.035156 Z M 12.425781 118.035156 "/>
        <path style=" stroke:none;fill-rule:nonzero;fill:rgb(43.921569%,60.784314%,17.254902%);fill-opacity:1;"
              d="M 12.425781 121.894531 L 12.425781 120.871094 L 27.285156 120.871094 C 27.195312 121.039062 27.078125 121.195312 26.945312 121.332031 C 26.582031 121.691406 26.089844 121.894531 25.578125 121.894531 Z M 12.425781 121.894531 "/>
        <path style=" stroke:none;fill-rule:nonzero;fill:rgb(29.803922%,51.764706%,18.431373%);fill-opacity:1;"
              d="M 8.53125 118.035156 L 8.53125 121.898438 L 16.636719 121.898438 C 17.707031 121.898438 18.574219 121.03125 18.574219 119.964844 C 18.574219 118.898438 17.707031 118.035156 16.636719 118.035156 Z M 8.53125 118.035156 "/>
        <path style=" stroke:none;fill-rule:nonzero;fill:rgb(100%,100%,100%);fill-opacity:1;"
              d="M 8.53125 118.695312 L 8.53125 121.171875 L 16.117188 121.171875 C 16.585938 121.207031 17.035156 120.980469 17.277344 120.582031 C 17.523438 120.183594 17.523438 119.683594 17.277344 119.285156 C 17.035156 118.886719 16.585938 118.65625 16.117188 118.695312 Z M 8.53125 118.695312 "/>
        <path style=" stroke:none;fill-rule:nonzero;fill:rgb(31.764706%,49.803922%,21.960784%);fill-opacity:1;"
              d="M 22.339844 103.652344 C 20.679688 105.914062 17.335938 106.289062 17.335938 106.289062 C 17.335938 106.289062 16.691406 103 18.359375 100.738281 C 20.023438 98.480469 23.363281 98.101562 23.363281 98.101562 C 23.363281 98.101562 24.003906 101.394531 22.339844 103.652344 Z M 22.339844 103.652344 "/>
        <path style=" stroke:none;fill-rule:nonzero;fill:rgb(23.137255%,40.784314%,21.568627%);fill-opacity:1;"
              d="M 15.347656 102.300781 C 16.871094 103.800781 16.789062 106.351562 16.789062 106.351562 C 16.789062 106.351562 14.234375 106.476562 12.707031 104.972656 C 11.179688 103.472656 11.261719 100.921875 11.261719 100.921875 C 11.261719 100.921875 13.820312 100.800781 15.347656 102.300781 Z M 15.347656 102.300781 "/>
        <path style=" stroke:none;fill-rule:nonzero;fill:rgb(39.607843%,69.411765%,35.686275%);fill-opacity:1;"
              d="M 19.132812 101.167969 C 19.441406 103.957031 17.238281 106.484375 17.238281 106.484375 C 17.238281 106.484375 14.527344 104.496094 14.21875 101.710938 C 13.914062 98.921875 16.113281 96.390625 16.113281 96.390625 C 16.113281 96.390625 18.8125 98.378906 19.132812 101.167969 Z M 19.132812 101.167969 "/>
        <path style=" stroke:none;fill-rule:nonzero;fill:rgb(38.431373%,19.607843%,29.019608%);fill-opacity:1;"
              d="M 18.921875 114.1875 L 13.128906 114.1875 L 11.230469 105.761719 L 20.824219 105.761719 Z M 18.921875 114.1875 "/>
        <path style=" stroke:none;fill-rule:nonzero;fill:rgb(62.745098%,32.156863%,22.745098%);fill-opacity:1;"
              d="M 21.109375 114.1875 L 15.3125 114.1875 L 14.460938 105.761719 L 23.007812 105.761719 Z M 21.109375 114.1875 "/>
    </g>
</svg>
