<?xml version="1.0" encoding="UTF-8"?>
<svg xmlns="http://www.w3.org/2000/svg" xmlns:xlink="http://www.w3.org/1999/xlink" width="250px" height="102px" viewBox="0 0 251 102" version="1.1">
<g id="surface1">
<path style=" stroke:none;fill-rule:nonzero;fill:rgb(80.784314%,9.019608%,16.078431%);fill-opacity:1;" d="M 67.828125 0.0078125 L 67.828125 102 L 67.285156 102 L 67.285156 101.59375 C 67.375 101.417969 67.546875 101.246094 67.546875 101.070312 C 67.558594 94.78125 67.558594 88.492188 67.546875 82.199219 C 67.546875 82.027344 67.371094 81.855469 67.273438 81.683594 L 30.605469 81.683594 C 30.355469 81.683594 30.109375 81.675781 29.863281 81.695312 C 28.542969 81.785156 27.726562 82.425781 27.332031 83.671875 C 27.28125 83.832031 27.226562 83.988281 27.140625 84.25 C 26.78125 82.992188 25.933594 82.351562 24.851562 82.019531 C 24.230469 81.820312 23.585938 81.710938 22.933594 81.699219 C 15.472656 81.679688 8.007812 81.671875 0.542969 81.679688 L 0.269531 81.679688 C 0.207031 81.40625 0.164062 81.125 0.144531 80.839844 C 0.136719 54.289062 0.136719 27.738281 0.136719 1.183594 C 0.113281 0.878906 0.0664062 0.578125 0 0.28125 C 0.0429688 0.191406 0.0742188 0.0390625 0.136719 0.0234375 C 0.292969 -0.00390625 0.453125 -0.0078125 0.609375 0.0078125 Z M 13.890625 42.078125 L 13.621094 42.195312 L 13.652344 42.273438 L 13.976562 42.160156 L 14.085938 42.050781 Z M 27.195312 0.542969 C 27.109375 0.722656 26.960938 0.902344 26.953125 1.082031 C 26.921875 1.667969 26.941406 2.253906 26.941406 2.84375 C 26.941406 12.5 26.945312 22.152344 26.949219 31.804688 C 26.949219 32.085938 27.09375 32.363281 27.167969 32.644531 C 27.304688 32.566406 27.4375 32.492188 27.574219 32.40625 C 34.699219 27.773438 41.820312 23.144531 48.945312 18.511719 C 50.328125 17.609375 51.746094 17.699219 52.777344 18.722656 C 53.808594 19.75 53.902344 21.152344 53.046875 22.496094 C 48.179688 30.078125 43.3125 37.667969 38.449219 45.261719 C 37.28125 47.082031 36.148438 48.917969 34.988281 50.746094 C 34.722656 51.15625 34.457031 51.5625 34.191406 51.972656 C 34.046875 52.171875 33.894531 52.367188 33.761719 52.574219 C 31.5625 56.046875 29.359375 59.523438 27.15625 62.996094 C 27.085938 63.230469 26.953125 63.464844 26.949219 63.699219 C 26.933594 66.589844 26.9375 69.476562 26.933594 72.367188 C 26.597656 72.351562 26.257812 72.367188 25.925781 72.3125 C 17.566406 71.027344 13.503906 61.410156 18.453125 54.554688 C 20.582031 51.605469 23.523438 50.046875 27.179688 49.886719 L 27.128906 50.113281 C 27.066406 50.230469 26.949219 50.347656 26.949219 50.464844 C 26.9375 53.5625 26.9375 56.664062 26.949219 59.765625 C 26.949219 59.941406 27.0625 60.117188 27.125 60.296875 C 27.207031 60.226562 27.316406 60.171875 27.359375 60.082031 C 28.933594 56.992188 30.503906 53.894531 32.070312 50.796875 L 32.769531 49.382812 C 32.851562 49.277344 32.925781 49.167969 32.992188 49.054688 C 35.546875 44.058594 38.097656 39.0625 40.640625 34.0625 C 41.679688 32.019531 42.699219 29.964844 43.730469 27.914062 L 43.816406 27.832031 L 43.652344 27.84375 C 43.492188 27.914062 43.324219 27.976562 43.164062 28.0625 L 27.183594 36.167969 C 27.101562 36.394531 26.953125 36.625 26.953125 36.855469 C 26.9375 39.691406 26.9375 42.527344 26.953125 45.363281 C 26.976562 45.601562 27.019531 45.835938 27.085938 46.066406 L 24.652344 46.234375 C 24.652344 46.777344 24.613281 47.292969 24.660156 47.800781 C 24.71875 48.429688 24.566406 48.816406 23.867188 48.917969 C 23.472656 48.976562 23.097656 49.167969 22.722656 49.316406 C 20.980469 50.011719 19.507812 51.109375 18.179688 52.460938 L 15.921875 51.1875 L 13.101562 56.089844 C 13.742188 56.460938 14.300781 56.800781 14.878906 57.105469 C 15.222656 57.289062 15.339844 57.476562 15.222656 57.902344 C 14.632812 60.019531 14.628906 62.257812 15.214844 64.375 C 15.324219 64.773438 15.214844 64.941406 14.890625 65.117188 C 14.296875 65.433594 13.726562 65.792969 13.101562 66.15625 L 15.925781 71.042969 C 16.585938 70.667969 17.160156 70.308594 17.765625 70.023438 C 17.992188 69.945312 18.246094 69.976562 18.441406 70.113281 C 20.089844 71.726562 21.988281 72.882812 24.21875 73.480469 C 24.570312 73.574219 24.671875 73.75 24.65625 74.097656 C 24.632812 74.742188 24.65625 75.390625 24.65625 76.128906 L 26.941406 76.128906 C 26.941406 78.132812 26.941406 80.136719 26.949219 82.144531 C 26.949219 82.320312 27.058594 82.492188 27.117188 82.667969 C 27.230469 82.574219 27.332031 82.464844 27.425781 82.347656 C 27.847656 81.617188 28.644531 81.183594 29.492188 81.234375 C 29.761719 81.296875 30.03125 81.40625 30.304688 81.40625 C 36.863281 81.417969 43.421875 81.417969 49.980469 81.414062 C 55.503906 81.414062 61.023438 81.414062 66.546875 81.40625 C 66.796875 81.40625 67.042969 81.246094 67.289062 81.160156 L 67.308594 81.152344 C 67.390625 80.878906 67.546875 80.609375 67.546875 80.339844 C 67.558594 54.011719 67.5625 27.6875 67.554688 1.367188 C 67.570312 1.1875 67.566406 1.003906 67.539062 0.824219 C 67.511719 0.71875 67.382812 0.636719 67.300781 0.546875 C 67.03125 0.460938 66.757812 0.300781 66.488281 0.300781 C 56.640625 0.28125 46.789062 0.273438 36.933594 0.28125 C 33.914062 0.28125 30.894531 0.28125 27.875 0.292969 C 27.648438 0.292969 27.421875 0.453125 27.195312 0.542969 Z M 28.46875 59.644531 C 28.53125 59.582031 28.589844 59.511719 28.640625 59.441406 C 36.207031 47.628906 43.773438 35.8125 51.335938 23.996094 C 51.40625 23.867188 51.46875 23.730469 51.523438 23.589844 C 48.929688 23.726562 48.003906 22.804688 47.894531 19.921875 L 14.183594 41.855469 L 14.292969 42.035156 L 45.101562 26.394531 C 44.683594 27.417969 44.214844 28.417969 43.695312 29.394531 C 39.757812 37.109375 35.824219 44.828125 31.894531 52.542969 C 30.707031 54.871094 29.539062 57.214844 28.367188 59.546875 C 28.367188 59.613281 28.351562 59.683594 28.347656 59.746094 Z M 19.308594 11.109375 L 19.242188 10.972656 C 18.09375 10.972656 16.941406 10.945312 15.796875 10.984375 C 15.28125 11.003906 15.039062 10.851562 14.894531 10.34375 C 14.566406 9.210938 14.175781 8.097656 13.75 6.800781 C 13.363281 7.992188 12.996094 8.988281 12.726562 10.007812 C 12.535156 10.753906 12.207031 11.0625 11.390625 10.992188 C 10.34375 10.902344 9.273438 10.972656 8.214844 10.972656 C 9.050781 11.722656 9.941406 12.410156 10.878906 13.03125 C 11.40625 13.378906 11.582031 13.703125 11.328125 14.339844 C 10.921875 15.378906 10.617188 16.460938 10.207031 17.710938 L 13.757812 15.152344 L 17.125 17.589844 C 16.859375 16.386719 16.515625 15.207031 16.097656 14.050781 C 15.953125 13.644531 16.054688 13.453125 16.378906 13.226562 C 17.367188 12.53125 18.332031 11.808594 19.308594 11.109375 Z M 50.734375 18.539062 C 50.132812 18.527344 49.554688 18.761719 49.125 19.183594 C 48.699219 19.605469 48.460938 20.183594 48.46875 20.785156 C 48.46875 22.082031 49.480469 23.066406 50.804688 23.050781 C 51.40625 23.046875 51.984375 22.800781 52.40625 22.367188 C 52.828125 21.9375 53.058594 21.351562 53.042969 20.75 C 53.019531 19.484375 52.027344 18.527344 50.734375 18.53125 Z M 28.160156 59.863281 L 28.09375 59.945312 C 28.128906 59.960938 28.164062 59.992188 28.199219 59.984375 C 28.230469 59.980469 28.238281 59.933594 28.261719 59.902344 Z M 28.160156 59.863281 "/>
<path style=" stroke:none;fill-rule:nonzero;fill:rgb(74.901961%,12.156863%,18.431373%);fill-opacity:1;" d="M 251 35.355469 C 250.695312 35.894531 250.457031 36.492188 250.066406 36.960938 C 249.429688 37.730469 248.542969 38.054688 247.546875 38.054688 C 245.628906 38.054688 243.710938 38.054688 241.792969 38.054688 C 240.230469 38.054688 239.144531 38.765625 238.472656 40.171875 C 238.335938 40.394531 238.105469 40.542969 237.84375 40.570312 C 234.796875 40.597656 231.75 40.582031 228.707031 40.597656 C 228.335938 40.597656 228.164062 40.480469 228.011719 40.140625 C 227.402344 38.765625 226.332031 38.0625 224.824219 38.058594 C 222.953125 38.050781 221.078125 38.058594 219.207031 38.058594 C 217.082031 38.050781 215.664062 36.621094 215.648438 34.480469 C 215.648438 33.960938 215.640625 33.441406 215.648438 32.921875 C 215.675781 31.148438 217.082031 29.703125 218.851562 29.628906 C 219.214844 29.609375 219.574219 29.621094 219.9375 29.617188 L 246.878906 29.617188 C 249.285156 29.617188 250.125 30.179688 251.003906 32.378906 Z M 251 35.355469 "/>
<path style=" stroke:none;fill-rule:nonzero;fill:rgb(79.607843%,4.313725%,14.117647%);fill-opacity:1;" d="M 70.820312 99.082031 L 70.820312 99.488281 L 4.074219 99.488281 L 4.074219 99.09375 L 23.773438 99.09375 Z M 70.820312 99.082031 "/>
<path style=" stroke:none;fill-rule:nonzero;fill:rgb(81.960784%,14.509804%,20.784314%);fill-opacity:1;" d="M 0 0.28125 C 0.0664062 0.578125 0.113281 0.878906 0.136719 1.183594 C 0.136719 27.738281 0.136719 54.289062 0.136719 80.84375 C 0.160156 81.125 0.203125 81.40625 0.269531 81.679688 C 0.226562 82.359375 0.148438 83.019531 0.144531 83.691406 C 0.136719 88.988281 0.136719 94.285156 0.144531 99.578125 C 0.144531 100.257812 0.226562 100.921875 0.269531 101.589844 C 0.226562 101.679688 0.183594 101.769531 0.132812 101.859375 L 0 101.859375 Z M 0 0.28125 "/>
<path style=" stroke:none;fill-rule:nonzero;fill:rgb(80.784314%,9.019608%,16.078431%);fill-opacity:1;" d="M 3.667969 99.351562 L 3.804688 99.082031 L 4.019531 99.0625 C 4.03125 99.058594 4.042969 99.058594 4.054688 99.0625 C 4.066406 99.070312 4.074219 99.078125 4.078125 99.089844 L 4.078125 99.488281 L 3.808594 99.488281 Z M 3.667969 99.351562 "/>
<path style=" stroke:none;fill-rule:nonzero;fill:rgb(79.607843%,4.313725%,14.117647%);fill-opacity:1;" d="M 3.667969 99.351562 L 3.804688 99.488281 L 3.53125 99.351562 Z M 3.667969 99.351562 "/>
<path style=" stroke:none;fill-rule:nonzero;fill:rgb(74.509804%,12.156863%,18.039216%);fill-opacity:1;" d="M 160.324219 55.148438 L 149.890625 55.148438 C 149.996094 53.929688 150.148438 52.742188 150.195312 51.554688 C 150.316406 48.40625 150.144531 45.285156 148.976562 42.304688 C 147.738281 39.148438 145.332031 37.535156 142.050781 37.132812 C 140.082031 36.890625 138.125 37 136.25 37.710938 C 133.472656 38.753906 132 40.933594 131.207031 43.660156 C 130.3125 46.742188 130.332031 49.890625 130.582031 53.058594 C 130.636719 53.734375 130.742188 54.398438 130.832031 55.128906 L 120.238281 55.128906 C 120.195312 52.691406 120.070312 50.265625 120.128906 47.84375 C 120.179688 45.0625 120.683594 42.3125 121.617188 39.695312 C 123.542969 34.378906 127.304688 31.054688 132.746094 29.71875 C 137.839844 28.464844 142.976562 28.457031 148.070312 29.789062 C 153.738281 31.269531 157.441406 34.863281 159.226562 40.433594 C 160.761719 45.230469 160.800781 50.144531 160.324219 55.148438 Z M 160.324219 55.148438 "/>
<path style=" stroke:none;fill-rule:nonzero;fill:rgb(74.509804%,12.156863%,18.039216%);fill-opacity:1;" d="M 179.960938 43.074219 L 190.46875 43.074219 C 190.226562 44.609375 189.902344 46.105469 189.761719 47.625 C 189.464844 50.84375 189.40625 54.070312 190.214844 57.242188 C 191.042969 60.472656 192.984375 62.164062 196.316406 62.433594 C 198.222656 62.589844 200.140625 62.570312 202.058594 62.582031 C 204.445312 62.605469 206.839844 62.582031 209.234375 62.589844 C 211.1875 62.589844 212.585938 63.839844 212.753906 65.785156 C 212.820312 66.546875 212.804688 67.316406 212.710938 68.078125 C 212.496094 69.78125 211.140625 71 209.4375 70.988281 C 204.453125 70.960938 199.464844 71.003906 194.488281 70.8125 C 187.75 70.554688 182.4375 66.207031 180.328125 59.472656 C 179.328125 56.292969 179.042969 53.019531 179.199219 49.71875 C 179.292969 47.742188 179.585938 45.773438 179.796875 43.804688 C 179.835938 43.558594 179.890625 43.316406 179.960938 43.074219 Z M 179.960938 43.074219 "/>
<path style=" stroke:none;fill-rule:nonzero;fill:rgb(74.901961%,12.156863%,18.431373%);fill-opacity:1;" d="M 164.855469 50.253906 C 164.855469 44.660156 164.914062 39.0625 164.832031 33.46875 C 164.792969 30.882812 166.597656 29.378906 168.757812 29.539062 C 169.632812 29.601562 170.515625 29.539062 171.394531 29.550781 C 173.425781 29.578125 174.878906 31.035156 174.890625 33.074219 C 174.90625 36.144531 174.890625 39.210938 174.890625 42.285156 C 174.890625 50.589844 174.859375 58.894531 174.910156 67.195312 C 174.925781 69.269531 173.566406 71.199219 171.042969 71.042969 C 170.214844 70.988281 169.375 71.042969 168.539062 71.03125 C 166.207031 71.023438 164.859375 69.679688 164.855469 67.324219 C 164.851562 61.632812 164.851562 55.945312 164.855469 50.253906 Z M 164.855469 50.253906 "/>
<path style=" stroke:none;fill-rule:nonzero;fill:rgb(74.901961%,12.156863%,18.431373%);fill-opacity:1;" d="M 159.886719 57.632812 C 158.398438 64.429688 154.691406 69.128906 147.902344 70.925781 C 142.753906 72.300781 137.328125 72.265625 132.199219 70.816406 C 126.265625 69.171875 122.777344 65.105469 121.1875 59.273438 C 121.085938 58.902344 120.996094 58.53125 120.910156 58.15625 C 120.878906 58.027344 120.871094 57.894531 120.839844 57.683594 C 121.078125 57.664062 121.289062 57.636719 121.5 57.636719 C 124.636719 57.636719 127.773438 57.644531 130.910156 57.621094 C 131.371094 57.621094 131.585938 57.757812 131.738281 58.191406 C 132.777344 61.066406 134.875 62.527344 137.898438 62.589844 C 139.789062 62.652344 141.679688 62.613281 143.566406 62.480469 C 146.179688 62.265625 147.898438 60.730469 148.855469 58.347656 C 149.097656 57.738281 149.410156 57.617188 149.996094 57.621094 C 153.261719 57.648438 156.53125 57.632812 159.886719 57.632812 Z M 159.886719 57.632812 "/>
<path style=" stroke:none;fill-rule:nonzero;fill:rgb(74.901961%,12.156863%,18.431373%);fill-opacity:1;" d="M 107.378906 57.707031 L 117.378906 57.707031 C 117.496094 59.761719 117.300781 61.757812 116.644531 63.699219 C 115.347656 67.539062 112.484375 69.625 108.671875 70.40625 C 106.683594 70.789062 104.660156 70.988281 102.636719 70.996094 C 96.503906 71.070312 90.367188 70.96875 84.234375 71.046875 C 81.722656 71.078125 80.214844 69.214844 80.40625 67.171875 C 80.464844 66.546875 80.367188 65.898438 80.476562 65.28125 C 80.78125 63.554688 82.191406 62.492188 84.09375 62.488281 C 89.820312 62.480469 95.550781 62.488281 101.277344 62.453125 C 102.378906 62.46875 103.480469 62.382812 104.566406 62.203125 C 106.632812 61.816406 107.574219 60.488281 107.433594 58.375 C 107.417969 58.175781 107.398438 57.976562 107.378906 57.707031 Z M 107.378906 57.707031 "/>
<path style=" stroke:none;fill-rule:nonzero;fill:rgb(74.901961%,12.156863%,18.431373%);fill-opacity:1;" d="M 117.175781 55.175781 C 117.039062 55.203125 116.898438 55.21875 116.757812 55.230469 C 113.195312 55.230469 109.582031 55.589844 106.078125 55.144531 C 101.195312 54.527344 96.300781 55.183594 91.445312 54.566406 C 89.550781 54.335938 87.671875 53.992188 85.816406 53.53125 C 82.128906 52.589844 80.222656 49.960938 79.484375 46.375 C 79.265625 45.300781 79.195312 44.195312 79.042969 43.039062 L 89.007812 43.039062 C 89.015625 43.050781 89.058594 43.078125 89.066406 43.117188 C 89.488281 45.226562 90.316406 46.023438 92.449219 46.203125 C 93.570312 46.300781 94.703125 46.269531 95.828125 46.300781 C 99.519531 46.402344 103.222656 46.386719 106.90625 46.652344 C 108.71875 46.789062 110.539062 47.304688 112.273438 47.882812 C 114.902344 48.757812 116.113281 50.9375 116.8125 53.453125 C 116.972656 54.007812 117.054688 54.589844 117.175781 55.175781 Z M 117.175781 55.175781 "/>
<path style=" stroke:none;fill-rule:nonzero;fill:rgb(74.901961%,12.156863%,18.431373%);fill-opacity:1;" d="M 79.21875 40.476562 C 79.605469 34.613281 83.082031 30.835938 88.949219 29.960938 C 90.554688 29.722656 92.175781 29.597656 93.796875 29.582031 C 99.867188 29.539062 105.9375 29.566406 112.003906 29.566406 C 114.519531 29.566406 115.882812 30.933594 115.875 33.46875 C 115.875 34.097656 115.902344 34.738281 115.792969 35.355469 C 115.488281 37.074219 114.136719 38.171875 112.34375 38.179688 C 108.371094 38.195312 104.402344 38.15625 100.429688 38.207031 C 97.585938 38.242188 94.742188 38.371094 91.910156 38.492188 C 90.828125 38.539062 90.238281 39.347656 89.648438 40.128906 C 89.511719 40.308594 89.257812 40.519531 89.058594 40.519531 C 85.855469 40.542969 82.652344 40.539062 79.445312 40.53125 C 79.371094 40.523438 79.292969 40.503906 79.21875 40.476562 Z M 79.21875 40.476562 "/>
<path style=" stroke:none;fill-rule:nonzero;fill:rgb(74.901961%,12.54902%,18.823529%);fill-opacity:1;" d="M 228.324219 43.0625 L 238.207031 43.0625 C 238.222656 43.273438 238.246094 43.46875 238.246094 43.65625 C 238.246094 51.558594 238.246094 59.457031 238.246094 67.355469 C 238.246094 69.140625 237.34375 70.625 235.765625 70.847656 C 234.113281 71.058594 232.445312 71.058594 230.796875 70.847656 C 229.441406 70.683594 228.523438 69.394531 228.371094 68.019531 C 228.339844 67.75 228.324219 67.480469 228.324219 67.207031 C 228.3125 59.375 228.304688 51.542969 228.300781 43.714844 C 228.296875 43.519531 228.3125 43.320312 228.324219 43.0625 Z M 228.324219 43.0625 "/>
<path style=" stroke:none;fill-rule:nonzero;fill:rgb(74.901961%,12.54902%,18.823529%);fill-opacity:1;" d="M 180.628906 40.59375 C 181.828125 37.035156 183.742188 34.15625 186.917969 32.222656 C 189.472656 30.664062 192.390625 29.800781 195.382812 29.710938 C 200.070312 29.542969 204.765625 29.570312 209.464844 29.5625 C 211.121094 29.550781 212.519531 30.792969 212.703125 32.445312 C 212.804688 33.316406 212.800781 34.199219 212.691406 35.070312 C 212.507812 36.546875 211.265625 37.671875 209.769531 37.820312 C 209.230469 37.875 208.6875 37.863281 208.144531 37.871094 C 204.265625 37.925781 200.386719 37.988281 196.503906 38.027344 C 194.742188 38.046875 193.414062 38.894531 192.273438 40.113281 C 192.003906 40.441406 191.597656 40.621094 191.175781 40.605469 C 187.703125 40.585938 184.230469 40.59375 180.628906 40.59375 Z M 180.628906 40.59375 "/>
<path style=" stroke:none;fill-rule:nonzero;fill:rgb(99.607843%,99.607843%,99.215686%);fill-opacity:1;" d="M 29.488281 81.230469 C 28.644531 81.179688 27.84375 81.613281 27.421875 82.347656 C 27.332031 82.464844 27.226562 82.570312 27.113281 82.667969 C 27.121094 80.53125 27.125 78.394531 27.132812 76.257812 L 27.179688 76.121094 L 30.300781 76.121094 C 30.300781 75.414062 30.324219 74.832031 30.300781 74.25 C 30.277344 73.820312 30.398438 73.628906 30.851562 73.515625 C 32.9375 72.984375 34.847656 71.914062 36.390625 70.417969 C 36.582031 70.234375 36.683594 69.964844 36.796875 69.777344 L 39.011719 71.046875 C 39.96875 69.386719 40.894531 67.796875 41.839844 66.152344 L 39.8125 64.953125 C 40.570312 62.453125 40.566406 59.78125 39.804688 57.28125 L 41.835938 56.0625 L 39.003906 51.167969 L 36.972656 52.324219 L 34.984375 50.738281 C 36.136719 48.910156 37.277344 47.074219 38.441406 45.253906 C 43.304688 37.660156 48.171875 30.074219 53.042969 22.484375 C 53.902344 21.144531 53.800781 19.734375 52.769531 18.714844 C 51.742188 17.699219 50.324219 17.601562 48.9375 18.503906 C 41.816406 23.136719 34.695312 27.769531 27.574219 32.40625 C 27.4375 32.492188 27.304688 32.566406 27.167969 32.644531 C 27.167969 22.148438 27.167969 11.652344 27.167969 1.15625 C 27.167969 1 27.191406 0.84375 27.203125 0.683594 L 27.347656 0.566406 C 27.484375 0.558594 27.617188 0.542969 27.753906 0.542969 L 66.742188 0.542969 C 66.878906 0.542969 67.015625 0.558594 67.148438 0.566406 L 67.292969 0.683594 C 67.308594 0.933594 67.328125 1.179688 67.328125 1.425781 C 67.328125 27.753906 67.328125 54.078125 67.328125 80.40625 C 67.328125 80.652344 67.3125 80.902344 67.304688 81.148438 L 67.289062 81.160156 C 55.089844 81.160156 42.894531 81.160156 30.695312 81.160156 C 30.292969 81.164062 29.890625 81.207031 29.488281 81.230469 Z M 50.226562 9.355469 L 49.550781 9.378906 L 49.425781 7.191406 L 49.144531 6.894531 L 48.074219 6.894531 C 47.988281 7.003906 47.828125 7.113281 47.828125 7.222656 C 47.8125 9.230469 47.8125 11.238281 47.828125 13.242188 C 47.828125 13.355469 47.988281 13.464844 48.074219 13.574219 L 49.292969 13.574219 L 49.425781 13.285156 L 49.425781 10.710938 L 50.226562 10.710938 C 50.234375 11.511719 50.226562 12.3125 50.261719 13.109375 C 50.261719 13.265625 50.421875 13.414062 50.507812 13.570312 L 51.589844 13.570312 C 51.679688 13.46875 51.851562 13.367188 51.851562 13.261719 C 51.867188 11.242188 51.867188 9.21875 51.851562 7.199219 C 51.851562 7.097656 51.679688 6.996094 51.578125 6.894531 L 50.496094 6.894531 C 50.414062 7.03125 50.257812 7.152344 50.253906 7.285156 C 50.226562 7.972656 50.234375 8.667969 50.226562 9.355469 Z M 45.21875 13.554688 C 45.28125 13.417969 45.398438 13.273438 45.398438 13.132812 C 45.410156 11.195312 45.410156 9.261719 45.398438 7.328125 C 45.398438 7.191406 45.28125 7.042969 45.214844 6.902344 L 43.90625 6.902344 L 43.90625 13.554688 Z M 34.449219 13.59375 L 36.5 13.59375 C 36.632812 13.59375 36.769531 13.601562 36.90625 13.59375 C 37.660156 13.535156 38.421875 12.882812 38.4375 12.214844 C 38.460938 10.886719 38.460938 9.558594 38.4375 8.226562 C 38.421875 7.523438 37.945312 6.929688 37.320312 6.894531 C 36.386719 6.835938 35.445312 6.878906 34.484375 6.878906 C 34.472656 7.046875 34.46875 7.15625 34.453125 7.265625 C 34.316406 8.078125 34.78125 8.972656 34.109375 9.730469 C 34.011719 9.84375 34.027344 10.246094 34.125 10.304688 C 34.679688 10.660156 34.414062 11.183594 34.445312 11.632812 C 34.476562 12.257812 34.449219 12.890625 34.449219 13.59375 Z M 52.578125 10.113281 C 52.578125 10.679688 52.5625 11.242188 52.578125 11.804688 C 52.632812 12.816406 53.441406 13.628906 54.457031 13.679688 C 55.449219 13.75 56.523438 13.015625 56.574219 12.089844 C 56.648438 10.808594 56.644531 9.523438 56.558594 8.242188 C 56.492188 7.222656 55.589844 6.664062 54.371094 6.75 C 53.339844 6.816406 52.609375 7.53125 52.582031 8.5 C 52.570312 9.035156 52.578125 9.574219 52.578125 10.113281 Z M 42.175781 6.910156 L 40.101562 6.910156 C 39.695312 9.144531 39.300781 11.347656 38.902344 13.546875 L 40.390625 13.546875 L 40.5625 12.355469 L 41.628906 12.355469 C 41.683594 12.773438 41.734375 13.167969 41.785156 13.558594 L 43.488281 13.558594 C 43.042969 11.3125 42.609375 9.109375 42.175781 6.910156 Z M 61.203125 9.332031 C 61.21875 9.023438 61.21875 8.71875 61.203125 8.410156 C 61.082031 7.261719 60.308594 6.679688 59.011719 6.746094 C 57.90625 6.800781 57.21875 7.511719 57.210938 8.605469 C 57.207031 9.703125 57.171875 10.773438 57.230469 11.855469 C 57.265625 12.273438 57.417969 12.671875 57.671875 13.003906 C 58.273438 13.761719 59.3125 13.902344 60.183594 13.433594 C 61.082031 12.945312 61.425781 12.027344 61.148438 10.910156 L 59.632812 10.910156 C 59.632812 11.285156 59.6875 11.632812 59.613281 11.949219 C 59.570312 12.148438 59.34375 12.300781 59.191406 12.476562 C 59.042969 12.304688 58.769531 12.140625 58.765625 11.964844 C 58.722656 10.773438 58.722656 9.578125 58.765625 8.382812 C 58.765625 8.21875 59.050781 8.066406 59.207031 7.90625 C 59.351562 8.070312 59.578125 8.214844 59.621094 8.402344 C 59.695312 8.695312 59.640625 9.011719 59.640625 9.335938 Z M 55.300781 15.144531 L 55.300781 14.296875 L 53.871094 14.296875 L 53.871094 15.144531 Z M 41.84375 14.289062 L 40.402344 14.289062 L 40.402344 15.128906 L 41.84375 15.128906 Z M 41.84375 14.289062 "/>
<path style=" stroke:none;fill-rule:nonzero;fill:rgb(94.901961%,76.078431%,3.529412%);fill-opacity:1;" d="M 0.542969 101.601562 C 0.539062 101.589844 0.53125 101.578125 0.519531 101.574219 C 0.507812 101.570312 0.492188 101.570312 0.480469 101.574219 C 0.492188 101.125 0.507812 100.675781 0.507812 100.21875 C 0.507812 94.285156 0.507812 88.355469 0.507812 82.421875 C 0.507812 82.175781 0.53125 81.929688 0.539062 81.679688 C 8.003906 81.679688 15.46875 81.6875 22.933594 81.703125 C 23.585938 81.714844 24.230469 81.820312 24.851562 82.019531 C 25.933594 82.351562 26.777344 82.996094 27.136719 84.25 C 27.222656 83.992188 27.28125 83.832031 27.332031 83.675781 C 27.726562 82.429688 28.542969 81.789062 29.859375 81.695312 C 30.105469 81.679688 30.355469 81.6875 30.601562 81.6875 L 67.273438 81.6875 C 67.28125 81.824219 67.300781 81.957031 67.300781 82.09375 C 67.300781 88.597656 67.292969 95.097656 67.28125 101.601562 Z M 29.574219 90.441406 L 28.261719 90.441406 L 28.261719 86.847656 L 26.023438 86.847656 L 26.023438 96.785156 L 28.304688 96.785156 L 28.304688 92.558594 L 29.554688 92.558594 C 29.554688 93.828125 29.542969 95.042969 29.570312 96.257812 C 29.570312 96.449219 29.746094 96.785156 29.867188 96.800781 C 30.503906 96.855469 31.152344 96.828125 31.789062 96.828125 L 31.789062 86.84375 L 29.574219 86.84375 Z M 9.585938 91.359375 C 10.699219 90.816406 10.710938 89.800781 10.667969 88.800781 C 10.613281 87.484375 9.816406 86.726562 8.503906 86.699219 C 7.578125 86.679688 6.652344 86.738281 5.730469 86.699219 C 5.148438 86.675781 5.011719 86.890625 5.015625 87.4375 C 5.039062 90.304688 5.027344 93.171875 5.027344 96.035156 C 5.027344 96.25 5.050781 96.464844 5.0625 96.714844 C 6.3125 96.714844 7.5 96.789062 8.652344 96.679688 C 9.253906 96.621094 9.816406 96.363281 10.257812 95.953125 C 11.339844 94.839844 10.925781 92.207031 9.585938 91.359375 Z M 46.679688 92.53125 L 46.679688 96.785156 L 48.847656 96.785156 L 48.847656 86.847656 L 46.652344 86.847656 L 46.652344 90.457031 L 45.320312 90.457031 L 45.320312 86.855469 L 43.066406 86.855469 L 43.066406 96.773438 L 45.371094 96.773438 L 45.371094 92.53125 Z M 36.074219 86.789062 L 36.074219 96.660156 L 38.105469 96.660156 C 38.433594 95.542969 37.738281 94.285156 38.769531 93.234375 C 39.085938 94.296875 39.347656 95.25 39.660156 96.1875 C 39.730469 96.394531 39.96875 96.667969 40.144531 96.683594 C 40.808594 96.742188 41.480469 96.707031 42.226562 96.707031 C 41.796875 95.398438 41.496094 94.132812 40.972656 92.972656 C 40.285156 91.445312 40.296875 90.074219 41.265625 88.679688 C 41.648438 88.128906 41.855469 87.460938 42.191406 86.738281 L 41.109375 86.738281 C 39.742188 86.738281 39.746094 86.738281 39.277344 88.003906 C 38.964844 88.855469 38.640625 89.699219 38.320312 90.542969 L 38.183594 90.507812 L 38.183594 86.789062 Z M 55.863281 91.914062 C 55.863281 91.214844 55.890625 90.515625 55.859375 89.816406 C 55.824219 89.027344 55.75 88.246094 55.167969 87.609375 C 54.257812 86.621094 53.128906 86.550781 51.925781 86.816406 C 50.796875 87.097656 49.996094 88.101562 49.976562 89.265625 C 49.976562 90.800781 49.976562 92.335938 49.976562 93.871094 C 49.976562 95.605469 51.195312 96.875 52.863281 96.878906 C 53.660156 96.886719 54.429688 96.574219 54.996094 96.011719 C 55.558594 95.445312 55.875 94.679688 55.871094 93.878906 C 55.875 93.226562 55.871094 92.570312 55.871094 91.914062 Z M 63.199219 96.792969 C 63.21875 96.671875 63.222656 96.550781 63.214844 96.429688 C 62.621094 93.332031 62.03125 90.234375 61.410156 87.140625 C 61.375 86.972656 61.058594 86.757812 60.867188 86.742188 C 60.191406 86.691406 59.511719 86.742188 58.835938 86.714844 C 58.40625 86.695312 58.261719 86.851562 58.191406 87.277344 C 57.921875 88.875 57.609375 90.46875 57.324219 92.066406 C 57.042969 93.628906 56.773438 95.199219 56.484375 96.828125 C 57.101562 96.828125 57.640625 96.804688 58.175781 96.835938 C 58.601562 96.859375 58.71875 96.671875 58.746094 96.285156 C 58.773438 95.847656 58.859375 95.410156 58.917969 94.984375 L 60.589844 94.984375 C 60.660156 95.609375 60.722656 96.183594 60.800781 96.792969 Z M 15.679688 94.980469 C 15.734375 95.472656 15.765625 95.945312 15.851562 96.402344 C 15.878906 96.558594 16.050781 96.796875 16.164062 96.8125 C 16.890625 96.847656 17.621094 96.828125 18.398438 96.828125 C 17.757812 93.550781 17.136719 90.394531 16.535156 87.230469 C 16.460938 86.835938 16.304688 86.707031 15.914062 86.722656 C 15.28125 86.757812 14.648438 86.757812 14.015625 86.722656 C 13.527344 86.683594 13.351562 86.875 13.269531 87.335938 C 12.835938 89.84375 12.371094 92.347656 11.917969 94.851562 C 11.800781 95.484375 11.703125 96.121094 11.589844 96.792969 L 13.746094 96.792969 C 13.777344 96.597656 13.800781 96.441406 13.828125 96.285156 C 14.078125 94.835938 14.078125 94.835938 15.691406 94.976562 Z M 24.828125 90.480469 C 25.097656 88.867188 24.691406 87.730469 23.570312 87.070312 C 22.746094 86.582031 21.84375 86.613281 20.945312 86.824219 C 19.847656 87.117188 19.074219 88.097656 19.039062 89.234375 C 19.039062 90.90625 18.992188 92.574219 19.066406 94.246094 C 19.105469 94.824219 19.304688 95.375 19.640625 95.84375 C 20.453125 96.957031 22.210938 97.234375 23.429688 96.554688 C 24.648438 95.878906 25.222656 94.324219 24.785156 92.875 L 22.617188 92.875 C 22.617188 93.417969 22.617188 93.902344 22.617188 94.394531 C 22.609375 94.863281 22.378906 95.269531 21.917969 95.191406 C 21.664062 95.148438 21.300781 94.6875 21.292969 94.40625 C 21.234375 92.628906 21.261719 90.847656 21.265625 89.066406 C 21.265625 88.589844 21.535156 88.351562 21.988281 88.363281 C 22.4375 88.371094 22.632812 88.625 22.621094 89.070312 C 22.609375 89.511719 22.621094 90 22.621094 90.484375 Z M 14.238281 85.933594 C 15.320312 86.140625 15.902344 85.714844 16.289062 84.441406 C 14.582031 84.292969 14.476562 84.371094 14.246094 85.929688 Z M 14.238281 85.933594 "/>
<path style=" stroke:none;fill-rule:nonzero;fill:rgb(94.901961%,76.078431%,4.313725%);fill-opacity:1;" d="M 34.984375 50.746094 L 36.976562 52.332031 L 39.007812 51.175781 L 41.832031 56.070312 L 39.800781 57.289062 C 40.566406 59.789062 40.566406 62.460938 39.808594 64.960938 L 41.839844 66.160156 C 40.890625 67.800781 39.96875 69.394531 39.011719 71.054688 L 36.796875 69.785156 C 36.679688 69.972656 36.578125 70.242188 36.390625 70.425781 C 34.84375 71.921875 32.933594 72.992188 30.851562 73.523438 C 30.398438 73.636719 30.277344 73.828125 30.300781 74.257812 C 30.332031 74.839844 30.300781 75.421875 30.300781 76.128906 L 27.179688 76.128906 C 27.140625 76.132812 27.101562 76.140625 27.066406 76.15625 C 27.03125 76.125 26.984375 76.113281 26.941406 76.128906 L 24.644531 76.128906 C 24.644531 75.390625 24.628906 74.746094 24.644531 74.09375 C 24.660156 73.746094 24.5625 73.574219 24.207031 73.480469 C 21.976562 72.882812 20.078125 71.71875 18.433594 70.113281 C 18.234375 69.976562 17.980469 69.941406 17.753906 70.023438 C 17.148438 70.308594 16.574219 70.667969 15.914062 71.042969 L 13.101562 66.15625 C 13.726562 65.789062 14.296875 65.433594 14.890625 65.117188 C 15.214844 64.941406 15.324219 64.773438 15.214844 64.375 C 14.628906 62.257812 14.632812 60.019531 15.222656 57.902344 C 15.339844 57.476562 15.222656 57.289062 14.878906 57.105469 C 14.300781 56.800781 13.742188 56.460938 13.101562 56.089844 L 15.917969 51.1875 L 18.171875 52.460938 C 19.503906 51.105469 20.976562 50.011719 22.71875 49.316406 C 23.09375 49.167969 23.46875 48.976562 23.863281 48.917969 C 24.5625 48.816406 24.714844 48.429688 24.65625 47.800781 C 24.609375 47.292969 24.644531 46.773438 24.644531 46.234375 L 27.082031 46.066406 L 27.175781 46.109375 L 30.296875 46.109375 L 30.296875 48.585938 L 32.773438 49.386719 C 32.539062 49.859375 32.308594 50.332031 32.074219 50.800781 C 30.511719 50.140625 28.890625 49.777344 27.183594 49.890625 C 23.527344 50.046875 20.585938 51.605469 18.453125 54.558594 C 13.503906 61.414062 17.570312 71.03125 25.925781 72.3125 C 26.257812 72.363281 26.605469 72.355469 26.9375 72.371094 L 27.0625 72.34375 C 27.101562 72.351562 27.140625 72.359375 27.175781 72.371094 C 27.6875 72.371094 28.199219 72.398438 28.707031 72.359375 C 35.21875 71.855469 40.027344 65.339844 38.644531 58.921875 C 38.023438 56.046875 36.519531 53.75 34.1875 51.976562 C 34.453125 51.566406 34.71875 51.15625 34.984375 50.746094 Z M 34.984375 50.746094 "/>
<path style=" stroke:none;fill-rule:nonzero;fill:rgb(94.901961%,76.078431%,3.529412%);fill-opacity:1;" d="M 28.367188 59.546875 C 29.539062 57.210938 30.707031 54.871094 31.894531 52.542969 C 35.824219 44.824219 39.753906 37.105469 43.695312 29.394531 C 44.214844 28.417969 44.683594 27.417969 45.101562 26.394531 L 14.289062 42.03125 L 14.179688 41.847656 L 47.890625 19.917969 C 48 22.796875 48.925781 23.726562 51.519531 23.585938 C 51.464844 23.726562 51.402344 23.859375 51.332031 23.992188 C 43.773438 35.8125 36.207031 47.628906 28.640625 59.4375 C 28.589844 59.511719 28.53125 59.582031 28.46875 59.644531 Z M 28.367188 59.546875 "/>
<path style=" stroke:none;fill-rule:nonzero;fill:rgb(99.607843%,99.215686%,99.215686%);fill-opacity:1;" d="M 34.1875 51.972656 C 36.519531 53.746094 38.023438 56.035156 38.640625 58.917969 C 40.027344 65.335938 35.214844 71.851562 28.703125 72.355469 C 28.195312 72.394531 27.683594 72.367188 27.171875 72.367188 C 27.160156 72.316406 27.144531 72.261719 27.128906 72.210938 C 27.140625 69.140625 27.148438 66.070312 27.15625 63 C 29.355469 59.523438 31.554688 56.050781 33.753906 52.574219 C 33.886719 52.367188 34.042969 52.171875 34.1875 51.972656 Z M 34.1875 51.972656 "/>
<path style=" stroke:none;fill-rule:nonzero;fill:rgb(99.607843%,99.215686%,99.215686%);fill-opacity:1;" d="M 32.769531 49.382812 L 30.296875 48.582031 L 30.296875 46.105469 L 27.171875 46.105469 L 27.132812 45.933594 C 27.144531 45.6875 27.164062 45.441406 27.164062 45.195312 C 27.171875 42.1875 27.179688 39.179688 27.183594 36.167969 L 43.15625 28.0625 C 43.316406 27.984375 43.484375 27.914062 43.648438 27.84375 C 43.671875 27.867188 43.695312 27.890625 43.726562 27.914062 C 42.695312 29.964844 41.671875 32.019531 40.632812 34.0625 C 38.09375 39.0625 35.546875 44.058594 32.992188 49.054688 C 32.925781 49.167969 32.851562 49.277344 32.769531 49.382812 Z M 32.769531 49.382812 "/>
<path style=" stroke:none;fill-rule:nonzero;fill:rgb(94.901961%,76.078431%,3.529412%);fill-opacity:1;" d="M 19.308594 11.109375 C 18.332031 11.808594 17.367188 12.53125 16.382812 13.222656 C 16.058594 13.445312 15.957031 13.636719 16.101562 14.042969 C 16.519531 15.199219 16.863281 16.382812 17.128906 17.582031 L 13.761719 15.144531 L 10.207031 17.710938 C 10.613281 16.457031 10.914062 15.375 11.328125 14.335938 C 11.582031 13.699219 11.40625 13.375 10.878906 13.027344 C 9.941406 12.410156 9.050781 11.722656 8.214844 10.972656 C 9.273438 10.972656 10.34375 10.90625 11.394531 10.996094 C 12.207031 11.0625 12.539062 10.757812 12.730469 10.011719 C 12.996094 8.988281 13.363281 7.992188 13.75 6.796875 C 14.175781 8.097656 14.5625 9.210938 14.894531 10.339844 C 15.039062 10.84375 15.28125 11 15.796875 10.984375 C 16.945312 10.941406 18.097656 10.96875 19.242188 10.96875 Z M 19.308594 11.109375 "/>
<path style=" stroke:none;fill-rule:nonzero;fill:rgb(99.607843%,98.823529%,98.823529%);fill-opacity:1;" d="M 27.179688 49.886719 C 28.886719 49.769531 30.507812 50.136719 32.070312 50.796875 C 30.503906 53.894531 28.933594 56.988281 27.359375 60.082031 C 27.316406 60.171875 27.207031 60.21875 27.125 60.292969 C 27.125 56.898438 27.125 53.503906 27.125 50.113281 Z M 27.179688 49.886719 "/>
<path style=" stroke:none;fill-rule:nonzero;fill:rgb(78.823529%,0.392157%,7.45098%);fill-opacity:1;" d="M 67.308594 81.148438 C 67.316406 80.902344 67.328125 80.652344 67.328125 80.40625 C 67.328125 54.078125 67.328125 27.753906 67.328125 1.425781 C 67.328125 1.179688 67.308594 0.933594 67.296875 0.683594 C 67.296875 0.640625 67.296875 0.59375 67.296875 0.550781 L 67.308594 0.539062 C 67.390625 0.632812 67.519531 0.710938 67.546875 0.820312 C 67.574219 1 67.578125 1.179688 67.5625 1.363281 C 67.5625 27.6875 67.558594 54.011719 67.550781 80.332031 C 67.546875 80.597656 67.390625 80.875 67.308594 81.148438 Z M 67.308594 81.148438 "/>
<path style=" stroke:none;fill-rule:nonzero;fill:rgb(94.901961%,76.078431%,3.529412%);fill-opacity:1;" d="M 50.734375 18.53125 C 52.027344 18.53125 53.019531 19.480469 53.035156 20.753906 C 53.046875 21.359375 52.816406 21.941406 52.394531 22.375 C 51.976562 22.808594 51.398438 23.050781 50.792969 23.054688 C 49.472656 23.070312 48.457031 22.085938 48.457031 20.792969 C 48.449219 20.1875 48.6875 19.605469 49.117188 19.179688 C 49.546875 18.75 50.128906 18.519531 50.734375 18.53125 Z M 50.734375 18.53125 "/>
<path style=" stroke:none;fill-rule:nonzero;fill:rgb(78.823529%,0.392157%,7.45098%);fill-opacity:1;" d="M 67.148438 0.566406 C 67.015625 0.558594 66.878906 0.542969 66.742188 0.542969 L 27.753906 0.542969 C 27.617188 0.542969 27.484375 0.558594 27.347656 0.566406 L 27.210938 0.542969 L 27.199219 0.542969 C 27.425781 0.457031 27.652344 0.292969 27.875 0.292969 C 30.894531 0.277344 33.917969 0.28125 36.9375 0.28125 C 46.785156 0.28125 56.636719 0.285156 66.488281 0.292969 C 66.757812 0.292969 67.027344 0.453125 67.300781 0.539062 L 67.285156 0.542969 Z M 67.148438 0.566406 "/>
<path style=" stroke:none;fill-rule:nonzero;fill:rgb(78.823529%,0.392157%,7.45098%);fill-opacity:1;" d="M 29.488281 81.230469 C 29.894531 81.207031 30.300781 81.164062 30.699219 81.164062 C 42.894531 81.164062 55.09375 81.164062 67.289062 81.164062 C 67.042969 81.246094 66.796875 81.40625 66.546875 81.40625 C 61.023438 81.417969 55.503906 81.421875 49.980469 81.417969 C 43.421875 81.417969 36.863281 81.414062 30.304688 81.410156 C 30.03125 81.410156 29.761719 81.292969 29.488281 81.230469 Z M 29.488281 81.230469 "/>
<path style=" stroke:none;fill-rule:nonzero;fill:rgb(78.823529%,0%,5.490196%);fill-opacity:1;" d="M 27.203125 0.683594 C 27.191406 0.84375 27.167969 1 27.167969 1.15625 C 27.167969 11.652344 27.167969 22.148438 27.167969 32.644531 C 27.089844 32.363281 26.949219 32.085938 26.949219 31.804688 C 26.9375 22.152344 26.9375 12.5 26.941406 2.84375 C 26.941406 2.257812 26.921875 1.671875 26.953125 1.082031 C 26.960938 0.898438 27.109375 0.71875 27.195312 0.542969 L 27.207031 0.542969 Z M 27.203125 0.683594 "/>
<path style=" stroke:none;fill-rule:nonzero;fill:rgb(79.607843%,4.313725%,14.117647%);fill-opacity:1;" d="M 0.542969 81.679688 C 0.53125 81.929688 0.507812 82.175781 0.507812 82.421875 C 0.507812 88.355469 0.507812 94.289062 0.507812 100.21875 C 0.507812 100.671875 0.492188 101.121094 0.484375 101.574219 L 0.269531 101.59375 C 0.230469 100.925781 0.148438 100.253906 0.148438 99.582031 C 0.136719 94.285156 0.136719 88.992188 0.148438 83.695312 C 0.148438 83.019531 0.230469 82.355469 0.273438 81.683594 Z M 0.542969 81.679688 "/>
<path style=" stroke:none;fill-rule:nonzero;fill:rgb(79.607843%,4.313725%,14.117647%);fill-opacity:1;" d="M 67.285156 101.59375 C 67.292969 95.089844 67.296875 88.589844 67.304688 82.085938 C 67.304688 81.953125 67.285156 81.816406 67.277344 81.679688 C 67.371094 81.851562 67.546875 82.023438 67.546875 82.195312 C 67.5625 88.484375 67.5625 94.773438 67.546875 101.066406 C 67.546875 101.246094 67.375 101.417969 67.285156 101.59375 Z M 67.285156 101.59375 "/>
<path style=" stroke:none;fill-rule:nonzero;fill:rgb(78.823529%,0%,5.490196%);fill-opacity:1;" d="M 27.128906 50.113281 C 27.128906 53.507812 27.128906 56.898438 27.128906 60.292969 C 27.070312 60.117188 26.953125 59.941406 26.953125 59.761719 C 26.945312 56.664062 26.945312 53.5625 26.953125 50.464844 C 26.949219 50.347656 27.066406 50.230469 27.128906 50.113281 Z M 27.128906 50.113281 "/>
<path style=" stroke:none;fill-rule:nonzero;fill:rgb(78.823529%,0%,5.490196%);fill-opacity:1;" d="M 27.183594 36.167969 C 27.175781 39.175781 27.171875 42.1875 27.164062 45.195312 C 27.164062 45.441406 27.144531 45.6875 27.132812 45.933594 L 27.078125 46.054688 C 27.011719 45.828125 26.964844 45.59375 26.941406 45.355469 C 26.933594 42.519531 26.933594 39.683594 26.941406 36.847656 C 26.953125 36.625 27.101562 36.394531 27.183594 36.167969 Z M 27.183594 36.167969 "/>
<path style=" stroke:none;fill-rule:nonzero;fill:rgb(78.823529%,0%,5.490196%);fill-opacity:1;" d="M 27.15625 62.996094 C 27.148438 66.066406 27.140625 69.136719 27.128906 72.207031 L 27.0625 72.34375 L 26.933594 72.371094 C 26.933594 69.480469 26.933594 66.589844 26.949219 63.699219 C 26.953125 63.464844 27.085938 63.230469 27.15625 62.996094 Z M 27.15625 62.996094 "/>
<path style=" stroke:none;fill-rule:nonzero;fill:rgb(78.823529%,0%,5.490196%);fill-opacity:1;" d="M 26.941406 76.128906 C 26.984375 76.113281 27.03125 76.121094 27.066406 76.152344 C 27.074219 76.195312 27.097656 76.234375 27.132812 76.257812 C 27.128906 78.394531 27.121094 80.53125 27.117188 82.667969 C 27.058594 82.492188 26.949219 82.316406 26.949219 82.140625 C 26.941406 80.136719 26.941406 78.132812 26.941406 76.128906 Z M 26.941406 76.128906 "/>
<path style=" stroke:none;fill-rule:nonzero;fill:rgb(94.901961%,76.078431%,3.529412%);fill-opacity:1;" d="M 13.972656 42.160156 L 13.648438 42.273438 L 13.617188 42.195312 L 13.886719 42.078125 Z M 13.972656 42.160156 "/>
<path style=" stroke:none;fill-rule:nonzero;fill:rgb(94.901961%,76.078431%,3.529412%);fill-opacity:1;" d="M 28.160156 59.863281 L 28.257812 59.902344 C 28.238281 59.933594 28.21875 59.980469 28.195312 59.984375 C 28.171875 59.992188 28.125 59.960938 28.089844 59.945312 C 28.109375 59.917969 28.132812 59.890625 28.160156 59.863281 Z M 28.160156 59.863281 "/>
<path style=" stroke:none;fill-rule:nonzero;fill:rgb(94.901961%,76.078431%,3.529412%);fill-opacity:1;" d="M 28.46875 59.644531 L 28.347656 59.746094 C 28.347656 59.679688 28.359375 59.609375 28.367188 59.546875 Z M 28.46875 59.644531 "/>
<path style=" stroke:none;fill-rule:nonzero;fill:rgb(94.901961%,76.078431%,3.529412%);fill-opacity:1;" d="M 13.890625 42.078125 L 14.082031 42.050781 L 13.972656 42.160156 Z M 13.890625 42.078125 "/>
<path style=" stroke:none;fill-rule:nonzero;fill:rgb(99.607843%,99.215686%,99.215686%);fill-opacity:1;" d="M 43.652344 27.84375 L 43.816406 27.832031 L 43.730469 27.914062 C 43.703125 27.890625 43.675781 27.867188 43.652344 27.84375 Z M 43.652344 27.84375 "/>
<path style=" stroke:none;fill-rule:nonzero;fill:rgb(81.176471%,10.588235%,16.862745%);fill-opacity:1;" d="M 34.449219 13.59375 C 34.449219 12.890625 34.476562 12.257812 34.4375 11.632812 C 34.410156 11.1875 34.675781 10.660156 34.121094 10.308594 C 34.023438 10.246094 34.007812 9.84375 34.105469 9.734375 C 34.78125 8.976562 34.3125 8.082031 34.445312 7.265625 C 34.464844 7.15625 34.46875 7.046875 34.480469 6.878906 C 35.4375 6.878906 36.375 6.839844 37.3125 6.894531 C 37.9375 6.933594 38.414062 7.527344 38.429688 8.230469 C 38.460938 9.558594 38.460938 10.886719 38.429688 12.21875 C 38.417969 12.886719 37.65625 13.535156 36.898438 13.59375 C 36.765625 13.605469 36.628906 13.59375 36.492188 13.59375 Z M 36.886719 8.28125 L 36.011719 7.855469 L 36.011719 9.238281 C 36.230469 9.507812 36.445312 9.664062 36.492188 9.855469 C 36.550781 10.101562 36.625 10.472656 36.140625 10.46875 C 36.089844 10.46875 36.003906 10.628906 36.003906 10.71875 C 35.992188 11.289062 36 11.863281 36 12.683594 L 36.90625 12.054688 C 37.230469 10.816406 37.226562 9.515625 36.890625 8.28125 Z M 36.886719 8.28125 "/>
<path style=" stroke:none;fill-rule:nonzero;fill:rgb(81.176471%,10.588235%,16.862745%);fill-opacity:1;" d="M 52.578125 10.113281 C 52.578125 9.574219 52.570312 9.03125 52.578125 8.488281 C 52.601562 7.519531 53.339844 6.808594 54.367188 6.742188 C 55.585938 6.660156 56.492188 7.214844 56.558594 8.230469 C 56.640625 9.511719 56.644531 10.796875 56.574219 12.078125 C 56.519531 13.007812 55.449219 13.742188 54.453125 13.671875 C 53.441406 13.617188 52.632812 12.808594 52.582031 11.796875 C 52.5625 11.242188 52.578125 10.679688 52.578125 10.113281 Z M 54.144531 10.113281 C 54.144531 10.699219 54.109375 11.285156 54.164062 11.867188 C 54.1875 12.082031 54.414062 12.273438 54.546875 12.484375 C 54.707031 12.273438 54.992188 12.074219 55 11.859375 C 55.046875 10.714844 55.039062 9.566406 55 8.421875 C 55 8.246094 54.746094 8.078125 54.609375 7.90625 C 54.457031 8.082031 54.183594 8.242188 54.164062 8.433594 C 54.128906 8.988281 54.128906 9.550781 54.152344 10.109375 Z M 54.144531 10.113281 "/>
<path style=" stroke:none;fill-rule:nonzero;fill:rgb(80.784314%,9.019608%,16.078431%);fill-opacity:1;" d="M 42.175781 6.910156 C 42.609375 9.113281 43.042969 11.316406 43.484375 13.5625 L 41.785156 13.5625 C 41.730469 13.164062 41.679688 12.773438 41.625 12.359375 L 40.5625 12.359375 L 40.390625 13.546875 L 38.898438 13.546875 C 39.296875 11.34375 39.695312 9.140625 40.101562 6.910156 Z M 40.6875 11.222656 L 41.546875 11.222656 L 41.242188 8.183594 L 41.070312 8.183594 C 40.945312 9.1875 40.816406 10.191406 40.6875 11.222656 Z M 40.6875 11.222656 "/>
<path style=" stroke:none;fill-rule:nonzero;fill:rgb(80.784314%,9.019608%,16.078431%);fill-opacity:1;" d="M 61.203125 9.332031 L 59.636719 9.332031 C 59.636719 9.011719 59.691406 8.691406 59.617188 8.402344 C 59.574219 8.214844 59.347656 8.070312 59.203125 7.90625 C 59.046875 8.066406 58.765625 8.21875 58.761719 8.382812 C 58.722656 9.574219 58.722656 10.769531 58.761719 11.964844 C 58.761719 12.140625 59.039062 12.304688 59.1875 12.476562 C 59.335938 12.300781 59.566406 12.148438 59.609375 11.949219 C 59.683594 11.628906 59.628906 11.285156 59.628906 10.90625 L 61.136719 10.90625 C 61.417969 12.027344 61.070312 12.9375 60.171875 13.429688 C 59.304688 13.902344 58.261719 13.761719 57.664062 13.003906 C 57.40625 12.667969 57.253906 12.269531 57.222656 11.851562 C 57.164062 10.765625 57.199219 9.683594 57.203125 8.597656 C 57.207031 7.515625 57.898438 6.796875 59.003906 6.738281 C 60.296875 6.671875 61.074219 7.253906 61.195312 8.402344 C 61.214844 8.710938 61.214844 9.023438 61.203125 9.332031 Z M 61.203125 9.332031 "/>
<path style=" stroke:none;fill-rule:nonzero;fill:rgb(80.784314%,9.019608%,16.078431%);fill-opacity:1;" d="M 50.496094 6.894531 L 51.582031 6.894531 C 51.582031 9.117188 51.582031 11.34375 51.582031 13.566406 L 50.496094 13.566406 C 50.496094 12.808594 50.511719 12.050781 50.476562 11.292969 C 50.464844 11.09375 50.308594 10.90625 50.21875 10.710938 L 49.417969 10.710938 L 49.417969 13.273438 L 49.285156 13.5625 L 48.066406 13.5625 L 48.066406 6.890625 L 49.136719 6.890625 L 49.421875 7.1875 L 49.550781 9.378906 C 49.789062 9.753906 50.015625 9.785156 50.226562 9.355469 C 50.3125 9.183594 50.46875 9.011719 50.476562 8.832031 C 50.515625 8.1875 50.496094 7.539062 50.496094 6.894531 Z M 50.496094 6.894531 "/>
<path style=" stroke:none;fill-rule:nonzero;fill:rgb(80.784314%,8.235294%,15.686275%);fill-opacity:1;" d="M 45.21875 13.558594 L 43.90625 13.558594 L 43.90625 6.910156 L 45.21875 6.910156 C 45.21875 9.125 45.21875 11.339844 45.21875 13.558594 Z M 45.21875 13.558594 "/>
<path style=" stroke:none;fill-rule:nonzero;fill:rgb(82.352941%,18.039216%,23.921569%);fill-opacity:1;" d="M 48.0625 6.890625 L 48.0625 13.570312 C 47.976562 13.460938 47.816406 13.351562 47.816406 13.238281 C 47.800781 11.234375 47.800781 9.226562 47.816406 7.21875 C 47.820312 7.109375 47.980469 7 48.0625 6.890625 Z M 48.0625 6.890625 "/>
<path style=" stroke:none;fill-rule:nonzero;fill:rgb(82.352941%,18.039216%,23.921569%);fill-opacity:1;" d="M 51.582031 13.566406 C 51.582031 11.34375 51.582031 9.117188 51.582031 6.894531 C 51.671875 6.996094 51.84375 7.09375 51.851562 7.199219 C 51.867188 9.21875 51.867188 11.242188 51.851562 13.261719 C 51.839844 13.363281 51.667969 13.464844 51.582031 13.566406 Z M 51.582031 13.566406 "/>
<path style=" stroke:none;fill-rule:nonzero;fill:rgb(81.960784%,14.509804%,20.784314%);fill-opacity:1;" d="M 55.300781 15.144531 L 53.871094 15.144531 L 53.871094 14.296875 L 55.300781 14.296875 Z M 55.300781 15.144531 "/>
<path style=" stroke:none;fill-rule:nonzero;fill:rgb(81.176471%,10.588235%,16.862745%);fill-opacity:1;" d="M 41.84375 14.289062 L 41.84375 15.128906 L 40.402344 15.128906 L 40.402344 14.289062 Z M 41.84375 14.289062 "/>
<path style=" stroke:none;fill-rule:nonzero;fill:rgb(78.823529%,0%,5.490196%);fill-opacity:1;" d="M 45.21875 13.558594 C 45.21875 11.339844 45.21875 9.121094 45.21875 6.90625 C 45.28125 7.046875 45.398438 7.1875 45.402344 7.328125 C 45.414062 9.265625 45.414062 11.199219 45.402344 13.132812 C 45.398438 13.273438 45.28125 13.410156 45.21875 13.558594 Z M 45.21875 13.558594 "/>
<path style=" stroke:none;fill-rule:nonzero;fill:rgb(82.352941%,18.039216%,23.921569%);fill-opacity:1;" d="M 50.226562 10.710938 C 50.316406 10.90625 50.476562 11.097656 50.484375 11.292969 C 50.519531 12.050781 50.503906 12.808594 50.507812 13.570312 C 50.421875 13.414062 50.269531 13.265625 50.261719 13.109375 C 50.226562 12.3125 50.226562 11.515625 50.226562 10.710938 Z M 50.226562 10.710938 "/>
<path style=" stroke:none;fill-rule:nonzero;fill:rgb(82.352941%,18.039216%,23.921569%);fill-opacity:1;" d="M 50.496094 6.894531 C 50.496094 7.539062 50.507812 8.1875 50.472656 8.832031 C 50.464844 9.007812 50.308594 9.179688 50.222656 9.355469 C 50.222656 8.664062 50.222656 7.972656 50.253906 7.285156 C 50.261719 7.148438 50.417969 7.023438 50.496094 6.894531 Z M 50.496094 6.894531 "/>
<path style=" stroke:none;fill-rule:nonzero;fill:rgb(82.352941%,18.039216%,23.921569%);fill-opacity:1;" d="M 50.226562 9.355469 C 50.015625 9.777344 49.785156 9.753906 49.550781 9.378906 Z M 50.226562 9.355469 "/>
<path style=" stroke:none;fill-rule:nonzero;fill:rgb(82.352941%,18.039216%,23.921569%);fill-opacity:1;" d="M 49.421875 7.191406 L 49.144531 6.894531 Z M 49.421875 7.191406 "/>
<path style=" stroke:none;fill-rule:nonzero;fill:rgb(82.352941%,18.039216%,23.921569%);fill-opacity:1;" d="M 49.28125 13.570312 L 49.414062 13.28125 Z M 49.28125 13.570312 "/>
<path style=" stroke:none;fill-rule:nonzero;fill:rgb(80.784314%,9.019608%,16.078431%);fill-opacity:1;" d="M 27.132812 76.261719 C 27.09375 76.238281 27.070312 76.199219 27.066406 76.15625 C 27.101562 76.144531 27.140625 76.136719 27.179688 76.132812 C 27.164062 76.167969 27.148438 76.210938 27.132812 76.261719 Z M 27.132812 76.261719 "/>
<path style=" stroke:none;fill-rule:nonzero;fill:rgb(97.647059%,92.941176%,92.941176%);fill-opacity:1;" d="M 67.148438 0.566406 L 67.285156 0.542969 C 67.285156 0.585938 67.285156 0.636719 67.285156 0.675781 Z M 67.148438 0.566406 "/>
<path style=" stroke:none;fill-rule:nonzero;fill:rgb(97.647059%,92.941176%,92.941176%);fill-opacity:1;" d="M 27.203125 0.683594 L 27.203125 0.550781 L 27.335938 0.570312 Z M 27.203125 0.683594 "/>
<path style=" stroke:none;fill-rule:nonzero;fill:rgb(80.784314%,9.019608%,15.294118%);fill-opacity:1;" d="M 29.574219 90.441406 L 29.574219 86.84375 L 31.789062 86.84375 L 31.789062 96.820312 C 31.152344 96.820312 30.503906 96.847656 29.867188 96.796875 C 29.746094 96.785156 29.574219 96.449219 29.570312 96.253906 C 29.542969 95.035156 29.554688 93.816406 29.554688 92.554688 L 28.304688 92.554688 L 28.304688 96.78125 L 26.023438 96.78125 L 26.023438 86.847656 L 28.261719 86.847656 L 28.261719 90.441406 Z M 29.574219 90.441406 "/>
<path style=" stroke:none;fill-rule:nonzero;fill:rgb(80.784314%,9.411765%,15.294118%);fill-opacity:1;" d="M 9.585938 91.359375 C 10.925781 92.207031 11.34375 94.839844 10.261719 95.945312 C 9.820312 96.359375 9.257812 96.613281 8.65625 96.671875 C 7.496094 96.78125 6.316406 96.707031 5.066406 96.707031 C 5.050781 96.460938 5.03125 96.246094 5.03125 96.027344 C 5.03125 93.164062 5.042969 90.296875 5.019531 87.429688 C 5.019531 86.890625 5.152344 86.667969 5.730469 86.691406 C 6.652344 86.734375 7.582031 86.679688 8.503906 86.691406 C 9.820312 86.722656 10.617188 87.476562 10.671875 88.792969 C 10.710938 89.800781 10.695312 90.816406 9.585938 91.359375 Z M 7.320312 95.058594 C 8.25 95.144531 8.625 94.835938 8.648438 94.027344 C 8.648438 93.828125 8.648438 93.621094 8.648438 93.425781 C 8.648438 92.390625 8.351562 92.175781 7.320312 92.476562 Z M 7.332031 90.875 C 7.78125 90.652344 8.339844 90.542969 8.40625 90.304688 C 8.53125 89.75 8.523438 89.171875 8.382812 88.621094 C 8.347656 88.46875 7.738281 88.453125 7.332031 88.359375 Z M 7.332031 90.875 "/>
<path style=" stroke:none;fill-rule:nonzero;fill:rgb(80.784314%,8.235294%,15.686275%);fill-opacity:1;" d="M 46.683594 92.53125 L 45.367188 92.53125 L 45.367188 96.773438 L 43.0625 96.773438 L 43.0625 86.855469 L 45.328125 86.855469 L 45.328125 90.457031 L 46.660156 90.457031 L 46.660156 86.847656 L 48.851562 86.847656 L 48.851562 96.785156 L 46.683594 96.785156 Z M 46.683594 92.53125 "/>
<path style=" stroke:none;fill-rule:nonzero;fill:rgb(80.784314%,9.019608%,15.294118%);fill-opacity:1;" d="M 36.082031 86.789062 L 38.1875 86.789062 L 38.1875 90.507812 L 38.320312 90.542969 C 38.640625 89.699219 38.96875 88.855469 39.28125 88.003906 C 39.75 86.738281 39.746094 86.738281 41.109375 86.738281 L 42.195312 86.738281 C 41.859375 87.453125 41.652344 88.128906 41.265625 88.679688 C 40.300781 90.074219 40.289062 91.445312 40.976562 92.972656 C 41.5 94.136719 41.800781 95.398438 42.230469 96.707031 C 41.484375 96.707031 40.8125 96.742188 40.148438 96.683594 C 39.96875 96.667969 39.730469 96.394531 39.664062 96.1875 C 39.351562 95.25 39.085938 94.292969 38.773438 93.234375 C 37.742188 94.285156 38.433594 95.542969 38.109375 96.660156 L 36.078125 96.660156 Z M 36.082031 86.789062 "/>
<path style=" stroke:none;fill-rule:nonzero;fill:rgb(80.784314%,9.019608%,15.294118%);fill-opacity:1;" d="M 55.871094 91.914062 C 55.871094 92.570312 55.871094 93.226562 55.871094 93.878906 C 55.875 94.679688 55.558594 95.445312 54.992188 96.007812 C 54.425781 96.570312 53.660156 96.886719 52.863281 96.878906 C 51.195312 96.878906 49.976562 95.605469 49.976562 93.871094 C 49.976562 92.335938 49.976562 90.800781 49.976562 89.265625 C 49.996094 88.101562 50.800781 87.09375 51.929688 86.816406 C 53.132812 86.542969 54.261719 86.621094 55.171875 87.609375 C 55.753906 88.242188 55.828125 89.027344 55.863281 89.816406 C 55.894531 90.515625 55.871094 91.214844 55.871094 91.914062 Z M 52.15625 91.707031 C 52.15625 92.539062 52.144531 93.371094 52.15625 94.207031 C 52.164062 94.679688 52.292969 95.183594 52.863281 95.175781 C 53.40625 95.175781 53.582031 94.710938 53.582031 94.207031 C 53.582031 92.539062 53.582031 90.875 53.582031 89.207031 C 53.582031 88.710938 53.417969 88.339844 52.871094 88.34375 C 52.320312 88.347656 52.144531 88.703125 52.148438 89.203125 C 52.160156 90.039062 52.15625 90.875 52.15625 91.707031 Z M 52.15625 91.707031 "/>
<path style=" stroke:none;fill-rule:nonzero;fill:rgb(80.784314%,9.411765%,15.294118%);fill-opacity:1;" d="M 63.207031 96.789062 L 60.804688 96.789062 C 60.734375 96.179688 60.671875 95.605469 60.59375 94.980469 L 58.925781 94.980469 C 58.867188 95.40625 58.777344 95.84375 58.753906 96.285156 C 58.730469 96.667969 58.605469 96.859375 58.183594 96.835938 C 57.648438 96.804688 57.109375 96.828125 56.488281 96.828125 C 56.777344 95.203125 57.046875 93.628906 57.328125 92.0625 C 57.617188 90.46875 57.933594 88.875 58.199219 87.273438 C 58.265625 86.851562 58.410156 86.691406 58.839844 86.710938 C 59.519531 86.742188 60.195312 86.6875 60.871094 86.738281 C 61.070312 86.753906 61.382812 86.96875 61.414062 87.140625 C 62.039062 90.230469 62.632812 93.332031 63.21875 96.429688 C 63.226562 96.550781 63.222656 96.667969 63.207031 96.789062 Z M 60 88.617188 L 59.714844 88.617188 C 59.515625 90.167969 59.316406 91.71875 59.113281 93.304688 L 60.445312 93.304688 C 60.292969 91.707031 60.148438 90.164062 60 88.617188 Z M 60 88.617188 "/>
<path style=" stroke:none;fill-rule:nonzero;fill:rgb(80.784314%,9.411765%,15.294118%);fill-opacity:1;" d="M 15.691406 94.976562 C 14.082031 94.839844 14.082031 94.839844 13.84375 96.273438 C 13.816406 96.425781 13.792969 96.582031 13.761719 96.78125 L 11.605469 96.78125 C 11.71875 96.101562 11.820312 95.472656 11.933594 94.835938 C 12.382812 92.332031 12.847656 89.824219 13.285156 87.324219 C 13.367188 86.859375 13.542969 86.671875 14.035156 86.707031 C 14.664062 86.746094 15.296875 86.746094 15.929688 86.707031 C 16.320312 86.691406 16.46875 86.824219 16.550781 87.21875 C 17.152344 90.378906 17.769531 93.535156 18.414062 96.816406 C 17.636719 96.816406 16.90625 96.832031 16.179688 96.796875 C 16.066406 96.796875 15.894531 96.550781 15.867188 96.390625 C 15.773438 95.941406 15.746094 95.472656 15.691406 94.976562 Z M 15.570312 93.320312 C 15.40625 91.699219 15.25 90.144531 15.097656 88.589844 L 14.824219 88.589844 C 14.621094 90.152344 14.417969 91.71875 14.210938 93.328125 Z M 15.570312 93.320312 "/>
<path style=" stroke:none;fill-rule:nonzero;fill:rgb(80.784314%,9.019608%,15.294118%);fill-opacity:1;" d="M 24.839844 90.476562 L 22.617188 90.476562 C 22.617188 89.988281 22.609375 89.527344 22.617188 89.058594 C 22.625 88.589844 22.410156 88.359375 21.984375 88.351562 C 21.558594 88.34375 21.261719 88.582031 21.261719 89.054688 C 21.261719 90.835938 21.230469 92.621094 21.289062 94.398438 C 21.296875 94.679688 21.660156 95.140625 21.914062 95.183594 C 22.375 95.257812 22.605469 94.851562 22.613281 94.386719 C 22.613281 93.894531 22.613281 93.402344 22.613281 92.867188 L 24.800781 92.867188 C 25.234375 94.3125 24.65625 95.875 23.445312 96.546875 C 22.238281 97.21875 20.46875 96.953125 19.65625 95.832031 C 19.320312 95.367188 19.121094 94.8125 19.082031 94.238281 C 19.007812 92.570312 19.050781 90.902344 19.054688 89.226562 C 19.09375 88.09375 19.867188 87.125 20.957031 86.828125 C 21.855469 86.617188 22.753906 86.585938 23.582031 87.074219 C 24.699219 87.726562 25.113281 88.859375 24.839844 90.476562 Z M 24.839844 90.476562 "/>
<path style=" stroke:none;fill-rule:nonzero;fill:rgb(80.784314%,9.411765%,15.294118%);fill-opacity:1;" d="M 14.246094 85.929688 C 14.476562 84.371094 14.582031 84.292969 16.296875 84.441406 C 15.914062 85.710938 15.328125 86.136719 14.246094 85.929688 Z M 14.246094 85.929688 "/>
<path style=" stroke:none;fill-rule:nonzero;fill:rgb(80.784314%,9.019608%,16.078431%);fill-opacity:1;" d="M 27.078125 46.054688 L 27.128906 45.929688 L 27.167969 46.097656 Z M 27.078125 46.054688 "/>
<path style=" stroke:none;fill-rule:nonzero;fill:rgb(80.784314%,9.019608%,16.078431%);fill-opacity:1;" d="M 27.0625 72.335938 L 27.128906 72.199219 C 27.144531 72.253906 27.160156 72.304688 27.171875 72.359375 C 27.136719 72.347656 27.097656 72.339844 27.0625 72.335938 Z M 27.0625 72.335938 "/>
<path style=" stroke:none;fill-rule:nonzero;fill:rgb(99.607843%,98.823529%,98.823529%);fill-opacity:1;" d="M 36.90625 12.054688 L 35.988281 12.6875 C 35.988281 11.875 35.988281 11.292969 35.996094 10.71875 C 35.996094 10.632812 36.089844 10.472656 36.132812 10.472656 C 36.625 10.472656 36.539062 10.105469 36.484375 9.859375 C 36.4375 9.664062 36.222656 9.507812 36.003906 9.238281 L 36.003906 7.855469 L 36.886719 8.28125 C 36.894531 9.539062 36.902344 10.796875 36.90625 12.054688 Z M 36.90625 12.054688 "/>
<path style=" stroke:none;fill-rule:nonzero;fill:rgb(78.823529%,0%,5.490196%);fill-opacity:1;" d="M 36.90625 12.054688 C 36.898438 10.796875 36.894531 9.542969 36.890625 8.285156 C 37.226562 9.519531 37.230469 10.820312 36.90625 12.054688 Z M 36.90625 12.054688 "/>
<path style=" stroke:none;fill-rule:nonzero;fill:rgb(99.607843%,98.823529%,98.823529%);fill-opacity:1;" d="M 54.152344 10.109375 C 54.128906 9.546875 54.136719 8.984375 54.175781 8.425781 C 54.195312 8.234375 54.464844 8.074219 54.621094 7.898438 C 54.757812 8.070312 55.003906 8.238281 55.011719 8.414062 C 55.046875 9.5625 55.050781 10.707031 55.011719 11.851562 C 55.003906 12.066406 54.714844 12.269531 54.558594 12.476562 C 54.421875 12.269531 54.195312 12.070312 54.175781 11.859375 C 54.109375 11.28125 54.152344 10.691406 54.152344 10.109375 Z M 54.152344 10.109375 "/>
<path style=" stroke:none;fill-rule:nonzero;fill:rgb(97.647059%,92.941176%,92.941176%);fill-opacity:1;" d="M 40.6875 11.222656 C 40.824219 10.191406 40.945312 9.191406 41.070312 8.183594 L 41.242188 8.183594 L 41.546875 11.222656 Z M 40.6875 11.222656 "/>
<path style=" stroke:none;fill-rule:nonzero;fill:rgb(94.901961%,76.078431%,3.529412%);fill-opacity:1;" d="M 7.320312 95.058594 L 7.320312 92.484375 C 8.351562 92.179688 8.644531 92.394531 8.648438 93.433594 C 8.648438 93.636719 8.648438 93.839844 8.648438 94.039062 C 8.625 94.835938 8.257812 95.144531 7.320312 95.058594 Z M 7.320312 95.058594 "/>
<path style=" stroke:none;fill-rule:nonzero;fill:rgb(94.901961%,76.078431%,3.529412%);fill-opacity:1;" d="M 7.332031 90.875 L 7.332031 88.359375 C 7.738281 88.453125 8.347656 88.46875 8.382812 88.621094 C 8.523438 89.171875 8.53125 89.75 8.40625 90.304688 C 8.339844 90.542969 7.78125 90.652344 7.332031 90.875 Z M 7.332031 90.875 "/>
<path style=" stroke:none;fill-rule:nonzero;fill:rgb(94.117647%,72.54902%,3.921569%);fill-opacity:1;" d="M 52.15625 91.707031 C 52.15625 90.871094 52.15625 90.039062 52.15625 89.203125 C 52.15625 88.703125 52.339844 88.347656 52.878906 88.34375 C 53.417969 88.339844 53.59375 88.710938 53.589844 89.207031 C 53.589844 90.875 53.589844 92.539062 53.589844 94.207031 C 53.589844 94.710938 53.417969 95.171875 52.875 95.175781 C 52.308594 95.183594 52.175781 94.679688 52.164062 94.207031 C 52.144531 93.375 52.15625 92.539062 52.15625 91.707031 Z M 52.15625 91.707031 "/>
<path style=" stroke:none;fill-rule:nonzero;fill:rgb(94.901961%,76.078431%,3.529412%);fill-opacity:1;" d="M 60 88.617188 C 60.148438 90.164062 60.292969 91.710938 60.445312 93.304688 L 59.113281 93.304688 C 59.316406 91.722656 59.519531 90.171875 59.714844 88.621094 Z M 60 88.617188 "/>
<path style=" stroke:none;fill-rule:nonzero;fill:rgb(94.901961%,76.078431%,3.529412%);fill-opacity:1;" d="M 15.570312 93.320312 L 14.214844 93.320312 C 14.421875 91.714844 14.621094 90.148438 14.832031 88.578125 L 15.101562 88.578125 C 15.25 90.144531 15.40625 91.707031 15.570312 93.320312 Z M 15.570312 93.320312 "/>
</g>
</svg>
