<?xml version="1.0" encoding="UTF-8"?>
<svg xmlns="http://www.w3.org/2000/svg" xmlns:xlink="http://www.w3.org/1999/xlink" width="200px" height="200px" viewBox="0 0 200 200" version="1.1">
<g id="surface1">
<path style=" stroke:none;fill-rule:nonzero;fill:rgb(84.705882%,84.705882%,98.823529%);fill-opacity:1;" d="M 15.625 184.375 L 184.375 184.375 L 184.375 40.625 L 15.625 40.625 Z M 65.625 175 C 65.625 176.726562 64.226562 178.125 62.5 178.125 L 50 178.125 C 48.273438 178.125 46.875 176.726562 46.875 175 L 46.875 143.75 C 46.875 142.023438 48.273438 140.625 50 140.625 L 62.5 140.625 C 64.226562 140.625 65.625 142.023438 65.625 143.75 Z M 90.625 175 C 90.625 176.726562 89.226562 178.125 87.5 178.125 L 75 178.125 C 73.273438 178.125 71.875 176.726562 71.875 175 L 71.875 137.5 C 71.875 135.773438 73.273438 134.375 75 134.375 L 87.5 134.375 C 89.226562 134.375 90.625 135.773438 90.625 137.5 Z M 112.5 46.875 L 175 46.875 C 176.726562 46.875 178.125 48.273438 178.125 50 C 178.125 51.726562 176.726562 53.125 175 53.125 L 112.5 53.125 C 110.773438 53.125 109.375 51.726562 109.375 50 C 109.375 48.273438 110.773438 46.875 112.5 46.875 Z M 112.5 59.375 L 175 59.375 C 176.726562 59.375 178.125 60.773438 178.125 62.5 C 178.125 64.226562 176.726562 65.625 175 65.625 L 112.5 65.625 C 110.773438 65.625 109.375 64.226562 109.375 62.5 C 109.375 60.773438 110.773438 59.375 112.5 59.375 Z M 112.5 71.875 L 175 71.875 C 176.726562 71.875 178.125 73.273438 178.125 75 C 178.125 76.726562 176.726562 78.125 175 78.125 L 112.5 78.125 C 110.773438 78.125 109.375 76.726562 109.375 75 C 109.375 73.273438 110.773438 71.875 112.5 71.875 Z M 112.5 84.375 L 175 84.375 C 176.726562 84.375 178.125 85.773438 178.125 87.5 C 178.125 89.226562 176.726562 90.625 175 90.625 L 112.5 90.625 C 110.773438 90.625 109.375 89.226562 109.375 87.5 C 109.375 85.773438 110.773438 84.375 112.5 84.375 Z M 109.753906 136.984375 C 109.929688 135.773438 110.796875 134.78125 111.96875 134.4375 L 115.570312 133.386719 C 116.191406 131.304688 117.03125 129.289062 118.070312 127.382812 L 116.25 124.089844 C 115.664062 123.019531 115.753906 121.703125 116.484375 120.722656 C 118.566406 117.925781 121.046875 115.445312 123.84375 113.367188 C 124.824219 112.636719 126.140625 112.542969 127.210938 113.132812 L 130.503906 114.933594 C 132.410156 113.894531 134.421875 113.054688 136.507812 112.433594 L 137.558594 108.832031 C 137.902344 107.660156 138.898438 106.792969 140.105469 106.617188 C 143.558594 106.113281 147.0625 106.113281 150.511719 106.617188 C 151.722656 106.792969 152.714844 107.660156 153.058594 108.832031 L 154.109375 112.433594 C 156.191406 113.054688 158.203125 113.890625 160.113281 114.933594 L 163.402344 113.132812 C 164.476562 112.542969 165.792969 112.636719 166.773438 113.367188 C 169.570312 115.445312 172.046875 117.925781 174.132812 120.722656 C 174.863281 121.703125 174.953125 123.019531 174.367188 124.089844 L 172.5625 127.382812 C 173.605469 129.289062 174.441406 131.300781 175.0625 133.382812 L 178.664062 134.4375 C 179.839844 134.78125 180.703125 135.773438 180.882812 136.984375 C 181.386719 140.433594 181.386719 143.941406 180.882812 147.390625 C 180.703125 148.601562 179.839844 149.59375 178.664062 149.9375 L 175.0625 150.988281 C 174.441406 153.070312 173.605469 155.085938 172.5625 156.992188 L 174.367188 160.285156 C 174.953125 161.355469 174.863281 162.671875 174.132812 163.652344 C 172.046875 166.449219 169.570312 168.929688 166.773438 171.007812 C 165.792969 171.738281 164.476562 171.832031 163.402344 171.242188 L 160.113281 169.441406 C 158.203125 170.480469 156.191406 171.320312 154.109375 171.941406 L 153.0625 175.53125 C 152.71875 176.703125 151.726562 177.570312 150.515625 177.746094 C 147.066406 178.25 143.558594 178.25 140.109375 177.746094 C 138.898438 177.570312 137.90625 176.703125 137.5625 175.53125 L 136.511719 171.929688 C 134.429688 171.308594 132.417969 170.46875 130.507812 169.429688 L 127.21875 171.230469 C 126.148438 171.820312 124.832031 171.726562 123.851562 170.996094 C 121.050781 168.914062 118.574219 166.4375 116.492188 163.640625 C 115.761719 162.660156 115.667969 161.34375 116.257812 160.273438 L 118.058594 156.980469 C 117.019531 155.074219 116.179688 153.0625 115.558594 150.976562 L 111.96875 149.9375 C 110.796875 149.59375 109.929688 148.601562 109.753906 147.390625 C 109.25 143.941406 109.25 140.433594 109.753906 136.984375 Z M 62.613281 46.875 C 84.988281 46.875 103.121094 65.015625 103.121094 87.390625 C 103.121094 109.761719 84.980469 127.902344 62.609375 127.898438 C 40.234375 127.898438 22.097656 109.761719 22.097656 87.386719 C 22.105469 65.015625 40.242188 46.882812 62.613281 46.875 Z M 21.875 150 C 21.875 148.273438 23.273438 146.875 25 146.875 L 37.5 146.875 C 39.226562 146.875 40.625 148.273438 40.625 150 L 40.625 175 C 40.625 176.726562 39.226562 178.125 37.5 178.125 L 25 178.125 C 23.273438 178.125 21.875 176.726562 21.875 175 Z M 21.875 150 "/>
<path style=" stroke:none;fill-rule:nonzero;fill:rgb(84.705882%,84.705882%,98.823529%);fill-opacity:1;" d="M 157.972656 142.1875 C 157.972656 149.179688 152.304688 154.847656 145.3125 154.847656 C 138.320312 154.847656 132.652344 149.179688 132.652344 142.1875 C 132.652344 135.195312 138.320312 129.527344 145.3125 129.527344 C 152.304688 129.527344 157.972656 135.195312 157.972656 142.1875 Z M 157.972656 142.1875 "/>
<path style=" stroke:none;fill-rule:nonzero;fill:rgb(99.215686%,74.901961%,0%);fill-opacity:1;" d="M 119.019531 145.484375 C 120.101562 145.800781 120.933594 146.679688 121.1875 147.777344 C 121.808594 150.433594 122.863281 152.96875 124.3125 155.277344 C 124.902344 156.242188 124.925781 157.449219 124.375 158.4375 L 122.722656 161.457031 C 123.734375 162.640625 124.835938 163.746094 126.023438 164.757812 L 129.0625 163.125 C 130.054688 162.582031 131.261719 162.613281 132.21875 163.210938 C 134.527344 164.660156 137.0625 165.71875 139.71875 166.335938 C 140.820312 166.59375 141.695312 167.421875 142.011719 168.507812 L 142.976562 171.808594 C 144.53125 171.929688 146.089844 171.929688 147.644531 171.808594 L 148.609375 168.507812 C 148.925781 167.421875 149.804688 166.59375 150.902344 166.335938 C 153.558594 165.71875 156.09375 164.660156 158.402344 163.210938 C 159.363281 162.613281 160.570312 162.582031 161.5625 163.125 L 164.578125 164.777344 C 165.761719 163.765625 166.867188 162.664062 167.878906 161.476562 L 166.25 158.4375 C 165.707031 157.449219 165.742188 156.242188 166.335938 155.285156 C 167.785156 152.972656 168.839844 150.4375 169.460938 147.785156 C 169.71875 146.683594 170.546875 145.808594 171.632812 145.492188 L 174.933594 144.527344 C 175.058594 142.972656 175.058594 141.414062 174.933594 139.859375 L 171.632812 138.898438 C 170.546875 138.582031 169.71875 137.703125 169.460938 136.601562 C 168.84375 133.941406 167.785156 131.402344 166.335938 129.085938 C 165.742188 128.128906 165.707031 126.925781 166.25 125.9375 L 167.902344 122.917969 C 166.890625 121.734375 165.789062 120.628906 164.601562 119.617188 L 161.5625 121.25 C 160.570312 121.792969 159.363281 121.761719 158.40625 121.164062 C 156.097656 119.714844 153.5625 118.65625 150.90625 118.039062 C 149.804688 117.78125 148.929688 116.953125 148.613281 115.867188 L 147.648438 112.566406 C 146.09375 112.445312 144.535156 112.445312 142.980469 112.566406 L 142.019531 115.867188 C 141.703125 116.953125 140.824219 117.78125 139.726562 118.039062 C 137.070312 118.65625 134.535156 119.714844 132.226562 121.164062 C 131.265625 121.761719 130.058594 121.792969 129.070312 121.25 L 126.050781 119.597656 C 124.867188 120.609375 123.761719 121.710938 122.75 122.898438 L 124.402344 125.914062 C 124.945312 126.90625 124.910156 128.109375 124.316406 129.070312 C 122.867188 131.382812 121.8125 133.925781 121.191406 136.585938 C 120.933594 137.683594 120.105469 138.5625 119.023438 138.878906 L 115.71875 139.839844 C 115.597656 141.394531 115.597656 142.957031 115.71875 144.507812 Z M 145.3125 123.277344 C 155.757812 123.277344 164.222656 131.742188 164.226562 142.183594 C 164.226562 152.628906 155.761719 161.097656 145.316406 161.097656 C 134.871094 161.097656 126.40625 152.632812 126.40625 142.1875 C 126.410156 131.746094 134.871094 123.285156 145.3125 123.277344 Z M 145.3125 123.277344 "/>
<path style=" stroke:none;fill-rule:nonzero;fill:rgb(0%,0%,0%);fill-opacity:1;" d="M 111.96875 149.9375 L 115.570312 150.992188 C 116.191406 153.074219 117.03125 155.085938 118.070312 156.992188 L 116.25 160.285156 C 115.664062 161.355469 115.753906 162.671875 116.484375 163.652344 C 118.566406 166.449219 121.046875 168.929688 123.84375 171.007812 C 124.824219 171.738281 126.140625 171.832031 127.210938 171.242188 L 130.503906 169.441406 C 132.410156 170.484375 134.421875 171.320312 136.507812 171.941406 L 137.554688 175.542969 C 137.898438 176.714844 138.894531 177.582031 140.101562 177.757812 C 143.554688 178.261719 147.058594 178.261719 150.507812 177.757812 C 151.71875 177.582031 152.714844 176.714844 153.054688 175.542969 L 154.109375 171.941406 C 156.191406 171.320312 158.203125 170.480469 160.113281 169.441406 L 163.402344 171.242188 C 164.476562 171.832031 165.792969 171.738281 166.773438 171.007812 C 169.570312 168.929688 172.046875 166.449219 174.132812 163.652344 C 174.863281 162.671875 174.953125 161.355469 174.367188 160.285156 L 172.5625 156.992188 C 173.605469 155.085938 174.441406 153.070312 175.0625 150.988281 L 178.664062 149.9375 C 179.839844 149.59375 180.703125 148.601562 180.882812 147.390625 C 181.386719 143.941406 181.386719 140.433594 180.882812 136.984375 C 180.703125 135.773438 179.839844 134.78125 178.664062 134.4375 L 175.0625 133.382812 C 174.441406 131.300781 173.605469 129.289062 172.5625 127.382812 L 174.367188 124.089844 C 174.953125 123.019531 174.863281 121.703125 174.132812 120.722656 C 172.046875 117.925781 169.570312 115.445312 166.773438 113.367188 C 165.792969 112.636719 164.476562 112.542969 163.402344 113.132812 L 160.113281 114.933594 C 158.203125 113.890625 156.191406 113.054688 154.109375 112.433594 L 153.0625 108.84375 C 152.71875 107.671875 151.726562 106.804688 150.515625 106.628906 C 147.066406 106.125 143.558594 106.125 140.109375 106.628906 C 138.898438 106.804688 137.90625 107.671875 137.5625 108.84375 L 136.507812 112.445312 C 134.425781 113.066406 132.414062 113.90625 130.507812 114.945312 L 127.214844 113.125 C 126.144531 112.539062 124.828125 112.628906 123.847656 113.359375 C 121.050781 115.441406 118.570312 117.917969 116.488281 120.714844 C 115.757812 121.695312 115.664062 123.011719 116.253906 124.085938 L 118.054688 127.375 C 117.015625 129.285156 116.175781 131.296875 115.554688 133.382812 L 111.953125 134.429688 C 110.78125 134.773438 109.914062 135.769531 109.738281 136.976562 C 109.234375 140.429688 109.234375 143.933594 109.738281 147.382812 C 109.914062 148.601562 110.789062 149.597656 111.96875 149.9375 Z M 115.71875 139.851562 L 119.023438 138.890625 C 120.105469 138.574219 120.933594 137.695312 121.191406 136.597656 C 121.8125 133.9375 122.867188 131.398438 124.316406 129.082031 C 124.898438 128.121094 124.921875 126.917969 124.375 125.9375 L 122.722656 122.917969 C 123.734375 121.734375 124.835938 120.632812 126.023438 119.617188 L 129.039062 121.273438 C 130.03125 121.816406 131.238281 121.78125 132.195312 121.183594 C 134.507812 119.734375 137.042969 118.679688 139.695312 118.058594 C 140.796875 117.804688 141.675781 116.976562 141.992188 115.890625 L 142.953125 112.585938 C 144.507812 112.464844 146.066406 112.464844 147.617188 112.585938 L 148.585938 115.890625 C 148.902344 116.976562 149.777344 117.804688 150.878906 118.058594 C 153.535156 118.679688 156.066406 119.734375 158.378906 121.183594 C 159.335938 121.78125 160.542969 121.816406 161.535156 121.273438 L 164.550781 119.617188 C 165.734375 120.628906 166.839844 121.734375 167.851562 122.917969 L 166.25 125.9375 C 165.707031 126.925781 165.742188 128.132812 166.335938 129.089844 C 167.785156 131.40625 168.84375 133.945312 169.460938 136.605469 C 169.71875 137.707031 170.546875 138.582031 171.632812 138.898438 L 174.933594 139.863281 C 175.058594 141.417969 175.058594 142.976562 174.933594 144.53125 L 171.632812 145.492188 C 170.546875 145.808594 169.71875 146.6875 169.460938 147.789062 C 168.839844 150.441406 167.785156 152.976562 166.335938 155.289062 C 165.742188 156.246094 165.707031 157.449219 166.25 158.4375 L 167.902344 161.457031 C 166.890625 162.640625 165.789062 163.742188 164.601562 164.757812 L 161.5625 163.125 C 160.570312 162.582031 159.363281 162.613281 158.40625 163.210938 C 156.097656 164.660156 153.5625 165.71875 150.90625 166.335938 C 149.804688 166.59375 148.929688 167.421875 148.613281 168.507812 L 147.648438 171.808594 C 146.09375 171.929688 144.535156 171.929688 142.980469 171.808594 L 142.015625 168.507812 C 141.699219 167.421875 140.820312 166.59375 139.722656 166.335938 C 137.066406 165.71875 134.53125 164.660156 132.222656 163.210938 C 131.261719 162.613281 130.054688 162.582031 129.0625 163.125 L 126.046875 164.777344 C 124.863281 163.765625 123.757812 162.664062 122.746094 161.476562 L 124.375 158.4375 C 124.917969 157.449219 124.882812 156.242188 124.289062 155.285156 C 122.839844 152.972656 121.785156 150.4375 121.164062 147.785156 C 120.90625 146.683594 120.078125 145.808594 118.992188 145.492188 L 115.691406 144.527344 C 115.574219 142.972656 115.585938 141.410156 115.714844 139.851562 Z M 115.71875 139.851562 "/>
<path style=" stroke:none;fill-rule:nonzero;fill:rgb(0%,0%,0%);fill-opacity:1;" d="M 145.3125 161.097656 C 155.757812 161.097656 164.222656 152.632812 164.226562 142.191406 C 164.226562 131.746094 155.761719 123.277344 145.316406 123.277344 C 134.871094 123.277344 126.40625 131.742188 126.40625 142.1875 C 126.410156 152.628906 134.871094 161.089844 145.3125 161.097656 Z M 145.3125 129.535156 C 152.304688 129.53125 157.976562 135.199219 157.976562 142.195312 C 157.976562 149.1875 152.304688 154.855469 145.3125 154.851562 C 138.320312 154.851562 132.652344 149.179688 132.65625 142.1875 C 132.660156 135.199219 138.324219 129.535156 145.3125 129.527344 Z M 145.3125 129.535156 "/>
<path style=" stroke:none;fill-rule:nonzero;fill:rgb(17.254902%,23.137255%,45.098039%);fill-opacity:1;" d="M 15.625 34.375 L 184.375 34.375 L 184.375 15.625 L 15.625 15.625 Z M 75 21.875 L 87.5 21.875 C 89.226562 21.875 90.625 23.273438 90.625 25 C 90.625 26.726562 89.226562 28.125 87.5 28.125 L 75 28.125 C 73.273438 28.125 71.875 26.726562 71.875 25 C 71.875 23.273438 73.273438 21.875 75 21.875 Z M 50 21.875 L 62.5 21.875 C 64.226562 21.875 65.625 23.273438 65.625 25 C 65.625 26.726562 64.226562 28.125 62.5 28.125 L 50 28.125 C 48.273438 28.125 46.875 26.726562 46.875 25 C 46.875 23.273438 48.273438 21.875 50 21.875 Z M 25 21.875 L 37.5 21.875 C 39.226562 21.875 40.625 23.273438 40.625 25 C 40.625 26.726562 39.226562 28.125 37.5 28.125 L 25 28.125 C 23.273438 28.125 21.875 26.726562 21.875 25 C 21.875 23.273438 23.273438 21.875 25 21.875 Z M 25 21.875 "/>
<path style=" stroke:none;fill-rule:nonzero;fill:rgb(0%,0%,0%);fill-opacity:1;" d="M 187.5 9.375 L 12.5 9.375 C 10.773438 9.375 9.375 10.773438 9.375 12.5 L 9.375 187.5 C 9.375 189.226562 10.773438 190.625 12.5 190.625 L 187.5 190.625 C 189.226562 190.625 190.625 189.226562 190.625 187.5 L 190.625 12.5 C 190.625 10.773438 189.226562 9.375 187.5 9.375 Z M 184.375 184.375 L 15.625 184.375 L 15.625 40.625 L 184.375 40.625 Z M 184.375 34.375 L 15.625 34.375 L 15.625 15.625 L 184.375 15.625 Z M 184.375 34.375 "/>
<path style=" stroke:none;fill-rule:nonzero;fill:rgb(29.411765%,72.54902%,92.54902%);fill-opacity:1;" d="M 62.613281 121.652344 C 81.535156 121.652344 96.871094 106.3125 96.871094 87.390625 C 96.871094 68.46875 81.53125 53.128906 62.609375 53.128906 C 43.6875 53.128906 28.347656 68.464844 28.347656 87.386719 C 28.355469 106.308594 43.691406 121.644531 62.613281 121.652344 Z M 37.5 84.375 L 59.375 84.375 L 59.375 62.5 C 59.375 60.773438 60.773438 59.375 62.5 59.375 C 64.226562 59.375 65.625 60.773438 65.625 62.5 L 65.625 87.5 C 65.625 89.226562 64.226562 90.625 62.5 90.625 L 37.5 90.625 C 35.773438 90.625 34.375 89.226562 34.375 87.5 C 34.375 85.773438 35.773438 84.375 37.5 84.375 Z M 37.5 84.375 "/>
<path style=" stroke:none;fill-rule:nonzero;fill:rgb(0%,0%,0%);fill-opacity:1;" d="M 62.613281 127.902344 C 84.984375 127.902344 103.121094 109.761719 103.121094 87.390625 C 103.121094 65.015625 84.984375 46.878906 62.609375 46.878906 C 40.238281 46.878906 22.097656 65.015625 22.097656 87.386719 C 22.105469 109.757812 40.242188 127.894531 62.613281 127.902344 Z M 62.613281 53.125 C 81.535156 53.125 96.871094 68.46875 96.871094 87.390625 C 96.871094 106.3125 81.53125 121.652344 62.609375 121.648438 C 43.6875 121.648438 28.347656 106.308594 28.347656 87.386719 C 28.355469 68.46875 43.691406 53.132812 62.613281 53.125 Z M 62.613281 53.125 "/>
<path style=" stroke:none;fill-rule:nonzero;fill:rgb(29.411765%,72.54902%,92.54902%);fill-opacity:1;" d="M 28.125 153.125 L 34.375 153.125 L 34.375 171.875 L 28.125 171.875 Z M 28.125 153.125 "/>
<path style=" stroke:none;fill-rule:nonzero;fill:rgb(0%,0%,0%);fill-opacity:1;" d="M 25 178.125 L 37.5 178.125 C 39.226562 178.125 40.625 176.726562 40.625 175 L 40.625 150 C 40.625 148.273438 39.226562 146.875 37.5 146.875 L 25 146.875 C 23.273438 146.875 21.875 148.273438 21.875 150 L 21.875 175 C 21.875 176.726562 23.273438 178.125 25 178.125 Z M 28.125 153.125 L 34.375 153.125 L 34.375 171.875 L 28.125 171.875 Z M 28.125 153.125 "/>
<path style=" stroke:none;fill-rule:nonzero;fill:rgb(99.215686%,74.901961%,0%);fill-opacity:1;" d="M 53.125 146.875 L 59.375 146.875 L 59.375 171.875 L 53.125 171.875 Z M 53.125 146.875 "/>
<path style=" stroke:none;fill-rule:nonzero;fill:rgb(0%,0%,0%);fill-opacity:1;" d="M 62.5 140.625 L 50 140.625 C 48.273438 140.625 46.875 142.023438 46.875 143.75 L 46.875 175 C 46.875 176.726562 48.273438 178.125 50 178.125 L 62.5 178.125 C 64.226562 178.125 65.625 176.726562 65.625 175 L 65.625 143.75 C 65.625 142.023438 64.226562 140.625 62.5 140.625 Z M 59.375 171.875 L 53.125 171.875 L 53.125 146.875 L 59.375 146.875 Z M 59.375 171.875 "/>
<path style=" stroke:none;fill-rule:nonzero;fill:rgb(94.117647%,21.960784%,0%);fill-opacity:1;" d="M 78.125 140.625 L 84.375 140.625 L 84.375 171.875 L 78.125 171.875 Z M 78.125 140.625 "/>
<path style=" stroke:none;fill-rule:nonzero;fill:rgb(0%,0%,0%);fill-opacity:1;" d="M 87.5 134.375 L 75 134.375 C 73.273438 134.375 71.875 135.773438 71.875 137.5 L 71.875 175 C 71.875 176.726562 73.273438 178.125 75 178.125 L 87.5 178.125 C 89.226562 178.125 90.625 176.726562 90.625 175 L 90.625 137.5 C 90.625 135.773438 89.226562 134.375 87.5 134.375 Z M 84.375 171.875 L 78.125 171.875 L 78.125 140.625 L 84.375 140.625 Z M 84.375 171.875 "/>
<path style=" stroke:none;fill-rule:nonzero;fill:rgb(0%,0%,0%);fill-opacity:1;" d="M 112.5 53.125 L 175 53.125 C 176.726562 53.125 178.125 51.726562 178.125 50 C 178.125 48.273438 176.726562 46.875 175 46.875 L 112.5 46.875 C 110.773438 46.875 109.375 48.273438 109.375 50 C 109.375 51.726562 110.773438 53.125 112.5 53.125 Z M 112.5 53.125 "/>
<path style=" stroke:none;fill-rule:nonzero;fill:rgb(0%,0%,0%);fill-opacity:1;" d="M 112.5 65.625 L 175 65.625 C 176.726562 65.625 178.125 64.226562 178.125 62.5 C 178.125 60.773438 176.726562 59.375 175 59.375 L 112.5 59.375 C 110.773438 59.375 109.375 60.773438 109.375 62.5 C 109.375 64.226562 110.773438 65.625 112.5 65.625 Z M 112.5 65.625 "/>
<path style=" stroke:none;fill-rule:nonzero;fill:rgb(0%,0%,0%);fill-opacity:1;" d="M 112.5 78.125 L 175 78.125 C 176.726562 78.125 178.125 76.726562 178.125 75 C 178.125 73.273438 176.726562 71.875 175 71.875 L 112.5 71.875 C 110.773438 71.875 109.375 73.273438 109.375 75 C 109.375 76.726562 110.773438 78.125 112.5 78.125 Z M 112.5 78.125 "/>
<path style=" stroke:none;fill-rule:nonzero;fill:rgb(0%,0%,0%);fill-opacity:1;" d="M 112.5 90.625 L 175 90.625 C 176.726562 90.625 178.125 89.226562 178.125 87.5 C 178.125 85.773438 176.726562 84.375 175 84.375 L 112.5 84.375 C 110.773438 84.375 109.375 85.773438 109.375 87.5 C 109.375 89.226562 110.773438 90.625 112.5 90.625 Z M 112.5 90.625 "/>
<path style=" stroke:none;fill-rule:nonzero;fill:rgb(94.901961%,94.901961%,98.823529%);fill-opacity:1;" d="M 25 28.125 L 37.5 28.125 C 39.226562 28.125 40.625 26.726562 40.625 25 C 40.625 23.273438 39.226562 21.875 37.5 21.875 L 25 21.875 C 23.273438 21.875 21.875 23.273438 21.875 25 C 21.875 26.726562 23.273438 28.125 25 28.125 Z M 25 28.125 "/>
<path style=" stroke:none;fill-rule:nonzero;fill:rgb(94.901961%,94.901961%,98.823529%);fill-opacity:1;" d="M 50 28.125 L 62.5 28.125 C 64.226562 28.125 65.625 26.726562 65.625 25 C 65.625 23.273438 64.226562 21.875 62.5 21.875 L 50 21.875 C 48.273438 21.875 46.875 23.273438 46.875 25 C 46.875 26.726562 48.273438 28.125 50 28.125 Z M 50 28.125 "/>
<path style=" stroke:none;fill-rule:nonzero;fill:rgb(94.901961%,94.901961%,98.823529%);fill-opacity:1;" d="M 75 28.125 L 87.5 28.125 C 89.226562 28.125 90.625 26.726562 90.625 25 C 90.625 23.273438 89.226562 21.875 87.5 21.875 L 75 21.875 C 73.273438 21.875 71.875 23.273438 71.875 25 C 71.875 26.726562 73.273438 28.125 75 28.125 Z M 75 28.125 "/>
<path style=" stroke:none;fill-rule:nonzero;fill:rgb(0%,0%,0%);fill-opacity:1;" d="M 37.5 90.625 L 62.5 90.625 C 64.226562 90.625 65.625 89.226562 65.625 87.5 L 65.625 62.5 C 65.625 60.773438 64.226562 59.375 62.5 59.375 C 60.773438 59.375 59.375 60.773438 59.375 62.5 L 59.375 84.375 L 37.5 84.375 C 35.773438 84.375 34.375 85.773438 34.375 87.5 C 34.375 89.226562 35.773438 90.625 37.5 90.625 Z M 37.5 90.625 "/>
</g>
</svg>
