<?xml version="1.0" encoding="UTF-8"?>
<svg xmlns="http://www.w3.org/2000/svg" xmlns:xlink="http://www.w3.org/1999/xlink" width="48px" height="48px" viewBox="0 0 48 48" version="1.1">
<g id="surface1">
<path style=" stroke:none;fill-rule:nonzero;fill:rgb(36.470588%,75.686275%,84.705882%);fill-opacity:1;" d="M 46.785156 25.03125 C 46.785156 37.714844 36.5 48 23.816406 48 C 11.132812 48 0.847656 37.714844 0.847656 25.03125 C 0.847656 12.347656 11.132812 2.0625 23.816406 2.0625 C 36.5 2.0625 46.785156 12.347656 46.785156 25.03125 Z M 46.785156 25.03125 "/>
<path style=" stroke:none;fill-rule:nonzero;fill:rgb(97.254902%,49.411765%,67.058824%);fill-opacity:1;" d="M 47.53125 17.980469 L 34.164062 17.980469 C 33.90625 17.980469 33.695312 18.191406 33.695312 18.449219 L 33.695312 25.070312 C 34.417969 25.535156 34.898438 26.34375 34.898438 27.265625 C 34.898438 27.898438 34.671875 28.480469 34.292969 28.933594 L 37.902344 28.933594 C 38.160156 28.933594 38.371094 29.144531 38.371094 29.402344 L 38.371094 32.015625 C 38.371094 32.273438 38.519531 32.332031 38.699219 32.148438 L 41.496094 29.269531 C 41.675781 29.085938 42.03125 28.933594 42.289062 28.933594 L 47.53125 28.933594 C 47.789062 28.933594 48 28.722656 48 28.464844 L 48 18.449219 C 48 18.191406 47.789062 17.980469 47.53125 17.980469 Z M 47.53125 17.980469 "/>
<path style=" stroke:none;fill-rule:nonzero;fill:rgb(88.627451%,40%,57.647059%);fill-opacity:1;" d="M 35.554688 28.464844 L 35.554688 18.449219 C 35.554688 18.191406 35.765625 17.980469 36.023438 17.980469 L 34.164062 17.980469 C 33.90625 17.980469 33.695312 18.191406 33.695312 18.449219 L 33.695312 25.070312 C 34.417969 25.535156 34.898438 26.34375 34.898438 27.265625 C 34.898438 27.898438 34.671875 28.480469 34.292969 28.933594 L 36.023438 28.933594 C 35.765625 28.933594 35.554688 28.722656 35.554688 28.464844 Z M 35.554688 28.464844 "/>
<path style=" stroke:none;fill-rule:nonzero;fill:rgb(100%,100%,100%);fill-opacity:1;" d="M 40.847656 26.117188 C 38.679688 26.117188 36.625 25.171875 35.207031 23.523438 C 35.136719 23.445312 35.136719 23.328125 35.207031 23.25 C 36.625 21.605469 38.679688 20.660156 40.847656 20.660156 C 43.015625 20.660156 45.070312 21.605469 46.488281 23.25 C 46.558594 23.328125 46.558594 23.445312 46.488281 23.523438 C 45.070312 25.171875 43.015625 26.117188 40.847656 26.117188 Z M 40.847656 26.117188 "/>
<path style=" stroke:none;fill-rule:nonzero;fill:rgb(85.098039%,91.764706%,98.823529%);fill-opacity:1;" d="M 36.566406 23.523438 C 36.496094 23.445312 36.496094 23.328125 36.566406 23.25 C 37.832031 21.777344 39.613281 20.867188 41.527344 20.691406 C 41.300781 20.671875 41.074219 20.660156 40.847656 20.660156 C 38.679688 20.660156 36.625 21.605469 35.207031 23.25 C 35.136719 23.328125 35.136719 23.445312 35.207031 23.523438 C 36.625 25.171875 38.679688 26.117188 40.847656 26.117188 C 41.074219 26.117188 41.300781 26.105469 41.527344 26.082031 C 39.613281 25.90625 37.832031 24.996094 36.566406 23.523438 Z M 36.566406 23.523438 "/>
<path style=" stroke:none;fill-rule:nonzero;fill:rgb(68.235294%,75.686275%,92.941176%);fill-opacity:1;" d="M 43.015625 23.386719 C 43.015625 24.585938 42.042969 25.554688 40.847656 25.554688 C 39.652344 25.554688 38.679688 24.585938 38.679688 23.386719 C 38.679688 22.191406 39.652344 21.222656 40.847656 21.222656 C 42.042969 21.222656 43.015625 22.191406 43.015625 23.386719 Z M 43.015625 23.386719 "/>
<path style=" stroke:none;fill-rule:nonzero;fill:rgb(10.196078%,16.862745%,38.823529%);fill-opacity:1;" d="M 40.847656 22.023438 C 40.09375 22.023438 39.484375 22.632812 39.484375 23.386719 C 39.484375 23.648438 39.558594 23.890625 39.683594 24.097656 C 39.761719 23.917969 39.941406 23.789062 40.152344 23.789062 C 40.433594 23.789062 40.660156 24.015625 40.660156 24.296875 C 40.660156 24.460938 40.585938 24.605469 40.464844 24.699219 C 40.585938 24.734375 40.714844 24.753906 40.847656 24.753906 C 41.601562 24.753906 42.214844 24.140625 42.214844 23.386719 C 42.214844 22.632812 41.601562 22.023438 40.847656 22.023438 Z M 40.847656 22.023438 "/>
<path style=" stroke:none;fill-rule:nonzero;fill:rgb(100%,100%,100%);fill-opacity:1;" d="M 40.660156 24.296875 C 40.660156 24.578125 40.433594 24.808594 40.152344 24.808594 C 39.871094 24.808594 39.644531 24.578125 39.644531 24.296875 C 39.644531 24.015625 39.871094 23.789062 40.152344 23.789062 C 40.433594 23.789062 40.660156 24.015625 40.660156 24.296875 Z M 40.660156 24.296875 "/>
<path style=" stroke:none;fill-rule:nonzero;fill:rgb(26.666667%,36.862745%,62.745098%);fill-opacity:1;" d="M 15.582031 18.699219 C 15.582031 16.707031 16.597656 14.949219 18.132812 13.914062 L 18.132812 12.277344 C 18.132812 12.019531 17.921875 11.808594 17.664062 11.808594 L 2.328125 11.808594 C 2.070312 11.808594 1.859375 12.019531 1.859375 12.277344 L 1.859375 22.292969 C 1.859375 22.550781 2.070312 22.761719 2.328125 22.761719 L 8.421875 22.761719 C 8.679688 22.761719 9.046875 22.902344 9.238281 23.074219 L 12.464844 25.996094 C 12.65625 26.167969 12.8125 26.097656 12.8125 25.839844 L 12.8125 23.230469 C 12.8125 22.972656 13.023438 22.761719 13.28125 22.761719 L 15.582031 22.761719 Z M 15.582031 18.699219 "/>
<path style=" stroke:none;fill-rule:nonzero;fill:rgb(99.607843%,21.568627%,27.058824%);fill-opacity:1;" d="M 9.847656 0.46875 C 9.847656 0.210938 10.058594 0 10.316406 0 L 25.886719 0 C 26.144531 0 26.355469 0.210938 26.355469 0.46875 L 26.355469 9.730469 C 26.355469 9.988281 26.144531 10.199219 25.886719 10.199219 L 21.425781 10.199219 C 21.167969 10.199219 20.957031 10.410156 20.957031 10.667969 L 20.957031 12.304688 C 20.957031 12.5625 20.78125 12.660156 20.566406 12.519531 L 17.371094 10.453125 C 17.15625 10.3125 16.765625 10.199219 16.507812 10.199219 L 10.316406 10.199219 C 10.058594 10.199219 9.847656 9.988281 9.847656 9.730469 Z M 9.847656 0.46875 "/>
<path style=" stroke:none;fill-rule:nonzero;fill:rgb(71.764706%,3.529412%,16.862745%);fill-opacity:1;" d="M 11.707031 9.730469 L 11.707031 0.46875 C 11.707031 0.210938 11.917969 0 12.175781 0 L 10.316406 0 C 10.058594 0 9.847656 0.210938 9.847656 0.46875 L 9.847656 9.730469 C 9.847656 9.988281 10.058594 10.199219 10.316406 10.199219 L 12.175781 10.199219 C 11.917969 10.199219 11.707031 9.988281 11.707031 9.730469 Z M 11.707031 9.730469 "/>
<path style=" stroke:none;fill-rule:nonzero;fill:rgb(100%,68.627451%,6.27451%);fill-opacity:1;" d="M 13.53125 2.605469 C 13.648438 2.363281 13.84375 2.363281 13.964844 2.605469 L 14.382812 3.449219 C 14.5 3.691406 14.816406 3.921875 15.085938 3.960938 L 16.019531 4.097656 C 16.285156 4.136719 16.347656 4.324219 16.152344 4.511719 L 15.476562 5.167969 C 15.285156 5.359375 15.164062 5.730469 15.207031 5.996094 L 15.367188 6.925781 C 15.414062 7.191406 15.253906 7.308594 15.015625 7.179688 L 14.183594 6.742188 C 13.941406 6.617188 13.550781 6.617188 13.3125 6.742188 L 12.476562 7.179688 C 12.238281 7.308594 12.082031 7.191406 12.125 6.925781 L 12.285156 5.996094 C 12.332031 5.730469 12.210938 5.359375 12.015625 5.167969 L 11.339844 4.511719 C 11.148438 4.324219 11.207031 4.136719 11.476562 4.097656 L 12.410156 3.960938 C 12.675781 3.921875 12.992188 3.691406 13.113281 3.449219 Z M 13.53125 2.605469 "/>
<path style=" stroke:none;fill-rule:nonzero;fill:rgb(100%,68.627451%,6.27451%);fill-opacity:1;" d="M 24 3.785156 L 17.726562 3.785156 C 17.339844 3.785156 17.023438 3.472656 17.023438 3.082031 C 17.023438 2.695312 17.339844 2.378906 17.726562 2.378906 L 24 2.378906 C 24.390625 2.378906 24.703125 2.695312 24.703125 3.082031 C 24.703125 3.472656 24.390625 3.785156 24 3.785156 Z M 24 3.785156 "/>
<path style=" stroke:none;fill-rule:nonzero;fill:rgb(100%,68.627451%,6.27451%);fill-opacity:1;" d="M 24 5.660156 L 17.726562 5.660156 C 17.339844 5.660156 17.023438 5.34375 17.023438 4.957031 C 17.023438 4.566406 17.339844 4.253906 17.726562 4.253906 L 24 4.253906 C 24.390625 4.253906 24.703125 4.566406 24.703125 4.957031 C 24.703125 5.34375 24.390625 5.660156 24 5.660156 Z M 24 5.660156 "/>
<path style=" stroke:none;fill-rule:nonzero;fill:rgb(100%,68.627451%,6.27451%);fill-opacity:1;" d="M 20.875 7.53125 L 17.726562 7.53125 C 17.339844 7.53125 17.023438 7.214844 17.023438 6.828125 C 17.023438 6.4375 17.339844 6.125 17.726562 6.125 L 20.875 6.125 C 21.265625 6.125 21.578125 6.4375 21.578125 6.828125 C 21.578125 7.214844 21.265625 7.53125 20.875 7.53125 Z M 20.875 7.53125 "/>
<path style=" stroke:none;fill-rule:nonzero;fill:rgb(16.078431%,23.921569%,48.627451%);fill-opacity:1;" d="M 34.941406 37.246094 L 29.613281 37.246094 L 29.753906 37.757812 C 29.8125 37.972656 29.722656 38.273438 29.554688 38.414062 L 26.648438 40.894531 C 26.578125 40.957031 26.488281 40.988281 26.390625 40.988281 C 26.28125 40.988281 26.175781 40.945312 26.101562 40.867188 L 24.207031 38.867188 C 24.101562 38.757812 23.964844 38.699219 23.816406 38.699219 C 23.667969 38.699219 23.53125 38.757812 23.425781 38.867188 L 21.53125 40.867188 C 21.457031 40.945312 21.351562 40.988281 21.242188 40.988281 C 21.144531 40.988281 21.054688 40.957031 20.984375 40.894531 L 18.078125 38.414062 C 17.910156 38.273438 17.820312 37.972656 17.878906 37.757812 L 18.019531 37.246094 L 12.691406 37.246094 C 11.277344 37.246094 10.125 38.398438 10.125 39.8125 L 10.125 43.476562 C 13.949219 46.316406 18.6875 48 23.816406 48 C 28.945312 48 33.683594 46.316406 37.507812 43.476562 L 37.507812 39.8125 C 37.507812 38.398438 36.355469 37.246094 34.941406 37.246094 Z M 34.941406 37.246094 "/>
<path style=" stroke:none;fill-rule:nonzero;fill:rgb(10.196078%,16.862745%,38.823529%);fill-opacity:1;" d="M 11.988281 39.8125 C 11.988281 38.398438 13.136719 37.246094 14.554688 37.246094 L 12.691406 37.246094 C 11.277344 37.246094 10.125 38.398438 10.125 39.8125 L 10.125 43.476562 C 10.726562 43.921875 11.34375 44.335938 11.988281 44.722656 Z M 11.988281 39.8125 "/>
<path style=" stroke:none;fill-rule:nonzero;fill:rgb(100%,100%,100%);fill-opacity:1;" d="M 23.816406 42.816406 C 23.585938 42.816406 23.359375 42.722656 23.199219 42.558594 C 23.035156 42.394531 22.941406 42.167969 22.941406 41.941406 C 22.941406 41.710938 23.035156 41.484375 23.199219 41.320312 C 23.359375 41.15625 23.585938 41.066406 23.816406 41.066406 C 24.046875 41.066406 24.273438 41.15625 24.433594 41.320312 C 24.597656 41.484375 24.691406 41.710938 24.691406 41.941406 C 24.691406 42.167969 24.597656 42.394531 24.433594 42.558594 C 24.269531 42.722656 24.046875 42.816406 23.816406 42.816406 Z M 23.816406 42.816406 "/>
<path style=" stroke:none;fill-rule:nonzero;fill:rgb(85.098039%,91.764706%,98.823529%);fill-opacity:1;" d="M 23.859375 42.558594 C 23.695312 42.394531 23.601562 42.167969 23.601562 41.9375 C 23.601562 41.710938 23.695312 41.484375 23.859375 41.320312 C 23.941406 41.238281 24.039062 41.171875 24.148438 41.128906 C 24.042969 41.085938 23.929688 41.0625 23.816406 41.0625 C 23.585938 41.0625 23.359375 41.15625 23.199219 41.320312 C 23.035156 41.484375 22.941406 41.710938 22.941406 41.9375 C 22.941406 42.167969 23.035156 42.394531 23.199219 42.558594 C 23.359375 42.722656 23.585938 42.816406 23.816406 42.816406 C 23.929688 42.816406 24.042969 42.792969 24.148438 42.75 C 24.039062 42.703125 23.941406 42.640625 23.859375 42.558594 Z M 23.859375 42.558594 "/>
<path style=" stroke:none;fill-rule:nonzero;fill:rgb(100%,100%,100%);fill-opacity:1;" d="M 23.816406 46.351562 C 23.585938 46.351562 23.359375 46.257812 23.199219 46.09375 C 23.035156 45.933594 22.941406 45.707031 22.941406 45.476562 C 22.941406 45.246094 23.035156 45.019531 23.199219 44.859375 C 23.359375 44.695312 23.585938 44.601562 23.816406 44.601562 C 24.046875 44.601562 24.273438 44.695312 24.433594 44.859375 C 24.597656 45.019531 24.691406 45.246094 24.691406 45.476562 C 24.691406 45.707031 24.597656 45.933594 24.433594 46.09375 C 24.273438 46.257812 24.046875 46.351562 23.816406 46.351562 Z M 23.816406 46.351562 "/>
<path style=" stroke:none;fill-rule:nonzero;fill:rgb(85.098039%,91.764706%,98.823529%);fill-opacity:1;" d="M 23.859375 46.09375 C 23.695312 45.933594 23.601562 45.707031 23.601562 45.476562 C 23.601562 45.246094 23.695312 45.019531 23.859375 44.859375 C 23.941406 44.777344 24.039062 44.710938 24.148438 44.667969 C 24.042969 44.625 23.929688 44.601562 23.816406 44.601562 C 23.585938 44.601562 23.359375 44.695312 23.199219 44.859375 C 23.035156 45.019531 22.941406 45.246094 22.941406 45.476562 C 22.941406 45.707031 23.035156 45.933594 23.199219 46.09375 C 23.359375 46.257812 23.585938 46.351562 23.816406 46.351562 C 23.929688 46.351562 24.042969 46.328125 24.148438 46.285156 C 24.039062 46.242188 23.941406 46.179688 23.859375 46.09375 Z M 23.859375 46.09375 "/>
<path style=" stroke:none;fill-rule:nonzero;fill:rgb(100%,100%,100%);fill-opacity:1;" d="M 28.996094 34.660156 C 27.582031 35.8125 25.777344 36.507812 23.816406 36.507812 C 21.855469 36.507812 20.050781 35.8125 18.636719 34.660156 L 17.789062 37.734375 C 17.71875 37.980469 17.824219 38.320312 18.019531 38.484375 L 20.921875 40.96875 C 21.117188 41.132812 21.421875 41.117188 21.597656 40.933594 L 23.496094 38.933594 C 23.671875 38.746094 23.960938 38.746094 24.136719 38.933594 L 26.035156 40.933594 C 26.210938 41.117188 26.515625 41.132812 26.710938 40.96875 L 29.613281 38.484375 C 29.808594 38.320312 29.914062 37.980469 29.84375 37.734375 Z M 28.996094 34.660156 "/>
<path style=" stroke:none;fill-rule:nonzero;fill:rgb(85.098039%,91.764706%,98.823529%);fill-opacity:1;" d="M 19.878906 38.484375 C 19.683594 38.320312 19.578125 37.980469 19.648438 37.734375 L 20.21875 35.671875 C 19.652344 35.394531 19.121094 35.054688 18.636719 34.660156 L 17.789062 37.734375 C 17.71875 37.980469 17.824219 38.320312 18.019531 38.484375 L 20.921875 40.96875 C 21.117188 41.132812 21.421875 41.117188 21.597656 40.933594 L 22.109375 40.394531 Z M 19.878906 38.484375 "/>
<path style=" stroke:none;fill-rule:nonzero;fill:rgb(100%,58.431373%,9.411765%);fill-opacity:1;" d="M 27.570312 14.734375 C 26.949219 14.734375 26.355469 14.859375 25.816406 15.082031 C 26.28125 15.65625 26.636719 16.320312 26.855469 17.042969 C 29.953125 17.613281 32.144531 19.25 32.144531 22.777344 L 32.144531 19.304688 C 32.144531 16.78125 30.097656 14.734375 27.570312 14.734375 Z M 27.570312 14.734375 "/>
<path style=" stroke:none;fill-rule:nonzero;fill:rgb(100%,68.627451%,6.27451%);fill-opacity:1;" d="M 23.816406 16.792969 C 24.9375 16.792969 26.007812 16.878906 26.984375 17.066406 C 26.277344 14.625 24.027344 12.835938 21.351562 12.835938 C 18.113281 12.835938 15.488281 15.460938 15.488281 18.699219 L 15.488281 22.777344 C 15.488281 18.175781 19.21875 16.792969 23.816406 16.792969 Z M 23.816406 16.792969 "/>
<path style=" stroke:none;fill-rule:nonzero;fill:rgb(100%,58.431373%,9.411765%);fill-opacity:1;" d="M 17.144531 18.640625 C 17.171875 15.707031 19.351562 13.292969 22.183594 12.894531 C 21.910156 12.855469 21.632812 12.835938 21.351562 12.835938 C 18.113281 12.835938 15.488281 15.460938 15.488281 18.699219 L 15.488281 22.777344 C 15.488281 20.90625 16.105469 19.570312 17.144531 18.640625 Z M 17.144531 18.640625 "/>
<path style=" stroke:none;fill-rule:nonzero;fill:rgb(100%,86.666667%,55.294118%);fill-opacity:1;" d="M 15.605469 28.296875 L 15.605469 24.558594 L 15.351562 24.558594 C 13.855469 24.558594 12.640625 25.769531 12.640625 27.265625 C 12.640625 28.761719 13.855469 29.976562 15.351562 29.976562 L 15.777344 29.976562 C 15.664062 29.433594 15.605469 28.871094 15.605469 28.296875 Z M 15.605469 28.296875 "/>
<path style=" stroke:none;fill-rule:nonzero;fill:rgb(100%,62.352941%,37.647059%);fill-opacity:1;" d="M 13.632812 27.265625 C 13.632812 26.027344 14.46875 24.980469 15.605469 24.660156 L 15.605469 24.558594 L 15.351562 24.558594 C 13.855469 24.558594 12.640625 25.769531 12.640625 27.265625 C 12.640625 28.761719 13.855469 29.976562 15.351562 29.976562 L 15.777344 29.976562 C 15.773438 29.957031 15.773438 29.933594 15.769531 29.914062 C 14.546875 29.648438 13.632812 28.566406 13.632812 27.265625 Z M 13.632812 27.265625 "/>
<path style=" stroke:none;fill-rule:nonzero;fill:rgb(100%,78.823529%,52.941176%);fill-opacity:1;" d="M 32.28125 24.558594 L 32.027344 24.558594 L 32.027344 28.296875 C 32.027344 28.871094 31.964844 29.433594 31.851562 29.976562 L 32.28125 29.976562 C 33.777344 29.976562 34.992188 28.761719 34.992188 27.265625 C 34.992188 25.769531 33.777344 24.558594 32.28125 24.558594 Z M 32.28125 24.558594 "/>
<path style=" stroke:none;fill-rule:nonzero;fill:rgb(100%,88.627451%,72.156863%);fill-opacity:1;" d="M 32.144531 28.296875 C 32.144531 32.894531 28.414062 36.621094 23.816406 36.621094 C 19.21875 36.621094 15.488281 32.894531 15.488281 28.296875 L 15.488281 22.683594 C 15.488281 18.082031 19.21875 16.699219 23.816406 16.699219 C 28.414062 16.699219 32.144531 18.082031 32.144531 22.683594 Z M 32.144531 28.296875 "/>
<path style=" stroke:none;fill-rule:nonzero;fill:rgb(100%,78.823529%,52.941176%);fill-opacity:1;" d="M 17.144531 28.296875 L 17.144531 22.683594 C 17.144531 18.363281 20.433594 16.882812 24.644531 16.71875 C 24.371094 16.707031 24.09375 16.699219 23.816406 16.699219 C 19.21875 16.699219 15.488281 18.082031 15.488281 22.683594 L 15.488281 28.296875 C 15.488281 32.894531 19.21875 36.621094 23.816406 36.621094 C 24.09375 36.621094 24.371094 36.609375 24.644531 36.582031 C 20.433594 36.167969 17.144531 32.617188 17.144531 28.296875 Z M 17.144531 28.296875 "/>
<path style=" stroke:none;fill-rule:nonzero;fill:rgb(64.705882%,20.784314%,20.784314%);fill-opacity:1;" d="M 19.847656 26.632812 C 19.367188 26.632812 18.972656 26.242188 18.972656 25.757812 L 18.972656 24.242188 C 18.972656 23.757812 19.367188 23.367188 19.847656 23.367188 C 20.332031 23.367188 20.722656 23.757812 20.722656 24.242188 L 20.722656 25.757812 C 20.722656 26.242188 20.332031 26.632812 19.847656 26.632812 Z M 19.847656 26.632812 "/>
<path style=" stroke:none;fill-rule:nonzero;fill:rgb(64.705882%,20.784314%,20.784314%);fill-opacity:1;" d="M 27.785156 26.632812 C 27.300781 26.632812 26.910156 26.242188 26.910156 25.757812 L 26.910156 24.242188 C 26.910156 23.757812 27.300781 23.367188 27.785156 23.367188 C 28.265625 23.367188 28.660156 23.757812 28.660156 24.242188 L 28.660156 25.757812 C 28.660156 26.242188 28.265625 26.632812 27.785156 26.632812 Z M 27.785156 26.632812 "/>
<path style=" stroke:none;fill-rule:nonzero;fill:rgb(64.705882%,20.784314%,20.784314%);fill-opacity:1;" d="M 24.574219 28.519531 L 23.523438 28.519531 C 22.785156 28.519531 22.183594 27.917969 22.183594 27.179688 L 22.183594 24.691406 C 22.183594 24.207031 22.574219 23.816406 23.058594 23.816406 C 23.542969 23.816406 23.933594 24.207031 23.933594 24.691406 L 23.933594 26.769531 L 24.574219 26.769531 C 25.058594 26.769531 25.449219 27.160156 25.449219 27.644531 C 25.449219 28.128906 25.058594 28.519531 24.574219 28.519531 Z M 24.574219 28.519531 "/>
<path style=" stroke:none;fill-rule:nonzero;fill:rgb(100%,100%,100%);fill-opacity:1;" d="M 26.210938 30.035156 L 21.421875 30.035156 C 21.019531 30.035156 20.691406 30.363281 20.691406 30.765625 C 20.691406 32.492188 22.09375 33.894531 23.816406 33.894531 C 25.539062 33.894531 26.941406 32.492188 26.941406 30.765625 C 26.941406 30.363281 26.613281 30.035156 26.210938 30.035156 Z M 26.210938 30.035156 "/>
<path style=" stroke:none;fill-rule:nonzero;fill:rgb(100%,58.431373%,9.411765%);fill-opacity:1;" d="M 48 4.125 C 48 3.867188 47.789062 3.65625 47.53125 3.65625 L 29.898438 3.65625 C 29.640625 3.65625 29.429688 3.867188 29.429688 4.125 L 29.429688 13.765625 C 29.429688 14.023438 29.640625 14.234375 29.898438 14.234375 L 35.03125 14.234375 C 35.289062 14.234375 35.5 14.445312 35.5 14.703125 L 35.5 16.433594 C 35.5 16.691406 35.683594 16.792969 35.902344 16.660156 L 39.578125 14.472656 C 39.796875 14.339844 40.191406 14.234375 40.449219 14.234375 L 47.53125 14.234375 C 47.789062 14.234375 48 14.023438 48 13.765625 Z M 48 4.125 "/>
<path style=" stroke:none;fill-rule:nonzero;fill:rgb(16.078431%,23.921569%,48.627451%);fill-opacity:1;" d="M 1.859375 22.292969 L 1.859375 12.277344 C 1.859375 12.019531 2.070312 11.808594 2.328125 11.808594 L 0.46875 11.808594 C 0.210938 11.808594 0 12.019531 0 12.277344 L 0 22.292969 C 0 22.550781 0.210938 22.761719 0.46875 22.761719 L 2.328125 22.761719 C 2.070312 22.761719 1.859375 22.550781 1.859375 22.292969 Z M 1.859375 22.292969 "/>
<path style=" stroke:none;fill-rule:nonzero;fill:rgb(93.72549%,51.372549%,9.411765%);fill-opacity:1;" d="M 31.289062 13.765625 L 31.289062 4.125 C 31.289062 3.867188 31.5 3.65625 31.757812 3.65625 L 29.898438 3.65625 C 29.640625 3.65625 29.429688 3.867188 29.429688 4.125 L 29.429688 13.765625 C 29.429688 14.023438 29.640625 14.234375 29.898438 14.234375 L 31.757812 14.234375 C 31.5 14.234375 31.289062 14.023438 31.289062 13.765625 Z M 31.289062 13.765625 "/>
<path style=" stroke:none;fill-rule:nonzero;fill:rgb(100%,100%,100%);fill-opacity:1;" d="M 33.382812 6.402344 C 33.496094 6.171875 33.679688 6.171875 33.796875 6.402344 L 34.191406 7.210938 C 34.304688 7.441406 34.609375 7.660156 34.863281 7.695312 L 35.75 7.824219 C 36.003906 7.863281 36.0625 8.039062 35.878906 8.21875 L 35.234375 8.84375 C 35.050781 9.023438 34.9375 9.378906 34.980469 9.632812 L 35.132812 10.515625 C 35.175781 10.769531 35.023438 10.878906 34.796875 10.761719 L 34 10.34375 C 33.773438 10.222656 33.402344 10.222656 33.175781 10.34375 L 32.378906 10.761719 C 32.152344 10.878906 32 10.769531 32.046875 10.515625 L 32.195312 9.632812 C 32.238281 9.378906 32.125 9.023438 31.941406 8.84375 L 31.296875 8.21875 C 31.113281 8.039062 31.171875 7.863281 31.425781 7.824219 L 32.316406 7.695312 C 32.570312 7.660156 32.871094 7.441406 32.984375 7.210938 Z M 33.382812 6.402344 "/>
<path style=" stroke:none;fill-rule:nonzero;fill:rgb(100%,100%,100%);fill-opacity:1;" d="M 39.003906 6.402344 C 39.117188 6.171875 39.304688 6.171875 39.417969 6.402344 L 39.816406 7.210938 C 39.929688 7.441406 40.230469 7.660156 40.484375 7.695312 L 41.375 7.824219 C 41.628906 7.863281 41.683594 8.039062 41.5 8.21875 L 40.859375 8.84375 C 40.675781 9.023438 40.558594 9.378906 40.601562 9.632812 L 40.753906 10.515625 C 40.796875 10.769531 40.648438 10.878906 40.417969 10.761719 L 39.625 10.34375 C 39.398438 10.222656 39.023438 10.222656 38.796875 10.34375 L 38.003906 10.761719 C 37.773438 10.878906 37.625 10.769531 37.667969 10.515625 L 37.820312 9.632812 C 37.863281 9.378906 37.746094 9.023438 37.5625 8.84375 L 36.921875 8.21875 C 36.738281 8.039062 36.792969 7.863281 37.046875 7.824219 L 37.9375 7.695312 C 38.191406 7.660156 38.492188 7.441406 38.605469 7.210938 Z M 39.003906 6.402344 "/>
<path style=" stroke:none;fill-rule:nonzero;fill:rgb(100%,100%,100%);fill-opacity:1;" d="M 44.625 6.402344 C 44.738281 6.171875 44.925781 6.171875 45.039062 6.402344 L 45.4375 7.210938 C 45.550781 7.441406 45.851562 7.660156 46.105469 7.695312 L 46.996094 7.824219 C 47.25 7.863281 47.308594 8.039062 47.125 8.21875 L 46.480469 8.84375 C 46.296875 9.023438 46.179688 9.378906 46.222656 9.632812 L 46.375 10.515625 C 46.421875 10.769531 46.269531 10.878906 46.042969 10.761719 L 45.246094 10.34375 C 45.019531 10.222656 44.648438 10.222656 44.417969 10.34375 L 43.625 10.761719 C 43.398438 10.878906 43.246094 10.769531 43.289062 10.515625 L 43.441406 9.632812 C 43.484375 9.378906 43.371094 9.023438 43.1875 8.84375 L 42.542969 8.21875 C 42.359375 8.039062 42.417969 7.863281 42.671875 7.824219 L 43.558594 7.695312 C 43.8125 7.660156 44.113281 7.441406 44.230469 7.210938 Z M 44.625 6.402344 "/>
<path style=" stroke:none;fill-rule:nonzero;fill:rgb(56.862745%,87.843137%,90.980392%);fill-opacity:1;" d="M 12.726562 15.488281 L 3.5 15.488281 C 3.113281 15.488281 2.796875 15.171875 2.796875 14.785156 C 2.796875 14.394531 3.113281 14.082031 3.5 14.082031 L 12.726562 14.082031 C 13.117188 14.082031 13.429688 14.394531 13.429688 14.785156 C 13.429688 15.171875 13.117188 15.488281 12.726562 15.488281 Z M 12.726562 15.488281 "/>
<path style=" stroke:none;fill-rule:nonzero;fill:rgb(56.862745%,87.843137%,90.980392%);fill-opacity:1;" d="M 12.726562 17.800781 L 3.5 17.800781 C 3.113281 17.800781 2.796875 17.484375 2.796875 17.097656 C 2.796875 16.707031 3.113281 16.394531 3.5 16.394531 L 12.726562 16.394531 C 13.117188 16.394531 13.429688 16.707031 13.429688 17.097656 C 13.429688 17.484375 13.117188 17.800781 12.726562 17.800781 Z M 12.726562 17.800781 "/>
<path style=" stroke:none;fill-rule:nonzero;fill:rgb(56.862745%,87.843137%,90.980392%);fill-opacity:1;" d="M 8.132812 20.109375 L 3.5 20.109375 C 3.113281 20.109375 2.796875 19.796875 2.796875 19.40625 C 2.796875 19.019531 3.113281 18.703125 3.5 18.703125 L 8.132812 18.703125 C 8.519531 18.703125 8.835938 19.019531 8.835938 19.40625 C 8.835938 19.796875 8.519531 20.109375 8.132812 20.109375 Z M 8.132812 20.109375 "/>
</g>
</svg>
