<?xml version="1.0" encoding="UTF-8"?>
<svg xmlns="http://www.w3.org/2000/svg" xmlns:xlink="http://www.w3.org/1999/xlink" width="48px" height="48px" viewBox="0 0 48 48" version="1.1">
<g id="surface1">
<path style=" stroke:none;fill-rule:nonzero;fill:rgb(98.039216%,96.862745%,96.078431%);fill-opacity:1;" d="M 19.25 10.902344 L 9.546875 10.902344 C 7.992188 10.902344 6.730469 12.167969 6.730469 13.730469 L 6.730469 18.511719 L 41.269531 18.511719 L 41.269531 13.730469 C 41.269531 12.167969 40.007812 10.902344 38.453125 10.902344 L 28.75 10.902344 "/>
<path style=" stroke:none;fill-rule:nonzero;fill:rgb(75.686275%,57.647059%,86.27451%);fill-opacity:1;" d="M 44.214844 45.265625 L 3.785156 45.265625 C 2.214844 45.265625 0.9375 43.988281 0.9375 42.414062 L 0.9375 21.359375 C 0.9375 19.785156 2.214844 18.511719 3.785156 18.511719 L 44.214844 18.511719 C 45.785156 18.511719 47.0625 19.785156 47.0625 21.359375 L 47.0625 42.414062 C 47.0625 43.988281 45.785156 45.265625 44.214844 45.265625 Z M 44.214844 45.265625 "/>
<path style=" stroke:none;fill-rule:nonzero;fill:rgb(62.745098%,89.803922%,64.705882%);fill-opacity:1;" d="M 19.4375 2.734375 L 28.5625 2.734375 L 28.5625 14.707031 L 19.4375 14.707031 Z M 19.4375 2.734375 "/>
<path style=" stroke:none;fill-rule:nonzero;fill:rgb(100%,81.568627%,78.039216%);fill-opacity:1;" d="M 15.679688 28.882812 C 15.679688 26.53125 13.777344 24.625 11.433594 24.625 C 9.089844 24.625 7.191406 26.53125 7.191406 28.882812 C 7.191406 31.234375 9.089844 33.136719 11.433594 33.136719 C 13.777344 33.136719 15.679688 31.234375 15.679688 28.882812 Z M 15.679688 28.882812 "/>
<path style=" stroke:none;fill-rule:nonzero;fill:rgb(80%,96.078431%,98.823529%);fill-opacity:1;" d="M 17.347656 39.707031 L 5.523438 39.707031 L 5.523438 34.34375 C 5.523438 33.679688 6.066406 33.136719 6.730469 33.136719 L 16.140625 33.136719 C 16.804688 33.136719 17.347656 33.679688 17.347656 34.34375 Z M 17.347656 39.707031 "/>
<path style=" stroke:none;fill-rule:nonzero;fill:rgb(98.039216%,96.862745%,96.078431%);fill-opacity:1;" d="M 28.792969 39.707031 L 23.589844 39.707031 L 23.589844 33.933594 L 42.476562 33.933594 L 42.476562 39.707031 L 37.269531 39.707031 "/>
<path style=" stroke:none;fill-rule:nonzero;fill:rgb(0%,0%,0%);fill-opacity:1;" d="M 33.050781 40.644531 C 32.664062 40.644531 32.308594 40.398438 32.171875 40.035156 C 32.035156 39.675781 32.140625 39.253906 32.429688 39 C 32.730469 38.738281 33.175781 38.695312 33.519531 38.894531 C 33.863281 39.09375 34.046875 39.5 33.96875 39.886719 C 33.882812 40.320312 33.492188 40.644531 33.050781 40.644531 Z M 33.050781 40.644531 "/>
<path style=" stroke:none;fill-rule:nonzero;fill:rgb(0%,0%,0%);fill-opacity:1;" d="M 42.476562 40.644531 L 37.269531 40.644531 C 36.753906 40.644531 36.332031 40.222656 36.332031 39.707031 C 36.332031 39.1875 36.753906 38.769531 37.269531 38.769531 L 41.539062 38.769531 L 41.539062 34.871094 L 24.527344 34.871094 L 24.527344 38.769531 L 28.792969 38.769531 C 29.3125 38.769531 29.730469 39.1875 29.730469 39.707031 C 29.730469 40.222656 29.3125 40.644531 28.792969 40.644531 L 23.589844 40.644531 C 23.070312 40.644531 22.652344 40.222656 22.652344 39.707031 L 22.652344 33.933594 C 22.652344 33.414062 23.070312 32.996094 23.589844 32.996094 L 42.476562 32.996094 C 42.992188 32.996094 43.414062 33.414062 43.414062 33.933594 L 43.414062 39.707031 C 43.414062 40.222656 42.992188 40.644531 42.476562 40.644531 Z M 42.476562 40.644531 "/>
<path style=" stroke:none;fill-rule:nonzero;fill:rgb(0%,0%,0%);fill-opacity:1;" d="M 39.390625 30.964844 L 23.589844 30.964844 C 23.070312 30.964844 22.652344 30.542969 22.652344 30.027344 C 22.652344 29.507812 23.070312 29.089844 23.589844 29.089844 L 39.390625 29.089844 C 39.90625 29.089844 40.328125 29.507812 40.328125 30.027344 C 40.328125 30.542969 39.90625 30.964844 39.390625 30.964844 Z M 39.390625 30.964844 "/>
<path style=" stroke:none;fill-rule:nonzero;fill:rgb(0%,0%,0%);fill-opacity:1;" d="M 35.582031 27.15625 L 23.589844 27.15625 C 23.070312 27.15625 22.652344 26.738281 22.652344 26.21875 C 22.652344 25.703125 23.070312 25.28125 23.589844 25.28125 L 35.582031 25.28125 C 36.101562 25.28125 36.519531 25.703125 36.519531 26.21875 C 36.519531 26.738281 36.101562 27.15625 35.582031 27.15625 Z M 35.582031 27.15625 "/>
<path style=" stroke:none;fill-rule:nonzero;fill:rgb(0%,0%,0%);fill-opacity:1;" d="M 16.140625 32.199219 L 15.417969 32.199219 C 16.164062 31.300781 16.617188 30.144531 16.617188 28.882812 C 16.617188 26.019531 14.292969 23.6875 11.433594 23.6875 C 8.578125 23.6875 6.253906 26.019531 6.253906 28.882812 C 6.253906 30.144531 6.703125 31.300781 7.453125 32.199219 L 6.730469 32.199219 C 5.550781 32.199219 4.585938 33.164062 4.585938 34.34375 L 4.585938 39.707031 C 4.585938 40.222656 5.007812 40.644531 5.523438 40.644531 L 17.347656 40.644531 C 17.863281 40.644531 18.285156 40.222656 18.285156 39.707031 L 18.285156 34.34375 C 18.285156 33.164062 17.320312 32.199219 16.140625 32.199219 Z M 8.128906 28.882812 C 8.128906 27.050781 9.613281 25.5625 11.433594 25.5625 C 13.257812 25.5625 14.742188 27.050781 14.742188 28.882812 C 14.742188 30.710938 13.257812 32.199219 11.433594 32.199219 C 9.613281 32.199219 8.128906 30.710938 8.128906 28.882812 Z M 16.410156 38.769531 L 6.460938 38.769531 L 6.460938 34.34375 C 6.460938 34.195312 6.582031 34.074219 6.730469 34.074219 L 16.140625 34.074219 C 16.289062 34.074219 16.410156 34.195312 16.410156 34.34375 Z M 16.410156 38.769531 "/>
<path style=" stroke:none;fill-rule:nonzero;fill:rgb(0%,0%,0%);fill-opacity:1;" d="M 44.214844 17.574219 L 42.207031 17.574219 L 42.207031 13.730469 C 42.207031 11.652344 40.523438 9.964844 38.453125 9.964844 L 29.5 9.964844 L 29.5 2.734375 C 29.5 2.21875 29.078125 1.796875 28.5625 1.796875 L 19.4375 1.796875 C 18.921875 1.796875 18.5 2.21875 18.5 2.734375 L 18.5 9.964844 L 9.546875 9.964844 C 7.476562 9.964844 5.792969 11.652344 5.792969 13.730469 L 5.792969 17.574219 L 3.785156 17.574219 C 1.699219 17.574219 0 19.269531 0 21.359375 L 0 42.414062 C 0 44.503906 1.699219 46.203125 3.785156 46.203125 L 44.214844 46.203125 C 46.300781 46.203125 48 44.503906 48 42.414062 L 48 21.359375 C 48 19.269531 46.300781 17.574219 44.214844 17.574219 Z M 20.375 3.671875 L 27.625 3.671875 L 27.625 13.769531 L 20.375 13.769531 Z M 7.667969 13.730469 C 7.667969 12.6875 8.511719 11.839844 9.546875 11.839844 L 18.5 11.839844 L 18.5 13.769531 L 14.929688 13.769531 C 14.410156 13.769531 13.992188 14.1875 13.992188 14.707031 C 13.992188 15.222656 14.410156 15.644531 14.929688 15.644531 L 33.070312 15.644531 C 33.589844 15.644531 34.007812 15.222656 34.007812 14.707031 C 34.007812 14.1875 33.589844 13.769531 33.070312 13.769531 L 29.5 13.769531 L 29.5 11.839844 L 38.453125 11.839844 C 39.488281 11.839844 40.332031 12.6875 40.332031 13.730469 L 40.332031 17.574219 L 7.667969 17.574219 Z M 46.125 42.414062 C 46.125 43.46875 45.265625 44.328125 44.214844 44.328125 L 3.785156 44.328125 C 2.734375 44.328125 1.875 43.46875 1.875 42.414062 L 1.875 21.359375 C 1.875 20.304688 2.734375 19.449219 3.785156 19.449219 L 44.214844 19.449219 C 45.269531 19.449219 46.125 20.304688 46.125 21.359375 Z M 46.125 42.414062 "/>
</g>
</svg>
