<?xml version="1.0" encoding="UTF-8"?>
<svg xmlns="http://www.w3.org/2000/svg" xmlns:xlink="http://www.w3.org/1999/xlink" width="48px" height="48px" viewBox="0 0 48 48" version="1.1">
<g id="surface1">
<path style=" stroke:none;fill-rule:nonzero;fill:rgb(80.392157%,0%,0%);fill-opacity:1;" d="M 36.75 2.90625 L 42.378906 2.90625 L 42.378906 15.5625 L 36.75 15.5625 Z M 36.75 2.90625 "/>
<path style=" stroke:none;fill-rule:nonzero;fill:rgb(94.901961%,94.901961%,98.823529%);fill-opacity:1;" d="M 42.378906 18.378906 L 42.378906 45.101562 L 5.621094 45.101562 L 5.621094 18.378906 L 24 4.3125 Z M 42.378906 18.378906 "/>
<path style=" stroke:none;fill-rule:nonzero;fill:rgb(84.705882%,84.705882%,98.823529%);fill-opacity:1;" d="M 42.378906 18.378906 L 42.378906 45.101562 L 24 45.101562 L 24 4.3125 Z M 42.378906 18.378906 "/>
<path style=" stroke:none;fill-rule:nonzero;fill:rgb(34.117647%,37.254902%,39.215686%);fill-opacity:1;" d="M 31.03125 31.035156 L 31.03125 45.101562 L 16.96875 45.101562 L 16.96875 31.035156 C 16.96875 30.246094 17.585938 29.628906 18.375 29.628906 L 29.625 29.628906 C 30.414062 29.628906 31.03125 30.246094 31.03125 31.035156 Z M 31.03125 31.035156 "/>
<path style=" stroke:none;fill-rule:nonzero;fill:rgb(94.117647%,21.960784%,0%);fill-opacity:1;" d="M 43.785156 4.3125 L 35.34375 4.3125 C 34.566406 4.3125 33.9375 3.683594 33.9375 2.90625 C 33.9375 2.128906 34.566406 1.5 35.34375 1.5 L 43.785156 1.5 C 44.5625 1.5 45.191406 2.128906 45.191406 2.90625 C 45.191406 3.683594 44.5625 4.3125 43.785156 4.3125 Z M 43.785156 4.3125 "/>
<path style=" stroke:none;fill-rule:nonzero;fill:rgb(19.607843%,22.352941%,24.705882%);fill-opacity:1;" d="M 31.03125 31.035156 L 31.03125 45.101562 L 24 45.101562 L 24 29.628906 L 29.625 29.628906 C 30.414062 29.628906 31.03125 30.246094 31.03125 31.035156 Z M 31.03125 31.035156 "/>
<path style=" stroke:none;fill-rule:nonzero;fill:rgb(100%,39.215686%,10.196078%);fill-opacity:1;" d="M 47.414062 17.84375 L 25.632812 2.035156 C 25.152344 1.667969 24.5625 1.5 24 1.5 C 23.4375 1.5 22.847656 1.667969 22.367188 2.035156 L 0.585938 17.84375 C -0.0585938 18.320312 -0.199219 19.222656 0.304688 19.867188 L 2.050781 22.0625 C 2.527344 22.652344 3.371094 22.765625 3.992188 22.34375 L 24 7.773438 L 44.007812 22.34375 C 44.628906 22.765625 45.472656 22.652344 45.949219 22.0625 L 47.695312 19.867188 C 48.199219 19.25 48.058594 18.320312 47.414062 17.84375 Z M 47.414062 17.84375 "/>
<path style=" stroke:none;fill-rule:nonzero;fill:rgb(94.117647%,21.960784%,0%);fill-opacity:1;" d="M 47.695312 19.867188 L 45.949219 22.0625 C 45.472656 22.652344 44.628906 22.765625 44.007812 22.34375 L 24 7.773438 L 24 1.5 C 24.5625 1.5 25.152344 1.667969 25.632812 2.035156 L 47.414062 17.84375 C 48.058594 18.320312 48.199219 19.25 47.695312 19.867188 Z M 47.695312 19.867188 "/>
<path style=" stroke:none;fill-rule:nonzero;fill:rgb(61.176471%,86.666667%,1.960784%);fill-opacity:1;" d="M 45.191406 45.101562 C 45.191406 45.886719 44.570312 46.507812 43.785156 46.507812 L 4.214844 46.507812 C 3.429688 46.507812 2.808594 45.886719 2.808594 45.101562 C 2.808594 44.3125 3.429688 43.691406 4.214844 43.691406 L 43.785156 43.691406 C 44.570312 43.691406 45.191406 44.3125 45.191406 45.101562 Z M 45.191406 45.101562 "/>
<path style=" stroke:none;fill-rule:nonzero;fill:rgb(40%,73.333333%,0%);fill-opacity:1;" d="M 45.191406 45.101562 C 45.191406 45.886719 44.570312 46.507812 43.785156 46.507812 L 24 46.507812 L 24 43.691406 L 43.785156 43.691406 C 44.570312 43.691406 45.191406 44.3125 45.191406 45.101562 Z M 45.191406 45.101562 "/>
<path style=" stroke:none;fill-rule:nonzero;fill:rgb(29.411765%,72.54902%,92.54902%);fill-opacity:1;" d="M 24 18.378906 C 21.664062 18.378906 19.78125 20.261719 19.78125 22.597656 C 19.78125 24.929688 21.664062 26.816406 24 26.816406 C 26.335938 26.816406 28.21875 24.929688 28.21875 22.597656 C 28.21875 20.261719 26.335938 18.378906 24 18.378906 Z M 24 18.378906 "/>
<path style=" stroke:none;fill-rule:nonzero;fill:rgb(0%,58.431373%,100%);fill-opacity:1;" d="M 24 26.816406 L 24 18.378906 C 26.335938 18.378906 28.21875 20.261719 28.21875 22.597656 C 28.21875 24.929688 26.335938 26.816406 24 26.816406 Z M 24 26.816406 "/>
</g>
</svg>
