<?xml version="1.0" encoding="UTF-8"?>
<svg xmlns="http://www.w3.org/2000/svg" xmlns:xlink="http://www.w3.org/1999/xlink" width="48px" height="48px" viewBox="0 0 48 48" version="1.1">
<g id="surface1">
<path style=" stroke:none;fill-rule:nonzero;fill:rgb(90.196078%,91.372549%,92.941176%);fill-opacity:1;" d="M 32.25 22.5 L 32.25 1.5 L 41.25 1.5 L 41.25 27 L 32.25 27 Z M 32.25 22.5 "/>
<path style=" stroke:none;fill-rule:nonzero;fill:rgb(98.823529%,84.313725%,43.921569%);fill-opacity:1;" d="M 29.25 7.246094 C 29.25 8.773438 28.648438 10.214844 27.570312 11.300781 L 24.75 14.121094 L 24.75 18 L 21.75 18 L 21.75 12.878906 L 25.449219 9.179688 C 25.964844 8.664062 26.25 7.972656 26.25 7.246094 C 26.25 5.730469 25.019531 4.5 23.503906 4.5 L 22.996094 4.5 C 21.480469 4.5 20.25 5.730469 20.25 7.246094 L 20.25 8.25 L 17.25 8.25 L 17.25 7.246094 C 17.25 4.074219 19.824219 1.5 22.996094 1.5 L 23.503906 1.5 C 26.675781 1.5 29.25 4.074219 29.25 7.246094 Z M 29.25 7.246094 "/>
<path style=" stroke:none;fill-rule:nonzero;fill:rgb(98.823529%,84.313725%,43.921569%);fill-opacity:1;" d="M 24.75 22.5 C 24.75 23.328125 24.078125 24 23.25 24 C 22.421875 24 21.75 23.328125 21.75 22.5 C 21.75 21.671875 22.421875 21 23.25 21 C 24.078125 21 24.75 21.671875 24.75 22.5 Z M 24.75 22.5 "/>
<path style=" stroke:none;fill-rule:nonzero;fill:rgb(82.745098%,62.745098%,42.352941%);fill-opacity:1;" d="M 24 27 L 24 46.5 L 6 46.5 L 6 33 L 20.25 33 L 23.25 27 Z M 24 27 "/>
<path style=" stroke:none;fill-rule:nonzero;fill:rgb(82.745098%,62.745098%,42.352941%);fill-opacity:1;" d="M 24 27 L 24.75 27 L 27.75 33 L 42 33 L 42 46.5 L 24 46.5 Z M 24 27 "/>
<path style=" stroke:none;fill-rule:nonzero;fill:rgb(69.803922%,47.45098%,27.45098%);fill-opacity:1;" d="M 23.25 27 L 20.25 33 L 2.25 33 L 5.25 27 Z M 23.25 27 "/>
<path style=" stroke:none;fill-rule:nonzero;fill:rgb(69.803922%,47.45098%,27.45098%);fill-opacity:1;" d="M 42.75 27 L 45.75 33 L 27.75 33 L 24.75 27 Z M 42.75 27 "/>
<path style=" stroke:none;fill-rule:nonzero;fill:rgb(30.980392%,75.686275%,91.372549%);fill-opacity:1;" d="M 11.992188 13.5 L 11.992188 27 L 7.5 27 L 7.5 13.5 L 9.75 15 Z M 11.992188 13.5 "/>
<path style=" stroke:none;fill-rule:nonzero;fill:rgb(100%,50.980392%,43.137255%);fill-opacity:1;" d="M 16.5 13.5 L 16.5 27 L 11.992188 27 L 11.992188 13.5 L 14.25 15 Z M 16.5 13.5 "/>
<path style=" stroke:none;fill-rule:nonzero;fill:rgb(66.666667%,69.803922%,74.117647%);fill-opacity:1;" d="M 14.796875 9.75 L 13.058594 5.933594 C 12.871094 5.519531 12.457031 5.25 12 5.25 C 11.542969 5.25 11.128906 5.519531 10.941406 5.933594 L 9.203125 9.75 L 7.5 13.5 L 9.75 15 L 11.992188 13.5 L 14.25 15 L 16.5 13.5 Z M 14.796875 9.75 "/>
<path style=" stroke:none;fill-rule:nonzero;fill:rgb(0%,0%,0%);fill-opacity:1;" d="M 46.964844 33.75 L 43.214844 26.25 L 42 26.25 L 42 0.75 L 31.5 0.75 L 31.5 26.25 L 17.25 26.25 L 17.25 13.335938 L 13.742188 5.621094 C 13.433594 4.941406 12.75 4.5 12 4.5 C 11.25 4.5 10.566406 4.941406 10.257812 5.621094 L 6.75 13.335938 L 6.75 26.25 L 4.785156 26.25 L 1.035156 33.75 L 5.25 33.75 L 5.25 47.25 L 42.75 47.25 L 42.75 33.75 Z M 33 23.25 L 37.5 23.25 L 37.5 21.75 L 33 21.75 L 33 20.25 L 36 20.25 L 36 18.75 L 33 18.75 L 33 17.25 L 37.5 17.25 L 37.5 15.75 L 33 15.75 L 33 14.25 L 36 14.25 L 36 12.75 L 33 12.75 L 33 11.25 L 37.5 11.25 L 37.5 9.75 L 33 9.75 L 33 8.25 L 36 8.25 L 36 6.75 L 33 6.75 L 33 5.25 L 37.5 5.25 L 37.5 3.75 L 33 3.75 L 33 2.25 L 40.5 2.25 L 40.5 26.25 L 33 26.25 Z M 42.285156 27.75 L 44.535156 32.25 L 28.214844 32.25 L 25.964844 27.75 Z M 12.746094 26.25 L 12.746094 14.902344 L 14.246094 15.902344 L 15.75 14.898438 L 15.75 26.25 Z M 15.554688 13.230469 L 14.246094 14.097656 L 11.996094 12.597656 L 9.746094 14.097656 L 8.445312 13.230469 L 9.6875 10.5 L 14.3125 10.5 Z M 11.621094 6.242188 C 11.757812 5.949219 12.242188 5.945312 12.378906 6.242188 L 13.628906 9 L 10.367188 9 Z M 8.25 14.902344 L 9.746094 15.902344 L 11.246094 14.902344 L 11.246094 26.25 L 8.25 26.25 Z M 5.714844 27.75 L 22.035156 27.75 L 19.785156 32.25 L 3.464844 32.25 Z M 6.75 33.75 L 20.714844 33.75 L 23.25 28.675781 L 23.25 45.75 L 6.75 45.75 Z M 41.25 45.75 L 24.75 45.75 L 24.75 28.675781 L 27.285156 33.75 L 41.25 33.75 Z M 41.25 45.75 "/>
<path style=" stroke:none;fill-rule:nonzero;fill:rgb(0%,0%,0%);fill-opacity:1;" d="M 8.25 42.75 L 9.75 42.75 L 9.75 44.25 L 8.25 44.25 Z M 8.25 42.75 "/>
<path style=" stroke:none;fill-rule:nonzero;fill:rgb(0%,0%,0%);fill-opacity:1;" d="M 14.25 42.75 L 15.75 42.75 L 15.75 44.25 L 14.25 44.25 Z M 14.25 42.75 "/>
<path style=" stroke:none;fill-rule:nonzero;fill:rgb(0%,0%,0%);fill-opacity:1;" d="M 11.25 42.75 L 12.75 42.75 L 12.75 44.25 L 11.25 44.25 Z M 11.25 42.75 "/>
<path style=" stroke:none;fill-rule:nonzero;fill:rgb(0%,0%,0%);fill-opacity:1;" d="M 8.25 39.75 L 15.75 39.75 L 15.75 41.25 L 8.25 41.25 Z M 8.25 39.75 "/>
<path style=" stroke:none;fill-rule:nonzero;fill:rgb(0%,0%,0%);fill-opacity:1;" d="M 21 7.242188 C 21 6.144531 21.894531 5.25 22.992188 5.25 L 23.507812 5.25 C 24.605469 5.25 25.5 6.144531 25.5 7.242188 C 25.5 7.773438 25.292969 8.273438 24.917969 8.652344 L 21 12.570312 L 21 18.75 L 25.5 18.75 L 25.5 14.429688 L 28.097656 11.832031 C 29.324219 10.605469 30 8.976562 30 7.242188 C 30 3.664062 27.085938 0.75 23.507812 0.75 L 22.992188 0.75 C 19.414062 0.75 16.5 3.664062 16.5 7.242188 L 16.5 9 L 21 9 Z M 19.5 7.242188 L 19.5 7.5 L 18 7.5 L 18 7.242188 C 18 4.488281 20.238281 2.25 22.992188 2.25 L 23.507812 2.25 C 26.261719 2.25 28.5 4.488281 28.5 7.242188 C 28.5 8.574219 27.980469 9.828125 27.039062 10.773438 L 24 13.808594 L 24 17.25 L 22.5 17.25 L 22.5 13.191406 L 25.976562 9.710938 C 26.636719 9.050781 27 8.175781 27 7.242188 C 27 5.316406 25.433594 3.75 23.507812 3.75 L 22.992188 3.75 C 21.066406 3.75 19.5 5.316406 19.5 7.242188 Z M 19.5 7.242188 "/>
<path style=" stroke:none;fill-rule:nonzero;fill:rgb(0%,0%,0%);fill-opacity:1;" d="M 21 22.5 C 21 23.742188 22.007812 24.75 23.25 24.75 C 24.492188 24.75 25.5 23.742188 25.5 22.5 C 25.5 21.257812 24.492188 20.25 23.25 20.25 C 22.007812 20.25 21 21.257812 21 22.5 Z M 24 22.5 C 24 22.914062 23.664062 23.25 23.25 23.25 C 22.835938 23.25 22.5 22.914062 22.5 22.5 C 22.5 22.085938 22.835938 21.75 23.25 21.75 C 23.664062 21.75 24 22.085938 24 22.5 Z M 24 22.5 "/>
</g>
</svg>
