<?xml version="1.0" encoding="UTF-8"?>
<svg xmlns="http://www.w3.org/2000/svg" xmlns:xlink="http://www.w3.org/1999/xlink" width="200px" height="217px" viewBox="0 0 200 217" version="1.1">
<g id="surface1">
<path style=" stroke:none;fill-rule:nonzero;fill:rgb(0%,0%,0%);fill-opacity:1;" d="M 4.183594 1.109375 C 1.207031 2.777344 0.09375 4.8125 0 8.515625 C 0 14.996094 2.136719 16.199219 20.445312 19.996094 C 29.367188 21.941406 36.804688 23.515625 36.894531 23.515625 C 36.988281 23.605469 45.726562 54.066406 56.226562 91.1875 C 66.820312 128.402344 75.558594 158.953125 75.742188 159.140625 C 76.023438 159.324219 77.972656 158.585938 80.296875 157.472656 C 82.621094 156.453125 86.152344 155.25 88.195312 154.972656 C 90.335938 154.601562 92.007812 154.140625 92.007812 153.863281 C 92.007812 153.308594 51.023438 8.792969 50.835938 8.703125 C 49.535156 8.238281 9.109375 0 7.808594 0 C 6.878906 0 5.203125 0.554688 4.183594 1.109375 Z M 4.183594 1.109375 "/>
<path style=" stroke:none;fill-rule:nonzero;fill:rgb(0%,0%,0%);fill-opacity:1;" d="M 108.269531 19.347656 C 88.753906 24.347656 72.398438 28.699219 71.746094 29.070312 C 71.097656 29.4375 70.632812 30.457031 70.632812 31.289062 C 70.632812 32.125 74.347656 45.175781 78.808594 60.175781 C 86.523438 86.097656 87.082031 87.484375 89.3125 87.761719 C 91.449219 88.039062 155.949219 72.210938 160.59375 70.359375 C 161.710938 69.804688 162.640625 68.691406 162.640625 67.582031 C 162.640625 66.007812 158.828125 52.675781 147.210938 13.609375 C 146.097656 10 144.144531 10.277344 108.269531 19.347656 Z M 108.269531 19.347656 "/>
<path style=" stroke:none;fill-rule:nonzero;fill:rgb(0%,0%,0%);fill-opacity:1;" d="M 127.882812 91.558594 C 105.761719 97.207031 92.285156 101.09375 91.730469 101.925781 C 91.078125 102.945312 93.308594 111.832031 98.882812 130.996094 C 103.253906 146.269531 107.34375 159.140625 107.808594 159.601562 C 109.199219 160.992188 182.15625 142.847656 182.808594 140.902344 C 183.550781 139.144531 168.214844 85.261719 166.542969 83.597656 C 165.890625 82.949219 164.777344 82.394531 164.21875 82.484375 C 163.570312 82.578125 147.210938 86.652344 127.882812 91.558594 Z M 127.882812 91.558594 "/>
<path style=" stroke:none;fill-rule:nonzero;fill:rgb(0%,0%,0%);fill-opacity:1;" d="M 158.269531 161.824219 C 141.820312 166.269531 128.066406 170.15625 127.789062 170.527344 C 127.417969 170.804688 127.972656 172.65625 128.996094 174.691406 C 130.019531 176.636719 131.320312 179.96875 131.878906 182.191406 C 132.527344 184.320312 133.363281 186.078125 133.921875 186.078125 C 136.894531 186.078125 195.167969 169.972656 197.027344 168.582031 C 198.792969 167.285156 199.441406 165.988281 199.628906 162.65625 C 200 156.917969 197.027344 153.675781 191.730469 153.769531 C 189.777344 153.769531 174.722656 157.472656 158.269531 161.824219 Z M 158.269531 161.824219 "/>
<path style=" stroke:none;fill-rule:nonzero;fill:rgb(0%,0%,0%);fill-opacity:1;" d="M 87.730469 167.378906 C 72.863281 172.5625 66.355469 188.488281 73.511719 202.652344 C 78.160156 211.816406 85.039062 216.074219 95.726562 216.074219 C 103.160156 216.167969 107.34375 214.59375 113.195312 209.6875 C 120.910156 203.207031 123.328125 189.132812 118.214844 179.507812 C 115.148438 173.582031 109.574219 169.046875 102.972656 167.101562 C 96.839844 165.34375 93.585938 165.34375 87.730469 167.378906 Z M 87.730469 167.378906 "/>
</g>
</svg>
