<?xml version="1.0" encoding="UTF-8"?>
<svg xmlns="http://www.w3.org/2000/svg" xmlns:xlink="http://www.w3.org/1999/xlink" width="48px" height="48px" viewBox="0 0 48 48" version="1.1">
<g id="surface1">
<path style=" stroke:none;fill-rule:nonzero;fill:rgb(87.45098%,86.666667%,86.27451%);fill-opacity:1;" d="M 1.5 1.5 L 20.5 1.5 L 20.5 17 L 1.5 17 Z M 1.5 1.5 "/>
<path style=" stroke:none;fill-rule:nonzero;fill:rgb(94.901961%,68.235294%,25.098039%);fill-opacity:1;" d="M 31 22.5 L 31 14 L 25.5 4.5 L 20.5 4.5 L 20.5 17 L 1.5 17 L 1.5 22.5 Z M 31 22.5 "/>
<path style=" stroke:none;fill-rule:nonzero;fill:rgb(43.137255%,72.941176%,92.941176%);fill-opacity:1;" d="M 45 7.5 C 45 9.15625 43.65625 10.5 42 10.5 C 40.34375 10.5 39 9.15625 39 7.5 C 39 5.84375 40.34375 4.5 42 4.5 C 43.65625 4.5 45 5.84375 45 7.5 Z M 45 7.5 "/>
<path style=" stroke:none;fill-rule:nonzero;fill:rgb(43.137255%,72.941176%,92.941176%);fill-opacity:1;" d="M 43.5 10.5 L 40.5 10.5 C 38.84375 10.5 37.5 11.84375 37.5 13.5 L 37.5 16 L 46.5 16 L 46.5 13.5 C 46.5 11.84375 45.15625 10.5 43.5 10.5 Z M 43.5 10.5 "/>
<path style=" stroke:none;fill-rule:nonzero;fill:rgb(86.666667%,86.666667%,86.666667%);fill-opacity:1;" d="M 29.839844 12 L 23.5 12 L 23.5 6.5 L 26.660156 6.5 Z M 29.839844 12 "/>
<path style=" stroke:none;fill-rule:nonzero;fill:rgb(87.45098%,86.666667%,86.27451%);fill-opacity:1;" d="M 7 34.5 L 12.5 34.5 L 12.5 46.5 L 7 46.5 Z M 7 34.5 "/>
<path style=" stroke:none;fill-rule:nonzero;fill:rgb(86.666667%,86.666667%,86.666667%);fill-opacity:1;" d="M 12.5 29.5 L 20.5 29.5 L 20.5 46.5 L 12.5 46.5 Z M 12.5 29.5 "/>
<path style=" stroke:none;fill-rule:nonzero;fill:rgb(93.72549%,40%,38.431373%);fill-opacity:1;" d="M 38 46.5 L 20.5 46.5 L 20.5 36 L 24 32.5 L 24 36 L 27.5 32.5 L 27.5 36 L 31 32.5 L 31 36 L 34.5 32.5 L 34.5 36 L 38 32.5 Z M 38 46.5 "/>
<path style=" stroke:none;fill-rule:nonzero;fill:rgb(87.45098%,86.666667%,86.27451%);fill-opacity:1;" d="M 38 38 L 46.5 38 L 46.5 46.5 L 38 46.5 Z M 38 38 "/>
<path style=" stroke:none;fill-rule:nonzero;fill:rgb(61.176471%,60.784314%,60.392157%);fill-opacity:1;" d="M 15 43.5 L 18 43.5 L 18 46.5 L 15 46.5 Z M 15 43.5 "/>
<path style=" stroke:none;fill-rule:nonzero;fill:rgb(61.176471%,60.784314%,60.392157%);fill-opacity:1;" d="M 41 44 L 43.5 44 L 43.5 46.5 L 41 46.5 Z M 41 44 "/>
<path style=" stroke:none;fill-rule:nonzero;fill:rgb(94.901961%,68.235294%,25.098039%);fill-opacity:1;" d="M 3.5 44 C 2.496094 44 1.773438 43.039062 2.050781 42.078125 L 3.5 37 L 4.949219 42.078125 C 5.226562 43.039062 4.503906 44 3.5 44 Z M 3.5 44 "/>
<path style=" stroke:none;fill-rule:nonzero;fill:rgb(78.823529%,78.039216%,77.647059%);fill-opacity:1;" d="M 34.5 36 L 34.5 24.5 L 36.5 24.5 L 36.5 34 Z M 34.5 36 "/>
<path style=" stroke:none;fill-rule:nonzero;fill:rgb(78.823529%,78.039216%,77.647059%);fill-opacity:1;" d="M 1.5 1.5 L 20.5 1.5 L 20.5 6.5 L 1.5 6.5 Z M 1.5 1.5 "/>
<path style=" stroke:none;fill-rule:nonzero;fill:rgb(94.901961%,68.235294%,25.098039%);fill-opacity:1;" d="M 8.5 1.5 L 8.5 10.5 L 11 8 L 13.5 10.5 L 13.5 1.5 Z M 8.5 1.5 "/>
<path style=" stroke:none;fill-rule:nonzero;fill:rgb(61.176471%,60.784314%,60.392157%);fill-opacity:1;" d="M 9.5 22.5 C 9.5 24.15625 8.15625 25.5 6.5 25.5 C 4.84375 25.5 3.5 24.15625 3.5 22.5 C 3.5 20.84375 4.84375 19.5 6.5 19.5 C 8.15625 19.5 9.5 20.84375 9.5 22.5 Z M 9.5 22.5 "/>
<path style=" stroke:none;fill-rule:nonzero;fill:rgb(61.176471%,60.784314%,60.392157%);fill-opacity:1;" d="M 15.5 22.5 C 15.5 24.15625 14.15625 25.5 12.5 25.5 C 10.84375 25.5 9.5 24.15625 9.5 22.5 C 9.5 20.84375 10.84375 19.5 12.5 19.5 C 14.15625 19.5 15.5 20.84375 15.5 22.5 Z M 15.5 22.5 "/>
<path style=" stroke:none;fill-rule:nonzero;fill:rgb(61.176471%,60.784314%,60.392157%);fill-opacity:1;" d="M 27.5 22.5 C 27.5 24.15625 26.15625 25.5 24.5 25.5 C 22.84375 25.5 21.5 24.15625 21.5 22.5 C 21.5 20.84375 22.84375 19.5 24.5 19.5 C 26.15625 19.5 27.5 20.84375 27.5 22.5 Z M 27.5 22.5 "/>
<path style=" stroke:none;fill-rule:nonzero;fill:rgb(78.823529%,78.039216%,77.647059%);fill-opacity:1;" d="M 13.5 22.5 C 13.5 23.050781 13.050781 23.5 12.5 23.5 C 11.949219 23.5 11.5 23.050781 11.5 22.5 C 11.5 21.949219 11.949219 21.5 12.5 21.5 C 13.050781 21.5 13.5 21.949219 13.5 22.5 Z M 13.5 22.5 "/>
<path style=" stroke:none;fill-rule:nonzero;fill:rgb(78.823529%,78.039216%,77.647059%);fill-opacity:1;" d="M 25.5 22.5 C 25.5 23.050781 25.050781 23.5 24.5 23.5 C 23.949219 23.5 23.5 23.050781 23.5 22.5 C 23.5 21.949219 23.949219 21.5 24.5 21.5 C 25.050781 21.5 25.5 21.949219 25.5 22.5 Z M 25.5 22.5 "/>
<path style=" stroke:none;fill-rule:nonzero;fill:rgb(78.823529%,78.039216%,77.647059%);fill-opacity:1;" d="M 7.5 22.5 C 7.5 23.050781 7.050781 23.5 6.5 23.5 C 5.949219 23.5 5.5 23.050781 5.5 22.5 C 5.5 21.949219 5.949219 21.5 6.5 21.5 C 7.050781 21.5 7.5 21.949219 7.5 22.5 Z M 7.5 22.5 "/>
<path style=" stroke:none;fill-rule:nonzero;fill:rgb(0%,0%,0%);fill-opacity:1;" d="M 1.5 23 L 3.039062 23 C 3.285156 24.691406 4.742188 26 6.5 26 C 7.773438 26 8.886719 25.3125 9.5 24.292969 C 10.113281 25.3125 11.226562 26 12.5 26 C 14.257812 26 15.714844 24.691406 15.960938 23 L 21.039062 23 C 21.285156 24.691406 22.742188 26 24.5 26 C 26.257812 26 27.714844 24.691406 27.960938 23 L 31 23 C 31.277344 23 31.5 22.777344 31.5 22.5 L 31.5 14 C 31.5 13.910156 31.476562 13.824219 31.433594 13.75 L 25.933594 4.25 C 25.84375 4.09375 25.679688 4 25.5 4 L 21 4 L 21 1.5 C 21 1.222656 20.777344 1 20.5 1 L 1.5 1 C 1.222656 1 1 1.222656 1 1.5 L 1 22.5 C 1 22.777344 1.222656 23 1.5 23 Z M 6.5 25 C 5.121094 25 4 23.878906 4 22.5 C 4 21.121094 5.121094 20 6.5 20 C 7.878906 20 9 21.121094 9 22.5 C 9 23.878906 7.878906 25 6.5 25 Z M 12.5 25 C 11.121094 25 10 23.878906 10 22.5 C 10 21.121094 11.121094 20 12.5 20 C 13.878906 20 15 21.121094 15 22.5 C 15 23.878906 13.878906 25 12.5 25 Z M 24.5 25 C 23.121094 25 22 23.878906 22 22.5 C 22 21.121094 23.121094 20 24.5 20 C 25.878906 20 27 21.121094 27 22.5 C 27 23.878906 25.878906 25 24.5 25 Z M 26.371094 7 L 28.976562 11.5 L 24 11.5 L 24 7 Z M 9 2 L 13 2 L 13 4 C 13 4.277344 13.222656 4.5 13.5 4.5 C 13.777344 4.5 14 4.277344 14 4 L 14 2 L 20 2 L 20 5.5 L 13.5 5.5 C 13.222656 5.5 13 5.722656 13 6 L 13 9.292969 L 11.351562 7.648438 C 11.15625 7.449219 10.84375 7.449219 10.648438 7.648438 L 9 9.292969 Z M 2 2 L 8 2 L 8 5.5 L 2 5.5 Z M 2 6.5 L 8 6.5 L 8 10.5 C 8 10.703125 8.121094 10.886719 8.308594 10.960938 C 8.496094 11.039062 8.710938 10.996094 8.851562 10.851562 L 11 8.707031 L 13.148438 10.851562 C 13.242188 10.949219 13.371094 11 13.5 11 C 13.566406 11 13.628906 10.988281 13.691406 10.960938 C 13.878906 10.886719 14 10.703125 14 10.5 L 14 6.5 L 20 6.5 L 20 16.5 L 2 16.5 Z M 2 17.5 L 20.5 17.5 C 20.777344 17.5 21 17.277344 21 17 L 21 5 L 25.210938 5 L 25.789062 6 L 23.5 6 C 23.222656 6 23 6.222656 23 6.5 L 23 12 C 23 12.277344 23.222656 12.5 23.5 12.5 L 29.554688 12.5 L 30.5 14.132812 L 30.5 22 L 27.960938 22 C 27.714844 20.308594 26.257812 19 24.5 19 C 22.742188 19 21.285156 20.308594 21.039062 22 L 15.960938 22 C 15.714844 20.308594 14.257812 19 12.5 19 C 11.226562 19 10.113281 19.6875 9.5 20.707031 C 8.886719 19.6875 7.773438 19 6.5 19 C 4.742188 19 3.285156 20.308594 3.039062 22 L 2 22 Z M 2 17.5 "/>
<path style=" stroke:none;fill-rule:nonzero;fill:rgb(0%,0%,0%);fill-opacity:1;" d="M 4 15 C 4 15.277344 3.777344 15.5 3.5 15.5 C 3.222656 15.5 3 15.277344 3 15 C 3 14.722656 3.222656 14.5 3.5 14.5 C 3.777344 14.5 4 14.722656 4 15 Z M 4 15 "/>
<path style=" stroke:none;fill-rule:nonzero;fill:rgb(0%,0%,0%);fill-opacity:1;" d="M 6 15 C 6 15.277344 5.777344 15.5 5.5 15.5 C 5.222656 15.5 5 15.277344 5 15 C 5 14.722656 5.222656 14.5 5.5 14.5 C 5.777344 14.5 6 14.722656 6 15 Z M 6 15 "/>
<path style=" stroke:none;fill-rule:nonzero;fill:rgb(0%,0%,0%);fill-opacity:1;" d="M 8 15 C 8 15.277344 7.777344 15.5 7.5 15.5 C 7.222656 15.5 7 15.277344 7 15 C 7 14.722656 7.222656 14.5 7.5 14.5 C 7.777344 14.5 8 14.722656 8 15 Z M 8 15 "/>
<path style=" stroke:none;fill-rule:nonzero;fill:rgb(0%,0%,0%);fill-opacity:1;" d="M 44.332031 10.101562 C 45.046875 9.460938 45.5 8.535156 45.5 7.5 C 45.5 5.570312 43.929688 4 42 4 C 40.070312 4 38.5 5.570312 38.5 7.5 C 38.5 8.535156 38.953125 9.460938 39.667969 10.101562 C 38.140625 10.476562 37 11.855469 37 13.5 L 37 16 C 37 16.277344 37.222656 16.5 37.5 16.5 L 46.5 16.5 C 46.777344 16.5 47 16.277344 47 16 L 47 13.5 C 47 11.855469 45.859375 10.476562 44.332031 10.101562 Z M 39.5 7.5 C 39.5 6.121094 40.621094 5 42 5 C 43.378906 5 44.5 6.121094 44.5 7.5 C 44.5 8.878906 43.378906 10 42 10 C 40.621094 10 39.5 8.878906 39.5 7.5 Z M 46 15.5 L 38 15.5 L 38 13.5 C 38 12.121094 39.121094 11 40.5 11 L 43.5 11 C 44.878906 11 46 12.121094 46 13.5 Z M 46 15.5 "/>
<path style=" stroke:none;fill-rule:nonzero;fill:rgb(0%,0%,0%);fill-opacity:1;" d="M 12.5 21 C 11.671875 21 11 21.671875 11 22.5 C 11 23.328125 11.671875 24 12.5 24 C 13.328125 24 14 23.328125 14 22.5 C 14 21.671875 13.328125 21 12.5 21 Z M 12.5 23 C 12.222656 23 12 22.777344 12 22.5 C 12 22.222656 12.222656 22 12.5 22 C 12.777344 22 13 22.222656 13 22.5 C 13 22.777344 12.777344 23 12.5 23 Z M 12.5 23 "/>
<path style=" stroke:none;fill-rule:nonzero;fill:rgb(0%,0%,0%);fill-opacity:1;" d="M 24.5 21 C 23.671875 21 23 21.671875 23 22.5 C 23 23.328125 23.671875 24 24.5 24 C 25.328125 24 26 23.328125 26 22.5 C 26 21.671875 25.328125 21 24.5 21 Z M 24.5 23 C 24.222656 23 24 22.777344 24 22.5 C 24 22.222656 24.222656 22 24.5 22 C 24.777344 22 25 22.222656 25 22.5 C 25 22.777344 24.777344 23 24.5 23 Z M 24.5 23 "/>
<path style=" stroke:none;fill-rule:nonzero;fill:rgb(0%,0%,0%);fill-opacity:1;" d="M 6.5 21 C 5.671875 21 5 21.671875 5 22.5 C 5 23.328125 5.671875 24 6.5 24 C 7.328125 24 8 23.328125 8 22.5 C 8 21.671875 7.328125 21 6.5 21 Z M 6.5 23 C 6.222656 23 6 22.777344 6 22.5 C 6 22.222656 6.222656 22 6.5 22 C 6.777344 22 7 22.222656 7 22.5 C 7 22.777344 6.777344 23 6.5 23 Z M 6.5 23 "/>
<path style=" stroke:none;fill-rule:nonzero;fill:rgb(0%,0%,0%);fill-opacity:1;" d="M 22.5 15 L 24.5 15 C 24.777344 15 25 14.777344 25 14.5 C 25 14.222656 24.777344 14 24.5 14 L 22.5 14 C 22.222656 14 22 14.222656 22 14.5 C 22 14.777344 22.222656 15 22.5 15 Z M 22.5 15 "/>
<path style=" stroke:none;fill-rule:nonzero;fill:rgb(0%,0%,0%);fill-opacity:1;" d="M 46.5 37.5 L 38 37.5 C 37.722656 37.5 37.5 37.722656 37.5 38 L 37.5 46 L 21 46 L 21 36.207031 L 23.5 33.707031 L 23.5 36 C 23.5 36.203125 23.621094 36.386719 23.808594 36.460938 C 23.996094 36.539062 24.210938 36.496094 24.351562 36.351562 L 27 33.707031 L 27 36 C 27 36.203125 27.121094 36.386719 27.308594 36.460938 C 27.496094 36.539062 27.710938 36.496094 27.851562 36.351562 L 30.5 33.707031 L 30.5 36 C 30.5 36.203125 30.621094 36.386719 30.808594 36.460938 C 30.996094 36.539062 31.210938 36.496094 31.351562 36.351562 L 34 33.707031 L 34 36 C 34 36.203125 34.121094 36.386719 34.308594 36.460938 C 34.496094 36.539062 34.710938 36.496094 34.851562 36.351562 L 36.851562 34.355469 L 37.5 33.707031 L 37.5 36 C 37.5 36.277344 37.722656 36.5 38 36.5 C 38.277344 36.5 38.5 36.277344 38.5 36 L 38.5 32.5 C 38.5 32.296875 38.378906 32.113281 38.191406 32.039062 C 38.003906 31.960938 37.789062 32.003906 37.648438 32.148438 L 37 32.792969 L 37 24.5 C 37 24.222656 36.777344 24 36.5 24 L 34.5 24 C 34.222656 24 34 24.222656 34 24.5 L 34 32.292969 L 31.5 34.792969 L 31.5 32.5 C 31.5 32.296875 31.378906 32.113281 31.191406 32.039062 C 31.003906 31.960938 30.789062 32.003906 30.648438 32.148438 L 28 34.792969 L 28 32.5 C 28 32.296875 27.878906 32.113281 27.691406 32.039062 C 27.503906 31.960938 27.289062 32.003906 27.148438 32.148438 L 24.5 34.792969 L 24.5 32.5 C 24.5 32.296875 24.378906 32.113281 24.191406 32.039062 C 24.003906 31.960938 23.789062 32.003906 23.648438 32.148438 L 20.148438 35.648438 C 20.054688 35.738281 20 35.867188 20 36 L 20 46 L 18.5 46 L 18.5 43.5 C 18.5 43.222656 18.277344 43 18 43 L 15 43 C 14.722656 43 14.5 43.222656 14.5 43.5 L 14.5 46 L 13 46 L 13 30 L 20 30 L 20 33.5 C 20 33.777344 20.222656 34 20.5 34 C 20.777344 34 21 33.777344 21 33.5 L 21 29.5 C 21 29.222656 20.777344 29 20.5 29 L 12.5 29 C 12.222656 29 12 29.222656 12 29.5 L 12 34 L 7 34 C 6.722656 34 6.5 34.222656 6.5 34.5 L 6.5 46 L 4 46 L 4 44.433594 C 4.4375 44.324219 4.824219 44.070312 5.101562 43.699219 C 5.488281 43.191406 5.605469 42.550781 5.429688 41.941406 L 3.980469 36.863281 C 3.917969 36.648438 3.722656 36.5 3.5 36.5 C 3.277344 36.5 3.082031 36.648438 3.019531 36.863281 L 1.570312 41.941406 C 1.394531 42.550781 1.511719 43.191406 1.898438 43.699219 C 2.175781 44.070312 2.566406 44.324219 3 44.433594 L 3 46 L 1.5 46 C 1.222656 46 1 46.222656 1 46.5 C 1 46.777344 1.222656 47 1.5 47 L 46.5 47 C 46.777344 47 47 46.777344 47 46.5 L 47 38 C 47 37.722656 46.777344 37.5 46.5 37.5 Z M 35 25 L 36 25 L 36 33.792969 L 35 34.792969 Z M 2.695312 43.097656 C 2.503906 42.84375 2.441406 42.523438 2.53125 42.214844 L 3.5 38.820312 L 4.46875 42.214844 C 4.558594 42.523438 4.496094 42.84375 4.304688 43.097656 C 3.921875 43.609375 3.078125 43.609375 2.695312 43.097656 Z M 12 46 L 7.5 46 L 7.5 35 L 12 35 Z M 17.5 46 L 15.5 46 L 15.5 44 L 17.5 44 Z M 43 46 L 41.5 46 L 41.5 44.5 L 43 44.5 Z M 46 46 L 44 46 L 44 44.5 L 44.5 44.5 C 44.777344 44.5 45 44.277344 45 44 C 45 43.722656 44.777344 43.5 44.5 43.5 L 40 43.5 C 39.722656 43.5 39.5 43.722656 39.5 44 C 39.5 44.277344 39.722656 44.5 40 44.5 L 40.5 44.5 L 40.5 46 L 38.5 46 L 38.5 38.5 L 46 38.5 Z M 46 46 "/>
<path style=" stroke:none;fill-rule:nonzero;fill:rgb(0%,0%,0%);fill-opacity:1;" d="M 23 38.5 L 22.5 38.5 C 22.222656 38.5 22 38.722656 22 39 C 22 39.277344 22.222656 39.5 22.5 39.5 L 23 39.5 C 23.277344 39.5 23.5 39.277344 23.5 39 C 23.5 38.722656 23.277344 38.5 23 38.5 Z M 23 38.5 "/>
<path style=" stroke:none;fill-rule:nonzero;fill:rgb(0%,0%,0%);fill-opacity:1;" d="M 25.5 38.5 L 25 38.5 C 24.722656 38.5 24.5 38.722656 24.5 39 C 24.5 39.277344 24.722656 39.5 25 39.5 L 25.5 39.5 C 25.777344 39.5 26 39.277344 26 39 C 26 38.722656 25.777344 38.5 25.5 38.5 Z M 25.5 38.5 "/>
<path style=" stroke:none;fill-rule:nonzero;fill:rgb(0%,0%,0%);fill-opacity:1;" d="M 28 38.5 L 27.5 38.5 C 27.222656 38.5 27 38.722656 27 39 C 27 39.277344 27.222656 39.5 27.5 39.5 L 28 39.5 C 28.277344 39.5 28.5 39.277344 28.5 39 C 28.5 38.722656 28.277344 38.5 28 38.5 Z M 28 38.5 "/>
<path style=" stroke:none;fill-rule:nonzero;fill:rgb(0%,0%,0%);fill-opacity:1;" d="M 30.5 38.5 L 30 38.5 C 29.722656 38.5 29.5 38.722656 29.5 39 C 29.5 39.277344 29.722656 39.5 30 39.5 L 30.5 39.5 C 30.777344 39.5 31 39.277344 31 39 C 31 38.722656 30.777344 38.5 30.5 38.5 Z M 30.5 38.5 "/>
<path style=" stroke:none;fill-rule:nonzero;fill:rgb(0%,0%,0%);fill-opacity:1;" d="M 33 38.5 L 32.5 38.5 C 32.222656 38.5 32 38.722656 32 39 C 32 39.277344 32.222656 39.5 32.5 39.5 L 33 39.5 C 33.277344 39.5 33.5 39.277344 33.5 39 C 33.5 38.722656 33.277344 38.5 33 38.5 Z M 33 38.5 "/>
<path style=" stroke:none;fill-rule:nonzero;fill:rgb(0%,0%,0%);fill-opacity:1;" d="M 35.5 38.5 L 35 38.5 C 34.722656 38.5 34.5 38.722656 34.5 39 C 34.5 39.277344 34.722656 39.5 35 39.5 L 35.5 39.5 C 35.777344 39.5 36 39.277344 36 39 C 36 38.722656 35.777344 38.5 35.5 38.5 Z M 35.5 38.5 "/>
<path style=" stroke:none;fill-rule:nonzero;fill:rgb(0%,0%,0%);fill-opacity:1;" d="M 23 40.5 L 22.5 40.5 C 22.222656 40.5 22 40.722656 22 41 C 22 41.277344 22.222656 41.5 22.5 41.5 L 23 41.5 C 23.277344 41.5 23.5 41.277344 23.5 41 C 23.5 40.722656 23.277344 40.5 23 40.5 Z M 23 40.5 "/>
<path style=" stroke:none;fill-rule:nonzero;fill:rgb(0%,0%,0%);fill-opacity:1;" d="M 25.5 40.5 L 25 40.5 C 24.722656 40.5 24.5 40.722656 24.5 41 C 24.5 41.277344 24.722656 41.5 25 41.5 L 25.5 41.5 C 25.777344 41.5 26 41.277344 26 41 C 26 40.722656 25.777344 40.5 25.5 40.5 Z M 25.5 40.5 "/>
<path style=" stroke:none;fill-rule:nonzero;fill:rgb(0%,0%,0%);fill-opacity:1;" d="M 28 40.5 L 27.5 40.5 C 27.222656 40.5 27 40.722656 27 41 C 27 41.277344 27.222656 41.5 27.5 41.5 L 28 41.5 C 28.277344 41.5 28.5 41.277344 28.5 41 C 28.5 40.722656 28.277344 40.5 28 40.5 Z M 28 40.5 "/>
<path style=" stroke:none;fill-rule:nonzero;fill:rgb(0%,0%,0%);fill-opacity:1;" d="M 30.5 40.5 L 30 40.5 C 29.722656 40.5 29.5 40.722656 29.5 41 C 29.5 41.277344 29.722656 41.5 30 41.5 L 30.5 41.5 C 30.777344 41.5 31 41.277344 31 41 C 31 40.722656 30.777344 40.5 30.5 40.5 Z M 30.5 40.5 "/>
<path style=" stroke:none;fill-rule:nonzero;fill:rgb(0%,0%,0%);fill-opacity:1;" d="M 33 40.5 L 32.5 40.5 C 32.222656 40.5 32 40.722656 32 41 C 32 41.277344 32.222656 41.5 32.5 41.5 L 33 41.5 C 33.277344 41.5 33.5 41.277344 33.5 41 C 33.5 40.722656 33.277344 40.5 33 40.5 Z M 33 40.5 "/>
<path style=" stroke:none;fill-rule:nonzero;fill:rgb(0%,0%,0%);fill-opacity:1;" d="M 35.5 40.5 L 35 40.5 C 34.722656 40.5 34.5 40.722656 34.5 41 C 34.5 41.277344 34.722656 41.5 35 41.5 L 35.5 41.5 C 35.777344 41.5 36 41.277344 36 41 C 36 40.722656 35.777344 40.5 35.5 40.5 Z M 35.5 40.5 "/>
<path style=" stroke:none;fill-rule:nonzero;fill:rgb(0%,0%,0%);fill-opacity:1;" d="M 23 42.5 L 22.5 42.5 C 22.222656 42.5 22 42.722656 22 43 C 22 43.277344 22.222656 43.5 22.5 43.5 L 23 43.5 C 23.277344 43.5 23.5 43.277344 23.5 43 C 23.5 42.722656 23.277344 42.5 23 42.5 Z M 23 42.5 "/>
<path style=" stroke:none;fill-rule:nonzero;fill:rgb(0%,0%,0%);fill-opacity:1;" d="M 25.5 42.5 L 25 42.5 C 24.722656 42.5 24.5 42.722656 24.5 43 C 24.5 43.277344 24.722656 43.5 25 43.5 L 25.5 43.5 C 25.777344 43.5 26 43.277344 26 43 C 26 42.722656 25.777344 42.5 25.5 42.5 Z M 25.5 42.5 "/>
<path style=" stroke:none;fill-rule:nonzero;fill:rgb(0%,0%,0%);fill-opacity:1;" d="M 28 42.5 L 27.5 42.5 C 27.222656 42.5 27 42.722656 27 43 C 27 43.277344 27.222656 43.5 27.5 43.5 L 28 43.5 C 28.277344 43.5 28.5 43.277344 28.5 43 C 28.5 42.722656 28.277344 42.5 28 42.5 Z M 28 42.5 "/>
<path style=" stroke:none;fill-rule:nonzero;fill:rgb(0%,0%,0%);fill-opacity:1;" d="M 15.5 31.5 L 15 31.5 C 14.722656 31.5 14.5 31.722656 14.5 32 C 14.5 32.277344 14.722656 32.5 15 32.5 L 15.5 32.5 C 15.777344 32.5 16 32.277344 16 32 C 16 31.722656 15.777344 31.5 15.5 31.5 Z M 15.5 31.5 "/>
<path style=" stroke:none;fill-rule:nonzero;fill:rgb(0%,0%,0%);fill-opacity:1;" d="M 18 31.5 L 17.5 31.5 C 17.222656 31.5 17 31.722656 17 32 C 17 32.277344 17.222656 32.5 17.5 32.5 L 18 32.5 C 18.277344 32.5 18.5 32.277344 18.5 32 C 18.5 31.722656 18.277344 31.5 18 31.5 Z M 18 31.5 "/>
<path style=" stroke:none;fill-rule:nonzero;fill:rgb(0%,0%,0%);fill-opacity:1;" d="M 15.5 33.5 L 15 33.5 C 14.722656 33.5 14.5 33.722656 14.5 34 C 14.5 34.277344 14.722656 34.5 15 34.5 L 15.5 34.5 C 15.777344 34.5 16 34.277344 16 34 C 16 33.722656 15.777344 33.5 15.5 33.5 Z M 15.5 33.5 "/>
<path style=" stroke:none;fill-rule:nonzero;fill:rgb(0%,0%,0%);fill-opacity:1;" d="M 18 33.5 L 17.5 33.5 C 17.222656 33.5 17 33.722656 17 34 C 17 34.277344 17.222656 34.5 17.5 34.5 L 18 34.5 C 18.277344 34.5 18.5 34.277344 18.5 34 C 18.5 33.722656 18.277344 33.5 18 33.5 Z M 18 33.5 "/>
<path style=" stroke:none;fill-rule:nonzero;fill:rgb(0%,0%,0%);fill-opacity:1;" d="M 15.5 35.5 L 15 35.5 C 14.722656 35.5 14.5 35.722656 14.5 36 C 14.5 36.277344 14.722656 36.5 15 36.5 L 15.5 36.5 C 15.777344 36.5 16 36.277344 16 36 C 16 35.722656 15.777344 35.5 15.5 35.5 Z M 15.5 35.5 "/>
<path style=" stroke:none;fill-rule:nonzero;fill:rgb(0%,0%,0%);fill-opacity:1;" d="M 9 37 L 10.5 37 C 10.777344 37 11 36.777344 11 36.5 C 11 36.222656 10.777344 36 10.5 36 L 9 36 C 8.722656 36 8.5 36.222656 8.5 36.5 C 8.5 36.777344 8.722656 37 9 37 Z M 9 37 "/>
<path style=" stroke:none;fill-rule:nonzero;fill:rgb(0%,0%,0%);fill-opacity:1;" d="M 9 39 L 10.5 39 C 10.777344 39 11 38.777344 11 38.5 C 11 38.222656 10.777344 38 10.5 38 L 9 38 C 8.722656 38 8.5 38.222656 8.5 38.5 C 8.5 38.777344 8.722656 39 9 39 Z M 9 39 "/>
<path style=" stroke:none;fill-rule:nonzero;fill:rgb(0%,0%,0%);fill-opacity:1;" d="M 9 41 L 10.5 41 C 10.777344 41 11 40.777344 11 40.5 C 11 40.222656 10.777344 40 10.5 40 L 9 40 C 8.722656 40 8.5 40.222656 8.5 40.5 C 8.5 40.777344 8.722656 41 9 41 Z M 9 41 "/>
<path style=" stroke:none;fill-rule:nonzero;fill:rgb(0%,0%,0%);fill-opacity:1;" d="M 9 43 L 10.5 43 C 10.777344 43 11 42.777344 11 42.5 C 11 42.222656 10.777344 42 10.5 42 L 9 42 C 8.722656 42 8.5 42.222656 8.5 42.5 C 8.5 42.777344 8.722656 43 9 43 Z M 9 43 "/>
<path style=" stroke:none;fill-rule:nonzero;fill:rgb(0%,0%,0%);fill-opacity:1;" d="M 9 45 L 10.5 45 C 10.777344 45 11 44.777344 11 44.5 C 11 44.222656 10.777344 44 10.5 44 L 9 44 C 8.722656 44 8.5 44.222656 8.5 44.5 C 8.5 44.777344 8.722656 45 9 45 Z M 9 45 "/>
<path style=" stroke:none;fill-rule:nonzero;fill:rgb(0%,0%,0%);fill-opacity:1;" d="M 18 35.5 L 17.5 35.5 C 17.222656 35.5 17 35.722656 17 36 C 17 36.277344 17.222656 36.5 17.5 36.5 L 18 36.5 C 18.277344 36.5 18.5 36.277344 18.5 36 C 18.5 35.722656 18.277344 35.5 18 35.5 Z M 18 35.5 "/>
<path style=" stroke:none;fill-rule:nonzero;fill:rgb(0%,0%,0%);fill-opacity:1;" d="M 15.5 37.5 L 15 37.5 C 14.722656 37.5 14.5 37.722656 14.5 38 C 14.5 38.277344 14.722656 38.5 15 38.5 L 15.5 38.5 C 15.777344 38.5 16 38.277344 16 38 C 16 37.722656 15.777344 37.5 15.5 37.5 Z M 15.5 37.5 "/>
<path style=" stroke:none;fill-rule:nonzero;fill:rgb(0%,0%,0%);fill-opacity:1;" d="M 18 37.5 L 17.5 37.5 C 17.222656 37.5 17 37.722656 17 38 C 17 38.277344 17.222656 38.5 17.5 38.5 L 18 38.5 C 18.277344 38.5 18.5 38.277344 18.5 38 C 18.5 37.722656 18.277344 37.5 18 37.5 Z M 18 37.5 "/>
<path style=" stroke:none;fill-rule:nonzero;fill:rgb(0%,0%,0%);fill-opacity:1;" d="M 15.5 39.5 L 15 39.5 C 14.722656 39.5 14.5 39.722656 14.5 40 C 14.5 40.277344 14.722656 40.5 15 40.5 L 15.5 40.5 C 15.777344 40.5 16 40.277344 16 40 C 16 39.722656 15.777344 39.5 15.5 39.5 Z M 15.5 39.5 "/>
<path style=" stroke:none;fill-rule:nonzero;fill:rgb(0%,0%,0%);fill-opacity:1;" d="M 18 39.5 L 17.5 39.5 C 17.222656 39.5 17 39.722656 17 40 C 17 40.277344 17.222656 40.5 17.5 40.5 L 18 40.5 C 18.277344 40.5 18.5 40.277344 18.5 40 C 18.5 39.722656 18.277344 39.5 18 39.5 Z M 18 39.5 "/>
<path style=" stroke:none;fill-rule:nonzero;fill:rgb(0%,0%,0%);fill-opacity:1;" d="M 30.5 42.5 L 30 42.5 C 29.722656 42.5 29.5 42.722656 29.5 43 C 29.5 43.277344 29.722656 43.5 30 43.5 L 30.5 43.5 C 30.777344 43.5 31 43.277344 31 43 C 31 42.722656 30.777344 42.5 30.5 42.5 Z M 30.5 42.5 "/>
<path style=" stroke:none;fill-rule:nonzero;fill:rgb(0%,0%,0%);fill-opacity:1;" d="M 33 42.5 L 32.5 42.5 C 32.222656 42.5 32 42.722656 32 43 C 32 43.277344 32.222656 43.5 32.5 43.5 L 33 43.5 C 33.277344 43.5 33.5 43.277344 33.5 43 C 33.5 42.722656 33.277344 42.5 33 42.5 Z M 33 42.5 "/>
<path style=" stroke:none;fill-rule:nonzero;fill:rgb(0%,0%,0%);fill-opacity:1;" d="M 35.5 42.5 L 35 42.5 C 34.722656 42.5 34.5 42.722656 34.5 43 C 34.5 43.277344 34.722656 43.5 35 43.5 L 35.5 43.5 C 35.777344 43.5 36 43.277344 36 43 C 36 42.722656 35.777344 42.5 35.5 42.5 Z M 35.5 42.5 "/>
<path style=" stroke:none;fill-rule:nonzero;fill:rgb(0%,0%,0%);fill-opacity:1;" d="M 40 40.5 L 44.5 40.5 C 44.777344 40.5 45 40.277344 45 40 C 45 39.722656 44.777344 39.5 44.5 39.5 L 40 39.5 C 39.722656 39.5 39.5 39.722656 39.5 40 C 39.5 40.277344 39.722656 40.5 40 40.5 Z M 40 40.5 "/>
<path style=" stroke:none;fill-rule:nonzero;fill:rgb(0%,0%,0%);fill-opacity:1;" d="M 40 42.5 L 44.5 42.5 C 44.777344 42.5 45 42.277344 45 42 C 45 41.722656 44.777344 41.5 44.5 41.5 L 40 41.5 C 39.722656 41.5 39.5 41.722656 39.5 42 C 39.5 42.277344 39.722656 42.5 40 42.5 Z M 40 42.5 "/>
<path style=" stroke:none;fill-rule:nonzero;fill:rgb(0%,0%,0%);fill-opacity:1;" d="M 8.5 31.5 C 8.222656 31.5 8 31.722656 8 32 L 8 32.5 C 8 32.777344 8.222656 33 8.5 33 C 8.777344 33 9 32.777344 9 32.5 L 9 32 C 9 31.722656 8.777344 31.5 8.5 31.5 Z M 8.5 31.5 "/>
<path style=" stroke:none;fill-rule:nonzero;fill:rgb(0%,0%,0%);fill-opacity:1;" d="M 9 29.5 C 9 29.222656 8.777344 29 8.5 29 C 8.222656 29 8 29.222656 8 29.5 L 8 30 C 8 30.277344 8.222656 30.5 8.5 30.5 C 8.777344 30.5 9 30.277344 9 30 Z M 9 29.5 "/>
<path style=" stroke:none;fill-rule:nonzero;fill:rgb(0%,0%,0%);fill-opacity:1;" d="M 9 27 C 9 26.722656 8.777344 26.5 8.5 26.5 C 8.222656 26.5 8 26.722656 8 27 L 8 27.5 C 8 27.777344 8.222656 28 8.5 28 C 8.777344 28 9 27.777344 9 27.5 Z M 9 27 "/>
<path style=" stroke:none;fill-rule:nonzero;fill:rgb(0%,0%,0%);fill-opacity:1;" d="M 37 7 C 37.277344 7 37.5 6.777344 37.5 6.5 C 37.5 6.222656 37.277344 6 37 6 L 36.5 6 C 36.222656 6 36 6.222656 36 6.5 C 36 6.777344 36.222656 7 36.5 7 Z M 37 7 "/>
<path style=" stroke:none;fill-rule:nonzero;fill:rgb(0%,0%,0%);fill-opacity:1;" d="M 34.5 7 C 34.777344 7 35 6.777344 35 6.5 C 35 6.222656 34.777344 6 34.5 6 L 34 6 C 33.722656 6 33.5 6.222656 33.5 6.5 C 33.5 6.777344 33.722656 7 34 7 Z M 34.5 7 "/>
<path style=" stroke:none;fill-rule:nonzero;fill:rgb(0%,0%,0%);fill-opacity:1;" d="M 32 7 C 32.277344 7 32.5 6.777344 32.5 6.5 C 32.5 6.222656 32.277344 6 32 6 L 31.5 6 C 31.222656 6 31 6.222656 31 6.5 C 31 6.777344 31.222656 7 31.5 7 Z M 32 7 "/>
<path style=" stroke:none;fill-rule:nonzero;fill:rgb(0%,0%,0%);fill-opacity:1;" d="M 29.5 7 C 29.777344 7 30 6.777344 30 6.5 C 30 6.222656 29.777344 6 29.5 6 L 29 6 C 28.722656 6 28.5 6.222656 28.5 6.5 C 28.5 6.777344 28.722656 7 29 7 Z M 29.5 7 "/>
<path style=" stroke:none;fill-rule:nonzero;fill:rgb(0%,0%,0%);fill-opacity:1;" d="M 42 36 C 42 36.277344 42.222656 36.5 42.5 36.5 C 42.777344 36.5 43 36.277344 43 36 L 43 35.5 C 43 35.222656 42.777344 35 42.5 35 C 42.222656 35 42 35.222656 42 35.5 Z M 42 36 "/>
<path style=" stroke:none;fill-rule:nonzero;fill:rgb(0%,0%,0%);fill-opacity:1;" d="M 42 33.5 C 42 33.777344 42.222656 34 42.5 34 C 42.777344 34 43 33.777344 43 33.5 L 43 33 C 43 32.722656 42.777344 32.5 42.5 32.5 C 42.222656 32.5 42 32.722656 42 33 Z M 42 33.5 "/>
<path style=" stroke:none;fill-rule:nonzero;fill:rgb(0%,0%,0%);fill-opacity:1;" d="M 42 31 C 42 31.277344 42.222656 31.5 42.5 31.5 C 42.777344 31.5 43 31.277344 43 31 L 43 30.5 C 43 30.222656 42.777344 30 42.5 30 C 42.222656 30 42 30.222656 42 30.5 Z M 42 31 "/>
<path style=" stroke:none;fill-rule:nonzero;fill:rgb(0%,0%,0%);fill-opacity:1;" d="M 42 28.5 C 42 28.777344 42.222656 29 42.5 29 C 42.777344 29 43 28.777344 43 28.5 L 43 28 C 43 27.722656 42.777344 27.5 42.5 27.5 C 42.222656 27.5 42 27.722656 42 28 Z M 42 28.5 "/>
<path style=" stroke:none;fill-rule:nonzero;fill:rgb(0%,0%,0%);fill-opacity:1;" d="M 42 26 C 42 26.277344 42.222656 26.5 42.5 26.5 C 42.777344 26.5 43 26.277344 43 26 L 43 25.5 C 43 25.222656 42.777344 25 42.5 25 C 42.222656 25 42 25.222656 42 25.5 Z M 42 26 "/>
<path style=" stroke:none;fill-rule:nonzero;fill:rgb(0%,0%,0%);fill-opacity:1;" d="M 42 23.5 C 42 23.777344 42.222656 24 42.5 24 C 42.777344 24 43 23.777344 43 23.5 L 43 23 C 43 22.722656 42.777344 22.5 42.5 22.5 C 42.222656 22.5 42 22.722656 42 23 Z M 42 23.5 "/>
<path style=" stroke:none;fill-rule:nonzero;fill:rgb(0%,0%,0%);fill-opacity:1;" d="M 42 21 C 42 21.277344 42.222656 21.5 42.5 21.5 C 42.777344 21.5 43 21.277344 43 21 L 43 20.5 C 43 20.222656 42.777344 20 42.5 20 C 42.222656 20 42 20.222656 42 20.5 Z M 42 21 "/>
<path style=" stroke:none;fill-rule:nonzero;fill:rgb(0%,0%,0%);fill-opacity:1;" d="M 42.5 19 C 42.777344 19 43 18.777344 43 18.5 L 43 18 C 43 17.722656 42.777344 17.5 42.5 17.5 C 42.222656 17.5 42 17.722656 42 18 L 42 18.5 C 42 18.777344 42.222656 19 42.5 19 Z M 42.5 19 "/>
</g>
</svg>
