<?xml version="1.0" encoding="UTF-8"?>
<svg xmlns="http://www.w3.org/2000/svg" xmlns:xlink="http://www.w3.org/1999/xlink" width="450px" height="447px"
     viewBox="0 0 449 447" version="1.1">
    <g id="surface1">
        <path style=" stroke:none;fill-rule:nonzero;fill:rgb(80%,91.372549%,100%);fill-opacity:1;"
              d="M 39.339844 111.6875 C 78.25 61.808594 136.140625 34.671875 199.035156 33.855469 C 230.035156 33.445312 263.570312 40.710938 290.933594 55.328125 C 321.003906 71.390625 345.847656 99.558594 351.890625 133.113281 C 356.0625 156.214844 357.613281 175.429688 370.59375 195.828125 C 381.101562 212.34375 403.78125 225.886719 407.972656 245.570312 C 412.960938 269.003906 378.964844 293.714844 362.410156 303.269531 C 280.996094 384.703125 247.320312 386.765625 187.328125 378.332031 C 154.894531 373.757812 118.765625 319.320312 94.128906 296.390625 C 82.75 285.8125 74.066406 271.839844 70.570312 256.621094 C 67.074219 241.402344 72.261719 222.867188 62.890625 209.121094 C 56.925781 200.363281 46.074219 196.65625 37.742188 190.171875 C 9.066406 167.839844 18.683594 138.128906 39.339844 111.6875 Z M 39.339844 111.6875 "/>
        <path style=" stroke:none;fill-rule:nonzero;fill:rgb(96.862745%,96.862745%,96.862745%);fill-opacity:1;"
              d="M 291.242188 0.175781 L 413.386719 0.175781 C 414.5 0.175781 415.402344 1.078125 415.402344 2.191406 L 415.402344 88.117188 C 415.402344 89.230469 414.5 90.132812 413.386719 90.132812 L 291.242188 90.132812 C 290.128906 90.132812 289.226562 89.230469 289.226562 88.117188 L 289.226562 2.191406 C 289.226562 1.078125 290.128906 0.175781 291.242188 0.175781 Z M 291.242188 0.175781 "/>
        <path style=" stroke:none;fill-rule:nonzero;fill:rgb(4.313725%,28.235294%,43.921569%);fill-opacity:1;"
              d="M 380.671875 46.476562 L 402.566406 46.476562 C 402.996094 46.476562 403.34375 46.820312 403.34375 47.25 L 403.34375 51.949219 C 403.34375 52.378906 402.996094 52.726562 402.566406 52.726562 L 380.671875 52.726562 C 380.246094 52.726562 379.898438 52.378906 379.898438 51.949219 L 379.898438 47.25 C 379.898438 46.820312 380.246094 46.476562 380.671875 46.476562 Z M 380.671875 46.476562 "/>
        <path style=" stroke:none;fill-rule:nonzero;fill:rgb(16.470588%,58.039216%,95.686275%);fill-opacity:1;"
              d="M 380.671875 58.179688 L 402.566406 58.179688 C 402.996094 58.179688 403.34375 58.523438 403.34375 58.953125 L 403.34375 63.652344 C 403.34375 64.082031 402.996094 64.429688 402.566406 64.429688 L 380.671875 64.429688 C 380.246094 64.429688 379.898438 64.082031 379.898438 63.652344 L 379.898438 58.953125 C 379.898438 58.523438 380.246094 58.179688 380.671875 58.179688 Z M 380.671875 58.179688 "/>
        <path style=" stroke:none;fill-rule:nonzero;fill:rgb(100%,74.509804%,33.333333%);fill-opacity:1;"
              d="M 380.671875 72.328125 L 402.566406 72.328125 C 402.996094 72.328125 403.34375 72.582031 403.34375 72.894531 L 403.34375 76.308594 C 403.34375 76.617188 402.996094 76.867188 402.566406 76.867188 L 380.671875 76.867188 C 380.246094 76.867188 379.898438 76.617188 379.898438 76.308594 L 379.898438 72.894531 C 379.898438 72.582031 380.246094 72.328125 380.671875 72.328125 Z M 368.582031 32.53125 C 362.171875 14.425781 342.3125 4.929688 324.195312 11.300781 C 306.078125 17.671875 296.535156 37.503906 302.863281 55.636719 C 302.90625 55.757812 302.945312 55.875 302.992188 55.992188 C 303.257812 56.726562 303.542969 57.449219 303.851562 58.164062 C 311.445312 75.222656 331.140625 83.257812 348.5 76.382812 C 365.859375 69.503906 374.710938 50.160156 368.5625 32.53125 Z M 344.582031 68.847656 C 331.640625 73.488281 317.316406 67.292969 311.835938 54.679688 C 311.609375 54.175781 311.394531 53.609375 311.191406 53.054688 C 306.335938 39.472656 313.40625 24.527344 326.984375 19.667969 C 340.566406 14.808594 355.511719 21.878906 360.371094 35.460938 C 365.230469 49.039062 358.160156 63.988281 344.582031 68.847656 Z M 344.582031 68.847656 "/>
        <path style=" stroke:none;fill-rule:nonzero;fill:rgb(4.313725%,28.235294%,43.921569%);fill-opacity:1;"
              d="M 310.828125 36.480469 L 302.515625 33.878906 C 306.957031 19.707031 319.878906 9.898438 334.722656 9.4375 L 334.984375 18.152344 C 323.851562 18.492188 314.15625 25.851562 310.828125 36.480469 Z M 310.828125 36.480469 "/>
        <path style=" stroke:none;fill-rule:nonzero;fill:rgb(16.470588%,58.039216%,95.686275%);fill-opacity:1;"
              d="M 311.835938 54.679688 L 303.835938 58.164062 C 303.53125 57.453125 303.242188 56.730469 302.976562 55.992188 C 300.414062 48.867188 300.257812 41.101562 302.523438 33.878906 L 310.828125 36.480469 C 309.128906 41.894531 309.25 47.714844 311.167969 53.054688 C 311.378906 53.609375 311.59375 54.152344 311.835938 54.679688 Z M 311.835938 54.679688 "/>
        <path style=" stroke:none;fill-rule:nonzero;fill:rgb(98.823529%,82.352941%,69.411765%);fill-opacity:1;"
              d="M 347.394531 64.917969 C 347.394531 64.917969 345.707031 61.964844 348.402344 54.050781 C 350.992188 46.398438 359.949219 47.09375 362.792969 51.996094 C 365.640625 56.898438 364.679688 59.945312 360.488281 65.476562 C 356.296875 71.007812 349.117188 67.46875 347.394531 64.917969 Z M 368.199219 202.066406 C 368.199219 202.066406 368.644531 205.316406 368.703125 205.804688 C 368.765625 206.292969 373.636719 205.515625 373.636719 205.515625 L 374.027344 201.648438 C 374.027344 201.648438 368.808594 201.609375 368.199219 202.066406 Z M 368.199219 202.066406 "/>
        <path style=" stroke:none;fill-rule:nonzero;fill:rgb(4.313725%,28.235294%,43.921569%);fill-opacity:1;"
              d="M 368.644531 205.390625 C 368.644531 205.390625 367.101562 207.351562 365.621094 208.203125 C 364.140625 209.054688 361.78125 209.390625 360.894531 210.277344 C 360.261719 210.914062 358.574219 213.660156 364.777344 213.601562 C 370.984375 213.546875 373.976562 213.992188 374.644531 212.941406 C 375.308594 211.894531 373.679688 205.167969 373.679688 205.167969 C 373.679688 205.167969 372.144531 205.597656 368.644531 205.390625 Z M 366.558594 120.144531 C 366.558594 120.144531 369.074219 127.90625 368.726562 134.601562 C 368.378906 141.296875 370.019531 148.625 370.683594 155.617188 C 371.421875 163.414062 374.445312 181.867188 374.558594 186.039062 C 374.667969 190.210938 374.089844 203.53125 374.089844 203.53125 L 368.042969 203.671875 C 368.042969 203.671875 362.960938 171.429688 361.640625 168.117188 C 360.320312 164.800781 353.792969 141.347656 353.578125 138.71875 C 353.367188 136.089844 366.558594 120.144531 366.558594 120.144531 Z M 366.558594 120.144531 "/>
        <path style=" stroke:none;fill-rule:nonzero;fill:rgb(4.313725%,28.235294%,43.921569%);fill-opacity:1;"
              d="M 341.453125 119.359375 C 341.453125 119.359375 337.78125 139.898438 337.339844 143.992188 C 336.894531 148.089844 336.609375 163.824219 336.390625 166.386719 C 336.175781 168.953125 334.925781 199.894531 333.757812 203.699219 L 340.507812 203.699219 C 340.507812 203.699219 347.4375 181.199219 347.4375 170.554688 C 347.4375 159.910156 352.027344 147.414062 354.996094 140.386719 C 357.960938 133.359375 364.738281 133.199219 366.582031 120.167969 C 366.558594 120.144531 343.921875 115.203125 341.453125 119.359375 Z M 341.453125 119.359375 "/>
        <path style=" stroke:none;fill-rule:nonzero;fill:rgb(98.823529%,82.352941%,69.411765%);fill-opacity:1;"
              d="M 349.84375 67.007812 C 349.84375 67.007812 350.601562 69.226562 349.84375 70.808594 C 349.082031 72.390625 359.570312 71.4375 359.570312 71.4375 C 359.570312 71.4375 359.097656 68.167969 360.464844 65.476562 C 361.835938 62.789062 349.84375 67.007812 349.84375 67.007812 Z M 349.84375 67.007812 "/>
        <path style=" stroke:none;fill-rule:nonzero;fill:rgb(16.470588%,58.039216%,95.686275%);fill-opacity:1;"
              d="M 367.046875 121.835938 C 367.046875 121.835938 363.273438 125.710938 341.117188 121.234375 L 341.453125 119.332031 L 366.644531 120.28125 Z M 367.046875 121.835938 "/>
        <path style=" stroke:none;fill-rule:nonzero;fill:rgb(98.823529%,82.352941%,69.411765%);fill-opacity:1;"
              d="M 348.253906 71.320312 C 348.253906 71.320312 344.382812 71.714844 343.273438 71.925781 C 342.164062 72.136719 334.707031 70.589844 333.195312 70.414062 C 331.6875 70.238281 325.136719 65.789062 324.941406 65.261719 C 324.742188 64.730469 320.976562 55.226562 320.765625 53.171875 C 320.550781 51.113281 317.105469 52.164062 317.402344 53.59375 C 317.953125 56.242188 318.664062 62.660156 319.054688 64.539062 C 319.472656 66.554688 320.597656 71.089844 321.234375 71.679688 C 321.867188 72.269531 327.734375 76.71875 333.480469 78.601562 C 337.011719 79.78125 340.398438 81.359375 343.574219 83.300781 L 371.890625 83.300781 C 371.890625 83.300781 382.910156 67.558594 383.144531 65.164062 C 383.382812 62.773438 375.433594 47.027344 373.851562 45.011719 C 372.269531 43 369.984375 45.664062 369.984375 45.664062 C 369.984375 45.664062 374.722656 59.566406 375.351562 61.542969 C 375.984375 63.519531 369.8125 72.25 368.140625 72.273438 C 366.464844 72.300781 362.09375 71.746094 360.195312 71.667969 C 358.835938 71.5625 357.503906 71.25 356.238281 70.742188 Z M 348.253906 71.320312 "/>
        <path style=" stroke:none;fill-rule:nonzero;fill:rgb(16.470588%,58.039216%,95.686275%);fill-opacity:1;"
              d="M 336.0625 81.835938 C 336.0625 81.835938 339.53125 84.144531 339.847656 88.09375 C 340.269531 92.257812 341.011719 96.378906 342.0625 100.429688 C 342.691406 102.566406 341.507812 118.0625 341.347656 119.171875 C 341.1875 120.28125 363.265625 122.910156 366.652344 120.28125 C 366.652344 120.28125 367.605469 105.8125 367.996094 101.695312 C 368.390625 97.578125 370.289062 87.621094 370.925781 86.28125 C 371.558594 84.9375 379.226562 74.1875 379.542969 72.753906 C 379.542969 72.753906 375.574219 66.429688 372.726562 66.347656 C 372.726562 66.347656 368.195312 71.648438 366.734375 71.890625 C 365.273438 72.132812 356.214844 70.492188 356.214844 70.449219 C 356.214844 70.410156 355.207031 71.796875 349.984375 70.214844 C 349.984375 70.214844 343.742188 70.917969 342.722656 71.042969 C 341.496094 71.207031 332.945312 69.976562 332.945312 69.976562 C 332.945312 69.976562 329.515625 75.765625 330.113281 78.691406 Z M 336.0625 81.835938 "/>
        <path style=" stroke:none;fill-rule:nonzero;fill:rgb(98.823529%,82.352941%,69.411765%);fill-opacity:1;"
              d="M 320.949219 54.425781 C 320.949219 54.425781 320.179688 50.761719 321.113281 49.707031 C 321.640625 49.109375 322.914062 47.523438 323.03125 47.289062 C 323.148438 47.058594 324.542969 46.28125 324.542969 45.890625 C 324.542969 45.496094 323.203125 45.050781 322.023438 46.128906 C 320.84375 47.207031 320.128906 47.4375 319.664062 47.320312 C 319.203125 47.207031 318.527344 43.332031 318.472656 42.367188 C 318.417969 41.40625 318.039062 38.871094 317.464844 39.046875 C 316.890625 39.226562 316.875 40.328125 316.875 40.328125 C 316.875 40.328125 316.175781 38.402344 315.707031 38.785156 C 315.238281 39.167969 315.296875 40.097656 315.296875 40.097656 C 315.296875 40.097656 314.425781 39.019531 314.195312 39.804688 C 314.046875 40.296875 314.046875 40.824219 314.195312 41.316406 C 314.195312 41.316406 313.289062 40.8125 313.234375 42.042969 C 313.175781 43.269531 313.496094 46.847656 314.132812 48.132812 C 314.773438 49.417969 317.15625 52.765625 317.460938 54.078125 C 317.761719 55.386719 320.949219 54.425781 320.949219 54.425781 Z M 370.738281 47.992188 C 370.738281 47.992188 368.105469 43.5625 367.210938 43.164062 C 366.320312 42.765625 365.050781 42.546875 363.941406 41.753906 C 362.835938 40.964844 361.375 40.304688 361.453125 40.042969 C 361.535156 39.777344 362.835938 39.886719 364.234375 40.488281 C 365.636719 41.09375 366.25 40.800781 366.375 40.488281 C 366.5 40.175781 365.628906 37.933594 365.207031 37.410156 C 364.785156 36.886719 361.78125 33.886719 362.285156 33.410156 C 362.789062 32.9375 364.734375 34.625 365.050781 34.96875 C 365.050781 34.96875 363.496094 31.699219 364.105469 31.542969 C 364.714844 31.386719 365.839844 32.550781 365.839844 32.550781 C 365.839844 32.550781 365.710938 29.757812 368.714844 34.292969 C 368.714844 34.292969 368.082031 32.78125 369.003906 33.285156 C 369.925781 33.789062 370.824219 36.605469 371.117188 38.03125 C 371.410156 39.457031 372.71875 43.992188 373.839844 45.085938 C 374.964844 46.175781 370.738281 47.992188 370.738281 47.992188 Z M 370.738281 47.992188 "/>
        <path style=" stroke:none;fill-rule:nonzero;fill:rgb(4.313725%,28.235294%,43.921569%);fill-opacity:1;"
              d="M 360.464844 65.476562 C 360.464844 65.476562 359.082031 65.605469 356.128906 64.585938 C 353.175781 63.566406 352.957031 58.40625 352.316406 59.015625 C 351.015625 60.261719 349.796875 59.402344 349.292969 58.660156 C 349.292969 58.660156 350.734375 56.761719 350.0625 55.851562 C 349.570312 55.230469 348.976562 54.695312 348.308594 54.269531 C 346.476562 52.816406 346.921875 41.515625 359.835938 48.824219 C 370.535156 54.871094 360.464844 65.476562 360.464844 65.476562 Z M 360.464844 65.476562 "/>
        <path style=" stroke:none;fill-rule:nonzero;fill:rgb(98.823529%,82.352941%,69.411765%);fill-opacity:1;"
              d="M 349.84375 70.808594 L 350.175781 69.355469 C 350.175781 69.355469 356.21875 69.234375 359.496094 69.714844 L 359.84375 71.441406 C 359.84375 71.441406 355.628906 73.351562 349.84375 70.808594 Z M 351.328125 57.75 C 351.878906 56.835938 353.902344 56.238281 354.144531 58.800781 C 354.324219 60.816406 350.523438 62.984375 350.488281 61.125 C 350.402344 59.9375 350.695312 58.757812 351.328125 57.75 Z M 351.328125 57.75 "/>
        <path style=" stroke:none;fill-rule:nonzero;fill:rgb(16.470588%,58.039216%,95.686275%);fill-opacity:1;"
              d="M 57.136719 63.714844 C 57.136719 63.714844 55.878906 81.347656 59.328125 83.488281 C 61.492188 84.8125 70.109375 89.277344 69.851562 90.113281 C 69.597656 90.949219 64.988281 97.5625 64.988281 97.5625 C 64.988281 97.5625 48.433594 86.667969 47.902344 83.230469 C 47.398438 79.875 48.71875 57.375 50.996094 56.339844 C 52.699219 55.5625 53.597656 56.203125 55.746094 57.800781 C 58.753906 60.035156 57.136719 63.714844 57.136719 63.714844 Z M 55.214844 192.222656 L 54.632812 196.328125 C 54.558594 196.863281 48.910156 196.011719 48.910156 196.011719 L 48.453125 191.757812 C 48.453125 191.757812 54.507812 191.714844 55.214844 192.222656 Z M 55.214844 192.222656 "/>
        <path style=" stroke:none;fill-rule:nonzero;fill:rgb(5.490196%,32.54902%,54.901961%);fill-opacity:1;"
              d="M 54.695312 195.875 C 54.695312 195.875 56.488281 198.027344 58.222656 198.96875 C 59.953125 199.910156 62.679688 200.277344 63.707031 201.25 C 64.449219 201.949219 66.402344 204.96875 59.199219 204.90625 C 51.996094 204.847656 48.519531 205.335938 47.746094 204.175781 C 46.976562 203.019531 48.867188 195.613281 48.867188 195.613281 C 48.867188 195.613281 50.574219 196.246094 54.695312 195.875 Z M 54.695312 195.875 "/>
        <path style=" stroke:none;fill-rule:nonzero;fill:rgb(16.470588%,58.039216%,95.686275%);fill-opacity:1;"
              d="M 83.550781 192.222656 C 83.550781 192.222656 83.046875 195.792969 82.964844 196.328125 C 82.886719 196.863281 77.242188 196.011719 77.242188 196.011719 L 76.785156 191.757812 C 76.785156 191.757812 82.839844 191.714844 83.550781 192.222656 Z M 83.550781 192.222656 "/>
        <path style=" stroke:none;fill-rule:nonzero;fill:rgb(5.490196%,32.54902%,54.901961%);fill-opacity:1;"
              d="M 83.03125 195.875 C 83.03125 195.875 84.824219 198.027344 86.558594 198.96875 C 88.292969 199.910156 94.679688 200.6875 95.71875 201.648438 C 96.457031 202.347656 97.691406 205.175781 87.554688 204.90625 C 80.347656 204.722656 76.875 205.335938 76.101562 204.175781 C 75.324219 203.019531 77.21875 195.613281 77.21875 195.613281 C 77.21875 195.613281 78.8125 196.289062 83.03125 195.875 Z M 57.242188 100.429688 C 57.242188 100.429688 51.925781 108.882812 52.320312 116.527344 C 52.71875 124.167969 51.847656 132.324219 51.046875 140.3125 C 50.160156 149.207031 47.734375 167.722656 47.601562 172.484375 C 47.472656 177.246094 47.773438 195.152344 47.773438 195.152344 L 57.003906 195.082031 C 57.003906 195.082031 60.277344 158.902344 61.863281 155.144531 C 63.449219 151.382812 69.964844 124.203125 70.230469 121.203125 C 70.5 118.199219 57.242188 100.429688 57.242188 100.429688 Z M 57.242188 100.429688 "/>
        <path style=" stroke:none;fill-rule:nonzero;fill:rgb(5.490196%,32.54902%,54.901961%);fill-opacity:1;"
              d="M 85.25 101.558594 C 85.25 101.558594 87.351562 122.332031 87.878906 127.007812 C 88.40625 131.679688 88.050781 151.945312 88.3125 154.867188 C 88.574219 157.789062 86.542969 188.699219 86.042969 194.589844 L 75.898438 194.523438 C 75.898438 194.523438 75.199219 169.515625 75.199219 157.371094 C 75.199219 145.222656 72.085938 131.078125 68.511719 123.0625 C 64.941406 115.046875 56.765625 114.855469 54.570312 99.984375 C 54.570312 99.984375 82.277344 96.84375 85.25 101.558594 Z M 85.25 101.558594 "/>
        <path style=" stroke:none;fill-rule:nonzero;fill:rgb(98.823529%,82.352941%,69.411765%);fill-opacity:1;"
              d="M 62.867188 29.148438 C 62.867188 29.148438 69.203125 24.914062 73.65625 29.453125 C 78.109375 33.992188 80.292969 44.652344 77.078125 46.777344 C 73.863281 48.902344 68.457031 49.46875 65.882812 46.574219 C 63.308594 43.683594 60.5625 39.285156 59.890625 36.070312 C 59.214844 32.855469 61.257812 30.503906 62.867188 29.148438 Z M 62.867188 29.148438 "/>
        <path style=" stroke:none;fill-rule:nonzero;fill:rgb(98.823529%,82.352941%,69.411765%);fill-opacity:1;"
              d="M 74.941406 47.496094 C 74.941406 47.496094 74.859375 51.949219 75.351562 52.902344 C 75.839844 53.855469 66.101562 53.867188 66.101562 53.867188 C 65.582031 50.636719 64.816406 47.449219 63.808594 44.339844 C 62.3125 39.976562 74.941406 47.496094 74.941406 47.496094 Z M 74.941406 47.496094 "/>
        <path style=" stroke:none;fill-rule:nonzero;fill:rgb(100%,74.509804%,33.333333%);fill-opacity:1;"
              d="M 64.054688 44.292969 C 64.054688 44.292969 64.960938 45.21875 67.535156 44.171875 C 70.109375 43.125 72.542969 38.800781 73.550781 38.125 C 74.558594 37.453125 74.433594 36.816406 74.433594 36.816406 L 75.371094 37.671875 L 76.574219 37.457031 C 76.574219 37.457031 74.746094 34.535156 76.070312 32.851562 C 77.394531 31.167969 71.949219 22.957031 64.089844 27.976562 C 64.089844 27.976562 57.933594 31.339844 59.050781 35.027344 C 60.171875 38.714844 62.140625 42.78125 64.054688 44.292969 Z M 64.054688 44.292969 "/>
        <path style=" stroke:none;fill-rule:nonzero;fill:rgb(80%,91.372549%,100%);fill-opacity:1;"
              d="M 75.929688 52.789062 C 75.929688 52.789062 75.898438 50.972656 75.078125 50.773438 C 74.257812 50.570312 66.007812 49.804688 65.003906 50.203125 L 65.003906 52.355469 C 65.003906 52.355469 66.929688 53.539062 75.929688 52.789062 Z M 75.929688 52.789062 "/>
        <path style=" stroke:none;fill-rule:nonzero;fill:rgb(98.823529%,82.352941%,69.411765%);fill-opacity:1;"
              d="M 73.933594 35.496094 C 73.636719 34.902344 71.617188 33.480469 71.460938 35.550781 C 71.304688 37.621094 73.445312 39.839844 74.246094 39.417969 C 75.046875 38.992188 74.691406 37 73.933594 35.496094 Z M 73.933594 35.496094 "/>
        <path style=" stroke:none;fill-rule:nonzero;fill:rgb(100%,74.509804%,33.333333%);fill-opacity:1;"
              d="M 61.03125 30.238281 C 61.03125 30.238281 51.964844 32.671875 63.6875 43.925781 Z M 61.03125 30.238281 "/>
        <path style=" stroke:none;fill-rule:nonzero;fill:rgb(98.823529%,82.352941%,69.411765%);fill-opacity:1;"
              d="M 142.023438 78.433594 L 132.785156 78.355469 C 133.582031 77.886719 134.871094 77.054688 134.589844 76.671875 C 134.179688 76.132812 131.566406 77.320312 130.503906 77.433594 C 129.527344 77.527344 127.894531 77.402344 126.652344 77.855469 L 123.730469 79.101562 L 126.40625 81.574219 C 126.40625 81.574219 131.238281 82.269531 132.652344 82.363281 C 134.957031 82.53125 141.988281 79.789062 142.105469 79.371094 C 142.316406 78.625 142.023438 78.433594 142.023438 78.433594 Z M 142.023438 78.433594 "/>
        <path style=" stroke:none;fill-rule:nonzero;fill:rgb(16.470588%,58.039216%,95.686275%);fill-opacity:1;"
              d="M 87.988281 55.300781 C 82.109375 54.292969 75.929688 52.78125 75.929688 52.78125 L 64.988281 52.355469 C 64.988281 52.355469 54.945312 54.566406 50.992188 56.355469 C 50.613281 56.523438 50.613281 65.3125 49.585938 67.617188 L 52.859375 74.535156 C 52.859375 74.535156 54.753906 88.238281 55.148438 94.328125 C 55.328125 97.132812 51.242188 120.5625 51.242188 120.5625 C 55.132812 121.582031 59.09375 122.289062 63.09375 122.679688 C 70.558594 123.5 89.214844 122.375 89.335938 121.5 C 89.457031 120.621094 85.722656 88.65625 85.554688 87 C 85.300781 84.480469 86.285156 72.722656 86.285156 72.722656 C 87.695312 74.613281 95.828125 81.699219 99.804688 83.953125 C 102.625 85.554688 109.554688 84.578125 111.597656 84.371094 C 116.015625 83.917969 128.222656 83.046875 128.457031 82.613281 C 128.644531 82.351562 127.753906 77.902344 127.242188 77.730469 C 126.734375 77.558594 111.042969 76.804688 107.09375 77.003906 C 105.484375 77.089844 100.257812 71.25 100.257812 71.25 C 100.257812 71.25 91.230469 56.757812 87.988281 55.300781 Z M 87.988281 55.300781 "/>
        <path style=" stroke:none;fill-rule:nonzero;fill:rgb(16.470588%,58.039216%,95.686275%);fill-opacity:1;"
              d="M 119.441406 40.292969 L 148.363281 40.292969 L 148.363281 65.667969 L 143.945312 61.257812 L 119.441406 61.257812 Z M 119.441406 40.292969 "/>
        <path style=" stroke:none;fill-rule:nonzero;fill:rgb(80%,91.372549%,100%);fill-opacity:1;"
              d="M 120.652344 11.074219 L 91.734375 11.074219 L 91.734375 36.449219 L 96.144531 32.035156 L 120.652344 32.035156 Z M 120.652344 11.074219 "/>
        <path style=" stroke:none;fill-rule:nonzero;fill:rgb(100%,74.509804%,33.333333%);fill-opacity:1;"
              d="M 14.152344 296.585938 C 18.59375 304.90625 28.433594 306.441406 34.574219 313.84375 C 37.09375 316.867188 39.109375 320.390625 42.464844 322.554688 C 47.640625 325.921875 54.714844 325.304688 60.628906 323.273438 C 64.777344 321.847656 69.011719 319.746094 73.359375 320.527344 C 77.285156 321.207031 80.328125 324.054688 83.9375 325.660156 C 94.015625 330.15625 105.636719 324.714844 114.699219 320.625 C 119.082031 318.644531 123.414062 316.328125 126.597656 312.789062 C 126.789062 312.578125 129.253906 309.019531 129.257812 309.019531 L 90.335938 304.820312 C 64.925781 302.070312 39.457031 299.65625 14.152344 296.574219 Z M 14.152344 296.585938 "/>
        <path style=" stroke:none;fill-rule:nonzero;fill:rgb(100%,74.509804%,33.333333%);fill-opacity:1;"
              d="M 14.152344 296.585938 C 14.59375 296.636719 18.953125 292.394531 20.046875 291.800781 C 23.015625 290.15625 26.417969 289.453125 29.796875 289.785156 C 33.546875 290.082031 37.726562 290.636719 40.703125 288.492188 C 43.222656 286.683594 44.054688 283.484375 46.171875 281.28125 C 49.148438 278.1875 54.074219 277.59375 58.523438 277.757812 C 66.855469 278.078125 74.683594 280.480469 81.910156 284.304688 C 88.644531 287.871094 93.648438 287 101.230469 286.863281 C 110.207031 286.703125 114.832031 291.902344 120.664062 297.238281 C 123.324219 299.660156 125.875 301.625 127.617188 304.855469 C 127.742188 305.097656 129.25 309.007812 129.253906 309.007812 Z M 14.152344 296.585938 "/>
        <path style=" stroke:none;fill-rule:nonzero;fill:rgb(96.078431%,98.039216%,98.039216%);fill-opacity:1;"
              d="M 129.808594 309.070312 C 129.789062 309.222656 129.710938 309.363281 129.59375 309.457031 C 129.472656 309.550781 129.320312 309.59375 129.167969 309.574219 L 14.066406 297.125 C 13.917969 297.117188 13.78125 297.046875 13.6875 296.933594 C 13.59375 296.820312 13.546875 296.675781 13.5625 296.527344 C 13.609375 296.21875 13.894531 296.007812 14.203125 296.054688 L 129.304688 308.496094 C 129.597656 308.527344 129.816406 308.777344 129.808594 309.070312 Z M 129.808594 309.070312 "/>
        <path style=" stroke:none;fill-rule:nonzero;fill:rgb(96.078431%,98.039216%,98.039216%);fill-opacity:1;"
              d="M 100.164062 305.871094 C 100.15625 305.917969 100.144531 305.964844 100.128906 306.007812 C 100 306.292969 99.671875 306.425781 99.378906 306.316406 C 98.265625 305.902344 72.015625 296.074219 66.871094 282.925781 C 66.757812 282.671875 66.871094 282.375 67.125 282.261719 L 67.214844 282.230469 C 67.507812 282.125 67.832031 282.265625 67.953125 282.550781 C 72.925781 295.253906 99.535156 305.222656 99.804688 305.308594 C 100.039062 305.390625 100.191406 305.625 100.164062 305.871094 Z M 65.640625 302.148438 C 65.605469 302.378906 65.433594 302.566406 65.203125 302.613281 C 65.015625 302.652344 46.46875 307.050781 45.21875 317.335938 C 45.167969 317.636719 44.890625 317.847656 44.585938 317.808594 C 44.28125 317.78125 44.054688 317.511719 44.082031 317.207031 C 45.421875 306.179688 64.140625 301.742188 64.9375 301.558594 C 65.238281 301.480469 65.550781 301.660156 65.636719 301.957031 C 65.652344 302.019531 65.652344 302.085938 65.640625 302.148438 Z M 65.640625 302.148438 "/>
        <path style=" stroke:none;fill-rule:nonzero;fill:rgb(4.313725%,28.235294%,43.921569%);fill-opacity:1;"
              d="M 0.761719 222.382812 C 8.640625 218.75 20.238281 214.210938 28.628906 216.898438 C 32.660156 218.183594 36.628906 220.308594 41.003906 220.667969 C 46.039062 221.074219 49.773438 218.402344 54.605469 218.148438 C 74.121094 217.074219 73.792969 239.902344 89.671875 241.734375 C 93.5625 242.183594 97.601562 241.195312 101.5 241.589844 C 106.503906 242.09375 110.800781 244.84375 113.828125 248.265625 C 119.371094 254.527344 122.894531 262.648438 124.945312 270.378906 C 126.335938 275.613281 129.257812 279.953125 129.046875 285.605469 C 129.046875 285.890625 128.316406 290.375 128.332031 290.386719 Z M 0.761719 222.382812 "/>
        <path style=" stroke:none;fill-rule:nonzero;fill:rgb(4.313725%,28.235294%,43.921569%);fill-opacity:1;"
              d="M 0.765625 222.390625 C 3.214844 223.734375 2.554688 232.292969 2.992188 234.605469 C 4.050781 240.179688 6.316406 246.046875 10.046875 250.632812 C 12.523438 253.699219 16.25 256.171875 20.625 256.5 C 22.25 256.625 23.980469 256.464844 25.441406 257.050781 C 27.605469 257.917969 28.542969 260.171875 28.683594 262.285156 C 29.1875 269.992188 30.195312 276.332031 39.589844 279.230469 C 46.644531 281.417969 57.597656 282.84375 65.0625 282.542969 C 67.71875 282.4375 70.519531 282.109375 72.890625 283.046875 C 75.042969 283.902344 76.46875 285.660156 78.070312 287.160156 C 87.414062 295.917969 106.726562 299.785156 119.570312 294.503906 C 120.007812 294.320312 128.492188 290.441406 128.351562 290.367188 Z M 0.765625 222.390625 "/>
        <path style=" stroke:none;fill-rule:nonzero;fill:rgb(96.078431%,98.039216%,98.039216%);fill-opacity:1;"
              d="M 128.964844 290.714844 C 129.167969 290.445312 129.117188 290.0625 128.851562 289.855469 L 128.75 289.796875 L 1.179688 221.808594 C 0.816406 221.625 0.375 221.726562 0.125 222.046875 C 0.0273438 222.175781 -0.0195312 222.339844 0.00390625 222.5 C 0.0273438 222.660156 0.113281 222.804688 0.242188 222.902344 L 0.34375 222.964844 L 127.894531 290.976562 C 128.265625 291.167969 128.722656 291.054688 128.964844 290.714844 Z M 128.964844 290.714844 "/>
        <path style=" stroke:none;fill-rule:nonzero;fill:rgb(96.078431%,98.039216%,98.039216%);fill-opacity:1;"
              d="M 96.101562 273.230469 C 96.132812 273.179688 96.164062 273.125 96.1875 273.070312 C 96.296875 272.75 96.128906 272.394531 95.808594 272.28125 C 95.765625 272.265625 95.726562 272.253906 95.683594 272.25 C 94.171875 271.875 58.78125 263.261719 41.703125 272.636719 C 41.382812 272.785156 41.238281 273.164062 41.386719 273.484375 C 41.398438 273.511719 41.410156 273.535156 41.425781 273.558594 C 41.675781 273.875 42.121094 273.960938 42.46875 273.757812 C 58.957031 264.6875 94.859375 273.445312 95.199219 273.535156 C 95.53125 273.625 95.886719 273.503906 96.101562 273.230469 Z M 57.84375 252.839844 C 58.023438 252.617188 58.023438 252.296875 57.84375 252.078125 C 57.671875 251.90625 42.867188 234.640625 50.925781 223.667969 C 51.128906 223.398438 51.078125 223.019531 50.8125 222.8125 L 50.710938 222.75 C 50.347656 222.566406 49.902344 222.664062 49.652344 222.988281 C 41.046875 234.789062 55.964844 252.207031 56.609375 252.945312 C 56.765625 253.132812 57.007812 253.234375 57.253906 253.214844 C 57.5 253.191406 57.71875 253.050781 57.84375 252.839844 Z M 110.9375 279.78125 C 111.117188 279.558594 111.117188 279.242188 110.9375 279.019531 C 110.785156 278.847656 96.003906 261.589844 104.023438 250.585938 C 104.226562 250.324219 104.179688 249.949219 103.917969 249.746094 C 103.886719 249.71875 103.847656 249.691406 103.808594 249.675781 C 103.445312 249.488281 103.003906 249.589844 102.753906 249.910156 C 94.152344 261.710938 109.066406 279.132812 109.707031 279.867188 C 109.992188 280.152344 110.441406 280.195312 110.769531 279.960938 C 110.835938 279.914062 110.890625 279.851562 110.9375 279.78125 Z M 110.9375 279.78125 "/>
        <path style=" stroke:none;fill-rule:nonzero;fill:rgb(4.313725%,28.235294%,43.921569%);fill-opacity:1;"
              d="M 419.253906 221.523438 L 419.34375 221.441406 C 414.847656 220.972656 411.921875 218.394531 406.785156 219.886719 C 403.046875 220.972656 399.605469 223.003906 395.886719 224.148438 C 389.402344 226.164062 384.488281 222.414062 377.882812 223.957031 C 368.359375 226.164062 359.019531 231.199219 353.394531 239.425781 C 348.996094 245.882812 346.890625 254.171875 340.800781 259 C 336.855469 262.132812 331.816406 263.292969 327.359375 265.550781 C 310.886719 273.953125 309.523438 294.863281 306.472656 311.050781 C 304.886719 319.464844 308.488281 315.851562 312.59375 312.332031 L 347 283.03125 C 371.089844 262.535156 395.175781 242.035156 419.253906 221.523438 Z M 419.253906 221.523438 "/>
        <path style=" stroke:none;fill-rule:nonzero;fill:rgb(4.313725%,28.235294%,43.921569%);fill-opacity:1;"
              d="M 419.253906 221.523438 C 419.796875 225.46875 417.648438 228.207031 417.136719 231.867188 C 416.707031 234.886719 417.535156 238.15625 417.160156 241.292969 C 416.339844 248.199219 413.492188 254.707031 408.980469 259.996094 C 406.03125 263.398438 402.324219 266.371094 400.769531 270.605469 C 399.589844 273.8125 399.8125 277.335938 398.996094 280.648438 C 397.625 286.25 393.351562 290.808594 388.457031 293.746094 C 379.300781 299.242188 368.367188 300.636719 359.101562 305.886719 C 354.386719 308.558594 350.460938 312.496094 345.917969 315.460938 C 336.792969 321.433594 317.242188 322.378906 308.003906 316.265625 C 308.929688 316.878906 328.289062 298.972656 329.664062 297.800781 L 375.003906 259.195312 C 389.742188 246.652344 404.578125 234.128906 419.253906 221.523438 Z M 419.253906 221.523438 "/>
        <path style=" stroke:none;fill-rule:nonzero;fill:rgb(96.078431%,98.039216%,98.039216%);fill-opacity:1;"
              d="M 307.433594 316.753906 C 307.203125 316.441406 307.253906 316.003906 307.542969 315.746094 L 418.804688 220.964844 C 418.941406 220.839844 419.121094 220.777344 419.304688 220.789062 C 419.492188 220.796875 419.664062 220.882812 419.785156 221.019531 L 419.8125 221.050781 C 420.042969 221.363281 419.996094 221.796875 419.707031 222.054688 L 308.441406 316.84375 C 308.300781 316.976562 308.113281 317.042969 307.921875 317.03125 C 307.734375 317.015625 307.554688 316.925781 307.433594 316.78125 Z M 307.433594 316.753906 "/>
        <path style=" stroke:none;fill-rule:nonzero;fill:rgb(96.078431%,98.039216%,98.039216%);fill-opacity:1;"
              d="M 336.089844 292.375 C 335.949219 292.199219 335.898438 291.964844 335.949219 291.746094 C 336 291.523438 336.152344 291.339844 336.355469 291.242188 C 337.707031 290.59375 369.644531 275.445312 386.441406 282.835938 C 386.789062 283.011719 386.9375 283.429688 386.78125 283.785156 C 386.625 284.140625 386.21875 284.316406 385.851562 284.179688 C 369.628906 277.039062 337.257812 292.40625 336.933594 292.5625 C 336.644531 292.703125 336.296875 292.625 336.089844 292.375 Z M 369.464844 263.972656 C 369.273438 263.734375 369.25 263.402344 369.402344 263.140625 C 369.523438 262.929688 381.449219 241.75 372.878906 231.109375 C 372.648438 230.796875 372.695312 230.359375 372.984375 230.101562 C 373.125 229.972656 373.3125 229.90625 373.503906 229.917969 C 373.691406 229.929688 373.871094 230.019531 373.992188 230.164062 C 383.1875 241.578125 371.152344 262.949219 370.632812 263.855469 C 370.445312 264.203125 370.015625 264.328125 369.671875 264.144531 C 369.585938 264.097656 369.515625 264.027344 369.464844 263.945312 Z M 369.464844 263.972656 "/>
        <path style=" stroke:none;fill-rule:nonzero;fill:rgb(100%,74.509804%,33.333333%);fill-opacity:1;"
              d="M 448.203125 275.886719 C 440.566406 270.71875 429.1875 263.996094 420.023438 265.71875 C 415.640625 266.546875 411.152344 268.304688 406.542969 268.054688 C 401.226562 267.753906 397.757812 264.265625 392.785156 263.261719 C 372.632812 259.191406 369.386719 284.421875 352.550781 284.109375 C 348.429688 284.035156 344.375 282.34375 340.25 282.203125 C 334.960938 282.019531 330.054688 284.421875 326.359375 287.746094 C 319.609375 293.835938 314.664062 302.28125 311.332031 310.511719 C 309.066406 316.085938 305.347656 320.421875 304.679688 326.710938 C 304.648438 327.027344 304.679688 332.078125 304.679688 332.085938 Z M 448.203125 275.886719 "/>
        <path style=" stroke:none;fill-rule:nonzero;fill:rgb(100%,74.509804%,33.333333%);fill-opacity:1;"
              d="M 448.203125 275.890625 C 445.4375 277.011719 444.789062 286.558594 443.972656 289.039062 C 441.996094 295.035156 438.71875 301.175781 434.136719 305.667969 C 431.074219 308.6875 426.804688 310.867188 422.214844 310.589844 C 420.5 310.488281 418.726562 310.050781 417.109375 310.480469 C 414.722656 311.117188 413.394531 313.46875 412.914062 315.78125 C 411.171875 324.207031 409.15625 331.058594 398.90625 332.871094 C 391.1875 334.234375 379.574219 334.195312 371.839844 332.765625 C 369.089844 332.261719 366.226562 331.480469 363.605469 332.171875 C 361.230469 332.800781 359.46875 334.527344 357.558594 335.949219 C 346.476562 344.230469 325.726562 345.648438 313.167969 337.925781 C 312.738281 337.65625 304.503906 332.128906 304.664062 332.066406 Z M 448.203125 275.890625 "/>
        <path style=" stroke:none;fill-rule:nonzero;fill:rgb(96.078431%,98.039216%,98.039216%);fill-opacity:1;"
              d="M 303.949219 332.367188 C 303.859375 332.203125 303.84375 332.015625 303.894531 331.839844 C 303.949219 331.664062 304.070312 331.515625 304.234375 331.429688 L 304.320312 331.390625 L 447.855469 275.191406 C 448.265625 275.042969 448.722656 275.222656 448.917969 275.609375 C 449.097656 275.949219 448.96875 276.371094 448.632812 276.550781 L 448.550781 276.585938 L 305.011719 332.785156 C 304.601562 332.929688 304.148438 332.75 303.949219 332.367188 Z M 303.949219 332.367188 "/>
        <path style=" stroke:none;fill-rule:nonzero;fill:rgb(96.078431%,98.039216%,98.039216%);fill-opacity:1;"
              d="M 340.914062 317.894531 C 340.882812 317.835938 340.863281 317.773438 340.847656 317.707031 C 340.8125 317.527344 340.84375 317.339844 340.945312 317.183594 C 341.046875 317.03125 341.203125 316.921875 341.382812 316.886719 C 341.414062 316.882812 341.449219 316.882812 341.480469 316.886719 C 343.101562 316.699219 381.339844 312.417969 397.664062 325.277344 C 397.984375 325.511719 398.0625 325.957031 397.839844 326.285156 L 397.8125 326.328125 C 397.515625 326.640625 397.027344 326.667969 396.699219 326.390625 C 380.929688 313.972656 342.167969 318.332031 341.785156 318.367188 C 341.425781 318.40625 341.078125 318.21875 340.914062 317.894531 Z M 383.96875 301.035156 C 383.820312 300.757812 383.878906 300.417969 384.109375 300.203125 C 384.296875 300.035156 402.394531 283.171875 395.75 269.847656 C 395.574219 269.507812 395.699219 269.085938 396.039062 268.90625 L 396.125 268.867188 C 396.53125 268.722656 396.984375 268.902344 397.1875 269.289062 C 404.308594 283.574219 386.042969 300.597656 385.257812 301.3125 C 384.925781 301.589844 384.4375 301.570312 384.132812 301.261719 C 384.0625 301.199219 384.007812 301.121094 383.96875 301.035156 Z M 324.429688 322.957031 C 324.285156 322.679688 324.34375 322.339844 324.574219 322.125 C 324.757812 321.953125 342.859375 305.09375 336.214844 291.765625 C 336.035156 291.425781 336.164062 291.007812 336.5 290.824219 L 336.585938 290.789062 C 336.996094 290.644531 337.449219 290.824219 337.652344 291.207031 C 344.773438 305.496094 326.507812 322.519531 325.722656 323.234375 C 325.390625 323.511719 324.902344 323.488281 324.597656 323.183594 C 324.527344 323.117188 324.472656 323.042969 324.429688 322.957031 Z M 324.429688 322.957031 "/>
        <path style=" stroke:none;fill-rule:nonzero;fill:rgb(96.862745%,96.862745%,96.862745%);fill-opacity:1;"
              d="M 83.167969 109.785156 L 353.695312 109.785156 L 353.695312 294.175781 L 83.167969 294.175781 Z M 83.167969 109.785156 "/>
        <path style=" stroke:none;fill-rule:nonzero;fill:rgb(82.745098%,82.745098%,82.745098%);fill-opacity:1;"
              d="M 90.3125 128.324219 L 90.316406 129.636719 L 344.402344 129.601562 L 344.390625 128.289062 Z M 90.3125 128.324219 "/>
        <path style=" stroke:none;fill-rule:nonzero;fill:rgb(82.745098%,82.745098%,82.745098%);fill-opacity:1;"
              d="M 90.414062 151.847656 L 344.578125 151.800781 L 344.566406 150.492188 L 90.40625 150.539062 Z M 90.414062 151.847656 "/>
        <path style=" stroke:none;fill-rule:nonzero;fill:rgb(82.745098%,82.745098%,82.745098%);fill-opacity:1;"
              d="M 90.511719 174.070312 L 344.753906 174.019531 L 344.742188 172.710938 L 90.507812 172.761719 Z M 90.511719 174.070312 "/>
        <path style=" stroke:none;fill-rule:nonzero;fill:rgb(82.745098%,82.745098%,82.745098%);fill-opacity:1;"
              d="M 90.609375 196.308594 L 344.929688 196.253906 L 344.921875 194.9375 L 90.605469 194.992188 Z M 90.609375 196.308594 "/>
        <path style=" stroke:none;fill-rule:nonzero;fill:rgb(82.745098%,82.745098%,82.745098%);fill-opacity:1;"
              d="M 90.710938 218.554688 L 345.105469 218.496094 L 345.089844 217.179688 L 90.703125 217.246094 Z M 90.710938 218.554688 "/>
        <path style=" stroke:none;fill-rule:nonzero;fill:rgb(82.745098%,82.745098%,82.745098%);fill-opacity:1;"
              d="M 90.804688 240.824219 L 345.277344 240.753906 L 345.269531 239.4375 L 90.800781 239.507812 Z M 90.804688 240.824219 "/>
        <path style=" stroke:none;fill-rule:nonzero;fill:rgb(82.745098%,82.745098%,82.745098%);fill-opacity:1;"
              d="M 90.90625 263.101562 L 345.453125 263.019531 L 345.445312 261.707031 L 90.902344 261.785156 Z M 90.90625 263.101562 "/>
        <path style=" stroke:none;fill-rule:evenodd;fill:rgb(100%,74.509804%,33.333333%);fill-opacity:1;"
              d="M 90.871094 255.492188 L 128.085938 223.109375 C 132.023438 219.671875 138.449219 219.671875 142.425781 223.109375 L 151.683594 231.09375 C 155.660156 234.527344 162.085938 234.527344 166.023438 231.09375 C 169.96875 227.664062 176.386719 227.660156 180.367188 231.09375 L 193.96875 242.808594 C 197.953125 246.238281 204.371094 246.238281 208.316406 242.808594 L 248.941406 207.40625 C 252.875 203.976562 259.292969 203.976562 263.273438 207.40625 L 282.597656 224.03125 C 286.582031 227.460938 293 227.457031 296.933594 224.03125 L 303.957031 217.910156 C 307.886719 214.480469 314.304688 214.472656 318.289062 217.910156 L 345.289062 241.144531 L 345.640625 286.011719 L 91.007812 286.011719 Z M 90.871094 255.492188 "/>
        <path style=" stroke:none;fill-rule:nonzero;fill:rgb(100%,74.509804%,33.333333%);fill-opacity:1;"
              d="M 258.894531 181.960938 L 219.496094 181.960938 C 214.484375 181.964844 210.40625 177.929688 210.363281 172.917969 C 210.335938 167.949219 214.34375 163.902344 219.308594 163.878906 L 258.773438 163.878906 C 263.785156 163.875 267.859375 167.90625 267.914062 172.917969 C 267.945312 177.878906 263.945312 181.929688 258.980469 181.960938 Z M 335.558594 160.136719 L 296.175781 160.136719 C 291.167969 160.136719 287.097656 156.105469 287.046875 151.097656 C 287.015625 146.140625 291.011719 142.09375 295.96875 142.0625 L 335.429688 142.0625 C 340.441406 142.054688 344.527344 146.085938 344.582031 151.097656 C 344.617188 156.050781 340.636719 160.09375 335.6875 160.136719 Z M 187.710938 204.210938 L 148.296875 204.210938 C 143.28125 204.222656 139.203125 200.183594 139.164062 195.167969 C 139.144531 192.78125 140.078125 190.480469 141.757812 188.78125 C 143.433594 187.078125 145.71875 186.117188 148.109375 186.101562 L 187.605469 186.101562 C 192.628906 186.09375 196.710938 190.148438 196.746094 195.167969 C 196.761719 200.144531 192.746094 204.191406 187.773438 204.210938 Z M 187.710938 204.210938 "/>
        <path style=" stroke:none;fill-rule:nonzero;fill:rgb(96.862745%,96.862745%,96.862745%);fill-opacity:1;"
              d="M 363.015625 437 C 363.015625 431.574219 299.410156 427.175781 220.949219 427.175781 C 142.492188 427.175781 78.886719 431.574219 78.886719 437 C 78.886719 442.425781 142.492188 446.824219 220.949219 446.824219 C 299.410156 446.824219 363.015625 442.425781 363.015625 437 Z M 363.015625 437 "/>
        <path style=" stroke:none;fill-rule:nonzero;fill:rgb(4.313725%,28.235294%,43.921569%);fill-opacity:1;"
              d="M 154.199219 362.363281 C 155.671875 365.464844 157.675781 368.960938 160.589844 369.835938 C 162.605469 370.433594 168.277344 366.621094 169.410156 365.089844 C 170.542969 363.558594 167.027344 289.6875 164.488281 285.1875 C 161.078125 279.140625 134.191406 287.484375 135.117188 297.953125 C 136.300781 311.332031 140.109375 325.566406 144.632812 338.832031 C 147.367188 346.851562 150.5625 354.707031 154.199219 362.363281 Z M 154.199219 362.363281 "/>
        <path style=" stroke:none;fill-rule:nonzero;fill:rgb(5.490196%,32.54902%,54.901961%);fill-opacity:1;"
              d="M 106.066406 430.917969 C 109.046875 431.351562 112.085938 431.109375 114.960938 430.207031 C 115.113281 426.742188 115.265625 423.277344 115.425781 419.8125 C 115.480469 419.378906 115.421875 418.941406 115.257812 418.542969 C 114.894531 418.03125 114.316406 417.710938 113.6875 417.675781 C 111.324219 417.25 107.683594 417.121094 107.300781 420.128906 C 106.847656 423.734375 106.476562 427.335938 106.066406 430.917969 Z M 169.597656 430.917969 C 172.523438 431.371094 175.515625 431.132812 178.335938 430.222656 C 177.695312 426.757812 177.054688 423.292969 176.410156 419.824219 C 176.359375 419.375 176.207031 418.9375 175.957031 418.554688 C 175.496094 418.058594 174.863281 417.746094 174.183594 417.691406 C 171.726562 417.265625 168.054688 417.136719 168.363281 420.144531 C 168.710938 423.734375 169.183594 427.335938 169.597656 430.917969 Z M 169.597656 430.917969 "/>
        <path style=" stroke:none;fill-rule:nonzero;fill:rgb(4.313725%,28.235294%,43.921569%);fill-opacity:1;"
              d="M 168.613281 353.839844 C 164.773438 347.699219 155.515625 343.492188 151.636719 354.140625 C 145.707031 370.378906 164.511719 400.753906 167.296875 420.363281 L 177.375 420.363281 C 177.660156 418.484375 170.746094 357.265625 168.613281 353.839844 Z M 168.613281 353.839844 "/>
        <path style=" stroke:none;fill-rule:evenodd;fill:rgb(3.921569%,23.529412%,37.254902%);fill-opacity:1;"
              d="M 119.898438 303.171875 C 122.351562 305.105469 125.589844 305.398438 128.632812 305.398438 C 153.667969 305.398438 168.148438 297.257812 164.6875 285.75 C 161.132812 273.9375 138.730469 275.847656 127.027344 279.648438 C 124.507812 280.472656 120.832031 281.265625 119.109375 283.621094 C 116.59375 287.046875 113.921875 298.480469 119.898438 303.171875 Z M 119.898438 303.171875 "/>
        <path style=" stroke:none;fill-rule:nonzero;fill:rgb(4.313725%,28.235294%,43.921569%);fill-opacity:1;"
              d="M 177.375 257.488281 C 179.285156 259.085938 181.816406 260.582031 184.125 259.648438 C 185.460938 259.027344 186.449219 257.839844 186.816406 256.410156 C 187.167969 254.996094 187.246094 253.527344 187.046875 252.082031 C 185.96875 240.695312 172.007812 213.996094 163.414062 205.402344 C 160.335938 200.96875 151.40625 222.027344 151.859375 225.210938 C 152.3125 228.394531 168.507812 250.09375 177.375 257.488281 Z M 111.164062 362.027344 C 111.691406 365.128906 115.695312 368.960938 118.347656 369.835938 C 120.179688 370.433594 127.007812 366.621094 128.609375 365.089844 C 130.210938 363.558594 148.128906 301.582031 146.957031 297.078125 C 145.378906 291.03125 140.28125 287.136719 134.726562 286.238281 C 126.664062 284.929688 117.921875 287.75 114.695312 297.949219 C 106.894531 322.605469 116.5625 340.988281 111.164062 362.027344 Z M 111.164062 362.027344 "/>
        <path style=" stroke:none;fill-rule:nonzero;fill:rgb(80%,91.372549%,100%);fill-opacity:1;"
              d="M 221.203125 274.023438 C 222.375 275.28125 223.640625 276.84375 223.261719 278.523438 C 222.941406 279.9375 221.480469 280.863281 220.035156 281.039062 C 219.597656 281.085938 214.957031 279.171875 209.957031 276.835938 L 214.996094 268.773438 C 217.171875 270.390625 219.246094 272.144531 221.203125 274.023438 Z M 221.203125 274.023438 "/>
        <path style=" stroke:none;fill-rule:nonzero;fill:rgb(4.313725%,28.235294%,43.921569%);fill-opacity:1;"
              d="M 214.964844 268.75 L 210.019531 278.558594 C 198.488281 273.191406 180.769531 262.183594 178.066406 257.351562 C 176.105469 253.855469 177.777344 250.703125 180.816406 248.789062 C 184.109375 246.707031 204.242188 260.421875 214.964844 268.75 Z M 131.789062 353.839844 C 130.035156 347.710938 121.121094 342.871094 114.703125 354.140625 C 104.378906 372.277344 106.789062 399.40625 106.222656 420.363281 L 116.296875 420.363281 C 117.214844 418.484375 132.765625 357.265625 131.789062 353.839844 Z M 131.789062 353.839844 "/>
        <path style=" stroke:none;fill-rule:nonzero;fill:rgb(5.490196%,32.54902%,54.901961%);fill-opacity:1;"
              d="M 167.382812 209.628906 C 169.933594 213.394531 169.011719 218.777344 168.390625 223.140625 C 167.035156 232.46875 167.429688 298.371094 167.554688 299.84375 C 167.683594 301.3125 167.050781 302.949219 165.539062 303.617188 C 164.625 303.941406 163.648438 304.074219 162.679688 304.003906 C 149.535156 303.917969 128.71875 303.832031 115.570312 303.746094 C 114.703125 303.820312 113.832031 303.65625 113.050781 303.273438 C 111.46875 302.265625 112.042969 300.148438 112.582031 298.511719 C 116.378906 287.558594 118.25 258.710938 114.808594 247.683594 C 111.378906 236.742188 107.199219 223.191406 109.09375 211.730469 C 113.730469 206.066406 123.199219 192.917969 142.023438 192.917969 C 155.207031 192.914062 165.097656 206.226562 167.382812 209.628906 Z M 167.382812 209.628906 "/>
        <path style=" stroke:none;fill-rule:nonzero;fill:rgb(5.490196%,32.54902%,54.901961%);fill-opacity:1;"
              d="M 116.234375 204.878906 C 118.03125 204.339844 130.667969 205.144531 127.320312 214.132812 C 123.132812 225.289062 114.761719 234.375 107.777344 244.03125 C 105.632812 247 103.449219 250.003906 100.625 252.324219 C 97.796875 254.648438 94.195312 256.257812 90.546875 255.960938 C 88.632812 255.800781 85.816406 254.902344 84.882812 253.03125 C 84.125 251.519531 85.0625 249.039062 85.386719 247.539062 C 86.597656 242.207031 106.265625 207.851562 116.234375 204.878906 Z M 116.234375 204.878906 "/>
        <path style=" stroke:none;fill-rule:evenodd;fill:rgb(80%,20.392157%,43.529412%);fill-opacity:1;"
              d="M 99.5625 238.144531 C 99.539062 238.214844 99.53125 238.289062 99.53125 238.363281 Z M 99.5625 238.144531 "/>
        <path style=" stroke:none;fill-rule:nonzero;fill:rgb(80%,91.372549%,100%);fill-opacity:1;"
              d="M 126.492188 279.0625 C 126.667969 280.914062 122.964844 282.585938 121.15625 283.003906 C 120.652344 283.125 117.933594 280.429688 114.144531 277.804688 L 119.945312 271.910156 C 122.625 275.28125 126.449219 278.691406 126.492188 279.0625 Z M 152.738281 258.015625 C 150.351562 245.371094 147.914062 232.765625 145.0625 221.320312 C 142.367188 210.5 135.875 202.871094 127.691406 195.761719 C 134.449219 190.488281 146.234375 189.988281 152.023438 196.882812 C 159.171875 205.386719 156.902344 220.8125 156.582031 231.007812 C 156.328125 239.101562 153.984375 258.027344 152.738281 258.015625 Z M 152.738281 258.015625 "/>
        <path style=" stroke:none;fill-rule:nonzero;fill:rgb(16.470588%,58.039216%,95.686275%);fill-opacity:1;"
              d="M 144.699219 202.800781 C 143.753906 201.441406 142.496094 200 142.785156 198.367188 C 143 197.273438 143.875 196.425781 144.976562 196.246094 C 148.964844 195.683594 147.136719 200.019531 146.570312 201.933594 C 150.402344 207.683594 155.011719 219.746094 156.539062 234.136719 C 156.125 242.726562 153.933594 260.042969 152.738281 260.03125 C 151.113281 251.417969 149.460938 242.828125 147.671875 234.605469 C 147.328125 225.105469 146.460938 205.347656 144.699219 202.800781 Z M 144.699219 202.800781 "/>
        <path style=" stroke:none;fill-rule:nonzero;fill:rgb(5.490196%,32.54902%,54.901961%);fill-opacity:1;"
              d="M 84.679688 250.308594 C 85.183594 248.597656 86.917969 247.589844 88.589844 246.980469 C 91.394531 245.972656 94.925781 245.261719 97.910156 245.859375 C 99.964844 246.277344 100.597656 248.148438 101.773438 249.65625 C 104.714844 253.421875 116.210938 267.097656 121.96875 274.296875 L 115.667969 282.214844 C 106.363281 275.761719 89.46875 259.421875 86.628906 255.726562 C 85.433594 254.144531 84.175781 252.230469 84.679688 250.308594 Z M 84.679688 250.308594 "/>
        <path style=" stroke:none;fill-rule:evenodd;fill:rgb(4.313725%,28.235294%,43.921569%);fill-opacity:1;"
              d="M 144.125 159.101562 C 142.667969 157.648438 132.644531 153.828125 129.414062 161.066406 C 128.292969 163.585938 127.875 167.882812 128.460938 170.578125 C 129.242188 174.15625 135.394531 187.429688 137.359375 185.855469 C 139.339844 184.238281 140.480469 181.8125 140.460938 179.253906 C 140.421875 176.40625 138.925781 173.550781 139.738281 170.820312 C 140.242188 169.171875 141.476562 167.882812 142.683594 166.664062 C 143.660156 165.65625 145.300781 164.597656 145.550781 163.203125 C 145.726562 161.691406 145.199219 160.179688 144.125 159.101562 Z M 144.125 159.101562 "/>
        <path style=" stroke:none;fill-rule:evenodd;fill:rgb(4.313725%,28.235294%,43.921569%);fill-opacity:1;"
              d="M 153.394531 163.691406 C 153.222656 162.488281 152.839844 161.25 151.9375 160.433594 C 150.496094 159.121094 148.199219 159.328125 146.441406 160.164062 C 145.496094 160.613281 144.523438 161.390625 144.519531 162.4375 C 144.519531 163.320312 145.1875 164.035156 145.847656 164.621094 C 147.359375 165.964844 149.546875 167.953125 151.550781 168.488281 C 154.023438 169.167969 153.589844 165.128906 153.394531 163.691406 Z M 153.394531 163.691406 "/>
        <path style=" stroke:none;fill-rule:nonzero;fill:rgb(89.803922%,67.058824%,51.372549%);fill-opacity:1;"
              d="M 147.308594 179.734375 C 146.019531 174.046875 141.71875 172.714844 139.21875 174.082031 C 137.617188 184.71875 135.980469 189.449219 131.808594 195.238281 C 136.996094 198.566406 145.847656 197.945312 147.761719 195.238281 C 147.84375 194.421875 147.972656 182.671875 147.308594 179.734375 Z M 147.308594 179.734375 "/>
        <path style=" stroke:none;fill-rule:nonzero;fill:rgb(93.72549%,71.372549%,56.078431%);fill-opacity:1;"
              d="M 136.78125 166.3125 C 139.191406 160.539062 147.101562 159.136719 151.554688 164.101562 C 155.636719 168.632812 156.121094 180.628906 154.605469 183.597656 C 151.957031 188.78125 142.460938 186.5 140.4375 183.785156 C 137.46875 179.8125 134.753906 171.171875 136.78125 166.3125 Z M 136.78125 166.3125 "/>
        <path style=" stroke:none;fill-rule:evenodd;fill:rgb(4.313725%,28.235294%,43.921569%);fill-opacity:1;"
              d="M 152.6875 165.242188 C 152.859375 166.582031 152.785156 167.949219 153.085938 169.273438 C 153.390625 170.597656 154.191406 171.902344 155.476562 172.296875 C 154.820312 171.257812 154.820312 169.929688 155.0625 168.726562 C 155.304688 167.519531 155.761719 166.367188 155.949219 165.152344 C 156.363281 162.457031 155.417969 159.730469 153.425781 157.871094 C 151.433594 156.007812 148.648438 155.253906 145.988281 155.847656 C 144.519531 156.117188 143.21875 156.96875 142.390625 158.214844 C 141.640625 159.484375 141.722656 161.292969 142.824219 162.28125 C 143.800781 163.023438 145.070312 163.265625 146.25 162.941406 C 147.21875 162.71875 147.511719 162.058594 148.304688 161.621094 C 150.789062 160.226562 152.4375 163.234375 152.6875 165.242188 Z M 152.6875 165.242188 "/>
        <path style=" stroke:none;fill-rule:nonzero;fill:rgb(93.72549%,71.372549%,56.078431%);fill-opacity:1;"
              d="M 132.773438 176.976562 C 133.054688 178.40625 133.875 179.667969 135.066406 180.503906 C 138.453125 182.832031 139.742188 177.984375 138.414062 175.566406 C 136.832031 172.683594 132.035156 173.144531 132.773438 176.976562 Z M 132.773438 176.976562 "/>
        <path style=" stroke:none;fill-rule:evenodd;fill:rgb(4.313725%,28.235294%,43.921569%);fill-opacity:1;"
              d="M 144.988281 162.085938 C 144.988281 163.179688 142.050781 164.957031 141.25 165.703125 C 140.449219 166.449219 139.539062 167.128906 139.042969 168.101562 C 138.398438 169.355469 138.539062 170.871094 138.910156 172.238281 C 139.285156 173.601562 139.816406 174.925781 139.917969 176.332031 C 140.019531 177.738281 139.601562 179.304688 138.40625 180.058594 C 138.910156 178.761719 138.367188 177.257812 137.53125 176.128906 C 136.695312 175.003906 135.589844 174.089844 134.796875 172.9375 C 133.257812 170.660156 133.046875 167.734375 134.234375 165.257812 C 135.09375 163.542969 137.429688 160.753906 139.21875 160.078125 C 140.71875 159.527344 145.042969 159.613281 144.988281 162.085938 Z M 197.523438 436.027344 C 197.65625 434.585938 196.285156 433.394531 194.878906 433.058594 C 193.476562 432.726562 192 432.980469 190.554688 432.960938 C 186.339844 432.859375 182.507812 430.496094 180.527344 426.773438 C 180.328125 426.238281 179.976562 425.773438 179.519531 425.433594 C 178.867188 425.066406 178.007812 425.34375 177.425781 425.820312 C 176.886719 426.34375 176.378906 426.902344 175.914062 427.488281 C 174.933594 428.445312 173.613281 428.972656 172.242188 428.960938 C 171.105469 428.960938 169.84375 428.078125 168.753906 428.648438 C 167.792969 429.152344 167.535156 430.480469 167.292969 431.429688 C 166.875 433.058594 166.492188 434.703125 166.09375 436.339844 C 165.996094 436.707031 165.925781 437.082031 165.894531 437.457031 L 173.753906 437.457031 C 174.121094 436.953125 174.417969 435.441406 174.574219 434.824219 C 174.597656 435.457031 174.851562 436.96875 175.253906 437.457031 L 196.859375 437.457031 C 197.234375 437.066406 197.46875 436.566406 197.523438 436.027344 Z M 118.589844 436.027344 C 118.648438 434.585938 118.042969 433.394531 117.425781 433.058594 C 116.804688 432.726562 115.84375 430.308594 114.5625 426.773438 C 113.980469 425.15625 110.714844 424.703125 109.082031 427.488281 C 108.554688 428.390625 108.074219 429 107.46875 428.960938 C 106.964844 428.960938 106.414062 428.078125 105.960938 428.648438 C 105.503906 429.214844 105.421875 430.480469 105.3125 431.429688 C 105.132812 433.058594 104.960938 434.703125 104.808594 436.339844 C 104.769531 436.703125 104.730469 437.085938 104.71875 437.457031 L 118.320312 437.457031 C 118.488281 437 118.578125 436.515625 118.589844 436.027344 Z M 118.589844 436.027344 "/>
        <path style=" stroke:none;fill-rule:nonzero;fill:rgb(80%,91.372549%,100%);fill-opacity:1;"
              d="M 150.351562 200.6875 L 147.832031 198.851562 C 147.242188 198.417969 146.578125 197.96875 145.851562 198.046875 C 145.128906 198.121094 144.59375 198.699219 144.109375 199.238281 L 141.636719 202.027344 C 141.289062 202.503906 140.800781 202.855469 140.234375 203.035156 C 139.496094 203.179688 138.785156 202.695312 138.191406 202.230469 C 135.53125 200.15625 133.019531 197.898438 130.675781 195.472656 C 130.257812 195.222656 130.121094 194.679688 130.367188 194.261719 C 130.421875 194.167969 130.496094 194.085938 130.582031 194.019531 L 133.695312 190.230469 C 136.003906 191.359375 138.371094 192.464844 140.910156 192.828125 C 142.894531 193.152344 144.929688 192.847656 146.730469 191.949219 C 147.023438 191.792969 147.574219 191.25 147.914062 191.445312 C 148.25 191.644531 148.316406 192.683594 148.417969 193.027344 L 149.324219 196.621094 Z M 150.351562 200.6875 "/>
        <path style=" stroke:none;fill-rule:nonzero;fill:rgb(4.313725%,28.235294%,43.921569%);fill-opacity:1;"
              d="M 151.773438 267.066406 L 152.835938 267.046875 L 153.507812 303.121094 L 152.445312 303.140625 Z M 151.773438 267.066406 "/>
        <path style=" stroke:none;fill-rule:nonzero;fill:rgb(4.313725%,28.235294%,43.921569%);fill-opacity:1;"
              d="M 149.53125 260.003906 C 143.546875 248.546875 135.476562 238.304688 125.742188 229.804688 L 125.238281 229.363281 L 131.484375 224.867188 L 126.007812 223.050781 L 125.945312 222.761719 C 123.929688 214.417969 123.3125 207.144531 126.84375 198.746094 L 127.828125 199.160156 C 124.449219 207.191406 125 214.207031 126.90625 222.222656 L 133.828125 224.515625 L 126.996094 229.433594 C 136.605469 237.933594 144.578125 248.121094 150.523438 259.492188 Z M 156.613281 260.269531 L 155.671875 259.765625 C 160.847656 249.800781 164.011719 238.914062 164.992188 227.730469 L 159.449219 225.582031 L 162.015625 225.484375 C 163.328125 225.433594 164.363281 224.207031 164.703125 223.023438 C 165.097656 221.664062 164.871094 220.175781 164.5625 218.777344 C 163.121094 212.167969 159.941406 206.066406 155.34375 201.105469 L 156.125 200.382812 C 160.84375 205.476562 164.117188 211.738281 165.601562 218.519531 C 165.9375 220.0625 166.183594 221.710938 165.726562 223.296875 C 165.398438 224.4375 164.660156 225.417969 163.652344 226.046875 L 166.105469 227 L 166.070312 227.398438 C 165.132812 238.875 161.917969 250.050781 156.613281 260.269531 Z M 156.613281 260.269531 "/>
        <path style=" stroke:none;fill-rule:nonzero;fill:rgb(93.72549%,71.372549%,56.078431%);fill-opacity:1;"
              d="M 129.144531 284.351562 C 129.46875 286.027344 129.421875 287.878906 128.433594 289.289062 C 127.496094 290.496094 126.109375 291.269531 124.589844 291.429688 C 123.082031 291.574219 121.566406 291.46875 120.09375 291.117188 C 119.046875 290.910156 117.945312 290.613281 117.199219 289.867188 C 116.453125 289.121094 116.28125 287.679688 117.128906 287.027344 C 118.136719 286.25 119.769531 286.984375 120.753906 286.195312 C 121.742188 285.402344 121.300781 283.847656 121.347656 282.578125 C 121.425781 280.65625 123.421875 278.351562 125.496094 278.683594 C 127.789062 279.0625 128.769531 282.441406 129.144531 284.351562 Z M 129.144531 284.351562 "/>
        <path style=" stroke:none;fill-rule:nonzero;fill:rgb(100%,89.019608%,79.215686%);fill-opacity:1;"
              d="M 225.738281 285.019531 C 236.109375 282.445312 230.519531 273.125 223.96875 273.160156 C 221.800781 273.160156 219.503906 273.464844 217.816406 274.820312 C 212.164062 279.34375 220.941406 286.058594 225.738281 285.019531 Z M 225.738281 285.019531 "/>
        <path style=" stroke:none;fill-rule:nonzero;fill:rgb(4.313725%,28.235294%,43.921569%);fill-opacity:1;"
              d="M 143.832031 272.441406 C 142.484375 272.441406 141.394531 271.347656 141.394531 270.003906 C 141.394531 268.65625 142.484375 267.5625 143.832031 267.5625 C 145.179688 267.5625 146.269531 268.65625 146.269531 270.003906 C 146.269531 271.347656 145.179688 272.441406 143.832031 272.441406 Z M 143.832031 268.632812 C 143.074219 268.628906 142.457031 269.242188 142.453125 270.003906 C 142.449219 270.761719 143.0625 271.378906 143.824219 271.382812 C 144.582031 271.386719 145.199219 270.773438 145.203125 270.011719 C 145.207031 269.648438 145.0625 269.296875 144.804688 269.039062 C 144.546875 268.777344 144.199219 268.632812 143.832031 268.632812 Z M 144.519531 285.8125 C 143.171875 285.8125 142.078125 284.71875 142.078125 283.375 C 142.078125 282.027344 143.171875 280.933594 144.519531 280.933594 C 145.863281 280.933594 146.957031 282.027344 146.957031 283.375 C 146.957031 284.71875 145.863281 285.8125 144.519531 285.8125 Z M 144.519531 282.003906 C 143.757812 282 143.140625 282.613281 143.136719 283.375 C 143.136719 284.132812 143.75 284.75 144.507812 284.753906 C 145.265625 284.757812 145.886719 284.144531 145.886719 283.382812 C 145.886719 282.625 145.277344 282.007812 144.519531 282.003906 Z M 152.183594 276.757812 C 151.777344 286.054688 151.683594 295.269531 147.921875 303.773438 C 150.007812 303.847656 152.578125 304.949219 154.339844 303.574219 C 156.292969 302.0625 154.945312 298.277344 154.6875 296.253906 C 153.882812 290.058594 151.875 282.933594 152.183594 276.757812 Z M 152.183594 276.757812 "/>
        <path style=" stroke:none;fill-rule:nonzero;fill:rgb(5.490196%,32.54902%,54.901961%);fill-opacity:1;"
              d="M 266.265625 430.65625 C 263.304688 431.09375 260.28125 430.847656 257.429688 429.941406 L 258.609375 419.449219 C 258.625 419 258.75 418.558594 258.972656 418.167969 C 259.40625 417.660156 260.03125 417.34375 260.699219 417.296875 C 263.148438 416.867188 266.839844 416.730469 266.742188 419.769531 C 266.628906 423.398438 266.417969 427.03125 266.265625 430.65625 Z M 266.265625 430.65625 "/>
        <path style=" stroke:none;fill-rule:evenodd;fill:rgb(4.313725%,28.235294%,43.921569%);fill-opacity:1;"
              d="M 304.15625 302.042969 C 303.738281 299.003906 302.222656 296.21875 299.898438 294.214844 C 297.882812 284.792969 274.886719 277.996094 271.289062 283.636719 C 268.679688 287.714844 261.097656 348.40625 260.347656 361.691406 C 258.773438 379.636719 257.324219 418.503906 257.628906 420.023438 L 267.792969 420.023438 C 268.871094 404.53125 279.378906 382.378906 280.433594 365.613281 C 288.039062 349.578125 294.992188 333.253906 301.292969 316.640625 C 303.070312 311.957031 304.828125 307.015625 304.15625 302.042969 Z M 304.15625 302.042969 "/>
        <path style=" stroke:none;fill-rule:evenodd;fill:rgb(3.921569%,23.529412%,37.254902%);fill-opacity:1;"
              d="M 325.203125 301.777344 C 322.730469 303.726562 319.460938 304.023438 316.390625 304.023438 C 291.140625 304.023438 276.527344 295.8125 280.019531 284.210938 C 283.605469 272.292969 306.214844 274.21875 318.007812 278.058594 C 320.527344 278.882812 324.261719 279.683594 326 282.089844 C 328.507812 285.507812 331.210938 297.042969 325.203125 301.777344 Z M 325.203125 301.777344 "/>
        <path style=" stroke:none;fill-rule:nonzero;fill:rgb(4.313725%,28.235294%,43.921569%);fill-opacity:1;"
              d="M 283.304688 225.503906 C 280.28125 236.730469 275.746094 247.960938 267.46875 256.152344 C 265.6875 257.917969 263.261719 259.640625 260.871094 258.898438 C 259.472656 258.390625 258.375 257.28125 257.882812 255.875 C 257.40625 254.484375 257.203125 253.015625 257.28125 251.546875 C 257.394531 240.011719 263.019531 229.335938 268.527344 219.199219 C 270.792969 215.023438 274.195312 207.511719 279.199219 206 C 284.40625 204.429688 285.242188 212.617188 285.078125 215.851562 C 284.820312 219.121094 284.226562 222.355469 283.304688 225.503906 Z M 283.304688 225.503906 "/>
        <path style=" stroke:none;fill-rule:evenodd;fill:rgb(80%,20.392157%,43.529412%);fill-opacity:1;"
              d="M 357.222656 229.90625 C 357.265625 229.96875 357.300781 230.035156 357.328125 230.105469 Z M 357.222656 229.90625 "/>
        <path style=" stroke:none;fill-rule:nonzero;fill:rgb(100%,89.019608%,79.215686%);fill-opacity:1;"
              d="M 300.753906 183.371094 C 304.503906 177.636719 311.171875 176.292969 314.355469 177.667969 C 313.152344 188.402344 313.953125 193.179688 318.074219 199.035156 C 309.464844 202.386719 296.84375 201.765625 294.964844 199.035156 C 295.117188 198.167969 298.785156 186.363281 300.753906 183.371094 Z M 300.753906 183.371094 "/>
        <path style=" stroke:none;fill-rule:evenodd;fill:rgb(100%,71.764706%,31.372549%);fill-opacity:1;"
              d="M 296.046875 167.867188 C 294.949219 168.699219 293.84375 169.722656 293.609375 171.082031 C 293.433594 172.125 293.8125 173.167969 294.183594 174.160156 L 295.621094 178 C 296.6875 176.628906 297.160156 174.902344 297.726562 173.253906 C 298.289062 171.605469 299.035156 169.925781 300.441406 168.894531 C 301.3125 168.261719 302.492188 167.789062 302.738281 166.738281 C 303.085938 165.230469 301.488281 164.535156 300.351562 165.148438 C 298.851562 165.945312 297.410156 166.855469 296.046875 167.867188 Z M 296.046875 167.867188 "/>
        <path style=" stroke:none;fill-rule:nonzero;fill:rgb(100%,89.019608%,79.215686%);fill-opacity:1;"
              d="M 312.84375 170.210938 C 309.96875 164.589844 301.90625 163.796875 297.8125 169.144531 C 294.0625 174.035156 294.511719 186.121094 296.269531 188.988281 C 299.339844 193.996094 308.707031 190.960938 310.53125 188.070312 C 313.191406 183.84375 315.253906 174.941406 312.84375 170.210938 Z M 312.84375 170.210938 "/>
        <path style=" stroke:none;fill-rule:evenodd;fill:rgb(100%,71.764706%,31.372549%);fill-opacity:1;"
              d="M 297.585938 181.828125 C 298.863281 180.945312 300.8125 180.820312 301.863281 181.964844 C 302.421875 182.574219 302.628906 183.414062 302.90625 184.203125 C 303.183594 184.988281 303.59375 185.796875 304.355469 186.132812 C 305.410156 186.589844 306.585938 185.925781 307.542969 185.289062 L 310.804688 183.117188 C 311.308594 182.769531 312.039062 182.421875 312.53125 182.816406 C 313.027344 183.210938 312.890625 183.859375 312.71875 184.402344 C 311.253906 188.855469 307.484375 192.164062 302.878906 193.042969 C 301.148438 193.351562 299.261719 193.265625 297.75 192.359375 C 295.871094 191.238281 294.945312 189.082031 294.644531 186.992188 C 294.371094 185.109375 296.082031 182.835938 297.585938 181.828125 Z M 297.585938 181.828125 "/>
        <path style=" stroke:none;fill-rule:evenodd;fill:rgb(100%,71.764706%,31.372549%);fill-opacity:1;"
              d="M 310.460938 171.355469 C 310.039062 172.179688 309.664062 184.242188 310.011719 184.175781 C 311.253906 183.945312 313.386719 180.988281 315.519531 181.5625 C 316.199219 181.742188 317.03125 182.394531 317.375 181.019531 C 319.386719 172.3125 319.625 172.832031 318.234375 171.703125 C 315.171875 169.234375 311.21875 169.882812 310.460938 171.355469 Z M 310.460938 171.355469 "/>
        <path style=" stroke:none;fill-rule:nonzero;fill:rgb(100%,89.019608%,79.215686%);fill-opacity:1;"
              d="M 317.695312 180.625 C 317.527344 182.074219 316.804688 183.40625 315.679688 184.335938 C 312.460938 186.941406 310.785156 182.15625 311.933594 179.632812 C 313.289062 176.628906 318.140625 176.710938 317.695312 180.625 Z M 317.695312 180.625 "/>
        <path style=" stroke:none;fill-rule:evenodd;fill:rgb(100%,71.764706%,31.372549%);fill-opacity:1;"
              d="M 299.585938 170.320312 C 299.621094 171.128906 299.878906 172.066406 300.632812 172.335938 C 301.390625 172.609375 310.269531 168.136719 310.753906 168.1875 C 311.238281 168.238281 309.957031 171.34375 310.402344 171.808594 C 310.84375 172.273438 311.410156 172.121094 311.972656 172.03125 C 314.371094 171.632812 316.757812 172.265625 319.101562 172.910156 C 319.414062 172.070312 319.46875 171.15625 319.261719 170.28125 C 319.019531 169.597656 318.667969 168.960938 318.226562 168.386719 C 316.347656 165.789062 313.691406 163.566406 310.5625 162.957031 C 308.671875 162.636719 306.738281 162.667969 304.859375 163.042969 C 297.617188 164.347656 299.53125 169.09375 299.585938 170.320312 Z M 299.585938 170.320312 "/>
        <path style=" stroke:none;fill-rule:evenodd;fill:rgb(4.313725%,28.235294%,43.921569%);fill-opacity:1;"
              d="M 238.09375 435.796875 C 237.964844 434.34375 239.34375 433.136719 240.757812 432.773438 C 242.175781 432.410156 243.667969 432.691406 245.121094 432.675781 C 249.375 432.574219 253.238281 430.191406 255.238281 426.433594 C 255.433594 425.898438 255.785156 425.429688 256.246094 425.085938 C 256.964844 424.78125 257.792969 424.933594 258.355469 425.472656 C 258.945312 425.976562 259.363281 426.617188 259.902344 427.15625 C 260.890625 428.125 262.222656 428.65625 263.605469 428.636719 C 264.742188 428.636719 266.023438 427.75 267.132812 428.324219 C 268.097656 428.828125 268.359375 430.171875 268.609375 431.128906 C 269.027344 432.777344 269.414062 434.4375 269.816406 436.089844 C 269.914062 436.457031 269.980469 436.832031 270.019531 437.210938 L 262.089844 437.210938 C 261.722656 436.707031 261.417969 435.195312 261.257812 434.554688 C 261.257812 435.195312 260.980469 436.71875 260.574219 437.210938 L 238.789062 437.210938 C 238.40625 436.832031 238.160156 436.332031 238.09375 435.796875 Z M 238.09375 435.796875 "/>
        <path style=" stroke:none;fill-rule:nonzero;fill:rgb(5.490196%,32.54902%,54.901961%);fill-opacity:1;"
              d="M 321.847656 432.546875 C 318.882812 433.085938 315.832031 432.941406 312.929688 432.128906 C 313.011719 428.628906 313.09375 425.125 313.183594 421.621094 C 313.152344 421.175781 313.238281 420.734375 313.429688 420.335938 C 313.828125 419.808594 314.421875 419.472656 315.078125 419.402344 C 317.488281 418.898438 321.167969 418.636719 321.347656 421.667969 C 321.570312 425.285156 321.679688 428.902344 321.847656 432.546875 Z M 321.847656 432.546875 "/>
        <path style=" stroke:none;fill-rule:evenodd;fill:rgb(4.313725%,28.235294%,43.921569%);fill-opacity:1;"
              d="M 331.152344 293.523438 C 331.066406 282.898438 321.863281 279.34375 313.488281 279.792969 C 311.71875 279.890625 309.972656 280.257812 308.3125 280.882812 C 305.363281 279.878906 302 280.699219 299.460938 282.5 C 296.921875 284.304688 295.066406 287.101562 293.808594 290.011719 C 290.320312 298.074219 290.785156 307.285156 291.941406 316 C 292.914062 323.152344 294.332031 330.238281 296.191406 337.214844 C 297.664062 342.753906 299.210938 349.808594 301.226562 355.515625 C 300.167969 359.664062 311.488281 420.339844 312.3125 422.21875 L 322.464844 421.875 C 323.324219 401.015625 327.503906 374.015625 318.871094 355.996094 C 321.539062 348.9375 323.792969 341.726562 325.609375 334.402344 C 328.820312 321.285156 331.261719 307.105469 331.152344 293.523438 Z M 309.171875 438.113281 C 309.066406 436.667969 309.628906 435.441406 310.246094 435.089844 C 310.859375 434.738281 311.757812 432.265625 312.921875 428.65625 C 313.453125 427.011719 316.734375 426.441406 318.460938 429.191406 C 319.027344 430.089844 319.539062 430.664062 320.140625 430.621094 C 320.644531 430.585938 321.148438 429.695312 321.652344 430.253906 C 322.15625 430.8125 322.25 432.089844 322.390625 433.039062 C 322.632812 434.675781 322.855469 436.328125 323.085938 437.972656 C 323.136719 438.339844 323.191406 438.71875 323.210938 439.097656 L 309.488281 439.554688 C 309.300781 439.09375 309.195312 438.605469 309.171875 438.109375 Z M 309.171875 438.113281 "/>
        <path style=" stroke:none;fill-rule:nonzero;fill:rgb(96.862745%,71.372549%,56.470588%);fill-opacity:1;"
              d="M 317.976562 280.507812 C 316.933594 281.75 320.457031 282.585938 321.699219 283.628906 L 311.722656 284.164062 C 311.128906 284.132812 310.546875 284.3125 310.074219 284.667969 C 309.601562 285.195312 309.515625 285.964844 309.855469 286.585938 C 310.203125 287.1875 310.699219 287.6875 311.292969 288.039062 C 314.519531 290.222656 318.445312 291.121094 322.300781 290.558594 C 323.796875 290.390625 325.21875 289.828125 326.425781 288.929688 C 327.636719 288.003906 328.292969 286.523438 328.167969 285.003906 C 327.863281 282.71875 326.15625 282.679688 324.410156 282.234375 C 323.3125 281.914062 318.332031 280.070312 317.976562 280.507812 Z M 317.976562 280.507812 "/>
        <path style=" stroke:none;fill-rule:nonzero;fill:rgb(5.490196%,32.54902%,54.901961%);fill-opacity:1;"
              d="M 340.777344 215.167969 C 337.089844 210.855469 330.617188 202.417969 319.003906 197.800781 C 312.09375 201.324219 303.148438 200.550781 297.070312 195.238281 C 285.34375 197.757812 276.53125 207.25 274.199219 209.996094 C 271.113281 213.628906 271.921875 219.0625 272.445312 223.441406 C 273.570312 232.832031 268.417969 298.648438 268.183594 300.109375 C 267.953125 301.570312 270.316406 303.242188 271.976562 303.984375 C 273.019531 304.363281 274.125 304.542969 275.234375 304.515625 C 290.277344 305.128906 314.089844 306.140625 329.136719 306.75 C 330.144531 306.789062 331.203125 306.816406 332.039062 306.40625 C 333.890625 305.503906 333.363281 303.339844 332.792969 301.675781 C 328.964844 290.539062 342.417969 226.714844 340.777344 215.167969 Z M 340.777344 215.167969 "/>
        <path style=" stroke:none;fill-rule:nonzero;fill:rgb(100%,100%,100%);fill-opacity:1;"
              d="M 315.96875 196.152344 C 310.773438 200.246094 303.046875 198.222656 297.328125 195.648438 C 295.398438 196.339844 293.621094 197.390625 292.085938 198.746094 C 283.121094 206.832031 285.136719 222.347656 285.03125 232.566406 C 284.964844 240.667969 286.90625 259.707031 288.402344 259.769531 C 291.847656 247.269531 295.347656 234.816406 299.296875 223.542969 C 303.035156 212.878906 311.171875 205.617188 321.316406 198.96875 C 319.664062 197.804688 317.863281 196.855469 315.96875 196.152344 Z M 315.96875 196.152344 "/>
        <path style=" stroke:none;fill-rule:nonzero;fill:rgb(100%,71.764706%,31.372549%);fill-opacity:1;"
              d="M 300.007812 205.289062 C 301.148438 203.980469 302.648438 202.609375 302.394531 200.960938 C 302.132812 199.792969 301.175781 198.90625 299.988281 198.730469 C 295.453125 197.957031 297.34375 202.386719 297.90625 204.328125 C 293.257812 209.871094 287.429688 221.671875 285.019531 235.972656 C 285.097656 244.578125 286.808594 261.988281 288.175781 262.039062 C 290.429688 253.519531 292.707031 245.023438 295.140625 236.902344 C 295.96875 227.433594 297.871094 207.738281 300.007812 205.289062 Z M 300.007812 205.289062 "/>
        <path style=" stroke:none;fill-rule:nonzero;fill:rgb(100%,100%,100%);fill-opacity:1;"
              d="M 292.738281 202.882812 L 296.144531 201.199219 C 296.945312 200.714844 297.871094 200.480469 298.804688 200.519531 C 299.675781 200.699219 300.46875 201.15625 301.0625 201.820312 L 304.214844 204.75 C 304.703125 205.28125 305.328125 205.660156 306.023438 205.847656 C 307.03125 206.042969 307.964844 205.601562 308.777344 205.167969 C 312.339844 203.300781 315.773438 201.199219 319.054688 198.878906 C 319.347656 198.671875 319.660156 198.421875 319.660156 198.117188 C 319.613281 197.84375 319.460938 197.601562 319.242188 197.4375 L 315.289062 193.460938 C 312.179688 194.46875 303.8125 196.734375 300.425781 196.941406 C 297.816406 197.097656 296.835938 193.628906 296.394531 193.789062 C 295.957031 193.949219 295.800781 195.003906 295.671875 195.335938 L 294.304688 198.863281 C 293.78125 200.207031 293.261719 201.546875 292.738281 202.882812 Z M 292.738281 202.882812 "/>
        <path style=" stroke:none;fill-rule:nonzero;fill:rgb(4.313725%,28.235294%,43.921569%);fill-opacity:1;"
              d="M 292.300781 262.179688 C 299.910156 250.808594 309.617188 240.996094 320.90625 233.265625 L 321.503906 232.847656 L 314.582031 228.050781 C 314.582031 228.050781 337.757812 218.835938 321.132812 202.203125 C 331.402344 216.847656 322.847656 222.75 311.964844 227.574219 L 319.554688 232.84375 C 301.203125 245.308594 292.300781 262.179688 292.300781 262.179688 Z M 283.167969 262.179688 C 283.167969 262.179688 275.660156 240.375 275.105469 229.234375 L 281.523438 227.386719 L 278.597656 227.148438 C 277.179688 226.953125 276.015625 225.933594 275.636719 224.550781 C 275.246094 223.175781 275.574219 221.699219 275.992188 220.3125 C 277.941406 213.792969 286.488281 202.382812 286.488281 202.382812 C 280.988281 207.023438 276.9375 213.140625 274.816406 220.015625 C 274.355469 221.527344 274 223.171875 274.453125 224.777344 C 274.804688 225.984375 275.605469 227.007812 276.695312 227.636719 L 273.847656 228.460938 L 273.847656 228.859375 C 274.445312 240.507812 277.628906 251.878906 283.167969 262.148438 Z M 283.167969 262.179688 "/>
        <path style=" stroke:none;fill-rule:nonzero;fill:rgb(100%,100%,100%);fill-opacity:1;"
              d="M 226.472656 273.605469 C 225.410156 274.953125 224.28125 276.628906 224.800781 278.261719 C 225.238281 279.644531 226.773438 280.445312 228.226562 280.472656 C 228.667969 280.472656 233.132812 278.179688 237.9375 275.433594 L 232.242188 267.835938 C 230.199219 269.636719 228.269531 271.5625 226.472656 273.605469 Z M 226.472656 273.605469 "/>
        <path style=" stroke:none;fill-rule:nonzero;fill:rgb(4.313725%,28.235294%,43.921569%);fill-opacity:1;"
              d="M 232.242188 267.832031 L 238 277.167969 C 249.03125 270.84375 267.414062 258.378906 269.703125 253.332031 C 271.355469 249.691406 265.929688 244.84375 262.738281 243.199219 C 259.289062 241.417969 242.230469 258.621094 232.242188 267.832031 Z M 232.242188 267.832031 "/>
        <path style=" stroke:none;fill-rule:nonzero;fill:rgb(93.72549%,71.372549%,56.078431%);fill-opacity:1;"
              d="M 222.914062 284.957031 C 219.457031 284.417969 216.800781 281.605469 216.460938 278.117188 C 216.460938 275.570312 217.140625 273.5 223.675781 272.984375 C 225.832031 272.8125 228.144531 272.910156 229.941406 274.117188 C 235.933594 278.148438 227.75 285.578125 222.914062 284.957031 Z M 222.914062 284.957031 "/>
        <path style=" stroke:none;fill-rule:nonzero;fill:rgb(100%,89.019608%,79.215686%);fill-opacity:1;"
              d="M 329.332031 307.390625 C 328.714844 312.496094 330.683594 316.886719 333.710938 317.308594 C 336.230469 317.609375 336.734375 313.511719 340.335938 308.746094 C 343.417969 304.625 338.996094 299.171875 335.957031 298.824219 C 332.921875 298.476562 329.972656 302.277344 329.332031 307.390625 Z M 329.332031 307.390625 "/>
        <path style=" stroke:none;fill-rule:nonzero;fill:rgb(100%,100%,100%);fill-opacity:1;"
              d="M 332.179688 301.191406 C 333.101562 302.808594 337.085938 302.070312 338.8125 301.363281 C 339.316406 301.164062 339.976562 297.402344 341.574219 293.082031 L 333.453125 291.570312 C 333.175781 295.863281 331.988281 300.859375 332.179688 301.191406 Z M 332.179688 301.191406 "/>
        <path style=" stroke:none;fill-rule:nonzero;fill:rgb(5.490196%,32.54902%,54.901961%);fill-opacity:1;"
              d="M 349.921875 253.660156 C 348.546875 252.53125 346.53125 252.707031 344.8125 253.15625 C 341.921875 253.925781 339.308594 257.691406 337.210938 259.902344 C 335.765625 261.414062 333.714844 285.480469 333.125 294.664062 L 342.835938 297.539062 C 346.753906 286.921875 351.238281 263.835938 351.433594 259.1875 C 351.519531 257.222656 351.464844 254.925781 349.921875 253.660156 Z M 349.921875 253.660156 "/>
        <path style=" stroke:none;fill-rule:nonzero;fill:rgb(5.490196%,32.54902%,54.901961%);fill-opacity:1;"
              d="M 348.835938 230.03125 C 351.730469 241.296875 353.339844 253.296875 350.195312 264.5 C 349.519531 266.917969 348.261719 269.609375 345.8125 270.148438 C 344.34375 270.394531 342.847656 269.972656 341.726562 268.996094 C 340.617188 268.019531 339.707031 266.839844 339.039062 265.523438 C 333.445312 255.449219 333.066406 243.355469 332.847656 231.84375 C 332.757812 227.089844 332.007812 218.878906 335.609375 215.097656 C 339.363281 211.160156 344.175781 217.855469 345.585938 220.757812 C 346.984375 223.730469 348.070312 226.835938 348.835938 230.03125 Z M 348.835938 230.03125 "/>
    </g>
</svg>
