<?xml version="1.0" encoding="UTF-8"?>
<svg xmlns="http://www.w3.org/2000/svg" xmlns:xlink="http://www.w3.org/1999/xlink" width="450px" height="435px"
     viewBox="0 0 449 435" version="1.1">
    <defs>
        <filter id="alpha" filterUnits="objectBoundingBox" x="0%" y="0%" width="100%" height="100%">
            <feColorMatrix type="matrix" in="SourceGraphic" values="0 0 0 0 1 0 0 0 0 1 0 0 0 0 1 0 0 0 1 0"/>
        </filter>
        <mask id="mask0">
            <g filter="url(#alpha)">
                <rect x="0" y="0" width="449" height="435"
                      style="fill:rgb(0%,0%,0%);fill-opacity:0.568627;stroke:none;"/>
            </g>
        </mask>
        <clipPath id="clip1">
            <rect x="0" y="0" width="449" height="435"/>
        </clipPath>
        <g id="surface5" clip-path="url(#clip1)">
            <path style=" stroke:none;fill-rule:nonzero;fill:rgb(80%,91.372549%,100%);fill-opacity:1;"
                  d="M 431.339844 322.4375 C 464.300781 263.414062 451.027344 184.886719 392.359375 139.144531 C 360.242188 114.136719 318.089844 106.101562 286.554688 79.992188 C 251.066406 50.640625 216.101562 15.003906 169.867188 3.859375 C 120.71875 -7.996094 66.585938 9.5625 32.394531 46.492188 C -9.304688 91.394531 -5.097656 154.566406 13.554688 209.574219 C 60.886719 349.003906 247.054688 459.148438 383.425781 372.652344 C 404.46875 359.304688 420.464844 341.941406 431.339844 322.4375 Z M 431.339844 322.4375 "/>
        </g>
    </defs>
    <g id="surface1">
        <use xlink:href="#surface5" mask="url(#mask0)"/>
        <path style=" stroke:none;fill-rule:nonzero;fill:rgb(94.901961%,94.901961%,94.901961%);fill-opacity:1;"
              d="M 205.15625 149.445312 C 205.15625 149.445312 191.558594 168.234375 190.460938 202.574219 C 190.328125 205.945312 191.625 238.40625 193.632812 247.863281 C 194.019531 249.613281 197.0625 251.75 197.0625 245.726562 C 197.0625 239.699219 197.710938 210.089844 198.8125 202.445312 C 199.914062 194.800781 204.898438 169.984375 208.65625 163.960938 "/>
        <path style=" stroke:none;fill-rule:nonzero;fill:rgb(98.823529%,82.352941%,69.411765%);fill-opacity:1;"
              d="M 193.613281 247.863281 C 193.613281 247.863281 195.75 262.894531 196.65625 265.292969 C 197.5625 267.691406 203.132812 266.914062 204.816406 265.226562 C 206.5 263.542969 207.339844 260.628906 206.886719 258.878906 C 206.433594 257.128906 204.296875 258.488281 203.066406 257.324219 C 201.835938 256.15625 199.441406 249.742188 197.042969 247.214844 C 197 247.214844 195.445312 248.578125 193.613281 247.863281 Z M 193.613281 247.863281 "/>
        <path style=" stroke:none;fill-rule:nonzero;fill:rgb(5.490196%,32.54902%,54.901961%);fill-opacity:1;"
              d="M 200.089844 250.78125 C 197.5625 253.046875 191.605469 281.878906 189.792969 302.808594 C 187.980469 323.734375 188.496094 330.796875 190.050781 331.511719 C 191.605469 332.222656 193.675781 330.601562 195.359375 330.601562 C 197.042969 330.601562 198.015625 335.65625 198.46875 338.507812 C 198.921875 341.359375 198.535156 346.28125 200.996094 346.410156 C 203.457031 346.542969 205.914062 346.542969 207.664062 348.484375 C 209.414062 350.429688 212.066406 351.917969 215.175781 350.882812 C 218.285156 349.847656 219.707031 347.511719 220.746094 345.375 C 221.78125 343.238281 217.441406 312.65625 217.636719 302.871094 C 217.832031 293.089844 220.875 292.3125 220.421875 288.164062 C 219.855469 283.886719 214.804688 237.496094 200.089844 250.78125 Z M 200.089844 250.78125 "/>
        <path style=" stroke:none;fill-rule:nonzero;fill:rgb(5.490196%,32.54902%,54.901961%);fill-opacity:1;"
              d="M 217.570312 302.808594 C 217.765625 293.023438 220.808594 292.246094 220.355469 288.101562 C 219.902344 283.953125 214.917969 238.535156 200.542969 250.390625 C 200.542969 250.457031 200.605469 250.519531 200.605469 250.585938 C 206.5 266.394531 203 285.3125 202.09375 301.640625 C 201.316406 315.699219 201.707031 329.4375 198.859375 343.042969 C 199.117188 344.855469 199.570312 346.347656 200.929688 346.410156 C 203.390625 346.542969 205.851562 346.542969 207.597656 348.484375 C 209.347656 350.429688 212.003906 351.917969 215.109375 350.882812 C 218.21875 349.847656 219.644531 347.511719 220.679688 345.375 C 221.714844 343.238281 217.398438 312.65625 217.570312 302.808594 Z M 217.570312 302.808594 "/>
        <path style=" stroke:none;fill-rule:nonzero;fill:rgb(9.411765%,9.019608%,9.019608%);fill-opacity:1;"
              d="M 250.097656 395.914062 C 250.097656 395.914062 254.242188 410.878906 254.371094 417.421875 C 254.5 423.96875 263.046875 433.296875 265.574219 434.722656 C 268.097656 436.148438 268.035156 421.246094 266.609375 416.773438 C 265.183594 412.304688 257.867188 403.105469 256.183594 395.914062 Z M 250.097656 395.914062 "/>
        <path style=" stroke:none;fill-rule:nonzero;fill:rgb(4.313725%,28.235294%,43.921569%);fill-opacity:1;"
              d="M 203.667969 216.765625 C 203.667969 216.765625 205.289062 239.375 205.546875 249.417969 C 205.804688 259.460938 210.078125 305.65625 210.792969 311.359375 C 211.503906 317.0625 221.21875 384.316406 221.21875 388.007812 C 221.21875 391.699219 222.058594 395.914062 225.359375 395.328125 C 230.28125 394.488281 226.851562 371.550781 227.304688 357.816406 C 227.757812 344.078125 226.914062 313.433594 226.007812 307.925781 C 224.453125 298.53125 223.613281 273.78125 223.289062 260.5 C 222.964844 247.214844 225.554688 220.523438 225.554688 220.523438 "/>
        <path style=" stroke:none;fill-rule:nonzero;fill:rgb(4.313725%,28.235294%,43.921569%);fill-opacity:1;"
              d="M 235.703125 210.804688 C 240.105469 223.4375 240.882812 234.648438 240.492188 247.476562 C 239.523438 280.195312 245.542969 309.871094 246.96875 314.082031 C 248.910156 319.976562 253.121094 348.875 253.445312 366.625 C 253.769531 384.378906 258.300781 397.335938 255.453125 398.308594 C 253.1875 399.023438 250.726562 399.671875 249.105469 393.902344 C 247.550781 388.398438 234.925781 336.5 231.234375 317.386719 C 228.902344 305.398438 221.910156 270.085938 215.433594 246.699219 C 214.851562 244.625 209.800781 239.183594 208.117188 235.035156 C 206.886719 232.054688 204.167969 220.585938 203.777344 218.578125 "/>
        <path style=" stroke:none;fill-rule:nonzero;fill:rgb(96.862745%,96.862745%,96.862745%);fill-opacity:1;"
              d="M 201.335938 203.480469 C 201.855469 207.5 202.828125 215.210938 203.863281 219.355469 C 206.066406 228.363281 221.734375 225.707031 225.75 225.1875 C 229.183594 224.734375 235.851562 220.78125 237.859375 217.929688 C 237.859375 217.929688 236.886719 211 236.886719 207.824219 C 237.144531 190.394531 240.644531 176.851562 247.441406 160.785156 C 248.867188 157.414062 250.484375 153.722656 249.515625 150.222656 C 248.800781 147.632812 247.117188 146.53125 244.332031 145.496094 C 241.644531 144.578125 238.867188 143.949219 236.046875 143.617188 C 224.714844 142.253906 207.878906 143.808594 204.058594 150.742188 C 197.777344 162.339844 199.136719 185.925781 201.335938 203.480469 Z M 201.335938 203.480469 "/>
        <path style=" stroke:none;fill-rule:nonzero;fill:rgb(100%,89.019608%,79.215686%);fill-opacity:1;"
              d="M 217.007812 130.203125 C 217.65625 135.320312 218.304688 140.441406 218.886719 145.558594 C 218.949219 146.011719 219.210938 150.613281 219.46875 151.066406 C 220.117188 152.039062 220.441406 151.714844 221.539062 151.453125 C 222.125 151.324219 225.101562 145.558594 225.359375 144.652344 C 226.007812 142.058594 228.921875 122.363281 229.246094 117.308594 "/>
        <path style=" stroke:none;fill-rule:nonzero;fill:rgb(98.823529%,82.352941%,69.411765%);fill-opacity:1;"
              d="M 227.042969 134.480469 C 228.015625 127.9375 229.050781 120.160156 229.246094 117.246094 L 217.007812 130.203125 L 217.851562 137.007812 C 221.003906 136.523438 224.089844 135.675781 227.042969 134.480469 Z M 227.042969 134.480469 "/>
        <path style=" stroke:none;fill-rule:nonzero;fill:rgb(100%,89.019608%,79.215686%);fill-opacity:1;"
              d="M 200.171875 93.207031 C 199.773438 100.285156 199.792969 107.382812 200.238281 114.460938 C 200.625 121.066406 201.46875 127.9375 204.769531 133.703125 C 205.113281 134.398438 205.597656 135.019531 206.195312 135.515625 C 206.75 135.878906 207.363281 136.140625 208.007812 136.292969 C 211.308594 137.007812 214.871094 135.96875 217.71875 134.089844 C 220.570312 132.210938 222.835938 129.621094 224.972656 126.964844 C 228.339844 122.882812 231.640625 118.542969 233.003906 113.421875 C 233.402344 111.867188 233.707031 110.285156 233.910156 108.691406 C 234.707031 104.109375 235.183594 99.476562 235.332031 94.828125 C 235.4375 92.542969 235.039062 90.265625 234.167969 88.152344 C 232.847656 85.707031 230.601562 83.894531 227.933594 83.121094 C 225.292969 82.363281 222.5 82.320312 219.835938 82.988281 "/>
        <path style=" stroke:none;fill-rule:nonzero;fill:rgb(100%,89.019608%,79.215686%);fill-opacity:1;"
              d="M 233.757812 104.675781 C 234.925781 102.730469 237.125 101.695312 239.394531 101.371094 C 240.417969 101.183594 241.476562 101.292969 242.4375 101.695312 C 243.78125 102.402344 244.605469 103.804688 244.574219 105.324219 C 244.503906 106.828125 243.855469 108.246094 242.761719 109.277344 C 241.644531 110.28125 240.28125 110.976562 238.808594 111.285156 C 237.359375 111.589844 235.886719 111.761719 234.40625 111.804688 C 233.59375 111.894531 232.769531 111.785156 232.011719 111.480469 "/>
        <path style=" stroke:none;fill-rule:nonzero;fill:rgb(100%,74.509804%,33.333333%);fill-opacity:1;"
              d="M 195.1875 93.921875 C 197 98.457031 206.839844 97.289062 211.957031 95.667969 C 217.074219 94.050781 221.992188 91.71875 227.238281 90.421875 C 227.59375 90.304688 227.972656 90.28125 228.339844 90.355469 C 228.859375 90.550781 229.117188 91.199219 229.3125 91.71875 C 231.773438 99.75 228.273438 108.757812 231.902344 116.339844 C 235.917969 107.398438 238.570312 96.253906 241.226562 86.015625 C 241.679688 84.265625 242.066406 82.128906 240.902344 80.703125 C 240.058594 79.730469 238.765625 79.34375 237.664062 78.628906 C 236.304688 77.722656 235.398438 76.363281 234.234375 75.324219 C 230.347656 72.085938 224.453125 73.445312 219.792969 75.324219 C 212.292969 78.347656 205.183594 82.261719 198.617188 86.988281 C 196.351562 88.671875 193.890625 91.394531 195.1875 93.921875 "/>
        <path style=" stroke:none;fill-rule:nonzero;fill:rgb(33.333333%,9.803922%,1.960784%);fill-opacity:1;"
              d="M 203.734375 111.867188 C 202.402344 111.878906 201.121094 111.359375 200.171875 110.421875 C 199.222656 109.488281 198.6875 108.210938 198.683594 106.878906 C 198.675781 104.097656 200.890625 101.824219 203.667969 101.761719 L 203.734375 101.761719 C 205.066406 101.75 206.347656 102.269531 207.296875 103.203125 C 208.242188 104.140625 208.777344 105.417969 208.785156 106.75 C 208.75 109.535156 206.519531 111.796875 203.734375 111.867188 Z M 203.734375 102.34375 C 201.285156 102.34375 199.296875 104.332031 199.296875 106.78125 C 199.296875 109.234375 201.285156 111.21875 203.734375 111.21875 C 204.914062 111.226562 206.042969 110.730469 206.839844 109.859375 C 207.683594 109.019531 208.152344 107.875 208.136719 106.683594 C 208.144531 105.5 207.648438 104.371094 206.777344 103.574219 C 205.964844 102.777344 204.871094 102.335938 203.734375 102.34375 Z M 203.734375 102.34375 "/>
        <path style=" stroke:none;fill-rule:nonzero;fill:rgb(33.333333%,9.803922%,1.960784%);fill-opacity:1;"
              d="M 215.066406 106.488281 C 210.402344 104.15625 208.785156 106.359375 208.71875 106.488281 L 208.203125 106.164062 C 208.265625 106.035156 210.207031 103.445312 215.324219 106.035156 Z M 215.066406 106.488281 "/>
        <path style=" stroke:none;fill-rule:nonzero;fill:rgb(33.333333%,9.803922%,1.960784%);fill-opacity:1;"
              d="M 219.921875 111.804688 C 218.589844 111.816406 217.308594 111.296875 216.359375 110.359375 C 215.414062 109.421875 214.875 108.148438 214.871094 106.8125 C 214.863281 104.035156 217.078125 101.757812 219.855469 101.695312 L 219.921875 101.695312 C 221.253906 101.683594 222.535156 102.203125 223.484375 103.140625 C 224.433594 104.074219 224.96875 105.351562 224.972656 106.683594 C 224.984375 108.035156 224.457031 109.332031 223.511719 110.292969 C 222.5625 111.253906 221.269531 111.796875 219.921875 111.804688 Z M 219.921875 102.277344 C 218.71875 102.257812 217.5625 102.753906 216.75 103.640625 C 215.480469 104.914062 215.105469 106.832031 215.800781 108.492188 C 216.496094 110.152344 218.121094 111.230469 219.921875 111.21875 L 219.988281 111.21875 C 221.164062 111.214844 222.289062 110.738281 223.117188 109.902344 C 223.945312 109.0625 224.402344 107.925781 224.390625 106.75 C 224.292969 104.320312 222.347656 102.375 219.921875 102.277344 Z M 219.921875 102.277344 "/>
        <path style=" stroke:none;fill-rule:nonzero;fill:rgb(94.901961%,94.901961%,94.901961%);fill-opacity:1;"
              d="M 245.5 146.011719 C 249.320312 147.242188 251.261719 152.296875 252.039062 154.433594 C 263.890625 189.164062 267.582031 223.179688 266.414062 259.527344 C 265.25 260.628906 263.113281 260.046875 262.140625 258.75 C 261.167969 257.453125 260.976562 255.703125 260.78125 254.085938 C 260.261719 249.226562 259.550781 244.300781 258.902344 239.441406 C 258.320312 235.488281 257.800781 231.472656 257.21875 227.519531 C 255.34375 214.238281 253.464844 200.957031 250.550781 187.933594 C 248.671875 179.769531 246.339844 171.476562 241.679688 164.476562 "/>
        <path style=" stroke:none;fill-rule:nonzero;fill:rgb(100%,74.509804%,33.333333%);fill-opacity:1;"
              d="M 215.777344 202.640625 C 212.605469 200.242188 211.246094 194.28125 211.050781 191.429688 C 210.855469 188.582031 216.75 159.230469 218.691406 156.25 C 220.632812 153.269531 221.539062 153.980469 222.125 156.25 C 222.707031 158.515625 221.734375 186.507812 221.863281 191.496094 C 221.992188 196.484375 216.925781 203.546875 215.777344 202.640625 Z M 215.777344 202.640625 "/>
        <path style=" stroke:none;fill-rule:nonzero;fill:rgb(94.901961%,94.901961%,94.901961%);fill-opacity:1;"
              d="M 220.570312 152.167969 C 219.921875 149.640625 219.402344 145.6875 218.757812 143.160156 C 218.691406 142.96875 218.691406 142.835938 218.496094 142.707031 C 218.304688 142.578125 218.109375 142.644531 217.914062 142.644531 C 216.351562 142.890625 214.769531 142.976562 213.1875 142.902344 C 215.257812 146.28125 217.738281 149.394531 220.570312 152.167969 M 220.570312 152.167969 C 221.671875 149.445312 224.84375 145.039062 225.945312 142.253906 C 226.007812 142.058594 226.074219 141.867188 226.269531 141.800781 C 226.472656 141.703125 226.710938 141.703125 226.914062 141.800781 C 228.660156 142.253906 230.433594 142.582031 232.226562 142.773438 C 229.375 146.273438 224.972656 150.417969 220.570312 152.167969 "/>
        <path style=" stroke:none;fill-rule:nonzero;fill:rgb(100%,74.509804%,33.333333%);fill-opacity:1;"
              d="M 216.8125 150.675781 C 218.757812 148.929688 222.511719 149.707031 224.648438 150.675781 C 224.851562 150.730469 225.019531 150.875 225.101562 151.066406 C 225.21875 151.308594 225.242188 151.585938 225.167969 151.84375 C 224.914062 153.148438 224.433594 154.398438 223.742188 155.535156 C 223.460938 156.089844 223.035156 156.558594 222.511719 156.898438 C 221.933594 157.117188 221.316406 157.207031 220.699219 157.15625 C 220.136719 157.167969 219.574219 157.144531 219.015625 157.09375 C 218.75 157.117188 218.480469 157.074219 218.238281 156.960938 C 217.914062 156.734375 217.703125 156.382812 217.65625 155.992188 C 217.265625 154.757812 216.359375 152.554688 216.8125 150.675781 "/>
        <path style=" stroke:none;fill-rule:nonzero;fill:rgb(9.411765%,9.019608%,9.019608%);fill-opacity:1;"
              d="M 221.863281 392.738281 C 219.117188 396.351562 215.316406 399.023438 210.984375 400.382812 C 204.574219 402.519531 192.273438 403.105469 187.546875 403.296875 C 182.816406 403.492188 177.832031 408.675781 178.027344 409.519531 C 178.222656 410.359375 196.351562 410.878906 197.90625 410.8125 C 199.460938 410.75 211.050781 406.148438 214.484375 406.148438 C 217.914062 406.148438 224.261719 407.703125 227.109375 407.054688 C 229.957031 406.410156 232.09375 405.632812 231.449219 403.753906 C 230.800781 401.875 227.433594 392.21875 227.433594 392.21875 C 227.433594 392.21875 226.851562 393.46875 221.863281 392.738281 Z M 221.863281 392.738281 "/>
        <path style=" stroke:none;fill-rule:nonzero;fill:rgb(100%,89.019608%,79.215686%);fill-opacity:1;"
              d="M 261.234375 256.933594 C 261.234375 256.933594 261.105469 263.414062 257.933594 264.320312 C 254.757812 265.226562 255.535156 271.707031 255.210938 273.523438 C 254.890625 275.335938 255.925781 276.046875 257.347656 276.566406 C 258.773438 277.085938 259.875 278.058594 260.847656 277.863281 C 261.816406 277.667969 262.269531 275.984375 262.984375 274.882812 C 263.695312 273.78125 262.917969 271.902344 261.625 273.390625 C 260.328125 274.882812 258.902344 275.207031 258.644531 274.234375 C 258.386719 273.261719 259.226562 271.320312 260.199219 271.125 C 261.167969 270.929688 266.414062 260.5 266.414062 259.527344 C 266.414062 258.554688 266.480469 257.195312 266.480469 257.195312 C 266.480469 257.195312 263.371094 258.488281 261.234375 256.933594 Z M 261.234375 256.933594 "/>
        <path style=" stroke:none;fill-rule:nonzero;fill:rgb(94.901961%,94.901961%,94.901961%);fill-opacity:1;"
              d="M 248.996094 282.527344 C 248.972656 280.773438 249.214844 279.027344 249.707031 277.34375 C 250.171875 275.621094 251.351562 274.183594 252.945312 273.390625 C 254.152344 272.96875 255.425781 272.769531 256.703125 272.808594 C 262.398438 272.679688 268.164062 272.613281 273.863281 272.484375 C 274.832031 272.484375 275.933594 272.484375 276.710938 273.132812 C 277.175781 273.640625 277.488281 274.269531 277.617188 274.945312 C 278.199219 277.667969 277.875 280.453125 277.550781 283.175781 C 277.546875 283.40625 277.480469 283.628906 277.359375 283.824219 C 277.234375 283.964844 277.082031 284.078125 276.90625 284.148438 C 276.121094 284.523438 275.292969 284.808594 274.445312 284.988281 C 274.277344 285.054688 274.09375 285.054688 273.925781 284.988281 C 273.734375 284.90625 273.589844 284.738281 273.539062 284.535156 C 273.019531 283.433594 273.019531 282.140625 272.761719 280.90625 C 272.648438 279.667969 272.011719 278.535156 271.011719 277.796875 C 270.257812 277.398438 269.402344 277.21875 268.550781 277.28125 C 264.859375 277.148438 261.167969 277.34375 257.480469 277.539062 C 256.675781 277.515625 255.882812 277.742188 255.210938 278.1875 C 254.617188 278.761719 254.289062 279.5625 254.304688 280.390625 C 254.175781 281.75 254.371094 283.109375 253.917969 284.40625 C 253.464844 285.703125 252.105469 286.804688 250.808594 286.285156 C 249.382812 285.765625 249.320312 283.886719 248.996094 282.527344 "/>
        <path style=" stroke:none;fill-rule:nonzero;fill:rgb(100%,74.509804%,33.333333%);fill-opacity:1;"
              d="M 233.519531 285.269531 C 251.78125 284.039062 270.042969 283.195312 288.300781 282.742188 C 289.726562 282.675781 291.214844 282.675781 292.511719 283.390625 C 293.539062 284.074219 294.402344 284.984375 295.035156 286.046875 C 300.863281 295.050781 301.253906 306.714844 301.382812 317.597656 C 301.445312 320.578125 301.445312 323.558594 301.511719 326.605469 C 301.511719 328.613281 301.511719 330.75 300.34375 332.308594 C 299.050781 334.121094 296.65625 334.574219 294.519531 334.898438 C 282.085938 336.519531 269.523438 336.519531 256.960938 336.582031 C 250.355469 336.582031 243.75 336.648438 237.144531 336.648438 C 235.332031 336.648438 233.390625 336.648438 231.902344 335.480469 C 230.023438 334.054688 229.503906 331.464844 229.183594 329.066406 C 227.109375 314.359375 228.46875 299.003906 233.519531 285.269531 "/>
        <path style=" stroke:none;fill-rule:nonzero;fill:rgb(5.490196%,32.54902%,54.901961%);fill-opacity:1;"
              d="M 301.253906 316.414062 C 285.582031 321.660156 268.679688 323.929688 252.296875 321.335938 C 245.109375 320.171875 238.3125 317.773438 235.398438 310.648438 C 232.226562 302.808594 233.195312 293.929688 233.324219 285.636719 C 228.40625 299.308594 227.109375 314.535156 229.050781 328.984375 C 229.375 331.378906 229.894531 334.035156 231.773438 335.398438 C 233.261719 336.5 235.203125 336.5625 237.015625 336.5625 C 243.621094 336.5625 250.226562 336.5 256.832031 336.5 C 269.394531 336.433594 281.957031 336.433594 294.386719 334.8125 C 296.523438 334.554688 298.921875 334.101562 300.214844 332.222656 C 301.382812 330.667969 301.382812 328.53125 301.382812 326.519531 C 301.316406 323.539062 301.316406 320.558594 301.253906 317.515625 Z M 301.253906 316.414062 "/>
        <path style=" stroke:none;fill-rule:nonzero;fill:rgb(94.901961%,94.901961%,94.901961%);fill-opacity:1;"
              d="M 258.367188 326.003906 C 258.367188 326.003906 258.625 319.589844 258.042969 318.097656 C 257.460938 316.609375 253.378906 316.996094 252.992188 318.292969 C 252.601562 319.589844 251.695312 326.652344 253.316406 326.84375 C 254.933594 327.039062 257.800781 327.296875 258.367188 326.003906 Z M 281.160156 317.320312 C 281.160156 317.320312 280.835938 323.734375 281.351562 325.226562 C 281.871094 326.714844 286.015625 326.328125 286.402344 325.09375 C 286.792969 323.863281 287.828125 316.800781 286.144531 316.542969 C 284.460938 316.285156 281.761719 316.023438 281.179688 317.320312 Z M 281.160156 317.320312 "/>
        <path style=" stroke:none;fill-rule:nonzero;fill:rgb(100%,89.019608%,79.215686%);fill-opacity:1;"
              d="M 259.875 271.253906 C 259.875 271.253906 262.078125 270.929688 261.625 274.167969 C 261.167969 277.410156 260.457031 279.613281 259.484375 280.128906 C 258.515625 280.648438 258.902344 281.816406 260.199219 281.816406 C 261.363281 281.871094 262.496094 281.425781 263.308594 280.582031 C 263.3125 280.980469 263.503906 281.351562 263.816406 281.59375 C 264.132812 281.832031 264.542969 281.914062 264.925781 281.816406 C 266.480469 281.554688 266.933594 280.777344 266.933594 280.777344 C 266.933594 280.777344 267.320312 281.683594 267.902344 281.816406 C 268.839844 281.859375 269.742188 281.476562 270.363281 280.777344 L 270.753906 280.128906 C 270.753906 280.128906 270.949219 280.777344 272.113281 280.648438 C 273.277344 280.519531 273.730469 278.769531 274.25 277.605469 C 274.769531 276.4375 275.867188 274.363281 275.933594 273.261719 C 276 272.160156 266.21875 265.550781 266.414062 258.683594 L 263.566406 261.601562 Z M 259.875 271.253906 "/>
        <path style=" stroke:none;fill-rule:nonzero;fill:rgb(100%,74.509804%,33.333333%);fill-opacity:1;"
              d="M 123.570312 40.207031 C 111.980469 36.226562 99.265625 37.1875 88.40625 42.863281 L 109.128906 82.710938 L 66.652344 68.21875 C 58.625 91.699219 71.152344 117.242188 94.625 125.257812 C 118.09375 133.273438 143.617188 120.722656 151.613281 97.234375 C 159.609375 73.742188 147.050781 48.214844 123.570312 40.226562 Z M 123.570312 40.207031 "/>
        <path style=" stroke:none;fill-rule:nonzero;fill:rgb(100%,74.509804%,33.333333%);fill-opacity:1;"
              d="M 60.371094 62.691406 C 64.0625 51.742188 71.863281 42.65625 82.125 37.359375 L 102.847656 77.203125 Z M 385.691406 79.082031 C 385.453125 79.09375 385.210938 79.070312 384.976562 79.019531 C 382.246094 78.578125 380.355469 76.050781 380.703125 73.304688 C 381.050781 70.558594 383.507812 68.578125 386.261719 68.828125 C 389.019531 69.082031 391.078125 71.46875 390.925781 74.234375 C 390.769531 76.996094 388.457031 79.140625 385.691406 79.082031 Z M 385.625 70.53125 C 384.066406 70.53125 382.777344 71.742188 382.675781 73.296875 C 382.574219 74.851562 383.691406 76.222656 385.238281 76.425781 C 386.019531 76.527344 386.808594 76.320312 387.4375 75.84375 C 388.082031 75.394531 388.484375 74.679688 388.539062 73.898438 C 388.644531 73.125 388.4375 72.34375 387.964844 71.722656 C 387.488281 71.101562 386.789062 70.695312 386.015625 70.59375 C 385.886719 70.59375 385.753906 70.53125 385.625 70.53125 Z M 352.859375 109.925781 C 352.621094 109.933594 352.382812 109.914062 352.148438 109.859375 C 350.683594 109.664062 349.355469 108.894531 348.457031 107.722656 C 347.558594 106.5625 347.164062 105.09375 347.355469 103.640625 C 347.550781 102.171875 348.320312 100.84375 349.492188 99.945312 C 350.652344 99.046875 352.121094 98.652344 353.574219 98.84375 C 355.804688 99.128906 357.640625 100.738281 358.222656 102.910156 C 358.804688 105.082031 358.015625 107.394531 356.226562 108.757812 C 355.269531 109.511719 354.082031 109.921875 352.859375 109.925781 Z M 352.796875 101.4375 C 352.144531 101.429688 351.507812 101.636719 350.984375 102.019531 C 350.339844 102.46875 349.9375 103.183594 349.882812 103.964844 C 349.78125 104.746094 349.988281 105.535156 350.464844 106.164062 C 350.914062 106.808594 351.625 107.210938 352.40625 107.265625 C 353.1875 107.335938 353.964844 107.128906 354.609375 106.683594 C 355.25 106.234375 355.65625 105.523438 355.710938 104.742188 C 355.816406 103.96875 355.605469 103.183594 355.132812 102.5625 C 354.660156 101.945312 353.957031 101.539062 353.183594 101.4375 Z M 323.121094 81.546875 C 322.878906 81.554688 322.640625 81.535156 322.40625 81.480469 C 319.367188 81.085938 317.222656 78.300781 317.617188 75.261719 C 318.007812 72.21875 320.792969 70.074219 323.832031 70.464844 C 326.871094 70.859375 329.015625 73.644531 328.625 76.6875 C 328.242188 79.445312 325.902344 81.511719 323.121094 81.546875 Z M 320.140625 75.585938 C 319.925781 77.195312 321.058594 78.675781 322.667969 78.890625 C 324.277344 79.105469 325.753906 77.972656 325.96875 76.363281 C 326.183594 74.75 325.050781 73.273438 323.441406 73.058594 C 322.671875 72.953125 321.886719 73.160156 321.265625 73.632812 C 320.648438 74.109375 320.242188 74.8125 320.140625 75.585938 Z M 286.8125 124.585938 C 286.574219 124.597656 286.332031 124.574219 286.101562 124.519531 C 283.058594 124.128906 280.914062 121.34375 281.308594 118.300781 C 281.503906 116.835938 282.269531 115.507812 283.445312 114.609375 C 284.601562 113.710938 286.070312 113.3125 287.523438 113.507812 C 288.988281 113.703125 290.316406 114.46875 291.214844 115.644531 C 292.113281 116.804688 292.507812 118.273438 292.316406 119.726562 C 292.105469 121.1875 291.339844 122.511719 290.179688 123.417969 C 289.21875 124.175781 288.035156 124.585938 286.8125 124.585938 Z M 283.832031 118.691406 C 283.730469 119.464844 283.9375 120.246094 284.410156 120.867188 C 284.882812 121.488281 285.585938 121.894531 286.359375 121.996094 C 287.140625 122.097656 287.929688 121.886719 288.558594 121.410156 C 289.203125 120.964844 289.605469 120.25 289.660156 119.46875 C 289.730469 118.6875 289.523438 117.90625 289.078125 117.265625 C 288.628906 116.621094 287.917969 116.21875 287.136719 116.164062 C 286.355469 116.0625 285.5625 116.269531 284.933594 116.746094 C 284.316406 117.214844 283.917969 117.917969 283.832031 118.691406 Z M 283.832031 118.691406 "/>
        <path style=" stroke:none;fill-rule:nonzero;fill:rgb(100%,74.509804%,33.333333%);fill-opacity:1;"
              d="M 354.597656 100.046875 L 382.890625 76.332031 L 384.554688 78.320312 L 356.261719 102.035156 Z M 354.597656 100.046875 "/>
        <path style=" stroke:none;fill-rule:nonzero;fill:rgb(100%,74.509804%,33.333333%);fill-opacity:1;"
              d="M 325.289062 79.75 L 327.136719 77.933594 L 350.109375 101.308594 L 348.261719 103.125 Z M 325.289062 79.75 "/>
        <path style=" stroke:none;fill-rule:nonzero;fill:rgb(100%,74.509804%,33.333333%);fill-opacity:1;"
              d="M 287.839844 114.496094 L 318.292969 77.144531 L 320.300781 78.78125 L 289.847656 116.132812 Z M 287.839844 114.496094 "/>
        <path style=" stroke:none;fill-rule:nonzero;fill:rgb(100%,74.509804%,33.333333%);fill-opacity:1;"
              d="M 317.765625 230.371094 L 332.074219 230.371094 L 332.074219 272.226562 L 317.765625 272.226562 Z M 317.765625 230.371094 "/>
        <path style=" stroke:none;fill-rule:nonzero;fill:rgb(16.470588%,58.039216%,95.686275%);fill-opacity:1;"
              d="M 340.558594 222.078125 L 354.867188 222.078125 L 354.867188 272.226562 L 340.558594 272.226562 Z M 340.558594 222.078125 "/>
        <path style=" stroke:none;fill-rule:nonzero;fill:rgb(4.313725%,28.235294%,43.921569%);fill-opacity:1;"
              d="M 363.414062 214.367188 L 377.726562 214.367188 L 377.726562 272.226562 L 363.414062 272.226562 Z M 363.414062 214.367188 "/>
        <path style=" stroke:none;fill-rule:nonzero;fill:rgb(4.313725%,28.235294%,43.921569%);fill-opacity:1;"
              d="M 387.050781 273.605469 L 308.699219 273.605469 C 307.984375 273.605469 307.402344 273.027344 307.402344 272.308594 C 307.402344 271.59375 307.984375 271.015625 308.699219 271.015625 L 385.820312 271.015625 L 385.820312 204.519531 C 385.820312 203.804688 386.398438 203.222656 387.113281 203.222656 C 387.832031 203.222656 388.410156 203.804688 388.410156 204.519531 L 388.410156 272.308594 C 388.355469 273.027344 387.769531 273.589844 387.050781 273.605469 Z M 387.050781 273.605469 "/>
        <path style=" stroke:none;fill-rule:nonzero;fill:rgb(5.490196%,32.54902%,54.901961%);fill-opacity:1;"
              d="M 79.601562 297.363281 C 78.035156 297.375 76.519531 296.820312 75.328125 295.808594 C 73.996094 294.691406 73.179688 293.074219 73.0625 291.339844 C 72.914062 289.597656 73.476562 287.871094 74.617188 286.542969 C 75.734375 285.214844 77.347656 284.394531 79.082031 284.277344 C 82.695312 283.992188 85.855469 286.6875 86.140625 290.300781 C 86.425781 293.917969 83.730469 297.078125 80.121094 297.363281 Z M 79.601562 286.804688 L 79.277344 286.804688 C 77.023438 286.890625 75.25 288.769531 75.296875 291.027344 C 75.339844 293.285156 77.183594 295.09375 79.441406 295.09375 C 81.695312 295.09375 83.539062 293.285156 83.582031 291.027344 C 83.628906 288.769531 81.855469 286.890625 79.601562 286.804688 Z M 124.539062 265.941406 C 121.636719 265.9375 119.082031 264.023438 118.261719 261.238281 C 117.441406 258.449219 118.550781 255.457031 120.988281 253.878906 C 123.425781 252.300781 126.609375 252.515625 128.8125 254.410156 C 130.144531 255.527344 130.964844 257.144531 131.082031 258.878906 C 131.226562 260.621094 130.667969 262.347656 129.527344 263.671875 C 128.40625 265.003906 126.792969 265.824219 125.058594 265.941406 Z M 124.539062 255.378906 L 124.214844 255.378906 C 121.960938 255.46875 120.191406 257.347656 120.234375 259.605469 C 120.277344 261.863281 122.121094 263.671875 124.378906 263.671875 C 126.636719 263.671875 128.476562 261.863281 128.523438 259.605469 C 128.566406 257.347656 126.796875 255.46875 124.539062 255.378906 Z M 53.699219 217.886719 C 51.140625 217.886719 48.8125 216.398438 47.742188 214.074219 C 46.671875 211.75 47.050781 209.011719 48.714844 207.066406 C 49.832031 205.734375 51.445312 204.914062 53.183594 204.796875 C 54.921875 204.652344 56.648438 205.210938 57.972656 206.351562 C 59.304688 207.472656 60.121094 209.085938 60.238281 210.824219 C 60.402344 212.5625 59.851562 214.296875 58.71875 215.625 C 57.585938 216.957031 55.960938 217.769531 54.21875 217.886719 Z M 53.699219 207.324219 L 53.375 207.324219 C 52.328125 207.410156 51.355469 207.898438 50.65625 208.683594 C 49.949219 209.480469 49.617188 210.542969 49.75 211.601562 C 49.929688 213.785156 51.84375 215.40625 54.023438 215.230469 C 56.207031 215.050781 57.828125 213.136719 57.648438 210.953125 C 57.488281 208.890625 55.765625 207.300781 53.699219 207.304688 Z M 53.699219 207.324219 "/>
        <path style=" stroke:none;fill-rule:nonzero;fill:rgb(5.490196%,32.54902%,54.901961%);fill-opacity:1;"
              d="M 80.4375 285.636719 L 77.847656 285.441406 L 80.507812 253.5 L 55.183594 216.699219 L 57.253906 215.210938 L 83.164062 252.789062 Z M 80.4375 285.636719 "/>
        <path style=" stroke:none;fill-rule:nonzero;fill:rgb(5.490196%,32.54902%,54.901961%);fill-opacity:1;"
              d="M 81.738281 254.375 L 81.984375 251.792969 L 120.078125 255.429688 L 119.832031 258.011719 Z M 81.738281 254.375 "/>
        <path style=" stroke:none;fill-rule:nonzero;fill:rgb(100%,74.509804%,33.333333%);fill-opacity:1;"
              d="M 174.660156 195.964844 C 173.753906 196.226562 173.300781 195.773438 173.171875 194.929688 C 172.78125 193.117188 171.808594 191.949219 169.804688 192.015625 C 168.121094 192.078125 167.472656 193.246094 167.730469 194.085938 C 168.441406 197.585938 181.199219 196.550781 181.328125 206.722656 C 181.394531 207.824219 180.679688 213.980469 173.753906 215.597656 L 173.753906 218.449219 C 173.804688 218.824219 173.679688 219.199219 173.410156 219.46875 C 173.144531 219.734375 172.765625 219.863281 172.394531 219.808594 L 167.210938 219.808594 C 166.304688 219.875 165.851562 219.355469 165.851562 218.449219 L 165.851562 215.402344 C 160.671875 213.914062 159.570312 209.378906 159.3125 206.59375 C 159.234375 205.882812 159.714844 205.234375 160.414062 205.101562 L 165.269531 203.9375 C 166.113281 203.742188 166.566406 204.066406 166.695312 204.972656 C 166.953125 207.109375 167.601562 208.339844 170.125 208.277344 C 172.652344 208.210938 173.300781 206.722656 173.105469 205.816406 C 172.199219 201.992188 160.089844 203.804688 159.894531 193.570312 C 159.832031 192.46875 159.960938 186.441406 166.242188 184.691406 L 166.242188 181.84375 C 166.199219 181.46875 166.328125 181.097656 166.59375 180.835938 C 166.859375 180.570312 167.230469 180.441406 167.601562 180.480469 L 172.78125 180.480469 C 173.15625 180.429688 173.53125 180.554688 173.800781 180.824219 C 174.066406 181.089844 174.195312 181.46875 174.140625 181.84375 L 174.140625 184.84375 C 179.257812 186.332031 180.421875 190.609375 180.617188 193.199219 C 180.691406 193.535156 180.625 193.890625 180.425781 194.171875 C 180.230469 194.457031 179.921875 194.644531 179.582031 194.691406 Z M 174.660156 195.964844 "/>
        <path style=" stroke:none;fill-rule:nonzero;fill:rgb(96.862745%,96.862745%,96.862745%);fill-opacity:1;"
              d="M 128.683594 85.171875 C 127.777344 85.433594 127.324219 84.980469 127.195312 84.136719 C 126.804688 82.324219 125.835938 81.15625 123.828125 81.222656 C 122.144531 81.285156 121.496094 82.453125 121.753906 83.292969 C 122.46875 86.792969 135.222656 85.757812 135.355469 95.929688 C 135.417969 97.03125 134.707031 103.1875 127.777344 104.804688 L 127.777344 107.65625 C 127.832031 108.03125 127.703125 108.40625 127.4375 108.675781 C 127.167969 108.941406 126.792969 109.070312 126.417969 109.015625 L 121.238281 109.015625 C 120.332031 109.082031 119.878906 108.5625 119.878906 107.65625 L 119.878906 104.609375 C 114.699219 103.121094 113.597656 98.585938 113.335938 95.800781 C 113.257812 95.089844 113.738281 94.441406 114.4375 94.308594 L 119.296875 93.144531 C 120.136719 92.949219 120.589844 93.273438 120.71875 94.179688 C 120.980469 96.316406 121.625 97.546875 124.152344 97.484375 C 126.675781 97.417969 127.324219 95.929688 127.128906 95.023438 C 126.222656 91.199219 114.113281 93.011719 113.921875 82.777344 C 113.855469 81.675781 113.984375 75.648438 120.265625 73.898438 L 120.265625 71.050781 C 120.226562 70.675781 120.355469 70.304688 120.621094 70.042969 C 120.882812 69.777344 121.253906 69.648438 121.625 69.6875 L 126.804688 69.6875 C 127.179688 69.636719 127.558594 69.761719 127.824219 70.03125 C 128.09375 70.296875 128.21875 70.675781 128.167969 71.050781 L 128.167969 74.050781 C 133.28125 75.539062 134.449219 79.816406 134.640625 82.40625 C 134.71875 82.742188 134.648438 83.097656 134.453125 83.378906 C 134.253906 83.664062 133.949219 83.851562 133.605469 83.898438 Z M 128.683594 85.171875 "/>
        <path style=" stroke:none;fill-rule:nonzero;fill:rgb(100%,74.509804%,33.333333%);fill-opacity:1;"
              d="M 152.96875 168.300781 C 152.382812 168.429688 152.125 168.171875 151.996094 167.589844 C 151.738281 166.421875 151.152344 165.710938 149.859375 165.710938 C 148.824219 165.710938 148.371094 166.488281 148.5 167.070312 C 148.953125 169.335938 157.109375 168.625 157.242188 175.167969 C 157.15625 177.972656 155.136719 180.339844 152.382812 180.871094 L 152.382812 182.683594 C 152.410156 182.933594 152.324219 183.179688 152.148438 183.355469 C 151.972656 183.53125 151.726562 183.617188 151.476562 183.589844 L 148.175781 183.589844 C 147.9375 183.621094 147.699219 183.546875 147.523438 183.382812 C 147.347656 183.222656 147.253906 182.988281 147.269531 182.75 L 147.269531 180.804688 C 143.902344 179.832031 143.253906 176.984375 143.058594 175.167969 C 143.023438 174.714844 143.328125 174.300781 143.773438 174.195312 L 146.878906 173.484375 C 147.398438 173.355469 147.722656 173.550781 147.785156 174.132812 C 147.917969 175.492188 148.371094 176.269531 149.988281 176.269531 C 151.605469 176.269531 152.058594 175.234375 151.867188 174.648438 C 151.285156 172.1875 143.511719 173.355469 143.382812 166.8125 C 143.382812 166.097656 143.449219 162.273438 147.464844 161.109375 L 147.464844 159.292969 C 147.4375 159.046875 147.523438 158.800781 147.699219 158.625 C 147.875 158.449219 148.121094 158.359375 148.371094 158.386719 L 151.671875 158.386719 C 151.917969 158.359375 152.167969 158.449219 152.34375 158.625 C 152.519531 158.800781 152.605469 159.046875 152.578125 159.292969 L 152.578125 161.171875 C 155.878906 162.144531 156.59375 164.867188 156.722656 166.550781 C 156.765625 166.777344 156.714844 167.007812 156.578125 167.191406 C 156.441406 167.378906 156.238281 167.496094 156.011719 167.523438 Z M 152.96875 168.300781 "/>
        <path style=" stroke:none;fill-rule:nonzero;fill:rgb(100%,74.509804%,33.333333%);fill-opacity:1;"
              d="M 168.507812 146.917969 C 168.121094 147.050781 167.925781 146.855469 167.859375 146.464844 C 167.84375 146.109375 167.683594 145.777344 167.414062 145.542969 C 167.144531 145.3125 166.789062 145.199219 166.4375 145.234375 C 166.1875 145.203125 165.9375 145.289062 165.757812 145.464844 C 165.582031 145.644531 165.496094 145.894531 165.527344 146.140625 C 165.851562 147.632812 171.226562 147.179688 171.292969 151.519531 C 171.214844 153.375 169.875 154.929688 168.054688 155.277344 L 168.054688 156.507812 C 168.074219 156.667969 168.023438 156.832031 167.90625 156.945312 C 167.792969 157.058594 167.632812 157.113281 167.472656 157.09375 L 165.269531 157.09375 C 165.109375 157.113281 164.949219 157.058594 164.835938 156.945312 C 164.71875 156.832031 164.664062 156.667969 164.6875 156.507812 L 164.6875 155.214844 C 162.484375 154.566406 162.03125 152.6875 161.902344 151.453125 C 161.890625 151.160156 162.074219 150.894531 162.355469 150.808594 L 164.429688 150.289062 C 164.753906 150.222656 164.945312 150.355469 165.011719 150.742188 C 165.140625 151.648438 165.398438 152.167969 166.4375 152.167969 C 167.472656 152.167969 167.796875 151.519531 167.664062 151.132812 C 167.277344 149.511719 162.160156 150.289062 162.097656 145.949219 C 162.03125 144.238281 163.117188 142.695312 164.753906 142.191406 L 164.753906 140.957031 C 164.730469 140.796875 164.785156 140.636719 164.898438 140.523438 C 165.011719 140.410156 165.175781 140.355469 165.335938 140.375 L 167.535156 140.375 C 167.695312 140.355469 167.859375 140.410156 167.972656 140.523438 C 168.085938 140.636719 168.140625 140.796875 168.121094 140.957031 L 168.121094 142.191406 C 169.707031 142.65625 170.808594 144.097656 170.839844 145.753906 C 170.902344 146.078125 170.710938 146.273438 170.386719 146.402344 Z M 168.507812 146.917969 "/>
    </g>
</svg>
