<?xml version="1.0" encoding="UTF-8"?>
<svg xmlns="http://www.w3.org/2000/svg" xmlns:xlink="http://www.w3.org/1999/xlink" width="500px" height="408px"
     viewBox="0 0 501 408" version="1.1">
    <g id="surface1">
        <path style=" stroke:none;fill-rule:nonzero;fill:rgb(83.529412%,93.72549%,78.431373%);fill-opacity:1;"
              d="M 328.65625 406.792969 C 344.9375 401.699219 359.546875 396.496094 377.121094 386.621094 C 395.25 376.4375 475.769531 327.96875 486.242188 244.082031 C 488.988281 221.09375 486.710938 197.78125 479.566406 175.753906 C 476.332031 166.261719 469.617188 147.195312 452.671875 128.339844 C 431.933594 105.28125 408.265625 96.261719 394.386719 91.25 C 365.140625 80.574219 340.679688 81.132812 328.988281 81.515625 C 316.402344 81.925781 294.1875 82.847656 268.9375 93.886719 C 252.464844 101.082031 242.222656 109.292969 227.132812 121.5625 C 203.226562 141.019531 200.078125 149.121094 158.257812 189.300781 C 146.773438 200.324219 137.335938 209.015625 122.925781 217.578125 C 112.90625 223.511719 104.890625 226.832031 89.960938 232.886719 C 53.335938 247.8125 42.914062 250.820312 30.933594 259.171875 C 7.625 275.480469 9.128906 293.253906 8.125 297.09375 C 5.519531 306.894531 4.914062 317.125 6.351562 327.167969 C 9.410156 347.285156 20.242188 360.4375 26.964844 368.398438 C 36.191406 379.226562 47.375 388.214844 59.929688 394.902344 C 68.660156 399.503906 77.699219 403.484375 86.984375 406.820312 Z M 328.65625 406.792969 "/>
        <path style=" stroke:none;fill-rule:nonzero;fill:rgb(83.529412%,93.72549%,78.431373%);fill-opacity:1;"
              d="M 380.300781 392.578125 L 379.808594 391.695312 C 403.757812 378.242188 482.714844 327.777344 493.214844 243.601562 C 496.054688 219.722656 493.691406 195.507812 486.289062 172.628906 C 483.285156 163.867188 476.320312 143.375 458.386719 123.40625 C 436.421875 98.957031 411.289062 89.804688 397.875 84.894531 C 376.136719 77.066406 353.0625 73.632812 329.988281 74.796875 C 317.542969 75.199219 294.367188 75.960938 267.625 87.640625 L 267.222656 86.726562 C 294.148438 74.957031 318.324219 74.175781 329.957031 73.796875 C 353.160156 72.621094 376.359375 76.074219 398.214844 83.949219 C 411.773438 88.894531 437.003906 98.105469 459.125 122.734375 C 477.164062 142.855469 484.238281 163.484375 487.234375 172.296875 C 494.695312 195.308594 497.085938 219.667969 494.246094 243.691406 C 483.65625 328.371094 404.355469 379.054688 380.300781 392.578125 Z M 380.300781 392.578125 "/>
        <path style=" stroke:none;fill-rule:nonzero;fill:rgb(63.529412%,68.235294%,90.196078%);fill-opacity:1;"
              d="M 39.898438 406.179688 L 81.882812 406.179688 L 87.414062 341.652344 L 34.367188 341.652344 Z M 39.898438 406.179688 "/>
        <path style=" stroke:none;fill-rule:nonzero;fill:rgb(30.980392%,40%,81.568627%);fill-opacity:1;"
              d="M 81.882812 406.199219 C 78.625 395.375 75.238281 384.578125 71.863281 373.792969 C 70.179688 368.386719 68.425781 363.015625 66.703125 357.632812 L 61.503906 341.480469 C 61.421875 341.230469 61.1875 341.058594 60.921875 341.058594 C 60.65625 341.058594 60.421875 341.230469 60.339844 341.480469 L 55.109375 357.613281 C 53.386719 362.996094 51.613281 368.367188 49.941406 373.769531 L 44.859375 389.960938 L 39.847656 406.179688 L 45.378906 390.140625 L 50.792969 374.101562 C 52.613281 368.75 54.347656 363.367188 56.121094 357.992188 L 61.421875 341.882812 L 60.308594 341.882812 L 65.609375 357.992188 C 67.394531 363.367188 69.128906 368.75 70.941406 374.101562 C 74.539062 384.789062 78.15625 395.503906 81.882812 406.199219 Z M 81.882812 406.199219 "/>
        <path style=" stroke:none;fill-rule:nonzero;fill:rgb(30.980392%,40%,81.568627%);fill-opacity:1;"
              d="M 87.414062 341.652344 C 82.765625 352.308594 78.234375 363.023438 73.71875 373.730469 L 67.015625 389.832031 L 60.332031 405.941406 L 61.453125 405.941406 L 54.78125 389.832031 C 52.535156 384.457031 50.339844 379.074219 48.066406 373.730469 L 41.28125 357.691406 L 34.367188 341.652344 L 40.722656 357.890625 L 47.195312 374.121094 C 49.339844 379.535156 51.5625 384.898438 53.746094 390.292969 L 60.332031 406.441406 C 60.460938 406.75 60.808594 406.898438 61.121094 406.78125 C 61.277344 406.71875 61.394531 406.597656 61.453125 406.441406 L 68.035156 390.261719 L 74.589844 374.121094 C 78.917969 363.304688 83.226562 352.5 87.414062 341.652344 Z M 87.414062 341.652344 "/>
        <path style=" stroke:none;fill-rule:nonzero;fill:rgb(30.980392%,40%,81.568627%);fill-opacity:1;"
              d="M 84.648438 377.230469 C 80.640625 376.980469 76.734375 376.859375 72.773438 376.769531 C 68.816406 376.679688 64.847656 376.636719 60.890625 376.628906 C 56.933594 376.617188 52.976562 376.628906 49.019531 376.769531 L 43.074219 376.9375 C 41.070312 377.039062 39.066406 377.097656 37.132812 377.230469 C 39.136719 377.371094 41.09375 377.429688 43.074219 377.53125 L 49.019531 377.699219 C 52.976562 377.8125 56.933594 377.832031 60.890625 377.839844 C 64.847656 377.851562 68.808594 377.839844 72.773438 377.699219 C 76.742188 377.558594 80.691406 377.480469 84.648438 377.230469 Z M 84.648438 377.230469 "/>
        <path style=" stroke:none;fill-rule:nonzero;fill:rgb(30.980392%,40%,81.568627%);fill-opacity:1;"
              d="M 33.636719 335.816406 L 88.144531 335.816406 C 89.015625 335.816406 89.71875 336.523438 89.71875 337.390625 L 89.71875 340.078125 C 89.71875 340.949219 89.015625 341.652344 88.144531 341.652344 L 33.636719 341.652344 C 32.769531 341.652344 32.0625 340.949219 32.0625 340.078125 L 32.0625 337.390625 C 32.0625 336.523438 32.769531 335.816406 33.636719 335.816406 Z M 33.636719 335.816406 "/>
        <path style=" stroke:none;fill-rule:nonzero;fill:rgb(57.647059%,35.686275%,31.372549%);fill-opacity:1;"
              d="M 0 405.789062 L 501 405.789062 L 501 407.792969 L 0 407.792969 Z M 0 405.789062 "/>
        <path style=" stroke:none;fill-rule:nonzero;fill:rgb(86.27451%,52.941176%,34.509804%);fill-opacity:1;"
              d="M 216.171875 19.390625 L 226.070312 19.390625 C 229.046875 19.390625 231.460938 21.808594 231.460938 24.785156 L 231.460938 34.691406 C 231.460938 37.667969 229.046875 40.082031 226.070312 40.082031 L 216.171875 40.082031 C 213.195312 40.082031 210.78125 37.667969 210.78125 34.691406 L 210.78125 24.785156 C 210.78125 21.808594 213.195312 19.390625 216.171875 19.390625 Z M 216.171875 19.390625 "/>
        <path style=" stroke:none;fill-rule:nonzero;fill:rgb(86.27451%,52.941176%,34.509804%);fill-opacity:1;"
              d="M 164.960938 406.792969 L 156.582031 406.792969 L 190.53125 254.136719 L 207.625 258.738281 Z M 164.960938 406.792969 "/>
        <path style=" stroke:none;fill-rule:nonzero;fill:rgb(86.27451%,52.941176%,34.509804%);fill-opacity:1;"
              d="M 278.304688 406.792969 L 286.683594 406.792969 L 252.734375 254.136719 L 235.628906 258.738281 Z M 278.304688 406.792969 "/>
        <path style=" stroke:none;fill-rule:nonzero;fill:rgb(100%,89.019608%,79.607843%);fill-opacity:1;"
              d="M 86.785156 31.613281 L 356.382812 31.613281 C 358.316406 31.613281 359.886719 33.183594 359.886719 35.121094 L 359.886719 271.589844 C 359.886719 273.535156 358.3125 275.109375 356.371094 275.109375 L 86.785156 275.109375 C 84.839844 275.109375 83.265625 273.535156 83.265625 271.589844 L 83.265625 35.121094 C 83.265625 33.183594 84.835938 31.613281 86.773438 31.613281 Z M 86.785156 31.613281 "/>
        <path style=" stroke:none;fill-rule:nonzero;fill:rgb(86.27451%,52.941176%,34.509804%);fill-opacity:1;"
              d="M 176.121094 266.046875 L 267.042969 266.046875 C 268.582031 266.046875 269.828125 267.292969 269.828125 268.832031 L 269.828125 276.441406 C 269.828125 277.980469 268.582031 279.230469 267.042969 279.230469 L 176.121094 279.230469 C 174.582031 279.230469 173.335938 277.980469 173.335938 276.441406 L 173.335938 268.832031 C 173.335938 267.292969 174.582031 266.046875 176.121094 266.046875 Z M 176.121094 266.046875 "/>
        <path style=" stroke:none;fill-rule:nonzero;fill:rgb(42.352941%,49.803922%,84.705882%);fill-opacity:1;"
              d="M 228.796875 176.9375 L 247.734375 131.609375 C 248.417969 129.96875 249.996094 128.882812 251.765625 128.832031 C 253.539062 128.777344 255.179688 129.765625 255.960938 131.355469 L 274.429688 168.859375 C 275.175781 170.398438 276.730469 171.382812 278.441406 171.394531 C 280.152344 171.40625 281.722656 170.449219 282.492188 168.917969 L 311.550781 112.007812 C 312.339844 110.46875 313.9375 109.515625 315.667969 109.550781 C 317.398438 109.585938 318.953125 110.609375 319.679688 112.179688 L 349.527344 176.9375 "/>
        <path style=" stroke:none;fill-rule:nonzero;fill:rgb(96.862745%,23.529412%,30.980392%);fill-opacity:1;"
              d="M 203.40625 176.9375 L 222.34375 131.609375 C 223.027344 129.96875 224.605469 128.882812 226.375 128.832031 C 228.148438 128.777344 229.789062 129.765625 230.570312 131.355469 L 249.035156 168.859375 C 249.792969 170.371094 251.335938 171.332031 253.027344 171.34375 C 254.71875 171.359375 256.273438 170.421875 257.054688 168.917969 L 286.109375 112.007812 C 286.898438 110.46875 288.5 109.515625 290.226562 109.550781 C 291.957031 109.585938 293.511719 110.609375 294.238281 112.179688 L 324.085938 176.9375 "/>
        <path style=" stroke:none;fill-rule:nonzero;fill:rgb(100%,72.941176%,33.333333%);fill-opacity:1;"
              d="M 282.492188 168.917969 C 281.953125 169.992188 281.011719 170.804688 279.875 171.179688 C 278.734375 171.554688 277.492188 171.464844 276.421875 170.925781 C 275.554688 170.492188 274.847656 169.789062 274.417969 168.917969 L 265.929688 151.578125 L 257.082031 168.878906 C 256.546875 169.953125 255.601562 170.769531 254.464844 171.144531 C 253.324219 171.519531 252.082031 171.425781 251.011719 170.882812 C 250.140625 170.453125 249.4375 169.746094 249.007812 168.878906 L 239.898438 150.382812 L 228.796875 176.9375 L 324.136719 176.9375 L 302.445312 129.824219 Z M 282.492188 168.917969 "/>
        <path style=" stroke:none;fill-rule:nonzero;fill:rgb(100%,72.941176%,33.333333%);fill-opacity:1;"
              d="M 177.203125 116.429688 C 177.203125 132.917969 163.84375 146.285156 147.363281 146.285156 C 130.882812 146.285156 117.523438 132.917969 117.523438 116.429688 C 117.523438 99.941406 130.882812 86.578125 147.363281 86.578125 C 163.84375 86.578125 177.203125 99.941406 177.203125 116.429688 Z M 177.203125 116.429688 "/>
        <path style=" stroke:none;fill-rule:nonzero;fill:rgb(96.862745%,23.529412%,30.980392%);fill-opacity:1;"
              d="M 147.363281 116.429688 L 117.664062 113.59375 C 118.816406 101.457031 127.230469 91.238281 138.917969 87.789062 C 150.605469 84.335938 163.21875 88.347656 170.769531 97.914062 Z M 147.363281 116.429688 "/>
        <path style=" stroke:none;fill-rule:nonzero;fill:rgb(42.352941%,49.803922%,84.705882%);fill-opacity:1;"
              d="M 147.363281 116.429688 L 165.398438 140.230469 C 155.933594 147.394531 143.121094 148.269531 132.773438 142.449219 C 122.425781 136.632812 116.507812 125.230469 117.703125 113.414062 Z M 147.363281 116.429688 "/>
        <path style=" stroke:none;fill-rule:nonzero;fill:rgb(100%,72.941176%,33.333333%);fill-opacity:1;"
              d="M 212.535156 67.699219 C 212.535156 77.960938 204.222656 86.277344 193.96875 86.277344 C 183.710938 86.277344 175.398438 77.960938 175.398438 67.699219 C 175.398438 57.441406 183.710938 49.125 193.96875 49.125 C 204.222656 49.125 212.535156 57.441406 212.535156 67.699219 Z M 212.535156 67.699219 "/>
        <path style=" stroke:none;fill-rule:nonzero;fill:rgb(96.862745%,23.529412%,30.980392%);fill-opacity:1;"
              d="M 193.96875 67.699219 L 196.691406 86.074219 C 189.199219 87.1875 181.78125 83.632812 177.953125 77.089844 C 174.125 70.546875 174.660156 62.335938 179.296875 56.34375 Z M 193.96875 67.699219 "/>
        <path style=" stroke:none;fill-rule:nonzero;fill:rgb(42.352941%,49.803922%,84.705882%);fill-opacity:1;"
              d="M 193.96875 67.699219 L 205.652344 53.265625 C 211.382812 57.917969 213.820312 65.527344 211.851562 72.648438 C 209.886719 79.769531 203.890625 85.046875 196.582031 86.097656 Z M 193.96875 67.699219 "/>
        <path style=" stroke:none;fill-rule:nonzero;fill:rgb(96.862745%,23.529412%,30.980392%);fill-opacity:1;"
              d="M 101.261719 191.496094 L 107.464844 191.496094 L 107.464844 245.136719 L 101.261719 245.136719 Z M 101.261719 191.496094 "/>
        <path style=" stroke:none;fill-rule:nonzero;fill:rgb(96.862745%,23.529412%,30.980392%);fill-opacity:1;"
              d="M 116.773438 205.648438 L 122.976562 205.648438 L 122.976562 245.136719 L 116.773438 245.136719 Z M 116.773438 205.648438 "/>
        <path style=" stroke:none;fill-rule:nonzero;fill:rgb(96.862745%,23.529412%,30.980392%);fill-opacity:1;"
              d="M 132.292969 184.898438 L 138.496094 184.898438 L 138.496094 245.136719 L 132.292969 245.136719 Z M 132.292969 184.898438 "/>
        <path style=" stroke:none;fill-rule:nonzero;fill:rgb(96.862745%,23.529412%,30.980392%);fill-opacity:1;"
              d="M 147.804688 177.328125 L 154.007812 177.328125 L 154.007812 245.136719 L 147.804688 245.136719 Z M 147.804688 177.328125 "/>
        <path style=" stroke:none;fill-rule:nonzero;fill:rgb(96.862745%,23.529412%,30.980392%);fill-opacity:1;"
              d="M 163.324219 191.496094 L 169.527344 191.496094 L 169.527344 245.136719 L 163.324219 245.136719 Z M 163.324219 191.496094 "/>
        <path style=" stroke:none;fill-rule:nonzero;fill:rgb(96.862745%,23.529412%,30.980392%);fill-opacity:1;"
              d="M 178.835938 218.769531 L 185.039062 218.769531 L 185.039062 245.136719 L 178.835938 245.136719 Z M 178.835938 218.769531 "/>
        <path style=" stroke:none;fill-rule:nonzero;fill:rgb(96.862745%,23.529412%,30.980392%);fill-opacity:1;"
              d="M 194.347656 198.011719 L 200.550781 198.011719 L 200.550781 245.136719 L 194.347656 245.136719 Z M 194.347656 198.011719 "/>
        <path style=" stroke:none;fill-rule:nonzero;fill:rgb(96.862745%,23.529412%,30.980392%);fill-opacity:1;"
              d="M 208.9375 245.90625 L 90.890625 245.90625 C 90.464844 245.90625 90.121094 245.5625 90.121094 245.136719 C 90.121094 244.710938 90.464844 244.363281 90.890625 244.363281 L 208.9375 244.363281 C 209.363281 244.363281 209.707031 244.710938 209.707031 245.136719 C 209.707031 245.5625 209.363281 245.90625 208.9375 245.90625 Z M 208.9375 245.90625 "/>
        <path style=" stroke:none;fill-rule:nonzero;fill:rgb(96.862745%,23.529412%,30.980392%);fill-opacity:1;"
              d="M 110.136719 92.199219 L 111.085938 91.226562 L 124.214844 104.03125 L 123.265625 105.007812 Z M 110.136719 92.199219 "/>
        <path style=" stroke:none;fill-rule:nonzero;fill:rgb(100%,72.941176%,33.333333%);fill-opacity:1;"
              d="M 198.554688 158.582031 L 188.707031 158.582031 L 166.523438 130.265625 L 167.59375 129.421875 L 189.378906 157.210938 L 198.554688 157.210938 Z M 198.554688 158.582031 "/>
        <path style=" stroke:none;fill-rule:nonzero;fill:rgb(96.862745%,23.529412%,30.980392%);fill-opacity:1;"
              d="M 93.386719 85.894531 L 108.15625 85.894531 L 108.15625 87.269531 L 93.386719 87.269531 Z M 93.386719 85.894531 "/>
        <path style=" stroke:none;fill-rule:nonzero;fill:rgb(96.862745%,23.529412%,30.980392%);fill-opacity:1;"
              d="M 93.386719 90.15625 L 108.15625 90.15625 L 108.15625 91.53125 L 93.386719 91.53125 Z M 93.386719 90.15625 "/>
        <path style=" stroke:none;fill-rule:nonzero;fill:rgb(100%,72.941176%,33.333333%);fill-opacity:1;"
              d="M 189.046875 161.21875 L 201.84375 161.21875 L 201.84375 162.59375 L 189.046875 162.59375 Z M 189.046875 161.21875 "/>
        <path style=" stroke:none;fill-rule:nonzero;fill:rgb(98.039216%,98.039216%,98.039216%);fill-opacity:1;"
              d="M 195.890625 86.195312 L 193.324219 68.082031 L 178.878906 56.863281 L 179.730469 55.773438 L 194.617188 67.328125 L 197.265625 85.996094 Z M 195.890625 86.195312 "/>
        <path style=" stroke:none;fill-rule:nonzero;fill:rgb(98.039216%,98.039216%,98.039216%);fill-opacity:1;"
              d="M 193.429688 67.257812 L 205.101562 52.8125 L 206.175781 53.683594 L 194.503906 68.125 Z M 193.429688 67.257812 "/>
        <path style=" stroke:none;fill-rule:nonzero;fill:rgb(100%,72.941176%,33.333333%);fill-opacity:1;"
              d="M 233.765625 71.46875 L 280.550781 71.46875 L 280.550781 72.773438 L 233.765625 72.773438 Z M 233.765625 71.46875 "/>
        <path style=" stroke:none;fill-rule:nonzero;fill:rgb(100%,72.941176%,33.333333%);fill-opacity:1;"
              d="M 233.765625 76.914062 L 280.550781 76.914062 L 280.550781 78.214844 L 233.765625 78.214844 Z M 233.765625 76.914062 "/>
        <path style=" stroke:none;fill-rule:nonzero;fill:rgb(100%,72.941176%,33.333333%);fill-opacity:1;"
              d="M 233.765625 82.355469 L 280.550781 82.355469 L 280.550781 83.660156 L 233.765625 83.660156 Z M 233.765625 82.355469 "/>
        <path style=" stroke:none;fill-rule:nonzero;fill:rgb(100%,72.941176%,33.333333%);fill-opacity:1;"
              d="M 233.765625 87.789062 L 280.550781 87.789062 L 280.550781 89.09375 L 233.765625 89.09375 Z M 233.765625 87.789062 "/>
        <path style=" stroke:none;fill-rule:nonzero;fill:rgb(96.862745%,23.529412%,30.980392%);fill-opacity:1;"
              d="M 302.414062 202.230469 L 349.195312 202.230469 L 349.195312 204.183594 L 302.414062 204.183594 Z M 302.414062 202.230469 "/>
        <path style=" stroke:none;fill-rule:nonzero;fill:rgb(96.862745%,23.529412%,30.980392%);fill-opacity:1;"
              d="M 302.414062 207.675781 L 349.195312 207.675781 L 349.195312 209.628906 L 302.414062 209.628906 Z M 302.414062 207.675781 "/>
        <path style=" stroke:none;fill-rule:nonzero;fill:rgb(96.862745%,23.529412%,30.980392%);fill-opacity:1;"
              d="M 302.414062 213.117188 L 349.195312 213.117188 L 349.195312 215.070312 L 302.414062 215.070312 Z M 302.414062 213.117188 "/>
        <path style=" stroke:none;fill-rule:nonzero;fill:rgb(96.862745%,23.529412%,30.980392%);fill-opacity:1;"
              d="M 302.414062 218.5625 L 349.195312 218.5625 L 349.195312 220.515625 L 302.414062 220.515625 Z M 302.414062 218.5625 "/>
        <path style=" stroke:none;fill-rule:nonzero;fill:rgb(100%,72.941176%,33.333333%);fill-opacity:1;"
              d="M 136.644531 25.015625 C 136.644531 38.332031 125.855469 49.125 112.542969 49.125 C 99.234375 49.125 88.445312 38.332031 88.445312 25.015625 C 88.445312 11.703125 99.234375 0.90625 112.542969 0.90625 C 125.855469 0.90625 136.644531 11.703125 136.644531 25.015625 Z M 136.644531 25.015625 "/>
        <path style=" stroke:none;fill-rule:nonzero;fill:rgb(42.352941%,49.803922%,84.705882%);fill-opacity:1;"
              d="M 124.71875 9.800781 C 124.71875 9.246094 124.269531 8.796875 123.71875 8.796875 L 103.386719 8.796875 C 102.832031 8.796875 102.382812 9.246094 102.382812 9.800781 L 102.382812 10.171875 C 102.382812 10.722656 102.832031 11.171875 103.386719 11.171875 L 110.820312 11.171875 C 113.671875 11.171875 116.214844 12.964844 117.175781 15.652344 C 117.265625 15.90625 117.257812 16.183594 117.144531 16.425781 C 117.03125 16.667969 116.824219 16.855469 116.574219 16.945312 C 116.464844 16.984375 116.347656 17.007812 116.230469 17.007812 L 103.386719 17.007812 C 102.832031 17.007812 102.382812 17.457031 102.382812 18.007812 L 102.382812 18.378906 C 102.382812 18.933594 102.832031 19.382812 103.386719 19.382812 L 116.011719 19.382812 C 116.566406 19.382812 117.011719 19.832031 117.011719 20.386719 C 117.011719 20.535156 116.976562 20.679688 116.914062 20.816406 C 115.789062 23.164062 113.421875 24.65625 110.820312 24.65625 L 104.570312 24.65625 C 104.015625 24.65625 103.566406 25.105469 103.566406 25.65625 L 103.566406 26.660156 C 103.566406 26.882812 103.640625 27.097656 103.777344 27.273438 L 115.332031 42.410156 C 115.664062 42.847656 116.292969 42.933594 116.734375 42.597656 L 117.023438 42.378906 C 117.464844 42.042969 117.546875 41.414062 117.214844 40.976562 L 107.785156 28.613281 C 107.449219 28.175781 107.53125 27.550781 107.964844 27.210938 C 108.140625 27.074219 108.355469 27 108.578125 27 L 112.222656 27 C 112.3125 27.011719 112.40625 27.011719 112.496094 27 C 115.988281 26.25 118.757812 23.59375 119.660156 20.132812 C 119.777344 19.679688 120.191406 19.367188 120.660156 19.382812 L 123.667969 19.382812 C 124.21875 19.382812 124.667969 18.933594 124.667969 18.378906 L 124.667969 18.007812 C 124.667969 17.457031 124.21875 17.007812 123.667969 17.007812 L 120.722656 17.007812 C 120.246094 17.019531 119.828125 16.695312 119.71875 16.234375 C 119.394531 14.429688 118.527344 12.765625 117.234375 11.464844 L 116.902344 11.171875 L 123.675781 11.171875 C 124.230469 11.171875 124.679688 10.722656 124.679688 10.171875 Z M 124.71875 9.800781 "/>
        <path style=" stroke:none;fill-rule:nonzero;fill:rgb(100%,72.941176%,33.333333%);fill-opacity:1;"
              d="M 264.566406 233.117188 C 264.566406 245.121094 254.84375 254.851562 242.84375 254.851562 C 230.847656 254.851562 221.121094 245.121094 221.121094 233.117188 C 221.121094 221.113281 230.847656 211.382812 242.84375 211.382812 C 254.84375 211.382812 264.566406 221.113281 264.566406 233.117188 Z M 264.566406 233.117188 "/>
        <path style=" stroke:none;fill-rule:nonzero;fill:rgb(30.980392%,40%,81.568627%);fill-opacity:1;"
              d="M 237.835938 243.992188 C 237.285156 243.996094 236.757812 243.761719 236.390625 243.351562 L 229.1875 235.640625 C 228.429688 234.835938 228.46875 233.5625 229.277344 232.804688 C 230.085938 232.046875 231.355469 232.085938 232.113281 232.894531 L 237.886719 239.070312 L 253.644531 222.832031 C 254.132812 222.277344 254.886719 222.035156 255.605469 222.207031 C 256.324219 222.375 256.894531 222.925781 257.085938 223.636719 C 257.277344 224.351562 257.058594 225.113281 256.523438 225.617188 L 239.289062 243.363281 C 238.910156 243.761719 238.386719 243.992188 237.835938 243.992188 Z M 237.835938 243.992188 "/>
        <path style=" stroke:none;fill-rule:nonzero;fill:rgb(100%,72.941176%,33.333333%);fill-opacity:1;"
              d="M 341.972656 50.207031 C 341.972656 63.019531 331.589844 73.40625 318.785156 73.40625 C 305.980469 73.40625 295.601562 63.019531 295.601562 50.207031 C 295.601562 37.398438 305.980469 27.011719 318.785156 27.011719 C 331.589844 27.011719 341.972656 37.398438 341.972656 50.207031 Z M 341.972656 50.207031 "/>
        <path style=" stroke:none;fill-rule:nonzero;fill:rgb(42.352941%,49.803922%,84.705882%);fill-opacity:1;"
              d="M 327.875 47.480469 L 326.0625 47.480469 L 326.0625 43.851562 C 326.160156 41.191406 324.796875 38.6875 322.507812 37.324219 C 320.214844 35.964844 317.367188 35.964844 315.078125 37.324219 C 312.785156 38.6875 311.421875 41.191406 311.523438 43.851562 L 311.523438 47.480469 L 309.699219 47.480469 C 309.210938 47.480469 308.746094 47.675781 308.40625 48.023438 C 308.0625 48.371094 307.875 48.839844 307.882812 49.324219 L 307.882812 62.058594 C 307.882812 62.539062 308.070312 63 308.410156 63.339844 C 308.746094 63.679688 309.207031 63.871094 309.6875 63.871094 L 327.875 63.871094 C 328.355469 63.875 328.816406 63.683594 329.15625 63.347656 C 329.496094 63.007812 329.6875 62.546875 329.6875 62.066406 L 329.6875 49.324219 C 329.695312 48.324219 328.886719 47.507812 327.882812 47.5 Z M 318.785156 57.507812 C 317.28125 57.507812 316.0625 56.285156 316.0625 54.777344 C 316.0625 53.273438 317.28125 52.050781 318.785156 52.050781 C 320.292969 52.050781 321.511719 53.273438 321.511719 54.777344 C 321.511719 56.285156 320.292969 57.507812 318.785156 57.507812 Z M 322.421875 47.480469 L 315.148438 47.480469 L 315.148438 43.851562 C 315.148438 41.84375 316.777344 40.214844 318.785156 40.214844 C 320.796875 40.214844 322.421875 41.84375 322.421875 43.851562 Z M 322.421875 47.480469 "/>
        <path style=" stroke:none;fill-rule:nonzero;fill:rgb(11.764706%,11.372549%,13.333333%);fill-opacity:1;"
              d="M 453.707031 89.042969 C 453.707031 89.042969 451.121094 83.027344 465.730469 84.621094 C 480.339844 86.214844 479.40625 91.417969 476.359375 113.59375 C 476.339844 113.59375 454.285156 123.636719 453.707031 89.042969 Z M 453.707031 89.042969 "/>
        <path style=" stroke:none;fill-rule:nonzero;fill:rgb(97.647059%,59.215686%,47.843137%);fill-opacity:1;"
              d="M 457.523438 121.300781 L 459.078125 137.132812 L 480.917969 143.246094 L 477.273438 121.59375 L 476.339844 113.574219 C 476.339844 113.574219 463.195312 113.925781 469.507812 106.617188 C 471.871094 103.871094 471.511719 97.90625 467.652344 101.121094 C 467.652344 101.121094 462.503906 103.066406 462.050781 98.445312 C 461.601562 93.824219 462.714844 91.910156 462.714844 91.910156 C 462.714844 91.910156 456.421875 91.550781 453.695312 89.023438 L 451.371094 91.859375 C 450.308594 93.164062 449.859375 94.863281 450.136719 96.523438 L 450.308594 97.574219 L 445.109375 102.886719 C 444.675781 103.332031 444.648438 104.03125 445.039062 104.511719 C 445.328125 104.863281 445.710938 105.351562 446.230469 106.074219 C 446.980469 107.195312 447.210938 108.582031 446.863281 109.882812 L 452.582031 109.882812 C 452.152344 111.140625 451.386719 112.253906 450.367188 113.101562 C 448.847656 114.195312 446.480469 114.265625 446.480469 114.625 C 446.472656 117.492188 447.644531 123.21875 457.523438 121.300781 Z M 457.523438 121.300781 "/>
        <path style=" stroke:none;fill-rule:nonzero;fill:rgb(11.764706%,11.372549%,13.333333%);fill-opacity:1;"
              d="M 456.980469 98.144531 C 456.632812 98.203125 456.296875 97.992188 456.191406 97.65625 C 455.460938 95.277344 451.75 93.914062 450.390625 93.585938 C 450.207031 93.542969 450.050781 93.433594 449.949219 93.273438 C 449.851562 93.113281 449.824219 92.921875 449.867188 92.742188 C 449.910156 92.558594 450.019531 92.402344 450.179688 92.300781 C 450.335938 92.203125 450.527344 92.167969 450.710938 92.210938 C 450.941406 92.269531 456.421875 93.613281 457.535156 97.222656 C 457.652344 97.597656 457.445312 97.996094 457.074219 98.117188 Z M 456.980469 98.144531 "/>
        <path style=" stroke:none;fill-rule:nonzero;fill:rgb(86.666667%,46.27451%,36.862745%);fill-opacity:1;"
              d="M 464.667969 116.308594 C 462.664062 119.597656 457.523438 121.324219 457.523438 121.324219 L 458.523438 131.265625 C 461.199219 127.238281 464.667969 116.308594 464.667969 116.308594 Z M 464.667969 116.308594 "/>
        <path style=" stroke:none;fill-rule:nonzero;fill:rgb(11.764706%,11.372549%,13.333333%);fill-opacity:1;"
              d="M 452.59375 99.960938 C 453.09375 99.976562 453.554688 99.683594 453.753906 99.222656 C 453.953125 98.761719 453.851562 98.226562 453.496094 97.871094 C 453.140625 97.519531 452.605469 97.414062 452.148438 97.617188 C 451.6875 97.816406 451.394531 98.277344 451.410156 98.777344 C 451.4375 99.417969 451.953125 99.933594 452.59375 99.960938 Z M 452.59375 99.960938 "/>
        <path style=" stroke:none;fill-rule:nonzero;fill:rgb(97.647059%,59.215686%,47.843137%);fill-opacity:1;"
              d="M 433.65625 195.09375 L 426.851562 189.859375 C 425.886719 189.109375 424.730469 188.648438 423.515625 188.527344 C 421.390625 188.296875 417.972656 187.835938 416.5 187.054688 C 415.027344 186.273438 414.316406 186.953125 415.058594 188.40625 C 415.488281 189.269531 417.0625 190.410156 421.070312 191.746094 L 417.574219 192.648438 C 416.523438 192.910156 415.414062 192.726562 414.507812 192.136719 L 410.621094 189.667969 C 410.125 189.347656 409.46875 189.441406 409.085938 189.890625 C 408.664062 190.382812 408.714844 191.128906 409.207031 191.554688 L 409.308594 191.625 L 416.261719 196.476562 C 416.261719 196.476562 415.589844 202.210938 420.941406 203.492188 C 426.289062 204.777344 433.65625 202.492188 433.65625 202.492188 Z M 433.65625 195.09375 "/>
        <path style=" stroke:none;fill-rule:nonzero;fill:rgb(96.862745%,23.529412%,30.980392%);fill-opacity:1;"
              d="M 412.554688 214.460938 L 435.667969 212.988281 L 411.871094 179.265625 L 389.277344 180.796875 Z M 412.554688 214.460938 "/>
        <path style=" stroke:none;fill-rule:nonzero;fill:rgb(84.705882%,49.411765%,41.568627%);fill-opacity:1;"
              d="M 476.210938 378.273438 C 476.210938 378.273438 479.558594 403.003906 477.753906 403.792969 C 475.949219 404.585938 430.480469 408.105469 438.675781 403.792969 L 452.304688 397.46875 C 457.171875 395.214844 461.050781 390.171875 461 384.808594 L 461.703125 377.257812 Z M 476.210938 378.273438 "/>
        <path style=" stroke:none;fill-rule:nonzero;fill:rgb(100%,72.941176%,33.333333%);fill-opacity:1;"
              d="M 488.09375 217.136719 L 488.496094 220.835938 C 489.625 231.296875 487.835938 241.867188 483.324219 251.371094 L 483.324219 268 L 480.628906 377.871094 C 480.585938 379.816406 478.996094 381.371094 477.050781 381.371094 L 458.203125 381.371094 C 456.382812 381.371094 454.851562 380.003906 454.648438 378.191406 L 447.140625 311.398438 C 445.988281 301.152344 445.59375 290.835938 445.960938 280.53125 L 448.195312 217.136719 Z M 488.09375 217.136719 "/>
        <path style=" stroke:none;fill-rule:nonzero;fill:rgb(42.352941%,49.803922%,84.705882%);fill-opacity:1;"
              d="M 418.363281 134.925781 C 427.292969 139.6875 439.546875 155.175781 439.546875 155.175781 L 455.007812 140.328125 L 458.476562 131.65625 L 469.246094 128.710938 C 471.890625 127.988281 475.5 125.804688 476.960938 123.488281 C 477.300781 122.917969 477.414062 122.242188 477.273438 121.59375 L 477.273438 121.433594 L 483.765625 134.875 C 489.835938 144.96875 491.679688 156.617188 490.78125 168.367188 L 488.105469 217.136719 C 488.105469 217.136719 444.527344 222.492188 446.441406 217.136719 L 446.78125 208.527344 L 442.042969 207.953125 L 434.386719 206.402344 C 432.875 206.089844 431.84375 204.679688 432.003906 203.144531 L 432.792969 195.453125 C 432.949219 193.964844 434.171875 192.8125 435.667969 192.757812 L 443.765625 192.464844 L 447.773438 189.21875 L 448.195312 175.636719 L 445.820312 176.046875 C 439.164062 176.9375 432.515625 174.363281 428.195312 169.21875 L 410.070312 144.941406 C 409.46875 144.136719 409.304688 143.089844 409.636719 142.144531 C 410.691406 139.160156 412.753906 136.640625 415.46875 135.015625 C 416.355469 134.492188 417.449219 134.457031 418.363281 134.925781 Z M 418.363281 134.925781 "/>
        <path style=" stroke:none;fill-rule:nonzero;fill:rgb(48.627451%,63.137255%,69.411765%);fill-opacity:1;"
              d="M 403.335938 163.015625 L 403.734375 163.015625 L 403.734375 174.84375 L 403.335938 174.84375 Z M 403.335938 163.015625 "/>
        <path style=" stroke:none;fill-rule:nonzero;fill:rgb(48.627451%,63.137255%,69.411765%);fill-opacity:1;"
              d="M 421.300781 184.808594 L 421.152344 184.445312 L 433.574219 179.082031 L 433.734375 179.445312 Z M 421.300781 184.808594 "/>
        <path style=" stroke:none;fill-rule:nonzero;fill:rgb(48.627451%,63.137255%,69.411765%);fill-opacity:1;"
              d="M 415.214844 174.75 L 420.058594 162.925781 L 420.429688 163.074219 L 415.585938 174.902344 Z M 415.214844 174.75 "/>
        <path style=" stroke:none;fill-rule:nonzero;fill:rgb(42.352941%,49.803922%,84.705882%);fill-opacity:1;"
              d="M 436.742188 406.78125 C 434.496094 403.683594 436.109375 399.886719 440.390625 398.160156 L 458.425781 390.894531 C 459.082031 390.664062 459.808594 390.789062 460.347656 391.222656 L 466.773438 397.289062 C 467.339844 397.738281 468.105469 397.84375 468.777344 397.570312 L 476.351562 394.390625 C 477.351562 393.960938 478.675781 394.492188 478.675781 395.332031 L 478.675781 405.660156 C 478.675781 406.261719 477.984375 406.742188 477.132812 406.742188 L 436.792969 406.742188 Z M 436.742188 406.78125 "/>
    </g>
</svg>
