<?xml version="1.0" encoding="UTF-8"?>
<svg xmlns="http://www.w3.org/2000/svg" xmlns:xlink="http://www.w3.org/1999/xlink" width="550px" height="406px"
     viewBox="0 0 548 406" version="1.1">
    <defs>
        <filter id="alpha" filterUnits="objectBoundingBox" x="0%" y="0%" width="100%" height="100%">
            <feColorMatrix type="matrix" in="SourceGraphic" values="0 0 0 0 1 0 0 0 0 1 0 0 0 0 1 0 0 0 1 0"/>
        </filter>
        <mask id="mask0">
            <g filter="url(#alpha)">
                <rect x="0" y="0" width="548" height="406"
                      style="fill:rgb(0%,0%,0%);fill-opacity:0.14902;stroke:none;"/>
            </g>
        </mask>
        <clipPath id="clip1">
            <rect x="0" y="0" width="548" height="406"/>
        </clipPath>
        <g id="surface5" clip-path="url(#clip1)">
            <path style=" stroke:none;fill-rule:nonzero;fill:rgb(82.745098%,82.745098%,82.745098%);fill-opacity:1;"
                  d="M 283 309.121094 L 282.03125 313.90625 L 292.484375 313.699219 L 293.796875 308.914062 Z M 283 309.121094 "/>
        </g>
        <mask id="mask1">
            <g filter="url(#alpha)">
                <rect x="0" y="0" width="548" height="406"
                      style="fill:rgb(0%,0%,0%);fill-opacity:0.14902;stroke:none;"/>
            </g>
        </mask>
        <clipPath id="clip2">
            <rect x="0" y="0" width="548" height="406"/>
        </clipPath>
        <g id="surface8" clip-path="url(#clip2)">
            <path style=" stroke:none;fill-rule:nonzero;fill:rgb(82.745098%,82.745098%,82.745098%);fill-opacity:1;"
                  d="M 307.710938 308.773438 L 307.851562 313.351562 L 317.128906 313.144531 L 317.265625 307.664062 Z M 307.710938 308.773438 "/>
        </g>
        <mask id="mask2">
            <g filter="url(#alpha)">
                <rect x="0" y="0" width="548" height="406"
                      style="fill:rgb(0%,0%,0%);fill-opacity:0.501961;stroke:none;"/>
            </g>
        </mask>
        <clipPath id="clip3">
            <rect x="0" y="0" width="548" height="406"/>
        </clipPath>
        <g id="surface11" clip-path="url(#clip3)">
            <path style=" stroke:none;fill-rule:nonzero;fill:rgb(82.745098%,82.745098%,82.745098%);fill-opacity:1;"
                  d="M 308.957031 344.972656 L 309.167969 351.769531 L 305.152344 351.839844 L 303.628906 345.25 L 309.996094 344.90625 "/>
        </g>
        <mask id="mask3">
            <g filter="url(#alpha)">
                <rect x="0" y="0" width="548" height="406"
                      style="fill:rgb(0%,0%,0%);fill-opacity:0.501961;stroke:none;"/>
            </g>
        </mask>
        <clipPath id="clip4">
            <rect x="0" y="0" width="548" height="406"/>
        </clipPath>
        <g id="surface14" clip-path="url(#clip4)">
            <path style=" stroke:none;fill-rule:nonzero;fill:rgb(82.745098%,82.745098%,82.745098%);fill-opacity:1;"
                  d="M 317.128906 344.90625 L 317.128906 351.632812 L 320.171875 351.421875 L 321.003906 344.695312 Z M 317.128906 344.90625 "/>
        </g>
        <mask id="mask4">
            <g filter="url(#alpha)">
                <rect x="0" y="0" width="548" height="406"
                      style="fill:rgb(0%,0%,0%);fill-opacity:0.301961;stroke:none;"/>
            </g>
        </mask>
        <clipPath id="clip5">
            <rect x="0" y="0" width="548" height="406"/>
        </clipPath>
        <g id="surface17" clip-path="url(#clip5)">
            <path style=" stroke:none;fill-rule:nonzero;fill:rgb(0%,4.705882%,21.960784%);fill-opacity:1;"
                  d="M 349.386719 260.441406 L 350.425781 266.957031 L 376.523438 265.988281 L 376.039062 260.441406 Z M 349.386719 260.441406 "/>
        </g>
        <mask id="mask5">
            <g filter="url(#alpha)">
                <rect x="0" y="0" width="548" height="406"
                      style="fill:rgb(0%,0%,0%);fill-opacity:0.301961;stroke:none;"/>
            </g>
        </mask>
        <clipPath id="clip6">
            <rect x="0" y="0" width="548" height="406"/>
        </clipPath>
        <g id="surface20" clip-path="url(#clip6)">
            <path style=" stroke:none;fill-rule:nonzero;fill:rgb(0%,4.705882%,21.960784%);fill-opacity:1;"
                  d="M 130.152344 260.441406 L 129.113281 267.167969 L 156.039062 266.402344 L 157.703125 260.441406 Z M 130.152344 260.441406 "/>
        </g>
    </defs>
    <g id="surface1">
        <path style=" stroke:none;fill-rule:nonzero;fill:rgb(80%,91.372549%,100%);fill-opacity:1;"
              d="M 465.199219 369.246094 C 535.53125 300.730469 539.132812 195.671875 412.171875 77.847656 C 393.757812 60.71875 384.761719 36.863281 366.484375 24.035156 C 311.105469 -14.867188 233.363281 -6.960938 184.421875 50.804688 C 157.632812 82.425781 146.832031 125.835938 119.003906 156.835938 C 87.785156 191.648438 50.402344 225.488281 36.210938 272.921875 C 26.796875 304.335938 28.390625 338.59375 39.121094 369.316406 C 193.351562 396.777344 339.140625 405.238281 465.199219 369.246094 Z M 465.199219 369.246094 "/>
        <path style=" stroke:none;fill-rule:nonzero;fill:rgb(16.470588%,58.039216%,95.686275%);fill-opacity:1;"
              d="M 409.128906 303.046875 C 409.128906 303.046875 399.988281 358.941406 434.324219 372.046875 C 468.660156 385.152344 460.007812 357.96875 460.007812 357.96875 C 460.007812 357.96875 473.230469 353.394531 434.53125 334.53125 C 416.328125 325.625 409.128906 303.046875 409.128906 303.046875 Z M 409.128906 303.046875 "/>
        <path style=" stroke:none;fill-rule:nonzero;fill:rgb(5.490196%,32.54902%,54.901961%);fill-opacity:1;"
              d="M 453.707031 375.554688 C 453.707031 375.554688 502.164062 375.902344 512.757812 310.71875 C 523.347656 245.53125 547.855469 233.1875 547.855469 233.1875 C 547.855469 233.1875 442.492188 245.53125 453.707031 375.554688 Z M 453.707031 375.554688 "/>
        <path style=" stroke:none;fill-rule:nonzero;fill:rgb(100%,74.509804%,33.333333%);fill-opacity:1;"
              d="M 452.253906 373.824219 C 463.539062 390.605469 491.710938 339.355469 482.714844 306.277344 C 473.714844 273.199219 456.0625 253.226562 455.855469 229.789062 C 455.855469 229.71875 396.667969 291.300781 452.253906 373.824219 Z M 452.253906 373.824219 "/>
        <path style=" stroke:none;fill-rule:nonzero;fill:rgb(16.470588%,58.039216%,95.686275%);fill-opacity:1;"
              d="M 0.144531 317.027344 C 0.144531 317.027344 12.398438 372.296875 49.15625 371.671875 C 85.914062 371.050781 67.777344 348.996094 67.777344 348.996094 C 67.777344 348.996094 78.371094 339.800781 35.449219 336.722656 C 15.238281 335.335938 0.144531 317.027344 0.144531 317.027344 Z M 0.144531 317.027344 "/>
        <path style=" stroke:none;fill-rule:nonzero;fill:rgb(100%,74.509804%,33.333333%);fill-opacity:1;"
              d="M 65.285156 368.761719 C 65.285156 368.761719 102.460938 357.109375 90.96875 315.847656 C 79.476562 274.585938 94.570312 261.273438 94.570312 261.273438 C 94.570312 261.273438 17.796875 294.351562 65.285156 368.761719 Z M 65.285156 368.761719 "/>
        <path style=" stroke:none;fill-rule:nonzero;fill:rgb(5.490196%,32.54902%,54.901961%);fill-opacity:1;"
              d="M 61.546875 367.375 C 78.230469 378.746094 85.429688 320.703125 64.734375 293.3125 C 44.035156 265.917969 20.289062 253.992188 11.429688 232.285156 C 11.429688 232.3125 -20.691406 311.550781 61.546875 367.375 Z M 61.546875 367.375 "/>
        <path style=" stroke:none;fill-rule:nonzero;fill:rgb(4.313725%,28.235294%,43.921569%);fill-opacity:1;"
              d="M 250.1875 369.175781 L 258.910156 380.410156 C 258.910156 380.410156 247.210938 393.449219 251.085938 392.269531 C 254.964844 391.089844 276.5625 373.683594 276.5625 373.683594 C 276.5625 373.683594 266.175781 359.675781 266.316406 359.605469 C 266.453125 359.539062 250.1875 369.175781 250.1875 369.175781 Z M 250.1875 369.175781 "/>
        <path style=" stroke:none;fill-rule:nonzero;fill:rgb(4.313725%,28.235294%,43.921569%);fill-opacity:1;"
              d="M 237.378906 284.917969 L 274.277344 362.796875 L 250.808594 376.042969 L 212.460938 306.277344 L 214.882812 283.324219 Z M 237.378906 284.917969 "/>
        <path style=" stroke:none;fill-rule:nonzero;fill:rgb(82.745098%,82.745098%,82.745098%);fill-opacity:1;"
              d="M 332.980469 307.597656 L 360.601562 401.839844 L 363.785156 401.769531 L 342.53125 307.042969 Z M 332.980469 307.597656 "/>
        <path style=" stroke:none;fill-rule:nonzero;fill:rgb(82.745098%,82.745098%,82.745098%);fill-opacity:1;"
              d="M 283.070312 309.121094 L 262.023438 402.394531 L 265.761719 402.324219 L 293.9375 308.84375 Z M 283.070312 309.121094 "/>
        <path style=" stroke:none;fill-rule:nonzero;fill:rgb(82.745098%,82.745098%,82.745098%);fill-opacity:1;"
              d="M 307.644531 306.488281 L 310.898438 401.285156 L 315.328125 401.214844 L 317.265625 306.625 Z M 307.644531 306.488281 "/>
        <path style=" stroke:none;fill-rule:nonzero;fill:rgb(82.745098%,82.745098%,82.745098%);fill-opacity:1;"
              d="M 282.097656 346.707031 L 345.164062 343.378906 L 345.578125 349.898438 L 277.324219 353.988281 Z M 282.097656 346.707031 "/>
        <use xlink:href="#surface5" mask="url(#mask0)"/>
        <use xlink:href="#surface8" mask="url(#mask1)"/>
        <use xlink:href="#surface11" mask="url(#mask2)"/>
        <use xlink:href="#surface14" mask="url(#mask3)"/>
        <path style=" stroke:none;fill-rule:nonzero;fill:rgb(100%,74.509804%,33.333333%);fill-opacity:1;"
              d="M 261.332031 302.355469 C 270.261719 297.984375 306.464844 300.34375 306.464844 300.34375 C 306.464844 300.34375 296.222656 173.230469 309.441406 172.1875 C 322.664062 171.148438 352.570312 161.648438 357.96875 180.859375 C 363.644531 201.039062 355.960938 309.082031 348.417969 308.039062 C 331.179688 305.683594 277.875 311.855469 261.816406 308.039062 C 257.730469 307.042969 261.332031 302.355469 261.332031 302.355469 Z M 261.332031 302.355469 "/>
        <path style=" stroke:none;fill-rule:nonzero;fill:rgb(91.764706%,64.313725%,24.705882%);fill-opacity:1;"
              d="M 346.617188 183.078125 C 346.910156 183.394531 347.164062 183.742188 347.378906 184.117188 C 347.585938 184.464844 347.863281 184.878906 348.140625 185.433594 C 348.417969 185.988281 348.695312 186.613281 349.039062 187.308594 C 350.722656 191.398438 351.773438 195.726562 352.15625 200.136719 C 352.777344 205.683594 352.777344 212.339844 352.707031 219.691406 C 352.640625 227.042969 352.15625 235.085938 351.460938 243.546875 C 350.769531 252.007812 350.007812 260.050781 349.246094 267.332031 C 348.484375 274.613281 347.722656 281.203125 346.753906 286.679688 C 346 291.019531 344.890625 295.289062 343.433594 299.441406 C 342.953125 300.988281 342.300781 302.476562 341.496094 303.878906 C 341.355469 303.808594 341.910156 302.214844 342.742188 299.234375 C 343.898438 295.039062 344.800781 290.777344 345.441406 286.472656 C 346.269531 280.996094 346.894531 274.476562 347.515625 267.195312 C 348.140625 259.914062 348.96875 251.867188 349.59375 243.476562 C 350.214844 235.085938 350.769531 227.042969 350.976562 219.691406 C 351.1875 212.339844 351.324219 205.824219 350.839844 200.34375 C 350.574219 196.023438 349.734375 191.753906 348.347656 187.652344 C 347.308594 184.644531 346.480469 183.117188 346.617188 183.078125 Z M 346.617188 183.078125 "/>
        <path style=" stroke:none;fill-rule:nonzero;fill:rgb(100%,72.941176%,59.607843%);fill-opacity:1;"
              d="M 212.527344 228.75 L 209.207031 227.015625 C 207.253906 226.238281 205.378906 225.285156 203.597656 224.171875 C 202.710938 223.632812 201.914062 222.957031 201.246094 222.160156 C 200.363281 221.1875 199.597656 220.117188 198.960938 218.96875 C 198.476562 217.859375 197.023438 217.792969 196.746094 218.761719 C 196.46875 219.734375 197.714844 222.785156 200.484375 225.488281 C 203.253906 228.195312 197.4375 227.363281 195.292969 227.152344 C 193.144531 226.945312 186.570312 226.390625 186.015625 227.015625 C 185.253906 227.847656 186.085938 228.957031 188.230469 229.164062 C 190.375 229.371094 196.746094 230.480469 196.675781 231.59375 C 196.605469 232.703125 185.738281 231.246094 185.738281 231.246094 C 185.738281 231.246094 183.453125 230.550781 183.316406 231.871094 C 183.039062 234.15625 194.597656 234.921875 195.707031 234.921875 C 196.46875 234.921875 196.398438 236.167969 195.566406 236.097656 C 194.738281 236.03125 184.769531 234.367188 184.492188 236.722656 C 184.285156 238.527344 193.976562 237.417969 195.984375 238.875 C 197.992188 240.328125 188.4375 238.941406 188.300781 240.675781 C 188.230469 241.300781 188.300781 241.785156 193.769531 241.855469 C 199.375 241.855469 214.464844 239.429688 214.464844 239.429688 L 212.320312 228.75 "/>
        <path style=" stroke:none;fill-rule:nonzero;fill:rgb(96.862745%,96.862745%,96.862745%);fill-opacity:1;"
              d="M 286.667969 183.464844 C 286.667969 183.464844 258.355469 221.605469 251.847656 223.269531 C 245.339844 224.933594 208.167969 227.222656 208.167969 227.222656 L 204.84375 243.3125 C 204.84375 243.3125 252.402344 245.808594 262.855469 238.109375 C 279.332031 225.976562 296.566406 197.957031 296.566406 197.957031 C 297.121094 188.734375 293.589844 184.160156 286.667969 183.464844 Z M 286.667969 183.464844 "/>
        <path style=" stroke:none;fill-rule:nonzero;fill:rgb(5.490196%,32.54902%,54.901961%);fill-opacity:1;"
              d="M 209.691406 383.183594 L 211.488281 397.332031 C 211.488281 397.332031 194.738281 402.601562 198.753906 403.574219 C 202.765625 404.542969 230.113281 400.589844 230.113281 400.589844 C 230.113281 400.589844 228.242188 383.253906 228.449219 383.253906 C 228.65625 383.253906 209.691406 383.183594 209.691406 383.183594 Z M 324.601562 254.753906 C 324.601562 254.753906 340.386719 288.527344 309.234375 300.175781 L 292.621094 264.046875 Z M 324.601562 254.753906 "/>
        <path style=" stroke:none;fill-rule:nonzero;fill:rgb(5.490196%,32.54902%,54.901961%);fill-opacity:1;"
              d="M 302.9375 263.769531 C 302.9375 263.769531 213.082031 239.011719 202.976562 259.816406 C 192.867188 280.621094 204.914062 388.664062 204.914062 388.664062 L 233.019531 385.679688 C 233.019531 385.679688 228.3125 290.746094 233.019531 287.417969 C 237.726562 284.085938 302.453125 300.453125 309.234375 300.175781 C 325.78125 299.484375 337.480469 268.554688 302.9375 263.769531 Z M 302.9375 263.769531 "/>
        <path style=" stroke:none;fill-rule:nonzero;fill:rgb(96.862745%,96.862745%,96.862745%);fill-opacity:1;"
              d="M 304.875 173.269531 C 293.085938 173.550781 283.511719 182.898438 282.929688 194.699219 C 282.445312 204.546875 283.414062 218 280.785156 229.859375 C 279.398438 235.960938 271.4375 260.507812 271.4375 260.507812 L 279.398438 261.828125 C 291.730469 263.902344 304.363281 263.289062 316.433594 260.023438 L 325.503906 257.597656 C 325.503906 257.597656 330.765625 230.273438 333.671875 204.617188 C 336.164062 183.1875 332.078125 174.867188 319.066406 172.992188 Z M 304.875 173.269531 "/>
        <path style=" stroke:none;fill-rule:nonzero;fill:rgb(72.54902%,47.843137%,34.901961%);fill-opacity:1;"
              d="M 298.644531 174.796875 C 299.058594 172.714844 298.367188 163.976562 298.367188 163.976562 C 298.367188 163.976562 290.40625 162.9375 290.128906 155.03125 C 289.851562 147.128906 290.683594 128.886719 290.683594 128.886719 L 305.359375 122.09375 L 321.074219 134.535156 L 322.527344 143.269531 L 318.859375 153.671875 L 317.195312 173.507812 Z M 298.644531 174.796875 "/>
        <path style=" stroke:none;fill-rule:nonzero;fill:rgb(62.745098%,39.607843%,29.411765%);fill-opacity:1;"
              d="M 298.367188 163.976562 C 302.117188 163.882812 305.765625 162.730469 308.890625 160.648438 C 308.890625 160.648438 306.398438 166.40625 298.503906 165.921875 Z M 298.367188 163.976562 "/>
        <path style=" stroke:none;fill-rule:nonzero;fill:rgb(72.54902%,47.843137%,34.901961%);fill-opacity:1;"
              d="M 280.992188 255.726562 L 277.253906 255.515625 C 275.148438 255.625 273.039062 255.53125 270.953125 255.238281 C 269.90625 255.101562 268.882812 254.820312 267.910156 254.40625 C 266.707031 253.894531 265.566406 253.242188 264.515625 252.464844 C 263.617188 251.632812 262.230469 252.1875 262.4375 253.226562 C 262.648438 254.269531 265 256.488281 268.667969 257.804688 C 272.339844 259.121094 266.664062 260.855469 264.65625 261.480469 C 262.648438 262.105469 256.417969 264.460938 256.210938 265.226562 C 255.863281 266.335938 257.109375 266.957031 259.117188 266.265625 C 261.125 265.570312 267.355469 263.839844 267.769531 264.878906 C 268.183594 265.917969 257.730469 269.109375 257.730469 269.109375 C 257.730469 269.109375 255.378906 269.457031 255.792969 270.703125 C 256.554688 272.921875 267.285156 268.691406 268.324219 268.277344 C 268.628906 268.160156 268.96875 268.316406 269.085938 268.625 C 269.199219 268.929688 269.042969 269.269531 268.738281 269.386719 C 267.910156 269.664062 258.214844 272.367188 258.976562 274.585938 C 259.53125 276.320312 267.910156 271.1875 270.332031 271.742188 C 272.753906 272.296875 263.546875 275.003906 264.101562 276.597656 C 264.308594 277.222656 264.585938 277.636719 269.570312 275.351562 C 274.691406 272.992188 287.292969 264.460938 287.292969 264.460938 L 280.851562 255.65625 "/>
        <path style=" stroke:none;fill-rule:nonzero;fill:rgb(82.745098%,82.745098%,82.745098%);fill-opacity:1;"
              d="M 292.273438 263.007812 C 292.273438 263.007812 309.929688 257.945312 321.140625 247.472656 C 330.070312 239.152344 329.933594 231.382812 329.933594 231.382812 L 334.15625 198.929688 Z M 292.273438 263.007812 "/>
        <path style=" stroke:none;fill-rule:nonzero;fill:rgb(96.862745%,96.862745%,96.862745%);fill-opacity:1;"
              d="M 316.851562 175.765625 C 316.851562 175.765625 313.457031 223.199219 308.890625 228.125 C 304.320312 233.046875 274.207031 254.960938 274.207031 254.960938 L 280.089844 270.355469 C 280.089844 270.355469 321.488281 246.777344 326.195312 234.644531 C 331.804688 219.941406 332.839844 197.058594 332.980469 187.277344 C 333.132812 183.132812 331.339844 179.15625 328.132812 176.53125 C 324.742188 173.824219 320.933594 173.6875 316.851562 175.765625 Z M 316.851562 175.765625 "/>
        <path style=" stroke:none;fill-rule:nonzero;fill:rgb(91.764706%,64.313725%,24.705882%);fill-opacity:1;"
              d="M 339.832031 303.644531 C 339.695312 304.199219 331.527344 302.878906 321.28125 302.046875 C 311.035156 301.214844 302.726562 301.148438 302.726562 300.59375 C 302.726562 300.039062 311.105469 299.34375 321.417969 300.175781 C 331.734375 301.007812 339.972656 303.15625 339.832031 303.644531 Z M 336.71875 220.289062 C 336.648438 220.359375 336.300781 220.289062 336.164062 219.734375 C 336.070312 219.023438 336.394531 218.320312 336.996094 217.929688 C 337.429688 217.597656 337.976562 217.445312 338.519531 217.515625 C 338.828125 217.566406 339.132812 217.660156 339.417969 217.792969 C 339.675781 217.9375 339.910156 218.125 340.109375 218.347656 C 340.949219 219.351562 341.164062 220.742188 340.664062 221.953125 C 340.242188 223.148438 339.257812 224.054688 338.03125 224.378906 C 337.738281 224.4375 337.433594 224.460938 337.132812 224.449219 C 336.835938 224.429688 336.550781 224.335938 336.300781 224.171875 C 335.855469 223.929688 335.511719 223.535156 335.332031 223.0625 C 335 222.425781 335.023438 221.660156 335.402344 221.050781 C 335.679688 220.636719 336.027344 220.636719 336.09375 220.703125 C 336.164062 220.773438 336.09375 221.050781 336.09375 221.328125 C 336.089844 221.71875 336.238281 222.089844 336.511719 222.367188 C 336.644531 222.566406 336.839844 222.710938 337.0625 222.785156 C 337.203125 222.785156 337.273438 222.855469 337.339844 222.785156 C 337.460938 222.804688 337.582031 222.777344 337.6875 222.714844 C 338.3125 222.480469 338.800781 221.96875 339.003906 221.328125 C 339.207031 220.710938 339.15625 220.035156 338.863281 219.457031 C 338.667969 219.042969 338.175781 218.855469 337.757812 219.039062 C 337.410156 219.175781 337.121094 219.417969 336.925781 219.734375 C 336.785156 219.941406 336.855469 220.21875 336.71875 220.289062 Z M 336.71875 220.289062 "/>
        <path style=" stroke:none;fill-rule:nonzero;fill:rgb(82.745098%,82.745098%,82.745098%);fill-opacity:1;"
              d="M 315.1875 190.746094 C 315.328125 190.746094 315.398438 191.855469 315.398438 193.796875 C 315.398438 195.738281 315.328125 198.652344 315.121094 202.121094 C 314.847656 206.269531 314.269531 210.398438 313.390625 214.464844 C 312.285156 219.503906 310.316406 224.3125 307.574219 228.679688 C 304.644531 232.910156 301.070312 236.652344 296.984375 239.773438 C 293.3125 242.6875 289.785156 244.976562 286.875 246.988281 C 281.0625 250.941406 277.738281 253.714844 277.601562 253.503906 C 277.53125 253.4375 278.292969 252.605469 279.746094 251.285156 C 281.199219 249.96875 283.414062 248.164062 286.253906 246.015625 C 289.089844 243.867188 292.484375 241.507812 296.082031 238.597656 C 299.980469 235.523438 303.386719 231.875 306.191406 227.777344 C 308.835938 223.578125 310.753906 218.957031 311.867188 214.117188 C 312.8125 210.140625 313.507812 206.113281 313.941406 202.050781 C 314.703125 195.113281 314.980469 190.746094 315.1875 190.746094 Z M 315.1875 190.746094 "/>
        <path style=" stroke:none;fill-rule:nonzero;fill:rgb(82.745098%,82.745098%,82.745098%);fill-opacity:1;"
              d="M 305.636719 175.976562 L 306.257812 168.902344 L 317.75 166.820312 L 321.210938 174.3125 Z M 305.636719 175.976562 "/>
        <path style=" stroke:none;fill-rule:nonzero;fill:rgb(82.745098%,82.745098%,82.745098%);fill-opacity:1;"
              d="M 298.367188 168.070312 L 302.9375 168.902344 L 302.9375 175.976562 L 297.191406 174.796875 L 298.574219 166.820312 "/>
        <path style=" stroke:none;fill-rule:nonzero;fill:rgb(82.745098%,82.745098%,82.745098%);fill-opacity:1;"
              d="M 284.589844 201.105469 C 284.59375 208.519531 283.6875 215.902344 281.890625 223.089844 "/>
        <path style=" stroke:none;fill-rule:nonzero;fill:rgb(14.509804%,26.27451%,40.784314%);fill-opacity:1;"
              d="M 107.515625 250.941406 L 396.945312 250.941406 L 396.945312 260.441406 L 107.515625 260.441406 Z M 107.515625 250.941406 "/>
        <path style=" stroke:none;fill-rule:nonzero;fill:rgb(14.509804%,26.27451%,40.784314%);fill-opacity:1;"
              d="M 130.152344 260.441406 L 107.515625 403.019531 L 118.796875 403.226562 L 157.703125 260.441406 Z M 130.152344 260.441406 "/>
        <path style=" stroke:none;fill-rule:nonzero;fill:rgb(14.509804%,26.27451%,40.784314%);fill-opacity:1;"
              d="M 375.898438 258.84375 L 389.050781 406 L 378.460938 406 L 350.007812 264.949219 L 348.554688 254.476562 L 375.898438 258.84375 "/>
        <use xlink:href="#surface17" mask="url(#mask4)"/>
        <use xlink:href="#surface20" mask="url(#mask5)"/>
        <path style=" stroke:none;fill-rule:nonzero;fill:rgb(82.745098%,82.745098%,82.745098%);fill-opacity:1;"
              d="M 150.847656 198.167969 L 168.917969 250.941406 L 250.53125 250.941406 L 249.910156 248.234375 L 216.890625 247.195312 L 201.730469 198.167969 Z M 150.847656 198.167969 "/>
        <path style=" stroke:none;fill-rule:nonzero;fill:rgb(96.862745%,96.862745%,96.862745%);fill-opacity:1;"
              d="M 187.054688 223.6875 C 187.605469 225.835938 186.636719 227.984375 184.976562 228.402344 C 183.316406 228.816406 181.515625 227.429688 180.960938 225.28125 C 180.40625 223.132812 181.378906 220.980469 183.039062 220.566406 C 184.699219 220.148438 186.5 221.535156 187.054688 223.6875 Z M 187.054688 223.6875 "/>
        <path style=" stroke:none;fill-rule:nonzero;fill:rgb(16.470588%,58.039216%,95.686275%);fill-opacity:1;"
              d="M 350.5625 234.503906 C 348.140625 226.253906 347.03125 214.671875 346.410156 206.140625 C 346.269531 204.476562 346.203125 202.675781 346.824219 201.148438 C 347.449219 199.621094 348.902344 198.167969 350.5625 198.234375 C 351.996094 198.355469 353.269531 199.191406 353.953125 200.453125 C 354.578125 201.722656 354.996094 203.078125 355.199219 204.476562 C 356.722656 212.453125 358.316406 220.359375 359.839844 228.332031 C 361.308594 225.503906 363.253906 222.945312 365.585938 220.773438 C 366.621094 219.804688 368.144531 218.832031 369.390625 219.527344 C 370.5 220.148438 370.636719 221.675781 370.570312 222.992188 C 370.429688 226.890625 369.945312 230.765625 369.113281 234.574219 "/>
        <path style=" stroke:none;fill-rule:nonzero;fill:rgb(5.490196%,32.54902%,54.901961%);fill-opacity:1;"
              d="M 347.238281 233.699219 C 347.238281 233.699219 343.15625 249.859375 359.632812 250.621094 C 374.792969 251.3125 371.191406 233.699219 371.191406 233.699219 Z M 347.238281 233.699219 "/>
        <path style=" stroke:none;fill-rule:nonzero;fill:rgb(4.313725%,28.235294%,43.921569%);fill-opacity:1;"
              d="M 308.890625 136.238281 C 309.007812 136.300781 309.125 136.371094 309.234375 136.449219 C 309.574219 136.65625 309.894531 136.890625 310.203125 137.140625 C 312.042969 138.792969 312.746094 141.371094 312.003906 143.730469 C 311.660156 144.832031 311.011719 145.816406 310.136719 146.570312 C 309.683594 146.996094 309.171875 147.347656 308.613281 147.613281 C 308.027344 147.910156 307.394531 148.097656 306.742188 148.167969 C 303.957031 148.574219 301.234375 147.109375 300.027344 144.5625 C 299.75 143.96875 299.5625 143.335938 299.476562 142.6875 C 299.40625 142.066406 299.40625 141.4375 299.476562 140.816406 C 299.632812 139.664062 300.113281 138.582031 300.859375 137.695312 C 301.507812 136.9375 302.3125 136.320312 303.214844 135.894531 C 304.519531 135.300781 305.992188 135.203125 307.367188 135.617188 C 307.730469 135.703125 308.082031 135.84375 308.40625 136.03125 C 308.75 136.171875 308.890625 136.238281 308.890625 136.238281 C 308.414062 136.050781 307.929688 135.886719 307.4375 135.753906 C 306.089844 135.433594 304.671875 135.578125 303.421875 136.171875 C 302.550781 136.554688 301.789062 137.148438 301.207031 137.902344 C 300.542969 138.75 300.113281 139.753906 299.960938 140.816406 C 299.890625 141.390625 299.890625 141.972656 299.960938 142.550781 C 300.039062 143.15625 300.226562 143.742188 300.511719 144.285156 C 301.078125 145.441406 301.96875 146.40625 303.074219 147.058594 C 304.222656 147.660156 305.523438 147.898438 306.8125 147.75 C 307.40625 147.664062 307.988281 147.5 308.542969 147.265625 C 309.078125 147.023438 309.570312 146.695312 309.996094 146.292969 C 310.824219 145.570312 311.445312 144.636719 311.796875 143.589844 C 312.101562 142.699219 312.171875 141.742188 312.003906 140.816406 C 311.796875 139.441406 311.140625 138.171875 310.136719 137.210938 C 309.375 136.515625 308.890625 136.308594 308.890625 136.238281 Z M 308.890625 136.238281 "/>
        <path style=" stroke:none;fill-rule:nonzero;fill:rgb(4.313725%,28.235294%,43.921569%);fill-opacity:1;"
              d="M 291.238281 134.992188 L 291.652344 134.992188 C 292.027344 135.011719 292.402344 135.082031 292.761719 135.199219 C 294.140625 135.585938 295.355469 136.414062 296.222656 137.558594 C 296.8125 138.351562 297.191406 139.28125 297.328125 140.261719 C 297.628906 142.027344 297.175781 143.835938 296.082031 145.253906 C 294.832031 146.878906 292.867188 147.789062 290.820312 147.683594 C 289.460938 147.621094 288.152344 147.136719 287.082031 146.292969 C 286.574219 145.902344 286.132812 145.4375 285.769531 144.90625 C 285.4375 144.382812 285.160156 143.824219 284.9375 143.242188 C 284.269531 141.164062 284.714844 138.886719 286.113281 137.210938 C 287.046875 136.117188 288.3125 135.359375 289.714844 135.0625 C 290.101562 134.972656 290.496094 134.949219 290.890625 134.992188 C 291.003906 134.949219 291.125 134.949219 291.238281 134.992188 C 291.238281 135.0625 290.683594 134.992188 289.714844 135.199219 C 288.359375 135.519531 287.144531 136.277344 286.253906 137.347656 C 285.636719 138.089844 285.207031 138.972656 285.007812 139.914062 C 284.777344 140.972656 284.824219 142.070312 285.144531 143.105469 C 285.300781 143.679688 285.558594 144.21875 285.90625 144.699219 C 286.25 145.203125 286.667969 145.648438 287.152344 146.015625 C 289.210938 147.671875 292.105469 147.785156 294.28125 146.292969 C 294.785156 145.953125 295.230469 145.53125 295.597656 145.046875 C 295.964844 144.578125 296.265625 144.066406 296.5 143.519531 C 297.136719 141.914062 297.082031 140.117188 296.347656 138.550781 C 295.613281 136.988281 294.265625 135.796875 292.621094 135.269531 C 292.175781 135.109375 291.710938 135.015625 291.238281 134.992188 Z M 291.238281 134.992188 "/>
        <path style=" stroke:none;fill-rule:nonzero;fill:rgb(4.313725%,28.235294%,43.921569%);fill-opacity:1;"
              d="M 297.121094 141.925781 C 297.570312 141.792969 298.039062 141.746094 298.503906 141.789062 C 298.953125 141.742188 299.40625 141.816406 299.820312 141.996094 C 299.371094 142.128906 298.902344 142.175781 298.4375 142.132812 C 297.675781 142.160156 297.050781 142.066406 297.121094 141.925781 Z M 297.121094 141.925781 "/>
        <path style=" stroke:none;fill-rule:nonzero;fill:rgb(4.313725%,28.235294%,43.921569%);fill-opacity:1;"
              d="M 311.867188 142.480469 C 312.945312 142.351562 314.035156 142.328125 315.121094 142.410156 C 316.210938 142.410156 317.296875 142.503906 318.375 142.6875 C 317.292969 142.820312 316.203125 142.839844 315.121094 142.757812 C 314.027344 142.757812 312.941406 142.664062 311.867188 142.480469 Z M 311.867188 142.480469 "/>
        <path style=" stroke:none;fill-rule:nonzero;fill:rgb(5.490196%,32.54902%,54.901961%);fill-opacity:1;"
              d="M 318.304688 154.964844 C 322.527344 150.316406 322.941406 143.589844 323.011719 137.28125 C 323.082031 134.226562 322.871094 131.109375 321.351562 128.472656 C 319.828125 125.835938 317.195312 124.242188 314.496094 123.0625 C 310.339844 121.164062 305.714844 120.535156 301.207031 121.261719 C 296.773438 122.09375 292.550781 124.726562 290.335938 128.679688 C 290.335938 128.679688 310.898438 128.265625 312.28125 129.097656 C 313.664062 129.929688 317.886719 132.910156 317.542969 136.585938 C 317.195312 140.261719 316.15625 145.671875 316.15625 145.671875 L 319.480469 145.183594 C 319.480469 145.183594 319.203125 140.191406 320.65625 140.332031 C 322.042969 140.609375 318.304688 154.964844 318.304688 154.964844 Z M 318.304688 154.964844 "/>
        <path style=" stroke:none;fill-rule:nonzero;fill:rgb(72.54902%,47.843137%,34.901961%);fill-opacity:1;"
              d="M 319.273438 146.433594 C 319.460938 147.027344 320.039062 147.402344 320.65625 147.335938 C 321.269531 147.28125 321.851562 147.039062 322.320312 146.640625 C 323.347656 145.894531 324.042969 144.777344 324.257812 143.519531 C 324.410156 142.25 323.851562 140.996094 322.804688 140.261719 C 321.667969 139.597656 320.214844 139.933594 319.480469 141.023438 Z M 319.273438 146.433594 "/>
    </g>
</svg>
