<?xml version="1.0" encoding="UTF-8"?>
<svg xmlns="http://www.w3.org/2000/svg" xmlns:xlink="http://www.w3.org/1999/xlink" width="550px" height="427px"
     viewBox="0 0 549 427" version="1.1">
    <g id="surface1">
        <path style=" stroke:none;fill-rule:nonzero;fill:rgb(83.529412%,93.72549%,78.431373%);fill-opacity:1;"
              d="M 360.300781 426.304688 C 378.128906 420.628906 394.128906 414.820312 413.375 403.816406 C 433.214844 392.460938 521.390625 338.433594 532.859375 244.910156 C 535.855469 219.285156 533.363281 193.3125 525.542969 168.730469 C 522.003906 158.15625 514.652344 136.894531 496.101562 115.871094 C 473.390625 90.125 447.46875 80.164062 432.273438 74.503906 C 400.273438 62.601562 373.492188 63.242188 360.71875 63.671875 C 346.941406 64.128906 322.609375 65.15625 294.960938 77.460938 C 276.921875 85.480469 265.703125 94.636719 249.191406 108.316406 C 223.015625 130.007812 219.566406 139.035156 173.769531 183.828125 C 161.199219 196.125 150.855469 205.804688 135.085938 215.363281 C 124.113281 221.972656 115.300781 225.671875 98.988281 232.421875 C 58.886719 249.023438 47.46875 252.382812 34.347656 261.722656 C 8.828125 279.90625 10.472656 299.738281 9.347656 303.984375 C 6.503906 314.921875 5.855469 326.3125 7.4375 337.496094 C 10.785156 359.929688 22.644531 374.589844 30.003906 383.460938 C 40.074219 395.5 52.320312 405.527344 66.101562 413.019531 C 75.636719 418.144531 85.523438 422.582031 95.6875 426.304688 Z M 360.300781 426.304688 "/>
        <path style=" stroke:none;fill-rule:nonzero;fill:rgb(83.529412%,93.72549%,78.431373%);fill-opacity:1;"
              d="M 416.902344 410.445312 L 416.363281 409.476562 C 442.585938 394.46875 529.042969 338.222656 540.566406 244.371094 C 543.667969 217.765625 541.078125 190.804688 532.976562 165.277344 C 529.710938 155.519531 522.058594 132.664062 502.421875 110.40625 C 478.375 83.148438 450.917969 72.949219 436.160156 67.464844 C 412.386719 58.742188 387.101562 54.917969 361.816406 56.21875 C 348.183594 56.667969 322.8125 57.511719 293.527344 70.53125 L 293.089844 69.503906 C 322.566406 56.394531 349.054688 55.523438 361.78125 55.09375 C 387.203125 53.792969 412.625 57.644531 436.527344 66.417969 C 451.363281 71.914062 478.984375 82.195312 503.226562 109.664062 C 523.011719 132.085938 530.707031 155.089844 534 164.914062 C 542.144531 190.589844 544.746094 217.710938 541.636719 244.472656 C 530.070312 338.878906 443.246094 395.382812 416.902344 410.445312 Z M 416.902344 410.445312 "/>
        <path style=" stroke:none;fill-rule:nonzero;fill:rgb(89.803922%,88.235294%,89.803922%);fill-opacity:1;"
              d="M 75.738281 0 L 349.335938 0 C 356.964844 0.0546875 363.105469 6.292969 363.050781 13.9375 L 363.050781 218.722656 C 363.082031 222.394531 361.652344 225.925781 359.078125 228.539062 C 356.507812 231.152344 353 232.636719 349.335938 232.660156 L 75.738281 232.660156 C 72.070312 232.636719 68.566406 231.15625 65.992188 228.542969 C 63.417969 225.925781 61.992188 222.394531 62.023438 218.722656 L 62.023438 13.9375 C 61.992188 10.265625 63.421875 6.734375 65.996094 4.121094 C 68.566406 1.507812 72.074219 0.0234375 75.738281 0 Z M 75.738281 0 "/>
        <path style=" stroke:none;fill-rule:nonzero;fill:rgb(63.529412%,68.235294%,90.196078%);fill-opacity:1;"
              d="M 62.050781 27.652344 L 363.015625 27.652344 L 363.015625 28.925781 L 62.050781 28.925781 Z M 62.050781 27.652344 "/>
        <path style=" stroke:none;fill-rule:nonzero;fill:rgb(100%,72.941176%,33.333333%);fill-opacity:1;"
              d="M 79.074219 21.214844 C 86.28125 21.214844 86.289062 9.804688 79.074219 9.804688 C 71.859375 9.804688 71.851562 21.214844 79.074219 21.214844 Z M 79.074219 21.214844 "/>
        <path style=" stroke:none;fill-rule:nonzero;fill:rgb(96.862745%,23.529412%,30.980392%);fill-opacity:1;"
              d="M 97.734375 21.214844 C 104.941406 21.214844 104.949219 9.804688 97.734375 9.804688 C 90.523438 9.804688 90.511719 21.214844 97.734375 21.214844 Z M 97.734375 21.214844 "/>
        <path style=" stroke:none;fill-rule:nonzero;fill:rgb(30.980392%,40%,81.568627%);fill-opacity:1;"
              d="M 115.152344 21.214844 C 122.359375 21.214844 122.367188 9.804688 115.152344 9.804688 C 107.941406 9.804688 107.929688 21.214844 115.152344 21.214844 Z M 115.152344 21.214844 "/>
        <path style=" stroke:none;fill-rule:nonzero;fill:rgb(63.529412%,68.235294%,90.196078%);fill-opacity:1;"
              d="M 132.351562 132.023438 L 343.667969 132.023438 L 343.667969 133.296875 L 132.351562 133.296875 Z M 132.351562 132.023438 "/>
        <path style=" stroke:none;fill-rule:nonzero;fill:rgb(63.529412%,68.235294%,90.196078%);fill-opacity:1;"
              d="M 132.351562 170.34375 L 343.667969 170.34375 L 343.667969 171.613281 L 132.351562 171.613281 Z M 132.351562 170.34375 "/>
        <path style=" stroke:none;fill-rule:nonzero;fill:rgb(63.529412%,68.235294%,90.196078%);fill-opacity:1;"
              d="M 132.351562 209.164062 L 343.667969 209.164062 L 343.667969 210.4375 L 132.351562 210.4375 Z M 132.351562 209.164062 "/>
        <path style=" stroke:none;fill-rule:nonzero;fill:rgb(63.529412%,68.235294%,90.196078%);fill-opacity:1;"
              d="M 132.351562 53.445312 L 343.667969 53.445312 L 343.667969 54.71875 L 132.351562 54.71875 Z M 132.351562 53.445312 "/>
        <path style=" stroke:none;fill-rule:nonzero;fill:rgb(63.529412%,68.235294%,90.196078%);fill-opacity:1;"
              d="M 132.351562 92.277344 L 343.667969 92.277344 L 343.667969 93.550781 L 132.351562 93.550781 Z M 132.351562 92.277344 "/>
        <path style=" stroke:none;fill-rule:nonzero;fill:rgb(63.529412%,68.235294%,90.196078%);fill-opacity:1;"
              d="M 335.375 14.953125 L 351.960938 14.953125 L 351.960938 16.070312 L 335.375 16.070312 Z M 335.375 14.953125 "/>
        <path style=" stroke:none;fill-rule:nonzero;fill:rgb(63.529412%,68.235294%,90.196078%);fill-opacity:1;"
              d="M 343.121094 7.058594 L 344.214844 7.058594 L 344.214844 23.960938 L 343.121094 23.960938 Z M 343.121094 7.058594 "/>
        <path style=" stroke:none;fill-rule:nonzero;fill:rgb(30.980392%,40%,81.568627%);fill-opacity:1;"
              d="M 94.433594 59.597656 L 87.054688 53.070312 L 88.5 51.382812 L 94.324219 56.539062 L 106.203125 44.453125 L 107.746094 46.027344 Z M 94.433594 59.597656 "/>
        <path style=" stroke:none;fill-rule:nonzero;fill:rgb(30.980392%,40%,81.568627%);fill-opacity:1;"
              d="M 94.433594 139.960938 L 87.054688 133.433594 L 88.5 131.75 L 94.324219 136.902344 L 106.203125 124.816406 L 107.746094 126.390625 Z M 94.433594 139.960938 "/>
        <path style=" stroke:none;fill-rule:nonzero;fill:rgb(30.980392%,40%,81.568627%);fill-opacity:1;"
              d="M 94.433594 99.246094 L 87.054688 92.714844 L 88.5 91.03125 L 94.324219 96.195312 L 106.203125 84.101562 L 107.746094 85.683594 Z M 94.433594 99.246094 "/>
        <path style=" stroke:none;fill-rule:nonzero;fill:rgb(96.862745%,23.529412%,30.980392%);fill-opacity:1;"
              d="M 97.378906 179.085938 C 93.578125 179.171875 90.101562 176.945312 88.589844 173.449219 C 87.074219 169.957031 87.824219 165.894531 90.484375 163.171875 C 93.144531 160.449219 97.183594 159.609375 100.703125 161.050781 C 104.226562 162.488281 106.523438 165.921875 106.523438 169.730469 C 106.5625 174.835938 102.476562 179.015625 97.378906 179.085938 Z M 97.378906 162.605469 C 94.488281 162.554688 91.851562 164.257812 90.707031 166.917969 C 89.566406 169.578125 90.144531 172.667969 92.167969 174.734375 C 94.195312 176.800781 97.269531 177.433594 99.945312 176.339844 C 102.625 175.242188 104.375 172.632812 104.375 169.738281 C 104.410156 165.832031 101.277344 162.636719 97.378906 162.597656 Z M 97.378906 162.605469 "/>
        <path style=" stroke:none;fill-rule:nonzero;fill:rgb(100%,72.941176%,33.333333%);fill-opacity:1;"
              d="M 97.378906 216.507812 C 93.578125 216.59375 90.105469 214.367188 88.589844 210.875 C 87.074219 207.382812 87.824219 203.320312 90.480469 200.597656 C 93.136719 197.871094 97.175781 197.03125 100.699219 198.46875 C 104.21875 199.90625 106.519531 203.332031 106.523438 207.140625 C 106.5625 212.25 102.480469 216.433594 97.378906 216.507812 Z M 97.378906 200.027344 C 94.488281 199.972656 91.851562 201.679688 90.707031 204.339844 C 89.566406 207 90.144531 210.089844 92.167969 212.15625 C 94.195312 214.222656 97.269531 214.855469 99.945312 213.761719 C 102.625 212.664062 104.375 210.054688 104.375 207.160156 C 104.414062 203.25 101.28125 200.046875 97.378906 200.007812 Z M 97.378906 200.027344 "/>
        <path style=" stroke:none;fill-rule:nonzero;fill:rgb(100%,72.941176%,33.333333%);fill-opacity:1;"
              d="M 105.472656 207.140625 C 105.5 211.652344 101.882812 215.335938 97.378906 215.382812 C 95.851562 215.382812 96.273438 198.902344 97.378906 198.902344 C 99.542969 198.914062 101.613281 199.792969 103.132812 201.339844 C 104.652344 202.882812 105.492188 204.972656 105.472656 207.140625 Z M 105.472656 207.140625 "/>
        <path style=" stroke:none;fill-rule:nonzero;fill:rgb(11.764706%,11.372549%,13.333333%);fill-opacity:1;"
              d="M 388.789062 71.554688 C 388.789062 71.554688 385.964844 64.871094 401.9375 66.640625 C 417.910156 68.40625 416.902344 74.210938 413.578125 98.933594 C 413.558594 98.933594 389.410156 110.132812 388.789062 71.554688 Z M 388.789062 71.554688 "/>
        <path style=" stroke:none;fill-rule:nonzero;fill:rgb(97.647059%,59.215686%,47.843137%);fill-opacity:1;"
              d="M 392.957031 107.519531 L 394.648438 125.175781 L 418.566406 131.988281 L 414.574219 107.84375 L 413.558594 98.933594 C 413.558594 98.933594 399.167969 99.316406 406.070312 91.167969 C 408.65625 88.109375 408.265625 81.453125 404.050781 85.050781 C 404.050781 85.050781 398.398438 87.222656 397.90625 82.066406 C 397.410156 76.914062 398.636719 74.789062 398.636719 74.789062 C 398.636719 74.789062 391.742188 74.375 388.769531 71.554688 L 386.230469 74.722656 C 385.066406 76.183594 384.574219 78.070312 384.875 79.914062 L 385.058594 81.085938 L 379.371094 86.984375 C 378.886719 87.484375 378.851562 88.273438 379.289062 88.816406 C 379.609375 89.199219 380.03125 89.730469 380.605469 90.554688 C 381.425781 91.808594 381.671875 93.355469 381.292969 94.804688 L 387.554688 94.804688 C 387.089844 96.199219 386.253906 97.441406 385.132812 98.394531 C 383.457031 99.609375 380.871094 99.683594 380.871094 100.085938 C 380.851562 103.300781 382.132812 109.664062 392.957031 107.519531 Z M 392.957031 107.519531 "/>
        <path style=" stroke:none;fill-rule:nonzero;fill:rgb(11.764706%,11.372549%,13.333333%);fill-opacity:1;"
              d="M 392.363281 81.710938 C 391.964844 81.789062 391.570312 81.550781 391.449219 81.160156 C 390.644531 78.515625 386.59375 76.996094 385.09375 76.582031 C 384.742188 76.425781 384.558594 76.035156 384.65625 75.660156 C 384.757812 75.285156 385.113281 75.042969 385.496094 75.082031 C 385.753906 75.136719 391.75 76.636719 392.976562 80.675781 C 393.109375 81.089844 392.878906 81.53125 392.464844 81.664062 Z M 392.363281 81.710938 "/>
        <path style=" stroke:none;fill-rule:nonzero;fill:rgb(86.666667%,46.27451%,36.862745%);fill-opacity:1;"
              d="M 400.765625 101.964844 C 398.609375 105.625 392.957031 107.519531 392.957031 107.519531 L 394.019531 118.609375 C 397.019531 114.140625 400.765625 101.964844 400.765625 101.964844 Z M 400.765625 101.964844 "/>
        <path style=" stroke:none;fill-rule:nonzero;fill:rgb(11.764706%,11.372549%,13.333333%);fill-opacity:1;"
              d="M 387.554688 83.734375 C 388.296875 83.695312 388.871094 83.066406 388.84375 82.324219 C 388.78125 81.628906 388.175781 81.113281 387.484375 81.152344 C 386.789062 81.195312 386.253906 81.78125 386.273438 82.480469 C 386.292969 83.175781 386.859375 83.730469 387.554688 83.734375 Z M 387.554688 83.734375 "/>
        <path style=" stroke:none;fill-rule:nonzero;fill:rgb(97.647059%,59.215686%,47.843137%);fill-opacity:1;"
              d="M 366.84375 189.789062 L 359.402344 183.949219 C 358.34375 183.125 357.078125 182.609375 355.746094 182.464844 C 353.421875 182.21875 349.683594 181.695312 348.046875 180.824219 C 346.410156 179.957031 345.652344 180.707031 346.464844 182.335938 C 346.941406 183.296875 348.625 184.5625 353.03125 186.0625 L 349.199219 187.0625 C 348.050781 187.359375 346.832031 187.152344 345.84375 186.492188 L 341.621094 183.699219 C 341.082031 183.34375 340.363281 183.445312 339.945312 183.9375 C 339.496094 184.488281 339.554688 185.289062 340.074219 185.769531 L 340.183594 185.851562 L 347.800781 191.253906 C 347.800781 191.253906 347.058594 197.664062 352.921875 199.039062 C 358.78125 200.410156 366.84375 197.992188 366.84375 197.992188 Z M 366.84375 189.789062 "/>
        <path style=" stroke:none;fill-rule:nonzero;fill:rgb(96.862745%,23.529412%,30.980392%);fill-opacity:1;"
              d="M 343.703125 211.378906 L 369.023438 209.742188 L 342.964844 172.136719 L 318.222656 173.859375 Z M 343.703125 211.378906 "/>
        <path style=" stroke:none;fill-rule:nonzero;fill:rgb(84.705882%,49.411765%,41.568627%);fill-opacity:1;"
              d="M 413.421875 394 C 413.421875 394 417.078125 421.570312 415.113281 422.457031 C 413.144531 423.347656 363.34375 427.265625 372.3125 422.457031 L 387.234375 415.417969 C 392.566406 412.898438 396.808594 407.277344 396.761719 401.289062 L 397.53125 392.875 Z M 413.421875 394 "/>
        <path style=" stroke:none;fill-rule:nonzero;fill:rgb(100%,72.941176%,33.333333%);fill-opacity:1;"
              d="M 426.429688 214.367188 L 426.871094 218.484375 C 428.105469 230.136719 426.144531 241.90625 421.203125 252.527344 L 421.203125 271.070312 L 418.257812 393.5625 C 418.222656 395.710938 416.484375 397.441406 414.335938 397.460938 L 393.699219 397.460938 C 391.6875 397.445312 390.007812 395.914062 389.804688 393.910156 L 381.574219 319.449219 C 380.3125 308.027344 379.875 296.527344 380.277344 285.042969 L 382.726562 214.367188 Z M 426.429688 214.367188 "/>
        <path style=" stroke:none;fill-rule:nonzero;fill:rgb(42.352941%,49.803922%,84.705882%);fill-opacity:1;"
              d="M 350.066406 122.691406 C 359.84375 128.003906 373.265625 145.273438 373.265625 145.273438 L 390.195312 128.71875 L 393.992188 119.03125 L 405.785156 115.753906 C 408.683594 114.945312 412.632812 112.503906 414.234375 109.921875 C 414.613281 109.285156 414.734375 108.527344 414.574219 107.804688 L 414.574219 107.640625 L 421.703125 122.691406 C 428.351562 133.945312 430.363281 146.929688 429.410156 160.03125 L 426.476562 214.402344 C 426.476562 214.402344 378.757812 220.371094 380.851562 214.402344 L 381.226562 204.804688 L 376.035156 204.164062 L 367.660156 202.425781 C 365.96875 202.066406 364.832031 200.480469 365.035156 198.761719 L 365.902344 190.191406 C 366.058594 188.542969 367.402344 187.253906 369.058594 187.179688 L 377.917969 186.859375 L 382.316406 183.199219 L 382.78125 168.054688 L 380.183594 168.5 C 372.871094 169.496094 365.566406 166.617188 360.882812 160.902344 L 341.042969 133.828125 C 340.378906 132.933594 340.199219 131.765625 340.566406 130.714844 C 341.714844 127.402344 343.976562 124.589844 346.96875 122.765625 C 347.917969 122.199219 349.09375 122.171875 350.066406 122.691406 Z M 350.066406 122.691406 "/>
        <path style=" stroke:none;fill-rule:nonzero;fill:rgb(48.627451%,63.137255%,69.411765%);fill-opacity:1;"
              d="M 333.621094 154.027344 L 334.058594 154.027344 L 334.058594 167.21875 L 333.621094 167.21875 Z M 333.621094 154.027344 "/>
        <path style=" stroke:none;fill-rule:nonzero;fill:rgb(48.627451%,63.137255%,69.411765%);fill-opacity:1;"
              d="M 353.121094 177.914062 L 366.734375 171.945312 L 366.902344 172.347656 L 353.296875 178.316406 Z M 353.121094 177.914062 "/>
        <path style=" stroke:none;fill-rule:nonzero;fill:rgb(48.627451%,63.137255%,69.411765%);fill-opacity:1;"
              d="M 346.648438 167.136719 L 351.941406 153.945312 L 352.34375 154.109375 L 347.050781 167.300781 Z M 346.648438 167.136719 "/>
        <path style=" stroke:none;fill-rule:nonzero;fill:rgb(42.352941%,49.803922%,84.705882%);fill-opacity:1;"
              d="M 370.191406 425.765625 C 367.734375 422.304688 369.507812 418.074219 374.1875 416.148438 L 393.910156 408.054688 C 394.625 407.792969 395.425781 407.925781 396.011719 408.414062 L 403.042969 415.179688 C 403.664062 415.691406 404.519531 415.8125 405.257812 415.492188 L 413.539062 411.957031 C 414.664062 411.472656 416.089844 412.058594 416.089844 413 L 416.089844 424.507812 C 416.089844 425.179688 415.332031 425.71875 414.398438 425.71875 L 370.238281 425.773438 Z M 370.191406 425.765625 "/>
        <path style=" stroke:none;fill-rule:nonzero;fill:rgb(97.647059%,59.215686%,47.843137%);fill-opacity:1;"
              d="M 187.191406 396.152344 L 187.410156 406.152344 C 187.410156 406.152344 200.210938 416.652344 216.40625 419.5 C 216.40625 419.5 221.378906 421.882812 221.460938 425.625 L 172.929688 425.5 L 172.5 406.113281 L 172.28125 396.105469 Z M 187.191406 396.152344 "/>
        <path style=" stroke:none;fill-rule:nonzero;fill:rgb(51.764706%,21.960784%,16.470588%);fill-opacity:1;"
              d="M 220.636719 423.089844 L 172.929688 423.015625 C 172.300781 423.023438 171.796875 423.53125 171.796875 424.160156 L 171.796875 424.425781 C 171.804688 425.042969 172.304688 425.539062 172.917969 425.542969 L 222.117188 425.671875 C 222.117188 425.671875 223.472656 424.097656 220.636719 423.089844 Z M 220.636719 423.089844 "/>
        <path style=" stroke:none;fill-rule:nonzero;fill:rgb(51.764706%,21.960784%,16.470588%);fill-opacity:1;"
              d="M 171.183594 406.644531 C 170.976562 406.117188 171.074219 405.515625 171.4375 405.078125 C 171.6875 404.792969 172.039062 404.617188 172.414062 404.589844 C 172.792969 404.566406 173.167969 404.691406 173.449219 404.941406 C 173.460938 404.960938 173.476562 404.976562 173.496094 404.988281 C 173.863281 405.335938 182.585938 413.6875 180.507812 423.355469 C 180.355469 424.128906 179.609375 424.632812 178.835938 424.480469 L 178.761719 424.480469 C 177.976562 424.25 177.5 423.453125 177.664062 422.652344 C 179.367188 414.722656 171.648438 407.339844 171.574219 407.269531 C 171.398438 407.09375 171.265625 406.882812 171.183594 406.644531 Z M 171.183594 406.644531 "/>
        <path style=" stroke:none;fill-rule:nonzero;fill:rgb(97.647059%,59.215686%,47.843137%);fill-opacity:1;"
              d="M 131.082031 395.183594 L 129.324219 405.023438 C 129.324219 405.023438 132.167969 411.242188 147.457031 417.347656 C 147.457031 417.347656 157.851562 422.625 157.195312 426.304688 L 147.566406 426.09375 L 111.3125 421.011719 L 114.714844 401.957031 L 116.46875 392.113281 Z M 131.082031 395.183594 "/>
        <path style=" stroke:none;fill-rule:nonzero;fill:rgb(51.764706%,21.960784%,16.470588%);fill-opacity:1;"
              d="M 155.878906 423.273438 L 143.992188 423.566406 L 111.945312 418.558594 C 111.464844 418.503906 111.023438 418.832031 110.9375 419.308594 L 110.828125 420.03125 C 110.746094 420.515625 110.480469 421.332031 111.222656 421.707031 L 144.339844 426.285156 L 157.140625 426.285156 C 157.140625 426.285156 158.457031 424.847656 155.878906 423.273438 Z M 155.878906 423.273438 "/>
        <path style=" stroke:none;fill-rule:nonzero;fill:rgb(51.764706%,21.960784%,16.470588%);fill-opacity:1;"
              d="M 113.289062 402.1875 C 113.1875 401.625 113.402344 401.050781 113.847656 400.695312 C 114.144531 400.460938 114.527344 400.359375 114.902344 400.414062 C 115.277344 400.464844 115.617188 400.671875 115.839844 400.976562 L 115.839844 401.03125 C 116.132812 401.445312 123.027344 411.40625 119.085938 420.453125 C 118.945312 420.796875 118.671875 421.070312 118.328125 421.214844 C 117.984375 421.355469 117.597656 421.355469 117.257812 421.214844 L 117.191406 421.214844 C 116.460938 420.824219 116.148438 419.933594 116.480469 419.171875 C 119.707031 411.753906 113.609375 402.945312 113.542969 402.863281 C 113.410156 402.660156 113.320312 402.429688 113.289062 402.1875 Z M 113.289062 402.1875 "/>
        <path style=" stroke:none;fill-rule:nonzero;fill:rgb(21.568627%,43.529412%,57.254902%);fill-opacity:1;"
              d="M 217.335938 296.515625 L 206.21875 302.621094 C 203.769531 301.285156 200.734375 301.691406 198.722656 303.628906 L 196.144531 306.082031 L 181.726562 305.617188 C 193.089844 298.960938 184.941406 257.921875 179.796875 239.738281 C 176.46875 227.953125 174.640625 214.199219 175.582031 207.222656 C 176.496094 200.4375 174.859375 200.410156 171.539062 190.832031 C 170.242188 187.089844 172.042969 171.816406 170.285156 163.757812 C 168.054688 153.503906 186.660156 168.894531 188.492188 172.695312 C 193.636719 183.378906 196.921875 202.34375 196.179688 209.558594 C 194.453125 226.605469 211.46875 256.59375 213.652344 264.597656 C 217.042969 276.957031 220.921875 281.324219 217.335938 296.515625 Z M 217.335938 296.515625 "/>
        <path style=" stroke:none;fill-rule:nonzero;fill:rgb(21.568627%,43.529412%,57.254902%);fill-opacity:1;"
              d="M 136.65625 234.546875 L 114 396.949219 C 113.847656 400.695312 129.324219 405.023438 130.769531 401.242188 L 160.648438 261.667969 L 169.703125 392.085938 C 169.765625 393.269531 170.617188 401.757812 171.796875 401.757812 L 187.285156 401.757812 C 187.800781 401.753906 188.246094 401.390625 188.351562 400.886719 C 188.738281 398.292969 188.910156 395.671875 188.867188 393.046875 L 187.410156 234.546875 Z M 136.65625 234.546875 "/>
        <path style=" stroke:none;fill-rule:nonzero;fill:rgb(97.647059%,59.215686%,47.843137%);fill-opacity:1;"
              d="M 130.625 167.21875 C 130.625 167.21875 134.554688 164.472656 137.078125 154.164062 C 139.601562 143.851562 140.5 135.402344 137.132812 142.09375 L 134.65625 147.230469 C 134.65625 147.230469 133.09375 138.808594 132.589844 133.707031 C 132.378906 130.945312 130.394531 128.644531 127.699219 128.03125 C 125.238281 127.546875 123.566406 128.671875 123.027344 134.652344 C 122.210938 143.578125 122.027344 148.320312 122.46875 150.59375 C 122.613281 151.378906 124.910156 159.75 124.910156 159.75 Z M 130.625 167.21875 "/>
        <path style=" stroke:none;fill-rule:nonzero;fill:rgb(100%,72.941176%,33.333333%);fill-opacity:1;"
              d="M 130.222656 159.144531 L 123.820312 157.652344 L 115.273438 188.863281 C 112.445312 199.195312 125.566406 206.023438 132.140625 197.644531 C 134.757812 194.3125 136.59375 191.511719 136.988281 189.835938 L 138.449219 207.425781 L 123.847656 308.5625 C 133.835938 313.914062 144.9375 316.835938 156.261719 317.097656 C 168.515625 317.113281 180.597656 314.1875 191.488281 308.5625 C 191.058594 273.175781 187.367188 242.960938 187.511719 207.984375 C 187.511719 205.164062 189.945312 181.074219 189.917969 178.800781 L 203.039062 196.375 C 209.226562 203.835938 220.636719 203.835938 226.195312 190.722656 L 234.972656 171.054688 L 222.6875 163.300781 L 213.910156 177.628906 L 196.144531 150.261719 C 191.9375 143.726562 184.707031 139.773438 176.941406 139.769531 L 150.152344 139.769531 C 145.167969 139.785156 140.542969 142.382812 137.929688 146.636719 Z M 130.222656 159.144531 "/>
        <path style=" stroke:none;fill-rule:nonzero;fill:rgb(97.647059%,59.215686%,47.843137%);fill-opacity:1;"
              d="M 224.210938 164.289062 L 230.667969 147.515625 L 240.851562 133.679688 C 241.101562 133.339844 241.472656 133.117188 241.886719 133.054688 C 242.300781 132.996094 242.722656 133.105469 243.058594 133.359375 C 243.71875 133.882812 243.871094 134.828125 243.402344 135.53125 L 237.699219 144.210938 C 237.699219 144.210938 245.636719 138.507812 246.203125 148.449219 C 246.296875 149.828125 245.351562 151.066406 244 151.332031 C 243.046875 151.507812 242.136719 151.855469 241.308594 152.359375 C 241.308594 152.359375 242.28125 161.800781 236.234375 162.09375 L 233.703125 170.242188 Z M 224.210938 164.289062 "/>
        <path style=" stroke:none;fill-rule:nonzero;fill:rgb(86.666667%,46.27451%,36.862745%);fill-opacity:1;"
              d="M 172.269531 133.550781 L 167.664062 133.550781 L 172.417969 140.253906 Z M 172.269531 133.550781 "/>
        <path style=" stroke:none;fill-rule:nonzero;fill:rgb(11.764706%,11.372549%,13.333333%);fill-opacity:1;"
              d="M 153.855469 133.550781 C 153.855469 133.550781 158.546875 140.796875 173.003906 118.792969 C 173.003906 118.792969 167.058594 115.488281 172.308594 111.660156 C 172.773438 111.316406 173.328125 111.117188 173.90625 111.082031 C 174.957031 111.027344 176.558594 111.183594 176.648438 112.683594 L 182.0625 100.78125 C 182.0625 100.78125 187.621094 102.121094 187.328125 95.417969 C 187.328125 95.417969 193.035156 91.984375 186.011719 89.007812 C 186.011719 89.007812 186.304688 80.65625 178.550781 86.773438 C 178.550781 86.773438 173.285156 74.402344 159.828125 91.984375 C 159.828125 91.984375 137.882812 93.925781 148.269531 112.546875 Z M 153.855469 133.550781 "/>
        <path style=" stroke:none;fill-rule:nonzero;fill:rgb(96.862745%,23.529412%,30.980392%);fill-opacity:1;"
              d="M 175.261719 121.082031 C 175.261719 119.363281 173.894531 117.96875 172.207031 117.96875 C 170.519531 117.96875 169.152344 119.363281 169.152344 121.082031 C 169.152344 122.800781 170.519531 124.195312 172.207031 124.195312 C 173.894531 124.195312 175.261719 122.800781 175.261719 121.082031 Z M 175.261719 121.082031 "/>
        <path style=" stroke:none;fill-rule:nonzero;fill:rgb(21.568627%,43.529412%,57.254902%);fill-opacity:1;"
              d="M 180.398438 301.734375 L 168.15625 304.902344 C 166.121094 302.988281 163.078125 302.617188 160.640625 303.984375 L 157.558594 305.726562 L 143.679688 301.695312 C 156.289062 298.035156 158.199219 256.238281 157.558594 237.328125 C 157.148438 225.058594 158.65625 211.28125 161.214844 204.742188 C 163.730469 198.386719 162.132812 197.957031 161.214844 187.839844 C 160.859375 183.882812 166.253906 169.527344 166.472656 161.285156 C 166.757812 150.785156 168.421875 138.230469 178.011719 136.886719 C 184.550781 135.96875 189.058594 141.773438 190.457031 144.210938 C 190.457031 144.210938 187.503906 141.828125 184.832031 142.800781 C 178.980469 144.941406 181.175781 170.332031 182 174.472656 C 184.441406 186.117188 183.078125 205.320312 180.644531 212.132812 C 174.894531 228.238281 184.222656 261.574219 184.441406 269.816406 C 184.789062 282.699219 187.503906 287.890625 180.398438 301.734375 Z M 180.398438 301.734375 "/>
        <path style=" stroke:none;fill-rule:nonzero;fill:rgb(11.764706%,11.372549%,13.333333%);fill-opacity:1;"
              d="M 147.621094 97.542969 C 142.480469 100.765625 138.046875 102.238281 136.164062 114.023438 C 135.132812 120.433594 135.132812 120.433594 135.367188 133.066406 C 135.953125 163.144531 132.761719 169.363281 131.417969 171.6875 C 128.238281 177.183594 126.464844 176.339844 121.945312 184.023438 C 118.425781 190 114.886719 196.023438 115.097656 203.605469 C 115.328125 212.167969 120.335938 222.578125 129.316406 226.40625 C 141.84375 231.734375 156.746094 221.964844 163.019531 211.921875 C 170.945312 199.25 168.503906 180.714844 167.761719 175.175781 C 167.207031 170.972656 165.933594 164.472656 167.234375 155.589844 C 167.378906 154.675781 167.71875 152.496094 170.132812 144.0625 C 175.617188 124.925781 166.867188 116.046875 161.699219 108.921875 C 157.46875 102.988281 150.59375 95.683594 147.621094 97.542969 Z M 147.621094 97.542969 "/>
        <path style=" stroke:none;fill-rule:nonzero;fill:rgb(57.647059%,35.686275%,31.372549%);fill-opacity:1;"
              d="M 455.03125 110.140625 L 455.03125 425.882812 L 525.105469 425.882812 L 525.105469 110.140625 C 525.121094 108.265625 523.613281 106.730469 521.738281 106.714844 L 458.386719 106.714844 C 456.515625 106.734375 455.015625 108.265625 455.03125 110.140625 Z M 455.03125 110.140625 "/>
        <path style=" stroke:none;fill-rule:nonzero;fill:rgb(88.235294%,60%,45.490196%);fill-opacity:1;"
              d="M 462.253906 164.160156 L 517.882812 164.160156 C 518.78125 164.167969 519.640625 164.535156 520.269531 165.175781 C 520.898438 165.820312 521.246094 166.6875 521.238281 167.585938 L 521.238281 207.875 C 521.25 209.746094 519.75 211.277344 517.882812 211.296875 L 462.253906 211.296875 C 460.382812 211.277344 458.882812 209.746094 458.898438 207.875 L 458.898438 167.558594 C 458.894531 165.695312 460.394531 164.175781 462.253906 164.160156 Z M 462.253906 164.160156 "/>
        <path style=" stroke:none;fill-rule:nonzero;fill:rgb(88.235294%,60%,45.490196%);fill-opacity:1;"
              d="M 462.253906 111.851562 L 517.882812 111.851562 C 519.75 111.871094 521.25 113.402344 521.238281 115.277344 L 521.238281 155.5625 C 521.246094 156.464844 520.898438 157.332031 520.269531 157.972656 C 519.640625 158.617188 518.78125 158.980469 517.882812 158.988281 L 462.253906 158.988281 C 461.355469 158.980469 460.496094 158.617188 459.867188 157.972656 C 459.238281 157.332031 458.890625 156.464844 458.898438 155.5625 L 458.898438 115.277344 C 458.882812 113.402344 460.382812 111.871094 462.253906 111.851562 Z M 462.253906 111.851562 "/>
        <path style=" stroke:none;fill-rule:nonzero;fill:rgb(88.235294%,60%,45.490196%);fill-opacity:1;"
              d="M 462.253906 268.761719 L 517.882812 268.761719 C 519.75 268.78125 521.25 270.3125 521.238281 272.1875 L 521.238281 312.472656 C 521.246094 313.375 520.898438 314.242188 520.269531 314.882812 C 519.640625 315.527344 518.78125 315.890625 517.882812 315.898438 L 462.253906 315.898438 C 461.355469 315.890625 460.496094 315.527344 459.867188 314.882812 C 459.238281 314.242188 458.890625 313.375 458.898438 312.472656 L 458.898438 272.1875 C 458.882812 270.3125 460.382812 268.78125 462.253906 268.761719 Z M 462.253906 268.761719 "/>
        <path style=" stroke:none;fill-rule:nonzero;fill:rgb(88.235294%,60%,45.490196%);fill-opacity:1;"
              d="M 462.253906 321.070312 L 517.882812 321.070312 C 518.78125 321.078125 519.640625 321.445312 520.269531 322.085938 C 520.898438 322.730469 521.246094 323.597656 521.238281 324.496094 L 521.238281 364.785156 C 521.25 366.65625 519.75 368.1875 517.882812 368.207031 L 462.253906 368.207031 C 460.382812 368.1875 458.882812 366.65625 458.898438 364.785156 L 458.898438 324.496094 C 458.890625 323.597656 459.238281 322.730469 459.867188 322.085938 C 460.496094 321.445312 461.355469 321.078125 462.253906 321.070312 Z M 462.253906 321.070312 "/>
        <path style=" stroke:none;fill-rule:nonzero;fill:rgb(83.921569%,41.176471%,29.411765%);fill-opacity:1;"
              d="M 481.785156 129.011719 L 498.351562 129.011719 C 499.074219 129.019531 499.65625 129.613281 499.648438 130.339844 L 499.648438 134.917969 C 499.65625 135.640625 499.074219 136.234375 498.351562 136.246094 L 481.785156 136.246094 C 481.058594 136.234375 480.480469 135.640625 480.484375 134.917969 L 480.484375 130.339844 C 480.480469 129.613281 481.058594 129.019531 481.785156 129.011719 Z M 481.785156 129.011719 "/>
        <path style=" stroke:none;fill-rule:nonzero;fill:rgb(83.921569%,41.176471%,29.411765%);fill-opacity:1;"
              d="M 481.785156 285.921875 L 498.351562 285.921875 C 499.074219 285.929688 499.65625 286.523438 499.648438 287.25 L 499.648438 291.828125 C 499.65625 292.550781 499.074219 293.144531 498.351562 293.15625 L 481.785156 293.15625 C 481.058594 293.144531 480.480469 292.550781 480.484375 291.828125 L 480.484375 287.25 C 480.480469 286.523438 481.058594 285.929688 481.785156 285.921875 Z M 481.785156 285.921875 "/>
        <path style=" stroke:none;fill-rule:nonzero;fill:rgb(83.921569%,41.176471%,29.411765%);fill-opacity:1;"
              d="M 481.785156 338.230469 L 498.351562 338.230469 C 499.074219 338.242188 499.65625 338.832031 499.648438 339.558594 L 499.648438 344.089844 C 499.65625 344.816406 499.074219 345.40625 498.351562 345.417969 L 481.785156 345.417969 C 481.058594 345.40625 480.480469 344.816406 480.484375 344.089844 L 480.484375 339.558594 C 480.480469 338.832031 481.058594 338.242188 481.785156 338.230469 Z M 481.785156 338.230469 "/>
        <path style=" stroke:none;fill-rule:nonzero;fill:rgb(83.921569%,41.176471%,29.411765%);fill-opacity:1;"
              d="M 481.785156 181.292969 L 498.351562 181.292969 C 499.074219 181.304688 499.65625 181.894531 499.648438 182.621094 L 499.648438 187.199219 C 499.65625 187.921875 499.074219 188.515625 498.351562 188.527344 L 481.785156 188.527344 C 481.058594 188.515625 480.480469 187.921875 480.484375 187.199219 L 480.484375 182.621094 C 480.480469 181.894531 481.058594 181.304688 481.785156 181.292969 Z M 481.785156 181.292969 "/>
        <path style=" stroke:none;fill-rule:nonzero;fill:rgb(48.627451%,63.137255%,69.411765%);fill-opacity:1;"
              d="M 475.355469 350.609375 C 475.355469 350.609375 509.570312 351.324219 514.761719 345.4375 C 514.761719 345.4375 503.5625 386.308594 512.019531 406.371094 L 473.976562 402.277344 C 473.976562 402.277344 478.390625 370.617188 475.355469 350.609375 Z M 475.355469 350.609375 "/>
        <path style=" stroke:none;fill-rule:nonzero;fill:rgb(96.470588%,35.686275%,16.862745%);fill-opacity:1;"
              d="M 466.980469 355.617188 C 466.980469 355.617188 501.195312 356.332031 506.386719 350.445312 C 506.386719 350.445312 495.1875 391.316406 503.644531 411.378906 L 465.589844 407.285156 C 465.589844 407.285156 470.042969 375.625 466.980469 355.617188 Z M 466.980469 355.617188 "/>
        <path style=" stroke:none;fill-rule:nonzero;fill:rgb(100%,100%,100%);fill-opacity:1;"
              d="M 471.261719 359.472656 C 471.261719 359.472656 505.472656 360.179688 510.667969 354.289062 C 510.667969 354.289062 499.464844 395.171875 507.925781 415.226562 L 469.871094 411.113281 C 469.871094 411.113281 474.324219 379.46875 471.261719 359.472656 Z M 471.261719 359.472656 "/>
        <path style=" stroke:none;fill-rule:nonzero;fill:rgb(100%,72.941176%,33.333333%);fill-opacity:1;"
              d="M 475.449219 196.152344 C 475.449219 196.152344 509.660156 196.859375 514.855469 190.972656 C 514.855469 190.972656 503.65625 231.855469 512.113281 251.914062 L 474.066406 247.820312 C 474.066406 247.820312 478.511719 216.160156 475.449219 196.152344 Z M 475.449219 196.152344 "/>
        <path style=" stroke:none;fill-rule:nonzero;fill:rgb(96.470588%,35.686275%,16.862745%);fill-opacity:1;"
              d="M 467.074219 201.160156 C 467.074219 201.160156 501.277344 201.867188 506.480469 195.980469 C 506.480469 195.980469 495.277344 236.863281 503.738281 256.914062 L 465.683594 252.832031 C 465.683594 252.832031 470.164062 221.167969 467.074219 201.160156 Z M 467.074219 201.160156 "/>
        <path style=" stroke:none;fill-rule:nonzero;fill:rgb(100%,100%,100%);fill-opacity:1;"
              d="M 471.351562 205.007812 C 471.351562 205.007812 505.554688 205.710938 510.757812 199.824219 C 510.757812 199.824219 499.558594 240.707031 508.015625 260.769531 L 469.960938 256.675781 C 469.960938 256.675781 474.414062 225.015625 471.351562 205.007812 Z M 471.351562 205.007812 "/>
        <path style=" stroke:none;fill-rule:nonzero;fill:rgb(88.235294%,60%,45.490196%);fill-opacity:1;"
              d="M 462.253906 373.371094 L 517.882812 373.371094 C 518.78125 373.378906 519.640625 373.746094 520.269531 374.386719 C 520.898438 375.03125 521.246094 375.894531 521.238281 376.796875 L 521.238281 417.082031 C 521.25 418.957031 519.75 420.488281 517.882812 420.507812 L 462.253906 420.507812 C 460.382812 420.488281 458.882812 418.957031 458.898438 417.082031 L 458.898438 376.796875 C 458.890625 375.894531 459.238281 375.03125 459.867188 374.386719 C 460.496094 373.746094 461.355469 373.378906 462.253906 373.371094 Z M 462.253906 373.371094 "/>
        <path style=" stroke:none;fill-rule:nonzero;fill:rgb(83.921569%,41.176471%,29.411765%);fill-opacity:1;"
              d="M 481.785156 390.53125 L 498.351562 390.53125 C 499.074219 390.539062 499.65625 391.132812 499.648438 391.859375 L 499.648438 396.4375 C 499.65625 397.160156 499.074219 397.753906 498.351562 397.765625 L 481.785156 397.765625 C 481.058594 397.753906 480.480469 397.160156 480.484375 396.4375 L 480.484375 391.859375 C 480.480469 391.132812 481.058594 390.539062 481.785156 390.53125 Z M 481.785156 390.53125 "/>
        <path style=" stroke:none;fill-rule:nonzero;fill:rgb(88.235294%,60%,45.490196%);fill-opacity:1;"
              d="M 462.253906 216.460938 L 517.882812 216.460938 C 518.78125 216.46875 519.640625 216.835938 520.269531 217.476562 C 520.898438 218.121094 521.246094 218.988281 521.238281 219.886719 L 521.238281 260.171875 C 521.246094 261.074219 520.898438 261.941406 520.269531 262.582031 C 519.640625 263.226562 518.78125 263.589844 517.882812 263.597656 L 462.253906 263.597656 C 461.355469 263.589844 460.496094 263.226562 459.867188 262.582031 C 459.238281 261.941406 458.890625 261.074219 458.898438 260.171875 L 458.898438 219.886719 C 458.890625 218.988281 459.238281 218.121094 459.867188 217.476562 C 460.496094 216.835938 461.355469 216.46875 462.253906 216.460938 Z M 462.253906 216.460938 "/>
        <path style=" stroke:none;fill-rule:nonzero;fill:rgb(83.921569%,41.176471%,29.411765%);fill-opacity:1;"
              d="M 481.785156 233.621094 L 498.351562 233.621094 C 499.074219 233.628906 499.65625 234.222656 499.648438 234.949219 L 499.648438 239.527344 C 499.65625 240.25 499.074219 240.84375 498.351562 240.855469 L 481.785156 240.855469 C 481.058594 240.84375 480.480469 240.25 480.484375 239.527344 L 480.484375 234.949219 C 480.480469 234.222656 481.058594 233.628906 481.785156 233.621094 Z M 481.785156 233.621094 "/>
        <path style=" stroke:none;fill-rule:nonzero;fill:rgb(54.509804%,61.568627%,21.176471%);fill-opacity:1;"
              d="M 63.734375 396.089844 C 63.320312 395.265625 22.714844 313.308594 25.238281 280.335938 L 23.878906 280.226562 C 21.335938 313.582031 60.835938 393.332031 62.515625 396.710938 Z M 63.734375 396.089844 "/>
        <path style=" stroke:none;fill-rule:nonzero;fill:rgb(37.254902%,49.019608%,21.568627%);fill-opacity:1;"
              d="M 44.257812 380.09375 C 44.421875 379.066406 61.191406 275.109375 47.300781 239.894531 L 48.746094 239.308594 C 62.800781 274.925781 46.496094 376.0625 45.792969 380.3125 Z M 44.257812 380.09375 "/>
        <path style=" stroke:none;fill-rule:nonzero;fill:rgb(76.862745%,80.784314%,43.137255%);fill-opacity:1;"
              d="M 42.921875 401.675781 C 43.261719 400.996094 76.585938 333.714844 74.519531 306.660156 L 75.636719 306.566406 C 77.730469 333.945312 45.300781 399.414062 43.917969 402.1875 Z M 42.921875 401.675781 "/>
        <path style=" stroke:none;fill-rule:nonzero;fill:rgb(88.235294%,60%,45.490196%);fill-opacity:1;"
              d="M 64.464844 424.765625 L 36.238281 424.765625 L 27.160156 375.699219 C 26.953125 374.648438 27.632812 373.628906 28.675781 373.417969 C 28.792969 373.40625 28.910156 373.40625 29.023438 373.417969 L 71.667969 373.417969 C 72.183594 373.421875 72.671875 373.632812 73.03125 374 C 73.390625 374.367188 73.585938 374.863281 73.578125 375.378906 C 73.578125 375.496094 73.578125 375.617188 73.578125 375.734375 Z M 64.464844 424.765625 "/>
        <path style=" stroke:none;fill-rule:nonzero;fill:rgb(83.921569%,41.176471%,29.411765%);fill-opacity:1;"
              d="M 72.886719 379.242188 L 73.542969 375.699219 C 73.746094 374.648438 73.070312 373.632812 72.023438 373.417969 C 71.90625 373.40625 71.789062 373.40625 71.667969 373.417969 L 29.023438 373.417969 C 27.960938 373.433594 27.109375 374.308594 27.125 375.378906 C 27.113281 375.496094 27.113281 375.617188 27.125 375.734375 L 27.78125 379.277344 Z M 72.886719 379.242188 "/>
        <path style=" stroke:none;fill-rule:nonzero;fill:rgb(83.921569%,41.176471%,29.411765%);fill-opacity:1;"
              d="M 38.496094 410.867188 L 32.535156 404.742188 L 38.496094 398.605469 L 44.457031 404.742188 Z M 38.496094 410.867188 "/>
        <path style=" stroke:none;fill-rule:nonzero;fill:rgb(83.921569%,41.176471%,29.411765%);fill-opacity:1;"
              d="M 50.421875 410.867188 L 44.457031 404.742188 L 50.421875 398.605469 L 56.382812 404.742188 Z M 50.421875 410.867188 "/>
        <path style=" stroke:none;fill-rule:nonzero;fill:rgb(83.921569%,41.176471%,29.411765%);fill-opacity:1;"
              d="M 62.207031 410.867188 L 56.246094 404.742188 L 62.207031 398.605469 L 68.167969 404.742188 Z M 62.207031 410.867188 "/>
        <path style=" stroke:none;fill-rule:nonzero;fill:rgb(57.647059%,35.686275%,31.372549%);fill-opacity:1;"
              d="M 0.207031 424.765625 L 548.792969 424.765625 L 548.792969 427 L 0.207031 427 Z M 0.207031 424.765625 "/>
    </g>
</svg>
