<?xml version="1.0" encoding="UTF-8"?>
<svg xmlns="http://www.w3.org/2000/svg" xmlns:xlink="http://www.w3.org/1999/xlink" width="32px" height="32px" viewBox="0 0 32 32" version="1.1">
<g id="surface1">
<path style=" stroke:none;fill-rule:nonzero;fill:rgb(99.607843%,86.666667%,55.686275%);fill-opacity:1;" d="M 23.601562 24.078125 C 23.351562 24.492188 22.921875 24.703125 22.484375 24.703125 C 22.234375 24.703125 22.007812 24.640625 21.796875 24.515625 L 21.953125 24.609375 C 22.578125 25 22.765625 25.820312 22.382812 26.429688 C 22.132812 26.835938 21.703125 27.054688 21.265625 27.054688 C 21.078125 27.054688 20.90625 27.015625 20.734375 26.945312 L 20.765625 26.96875 C 21.382812 27.351562 21.578125 28.171875 21.195312 28.789062 C 20.945312 29.203125 20.515625 29.414062 20.070312 29.414062 C 19.84375 29.414062 19.609375 29.359375 19.40625 29.234375 C 19.914062 29.640625 20.046875 30.367188 19.6875 30.953125 C 19.296875 31.578125 18.476562 31.75 17.875 31.382812 L 11.757812 27.617188 L 8.296875 26.046875 L 7.117188 23.015625 L 0.804688 19.429688 L 0.804688 9.585938 L 10.835938 15.03125 L 13.890625 13.125 L 16.453125 13.804688 L 15.421875 17.648438 L 23.171875 22.265625 C 23.789062 22.640625 23.984375 23.46875 23.601562 24.078125 Z M 23.601562 24.078125 "/>
<path style=" stroke:none;fill-rule:nonzero;fill:rgb(99.607843%,91.372549%,70.588235%);fill-opacity:1;" d="M 23.601562 24.078125 C 23.390625 24.421875 23.0625 24.625 22.710938 24.6875 C 22.804688 24.171875 22.578125 23.625 22.109375 23.328125 L 14.359375 18.710938 L 15.382812 14.867188 L 13.671875 14.71875 L 10.625 16.625 L 0.804688 11.234375 L 0.804688 9.585938 L 10.835938 15.03125 L 13.890625 13.125 L 16.453125 13.804688 L 15.421875 17.648438 L 23.171875 22.265625 C 23.789062 22.640625 23.984375 23.46875 23.601562 24.078125 Z M 23.601562 24.078125 "/>
<path style=" stroke:none;fill-rule:nonzero;fill:rgb(99.215686%,82.745098%,40.392157%);fill-opacity:1;" d="M 19.859375 30.484375 C 19.828125 30.640625 19.765625 30.796875 19.679688 30.945312 C 19.289062 31.578125 18.46875 31.742188 17.867188 31.375 L 11.75 27.609375 L 8.289062 26.039062 L 7.109375 23.015625 L 0.796875 19.421875 L 0.796875 17.757812 L 8.1875 21.953125 L 9.359375 24.976562 L 12.828125 26.546875 L 18.9375 30.3125 C 19.148438 30.445312 19.390625 30.507812 19.632812 30.507812 C 19.703125 30.507812 19.78125 30.5 19.859375 30.484375 Z M 19.859375 30.484375 "/>
<path style=" stroke:none;fill-rule:nonzero;fill:rgb(99.607843%,91.372549%,70.588235%);fill-opacity:1;" d="M 31.195312 7.054688 L 31.195312 16.984375 L 26.25 19.359375 L 23.171875 22.265625 L 15.421875 17.648438 L 14.914062 19.179688 C 14.539062 20.320312 13.523438 21.117188 12.320312 21.210938 L 10.992188 21.242188 L 12.984375 16.140625 L 16.4375 13.796875 L 19.492188 13.796875 Z M 31.195312 7.054688 "/>
<path style=" stroke:none;fill-rule:nonzero;fill:rgb(100%,95.294118%,85.098039%);fill-opacity:1;" d="M 31.195312 7.0625 L 31.195312 8.75 L 20.382812 14.984375 L 17.320312 14.984375 L 13.867188 17.328125 L 12.351562 21.203125 C 12.34375 21.203125 12.414062 21.203125 10.992188 21.242188 L 12.984375 16.140625 L 16.4375 13.804688 L 19.5 13.804688 Z M 31.195312 7.0625 "/>
<path style=" stroke:none;fill-rule:nonzero;fill:rgb(99.607843%,86.666667%,55.686275%);fill-opacity:1;" d="M 31.195312 15.40625 L 31.195312 16.984375 L 26.25 19.351562 L 23.171875 22.265625 L 21.867188 21.484375 L 25.375 18.171875 Z M 31.195312 15.40625 "/>
<path style=" stroke:none;fill-rule:nonzero;fill:rgb(99.607843%,91.372549%,70.588235%);fill-opacity:1;" d="M 9.929688 27.5625 C 9.820312 27.757812 9.570312 27.820312 9.375 27.703125 L 7.84375 26.804688 C 7.648438 26.695312 7.585938 26.445312 7.703125 26.25 L 8.601562 24.71875 C 8.710938 24.523438 8.960938 24.460938 9.15625 24.578125 L 10.6875 25.476562 C 10.882812 25.585938 10.945312 25.835938 10.828125 26.03125 "/>
<path style=" stroke:none;fill-rule:nonzero;fill:rgb(99.607843%,91.372549%,70.588235%);fill-opacity:1;" d="M 13.03125 27.359375 L 12.132812 28.890625 C 12.015625 29.085938 11.765625 29.148438 11.578125 29.039062 L 10.046875 28.140625 C 9.851562 28.023438 9.789062 27.773438 9.898438 27.578125 L 10.796875 26.046875 C 10.914062 25.859375 11.164062 25.796875 11.359375 25.90625 L 12.890625 26.804688 C 13.078125 26.921875 13.140625 27.171875 13.03125 27.359375 Z M 13.03125 27.359375 "/>
<path style=" stroke:none;fill-rule:nonzero;fill:rgb(99.607843%,91.372549%,70.588235%);fill-opacity:1;" d="M 15.234375 28.695312 L 14.328125 30.226562 C 14.21875 30.421875 13.96875 30.484375 13.773438 30.367188 L 12.25 29.46875 C 12.054688 29.359375 11.992188 29.109375 12.109375 28.914062 L 13.007812 27.382812 C 13.117188 27.1875 13.367188 27.125 13.5625 27.234375 L 15.09375 28.140625 C 15.28125 28.25 15.34375 28.5 15.234375 28.695312 Z M 15.234375 28.695312 "/>
<path style=" stroke:none;fill-rule:nonzero;fill:rgb(99.607843%,91.372549%,70.588235%);fill-opacity:1;" d="M 17.4375 30.023438 L 16.539062 31.554688 C 16.421875 31.75 16.171875 31.8125 15.984375 31.703125 L 14.453125 30.796875 C 14.257812 30.6875 14.195312 30.4375 14.304688 30.242188 L 15.203125 28.710938 C 15.320312 28.515625 15.570312 28.453125 15.765625 28.570312 L 17.296875 29.46875 C 17.484375 29.578125 17.546875 29.828125 17.4375 30.023438 Z M 17.4375 30.023438 "/>
<path style=" stroke:none;fill-rule:nonzero;fill:rgb(20%,20%,20%);fill-opacity:1;" d="M 31.320312 6.851562 C 31.242188 6.804688 31.148438 6.804688 31.078125 6.851562 L 19.4375 13.5625 L 16.476562 13.5625 C 13.859375 12.890625 13.90625 12.8125 13.742188 12.921875 L 10.828125 14.75 L 0.921875 9.375 C 0.773438 9.289062 0.554688 9.390625 0.554688 9.59375 L 0.554688 19.476562 C 0.554688 19.609375 0.664062 19.71875 0.796875 19.71875 L 6.921875 23.203125 L 7.828125 25.554688 L 7.484375 26.140625 C 7.3125 26.445312 7.398438 26.84375 7.71875 27.03125 L 9.25 27.929688 C 9.4375 28.046875 9.632812 28.015625 9.640625 28.015625 C 9.6875 28.15625 9.78125 28.28125 9.921875 28.359375 L 11.453125 29.265625 C 11.65625 29.382812 11.828125 29.34375 11.835938 29.34375 C 11.890625 29.484375 11.984375 29.609375 12.117188 29.695312 L 13.648438 30.59375 C 13.835938 30.703125 14.03125 30.671875 14.039062 30.671875 C 14.085938 30.820312 14.179688 30.945312 14.320312 31.023438 L 15.851562 31.921875 C 16.164062 32.101562 16.546875 32.007812 16.734375 31.695312 L 17.039062 31.171875 L 17.734375 31.601562 C 18.453125 32.039062 19.414062 31.828125 19.875 31.085938 C 20.148438 30.640625 20.179688 30.109375 19.992188 29.664062 C 20.570312 29.695312 21.085938 29.398438 21.382812 28.921875 C 21.671875 28.460938 21.710938 27.851562 21.398438 27.304688 C 21.882812 27.257812 22.3125 26.992188 22.570312 26.578125 C 22.890625 26.054688 22.875 25.453125 22.59375 24.953125 C 23.085938 24.921875 23.53125 24.648438 23.796875 24.21875 C 24.195312 23.578125 24.0625 22.742188 23.53125 22.257812 L 26.375 19.570312 L 31.289062 17.210938 C 31.375 17.171875 31.429688 17.085938 31.429688 16.984375 L 31.429688 7.054688 C 31.4375 6.96875 31.390625 6.890625 31.320312 6.851562 Z M 9.679688 27.484375 C 9.601562 27.53125 9.539062 27.523438 9.5 27.492188 L 7.96875 26.59375 C 7.898438 26.5625 7.859375 26.445312 7.914062 26.375 L 8.8125 24.84375 C 8.84375 24.773438 8.960938 24.734375 9.03125 24.789062 L 10.5625 25.6875 C 10.632812 25.726562 10.65625 25.804688 10.632812 25.875 C 10.546875 26.007812 9.703125 27.460938 9.679688 27.484375 Z M 11.890625 28.8125 C 11.804688 28.859375 11.742188 28.859375 11.703125 28.828125 L 10.171875 27.921875 C 10.101562 27.882812 10.078125 27.78125 10.117188 27.703125 L 11.015625 26.171875 C 11.054688 26.109375 11.171875 26.0625 11.242188 26.117188 L 12.773438 27.015625 C 12.84375 27.054688 12.867188 27.140625 12.84375 27.203125 C 12.820312 27.242188 11.890625 28.796875 11.890625 28.8125 Z M 14.078125 30.140625 C 14 30.195312 13.9375 30.1875 13.898438 30.15625 L 12.375 29.265625 C 12.296875 29.21875 12.273438 29.117188 12.320312 29.046875 L 13.21875 27.515625 C 13.257812 27.445312 13.375 27.398438 13.445312 27.453125 L 14.976562 28.359375 C 15.046875 28.390625 15.078125 28.484375 15.046875 28.546875 C 14.976562 28.648438 14.09375 30.132812 14.078125 30.140625 Z M 17.226562 29.898438 L 16.328125 31.429688 C 16.296875 31.5 16.171875 31.546875 16.109375 31.484375 L 14.578125 30.585938 C 14.507812 30.554688 14.460938 30.4375 14.515625 30.367188 L 15.421875 28.835938 C 15.476562 28.75 15.578125 28.734375 15.640625 28.78125 L 17.171875 29.679688 C 17.234375 29.710938 17.265625 29.804688 17.226562 29.898438 Z M 23.390625 23.953125 C 23.195312 24.273438 22.859375 24.460938 22.476562 24.460938 C 22.273438 24.460938 22.085938 24.40625 21.914062 24.296875 L 21.90625 24.296875 L 19.414062 22.804688 C 19.296875 22.734375 19.148438 22.773438 19.078125 22.890625 C 19.007812 23.007812 19.046875 23.15625 19.15625 23.226562 C 19.171875 23.234375 18.953125 23.101562 21.8125 24.828125 C 22.3125 25.132812 22.484375 25.78125 22.164062 26.3125 C 21.96875 26.632812 21.625 26.820312 21.25 26.820312 C 21.101562 26.820312 20.96875 26.789062 20.828125 26.734375 L 17.890625 24.9375 C 17.78125 24.867188 17.632812 24.90625 17.554688 25.015625 C 17.484375 25.132812 17.523438 25.28125 17.640625 25.359375 C 17.640625 25.359375 20.609375 27.179688 20.617188 27.179688 C 21.109375 27.484375 21.296875 28.140625 20.976562 28.664062 C 20.78125 28.984375 20.4375 29.171875 20.054688 29.171875 C 19.867188 29.171875 19.679688 29.117188 19.523438 29.023438 L 16.859375 27.328125 C 16.742188 27.257812 16.59375 27.296875 16.515625 27.40625 C 16.445312 27.515625 16.484375 27.671875 16.59375 27.742188 L 19.242188 29.429688 C 19.65625 29.773438 19.75 30.359375 19.46875 30.828125 C 19.140625 31.359375 18.453125 31.460938 17.992188 31.171875 L 17.296875 30.742188 L 17.640625 30.148438 C 17.828125 29.84375 17.71875 29.445312 17.414062 29.265625 L 15.882812 28.359375 C 15.757812 28.296875 15.625 28.265625 15.492188 28.273438 C 15.445312 28.132812 15.34375 28.007812 15.210938 27.921875 L 13.679688 27.023438 C 13.5625 26.953125 13.421875 26.921875 13.289062 26.945312 C 13.234375 26.796875 13.148438 26.671875 13.015625 26.59375 L 11.484375 25.695312 C 11.359375 25.625 11.226562 25.59375 11.09375 25.609375 C 11.046875 25.460938 10.953125 25.335938 10.8125 25.257812 L 9.28125 24.359375 C 8.984375 24.179688 8.578125 24.265625 8.390625 24.585938 L 8.15625 24.992188 L 7.351562 22.921875 C 7.328125 22.867188 7.296875 22.828125 7.242188 22.796875 L 1.046875 19.273438 L 1.046875 9.992188 C 11.226562 15.460938 10.726562 15.375 10.960938 15.234375 L 13.921875 13.390625 L 15.859375 13.90625 L 12.859375 15.945312 C 12.8125 15.96875 12.78125 16.015625 12.765625 16.054688 L 10.773438 21.15625 C 10.71875 21.289062 10.789062 21.476562 11.007812 21.492188 L 12.34375 21.460938 C 13.640625 21.359375 14.742188 20.5 15.148438 19.265625 L 15.554688 18.023438 L 23.039062 22.484375 C 23.539062 22.789062 23.703125 23.453125 23.390625 23.953125 Z M 30.953125 16.828125 L 26.140625 19.132812 C 26.117188 19.140625 26.09375 19.15625 26.078125 19.171875 L 23.132812 21.953125 L 15.882812 17.640625 L 17.765625 16.421875 C 17.882812 16.351562 17.914062 16.203125 17.84375 16.085938 C 17.765625 15.976562 17.617188 15.945312 17.507812 16.015625 C 15.007812 17.609375 15.242188 17.453125 15.179688 17.570312 L 14.671875 19.101562 C 14.328125 20.148438 13.398438 20.882812 12.304688 20.960938 L 11.351562 20.984375 L 13.179688 16.304688 L 16.507812 14.046875 C 19.609375 14.039062 19.492188 14.078125 19.609375 14.015625 L 30.9375 7.484375 L 30.9375 16.828125 Z M 30.953125 16.828125 "/>
<path style=" stroke:none;fill-rule:nonzero;fill:rgb(48.235294%,87.058824%,61.960784%);fill-opacity:1;" d="M 19.734375 9.90625 C 17.460938 11.96875 13.953125 11.796875 11.890625 9.53125 C 9.828125 7.265625 9.992188 3.75 12.265625 1.695312 C 14.53125 -0.367188 18.046875 -0.203125 20.109375 2.070312 C 22.171875 4.335938 22 7.84375 19.734375 9.90625 Z M 19.734375 9.90625 "/>
<path style=" stroke:none;fill-rule:nonzero;fill:rgb(31.764706%,82.352941%,49.803922%);fill-opacity:1;" d="M 19.734375 9.90625 C 17.46875 11.96875 13.953125 11.796875 11.890625 9.539062 C 11.679688 9.304688 11.5 9.070312 11.335938 8.8125 C 13.4375 10.546875 16.539062 10.53125 18.609375 8.640625 C 20.648438 6.789062 20.992188 3.765625 19.539062 1.523438 C 19.734375 1.6875 19.929688 1.867188 20.109375 2.070312 C 22.171875 4.335938 22.007812 7.851562 19.734375 9.90625 Z M 19.734375 9.90625 "/>
<path style=" stroke:none;fill-rule:nonzero;fill:rgb(65.490196%,91.764706%,74.901961%);fill-opacity:1;" d="M 20.664062 2.789062 C 18.5625 1.046875 15.460938 1.070312 13.390625 2.953125 C 11.359375 4.804688 11.015625 7.828125 12.460938 10.078125 C 12.265625 9.90625 12.078125 9.726562 11.890625 9.53125 C 9.828125 7.265625 9.992188 3.75 12.265625 1.695312 C 14.53125 -0.367188 18.046875 -0.203125 20.109375 2.070312 C 20.3125 2.296875 20.5 2.539062 20.664062 2.789062 Z M 20.664062 2.789062 "/>
<path style=" stroke:none;fill-rule:nonzero;fill:rgb(20%,20%,20%);fill-opacity:1;" d="M 11.703125 9.703125 C 9.578125 7.359375 9.695312 3.6875 12.09375 1.507812 C 14.460938 -0.640625 18.140625 -0.46875 20.296875 1.898438 C 22.4375 4.242188 22.289062 7.929688 19.898438 10.101562 C 17.507812 12.265625 13.835938 12.046875 11.703125 9.703125 Z M 12.429688 1.882812 C 10.265625 3.851562 10.109375 7.203125 12.078125 9.367188 C 14.046875 11.53125 17.40625 11.695312 19.5625 9.726562 C 21.710938 7.773438 21.914062 4.421875 19.921875 2.242188 C 17.96875 0.0859375 14.609375 -0.09375 12.429688 1.882812 Z M 12.429688 1.882812 "/>
<path style=" stroke:none;fill-rule:nonzero;fill:rgb(98.823529%,54.117647%,54.117647%);fill-opacity:1;" d="M 14.859375 8.335938 C 14.65625 8.335938 14.46875 8.257812 14.328125 8.117188 L 13.03125 6.828125 C 12.734375 6.53125 12.734375 6.054688 13.03125 5.765625 C 13.328125 5.476562 13.796875 5.476562 14.085938 5.765625 L 14.851562 6.53125 L 17.898438 3.484375 C 18.195312 3.1875 18.664062 3.1875 18.953125 3.484375 C 19.25 3.773438 19.25 4.242188 18.953125 4.539062 L 15.382812 8.109375 C 15.242188 8.257812 15.054688 8.335938 14.859375 8.335938 Z M 14.859375 8.335938 "/>
<path style=" stroke:none;fill-rule:nonzero;fill:rgb(97.647059%,38.823529%,39.215686%);fill-opacity:1;" d="M 18.960938 4.539062 L 18.328125 5.171875 C 18.617188 4.890625 18.617188 4.414062 18.328125 4.117188 C 18.03125 3.828125 17.5625 3.828125 17.265625 4.117188 L 17.90625 3.484375 C 18.203125 3.1875 18.671875 3.1875 18.960938 3.484375 C 19.257812 3.773438 19.257812 4.242188 18.960938 4.539062 Z M 18.960938 4.539062 "/>
<path style=" stroke:none;fill-rule:nonzero;fill:rgb(98.823529%,69.019608%,69.019608%);fill-opacity:1;" d="M 15.859375 7.640625 L 15.390625 8.109375 C 15.109375 8.390625 14.640625 8.414062 14.328125 8.109375 L 13.039062 6.820312 C 12.742188 6.53125 12.742188 6.054688 13.039062 5.765625 C 13.125 5.671875 13.226562 5.609375 13.335938 5.578125 C 13.25 5.84375 13.3125 6.140625 13.515625 6.34375 L 14.8125 7.640625 C 14.953125 7.773438 15.140625 7.859375 15.34375 7.859375 C 15.53125 7.859375 15.726562 7.78125 15.859375 7.640625 Z M 15.859375 7.640625 "/>
<path style=" stroke:none;fill-rule:nonzero;fill:rgb(20%,20%,20%);fill-opacity:1;" d="M 14.148438 8.296875 L 12.859375 7 C 12.460938 6.609375 12.460938 5.984375 12.859375 5.585938 C 13.234375 5.210938 13.890625 5.210938 14.265625 5.585938 L 14.859375 6.171875 L 17.726562 3.304688 C 18.117188 2.914062 18.742188 2.914062 19.140625 3.304688 C 19.53125 3.703125 19.53125 4.328125 19.140625 4.71875 L 15.5625 8.296875 C 15.164062 8.695312 14.53125 8.671875 14.148438 8.296875 Z M 13.210938 5.9375 C 13.015625 6.132812 13.015625 6.445312 13.210938 6.640625 L 14.507812 7.929688 C 14.695312 8.117188 15.023438 8.117188 15.210938 7.929688 L 18.789062 4.359375 C 18.984375 4.164062 18.984375 3.851562 18.789062 3.65625 C 18.601562 3.46875 18.265625 3.46875 18.078125 3.65625 L 15.03125 6.703125 C 14.984375 6.757812 14.921875 6.78125 14.859375 6.78125 C 14.789062 6.78125 14.726562 6.757812 14.679688 6.703125 L 13.921875 5.945312 C 13.695312 5.734375 13.390625 5.757812 13.210938 5.9375 Z M 13.210938 5.9375 "/>
</g>
</svg>
