<?xml version="1.0" encoding="UTF-8"?>
<svg xmlns="http://www.w3.org/2000/svg" xmlns:xlink="http://www.w3.org/1999/xlink" width="32px" height="32px" viewBox="0 0 32 32" version="1.1">
<g id="surface1">
<path style=" stroke:none;fill-rule:nonzero;fill:rgb(18.431373%,36.862745%,53.333333%);fill-opacity:1;" d="M 8.691406 30.417969 L 7.636719 30.417969 L 7.636719 25.046875 C 7.636719 24.960938 7.65625 24.878906 7.699219 24.800781 L 9.878906 20.699219 L 9.878906 18.179688 L 10.933594 18.179688 L 10.933594 20.828125 C 10.933594 20.917969 10.914062 21 10.871094 21.078125 L 8.691406 25.179688 C 8.691406 25.179688 8.691406 30.417969 8.691406 30.417969 Z M 8.691406 30.417969 "/>
<path style=" stroke:none;fill-rule:nonzero;fill:rgb(18.431373%,36.862745%,53.333333%);fill-opacity:1;" d="M 18.769531 30.417969 L 17.714844 30.417969 L 17.714844 25.179688 L 15.535156 21.078125 C 15.492188 21 15.472656 20.917969 15.472656 20.828125 L 15.472656 18.179688 L 16.527344 18.179688 L 16.527344 20.699219 L 18.707031 24.800781 C 18.75 24.878906 18.769531 24.960938 18.769531 25.046875 Z M 18.769531 30.417969 "/>
<path style=" stroke:none;fill-rule:nonzero;fill:rgb(18.431373%,36.862745%,53.333333%);fill-opacity:1;" d="M 4.40625 30.417969 L 3.351562 30.417969 L 3.351562 25.046875 C 3.351562 24.960938 3.371094 24.878906 3.414062 24.800781 L 5.59375 20.699219 L 5.59375 18.179688 L 6.648438 18.179688 L 6.648438 20.828125 C 6.648438 20.917969 6.628906 21 6.585938 21.078125 L 4.40625 25.179688 Z M 4.40625 30.417969 "/>
<path style=" stroke:none;fill-rule:nonzero;fill:rgb(100%,57.254902%,41.176471%);fill-opacity:1;" d="M 7.816406 0 L 7.816406 8.859375 C 10.261719 8.859375 12.246094 6.878906 12.246094 4.429688 C 12.246094 1.984375 10.261719 0 7.816406 0 Z M 7.816406 0 "/>
<path style=" stroke:none;fill-rule:nonzero;fill:rgb(47.058824%,89.019608%,92.54902%);fill-opacity:1;" d="M 7.734375 10.972656 C 3.464844 10.972656 0 14.433594 0 18.707031 L 15.472656 18.707031 C 15.472656 14.433594 12.011719 10.972656 7.734375 10.972656 Z M 7.734375 10.972656 "/>
<path style=" stroke:none;fill-rule:nonzero;fill:rgb(100%,69.019608%,50.980392%);fill-opacity:1;" d="M 7.816406 0 C 9.097656 0 10.136719 1.984375 10.136719 4.429688 C 10.136719 6.878906 9.097656 8.859375 7.816406 8.859375 C 5.367188 8.859375 3.382812 6.878906 3.382812 4.429688 C 3.382812 1.984375 5.367188 0 7.816406 0 Z M 7.816406 0 "/>
<path style=" stroke:none;fill-rule:nonzero;fill:rgb(14.509804%,73.333333%,80%);fill-opacity:1;" d="M 24.265625 10.972656 L 29.890625 18.707031 L 32 18.707031 C 32 14.433594 28.535156 10.972656 24.265625 10.972656 Z M 24.265625 10.972656 "/>
<path style=" stroke:none;fill-rule:nonzero;fill:rgb(100%,57.254902%,41.176471%);fill-opacity:1;" d="M 24.339844 0 L 24.339844 8.859375 C 26.789062 8.859375 28.769531 6.878906 28.769531 4.429688 C 28.769531 1.984375 26.789062 0 24.339844 0 Z M 24.339844 0 "/>
<path style=" stroke:none;fill-rule:nonzero;fill:rgb(47.058824%,89.019608%,92.54902%);fill-opacity:1;" d="M 24.265625 10.972656 C 27.371094 10.972656 29.890625 14.433594 29.890625 18.707031 L 16.527344 18.707031 C 16.527344 14.433594 19.988281 10.972656 24.265625 10.972656 Z M 24.265625 10.972656 "/>
<path style=" stroke:none;fill-rule:nonzero;fill:rgb(100%,69.019608%,50.980392%);fill-opacity:1;" d="M 24.339844 0 C 25.621094 0 26.664062 1.984375 26.664062 4.429688 C 26.664062 6.878906 25.621094 8.859375 24.339844 8.859375 C 21.894531 8.859375 19.910156 6.878906 19.910156 4.429688 C 19.910156 1.984375 21.894531 0 24.339844 0 Z M 24.339844 0 "/>
<path style=" stroke:none;fill-rule:nonzero;fill:rgb(100%,27.843137%,9.803922%);fill-opacity:1;" d="M 16 10.972656 L 21.625 18.707031 L 23.734375 18.707031 C 23.734375 14.433594 20.269531 10.972656 16 10.972656 Z M 16 10.972656 "/>
<path style=" stroke:none;fill-rule:nonzero;fill:rgb(100%,85.882353%,54.117647%);fill-opacity:1;" d="M 16.078125 0 L 16.078125 8.859375 C 18.523438 8.859375 20.511719 6.878906 20.511719 4.429688 C 20.511719 1.984375 18.523438 0 16.078125 0 Z M 16.078125 0 "/>
<path style=" stroke:none;fill-rule:nonzero;fill:rgb(100%,45.882353%,30.980392%);fill-opacity:1;" d="M 16 10.972656 C 19.109375 10.972656 21.625 14.433594 21.625 18.707031 L 8.265625 18.707031 C 8.265625 14.433594 11.730469 10.972656 16 10.972656 Z M 16 10.972656 "/>
<path style=" stroke:none;fill-rule:nonzero;fill:rgb(100%,91.764706%,70.980392%);fill-opacity:1;" d="M 16.078125 0 C 17.359375 0 18.398438 1.984375 18.398438 4.429688 C 18.398438 6.878906 17.359375 8.859375 16.078125 8.859375 C 13.632812 8.859375 11.644531 6.878906 11.644531 4.429688 C 11.644531 1.984375 13.632812 0 16.078125 0 Z M 16.078125 0 "/>
<path style=" stroke:none;fill-rule:nonzero;fill:rgb(87.843137%,18.039216%,0%);fill-opacity:1;" d="M 16.078125 6.234375 C 15.476562 6.234375 14.933594 5.867188 14.726562 5.324219 C 14.625 5.046875 14.761719 4.746094 15.035156 4.640625 C 15.304688 4.542969 15.609375 4.675781 15.714844 4.953125 C 15.765625 5.085938 15.914062 5.179688 16.078125 5.179688 C 16.242188 5.179688 16.390625 5.085938 16.441406 4.953125 C 16.546875 4.675781 16.847656 4.542969 17.121094 4.640625 C 17.390625 4.746094 17.53125 5.046875 17.425781 5.324219 C 17.222656 5.867188 16.679688 6.234375 16.078125 6.234375 Z M 16.078125 6.234375 "/>
<path style=" stroke:none;fill-rule:nonzero;fill:rgb(87.843137%,18.039216%,0%);fill-opacity:1;" d="M 24.339844 6.234375 C 23.738281 6.234375 23.199219 5.867188 22.988281 5.324219 C 22.890625 5.046875 23.023438 4.746094 23.296875 4.640625 C 23.570312 4.542969 23.875 4.675781 23.980469 4.953125 C 24.03125 5.085938 24.175781 5.179688 24.339844 5.179688 C 24.507812 5.179688 24.652344 5.085938 24.703125 4.953125 C 24.808594 4.675781 25.109375 4.542969 25.386719 4.640625 C 25.65625 4.746094 25.796875 5.046875 25.691406 5.324219 C 25.484375 5.867188 24.945312 6.234375 24.339844 6.234375 Z M 24.339844 6.234375 "/>
<path style=" stroke:none;fill-rule:nonzero;fill:rgb(47.058824%,89.019608%,92.54902%);fill-opacity:1;" d="M 5 30.945312 C 5 31.527344 4.523438 32 3.945312 32 C 3.359375 32 2.890625 31.527344 2.890625 30.945312 C 2.890625 30.359375 3.359375 29.890625 3.945312 29.890625 C 4.523438 29.890625 5 30.359375 5 30.945312 Z M 5 30.945312 "/>
<path style=" stroke:none;fill-rule:nonzero;fill:rgb(47.058824%,89.019608%,92.54902%);fill-opacity:1;" d="M 9.21875 30.945312 C 9.21875 31.527344 8.746094 32 8.164062 32 C 7.578125 32 7.109375 31.527344 7.109375 30.945312 C 7.109375 30.359375 7.578125 29.890625 8.164062 29.890625 C 8.746094 29.890625 9.21875 30.359375 9.21875 30.945312 Z M 9.21875 30.945312 "/>
<path style=" stroke:none;fill-rule:nonzero;fill:rgb(47.058824%,89.019608%,92.54902%);fill-opacity:1;" d="M 19.296875 30.945312 C 19.296875 31.527344 18.828125 32 18.242188 32 C 17.660156 32 17.1875 31.527344 17.1875 30.945312 C 17.1875 30.359375 17.660156 29.890625 18.242188 29.890625 C 18.828125 29.890625 19.296875 30.359375 19.296875 30.945312 Z M 19.296875 30.945312 "/>
<path style=" stroke:none;fill-rule:nonzero;fill:rgb(53.333333%,67.45098%,70.980392%);fill-opacity:1;" d="M 29.109375 25.578125 L 20.355469 25.578125 C 20.0625 25.578125 19.828125 25.339844 19.828125 25.046875 C 19.828125 24.757812 20.0625 24.519531 20.355469 24.519531 L 29.109375 24.519531 C 29.402344 24.519531 29.640625 24.757812 29.640625 25.046875 C 29.640625 25.339844 29.402344 25.578125 29.109375 25.578125 Z M 29.109375 25.578125 "/>
<path style=" stroke:none;fill-rule:nonzero;fill:rgb(53.333333%,67.45098%,70.980392%);fill-opacity:1;" d="M 29.109375 27.6875 L 20.355469 27.6875 C 20.0625 27.6875 19.828125 27.453125 19.828125 27.160156 C 19.828125 26.867188 20.0625 26.632812 20.355469 26.632812 L 29.109375 26.632812 C 29.402344 26.632812 29.640625 26.867188 29.640625 27.160156 C 29.640625 27.453125 29.402344 27.6875 29.109375 27.6875 Z M 29.109375 27.6875 "/>
<path style=" stroke:none;fill-rule:nonzero;fill:rgb(53.333333%,67.45098%,70.980392%);fill-opacity:1;" d="M 29.109375 29.796875 L 24.734375 29.796875 C 24.441406 29.796875 24.203125 29.558594 24.203125 29.265625 C 24.203125 28.976562 24.441406 28.738281 24.734375 28.738281 L 29.109375 28.738281 C 29.402344 28.738281 29.640625 28.976562 29.640625 29.265625 C 29.640625 29.558594 29.402344 29.796875 29.109375 29.796875 Z M 29.109375 29.796875 "/>
<path style=" stroke:none;fill-rule:nonzero;fill:rgb(87.843137%,18.039216%,0%);fill-opacity:1;" d="M 7.660156 6.234375 C 7.054688 6.234375 6.515625 5.867188 6.308594 5.324219 C 6.203125 5.046875 6.34375 4.746094 6.613281 4.640625 C 6.890625 4.542969 7.191406 4.675781 7.296875 4.953125 C 7.347656 5.085938 7.492188 5.179688 7.660156 5.179688 C 7.824219 5.179688 7.96875 5.085938 8.019531 4.953125 C 8.125 4.675781 8.429688 4.542969 8.703125 4.640625 C 8.976562 4.746094 9.109375 5.046875 9.011719 5.324219 C 8.800781 5.867188 8.261719 6.234375 7.660156 6.234375 Z M 7.660156 6.234375 "/>
</g>
</svg>
