<?xml version="1.0" encoding="UTF-8"?>
<svg xmlns="http://www.w3.org/2000/svg" xmlns:xlink="http://www.w3.org/1999/xlink" width="32px" height="32px" viewBox="0 0 32 32" version="1.1">
<g id="surface1">
<path style=" stroke:none;fill-rule:nonzero;fill:rgb(21.960784%,69.411765%,90.588235%);fill-opacity:1;" d="M 28.667969 13.421875 L 17 2.585938 C 16.714844 2.265625 16.304688 2.078125 15.875 2.085938 C 15.445312 2.09375 15.039062 2.292969 14.765625 2.625 L 3.332031 13.421875 L 3.332031 29.332031 C 3.332031 30.070312 3.929688 30.667969 4.667969 30.667969 L 27.332031 30.667969 C 28.070312 30.667969 28.667969 30.070312 28.667969 29.332031 Z M 28.667969 13.421875 "/>
<path style=" stroke:none;fill-rule:nonzero;fill:rgb(100%,100%,100%);fill-opacity:1;" d="M 14.667969 11.332031 L 17.332031 11.332031 C 18.070312 11.332031 18.667969 11.929688 18.667969 12.667969 L 18.667969 15.332031 C 18.667969 16.070312 18.070312 16.667969 17.332031 16.667969 L 14.667969 16.667969 C 13.929688 16.667969 13.332031 16.070312 13.332031 15.332031 L 13.332031 12.667969 C 13.332031 11.929688 13.929688 11.332031 14.667969 11.332031 Z M 14.667969 11.332031 "/>
<path style=" stroke:none;fill-rule:nonzero;fill:rgb(92.54902%,31.372549%,26.666667%);fill-opacity:1;" d="M 30.667969 15.964844 C 30.421875 15.96875 30.183594 15.878906 30 15.710938 L 16 3.167969 L 2 15.707031 C 1.800781 15.886719 1.542969 15.976562 1.277344 15.960938 C 1.015625 15.949219 0.765625 15.828125 0.585938 15.632812 C 0.410156 15.4375 0.320312 15.175781 0.332031 14.914062 C 0.351562 14.648438 0.46875 14.402344 0.667969 14.226562 L 14.839844 1.527344 C 15.5 0.9375 16.5 0.9375 17.160156 1.527344 L 31.332031 14.226562 C 31.644531 14.5 31.753906 14.941406 31.605469 15.328125 C 31.457031 15.714844 31.082031 15.972656 30.667969 15.964844 Z M 30.667969 15.964844 "/>
<path style=" stroke:none;fill-rule:nonzero;fill:rgb(92.54902%,31.372549%,26.666667%);fill-opacity:1;" d="M 13.332031 22.667969 L 18.667969 22.667969 C 19.402344 22.667969 20 23.265625 20 24 L 20 30.667969 L 12 30.667969 L 12 24 C 12 23.265625 12.597656 22.667969 13.332031 22.667969 Z M 13.332031 22.667969 "/>
</g>
</svg>
