<?xml version="1.0" encoding="UTF-8"?>
<svg xmlns="http://www.w3.org/2000/svg" xmlns:xlink="http://www.w3.org/1999/xlink" width="32px" height="32px" viewBox="0 0 32 32" version="1.1">
<g id="surface1">
<path style=" stroke:none;fill-rule:nonzero;fill:rgb(0%,0%,0%);fill-opacity:1;" d="M 28.445312 0 L 3.554688 0 C 1.589844 0 0 1.589844 0 3.554688 L 0 10.667969 L 3.554688 10.667969 L 3.554688 3.554688 L 28.445312 3.554688 L 28.445312 28.445312 L 3.554688 28.445312 L 3.554688 21.332031 L 0 21.332031 L 0 28.445312 C 0 30.410156 1.589844 32 3.554688 32 L 28.445312 32 C 30.410156 32 32 30.410156 32 28.445312 L 32 3.554688 C 32 1.589844 30.410156 0 28.445312 0 Z M 28.445312 0 "/>
<path style=" stroke:none;fill-rule:nonzero;fill:rgb(0%,0%,0%);fill-opacity:1;" d="M 12.59375 22.375 L 15.109375 24.890625 L 24 16 L 15.109375 7.109375 L 12.59375 9.625 L 17.191406 14.222656 L 0 14.222656 L 0 17.777344 L 17.191406 17.777344 Z M 12.59375 22.375 "/>
</g>
</svg>
