<?xml version="1.0" encoding="UTF-8"?>
<svg xmlns="http://www.w3.org/2000/svg" xmlns:xlink="http://www.w3.org/1999/xlink" width="32px" height="32px" viewBox="0 0 32 32" version="1.1">
<g id="surface1">
<path style=" stroke:none;fill-rule:nonzero;fill:rgb(100%,100%,100%);fill-opacity:1;" d="M 16 14.128906 C 16.730469 14.128906 17.351562 13.570312 17.578125 13.011719 L 14.421875 13.011719 C 14.648438 13.570312 15.269531 14.128906 16 14.128906 Z M 16 14.128906 "/>
<path style=" stroke:none;fill-rule:nonzero;fill:rgb(40%,80.784314%,85.882353%);fill-opacity:1;" d="M 20.679688 15.242188 L 4.054688 15.242188 L 1.824219 19.710938 L 18.449219 19.710938 Z M 20.679688 15.242188 "/>
<path style=" stroke:none;fill-rule:nonzero;fill:rgb(40%,80.784314%,85.882353%);fill-opacity:1;" d="M 18.792969 20.828125 L 4.269531 20.828125 L 4.269531 29.046875 C 4.269531 29.96875 5.019531 30.882812 5.945312 30.882812 L 9.855469 30.882812 L 9.855469 24.578125 C 9.855469 24.382812 9.953125 24.203125 10.121094 24.101562 C 10.285156 23.996094 10.488281 23.988281 10.664062 24.078125 L 11.53125 24.511719 L 12.398438 24.078125 C 12.554688 23.996094 12.738281 23.996094 12.898438 24.078125 L 13.765625 24.511719 L 14.632812 24.078125 C 14.804688 23.988281 15.011719 23.996094 15.175781 24.101562 C 15.339844 24.203125 15.441406 24.382812 15.441406 24.578125 L 15.441406 30.882812 L 21.027344 30.882812 L 21.027344 16.890625 L 19.292969 20.4375 C 19.199219 20.628906 19.003906 20.828125 18.792969 20.828125 Z M 18.792969 20.828125 "/>
<path style=" stroke:none;fill-rule:nonzero;fill:rgb(93.333333%,54.509804%,14.901961%);fill-opacity:1;" d="M 13.515625 25.636719 L 12.648438 25.203125 L 11.78125 25.636719 C 11.625 25.710938 11.441406 25.710938 11.28125 25.636719 L 10.972656 25.480469 L 10.972656 30.882812 L 14.324219 30.882812 L 14.324219 25.480469 L 14.015625 25.636719 C 13.859375 25.710938 13.671875 25.710938 13.515625 25.636719 Z M 13.515625 25.636719 "/>
<path style=" stroke:none;fill-rule:nonzero;fill:rgb(40%,80.784314%,85.882353%);fill-opacity:1;" d="M 23.878906 20.4375 L 22.140625 16.890625 L 22.140625 30.882812 L 26.050781 30.882812 C 26.976562 30.882812 27.730469 29.96875 27.730469 29.046875 L 27.730469 20.828125 L 24.378906 20.828125 C 24.167969 20.828125 23.972656 20.628906 23.878906 20.4375 Z M 23.878906 20.4375 "/>
<path style=" stroke:none;fill-rule:nonzero;fill:rgb(97.254902%,81.176471%,14.901961%);fill-opacity:1;" d="M 13.207031 12.453125 C 13.207031 12.140625 13.457031 11.890625 13.765625 11.890625 L 18.234375 11.890625 C 18.542969 11.890625 18.792969 12.140625 18.792969 12.453125 C 18.792969 13.082031 18.574219 13.570312 18.21875 14.128906 L 20.46875 14.128906 L 20.46875 9.496094 C 20.46875 8.574219 19.714844 7.984375 18.792969 7.984375 L 13.207031 7.984375 C 12.285156 7.984375 11.53125 8.574219 11.53125 9.496094 L 11.53125 14.128906 L 13.78125 14.128906 C 13.425781 13.570312 13.207031 13.082031 13.207031 12.453125 Z M 17.671875 9.496094 C 17.984375 9.496094 18.234375 9.746094 18.234375 10.054688 C 18.234375 10.359375 17.984375 10.609375 17.671875 10.609375 C 17.367188 10.609375 17.117188 10.359375 17.117188 10.054688 C 17.117188 9.746094 17.367188 9.496094 17.671875 9.496094 Z M 14.324219 9.496094 C 14.632812 9.496094 14.882812 9.746094 14.882812 10.054688 C 14.882812 10.359375 14.632812 10.609375 14.324219 10.609375 C 14.015625 10.609375 13.765625 10.359375 13.765625 10.054688 C 13.765625 9.746094 14.015625 9.496094 14.324219 9.496094 Z M 14.324219 9.496094 "/>
<path style=" stroke:none;fill-rule:nonzero;fill:rgb(40%,80.784314%,85.882353%);fill-opacity:1;" d="M 27.171875 15.242188 L 22.488281 15.242188 L 24.722656 19.710938 L 30.175781 19.710938 L 27.941406 15.242188 Z M 27.171875 15.242188 "/>
<path style=" stroke:none;fill-rule:nonzero;fill:rgb(0%,0%,0%);fill-opacity:1;" d="M 28.789062 14.355469 C 28.695312 14.167969 28.5 14.128906 28.289062 14.128906 L 21.585938 14.128906 L 21.585938 9.496094 C 21.585938 7.953125 20.332031 6.863281 18.792969 6.863281 L 13.207031 6.863281 C 11.667969 6.863281 10.417969 7.953125 10.417969 9.496094 L 10.417969 14.128906 L 3.710938 14.128906 C 3.5 14.128906 3.308594 14.167969 3.210938 14.355469 L 0.421875 19.898438 C 0.332031 20.074219 0.34375 20.335938 0.445312 20.503906 C 0.546875 20.667969 0.726562 20.828125 0.921875 20.828125 L 3.152344 20.828125 L 3.152344 29.046875 C 3.152344 30.582031 4.40625 32 5.949219 32 L 26.054688 32 C 27.59375 32 28.847656 30.582031 28.847656 29.046875 L 28.847656 20.828125 L 31.078125 20.828125 C 31.273438 20.828125 31.453125 20.644531 31.554688 20.484375 C 31.65625 20.320312 31.667969 20.109375 31.578125 19.9375 Z M 11.53125 9.496094 C 11.53125 8.574219 12.285156 7.984375 13.207031 7.984375 L 18.792969 7.984375 C 19.714844 7.984375 20.46875 8.574219 20.46875 9.496094 L 20.46875 14.128906 L 18.21875 14.128906 C 18.574219 13.570312 18.792969 13.082031 18.792969 12.453125 C 18.792969 12.140625 18.542969 11.890625 18.234375 11.890625 L 13.765625 11.890625 C 13.457031 11.890625 13.207031 12.140625 13.207031 12.453125 C 13.207031 13.082031 13.425781 13.570312 13.78125 14.128906 L 11.53125 14.128906 Z M 14.421875 13.011719 L 17.578125 13.011719 C 17.347656 13.570312 16.730469 14.128906 16 14.128906 C 15.269531 14.128906 14.648438 13.570312 14.421875 13.011719 Z M 4.054688 15.242188 L 20.679688 15.242188 L 18.449219 19.710938 L 1.824219 19.710938 Z M 4.269531 29.046875 L 4.269531 20.828125 L 18.792969 20.828125 C 19.003906 20.828125 19.199219 20.628906 19.292969 20.4375 L 21.027344 16.890625 L 21.027344 30.882812 L 15.441406 30.882812 L 15.441406 24.578125 C 15.441406 24.382812 15.339844 24.203125 15.175781 24.101562 C 15.011719 23.996094 14.804688 23.988281 14.632812 24.078125 L 13.765625 24.511719 L 12.898438 24.078125 C 12.738281 23.996094 12.554688 23.996094 12.398438 24.078125 L 11.53125 24.511719 L 10.664062 24.078125 C 10.488281 23.988281 10.285156 23.996094 10.121094 24.101562 C 9.953125 24.203125 9.855469 24.382812 9.855469 24.578125 L 9.855469 30.882812 L 5.945312 30.882812 C 5.019531 30.882812 4.269531 29.96875 4.269531 29.046875 Z M 10.972656 30.882812 L 10.972656 25.480469 L 11.28125 25.636719 C 11.4375 25.710938 11.625 25.710938 11.78125 25.636719 L 12.648438 25.203125 L 13.515625 25.636719 C 13.671875 25.710938 13.859375 25.710938 14.015625 25.636719 L 14.324219 25.480469 L 14.324219 30.882812 Z M 27.730469 29.046875 C 27.730469 29.96875 26.976562 30.882812 26.050781 30.882812 L 22.140625 30.882812 L 22.140625 16.890625 L 23.878906 20.4375 C 23.972656 20.628906 24.167969 20.828125 24.378906 20.828125 L 27.730469 20.828125 Z M 24.722656 19.710938 L 22.488281 15.242188 L 27.941406 15.242188 L 30.175781 19.710938 Z M 24.722656 19.710938 "/>
<path style=" stroke:none;fill-rule:nonzero;fill:rgb(0%,0%,0%);fill-opacity:1;" d="M 14.882812 10.054688 C 14.882812 10.359375 14.632812 10.609375 14.324219 10.609375 C 14.015625 10.609375 13.765625 10.359375 13.765625 10.054688 C 13.765625 9.746094 14.015625 9.496094 14.324219 9.496094 C 14.632812 9.496094 14.882812 9.746094 14.882812 10.054688 Z M 14.882812 10.054688 "/>
<path style=" stroke:none;fill-rule:nonzero;fill:rgb(0%,0%,0%);fill-opacity:1;" d="M 18.234375 10.054688 C 18.234375 10.359375 17.984375 10.609375 17.671875 10.609375 C 17.367188 10.609375 17.117188 10.359375 17.117188 10.054688 C 17.117188 9.746094 17.367188 9.496094 17.671875 9.496094 C 17.984375 9.496094 18.234375 9.746094 18.234375 10.054688 Z M 18.234375 10.054688 "/>
<path style=" stroke:none;fill-rule:nonzero;fill:rgb(0%,0%,0%);fill-opacity:1;" d="M 4.828125 13.011719 L 5.945312 13.011719 C 5.945312 9.660156 3.441406 7.261719 0.359375 7.261719 L 0.359375 8.378906 C 2.824219 8.378906 4.828125 10.21875 4.828125 13.011719 Z M 4.828125 13.011719 "/>
<path style=" stroke:none;fill-rule:nonzero;fill:rgb(0%,0%,0%);fill-opacity:1;" d="M 7.0625 7.984375 L 8.179688 7.984375 C 8.179688 3.515625 4.921875 0.558594 0.921875 0.558594 L 0.921875 1.675781 C 4.304688 1.675781 7.0625 4.074219 7.0625 7.984375 Z M 7.0625 7.984375 "/>
<path style=" stroke:none;fill-rule:nonzero;fill:rgb(0%,0%,0%);fill-opacity:1;" d="M 13.207031 5.75 L 14.324219 5.75 C 14.324219 2.953125 12.070312 0.558594 9.296875 0.558594 L 9.296875 1.675781 C 11.453125 1.675781 13.207031 3.515625 13.207031 5.75 Z M 13.207031 5.75 "/>
<path style=" stroke:none;fill-rule:nonzero;fill:rgb(0%,0%,0%);fill-opacity:1;" d="M 26.050781 13.011719 L 27.171875 13.011719 C 27.171875 10.21875 29.171875 8.378906 31.640625 8.378906 L 31.640625 7.261719 C 28.558594 7.261719 26.050781 9.660156 26.050781 13.011719 Z M 26.050781 13.011719 "/>
<path style=" stroke:none;fill-rule:nonzero;fill:rgb(0%,0%,0%);fill-opacity:1;" d="M 31.078125 1.675781 L 31.078125 0.558594 C 27.078125 0.558594 23.820312 3.515625 23.820312 7.984375 L 24.9375 7.984375 C 24.9375 4.074219 27.695312 1.675781 31.078125 1.675781 Z M 31.078125 1.675781 "/>
<path style=" stroke:none;fill-rule:nonzero;fill:rgb(0%,0%,0%);fill-opacity:1;" d="M 22.703125 1.675781 L 22.703125 0.558594 C 19.929688 0.558594 17.671875 2.953125 17.671875 5.75 L 18.792969 5.75 C 18.792969 3.515625 20.546875 1.675781 22.703125 1.675781 Z M 22.703125 1.675781 "/>
<path style=" stroke:none;fill-rule:nonzero;fill:rgb(0%,0%,0%);fill-opacity:1;" d="M 7.0625 8.9375 L 8.179688 8.9375 L 8.179688 10.054688 L 7.0625 10.054688 Z M 7.0625 8.9375 "/>
<path style=" stroke:none;fill-rule:nonzero;fill:rgb(0%,0%,0%);fill-opacity:1;" d="M 7.0625 11.171875 L 8.179688 11.171875 L 8.179688 12.289062 L 7.0625 12.289062 Z M 7.0625 11.171875 "/>
<path style=" stroke:none;fill-rule:nonzero;fill:rgb(0%,0%,0%);fill-opacity:1;" d="M 23.820312 8.9375 L 24.9375 8.9375 L 24.9375 10.054688 L 23.820312 10.054688 Z M 23.820312 8.9375 "/>
<path style=" stroke:none;fill-rule:nonzero;fill:rgb(0%,0%,0%);fill-opacity:1;" d="M 23.820312 11.171875 L 24.9375 11.171875 L 24.9375 12.289062 L 23.820312 12.289062 Z M 23.820312 11.171875 "/>
<path style=" stroke:none;fill-rule:nonzero;fill:rgb(0%,0%,0%);fill-opacity:1;" d="M 7.0625 0.558594 L 8.179688 0.558594 L 8.179688 1.675781 L 7.0625 1.675781 Z M 7.0625 0.558594 "/>
<path style=" stroke:none;fill-rule:nonzero;fill:rgb(0%,0%,0%);fill-opacity:1;" d="M 23.820312 0.558594 L 24.9375 0.558594 L 24.9375 1.675781 L 23.820312 1.675781 Z M 23.820312 0.558594 "/>
<path style=" stroke:none;fill-rule:nonzero;fill:rgb(0%,0%,0%);fill-opacity:1;" d="M 15.441406 4.46875 L 16.558594 4.46875 L 16.558594 5.585938 L 15.441406 5.585938 Z M 15.441406 4.46875 "/>
<path style=" stroke:none;fill-rule:nonzero;fill:rgb(0%,0%,0%);fill-opacity:1;" d="M 15.441406 2.234375 L 16.558594 2.234375 L 16.558594 3.351562 L 15.441406 3.351562 Z M 15.441406 2.234375 "/>
<path style=" stroke:none;fill-rule:nonzero;fill:rgb(0%,0%,0%);fill-opacity:1;" d="M 15.441406 0 L 16.558594 0 L 16.558594 1.117188 L 15.441406 1.117188 Z M 15.441406 0 "/>
<path style=" stroke:none;fill-rule:nonzero;fill:rgb(0%,0%,0%);fill-opacity:1;" d="M 9.855469 4.46875 L 10.972656 4.46875 L 10.972656 5.585938 L 9.855469 5.585938 Z M 9.855469 4.46875 "/>
<path style=" stroke:none;fill-rule:nonzero;fill:rgb(0%,0%,0%);fill-opacity:1;" d="M 21.027344 4.46875 L 22.140625 4.46875 L 22.140625 5.585938 L 21.027344 5.585938 Z M 21.027344 4.46875 "/>
</g>
</svg>
