<?xml version="1.0" encoding="UTF-8"?>
<svg xmlns="http://www.w3.org/2000/svg" xmlns:xlink="http://www.w3.org/1999/xlink" width="32px" height="32px" viewBox="0 0 32 32" version="1.1">
<g id="surface1">
<path style=" stroke:none;fill-rule:nonzero;fill:rgb(24.705882%,66.27451%,96.078431%);fill-opacity:1;" d="M 15.347656 21.226562 L 18.9375 21.226562 L 18.9375 23.835938 L 15.347656 23.835938 Z M 15.347656 21.226562 "/>
<path style=" stroke:none;fill-rule:nonzero;fill:rgb(24.705882%,66.27451%,96.078431%);fill-opacity:1;" d="M 11.425781 21.226562 L 15.347656 21.226562 L 15.347656 23.835938 L 11.425781 23.835938 Z M 11.425781 21.226562 "/>
<path style=" stroke:none;fill-rule:nonzero;fill:rgb(24.705882%,66.27451%,96.078431%);fill-opacity:1;" d="M 7.511719 21.226562 L 11.425781 21.226562 L 11.425781 23.835938 L 7.511719 23.835938 Z M 7.511719 21.226562 "/>
<path style=" stroke:none;fill-rule:nonzero;fill:rgb(24.705882%,66.27451%,96.078431%);fill-opacity:1;" d="M 3.917969 21.226562 L 7.511719 21.226562 L 7.511719 23.835938 L 3.917969 23.835938 Z M 3.917969 21.226562 "/>
<path style=" stroke:none;fill-rule:nonzero;fill:rgb(95.686275%,40%,11.764706%);fill-opacity:1;" d="M 12.734375 8.816406 L 17.632812 8.816406 L 17.632812 11.425781 L 12.734375 11.425781 Z M 12.734375 8.816406 "/>
<path style=" stroke:none;fill-rule:nonzero;fill:rgb(95.686275%,40%,11.764706%);fill-opacity:1;" d="M 2.285156 8.816406 L 7.183594 8.816406 L 7.183594 11.425781 L 2.285156 11.425781 Z M 2.285156 8.816406 "/>
<path style=" stroke:none;fill-rule:nonzero;fill:rgb(90.196078%,90.196078%,90.196078%);fill-opacity:1;" d="M 12.734375 6.53125 L 11.101562 6.53125 L 11.101562 3.917969 L 19.265625 3.917969 L 19.265625 6.53125 L 17.632812 6.53125 L 17.632812 8.816406 L 12.734375 8.816406 Z M 12.734375 6.53125 "/>
<path style=" stroke:none;fill-rule:nonzero;fill:rgb(90.196078%,90.196078%,90.196078%);fill-opacity:1;" d="M 2.285156 6.53125 L 0.652344 6.53125 L 0.652344 3.917969 L 8.816406 3.917969 L 8.816406 6.53125 L 7.183594 6.53125 L 7.183594 8.816406 L 2.285156 8.816406 Z M 2.285156 6.53125 "/>
<path style=" stroke:none;fill-rule:nonzero;fill:rgb(90.196078%,90.196078%,90.196078%);fill-opacity:1;" d="M 2.285156 11.425781 L 7.183594 11.425781 L 7.183594 18.9375 L 2.285156 18.9375 Z M 2.285156 11.425781 "/>
<path style=" stroke:none;fill-rule:nonzero;fill:rgb(90.196078%,90.196078%,90.196078%);fill-opacity:1;" d="M 12.734375 11.425781 L 17.632812 11.425781 L 17.632812 18.9375 L 12.734375 18.9375 Z M 12.734375 11.425781 "/>
<path style=" stroke:none;fill-rule:nonzero;fill:rgb(80%,80%,80%);fill-opacity:1;" d="M 21.226562 28.082031 L 21.226562 5.878906 L 30.367188 5.878906 L 30.367188 28.082031 Z M 21.226562 28.082031 "/>
<path style=" stroke:none;fill-rule:nonzero;fill:rgb(70.196078%,70.196078%,70.196078%);fill-opacity:1;" d="M 3.917969 23.835938 L 18.9375 23.835938 L 18.9375 21.226562 L 3.917969 21.226562 Z M 21.226562 18.9375 L 21.226562 28.082031 L 1.632812 28.082031 L 1.632812 18.9375 Z M 21.226562 18.9375 "/>
<path style=" stroke:none;fill-rule:nonzero;fill:rgb(0%,0%,0%);fill-opacity:1;" d="M 30.859375 27.589844 L 30.859375 5.390625 L 20.734375 5.390625 L 20.734375 18.449219 L 18.121094 18.449219 L 18.121094 7.019531 L 19.753906 7.019531 L 19.753906 3.425781 L 10.609375 3.425781 L 10.609375 7.019531 L 12.246094 7.019531 L 12.246094 18.449219 L 7.671875 18.449219 L 7.671875 7.019531 L 9.304688 7.019531 L 9.304688 3.425781 L 0.164062 3.425781 L 0.164062 7.019531 L 1.796875 7.019531 L 1.796875 18.449219 L 1.140625 18.449219 L 1.140625 27.589844 L 0 27.589844 L 0 28.574219 L 32 28.574219 L 32 27.589844 Z M 17.140625 10.9375 L 13.226562 10.9375 L 13.226562 9.304688 L 17.140625 9.304688 Z M 13.226562 11.917969 L 17.140625 11.917969 L 17.140625 18.449219 L 13.226562 18.449219 Z M 11.589844 6.042969 L 11.589844 4.410156 L 18.773438 4.410156 L 18.773438 6.042969 L 17.140625 6.042969 L 17.140625 8.328125 L 13.226562 8.328125 L 13.226562 7.019531 L 15.019531 7.019531 L 15.019531 6.042969 Z M 6.695312 10.9375 L 2.773438 10.9375 L 2.773438 9.304688 L 6.695312 9.304688 Z M 2.773438 11.917969 L 6.695312 11.917969 L 6.695312 18.449219 L 2.773438 18.449219 Z M 1.140625 6.042969 L 1.140625 4.410156 L 8.328125 4.410156 L 8.328125 6.042969 L 6.695312 6.042969 L 6.695312 8.328125 L 2.773438 8.328125 L 2.773438 7.019531 L 4.574219 7.019531 L 4.574219 6.042969 Z M 2.121094 27.589844 L 2.121094 19.425781 L 20.734375 19.425781 L 20.734375 27.589844 Z M 21.714844 27.589844 L 21.714844 6.367188 L 29.878906 6.367188 L 29.878906 27.589844 Z M 21.714844 27.589844 "/>
<path style=" stroke:none;fill-rule:nonzero;fill:rgb(0%,0%,0%);fill-opacity:1;" d="M 19.425781 20.734375 L 3.425781 20.734375 L 3.425781 24.328125 L 19.425781 24.328125 Z M 11.917969 21.714844 L 14.859375 21.714844 L 14.859375 23.347656 L 11.917969 23.347656 Z M 10.9375 23.347656 L 8 23.347656 L 8 21.714844 L 10.9375 21.714844 Z M 4.410156 21.714844 L 7.019531 21.714844 L 7.019531 23.347656 L 4.410156 23.347656 Z M 18.449219 23.347656 L 15.835938 23.347656 L 15.835938 21.714844 L 18.449219 21.714844 Z M 18.449219 23.347656 "/>
<path style=" stroke:none;fill-rule:nonzero;fill:rgb(0%,0%,0%);fill-opacity:1;" d="M 3.265625 25.304688 L 19.589844 25.304688 L 19.589844 26.285156 L 3.265625 26.285156 Z M 3.265625 25.304688 "/>
<path style=" stroke:none;fill-rule:nonzero;fill:rgb(0%,0%,0%);fill-opacity:1;" d="M 22.859375 7.671875 L 28.734375 7.671875 L 28.734375 8.652344 L 22.859375 8.652344 Z M 22.859375 7.671875 "/>
<path style=" stroke:none;fill-rule:nonzero;fill:rgb(0%,0%,0%);fill-opacity:1;" d="M 22.859375 10.285156 L 28.734375 10.285156 L 28.734375 11.265625 L 22.859375 11.265625 Z M 22.859375 10.285156 "/>
<path style=" stroke:none;fill-rule:nonzero;fill:rgb(0%,0%,0%);fill-opacity:1;" d="M 22.859375 12.898438 L 28.734375 12.898438 L 28.734375 13.878906 L 22.859375 13.878906 Z M 22.859375 12.898438 "/>
<path style=" stroke:none;fill-rule:nonzero;fill:rgb(0%,0%,0%);fill-opacity:1;" d="M 22.859375 15.511719 L 28.734375 15.511719 L 28.734375 16.488281 L 22.859375 16.488281 Z M 22.859375 15.511719 "/>
<path style=" stroke:none;fill-rule:nonzero;fill:rgb(0%,0%,0%);fill-opacity:1;" d="M 22.859375 18.121094 L 28.734375 18.121094 L 28.734375 19.101562 L 22.859375 19.101562 Z M 22.859375 18.121094 "/>
<path style=" stroke:none;fill-rule:nonzero;fill:rgb(0%,0%,0%);fill-opacity:1;" d="M 22.859375 20.734375 L 28.734375 20.734375 L 28.734375 21.714844 L 22.859375 21.714844 Z M 22.859375 20.734375 "/>
<path style=" stroke:none;fill-rule:nonzero;fill:rgb(0%,0%,0%);fill-opacity:1;" d="M 22.859375 23.347656 L 28.734375 23.347656 L 28.734375 24.328125 L 22.859375 24.328125 Z M 22.859375 23.347656 "/>
</g>
</svg>
